  0
SECTION
  2
HEADER
  0
ENDSEC
  0
SECTION
  2
ENTITIES
  0
3DFACE
  8
mg_to_dxf
  62
40
  10
-2634.64
  20
-2769.24
  30
0.50
  11
-2637.61
  21
-2768.84
  31
0.50
  12
-2638.40
  22
-2774.79
  32
0.50
  13
-2635.43
  23
-2775.18
  33
0.50
  0
3DFACE
  8
mg_to_dxf
  62
40
  10
-2639.20
  20
-2780.74
  30
0.50
  11
-2639.99
  21
-2786.68
  31
0.50
  12
-2637.02
  22
-2787.08
  32
0.50
  13
-2636.22
  23
-2781.13
  33
0.50
  0
3DFACE
  8
mg_to_dxf
  62
40
  10
-2640.78
  20
-2792.63
  30
0.50
  11
-2641.57
  21
-2798.58
  31
0.50
  12
-2638.60
  22
-2798.97
  32
0.50
  13
-2637.81
  23
-2793.03
  33
0.50
  0
3DFACE
  8
mg_to_dxf
  62
40
  10
-2642.37
  20
-2804.53
  30
0.50
  11
-2643.16
  21
-2810.47
  31
0.50
  12
-2640.19
  22
-2810.87
  32
0.50
  13
-2639.39
  23
-2804.92
  33
0.50
  0
3DFACE
  8
mg_to_dxf
  62
40
  10
-2643.95
  20
-2816.42
  30
0.50
  11
-2644.75
  21
-2822.37
  31
0.50
  12
-2641.77
  22
-2822.76
  32
0.50
  13
-2640.98
  23
-2816.82
  33
0.50
  0
3DFACE
  8
mg_to_dxf
  62
40
  10
-2645.54
  20
-2828.32
  30
0.50
  11
-2646.33
  21
-2834.26
  31
0.50
  12
-2643.36
  22
-2834.66
  32
0.50
  13
-2642.56
  23
-2828.71
  33
0.50
  0
3DFACE
  8
mg_to_dxf
  62
40
  10
-2647.12
  20
-2840.21
  30
0.50
  11
-2647.92
  21
-2846.16
  31
0.50
  12
-2644.94
  22
-2846.55
  32
0.50
  13
-2644.15
  23
-2840.61
  33
0.50
  0
3DFACE
  8
mg_to_dxf
  62
40
  10
-2648.71
  20
-2852.10
  30
0.50
  11
-2649.50
  21
-2858.05
  31
0.50
  12
-2646.53
  22
-2858.45
  32
0.50
  13
-2645.74
  23
-2852.50
  33
0.50
  0
3DFACE
  8
mg_to_dxf
  62
40
  10
-2650.29
  20
-2864.00
  30
0.50
  11
-2651.09
  21
-2869.95
  31
0.50
  12
-2648.11
  22
-2870.34
  32
0.50
  13
-2647.32
  23
-2864.40
  33
0.50
  0
3DFACE
  8
mg_to_dxf
  62
40
  10
-2651.88
  20
-2875.89
  30
0.50
  11
-2652.67
  21
-2881.84
  31
0.50
  12
-2649.70
  22
-2882.24
  32
0.50
  13
-2648.91
  23
-2876.29
  33
0.50
  0
3DFACE
  8
mg_to_dxf
  62
40
  10
-2653.47
  20
-2887.79
  30
0.50
  11
-2654.26
  21
-2893.74
  31
0.50
  12
-2651.28
  22
-2894.13
  32
0.50
  13
-2650.49
  23
-2888.19
  33
0.50
  0
3DFACE
  8
mg_to_dxf
  62
40
  10
-2655.05
  20
-2899.68
  30
0.50
  11
-2655.84
  21
-2905.63
  31
0.50
  12
-2652.87
  22
-2906.03
  32
0.50
  13
-2652.08
  23
-2900.08
  33
0.50
  0
3DFACE
  8
mg_to_dxf
  62
40
  10
-2656.64
  20
-2911.58
  30
0.50
  11
-2657.43
  21
-2917.53
  31
0.50
  12
-2654.46
  22
-2917.92
  32
0.50
  13
-2653.66
  23
-2911.98
  33
0.50
  0
3DFACE
  8
mg_to_dxf
  62
40
  10
-2658.22
  20
-2923.47
  30
0.50
  11
-2659.02
  21
-2929.42
  31
0.50
  12
-2656.04
  22
-2929.82
  32
0.50
  13
-2655.25
  23
-2923.87
  33
0.50
  0
3DFACE
  8
mg_to_dxf
  62
40
  10
-2659.81
  20
-2935.37
  30
0.50
  11
-2660.60
  21
-2941.32
  31
0.50
  12
-2657.63
  22
-2941.71
  32
0.50
  13
-2656.83
  23
-2935.76
  33
0.50
  0
3DFACE
  8
mg_to_dxf
  62
40
  10
-2661.39
  20
-2947.26
  30
0.50
  11
-2662.19
  21
-2953.21
  31
0.50
  12
-2659.21
  22
-2953.61
  32
0.50
  13
-2658.42
  23
-2947.66
  33
0.50
  0
3DFACE
  8
mg_to_dxf
  62
40
  10
-2662.98
  20
-2959.16
  30
0.50
  11
-2663.77
  21
-2965.11
  31
0.50
  12
-2660.80
  22
-2965.50
  32
0.50
  13
-2660.01
  23
-2959.55
  33
0.50
  0
3DFACE
  8
mg_to_dxf
  62
40
  10
-2664.56
  20
-2971.05
  30
0.50
  11
-2665.36
  21
-2977.00
  31
0.50
  12
-2662.38
  22
-2977.40
  32
0.50
  13
-2661.59
  23
-2971.45
  33
0.50
  0
3DFACE
  8
mg_to_dxf
  62
40
  10
-2666.15
  20
-2982.95
  30
0.50
  11
-2666.94
  21
-2988.89
  31
0.50
  12
-2663.97
  22
-2989.29
  32
0.50
  13
-2663.18
  23
-2983.34
  33
0.50
  0
3DFACE
  8
mg_to_dxf
  62
40
  10
-2667.74
  20
-2994.84
  30
0.50
  11
-2668.53
  21
-3000.79
  31
0.50
  12
-2665.55
  22
-3001.19
  32
0.50
  13
-2664.76
  23
-2995.24
  33
0.50
  0
3DFACE
  8
mg_to_dxf
  62
40
  10
-2669.32
  20
-3006.74
  30
0.50
  11
-2670.11
  21
-3012.68
  31
0.50
  12
-2667.14
  22
-3013.08
  32
0.50
  13
-2666.35
  23
-3007.13
  33
0.50
  0
3DFACE
  8
mg_to_dxf
  62
40
  10
-2670.91
  20
-3018.63
  30
0.50
  11
-2671.70
  21
-3024.58
  31
0.50
  12
-2668.73
  22
-3024.98
  32
0.50
  13
-2667.93
  23
-3019.03
  33
0.50
  0
3DFACE
  8
mg_to_dxf
  62
40
  10
-2672.49
  20
-3030.53
  30
0.50
  11
-2673.28
  21
-3036.47
  31
0.50
  12
-2670.31
  22
-3036.87
  32
0.50
  13
-2669.52
  23
-3030.92
  33
0.50
  0
3DFACE
  8
mg_to_dxf
  62
40
  10
-2674.08
  20
-3042.42
  30
0.50
  11
-2674.87
  21
-3048.37
  31
0.50
  12
-2671.90
  22
-3048.77
  32
0.50
  13
-2671.10
  23
-3042.82
  33
0.50
  0
3DFACE
  8
mg_to_dxf
  62
40
  10
-2675.66
  20
-3054.32
  30
0.50
  11
-2676.46
  21
-3060.26
  31
0.50
  12
-2673.48
  22
-3060.66
  32
0.50
  13
-2672.69
  23
-3054.71
  33
0.50
  0
3DFACE
  8
mg_to_dxf
  62
40
  10
-2677.25
  20
-3066.21
  30
0.50
  11
-2678.04
  21
-3072.16
  31
0.50
  12
-2675.07
  22
-3072.55
  32
0.50
  13
-2674.27
  23
-3066.61
  33
0.50
  0
3DFACE
  8
mg_to_dxf
  62
40
  10
-2678.83
  20
-3078.11
  30
0.50
  11
-2679.63
  21
-3084.05
  31
0.50
  12
-2676.65
  22
-3084.45
  32
0.50
  13
-2675.86
  23
-3078.50
  33
0.50
  0
3DFACE
  8
mg_to_dxf
  62
40
  10
-2680.42
  20
-3090.00
  30
0.50
  11
-2681.21
  21
-3095.95
  31
0.50
  12
-2678.24
  22
-3096.34
  32
0.50
  13
-2677.45
  23
-3090.40
  33
0.50
  0
3DFACE
  8
mg_to_dxf
  62
40
  10
-2682.01
  20
-3101.90
  30
0.50
  11
-2682.80
  21
-3107.84
  31
0.50
  12
-2679.82
  22
-3108.24
  32
0.50
  13
-2679.03
  23
-3102.29
  33
0.50
  0
3DFACE
  8
mg_to_dxf
  62
40
  10
-2683.59
  20
-3113.79
  30
0.50
  11
-2684.38
  21
-3119.74
  31
0.50
  12
-2681.41
  22
-3120.13
  32
0.50
  13
-2680.62
  23
-3114.19
  33
0.50
  0
3DFACE
  8
mg_to_dxf
  62
40
  10
-2685.18
  20
-3125.69
  30
0.50
  11
-2685.97
  21
-3131.63
  31
0.50
  12
-2683.00
  22
-3132.03
  32
0.50
  13
-2682.20
  23
-3126.08
  33
0.50
  0
3DFACE
  8
mg_to_dxf
  62
40
  10
-2686.76
  20
-3137.58
  30
0.50
  11
-2687.55
  21
-3143.53
  31
0.50
  12
-2684.58
  22
-3143.92
  32
0.50
  13
-2683.79
  23
-3137.98
  33
0.50
  0
3DFACE
  8
mg_to_dxf
  62
40
  10
-2688.35
  20
-3149.47
  30
0.50
  11
-2689.14
  21
-3155.42
  31
0.50
  12
-2686.17
  22
-3155.82
  32
0.50
  13
-2685.37
  23
-3149.87
  33
0.50
  0
3DFACE
  8
mg_to_dxf
  62
40
  10
-2689.93
  20
-3161.37
  30
0.50
  11
-2690.73
  21
-3167.32
  31
0.50
  12
-2687.75
  22
-3167.71
  32
0.50
  13
-2686.96
  23
-3161.77
  33
0.50
  0
3DFACE
  8
mg_to_dxf
  62
40
  10
-2691.52
  20
-3173.26
  30
0.50
  11
-2692.31
  21
-3179.21
  31
0.50
  12
-2689.34
  22
-3179.61
  32
0.50
  13
-2688.54
  23
-3173.66
  33
0.50
  0
3DFACE
  8
mg_to_dxf
  62
40
  10
-2693.10
  20
-3185.16
  30
0.50
  11
-2693.90
  21
-3191.11
  31
0.50
  12
-2690.92
  22
-3191.50
  32
0.50
  13
-2690.13
  23
-3185.56
  33
0.50
  0
3DFACE
  8
mg_to_dxf
  62
40
  10
-2694.69
  20
-3197.05
  30
0.50
  11
-2695.48
  21
-3203.00
  31
0.50
  12
-2692.51
  22
-3203.40
  32
0.50
  13
-2691.72
  23
-3197.45
  33
0.50
  0
3DFACE
  8
mg_to_dxf
  62
40
  10
-2696.27
  20
-3208.95
  30
0.50
  11
-2697.07
  21
-3214.90
  31
0.50
  12
-2694.09
  22
-3215.29
  32
0.50
  13
-2693.30
  23
-3209.34
  33
0.50
  0
3DFACE
  8
mg_to_dxf
  62
40
  10
-2697.86
  20
-3220.84
  30
0.50
  11
-2698.65
  21
-3226.79
  31
0.50
  12
-2695.68
  22
-3227.19
  32
0.50
  13
-2694.89
  23
-3221.24
  33
0.50
  0
3DFACE
  8
mg_to_dxf
  62
40
  10
-2699.45
  20
-3232.74
  30
0.50
  11
-2700.24
  21
-3238.69
  31
0.50
  12
-2697.26
  22
-3239.08
  32
0.50
  13
-2696.47
  23
-3233.13
  33
0.50
  0
3DFACE
  8
mg_to_dxf
  62
40
  10
-2701.03
  20
-3244.63
  30
0.50
  11
-2701.82
  21
-3250.58
  31
0.50
  12
-2698.85
  22
-3250.98
  32
0.50
  13
-2698.06
  23
-3245.03
  33
0.50
  0
3DFACE
  8
mg_to_dxf
  62
40
  10
-2716.89
  20
-3363.58
  30
0.50
  11
-2717.68
  21
-3369.53
  31
0.50
  12
-2714.71
  22
-3369.92
  32
0.50
  13
-2713.91
  23
-3363.98
  33
0.50
  0
3DFACE
  8
mg_to_dxf
  62
40
  10
-2715.30
  20
-3351.69
  30
0.50
  11
-2716.09
  21
-3357.63
  31
0.50
  12
-2713.12
  22
-3358.03
  32
0.50
  13
-2712.33
  23
-3352.08
  33
0.50
  0
3DFACE
  8
mg_to_dxf
  62
40
  10
-2713.72
  20
-3339.79
  30
0.50
  11
-2714.51
  21
-3345.74
  31
0.50
  12
-2711.53
  22
-3346.14
  32
0.50
  13
-2710.74
  23
-3340.19
  33
0.50
  0
3DFACE
  8
mg_to_dxf
  62
40
  10
-2712.13
  20
-3327.90
  30
0.50
  11
-2712.92
  21
-3333.84
  31
0.50
  12
-2709.95
  22
-3334.24
  32
0.50
  13
-2709.16
  23
-3328.29
  33
0.50
  0
3DFACE
  8
mg_to_dxf
  62
40
  10
-2710.54
  20
-3316.00
  30
0.50
  11
-2711.34
  21
-3321.95
  31
0.50
  12
-2708.36
  22
-3322.35
  32
0.50
  13
-2707.57
  23
-3316.40
  33
0.50
  0
3DFACE
  8
mg_to_dxf
  62
40
  10
-2708.96
  20
-3304.11
  30
0.50
  11
-2709.75
  21
-3310.05
  31
0.50
  12
-2706.78
  22
-3310.45
  32
0.50
  13
-2705.98
  23
-3304.50
  33
0.50
  0
3DFACE
  8
mg_to_dxf
  62
40
  10
-2707.37
  20
-3292.21
  30
0.50
  11
-2708.17
  21
-3298.16
  31
0.50
  12
-2705.19
  22
-3298.56
  32
0.50
  13
-2704.40
  23
-3292.61
  33
0.50
  0
3DFACE
  8
mg_to_dxf
  62
40
  10
-2705.79
  20
-3280.32
  30
0.50
  11
-2706.58
  21
-3286.26
  31
0.50
  12
-2703.61
  22
-3286.66
  32
0.50
  13
-2702.81
  23
-3280.71
  33
0.50
  0
3DFACE
  8
mg_to_dxf
  62
40
  10
-2704.20
  20
-3268.42
  30
0.50
  11
-2704.99
  21
-3274.37
  31
0.50
  12
-2702.02
  22
-3274.77
  32
0.50
  13
-2701.23
  23
-3268.82
  33
0.50
  0
3DFACE
  8
mg_to_dxf
  62
40
  10
-2702.62
  20
-3256.53
  30
0.50
  11
-2703.41
  21
-3262.48
  31
0.50
  12
-2700.44
  22
-3262.87
  32
0.50
  13
-2699.64
  23
-3256.92
  33
0.50
  0
3DFACE
  8
mg_to_dxf
  62
40
  10
-1091.19
  20
-2626.84
  30
0.00
  11
-1085.31
  21
-2628.05
  31
0.00
  12
-1084.71
  22
-2625.11
  32
0.00
  13
-1090.59
  23
-2623.90
  33
0.00
  0
3DFACE
  8
mg_to_dxf
  62
40
  10
-1079.43
  20
-2629.25
  30
0.00
  11
-1073.56
  21
-2630.46
  31
0.00
  12
-1072.95
  22
-2627.52
  32
0.00
  13
-1078.83
  23
-2626.32
  33
0.00
  0
3DFACE
  8
mg_to_dxf
  62
40
  10
-1396.82
  20
-2564.15
  30
0.00
  11
-1390.95
  21
-2565.35
  31
0.00
  12
-1390.34
  22
-2562.41
  32
0.00
  13
-1396.22
  23
-2561.21
  33
0.00
  0
3DFACE
  8
mg_to_dxf
  62
40
  10
-1385.07
  20
-2566.56
  30
0.00
  11
-1379.19
  21
-2567.76
  31
0.00
  12
-1378.59
  22
-2564.83
  32
0.00
  13
-1384.47
  23
-2563.62
  33
0.00
  0
3DFACE
  8
mg_to_dxf
  62
40
  10
-1373.31
  20
-2568.97
  30
0.00
  11
-1367.44
  21
-2570.18
  31
0.00
  12
-1366.83
  22
-2567.24
  32
0.00
  13
-1372.71
  23
-2566.03
  33
0.00
  0
3DFACE
  8
mg_to_dxf
  62
40
  10
-1361.56
  20
-2571.38
  30
0.00
  11
-1355.68
  21
-2572.59
  31
0.00
  12
-1355.08
  22
-2569.65
  32
0.00
  13
-1360.96
  23
-2568.44
  33
0.00
  0
3DFACE
  8
mg_to_dxf
  62
40
  10
-1349.80
  20
-2573.79
  30
0.00
  11
-1343.93
  21
-2575.00
  31
0.00
  12
-1343.32
  22
-2572.06
  32
0.00
  13
-1349.20
  23
-2570.85
  33
0.00
  0
3DFACE
  8
mg_to_dxf
  62
40
  10
-1338.05
  20
-2576.20
  30
0.00
  11
-1332.17
  21
-2577.41
  31
0.00
  12
-1331.57
  22
-2574.47
  32
0.00
  13
-1337.44
  23
-2573.27
  33
0.00
  0
3DFACE
  8
mg_to_dxf
  62
40
  10
-1326.29
  20
-2578.62
  30
0.00
  11
-1320.41
  21
-2579.82
  31
0.00
  12
-1319.81
  22
-2576.88
  32
0.00
  13
-1325.69
  23
-2575.68
  33
0.00
  0
3DFACE
  8
mg_to_dxf
  62
40
  10
-1314.54
  20
-2581.03
  30
0.00
  11
-1308.66
  21
-2582.23
  31
0.00
  12
-1308.06
  22
-2579.29
  32
0.00
  13
-1313.93
  23
-2578.09
  33
0.00
  0
3DFACE
  8
mg_to_dxf
  62
40
  10
-1302.78
  20
-2583.44
  30
0.00
  11
-1296.90
  21
-2584.64
  31
0.00
  12
-1296.30
  22
-2581.71
  32
0.00
  13
-1302.18
  23
-2580.50
  33
0.00
  0
3DFACE
  8
mg_to_dxf
  62
40
  10
-1291.03
  20
-2585.85
  30
0.00
  11
-1285.15
  21
-2587.06
  31
0.00
  12
-1284.55
  22
-2584.12
  32
0.00
  13
-1290.42
  23
-2582.91
  33
0.00
  0
3DFACE
  8
mg_to_dxf
  62
40
  10
-1279.27
  20
-2588.26
  30
0.00
  11
-1273.39
  21
-2589.47
  31
0.00
  12
-1272.79
  22
-2586.53
  32
0.00
  13
-1278.67
  23
-2585.32
  33
0.00
  0
3DFACE
  8
mg_to_dxf
  62
40
  10
-1267.52
  20
-2590.67
  30
0.00
  11
-1261.64
  21
-2591.88
  31
0.00
  12
-1261.04
  22
-2588.94
  32
0.00
  13
-1266.91
  23
-2587.73
  33
0.00
  0
3DFACE
  8
mg_to_dxf
  62
40
  10
-1255.76
  20
-2593.08
  30
0.00
  11
-1249.88
  21
-2594.29
  31
0.00
  12
-1249.28
  22
-2591.35
  32
0.00
  13
-1255.16
  23
-2590.15
  33
0.00
  0
3DFACE
  8
mg_to_dxf
  62
40
  10
-1244.01
  20
-2595.50
  30
0.00
  11
-1238.13
  21
-2596.70
  31
0.00
  12
-1237.53
  22
-2593.76
  32
0.00
  13
-1243.40
  23
-2592.56
  33
0.00
  0
3DFACE
  8
mg_to_dxf
  62
40
  10
-1232.25
  20
-2597.91
  30
0.00
  11
-1226.37
  21
-2599.11
  31
0.00
  12
-1225.77
  22
-2596.17
  32
0.00
  13
-1231.65
  23
-2594.97
  33
0.00
  0
3DFACE
  8
mg_to_dxf
  62
40
  10
-1220.50
  20
-2600.32
  30
0.00
  11
-1214.62
  21
-2601.52
  31
0.00
  12
-1214.01
  22
-2598.59
  32
0.00
  13
-1219.89
  23
-2597.38
  33
0.00
  0
3DFACE
  8
mg_to_dxf
  62
40
  10
-1208.74
  20
-2602.73
  30
0.00
  11
-1202.86
  21
-2603.94
  31
0.00
  12
-1202.26
  22
-2601.00
  32
0.00
  13
-1208.14
  23
-2599.79
  33
0.00
  0
3DFACE
  8
mg_to_dxf
  62
40
  10
-1196.98
  20
-2605.14
  30
0.00
  11
-1191.11
  21
-2606.35
  31
0.00
  12
-1190.50
  22
-2603.41
  32
0.00
  13
-1196.38
  23
-2602.20
  33
0.00
  0
3DFACE
  8
mg_to_dxf
  62
40
  10
-1185.23
  20
-2607.55
  30
0.00
  11
-1179.35
  21
-2608.76
  31
0.00
  12
-1178.75
  22
-2605.82
  32
0.00
  13
-1184.63
  23
-2604.61
  33
0.00
  0
3DFACE
  8
mg_to_dxf
  62
40
  10
-1173.47
  20
-2609.96
  30
0.00
  11
-1167.60
  21
-2611.17
  31
0.00
  12
-1166.99
  22
-2608.23
  32
0.00
  13
-1172.87
  23
-2607.03
  33
0.00
  0
3DFACE
  8
mg_to_dxf
  62
40
  10
-1161.72
  20
-2612.38
  30
0.00
  11
-1155.84
  21
-2613.58
  31
0.00
  12
-1155.24
  22
-2610.64
  32
0.00
  13
-1161.12
  23
-2609.44
  33
0.00
  0
3DFACE
  8
mg_to_dxf
  62
40
  10
-1149.96
  20
-2614.79
  30
0.00
  11
-1144.09
  21
-2615.99
  31
0.00
  12
-1143.48
  22
-2613.05
  32
0.00
  13
-1149.36
  23
-2611.85
  33
0.00
  0
3DFACE
  8
mg_to_dxf
  62
40
  10
-1138.21
  20
-2617.20
  30
0.00
  11
-1132.33
  21
-2618.40
  31
0.00
  12
-1131.73
  22
-2615.46
  32
0.00
  13
-1137.61
  23
-2614.26
  33
0.00
  0
3DFACE
  8
mg_to_dxf
  62
40
  10
-1126.45
  20
-2619.61
  30
0.00
  11
-1120.58
  21
-2620.82
  31
0.00
  12
-1119.97
  22
-2617.88
  32
0.00
  13
-1125.85
  23
-2616.67
  33
0.00
  0
3DFACE
  8
mg_to_dxf
  62
40
  10
-1114.70
  20
-2622.02
  30
0.00
  11
-1108.82
  21
-2623.23
  31
0.00
  12
-1108.22
  22
-2620.29
  32
0.00
  13
-1114.10
  23
-2619.08
  33
0.00
  0
3DFACE
  8
mg_to_dxf
  62
40
  10
-1102.94
  20
-2624.43
  30
0.00
  11
-1097.07
  21
-2625.64
  31
0.00
  12
-1096.46
  22
-2622.70
  32
0.00
  13
-1102.34
  23
-2621.49
  33
0.00
  0
3DFACE
  8
mg_to_dxf
  62
40
  10
-1549.04
  20
-2529.86
  30
0.00
  11
-1549.64
  21
-2532.80
  31
0.00
  12
-1543.76
  22
-2534.01
  32
0.00
  13
-1543.16
  23
-2531.07
  33
0.00
  0
3DFACE
  8
mg_to_dxf
  62
40
  10
-1537.89
  20
-2535.21
  30
0.00
  11
-1532.01
  21
-2536.42
  31
0.00
  12
-1531.41
  22
-2533.48
  32
0.00
  13
-1537.28
  23
-2532.27
  33
0.00
  0
3DFACE
  8
mg_to_dxf
  62
40
  10
-1526.13
  20
-2537.62
  30
0.00
  11
-1520.25
  21
-2538.83
  31
0.00
  12
-1519.65
  22
-2535.89
  32
0.00
  13
-1525.53
  23
-2534.68
  33
0.00
  0
3DFACE
  8
mg_to_dxf
  62
40
  10
-1514.38
  20
-2540.03
  30
0.00
  11
-1508.50
  21
-2541.24
  31
0.00
  12
-1507.90
  22
-2538.30
  32
0.00
  13
-1513.77
  23
-2537.09
  33
0.00
  0
3DFACE
  8
mg_to_dxf
  62
40
  10
-1502.62
  20
-2542.45
  30
0.00
  11
-1496.74
  21
-2543.65
  31
0.00
  12
-1496.14
  22
-2540.71
  32
0.00
  13
-1502.02
  23
-2539.51
  33
0.00
  0
3DFACE
  8
mg_to_dxf
  62
40
  10
-1490.87
  20
-2544.86
  30
0.00
  11
-1484.99
  21
-2546.06
  31
0.00
  12
-1484.38
  22
-2543.12
  32
0.00
  13
-1490.26
  23
-2541.92
  33
0.00
  0
3DFACE
  8
mg_to_dxf
  62
40
  10
-1479.11
  20
-2547.27
  30
0.00
  11
-1473.23
  21
-2548.47
  31
0.00
  12
-1472.63
  22
-2545.53
  32
0.00
  13
-1478.51
  23
-2544.33
  33
0.00
  0
3DFACE
  8
mg_to_dxf
  62
40
  10
-1467.35
  20
-2549.68
  30
0.00
  11
-1461.48
  21
-2550.88
  31
0.00
  12
-1460.87
  22
-2547.95
  32
0.00
  13
-1466.75
  23
-2546.74
  33
0.00
  0
3DFACE
  8
mg_to_dxf
  62
40
  10
-1455.60
  20
-2552.09
  30
0.00
  11
-1449.72
  21
-2553.30
  31
0.00
  12
-1449.12
  22
-2550.36
  32
0.00
  13
-1455.00
  23
-2549.15
  33
0.00
  0
3DFACE
  8
mg_to_dxf
  62
40
  10
-1443.84
  20
-2554.50
  30
0.00
  11
-1437.97
  21
-2555.71
  31
0.00
  12
-1437.36
  22
-2552.77
  32
0.00
  13
-1443.24
  23
-2551.56
  33
0.00
  0
3DFACE
  8
mg_to_dxf
  62
40
  10
-1432.09
  20
-2556.91
  30
0.00
  11
-1426.21
  21
-2558.12
  31
0.00
  12
-1425.61
  22
-2555.18
  32
0.00
  13
-1431.49
  23
-2553.97
  33
0.00
  0
3DFACE
  8
mg_to_dxf
  62
40
  10
-1420.33
  20
-2559.32
  30
0.00
  11
-1414.46
  21
-2560.53
  31
0.00
  12
-1413.85
  22
-2557.59
  32
0.00
  13
-1419.73
  23
-2556.39
  33
0.00
  0
3DFACE
  8
mg_to_dxf
  62
40
  10
-1408.58
  20
-2561.74
  30
0.00
  11
-1402.70
  21
-2562.94
  31
0.00
  12
-1402.10
  22
-2560.00
  32
0.00
  13
-1407.98
  23
-2558.80
  33
0.00
  0
3DFACE
  8
mg_to_dxf
  62
40
  10
-630.54
  20
-822.61
  30
0.00
  11
-625.88
  21
-826.39
  31
0.00
  12
-623.99
  22
-824.06
  32
0.00
  13
-628.65
  23
-820.28
  33
0.00
  0
3DFACE
  8
mg_to_dxf
  62
40
  10
-621.22
  20
-830.17
  30
0.00
  11
-616.57
  21
-833.96
  31
0.00
  12
-614.68
  22
-831.63
  32
0.00
  13
-619.33
  23
-827.85
  33
0.00
  0
3DFACE
  8
mg_to_dxf
  62
40
  10
-611.91
  20
-837.74
  30
0.00
  11
-607.25
  21
-841.52
  31
0.00
  12
-605.36
  22
-839.20
  32
0.00
  13
-610.02
  23
-835.41
  33
0.00
  0
3DFACE
  8
mg_to_dxf
  62
40
  10
-602.60
  20
-845.31
  30
0.00
  11
-597.94
  21
-849.09
  31
0.00
  12
-596.05
  22
-846.76
  32
0.00
  13
-600.71
  23
-842.98
  33
0.00
  0
3DFACE
  8
mg_to_dxf
  62
40
  10
-593.28
  20
-852.87
  30
0.00
  11
-588.63
  21
-856.66
  31
0.00
  12
-586.73
  22
-854.33
  32
0.00
  13
-591.39
  23
-850.55
  33
0.00
  0
3DFACE
  8
mg_to_dxf
  62
40
  10
-583.97
  20
-860.44
  30
0.00
  11
-579.31
  21
-864.22
  31
0.00
  12
-577.42
  22
-861.90
  32
0.00
  13
-582.08
  23
-858.11
  33
0.00
  0
3DFACE
  8
mg_to_dxf
  62
40
  10
-574.66
  20
-868.01
  30
0.00
  11
-570.00
  21
-871.79
  31
0.00
  12
-568.11
  22
-869.46
  32
0.00
  13
-572.76
  23
-865.68
  33
0.00
  0
3DFACE
  8
mg_to_dxf
  62
40
  10
-565.34
  20
-875.57
  30
0.00
  11
-560.69
  21
-879.36
  31
0.00
  12
-558.79
  22
-877.03
  32
0.00
  13
-563.45
  23
-873.25
  33
0.00
  0
3DFACE
  8
mg_to_dxf
  62
40
  10
-556.03
  20
-883.14
  30
0.00
  11
-551.37
  21
-886.93
  31
0.00
  12
-549.48
  22
-884.60
  32
0.00
  13
-554.14
  23
-880.81
  33
0.00
  0
3DFACE
  8
mg_to_dxf
  62
40
  10
-546.72
  20
-890.71
  30
0.00
  11
-542.06
  21
-894.49
  31
0.00
  12
-540.17
  22
-892.16
  32
0.00
  13
-544.82
  23
-888.38
  33
0.00
  0
3DFACE
  8
mg_to_dxf
  62
40
  10
-537.40
  20
-898.28
  30
0.00
  11
-532.75
  21
-902.06
  31
0.00
  12
-530.85
  22
-899.73
  32
0.00
  13
-535.51
  23
-895.95
  33
0.00
  0
3DFACE
  8
mg_to_dxf
  62
40
  10
-826.12
  20
-663.70
  30
0.00
  11
-821.47
  21
-667.49
  31
0.00
  12
-819.57
  22
-665.16
  32
0.00
  13
-824.23
  23
-661.37
  33
0.00
  0
3DFACE
  8
mg_to_dxf
  62
40
  10
-816.81
  20
-671.27
  30
0.00
  11
-812.15
  21
-675.05
  31
0.00
  12
-810.26
  22
-672.72
  32
0.00
  13
-814.92
  23
-668.94
  33
0.00
  0
3DFACE
  8
mg_to_dxf
  62
40
  10
-807.49
  20
-678.84
  30
0.00
  11
-802.84
  21
-682.62
  31
0.00
  12
-800.95
  22
-680.29
  32
0.00
  13
-805.60
  23
-676.51
  33
0.00
  0
3DFACE
  8
mg_to_dxf
  62
40
  10
-798.18
  20
-686.40
  30
0.00
  11
-793.52
  21
-690.19
  31
0.00
  12
-791.63
  22
-687.86
  32
0.00
  13
-796.29
  23
-684.07
  33
0.00
  0
3DFACE
  8
mg_to_dxf
  62
40
  10
-788.87
  20
-693.97
  30
0.00
  11
-784.21
  21
-697.75
  31
0.00
  12
-782.32
  22
-695.42
  32
0.00
  13
-786.98
  23
-691.64
  33
0.00
  0
3DFACE
  8
mg_to_dxf
  62
40
  10
-779.55
  20
-701.54
  30
0.00
  11
-774.90
  21
-705.32
  31
0.00
  12
-773.01
  22
-702.99
  32
0.00
  13
-777.66
  23
-699.21
  33
0.00
  0
3DFACE
  8
mg_to_dxf
  62
40
  10
-770.24
  20
-709.10
  30
0.00
  11
-765.58
  21
-712.89
  31
0.00
  12
-763.69
  22
-710.56
  32
0.00
  13
-768.35
  23
-706.77
  33
0.00
  0
3DFACE
  8
mg_to_dxf
  62
40
  10
-760.93
  20
-716.67
  30
0.00
  11
-756.27
  21
-720.45
  31
0.00
  12
-754.38
  22
-718.13
  32
0.00
  13
-759.04
  23
-714.34
  33
0.00
  0
3DFACE
  8
mg_to_dxf
  62
40
  10
-751.61
  20
-724.24
  30
0.00
  11
-746.96
  21
-728.02
  31
0.00
  12
-745.07
  22
-725.69
  32
0.00
  13
-749.72
  23
-721.91
  33
0.00
  0
3DFACE
  8
mg_to_dxf
  62
40
  10
-742.30
  20
-731.80
  30
0.00
  11
-737.64
  21
-735.59
  31
0.00
  12
-735.75
  22
-733.26
  32
0.00
  13
-740.41
  23
-729.48
  33
0.00
  0
3DFACE
  8
mg_to_dxf
  62
40
  10
-732.99
  20
-739.37
  30
0.00
  11
-728.33
  21
-743.15
  31
0.00
  12
-726.44
  22
-740.83
  32
0.00
  13
-731.09
  23
-737.04
  33
0.00
  0
3DFACE
  8
mg_to_dxf
  62
40
  10
-723.67
  20
-746.94
  30
0.00
  11
-719.02
  21
-750.72
  31
0.00
  12
-717.12
  22
-748.39
  32
0.00
  13
-721.78
  23
-744.61
  33
0.00
  0
3DFACE
  8
mg_to_dxf
  62
40
  10
-714.36
  20
-754.50
  30
0.00
  11
-709.70
  21
-758.29
  31
0.00
  12
-707.81
  22
-755.96
  32
0.00
  13
-712.47
  23
-752.18
  33
0.00
  0
3DFACE
  8
mg_to_dxf
  62
40
  10
-705.05
  20
-762.07
  30
0.00
  11
-700.39
  21
-765.85
  31
0.00
  12
-698.50
  22
-763.53
  32
0.00
  13
-703.15
  23
-759.74
  33
0.00
  0
3DFACE
  8
mg_to_dxf
  62
40
  10
-695.73
  20
-769.64
  30
0.00
  11
-691.08
  21
-773.42
  31
0.00
  12
-689.18
  22
-771.09
  32
0.00
  13
-693.84
  23
-767.31
  33
0.00
  0
3DFACE
  8
mg_to_dxf
  62
40
  10
-686.42
  20
-777.21
  30
0.00
  11
-681.76
  21
-780.99
  31
0.00
  12
-679.87
  22
-778.66
  32
0.00
  13
-684.53
  23
-774.88
  33
0.00
  0
3DFACE
  8
mg_to_dxf
  62
40
  10
-677.11
  20
-784.77
  30
0.00
  11
-672.45
  21
-788.56
  31
0.00
  12
-670.56
  22
-786.23
  32
0.00
  13
-675.21
  23
-782.44
  33
0.00
  0
3DFACE
  8
mg_to_dxf
  62
40
  10
-667.79
  20
-792.34
  30
0.00
  11
-663.13
  21
-796.12
  31
0.00
  12
-661.24
  22
-793.79
  32
0.00
  13
-665.90
  23
-790.01
  33
0.00
  0
3DFACE
  8
mg_to_dxf
  62
40
  10
-658.48
  20
-799.91
  30
0.00
  11
-653.82
  21
-803.69
  31
0.00
  12
-651.93
  22
-801.36
  32
0.00
  13
-656.59
  23
-797.58
  33
0.00
  0
3DFACE
  8
mg_to_dxf
  62
40
  10
-649.16
  20
-807.47
  30
0.00
  11
-644.51
  21
-811.26
  31
0.00
  12
-642.62
  22
-808.93
  32
0.00
  13
-647.27
  23
-805.14
  33
0.00
  0
3DFACE
  8
mg_to_dxf
  62
40
  10
-639.85
  20
-815.04
  30
0.00
  11
-635.19
  21
-818.82
  31
0.00
  12
-633.30
  22
-816.49
  32
0.00
  13
-637.96
  23
-812.71
  33
0.00
  0
ENDSEC
  0
EOF
