0
SECTION
2
TABLES
0
TABLE
2
LTYPE
70
1
0
LTYPE
2
SOLIDLINE
70
64
3
Solid line
72
65
73
0
40
0.0
0
ENDTAB
0
TABLE
2
LAYER
70
8
0
LAYER
2
outermarker
70
0
62
252
6
SOLIDLINE
0
ENDTAB
0
ENDSEC
0
SECTION
2
ENTITIES
0
3DFACE
8
outermarker
62
252
10
-3.540039527953559E7
20
1.2071665425444717E7
30
0.0
11
-3.540011017757812E7
21
1.2071665379407521E7
31
0.0
12
-3.540011015298797E7
22
1.2071770839158392E7
32
0.0
13
-3.540039525587713E7
23
1.2071770885196092E7
33
0.0
0
3DFACE
8
outermarker
62
252
10
-3.540039391929264E7
20
1.207772770864106E7
30
0.0
11
-3.5400108763766974E7
21
1.2077727662574774E7
31
0.0
12
-3.540010873916758E7
22
1.207783312210105E7
32
0.0
13
-3.54003938956253E7
23
1.2077833168167846E7
33
0.0
0
3DFACE
8
outermarker
62
252
10
-3.540039255853845E7
20
1.2083789978426421E7
30
0.0
11
-3.540010734942445E7
21
1.2083789932331039E7
31
0.0
12
-3.540010732479253E7
22
1.2083895491387265E7
32
0.0
13
-3.540039253483981E7
23
1.2083895537483156E7
33
0.0
0
3DFACE
8
outermarker
62
252
10
-3.5400391197250314E7
20
1.208985233355356E7
30
0.0
11
-3.540010593452694E7
21
1.2089852287429072E7
31
0.0
12
-3.540010590990905E7
22
1.2089957746452982E7
32
0.0
13
-3.540039117356517E7
23
1.2089957792577974E7
33
0.0
0
3DFACE
8
outermarker
62
252
10
-3.540038983547274E7
20
1.2095914573458906E7
30
0.0
11
-3.540010451912074E7
21
1.209591452730532E7
31
0.0
12
-3.540010449449359E7
22
1.2096019986051446E7
32
0.0
13
-3.540038981177869E7
23
1.2096020032205544E7
33
0.0
0
3DFACE
8
outermarker
62
252
10
-3.5406347295616925E7
20
1.2045656529989747E7
30
0.0
11
-3.540606243512142E7
21
1.2045656521089569E7
31
0.0
12
-3.5406062429987155E7
22
1.2045761981609264E7
32
0.0
13
-3.54063472914128E7
23
1.204576199050954E7
33
0.0
0
3DFACE
8
outermarker
62
252
10
-3.540634705390155E7
20
1.2051718859506799E7
30
0.0
11
-3.540606213992632E7
21
1.2051718850600988E7
31
0.0
12
-3.540606213479012E7
22
1.2051824310972169E7
32
0.0
13
-3.5406347049695864E7
23
1.2051824319878086E7
33
0.0
0
3DFACE
8
outermarker
62
252
10
-3.540634681209542E7
20
1.2057781179986082E7
30
0.0
11
-3.540606184462037E7
21
1.2057781171074629E7
31
0.0
12
-3.540606183948223E7
22
1.2057886631279565E7
32
0.0
13
-3.540634680788814E7
23
1.205788664019112E7
33
0.0
0
3DFACE
8
outermarker
62
252
10
-3.5406346570198454E7
20
1.2063843490408262E7
30
0.0
11
-3.5406061549203485E7
21
1.2063843481491167E7
31
0.0
12
-3.5406061544058554E7
22
1.2063949041285101E7
32
0.0
13
-3.540634656598562E7
23
1.206394905020229E7
33
0.0
0
3DFACE
8
outermarker
62
252
10
-3.5406346328210615E7
20
1.2069905789754031E7
30
0.0
11
-3.540606125367562E7
21
1.2069905780831302E7
31
0.0
12
-3.540606124852876E7
22
1.207001134042333E7
32
0.0
13
-3.54063463239962E7
23
1.2070011349346163E7
33
0.0
0
3DFACE
8
outermarker
62
252
10
-3.540634608612785E7
20
1.2075968176776662E7
30
0.0
11
-3.540606095803183E7
21
1.207596816784829E7
31
0.0
12
-3.5406060952887915E7
22
1.207607362744811E7
32
0.0
13
-3.540634608191583E7
23
1.2076073636376582E7
33
0.0
0
3DFACE
8
outermarker
62
252
10
-3.540634584395809E7
20
1.2082030450911505E7
30
0.0
11
-3.540606066228181E7
21
1.2082030441977497E7
31
0.0
12
-3.5406060657135956E7
22
1.2082135901340153E7
32
0.0
13
-3.54063458397445E7
23
1.208213591027426E7
33
0.0
0
3DFACE
8
outermarker
62
252
10
-3.54063456016973E7
20
1.208809271091207E7
30
0.0
11
-3.540606036642061E7
21
1.2088092701972418E7
31
0.0
12
-3.540606036127282E7
22
1.2088198161080174E7
32
0.0
13
-3.540634559748212E7
23
1.208819817001992E7
33
0.0
0
3DFACE
8
outermarker
62
252
10
-3.540634535934543E7
20
1.209415495575909E7
30
0.0
11
-3.540606007044817E7
21
1.2094154946813792E7
31
0.0
12
-3.540606006529844E7
22
1.209426040564892E7
32
0.0
13
-3.540634535512867E7
23
1.209426041459431E7
33
0.0
0
3DFACE
8
outermarker
62
252
10
-3.540634511689445E7
20
1.2100217383976458E7
30
0.0
11
-3.540605977435469E7
21
1.2100217375025518E7
31
0.0
12
-3.5406059769188404E7
22
1.210032313288496E7
32
0.0
13
-3.540634511266411E7
23
1.2100323141835995E7
33
0.0
0
3DFACE
8
outermarker
62
252
10
-3.540777804132259E7
20
1.20173310986934E7
30
0.0
11
-3.540749341854878E7
21
1.2017331098699206E7
31
0.0
12
-3.5407493418087535E7
22
1.2017436559678096E7
32
0.0
13
-3.5407778041789934E7
23
1.201743655967229E7
33
0.0
0
3DFACE
8
outermarker
62
252
10
-3.5407778068192E7
20
1.2023393456941588E7
30
0.0
11
-3.54074933920299E7
21
1.2023393456947397E7
31
0.0
12
-3.540749339156849E7
22
1.2023498917860635E7
32
0.0
13
-3.54077780686595E7
23
1.2023498917854827E7
33
0.0
0
3DFACE
8
outermarker
62
252
10
-3.540777809507147E7
20
1.202945581091473E7
30
0.0
11
-3.5407493365501076E7
21
1.2029455810920546E7
31
0.0
12
-3.540749336503906E7
22
1.2029561371524116E7
32
0.0
13
-3.54077780955396E7
23
1.2029561371518308E7
33
0.0
0
3DFACE
8
outermarker
62
252
10
-3.540777812196148E7
20
1.2035518259367108E7
30
0.0
11
-3.540749333896186E7
21
1.2035518259372925E7
31
0.0
12
-3.5407493338500105E7
22
1.2035623720101649E7
32
0.0
13
-3.540777812242935E7
23
1.2035623720095832E7
33
0.0
0
3DFACE
8
outermarker
62
252
10
-3.540777817577091E7
20
1.204764293676377E7
30
0.0
11
-3.540749328585441E7
21
1.2047642936769594E7
31
0.0
12
-3.540749328539231E7
22
1.2047748397242878E7
32
0.0
13
-3.5407778176239125E7
23
1.2047748397237053E7
33
0.0
0
3DFACE
8
outermarker
62
252
10
-3.540777820269078E7
20
1.2053705263443109E7
30
0.0
11
-3.5407493259285726E7
21
1.2053705263448935E7
31
0.0
12
-3.540749325882345E7
22
1.2053810723767893E7
32
0.0
13
-3.540777820315917E7
23
1.2053810723762067E7
33
0.0
0
3DFACE
8
outermarker
62
252
10
-3.5407778229620755E7
20
1.2059767580750676E7
30
0.0
11
-3.540749323270706E7
21
1.2059767580756502E7
31
0.0
12
-3.540749323224462E7
22
1.2059873040903416E7
32
0.0
13
-3.540777823008933E7
23
1.2059873040897582E7
33
0.0
0
3DFACE
8
outermarker
62
252
10
-3.5407778256560855E7
20
1.206582988766716E7
30
0.0
11
-3.540749320611842E7
21
1.2065829887672992E7
31
0.0
12
-3.540749320565535E7
22
1.2065935447403016E7
32
0.0
13
-3.540777825703003E7
23
1.2065935447397187E7
33
0.0
0
3DFACE
8
outermarker
62
252
10
-3.5407778283511065E7
20
1.207189218317325E7
30
0.0
11
-3.540749317951978E7
21
1.2071892183179082E7
31
0.0
12
-3.540749317905655E7
22
1.2071997742701398E7
32
0.0
13
-3.540777828398043E7
23
1.2071997742695563E7
33
0.0
0
3DFACE
8
outermarker
62
252
10
-3.540777831047185E7
20
1.2077954566022143E7
30
0.0
11
-3.540749315291071E7
21
1.2077954566027982E7
31
0.0
12
-3.5407493152447745E7
22
1.2078060025552342E7
32
0.0
13
-3.540777831094094E7
23
1.2078060025546502E7
33
0.0
0
3DFACE
8
outermarker
62
252
10
-3.540777833744233E7
20
1.2084016835649345E7
30
0.0
11
-3.540749312629208E7
21
1.208401683565519E7
31
0.0
12
-3.540749312582894E7
22
1.208412229493657E7
32
0.0
13
-3.540777833791159E7
23
1.2084122294930728E7
33
0.0
0
3DFACE
8
outermarker
62
252
10
-3.540777836442294E7
20
1.209007909080829E7
30
0.0
11
-3.5407493099663444E7
21
1.2090079090814136E7
31
0.0
12
-3.540749309920012E7
22
1.2090184549834808E7
32
0.0
13
-3.5407778364892386E7
23
1.209018454982896E7
33
0.0
0
3DFACE
8
outermarker
62
252
10
-3.54077783914137E7
20
1.2096141330479726E7
30
0.0
11
-3.5407493073024794E7
21
1.2096141330485577E7
31
0.0
12
-3.5407493072561294E7
22
1.2096246789227808E7
32
0.0
13
-3.540777839188332E7
23
1.2096246789221955E7
33
0.0
0
3DFACE
8
outermarker
62
252
10
-3.540777841841594E7
20
1.2102203852958836E7
30
0.0
11
-3.5407493046374805E7
21
1.2102203852964694E7
31
0.0
12
-3.54074930459142E7
22
1.210230861301045E7
32
0.0
13
-3.540777841888263E7
23
1.2102308613004595E7
33
0.0
0
3DFACE
8
outermarker
62
252
10
-3.54153883815986E7
20
1.2021403610442525E7
30
0.0
11
-3.541510372299429E7
21
1.2021403657733988E7
31
0.0
12
-3.54151037473645E7
22
1.2021509118664002E7
32
0.0
13
-3.541538840689761E7
23
1.2021509071372021E7
33
0.0
0
3DFACE
8
outermarker
62
252
10
-3.541538983616497E7
20
1.2027465965514451E7
30
0.0
11
-3.5415105124158956E7
21
1.2027466012835933E7
31
0.0
12
-3.541510514853831E7
22
1.2027571473688375E7
32
0.0
13
-3.541538986147348E7
23
1.2027571426366374E7
33
0.0
0
3DFACE
8
outermarker
62
252
10
-3.54153912912772E7
20
1.2033528315626407E7
30
0.0
11
-3.5415106525849424E7
21
1.2033528362977905E7
31
0.0
12
-3.541510655023793E7
22
1.2033633823735043E7
32
0.0
13
-3.541539131659521E7
23
1.203363377638302E7
33
0.0
0
3DFACE
8
outermarker
62
252
10
-3.541539420316441E7
20
1.2045653096666427E7
30
0.0
11
-3.5415109330832094E7
21
1.204565314407798E7
31
0.0
12
-3.5415109355238914E7
22
1.2045758604591312E7
32
0.0
13
-3.541539422850143E7
23
1.2045758557179239E7
33
0.0
0
3DFACE
8
outermarker
62
252
10
-3.541539565991606E7
20
1.2051715425782247E7
30
0.0
11
-3.54151107341018E7
21
1.2051715473223832E7
31
0.0
12
-3.541511075851778E7
22
1.2051820933588658E7
32
0.0
13
-3.541539568526259E7
23
1.2051820886146553E7
33
0.0
0
3DFACE
8
outermarker
62
252
10
-3.541539711721478E7
20
1.2057777745860716E7
30
0.0
11
-3.5415112137898505E7
21
1.205777779333233E7
31
0.0
12
-3.5415112162323646E7
22
1.2057883253530921E7
32
0.0
13
-3.541539714257083E7
23
1.2057883206058787E7
33
0.0
0
3DFACE
8
outermarker
62
252
10
-3.5415398575060904E7
20
1.2063840055882506E7
30
0.0
11
-3.541511354222249E7
21
1.206384010338416E7
31
0.0
12
-3.541511356665682E7
22
1.2063945563398791E7
32
0.0
13
-3.541539860042647E7
23
1.2063945515896615E7
33
0.0
0
3DFACE
8
outermarker
62
252
10
-3.5415400033454716E7
20
1.206990235482832E7
30
0.0
11
-3.541511494707408E7
21
1.2069902402360013E7
31
0.0
12
-3.541511497151759E7
22
1.2070007862172943E7
32
0.0
13
-3.541540005882982E7
23
1.2070007814640729E7
33
0.0
0
3DFACE
8
outermarker
62
252
10
-3.541540149239654E7
20
1.2075964641678851E7
30
0.0
11
-3.541511635245356E7
21
1.207596468924059E7
31
0.0
12
-3.541511637692939E7
22
1.2076070248606645E7
32
0.0
13
-3.5415401517805204E7
23
1.2076070201044384E7
33
0.0
0
3DFACE
8
outermarker
62
252
10
-3.541540295188669E7
20
1.208202691541482E7
30
0.0
11
-3.541511775836123E7
21
1.2082026963006604E7
31
0.0
12
-3.541511778284626E7
22
1.2082132522135274E7
32
0.0
13
-3.54154029773049E7
23
1.2082132474542966E7
33
0.0
0
3DFACE
8
outermarker
62
252
10
-3.541540441194949E7
20
1.2088089274789037E7
30
0.0
11
-3.541511916482053E7
21
1.2088089322410872E7
31
0.0
12
-3.541511918929161E7
22
1.2088194781512318E7
32
0.0
13
-3.541540443735322E7
23
1.2088194733889958E7
33
0.0
0
3DFACE
8
outermarker
62
252
10
-3.541540587253721E7
20
1.2094151519237805E7
30
0.0
11
-3.541512057178548E7
21
1.209415156688969E7
31
0.0
12
-3.541512059626576E7
22
1.209425702571851E7
32
0.0
13
-3.541540589795049E7
23
1.2094256978066102E7
33
0.0
0
3DFACE
8
outermarker
62
252
10
-3.541540733367418E7
20
1.210021374751421E7
30
0.0
11
-3.54151219792795E7
21
1.2100213795196155E7
31
0.0
12
-3.54151220038385E7
22
1.2100319553049289E7
32
0.0
13
-3.541540735916918E7
23
1.2100319505366823E7
33
0.0
0
3DFACE
8
outermarker
62
252
10
-3.541681416411605E7
20
1.2015349967415445E7
30
0.0
11
-3.541652955882984E7
21
1.2015350023540892E7
31
0.0
12
-3.541652958787439E7
22
1.2015455584301729E7
32
0.0
13
-3.541681419408994E7
23
1.2015455528175658E7
33
0.0
0
3DFACE
8
outermarker
62
252
10
-3.541681588586382E7
20
1.2021412426029278E7
30
0.0
11
-3.5416531227195024E7
21
1.202141248219037E7
31
0.0
12
-3.5416531256223015E7
22
1.2021517943117471E7
32
0.0
13
-3.541681591582061E7
23
1.202151788695576E7
33
0.0
0
3DFACE
8
outermarker
62
252
10
-3.541681760822924E7
20
1.2027474780927079E7
30
0.0
11
-3.541653289615872E7
21
1.2027474837123815E7
31
0.0
12
-3.5416532925197594E7
22
1.2027580297973316E7
32
0.0
13
-3.541681763819727E7
23
1.2027580241775956E7
33
0.0
0
3DFACE
8
outermarker
62
252
10
-3.541681933124101E7
20
1.2033537130863355E7
30
0.0
11
-3.5416534565748714E7
21
1.2033537187095746E7
31
0.0
12
-3.541653459479849E7
22
1.2033642647849917E7
32
0.0
13
-3.541681936122029E7
23
1.2033642591616904E7
33
0.0
0
3DFACE
8
outermarker
62
252
10
-3.541682277920507E7
20
1.2045661811773969E7
30
0.0
11
-3.5416537906809054E7
21
1.204566186807767E7
31
0.0
12
-3.541653793590815E7
22
1.2045767428361403E7
32
0.0
13
-3.541682280923524E7
23
1.2045767372057077E7
33
0.0
0
3DFACE
8
outermarker
62
252
10
-3.541682450415807E7
20
1.2051724140709616E7
30
0.0
11
-3.54165395782801E7
21
1.2051724197048983E7
31
0.0
12
-3.541653960739013E7
22
1.2051829757184044E7
32
0.0
13
-3.541682453419953E7
23
1.2051829700844059E7
33
0.0
0
3DFACE
8
outermarker
62
252
10
-3.541682622978729E7
20
1.2057786560379516E7
30
0.0
11
-3.54165412504064E7
21
1.205778661675455E7
31
0.0
12
-3.541654127949983E7
22
1.2057892076950064E7
32
0.0
13
-3.5416826259811625E7
23
1.2057892020574411E7
33
0.0
0
3DFACE
8
outermarker
62
252
10
-3.541682795603629E7
20
1.2063848870217916E7
30
0.0
11
-3.5416542923133254E7
21
1.2063848926628618E7
31
0.0
12
-3.541654295223761E7
22
1.206395438664014E7
32
0.0
13
-3.541682798607191E7
23
1.2063954330228819E7
33
0.0
0
3DFACE
8
outermarker
62
252
10
-3.541682968293382E7
20
1.2069911168978784E7
30
0.0
11
-3.5416544596488535E7
21
1.2069911225425165E7
31
0.0
12
-3.541654462560383E7
22
1.2070016685234964E7
32
0.0
13
-3.5416829712980725E7
23
1.2070016628787963E7
33
0.0
0
3DFACE
8
outermarker
62
252
10
-3.541683141048026E7
20
1.2075973455642832E7
30
0.0
11
-3.541654627047261E7
21
1.2075973512124889E7
31
0.0
12
-3.541654629959884E7
22
1.207607897171523E7
32
0.0
13
-3.541683144053845E7
23
1.2076078915232554E7
33
0.0
0
3DFACE
8
outermarker
62
252
10
-3.541683313867597E7
20
1.2082035729190767E7
30
0.0
11
-3.541654794508581E7
21
1.2082035785708504E7
31
0.0
12
-3.5416547974223E7
22
1.2082141245061658E7
32
0.0
13
-3.5416833168745466E7
23
1.20821411885433E7
33
0.0
0
3DFACE
8
outermarker
62
252
10
-3.5416834867521316E7
20
1.2088097988603316E7
30
0.0
11
-3.5416549620328516E7
21
1.2088098045156742E7
31
0.0
12
-3.541654964950423E7
22
1.208820360402706E7
32
0.0
13
-3.5416834897630565E7
23
1.2088203547473013E7
33
0.0
0
3DFACE
8
outermarker
62
252
10
-3.541683659704512E7
20
1.2094160332633056E7
30
0.0
11
-3.5416551296228655E7
21
1.2094160389222167E7
31
0.0
12
-3.541655132538775E7
22
1.2094265848047746E7
32
0.0
13
-3.541683662713723E7
23
1.2094265791458016E7
33
0.0
0
3DFACE
8
outermarker
62
252
10
-3.541683832716236E7
20
1.2100222460945236E7
30
0.0
11
-3.5416552972703815E7
21
1.2100222517570047E7
31
0.0
12
-3.541655300195667E7
22
1.2100328275419911E7
32
0.0
13
-3.541683835735123E7
23
1.2100328218794482E7
33
0.0
0
3DFACE
8
outermarker
62
252
10
-3.544133141583571E7
20
1.2022623382092617E7
30
-0.0138811
11
-3.5441113522644155E7
21
1.2022777093665896E7
31
-0.0138811
12
-3.544119433621124E7
22
1.2022857851282593E7
32
-0.0138811
13
-3.544141234845564E7
23
1.2022704139238399E7
33
-0.0138811
0
3DFACE
8
outermarker
62
252
10
-3.5431845583732925E7
20
1.2013478719953226E7
30
-0.0138811
11
-3.543162770688819E7
21
1.2013632386524247E7
31
-0.0138811
12
-3.543170859283121E7
22
1.201371316094229E7
32
-0.0138811
13
-3.543192646983448E7
23
1.2013559493987415E7
33
-0.0138811
0
3DFACE
8
outermarker
62
252
10
-3.5436587829952456E7
20
1.2018051298466511E7
30
-0.0138811
11
-3.5436369944921054E7
21
1.2018204987539176E7
31
-0.0138811
12
-3.543645073524446E7
22
1.2018285753597705E7
32
-0.0138811
13
-3.54366687393124E7
23
1.2018132064066444E7
33
-0.0138811
0
3DFACE
8
outermarker
62
252
10
-3.54460763414619E7
20
1.2027194969689649E7
30
-0.0138811
11
-3.54458584401367E7
21
1.2027348703762496E7
31
-0.0138811
12
-3.5445939276949055E7
22
1.2027429452917488E7
32
-0.0138811
13
-3.5446157178431995E7
23
1.202727571846141E7
33
-0.0138811
0
3DFACE
8
outermarker
62
252
10
-3.545557021225734E7
20
1.2036336652229253E7
30
-0.0138811
11
-3.545535229474455E7
21
1.2036490431298088E7
31
-0.0138811
12
-3.545543317805216E7
22
1.2036571163470054E7
32
-0.0138811
13
-3.545565109572179E7
23
1.2036417384018034E7
33
-0.0138811
0
3DFACE
8
outermarker
62
252
10
-3.546031915758248E7
20
1.2040906744888403E7
30
-0.0138811
11
-3.546010111305394E7
21
1.2041060546589991E7
31
-0.0138811
12
-3.5460182138573356E7
22
1.2041141270104293E7
32
-0.0138811
13
-3.546040006429644E7
23
1.2040987468155889E7
33
-0.0138811
0
3DFACE
8
outermarker
62
252
10
-3.5465069323984295E7
20
1.2045476337100936E7
30
-0.0138811
11
-3.546485139038974E7
21
1.2045630161160938E7
31
-0.0138811
12
-3.5464932439177394E7
22
1.2045710876121659E7
32
-0.0138811
13
-3.54651503729273E7
23
1.2045557051677944E7
33
-0.0138811
0
3DFACE
8
outermarker
62
252
10
-3.546982094947872E7
20
1.2050045427439114E7
30
-0.0138811
11
-3.5469603007883556E7
21
1.2050199273993371E7
31
-0.0138811
12
-3.546968407994097E7
22
1.2050279980380623E7
32
-0.0138811
13
-3.546990202169104E7
23
1.205012613344268E7
33
-0.0138811
0
3DFACE
8
outermarker
62
252
10
-3.547457391518065E7
20
1.2054614014898403E7
30
-0.0138811
11
-3.547435596561154E7
21
1.205476788394582E7
31
-0.0138811
12
-3.5474437060940236E7
22
1.2054848581739737E7
32
-0.0138811
13
-3.54746550106638E7
23
1.2054694712308649E7
33
-0.0138811
0
3DFACE
8
outermarker
62
252
10
-3.547932822116571E7
20
1.2059182098337432E7
30
-0.0138811
11
-3.547911026364936E7
21
1.2059335989876922E7
31
-0.0138811
12
-3.547919138225085E7
22
1.2059416679057619E7
32
-0.0138811
13
-3.5479409339921206E7
23
1.205926278713448E7
33
-0.0138811
0
3DFACE
8
outermarker
62
252
10
-3.548408386750903E7
20
1.2063749676614912E7
30
-0.0138811
11
-3.5483865902072184E7
21
1.2063903590645371E7
31
-0.0138811
12
-3.548394704394799E7
22
1.2063984271192975E7
32
-0.0138811
13
-3.548416500953838E7
23
1.2063830356778888E7
33
-0.0138811
0
3DFACE
8
outermarker
62
252
10
-3.548884085428523E7
20
1.2068316748589639E7
30
-0.0138811
11
-3.548862288095464E7
21
1.2068470685109952E7
31
-0.0138811
12
-3.548870392704396E7
22
1.2068551357215697E7
32
-0.0138811
13
-3.548892201958994E7
23
1.2068397420100663E7
33
-0.0138811
0
3DFACE
8
outermarker
62
252
10
-3.549359918156842E7
20
1.2072883313120479E7
30
-0.0138811
11
-3.549338120037086E7
21
1.2073037272129536E7
31
-0.0138811
12
-3.549346226972083E7
22
1.2073117935574898E7
32
-0.0138811
13
-3.549368025107159E7
23
1.207296397618282E7
33
-0.0138811
0
3DFACE
8
outermarker
62
252
10
-3.549835884943218E7
20
1.2077449369066395E7
30
-0.0138811
11
-3.549814086039446E7
21
1.2077603350563066E7
31
-0.0138811
12
-3.549822195300655E7
22
1.2077684005328197E7
32
-0.0138811
13
-3.549843994219701E7
23
1.2077530023448527E7
33
-0.0138811
0
3DFACE
8
outermarker
62
252
10
-3.544999559413073E7
20
1.2032682654501313E7
30
0.0
11
-3.54498725551012E7
21
1.2032724673066372E7
31
0.0
12
-3.544990146179165E7
22
1.2032820429044846E7
32
-0.0138811
13
-3.544990146179165E7
23
1.2032820429044846E7
33
-0.0138811
0
3DFACE
8
outermarker
62
252
10
-3.5449763769970484E7
20
1.2032753208754024E7
30
0.0
11
-3.54496710221074E7
21
1.2032767661387166E7
31
0.0
12
-3.544975784208502E7
22
1.2032858774670463E7
32
-0.0138811
13
-3.544975784208502E7
23
1.2032858774670463E7
33
-0.0138811
0
3DFACE
8
outermarker
62
252
10
-3.54493113168764E7
20
1.2032816579921251E7
30
-0.0138811
11
-3.544935917870876E7
21
1.2032856246226575E7
31
-0.0138811
12
-3.5449502561008714E7
22
1.2032726110359335E7
32
0.0
13
-3.5449502561008714E7
23
1.2032726110359335E7
33
0.0
0
3DFACE
8
outermarker
62
252
10
-3.544928439917233E7
20
1.203269398266107E7
30
-0.0138811
11
-3.5449286270988315E7
21
1.2032762126325753E7
31
-0.0138811
12
-3.5449485737792216E7
22
1.2032684520147787E7
32
0.0
13
-3.5449485737792216E7
23
1.2032684520147787E7
33
0.0
0
3DFACE
8
outermarker
62
252
10
-3.5449502561008714E7
20
1.2032726110359335E7
30
0.0
11
-3.544953946597043E7
21
1.2032754013208972E7
31
0.0
12
-3.5449485737792216E7
22
1.2032684520147787E7
32
0.0
13
-3.5449485737792216E7
23
1.2032684520147787E7
33
0.0
0
3DFACE
8
outermarker
62
252
10
-3.544948947315224E7
20
1.2032630140122829E7
30
0.0
11
-3.5449513530024186E7
21
1.2032563668911232E7
31
0.0
12
-3.544934970629307E7
22
1.2032520416925613E7
32
-0.0138811
13
-3.544934970629307E7
23
1.2032520416925613E7
33
-0.0138811
0
3DFACE
8
outermarker
62
252
10
-3.5449513530024186E7
20
1.2032563668911232E7
30
0.0
11
-3.544955767181846E7
21
1.2032486204206983E7
31
0.0
12
-3.544941605588375E7
22
1.203241778917347E7
32
-0.0138811
13
-3.544941605588375E7
23
1.203241778917347E7
33
-0.0138811
0
3DFACE
8
outermarker
62
252
10
-3.544941605588375E7
20
1.203241778917347E7
30
-0.0138811
11
-3.544955767181846E7
21
1.2032486204206983E7
31
0.0
12
-3.544962106738978E7
22
1.2032398943997132E7
32
0.0
13
-3.544962106738978E7
23
1.2032398943997132E7
33
0.0
0
3DFACE
8
outermarker
62
252
10
-3.544950332597909E7
20
1.2032306860991964E7
30
-0.0138811
11
-3.544962106738978E7
21
1.2032398943997132E7
31
0.0
12
-3.5449702766904086E7
22
1.203230328590461E7
32
0.0
13
-3.5449702766904086E7
23
1.203230328590461E7
33
0.0
0
3DFACE
8
outermarker
62
252
10
-3.5449801463863775E7
20
1.2032200727638476E7
30
0.0
11
-3.544991561418506E7
21
1.2032092966665775E7
31
0.0
12
-3.544973552102377E7
22
1.2032066592813067E7
32
-0.0138811
13
-3.544973552102377E7
23
1.2032066592813067E7
33
-0.0138811
0
3DFACE
8
outermarker
62
252
10
-3.544991561418506E7
20
1.2032092966665775E7
30
0.0
11
-3.5450043435692355E7
21
1.2031981501125522E7
31
0.0
12
-3.544987676384511E7
22
1.203194124686442E7
32
-0.0138811
13
-3.544987676384511E7
23
1.203194124686442E7
33
-0.0138811
0
3DFACE
8
outermarker
62
252
10
-3.5450043435692355E7
20
1.2031981501125522E7
30
0.0
11
-3.545018279011943E7
21
1.2031868328362238E7
31
0.0
12
-3.545003168098157E7
22
1.203181489008498E7
32
-0.0138811
13
-3.545003168098157E7
23
1.203181489008498E7
33
-0.0138811
0
3DFACE
8
outermarker
62
252
10
-3.545018279011943E7
20
1.2031868328362238E7
30
0.0
11
-3.5450331657659434E7
21
1.2031755046531733E7
31
0.0
12
-3.5450198134452894E7
22
1.2031689719342794E7
32
-0.0138811
13
-3.5450198134452894E7
23
1.2031689719342794E7
33
-0.0138811
0
3DFACE
8
outermarker
62
252
10
-3.5450331657659434E7
20
1.2031755046531733E7
30
0.0
11
-3.545048766217688E7
21
1.203164355346356E7
31
0.0
12
-3.54503732722677E7
22
1.2031567533099094E7
32
-0.0138811
13
-3.54503732722677E7
23
1.2031567533099094E7
33
-0.0138811
0
3DFACE
8
outermarker
62
252
10
-3.545048766217688E7
20
1.203164355346356E7
30
0.0
11
-3.54506483084148E7
21
1.2031535547580153E7
31
0.0
12
-3.54505544806394E7
22
1.2031450329176527E7
32
-0.0138811
13
-3.54505544806394E7
23
1.2031450329176527E7
33
-0.0138811
0
3DFACE
8
outermarker
62
252
10
-3.54506483084148E7
20
1.2031535547580153E7
30
0.0
11
-3.54508109822598E7
21
1.2031432727448966E7
31
0.0
12
-3.5450738788957864E7
22
1.2031340005998138E7
32
-0.0138811
13
-3.5450738788957864E7
23
1.2031340005998138E7
33
-0.0138811
0
3DFACE
8
outermarker
62
252
10
-3.5450738788957864E7
20
1.2031340005998138E7
30
-0.0138811
11
-3.54508109822598E7
21
1.2031432727448966E7
31
0.0
12
-3.5450973188594684E7
22
1.2031336791561367E7
32
0.0
13
-3.5450973188594684E7
23
1.2031336791561367E7
33
0.0
0
3DFACE
8
outermarker
62
252
10
-3.5451132431963615E7
20
1.2031249139123429E7
30
0.0
11
-3.545128609817147E7
21
1.2031171269262329E7
31
0.0
12
-3.545110517873188E7
22
1.2031146497952573E7
32
-0.0138811
13
-3.545110517873188E7
23
1.2031146497952573E7
33
-0.0138811
0
3DFACE
8
outermarker
62
252
10
-3.545128609817147E7
20
1.2031171269262329E7
30
0.0
11
-3.5451431810513906E7
21
1.2031104381590784E7
31
0.0
12
-3.545128155641031E7
22
1.203106651129589E7
32
-0.0138811
13
-3.545128155641031E7
23
1.203106651129589E7
33
-0.0138811
0
3DFACE
8
outermarker
62
252
10
-3.5451431810513906E7
20
1.2031104381590784E7
30
0.0
11
-3.545156731096769E7
21
1.2031049476087179E7
31
0.0
12
-3.545144962591779E7
22
1.2030999402706178E7
32
-0.0138811
13
-3.545144962591779E7
23
1.2030999402706178E7
33
-0.0138811
0
3DFACE
8
outermarker
62
252
10
-3.5451690460310325E7
20
1.2031007452862743E7
30
0.0
11
-3.5451799118907824E7
21
1.203097891272229E7
31
0.0
12
-3.5451750262569636E7
22
1.2030907821224954E7
32
-0.0138811
13
-3.5451750262569636E7
23
1.2030907821224954E7
33
-0.0138811
0
3DFACE
8
outermarker
62
252
10
-3.5452221813811354E7
20
1.2031004444268659E7
30
-0.0138811
11
-3.545219664550841E7
21
1.2030949992373394E7
31
-0.0138811
12
-3.5452060434649505E7
22
1.2031006097710473E7
32
0.0
13
-3.5452060434649505E7
23
1.2031006097710473E7
33
0.0
0
3DFACE
8
outermarker
62
252
10
-3.545222369186123E7
20
1.203107268759072E7
30
-0.0138811
11
-3.5452077141237706E7
21
1.2031047587323347E7
31
0.0
12
-3.545207341041698E7
22
1.2031101967562394E7
32
0.0
13
-3.545207341041698E7
23
1.2031101967562394E7
33
0.0
0
3DFACE
8
outermarker
62
252
10
-3.5452077141237706E7
20
1.2031047587323347E7
30
0.0
11
-3.5452060434649505E7
21
1.2031006097710473E7
31
0.0
12
-3.545202352938314E7
22
1.2030978097111853E7
32
0.0
13
-3.545202352938314E7
23
1.2030978097111853E7
33
0.0
0
3DFACE
8
outermarker
62
252
10
-3.545220239692461E7
20
1.2031153624718362E7
30
-0.0138811
11
-3.545207341041698E7
21
1.2031101967562394E7
31
0.0
12
-3.5452049359908074E7
22
1.2031168440119391E7
32
0.0
13
-3.5452049359908074E7
23
1.2031168440119391E7
33
0.0
0
3DFACE
8
outermarker
62
252
10
-3.5452005225903064E7
20
1.2031245907223603E7
30
0.0
11
-3.54519418390538E7
21
1.2031333170729857E7
31
0.0
12
-3.545209206454421E7
22
1.2031348789367378E7
32
-0.0138811
13
-3.545209206454421E7
23
1.2031348789367378E7
33
-0.0138811
0
3DFACE
8
outermarker
62
252
10
-3.54519418390538E7
20
1.2031333170729857E7
30
0.0
11
-3.545186026757335E7
21
1.2031428832695987E7
31
0.0
12
-3.5452004806092516E7
22
1.2031459822246207E7
32
-0.0138811
13
-3.5452004806092516E7
23
1.2031459822246207E7
33
-0.0138811
0
3DFACE
8
outermarker
62
252
10
-3.545186026757335E7
20
1.2031428832695987E7
30
0.0
11
-3.5451761579534635E7
21
1.2031531395391477E7
31
0.0
12
-3.545189769523758E7
22
1.2031577459208578E7
32
-0.0138811
13
-3.545189769523758E7
23
1.2031577459208578E7
33
-0.0138811
0
3DFACE
8
outermarker
62
252
10
-3.5451761579534635E7
20
1.2031531395391477E7
30
0.0
11
-3.545164743751909E7
21
1.2031639260730071E7
31
0.0
12
-3.5451772632220104E7
22
1.2031700002132459E7
32
-0.0138811
13
-3.5451772632220104E7
23
1.2031700002132459E7
33
-0.0138811
0
3DFACE
8
outermarker
62
252
10
-3.545164743751909E7
20
1.2031639260730071E7
30
0.0
11
-3.545151962279221E7
21
1.2031750630964357E7
31
0.0
12
-3.5451631397845455E7
22
1.2031825353914265E7
32
-0.0138811
13
-3.5451631397845455E7
23
1.2031825353914265E7
33
-0.0138811
0
3DFACE
8
outermarker
62
252
10
-3.545151962279221E7
20
1.2031750630964357E7
30
0.0
11
-3.545138015465297E7
21
1.2031863807899706E7
31
0.0
12
-3.545147648694934E7
22
1.203195171609123E7
32
-0.0138811
13
-3.545147648694934E7
23
1.203195171609123E7
33
-0.0138811
0
3DFACE
8
outermarker
62
252
10
-3.545147648694934E7
20
1.203195171609123E7
30
-0.0138811
11
-3.545138015465297E7
21
1.2031863807899706E7
31
0.0
12
-3.5451231290309645E7
22
1.2031977093129633E7
32
0.0
13
-3.5451231290309645E7
23
1.2031977093129633E7
33
0.0
0
3DFACE
8
outermarker
62
252
10
-3.545131003711023E7
20
1.2032076891466849E7
30
-0.0138811
11
-3.5451231290309645E7
21
1.2031977093129633E7
31
0.0
12
-3.5451075286763944E7
22
1.2032088588723203E7
32
0.0
13
-3.5451075286763944E7
23
1.2032088588723203E7
33
0.0
0
3DFACE
8
outermarker
62
252
10
-3.545091463921317E7
20
1.2032196596098198E7
30
0.0
11
-3.5450751961854525E7
21
1.2032299416593332E7
31
0.0
12
-3.5450953689648926E7
22
1.2032316287492245E7
32
-0.0138811
13
-3.5450953689648926E7
23
1.2032316287492245E7
33
-0.0138811
0
3DFACE
8
outermarker
62
252
10
-3.5450751961854525E7
20
1.2032299416593332E7
30
0.0
11
-3.5450589750025176E7
21
1.2032395351695318E7
31
0.0
12
-3.5450769376633935E7
22
1.203242671130319E7
32
-0.0138811
13
-3.5450769376633935E7
23
1.203242671130319E7
33
-0.0138811
0
3DFACE
8
outermarker
62
252
10
-3.5450589750025176E7
20
1.2032395351695318E7
30
0.0
11
-3.545043049952288E7
21
1.2032483002246497E7
31
0.0
12
-3.54505848129544E7
22
1.2032528454304282E7
32
-0.0138811
13
-3.54505848129544E7
23
1.2032528454304282E7
33
-0.0138811
0
3DFACE
8
outermarker
62
252
10
-3.545043049952288E7
20
1.2032483002246497E7
30
0.0
11
-3.5450276824996196E7
21
1.2032560869239245E7
31
0.0
12
-3.545040297018234E7
22
1.2032620116887122E7
32
-0.0138811
13
-3.545040297018234E7
23
1.2032620116887122E7
33
-0.0138811
0
3DFACE
8
outermarker
62
252
10
-3.5450276824996196E7
20
1.2032560869239245E7
30
0.0
11
-3.5450131103670955E7
21
1.2032627753240598E7
31
0.0
12
-3.545022658182644E7
22
1.2032700100164391E7
32
-0.0138811
13
-3.545022658182644E7
23
1.2032700100164391E7
33
-0.0138811
0
3DFACE
8
outermarker
62
252
10
-3.545005850090357E7
20
1.2032767204273026E7
30
-0.0138811
11
-3.544999559413073E7
21
1.2032682654501313E7
31
0.0
12
-3.544990146179165E7
22
1.2032820429044846E7
32
-0.0138811
13
-3.544990146179165E7
23
1.2032820429044846E7
33
-0.0138811
0
3DFACE
8
outermarker
62
252
10
-3.544942902320522E7
20
1.203288052728941E7
30
-0.0138811
11
-3.544953946597043E7
21
1.2032754013208972E7
31
0.0
12
-3.5449502561008714E7
22
1.2032726110359335E7
32
0.0
13
-3.5449502561008714E7
23
1.2032726110359335E7
33
0.0
0
3DFACE
8
outermarker
62
252
10
-3.54496710221074E7
20
1.2032767661387166E7
30
0.0
11
-3.544959585763577E7
21
1.2032767929872813E7
31
0.0
12
-3.544962990121916E7
22
1.2032881840109672E7
32
-0.0138811
13
-3.544962990121916E7
23
1.2032881840109672E7
33
-0.0138811
0
3DFACE
8
outermarker
62
252
10
-3.544990146179165E7
20
1.2032820429044846E7
30
-0.0138811
11
-3.5449763769970484E7
21
1.2032753208754024E7
31
0.0
12
-3.544975784208502E7
22
1.2032858774670463E7
32
-0.0138811
13
-3.544975784208502E7
23
1.2032858774670463E7
33
-0.0138811
0
3DFACE
8
outermarker
62
252
10
-3.544975784208502E7
20
1.2032858774670463E7
30
-0.0138811
11
-3.54496710221074E7
21
1.2032767661387166E7
31
0.0
12
-3.544962990121916E7
22
1.2032881840109672E7
32
-0.0138811
13
-3.544962990121916E7
23
1.2032881840109672E7
33
-0.0138811
0
3DFACE
8
outermarker
62
252
10
-3.5449519779539034E7
20
1.2032889124668112E7
30
-0.0138811
11
-3.544962990121916E7
21
1.2032881840109672E7
31
-0.0138811
12
-3.544959585763577E7
22
1.2032767929872813E7
32
0.0
13
-3.544959585763577E7
23
1.2032767929872813E7
33
0.0
0
3DFACE
8
outermarker
62
252
10
-3.5449519779539034E7
20
1.2032889124668112E7
30
-0.0138811
11
-3.544959585763577E7
21
1.2032767929872813E7
31
0.0
12
-3.544953946597043E7
22
1.2032754013208972E7
32
0.0
13
-3.544953946597043E7
23
1.2032754013208972E7
33
0.0
0
3DFACE
8
outermarker
62
252
10
-3.544942902320522E7
20
1.203288052728941E7
30
-0.0138811
11
-3.5449519779539034E7
21
1.2032889124668112E7
31
-0.0138811
12
-3.544953946597043E7
22
1.2032754013208972E7
32
0.0
13
-3.544953946597043E7
23
1.2032754013208972E7
33
0.0
0
3DFACE
8
outermarker
62
252
10
-3.544935917870876E7
20
1.2032856246226575E7
30
-0.0138811
11
-3.544942902320522E7
21
1.203288052728941E7
31
-0.0138811
12
-3.5449502561008714E7
22
1.2032726110359335E7
32
0.0
13
-3.5449502561008714E7
23
1.2032726110359335E7
33
0.0
0
3DFACE
8
outermarker
62
252
10
-3.5449286270988315E7
20
1.2032762126325753E7
30
-0.0138811
11
-3.5449502561008714E7
21
1.2032726110359335E7
31
0.0
12
-3.5449485737792216E7
22
1.2032684520147787E7
32
0.0
13
-3.5449485737792216E7
23
1.2032684520147787E7
33
0.0
0
3DFACE
8
outermarker
62
252
10
-3.5449286270988315E7
20
1.2032762126325753E7
30
-0.0138811
11
-3.54493113168764E7
21
1.2032816579921251E7
31
-0.0138811
12
-3.5449502561008714E7
22
1.2032726110359335E7
32
0.0
13
-3.5449502561008714E7
23
1.2032726110359335E7
33
0.0
0
3DFACE
8
outermarker
62
252
10
-3.544928439917233E7
20
1.203269398266107E7
30
-0.0138811
11
-3.5449485737792216E7
21
1.2032684520147787E7
31
0.0
12
-3.544930570231363E7
22
1.203261294711778E7
32
-0.0138811
13
-3.544930570231363E7
23
1.203261294711778E7
33
-0.0138811
0
3DFACE
8
outermarker
62
252
10
-3.5449485737792216E7
20
1.2032684520147787E7
30
0.0
11
-3.544948947315224E7
21
1.2032630140122829E7
31
0.0
12
-3.544930570231363E7
22
1.203261294711778E7
32
-0.0138811
13
-3.544930570231363E7
23
1.203261294711778E7
33
-0.0138811
0
3DFACE
8
outermarker
62
252
10
-3.544930570231363E7
20
1.203261294711778E7
30
-0.0138811
11
-3.544948947315224E7
21
1.2032630140122829E7
31
0.0
12
-3.544934970629307E7
22
1.2032520416925613E7
32
-0.0138811
13
-3.544934970629307E7
23
1.2032520416925613E7
33
-0.0138811
0
3DFACE
8
outermarker
62
252
10
-3.544934970629307E7
20
1.2032520416925613E7
30
-0.0138811
11
-3.5449513530024186E7
21
1.2032563668911232E7
31
0.0
12
-3.544941605588375E7
22
1.203241778917347E7
32
-0.0138811
13
-3.544941605588375E7
23
1.203241778917347E7
33
-0.0138811
0
3DFACE
8
outermarker
62
252
10
-3.544950332597909E7
20
1.2032306860991964E7
30
-0.0138811
11
-3.544941605588375E7
21
1.203241778917347E7
31
-0.0138811
12
-3.544962106738978E7
22
1.2032398943997132E7
32
0.0
13
-3.544962106738978E7
23
1.2032398943997132E7
33
0.0
0
3DFACE
8
outermarker
62
252
10
-3.544950332597909E7
20
1.2032306860991964E7
30
-0.0138811
11
-3.5449702766904086E7
21
1.203230328590461E7
31
0.0
12
-3.54496104478753E7
22
1.2032189129845113E7
32
-0.0138811
13
-3.54496104478753E7
23
1.2032189129845113E7
33
-0.0138811
0
3DFACE
8
outermarker
62
252
10
-3.5449702766904086E7
20
1.203230328590461E7
30
0.0
11
-3.5449801463863775E7
21
1.2032200727638476E7
31
0.0
12
-3.54496104478753E7
22
1.2032189129845113E7
32
-0.0138811
13
-3.54496104478753E7
23
1.2032189129845113E7
33
-0.0138811
0
3DFACE
8
outermarker
62
252
10
-3.54496104478753E7
20
1.2032189129845113E7
30
-0.0138811
11
-3.5449801463863775E7
21
1.2032200727638476E7
31
0.0
12
-3.544973552102377E7
22
1.2032066592813067E7
32
-0.0138811
13
-3.544973552102377E7
23
1.2032066592813067E7
33
-0.0138811
0
3DFACE
8
outermarker
62
252
10
-3.544973552102377E7
20
1.2032066592813067E7
30
-0.0138811
11
-3.544991561418506E7
21
1.2032092966665775E7
31
0.0
12
-3.544987676384511E7
22
1.203194124686442E7
32
-0.0138811
13
-3.544987676384511E7
23
1.203194124686442E7
33
-0.0138811
0
3DFACE
8
outermarker
62
252
10
-3.544987676384511E7
20
1.203194124686442E7
30
-0.0138811
11
-3.5450043435692355E7
21
1.2031981501125522E7
31
0.0
12
-3.545003168098157E7
22
1.203181489008498E7
32
-0.0138811
13
-3.545003168098157E7
23
1.203181489008498E7
33
-0.0138811
0
3DFACE
8
outermarker
62
252
10
-3.545003168098157E7
20
1.203181489008498E7
30
-0.0138811
11
-3.545018279011943E7
21
1.2031868328362238E7
31
0.0
12
-3.5450198134452894E7
22
1.2031689719342794E7
32
-0.0138811
13
-3.5450198134452894E7
23
1.2031689719342794E7
33
-0.0138811
0
3DFACE
8
outermarker
62
252
10
-3.5450198134452894E7
20
1.2031689719342794E7
30
-0.0138811
11
-3.5450331657659434E7
21
1.2031755046531733E7
31
0.0
12
-3.54503732722677E7
22
1.2031567533099094E7
32
-0.0138811
13
-3.54503732722677E7
23
1.2031567533099094E7
33
-0.0138811
0
3DFACE
8
outermarker
62
252
10
-3.54503732722677E7
20
1.2031567533099094E7
30
-0.0138811
11
-3.545048766217688E7
21
1.203164355346356E7
31
0.0
12
-3.54505544806394E7
22
1.2031450329176527E7
32
-0.0138811
13
-3.54505544806394E7
23
1.2031450329176527E7
33
-0.0138811
0
3DFACE
8
outermarker
62
252
10
-3.54505544806394E7
20
1.2031450329176527E7
30
-0.0138811
11
-3.54506483084148E7
21
1.2031535547580153E7
31
0.0
12
-3.5450738788957864E7
22
1.2031340005998138E7
32
-0.0138811
13
-3.5450738788957864E7
23
1.2031340005998138E7
33
-0.0138811
0
3DFACE
8
outermarker
62
252
10
-3.5450738788957864E7
20
1.2031340005998138E7
30
-0.0138811
11
-3.5450973188594684E7
21
1.2031336791561367E7
31
0.0
12
-3.5450923345226526E7
22
1.203123816260058E7
32
-0.0138811
13
-3.5450923345226526E7
23
1.203123816260058E7
33
-0.0138811
0
3DFACE
8
outermarker
62
252
10
-3.5450973188594684E7
20
1.2031336791561367E7
30
0.0
11
-3.5451132431963615E7
21
1.2031249139123429E7
31
0.0
12
-3.5450923345226526E7
22
1.203123816260058E7
32
-0.0138811
13
-3.5450923345226526E7
23
1.203123816260058E7
33
-0.0138811
0
3DFACE
8
outermarker
62
252
10
-3.5450923345226526E7
20
1.203123816260058E7
30
-0.0138811
11
-3.5451132431963615E7
21
1.2031249139123429E7
31
0.0
12
-3.545110517873188E7
22
1.2031146497952573E7
32
-0.0138811
13
-3.545110517873188E7
23
1.2031146497952573E7
33
-0.0138811
0
3DFACE
8
outermarker
62
252
10
-3.545110517873188E7
20
1.2031146497952573E7
30
-0.0138811
11
-3.545128609817147E7
21
1.2031171269262329E7
31
0.0
12
-3.545128155641031E7
22
1.203106651129589E7
32
-0.0138811
13
-3.545128155641031E7
23
1.203106651129589E7
33
-0.0138811
0
3DFACE
8
outermarker
62
252
10
-3.545128155641031E7
20
1.203106651129589E7
30
-0.0138811
11
-3.5451431810513906E7
21
1.2031104381590784E7
31
0.0
12
-3.545144962591779E7
22
1.2030999402706178E7
32
-0.0138811
13
-3.545144962591779E7
23
1.2030999402706178E7
33
-0.0138811
0
3DFACE
8
outermarker
62
252
10
-3.545156731096769E7
20
1.2031049476087179E7
30
0.0
11
-3.5451690460310325E7
21
1.2031007452862743E7
31
0.0
12
-3.545160665359525E7
22
1.2030946172636034E7
32
-0.0138811
13
-3.545160665359525E7
23
1.2030946172636034E7
33
-0.0138811
0
3DFACE
8
outermarker
62
252
10
-3.545144962591779E7
20
1.2030999402706178E7
30
-0.0138811
11
-3.545156731096769E7
21
1.2031049476087179E7
31
0.0
12
-3.545160665359525E7
22
1.2030946172636034E7
32
-0.0138811
13
-3.545160665359525E7
23
1.2030946172636034E7
33
-0.0138811
0
3DFACE
8
outermarker
62
252
10
-3.5452079059705E7
20
1.2030886051980967E7
30
-0.0138811
11
-3.5451988308348835E7
21
1.2030877459660497E7
31
-0.0138811
12
-3.545202352938314E7
22
1.2030978097111853E7
32
0.0
13
-3.545202352938314E7
23
1.2030978097111853E7
33
0.0
0
3DFACE
8
outermarker
62
252
10
-3.5452079059705E7
20
1.2030886051980967E7
30
-0.0138811
11
-3.545202352938314E7
21
1.2030978097111853E7
31
0.0
12
-3.5452060434649505E7
22
1.2031006097710473E7
32
0.0
13
-3.5452060434649505E7
23
1.2031006097710473E7
33
0.0
0
3DFACE
8
outermarker
62
252
10
-3.5451799118907824E7
20
1.203097891272229E7
30
0.0
11
-3.545189186065704E7
21
1.2030964455788817E7
31
0.0
12
-3.5451878194067776E7
22
1.2030884749875857E7
32
-0.0138811
13
-3.5451878194067776E7
23
1.2030884749875857E7
33
-0.0138811
0
3DFACE
8
outermarker
62
252
10
-3.545160665359525E7
20
1.2030946172636034E7
30
-0.0138811
11
-3.5451690460310325E7
21
1.2031007452862743E7
31
0.0
12
-3.5451750262569636E7
22
1.2030907821224954E7
32
-0.0138811
13
-3.5451750262569636E7
23
1.2030907821224954E7
33
-0.0138811
0
3DFACE
8
outermarker
62
252
10
-3.5451750262569636E7
20
1.2030907821224954E7
30
-0.0138811
11
-3.5451799118907824E7
21
1.203097891272229E7
31
0.0
12
-3.5451878194067776E7
22
1.2030884749875857E7
32
-0.0138811
13
-3.5451878194067776E7
23
1.2030884749875857E7
33
-0.0138811
0
3DFACE
8
outermarker
62
252
10
-3.5451988308348835E7
20
1.2030877459660497E7
30
-0.0138811
11
-3.5451878194067776E7
21
1.2030884749875857E7
31
-0.0138811
12
-3.5451967020890184E7
22
1.2030964183544075E7
32
0.0
13
-3.5451967020890184E7
23
1.2030964183544075E7
33
0.0
0
3DFACE
8
outermarker
62
252
10
-3.5451878194067776E7
20
1.2030884749875857E7
30
-0.0138811
11
-3.545189186065704E7
21
1.2030964455788817E7
31
0.0
12
-3.5451967020890184E7
22
1.2030964183544075E7
32
0.0
13
-3.5451967020890184E7
23
1.2030964183544075E7
33
0.0
0
3DFACE
8
outermarker
62
252
10
-3.5451988308348835E7
20
1.2030877459660497E7
30
-0.0138811
11
-3.5451967020890184E7
21
1.2030964183544075E7
31
0.0
12
-3.545202352938314E7
22
1.2030978097111853E7
32
0.0
13
-3.545202352938314E7
23
1.2030978097111853E7
33
0.0
0
3DFACE
8
outermarker
62
252
10
-3.545219664550841E7
20
1.2030949992373394E7
30
-0.0138811
11
-3.5452148902097486E7
21
1.2030910428681353E7
31
-0.0138811
12
-3.5452060434649505E7
22
1.2031006097710473E7
32
0.0
13
-3.5452060434649505E7
23
1.2031006097710473E7
33
0.0
0
3DFACE
8
outermarker
62
252
10
-3.5452148902097486E7
20
1.2030910428681353E7
30
-0.0138811
11
-3.5452079059705E7
21
1.2030886051980967E7
31
-0.0138811
12
-3.5452060434649505E7
22
1.2031006097710473E7
32
0.0
13
-3.5452060434649505E7
23
1.2031006097710473E7
33
0.0
0
3DFACE
8
outermarker
62
252
10
-3.5452221813811354E7
20
1.2031004444268659E7
30
-0.0138811
11
-3.5452077141237706E7
21
1.2031047587323347E7
31
0.0
12
-3.545222369186123E7
22
1.203107268759072E7
32
-0.0138811
13
-3.545222369186123E7
23
1.203107268759072E7
33
-0.0138811
0
3DFACE
8
outermarker
62
252
10
-3.5452221813811354E7
20
1.2031004444268659E7
30
-0.0138811
11
-3.5452060434649505E7
21
1.2031006097710473E7
31
0.0
12
-3.5452077141237706E7
22
1.2031047587323347E7
32
0.0
13
-3.5452077141237706E7
23
1.2031047587323347E7
33
0.0
0
3DFACE
8
outermarker
62
252
10
-3.545220239692461E7
20
1.2031153624718362E7
30
-0.0138811
11
-3.545222369186123E7
21
1.203107268759072E7
31
-0.0138811
12
-3.545207341041698E7
22
1.2031101967562394E7
32
0.0
13
-3.545207341041698E7
23
1.2031101967562394E7
33
0.0
0
3DFACE
8
outermarker
62
252
10
-3.545220239692461E7
20
1.2031153624718362E7
30
-0.0138811
11
-3.5452049359908074E7
21
1.2031168440119391E7
31
0.0
12
-3.545215840299333E7
22
1.203124615764852E7
32
-0.0138811
13
-3.545215840299333E7
23
1.203124615764852E7
33
-0.0138811
0
3DFACE
8
outermarker
62
252
10
-3.5452049359908074E7
20
1.2031168440119391E7
30
0.0
11
-3.5452005225903064E7
21
1.2031245907223603E7
31
0.0
12
-3.545215840299333E7
22
1.203124615764852E7
32
-0.0138811
13
-3.545215840299333E7
23
1.203124615764852E7
33
-0.0138811
0
3DFACE
8
outermarker
62
252
10
-3.545215840299333E7
20
1.203124615764852E7
30
-0.0138811
11
-3.5452005225903064E7
21
1.2031245907223603E7
31
0.0
12
-3.545209206454421E7
22
1.2031348789367378E7
32
-0.0138811
13
-3.545209206454421E7
23
1.2031348789367378E7
33
-0.0138811
0
3DFACE
8
outermarker
62
252
10
-3.545209206454421E7
20
1.2031348789367378E7
30
-0.0138811
11
-3.54519418390538E7
21
1.2031333170729857E7
31
0.0
12
-3.5452004806092516E7
22
1.2031459822246207E7
32
-0.0138811
13
-3.5452004806092516E7
23
1.2031459822246207E7
33
-0.0138811
0
3DFACE
8
outermarker
62
252
10
-3.5452004806092516E7
20
1.2031459822246207E7
30
-0.0138811
11
-3.545186026757335E7
21
1.2031428832695987E7
31
0.0
12
-3.545189769523758E7
22
1.2031577459208578E7
32
-0.0138811
13
-3.545189769523758E7
23
1.2031577459208578E7
33
-0.0138811
0
3DFACE
8
outermarker
62
252
10
-3.545189769523758E7
20
1.2031577459208578E7
30
-0.0138811
11
-3.5451761579534635E7
21
1.2031531395391477E7
31
0.0
12
-3.5451772632220104E7
22
1.2031700002132459E7
32
-0.0138811
13
-3.5451772632220104E7
23
1.2031700002132459E7
33
-0.0138811
0
3DFACE
8
outermarker
62
252
10
-3.5451772632220104E7
20
1.2031700002132459E7
30
-0.0138811
11
-3.545164743751909E7
21
1.2031639260730071E7
31
0.0
12
-3.5451631397845455E7
22
1.2031825353914265E7
32
-0.0138811
13
-3.5451631397845455E7
23
1.2031825353914265E7
33
-0.0138811
0
3DFACE
8
outermarker
62
252
10
-3.5451631397845455E7
20
1.2031825353914265E7
30
-0.0138811
11
-3.545151962279221E7
21
1.2031750630964357E7
31
0.0
12
-3.545147648694934E7
22
1.203195171609123E7
32
-0.0138811
13
-3.545147648694934E7
23
1.203195171609123E7
33
-0.0138811
0
3DFACE
8
outermarker
62
252
10
-3.545131003711023E7
20
1.2032076891466849E7
30
-0.0138811
11
-3.545147648694934E7
21
1.203195171609123E7
31
-0.0138811
12
-3.5451231290309645E7
22
1.2031977093129633E7
32
0.0
13
-3.5451231290309645E7
23
1.2031977093129633E7
33
0.0
0
3DFACE
8
outermarker
62
252
10
-3.545131003711023E7
20
1.2032076891466849E7
30
-0.0138811
11
-3.5451075286763944E7
21
1.2032088588723203E7
31
0.0
12
-3.5451134900099814E7
22
1.2032199081281807E7
32
-0.0138811
13
-3.5451134900099814E7
23
1.2032199081281807E7
33
-0.0138811
0
3DFACE
8
outermarker
62
252
10
-3.5451075286763944E7
20
1.2032088588723203E7
30
0.0
11
-3.545091463921317E7
21
1.2032196596098198E7
31
0.0
12
-3.5451134900099814E7
22
1.2032199081281807E7
32
-0.0138811
13
-3.5451134900099814E7
23
1.2032199081281807E7
33
-0.0138811
0
3DFACE
8
outermarker
62
252
10
-3.5451134900099814E7
20
1.2032199081281807E7
30
-0.0138811
11
-3.545091463921317E7
21
1.2032196596098198E7
31
0.0
12
-3.5450953689648926E7
22
1.2032316287492245E7
32
-0.0138811
13
-3.5450953689648926E7
23
1.2032316287492245E7
33
-0.0138811
0
3DFACE
8
outermarker
62
252
10
-3.5450953689648926E7
20
1.2032316287492245E7
30
-0.0138811
11
-3.5450751961854525E7
21
1.2032299416593332E7
31
0.0
12
-3.5450769376633935E7
22
1.203242671130319E7
32
-0.0138811
13
-3.5450769376633935E7
23
1.203242671130319E7
33
-0.0138811
0
3DFACE
8
outermarker
62
252
10
-3.5450769376633935E7
20
1.203242671130319E7
30
-0.0138811
11
-3.5450589750025176E7
21
1.2032395351695318E7
31
0.0
12
-3.54505848129544E7
22
1.2032528454304282E7
32
-0.0138811
13
-3.54505848129544E7
23
1.2032528454304282E7
33
-0.0138811
0
3DFACE
8
outermarker
62
252
10
-3.54505848129544E7
20
1.2032528454304282E7
30
-0.0138811
11
-3.545043049952288E7
21
1.2032483002246497E7
31
0.0
12
-3.545040297018234E7
22
1.2032620116887122E7
32
-0.0138811
13
-3.545040297018234E7
23
1.2032620116887122E7
33
-0.0138811
0
3DFACE
8
outermarker
62
252
10
-3.545040297018234E7
20
1.2032620116887122E7
30
-0.0138811
11
-3.5450276824996196E7
21
1.2032560869239245E7
31
0.0
12
-3.545022658182644E7
22
1.2032700100164391E7
32
-0.0138811
13
-3.545022658182644E7
23
1.2032700100164391E7
33
-0.0138811
0
3DFACE
8
outermarker
62
252
10
-3.5450131103670955E7
20
1.2032627753240598E7
30
0.0
11
-3.544999559413073E7
21
1.2032682654501313E7
31
0.0
12
-3.545005850090357E7
22
1.2032767204273026E7
32
-0.0138811
13
-3.545005850090357E7
23
1.2032767204273026E7
33
-0.0138811
0
3DFACE
8
outermarker
62
252
10
-3.545022658182644E7
20
1.2032700100164391E7
30
-0.0138811
11
-3.5450131103670955E7
21
1.2032627753240598E7
31
0.0
12
-3.545005850090357E7
22
1.2032767204273026E7
32
-0.0138811
13
-3.545005850090357E7
23
1.2032767204273026E7
33
-0.0138811
0
3DFACE
8
outermarker
62
252
10
-3.54498725551012E7
20
1.2032724673066372E7
30
0.0
11
-3.5449763769970484E7
21
1.2032753208754024E7
31
0.0
12
-3.544990146179165E7
22
1.2032820429044846E7
32
-0.0138811
13
-3.544990146179165E7
23
1.2032820429044846E7
33
-0.0138811
0
3DFACE
8
outermarker
62
252
10
-3.5398765606787816E7
20
1.2035605001819873E7
30
0.0
11
-3.539891613614802E7
21
1.2035532096209085E7
31
0.0
12
-3.539881029921732E7
22
1.2035496756068539E7
32
0.0
13
-3.539881029921732E7
23
1.2035496756068539E7
33
0.0
0
3DFACE
8
outermarker
62
252
10
-3.539864797426554E7
20
1.2035556887993714E7
30
0.0
11
-3.539881029921732E7
21
1.2035496756068539E7
31
0.0
12
-3.539872744274271E7
22
1.2035459025592491E7
32
0.0
13
-3.539872744274271E7
23
1.2035459025592491E7
33
0.0
0
3DFACE
8
outermarker
62
252
10
-3.539855587984221E7
20
1.203550558617994E7
30
0.0
11
-3.5398668862987876E7
21
1.2035419404027639E7
31
0.0
12
-3.539863548736747E7
22
1.2035378789612083E7
32
0.0
13
-3.539863548736747E7
23
1.2035378789612083E7
33
0.0
0
3DFACE
8
outermarker
62
252
10
-3.539845369201731E7
20
1.203539671277307E7
30
0.0
11
-3.539849078618149E7
21
1.203545189501372E7
31
0.0
12
-3.539863548736747E7
22
1.2035378789612083E7
32
0.0
13
-3.539863548736747E7
23
1.2035378789612083E7
33
0.0
0
3DFACE
8
outermarker
62
252
10
-3.5398445203613706E7
20
1.2035340738063065E7
30
0.0
11
-3.539845369201731E7
21
1.203539671277307E7
31
0.0
12
-3.5398627839020304E7
22
1.2035337581598328E7
32
0.0
13
-3.5398627839020304E7
23
1.2035337581598328E7
33
0.0
0
3DFACE
8
outermarker
62
252
10
-3.5398646048489355E7
20
1.2035296478440294E7
30
0.0
11
-3.539868981813008E7
21
1.2035256178464375E7
31
0.0
12
-3.539859039352506E7
22
1.2035177437535526E7
32
0.0
13
-3.539859039352506E7
23
1.2035177437535526E7
33
0.0
0
3DFACE
8
outermarker
62
252
10
-3.539868981813008E7
20
1.2035256178464375E7
30
0.0
11
-3.539875846972235E7
21
1.2035217280107608E7
31
0.0
12
-3.539869313652611E7
22
1.2035127471124088E7
32
0.0
13
-3.539869313652611E7
23
1.2035127471124088E7
33
0.0
0
3DFACE
8
outermarker
62
252
10
-3.539885090874006E7
20
1.2035180481463548E7
30
0.0
11
-3.5398965672015876E7
21
1.2035146280979317E7
31
0.0
12
-3.5398820689230636E7
22
1.2035081001341496E7
32
0.0
13
-3.5398820689230636E7
23
1.2035081001341496E7
33
0.0
0
3DFACE
8
outermarker
62
252
10
-3.5398965672015876E7
20
1.2035146280979317E7
30
0.0
11
-3.539910096337248E7
21
1.2035115177020535E7
31
0.0
12
-3.5398971065056466E7
22
1.2035038825793719E7
32
0.0
13
-3.5398971065056466E7
23
1.2035038825793719E7
33
0.0
0
3DFACE
8
outermarker
62
252
10
-3.539925465360005E7
20
1.2035087767657448E7
30
0.0
11
-3.5399424292431384E7
21
1.2035064451360067E7
31
0.0
12
-3.539933043709836E7
22
1.2034969849025102E7
32
0.0
13
-3.539933043709836E7
23
1.2034969849025102E7
33
0.0
0
3DFACE
8
outermarker
62
252
10
-3.53996072393473E7
20
1.2035045526809245E7
30
0.0
11
-3.539980058026598E7
21
1.2035031392441548E7
31
0.0
12
-3.539974865314457E7
22
1.2034924925054641E7
32
0.0
13
-3.539974865314457E7
23
1.2034924925054641E7
33
0.0
0
3DFACE
8
outermarker
62
252
10
-3.5401464486137025E7
20
1.2035016481309915E7
30
0.0
11
-3.5401282847331084E7
21
1.2034982433660857E7
31
0.0
12
-3.540134437615667E7
22
1.2035098877991837E7
32
0.0
13
-3.540134437615667E7
23
1.2035098877991837E7
33
0.0
0
3DFACE
8
outermarker
62
252
10
-3.540162724849261E7
20
1.2035055913541984E7
30
0.0
11
-3.540149082211367E7
21
1.2035127832231905E7
31
0.0
12
-3.540161795170845E7
22
1.2035160275546515E7
32
0.0
13
-3.540161795170845E7
23
1.2035160275546515E7
33
0.0
0
3DFACE
8
outermarker
62
252
10
-3.5401768553545445E7
20
1.2035099932038551E7
30
0.0
11
-3.540161795170845E7
21
1.2035160275546515E7
31
0.0
12
-3.5401723790596575E7
22
1.203519570897347E7
32
0.0
13
-3.5401723790596575E7
23
1.203519570897347E7
33
0.0
0
3DFACE
8
outermarker
62
252
10
-3.540188618905953E7
20
1.2035148037852298E7
30
0.0
11
-3.5401806649900794E7
21
1.2035233434029952E7
31
0.0
12
-3.540186523317073E7
22
1.2035273051582783E7
32
0.0
13
-3.540186523317073E7
23
1.2035273051582783E7
33
0.0
0
3DFACE
8
outermarker
62
252
10
-3.54019782877763E7
20
1.2035199233198531E7
30
0.0
11
-3.540186523317073E7
21
1.2035273051582783E7
31
0.0
12
-3.540189861274452E7
22
1.2035313663646165E7
32
0.0
13
-3.540189861274452E7
23
1.2035313663646165E7
33
0.0
0
3DFACE
8
outermarker
62
252
10
-3.540208048684508E7
20
1.2035308198520303E7
30
0.0
11
-3.540204338672886E7
21
1.2035252919410808E7
31
0.0
12
-3.540189861274452E7
22
1.2035313663646165E7
32
0.0
13
-3.540189861274452E7
23
1.2035313663646165E7
33
0.0
0
3DFACE
8
outermarker
62
252
10
-3.540190626525844E7
20
1.2035354871115182E7
30
0.0
11
-3.5401888059902936E7
21
1.2035395975570835E7
31
0.0
12
-3.5402068751876E7
22
1.2035419943565119E7
32
0.0
13
-3.5402068751876E7
23
1.2035419943565119E7
33
0.0
0
3DFACE
8
outermarker
62
252
10
-3.5401888059902936E7
20
1.2035395975570835E7
30
0.0
11
-3.54018442940591E7
21
1.2035436278604463E7
31
0.0
12
-3.5401943808461085E7
22
1.2035527484181054E7
32
0.0
13
-3.5401943808461085E7
23
1.2035527484181054E7
33
0.0
0
3DFACE
8
outermarker
62
252
10
-3.54018442940591E7
20
1.2035436278604463E7
30
0.0
11
-3.540177564571201E7
21
1.2035475181587733E7
31
0.0
12
-3.540184106920783E7
22
1.2035577457884729E7
32
0.0
13
-3.540184106920783E7
23
1.2035577457884729E7
33
0.0
0
3DFACE
8
outermarker
62
252
10
-3.540168320917626E7
20
1.2035511986135589E7
30
0.0
11
-3.540156844747101E7
21
1.2035546193429684E7
31
0.0
12
-3.540171350698464E7
22
1.2035623936076866E7
32
0.0
13
-3.540171350698464E7
23
1.2035623936076866E7
33
0.0
0
3DFACE
8
outermarker
62
252
10
-3.540143315667738E7
20
1.2035577304677349E7
30
0.0
11
-3.540127946596154E7
21
1.203560472135046E7
31
0.0
12
-3.5401392323213525E7
22
1.2035703412995031E7
32
0.0
13
-3.5401392323213525E7
23
1.2035703412995031E7
33
0.0
0
3DFACE
8
outermarker
62
252
10
-3.540127946596154E7
20
1.203560472135046E7
30
0.0
11
-3.540110982562494E7
21
1.2035628044518525E7
31
0.0
12
-3.540120376886174E7
22
1.2035735114912696E7
32
0.0
13
-3.540120376886174E7
23
1.2035735114912696E7
33
0.0
0
3DFACE
8
outermarker
62
252
10
-3.54007335321692E7
20
1.2035661114191324E7
30
0.0
11
-3.540053282643327E7
21
1.2035670262673104E7
31
0.0
12
-3.5400562475861035E7
22
1.2035792489955103E7
32
0.0
13
-3.5400562475861035E7
23
1.2035792489955103E7
33
0.0
0
3DFACE
8
outermarker
62
252
10
-3.5399251313177004E7
20
1.2035722526888091E7
30
0.0
11
-3.539935314294985E7
21
1.203561868107455E7
31
0.0
12
-3.539918971071124E7
22
1.2035593608041193E7
32
0.0
13
-3.539918971071124E7
23
1.2035593608041193E7
33
0.0
0
3DFACE
8
outermarker
62
252
10
-3.53989069103333E7
20
1.203564902914318E7
30
0.0
11
-3.539906966084951E7
21
1.2035688470460445E7
31
0.0
12
-3.539904327660771E7
22
1.2035564646445667E7
32
0.0
13
-3.539904327660771E7
23
1.2035564646445667E7
33
0.0
0
3DFACE
8
outermarker
62
252
10
-3.539944896517902E7
20
1.2035750798587967E7
30
0.0
11
-3.539953098043281E7
21
1.2035639565584043E7
31
0.0
12
-3.539935314294985E7
22
1.203561868107455E7
32
0.0
13
-3.539935314294985E7
23
1.203561868107455E7
33
0.0
0
3DFACE
8
outermarker
62
252
10
-3.539944896517902E7
20
1.2035750798587967E7
30
0.0
11
-3.539965953629122E7
21
1.2035772785948317E7
31
0.0
12
-3.539953098043281E7
22
1.2035639565584043E7
32
0.0
13
-3.539953098043281E7
23
1.2035639565584043E7
33
0.0
0
3DFACE
8
outermarker
62
252
10
-3.5399251313177004E7
20
1.2035722526888091E7
30
0.0
11
-3.539944896517902E7
21
1.2035750798587967E7
31
0.0
12
-3.539935314294985E7
22
1.203561868107455E7
32
0.0
13
-3.539935314294985E7
23
1.203561868107455E7
33
0.0
0
3DFACE
8
outermarker
62
252
10
-3.539965953629122E7
20
1.2035772785948317E7
30
0.0
11
-3.539972043998529E7
21
1.2035655762052702E7
31
0.0
12
-3.539953098043281E7
22
1.2035639565584043E7
32
0.0
13
-3.539953098043281E7
23
1.2035639565584043E7
33
0.0
0
3DFACE
8
outermarker
62
252
10
-3.539906966084951E7
20
1.2035688470460445E7
30
0.0
11
-3.539918971071124E7
21
1.2035593608041193E7
31
0.0
12
-3.539904327660771E7
22
1.2035564646445667E7
32
0.0
13
-3.539904327660771E7
23
1.2035564646445667E7
33
0.0
0
3DFACE
8
outermarker
62
252
10
-3.539906966084951E7
20
1.2035688470460445E7
30
0.0
11
-3.5399251313177004E7
21
1.2035722526888091E7
31
0.0
12
-3.539918971071124E7
22
1.2035593608041193E7
32
0.0
13
-3.539918971071124E7
23
1.2035593608041193E7
33
0.0
0
3DFACE
8
outermarker
62
252
10
-3.5398765606787816E7
20
1.2035605001819873E7
30
0.0
11
-3.53989069103333E7
21
1.203564902914318E7
31
0.0
12
-3.539891613614802E7
22
1.2035532096209085E7
32
0.0
13
-3.539891613614802E7
23
1.2035532096209085E7
33
0.0
0
3DFACE
8
outermarker
62
252
10
-3.53989069103333E7
20
1.203564902914318E7
30
0.0
11
-3.539904327660771E7
21
1.2035564646445667E7
31
0.0
12
-3.539891613614802E7
22
1.2035532096209085E7
32
0.0
13
-3.539891613614802E7
23
1.2035532096209085E7
33
0.0
0
3DFACE
8
outermarker
62
252
10
-3.539864797426554E7
20
1.2035556887993714E7
30
0.0
11
-3.5398765606787816E7
21
1.2035605001819873E7
31
0.0
12
-3.539881029921732E7
22
1.2035496756068539E7
32
0.0
13
-3.539881029921732E7
23
1.2035496756068539E7
33
0.0
0
3DFACE
8
outermarker
62
252
10
-3.539855587984221E7
20
1.203550558617994E7
30
0.0
11
-3.539864797426554E7
21
1.2035556887993714E7
31
0.0
12
-3.5398668862987876E7
22
1.2035419404027639E7
32
0.0
13
-3.5398668862987876E7
23
1.2035419404027639E7
33
0.0
0
3DFACE
8
outermarker
62
252
10
-3.539864797426554E7
20
1.2035556887993714E7
30
0.0
11
-3.539872744274271E7
21
1.2035459025592491E7
31
0.0
12
-3.5398668862987876E7
22
1.2035419404027639E7
32
0.0
13
-3.5398668862987876E7
23
1.2035419404027639E7
33
0.0
0
3DFACE
8
outermarker
62
252
10
-3.539849078618149E7
20
1.203545189501372E7
30
0.0
11
-3.539855587984221E7
21
1.203550558617994E7
31
0.0
12
-3.539863548736747E7
22
1.2035378789612083E7
32
0.0
13
-3.539863548736747E7
23
1.2035378789612083E7
33
0.0
0
3DFACE
8
outermarker
62
252
10
-3.539845369201731E7
20
1.203539671277307E7
30
0.0
11
-3.539863548736747E7
21
1.2035378789612083E7
31
0.0
12
-3.5398627839020304E7
22
1.2035337581598328E7
32
0.0
13
-3.5398627839020304E7
23
1.2035337581598328E7
33
0.0
0
3DFACE
8
outermarker
62
252
10
-3.5398445203613706E7
20
1.2035340738063065E7
30
0.0
11
-3.5398627839020304E7
21
1.2035337581598328E7
31
0.0
12
-3.539846543948061E7
22
1.2035284968659613E7
32
0.0
13
-3.539846543948061E7
23
1.2035284968659613E7
33
0.0
0
3DFACE
8
outermarker
62
252
10
-3.5398627839020304E7
20
1.2035337581598328E7
30
0.0
11
-3.5398646048489355E7
21
1.2035296478440294E7
31
0.0
12
-3.5398514089997806E7
22
1.2035230202651998E7
32
0.0
13
-3.5398514089997806E7
23
1.2035230202651998E7
33
0.0
0
3DFACE
8
outermarker
62
252
10
-3.539846543948061E7
20
1.2035284968659613E7
30
0.0
11
-3.5398627839020304E7
21
1.2035337581598328E7
31
0.0
12
-3.5398514089997806E7
22
1.2035230202651998E7
32
0.0
13
-3.5398514089997806E7
23
1.2035230202651998E7
33
0.0
0
3DFACE
8
outermarker
62
252
10
-3.5398514089997806E7
20
1.2035230202651998E7
30
0.0
11
-3.5398646048489355E7
21
1.2035296478440294E7
31
0.0
12
-3.539859039352506E7
22
1.2035177437535526E7
32
0.0
13
-3.539859039352506E7
23
1.2035177437535526E7
33
0.0
0
3DFACE
8
outermarker
62
252
10
-3.539875846972235E7
20
1.2035217280107608E7
30
0.0
11
-3.539885090874006E7
21
1.2035180481463548E7
31
0.0
12
-3.539869313652611E7
22
1.2035127471124088E7
32
0.0
13
-3.539869313652611E7
23
1.2035127471124088E7
33
0.0
0
3DFACE
8
outermarker
62
252
10
-3.539859039352506E7
20
1.2035177437535526E7
30
0.0
11
-3.539868981813008E7
21
1.2035256178464375E7
31
0.0
12
-3.539869313652611E7
22
1.2035127471124088E7
32
0.0
13
-3.539869313652611E7
23
1.2035127471124088E7
33
0.0
0
3DFACE
8
outermarker
62
252
10
-3.539869313652611E7
20
1.2035127471124088E7
30
0.0
11
-3.539885090874006E7
21
1.2035180481463548E7
31
0.0
12
-3.5398820689230636E7
22
1.2035081001341496E7
32
0.0
13
-3.5398820689230636E7
23
1.2035081001341496E7
33
0.0
0
3DFACE
8
outermarker
62
252
10
-3.539910096337248E7
20
1.2035115177020535E7
30
0.0
11
-3.539925465360005E7
21
1.2035087767657448E7
31
0.0
12
-3.5399141873120084E7
22
1.2035001542454395E7
32
0.0
13
-3.5399141873120084E7
23
1.2035001542454395E7
33
0.0
0
3DFACE
8
outermarker
62
252
10
-3.5398820689230636E7
20
1.2035081001341496E7
30
0.0
11
-3.5398965672015876E7
21
1.2035146280979317E7
31
0.0
12
-3.5398971065056466E7
22
1.2035038825793719E7
32
0.0
13
-3.5398971065056466E7
23
1.2035038825793719E7
33
0.0
0
3DFACE
8
outermarker
62
252
10
-3.5399424292431384E7
20
1.2035064451360067E7
30
0.0
11
-3.53996072393473E7
21
1.2035045526809245E7
31
0.0
12
-3.53995337596506E7
22
1.2034944143850924E7
32
0.0
13
-3.53995337596506E7
23
1.2034944143850924E7
33
0.0
0
3DFACE
8
outermarker
62
252
10
-3.5398971065056466E7
20
1.2035038825793719E7
30
0.0
11
-3.539910096337248E7
21
1.2035115177020535E7
31
0.0
12
-3.5399141873120084E7
22
1.2035001542454395E7
32
0.0
13
-3.5399141873120084E7
23
1.2035001542454395E7
33
0.0
0
3DFACE
8
outermarker
62
252
10
-3.540000128226046E7
20
1.2035022147393465E7
30
0.0
11
-3.540020616964308E7
21
1.2035018090374038E7
31
0.0
12
-3.540019945133537E7
22
1.2034906841675512E7
32
0.0
13
-3.540019945133537E7
23
1.2034906841675512E7
33
0.0
0
3DFACE
8
outermarker
62
252
10
-3.540087463166255E7
20
1.2034932189069664E7
30
0.0
11
-3.540065448911772E7
21
1.2034916790897502E7
31
0.0
12
-3.5400813652886406E7
22
1.203503674280025E7
32
0.0
13
-3.5400813652886406E7
23
1.203503674280025E7
33
0.0
0
3DFACE
8
outermarker
62
252
10
-3.539980058026598E7
20
1.2035031392441548E7
30
0.0
11
-3.540000128226046E7
21
1.2035022147393465E7
31
0.0
12
-3.539997171596286E7
22
1.203491239145154E7
32
0.0
13
-3.539997171596286E7
23
1.203491239145154E7
33
0.0
0
3DFACE
8
outermarker
62
252
10
-3.5399141873120084E7
20
1.2035001542454395E7
30
0.0
11
-3.539925465360005E7
21
1.2035087767657448E7
31
0.0
12
-3.539933043709836E7
22
1.2034969849025102E7
32
0.0
13
-3.539933043709836E7
23
1.2034969849025102E7
33
0.0
0
3DFACE
8
outermarker
62
252
10
-3.539933043709836E7
20
1.2034969849025102E7
30
0.0
11
-3.5399424292431384E7
21
1.2035064451360067E7
31
0.0
12
-3.53995337596506E7
22
1.2034944143850924E7
32
0.0
13
-3.53995337596506E7
23
1.2034944143850924E7
33
0.0
0
3DFACE
8
outermarker
62
252
10
-3.53995337596506E7
20
1.2034944143850924E7
30
0.0
11
-3.53996072393473E7
21
1.2035045526809245E7
31
0.0
12
-3.539974865314457E7
22
1.2034924925054641E7
32
0.0
13
-3.539974865314457E7
23
1.2034924925054641E7
33
0.0
0
3DFACE
8
outermarker
62
252
10
-3.539974865314457E7
20
1.2034924925054641E7
30
0.0
11
-3.539980058026598E7
21
1.2035031392441548E7
31
0.0
12
-3.539997171596286E7
22
1.203491239145154E7
32
0.0
13
-3.539997171596286E7
23
1.203491239145154E7
33
0.0
0
3DFACE
8
outermarker
62
252
10
-3.539997171596286E7
20
1.203491239145154E7
30
0.0
11
-3.540000128226046E7
21
1.2035022147393465E7
31
0.0
12
-3.540019945133537E7
22
1.2034906841675512E7
32
0.0
13
-3.540019945133537E7
23
1.2034906841675512E7
33
0.0
0
3DFACE
8
outermarker
62
252
10
-3.540019945133537E7
20
1.2034906841675512E7
30
0.0
11
-3.540020616964308E7
21
1.2035018090374038E7
31
0.0
12
-3.5400412019230984E7
22
1.2035019220818784E7
32
0.0
13
-3.5400412019230984E7
23
1.2035019220818784E7
33
0.0
0
3DFACE
8
outermarker
62
252
10
-3.540042824361485E7
20
1.2034908374861611E7
30
0.0
11
-3.540019945133537E7
21
1.2034906841675512E7
31
0.0
12
-3.5400412019230984E7
22
1.2035019220818784E7
32
0.0
13
-3.5400412019230984E7
23
1.2035019220818784E7
33
0.0
0
3DFACE
8
outermarker
62
252
10
-3.540042824361485E7
20
1.2034908374861611E7
30
0.0
11
-3.5400412019230984E7
21
1.2035019220818784E7
31
0.0
12
-3.540061558407642E7
22
1.203502543844346E7
32
0.0
13
-3.540061558407642E7
23
1.203502543844346E7
33
0.0
0
3DFACE
8
outermarker
62
252
10
-3.540065448911772E7
20
1.2034916790897502E7
30
0.0
11
-3.540042824361485E7
21
1.2034908374861611E7
31
0.0
12
-3.540061558407642E7
22
1.203502543844346E7
32
0.0
13
-3.540061558407642E7
23
1.203502543844346E7
33
0.0
0
3DFACE
8
outermarker
62
252
10
-3.540065448911772E7
20
1.2034916790897502E7
30
0.0
11
-3.540061558407642E7
21
1.203502543844346E7
31
0.0
12
-3.5400813652886406E7
22
1.203503674280025E7
32
0.0
13
-3.5400813652886406E7
23
1.203503674280025E7
33
0.0
0
3DFACE
8
outermarker
62
252
10
-3.540108518652255E7
20
1.2034954169873206E7
30
0.0
11
-3.54010031095525E7
21
1.203505293396198E7
31
0.0
12
-3.540118094501462E7
22
1.2035073712290568E7
32
0.0
13
-3.540118094501462E7
23
1.2035073712290568E7
33
0.0
0
3DFACE
8
outermarker
62
252
10
-3.5401282847331084E7
20
1.2034982433660857E7
30
0.0
11
-3.540108518652255E7
21
1.2034954169873206E7
31
0.0
12
-3.540118094501462E7
22
1.2035073712290568E7
32
0.0
13
-3.540118094501462E7
23
1.2035073712290568E7
33
0.0
0
3DFACE
8
outermarker
62
252
10
-3.540108518652255E7
20
1.2034954169873206E7
30
0.0
11
-3.540087463166255E7
21
1.2034932189069664E7
31
0.0
12
-3.54010031095525E7
22
1.203505293396198E7
32
0.0
13
-3.54010031095525E7
23
1.203505293396198E7
33
0.0
0
3DFACE
8
outermarker
62
252
10
-3.5401282847331084E7
20
1.2034982433660857E7
30
0.0
11
-3.540118094501462E7
21
1.2035073712290568E7
31
0.0
12
-3.540134437615667E7
22
1.2035098877991837E7
32
0.0
13
-3.540134437615667E7
23
1.2035098877991837E7
33
0.0
0
3DFACE
8
outermarker
62
252
10
-3.540087463166255E7
20
1.2034932189069664E7
30
0.0
11
-3.5400813652886406E7
21
1.203503674280025E7
31
0.0
12
-3.54010031095525E7
22
1.203505293396198E7
32
0.0
13
-3.54010031095525E7
23
1.203505293396198E7
33
0.0
0
3DFACE
8
outermarker
62
252
10
-3.540162724849261E7
20
1.2035055913541984E7
30
0.0
11
-3.5401464486137025E7
21
1.2035016481309915E7
31
0.0
12
-3.540149082211367E7
22
1.2035127832231905E7
32
0.0
13
-3.540149082211367E7
23
1.2035127832231905E7
33
0.0
0
3DFACE
8
outermarker
62
252
10
-3.5401464486137025E7
20
1.2035016481309915E7
30
0.0
11
-3.540134437615667E7
21
1.2035098877991837E7
31
0.0
12
-3.540149082211367E7
22
1.2035127832231905E7
32
0.0
13
-3.540149082211367E7
23
1.2035127832231905E7
33
0.0
0
3DFACE
8
outermarker
62
252
10
-3.5401768553545445E7
20
1.2035099932038551E7
30
0.0
11
-3.540162724849261E7
21
1.2035055913541984E7
31
0.0
12
-3.540161795170845E7
22
1.2035160275546515E7
32
0.0
13
-3.540161795170845E7
23
1.2035160275546515E7
33
0.0
0
3DFACE
8
outermarker
62
252
10
-3.540188618905953E7
20
1.2035148037852298E7
30
0.0
11
-3.5401768553545445E7
21
1.2035099932038551E7
31
0.0
12
-3.5401806649900794E7
22
1.2035233434029952E7
32
0.0
13
-3.5401806649900794E7
23
1.2035233434029952E7
33
0.0
0
3DFACE
8
outermarker
62
252
10
-3.5401768553545445E7
20
1.2035099932038551E7
30
0.0
11
-3.5401723790596575E7
21
1.203519570897347E7
31
0.0
12
-3.5401806649900794E7
22
1.2035233434029952E7
32
0.0
13
-3.5401806649900794E7
23
1.2035233434029952E7
33
0.0
0
3DFACE
8
outermarker
62
252
10
-3.54019782877763E7
20
1.2035199233198531E7
30
0.0
11
-3.540188618905953E7
21
1.2035148037852298E7
31
0.0
12
-3.540186523317073E7
22
1.2035273051582783E7
32
0.0
13
-3.540186523317073E7
23
1.2035273051582783E7
33
0.0
0
3DFACE
8
outermarker
62
252
10
-3.540204338672886E7
20
1.2035252919410808E7
30
0.0
11
-3.54019782877763E7
21
1.2035199233198531E7
31
0.0
12
-3.540189861274452E7
22
1.2035313663646165E7
32
0.0
13
-3.540189861274452E7
23
1.2035313663646165E7
33
0.0
0
3DFACE
8
outermarker
62
252
10
-3.540208048684508E7
20
1.2035308198520303E7
30
0.0
11
-3.540190626525844E7
21
1.2035354871115182E7
31
0.0
12
-3.5402088981539175E7
22
1.2035364172558833E7
32
0.0
13
-3.5402088981539175E7
23
1.2035364172558833E7
33
0.0
0
3DFACE
8
outermarker
62
252
10
-3.540208048684508E7
20
1.2035308198520303E7
30
0.0
11
-3.540189861274452E7
21
1.2035313663646165E7
31
0.0
12
-3.540190626525844E7
22
1.2035354871115182E7
32
0.0
13
-3.540190626525844E7
23
1.2035354871115182E7
33
0.0
0
3DFACE
8
outermarker
62
252
10
-3.5402088981539175E7
20
1.2035364172558833E7
30
0.0
11
-3.540190626525844E7
21
1.2035354871115182E7
31
0.0
12
-3.5402068751876E7
22
1.2035419943565119E7
32
0.0
13
-3.5402068751876E7
23
1.2035419943565119E7
33
0.0
0
3DFACE
8
outermarker
62
252
10
-3.5402068751876E7
20
1.2035419943565119E7
30
0.0
11
-3.5401888059902936E7
21
1.2035395975570835E7
31
0.0
12
-3.5402020107112214E7
22
1.2035474613576312E7
32
0.0
13
-3.5402020107112214E7
23
1.2035474613576312E7
33
0.0
0
3DFACE
8
outermarker
62
252
10
-3.5402020107112214E7
20
1.2035474613576312E7
30
0.0
11
-3.5401888059902936E7
21
1.2035395975570835E7
31
0.0
12
-3.5401943808461085E7
22
1.2035527484181054E7
32
0.0
13
-3.5401943808461085E7
23
1.2035527484181054E7
33
0.0
0
3DFACE
8
outermarker
62
252
10
-3.540177564571201E7
20
1.2035475181587733E7
30
0.0
11
-3.540168320917626E7
21
1.2035511986135589E7
31
0.0
12
-3.540184106920783E7
22
1.2035577457884729E7
32
0.0
13
-3.540184106920783E7
23
1.2035577457884729E7
33
0.0
0
3DFACE
8
outermarker
62
252
10
-3.5401943808461085E7
20
1.2035527484181054E7
30
0.0
11
-3.54018442940591E7
21
1.2035436278604463E7
31
0.0
12
-3.540184106920783E7
22
1.2035577457884729E7
32
0.0
13
-3.540184106920783E7
23
1.2035577457884729E7
33
0.0
0
3DFACE
8
outermarker
62
252
10
-3.540156844747101E7
20
1.2035546193429684E7
30
0.0
11
-3.540143315667738E7
21
1.2035577304677349E7
31
0.0
12
-3.5401563143900335E7
22
1.2035666120629227E7
32
0.0
13
-3.5401563143900335E7
23
1.2035666120629227E7
33
0.0
0
3DFACE
8
outermarker
62
252
10
-3.540184106920783E7
20
1.2035577457884729E7
30
0.0
11
-3.540168320917626E7
21
1.2035511986135589E7
31
0.0
12
-3.540171350698464E7
22
1.2035623936076866E7
32
0.0
13
-3.540171350698464E7
23
1.2035623936076866E7
33
0.0
0
3DFACE
8
outermarker
62
252
10
-3.540171350698464E7
20
1.2035623936076866E7
30
0.0
11
-3.540156844747101E7
21
1.2035546193429684E7
31
0.0
12
-3.5401563143900335E7
22
1.2035666120629227E7
32
0.0
13
-3.5401563143900335E7
23
1.2035666120629227E7
33
0.0
0
3DFACE
8
outermarker
62
252
10
-3.540092687628415E7
20
1.2035646975070354E7
30
0.0
11
-3.54007335321692E7
21
1.2035661114191324E7
31
0.0
12
-3.540078554433676E7
22
1.2035780052164825E7
32
0.0
13
-3.540078554433676E7
23
1.2035780052164825E7
33
0.0
0
3DFACE
8
outermarker
62
252
10
-3.540110982562494E7
20
1.2035628044518525E7
30
0.0
11
-3.540092687628415E7
21
1.2035646975070354E7
31
0.0
12
-3.5401000442652434E7
22
1.203576082749798E7
32
0.0
13
-3.5401000442652434E7
23
1.203576082749798E7
33
0.0
0
3DFACE
8
outermarker
62
252
10
-3.5401563143900335E7
20
1.2035666120629227E7
30
0.0
11
-3.540143315667738E7
21
1.2035577304677349E7
31
0.0
12
-3.5401392323213525E7
22
1.2035703412995031E7
32
0.0
13
-3.5401392323213525E7
23
1.2035703412995031E7
33
0.0
0
3DFACE
8
outermarker
62
252
10
-3.539965953629122E7
20
1.2035772785948317E7
30
0.0
11
-3.5399879684213325E7
21
1.2035788089130444E7
31
0.0
12
-3.539972043998529E7
22
1.2035655762052702E7
32
0.0
13
-3.539972043998529E7
23
1.2035655762052702E7
33
0.0
0
3DFACE
8
outermarker
62
252
10
-3.540053282643327E7
20
1.2035670262673104E7
30
0.0
11
-3.5400327934931554E7
21
1.2035674420925865E7
31
0.0
12
-3.540033473430592E7
22
1.2035798041533545E7
32
0.0
13
-3.540033473430592E7
23
1.2035798041533545E7
33
0.0
0
3DFACE
8
outermarker
62
252
10
-3.540033473430592E7
20
1.2035798041533545E7
30
0.0
11
-3.5400327934931554E7
21
1.2035674420925865E7
31
0.0
12
-3.540012208117231E7
22
1.2035673290101606E7
32
0.0
13
-3.540012208117231E7
23
1.2035673290101606E7
33
0.0
0
3DFACE
8
outermarker
62
252
10
-3.5400562475861035E7
20
1.2035792489955103E7
30
0.0
11
-3.540053282643327E7
21
1.2035670262673104E7
31
0.0
12
-3.540033473430592E7
22
1.2035798041533545E7
32
0.0
13
-3.540033473430592E7
23
1.2035798041533545E7
33
0.0
0
3DFACE
8
outermarker
62
252
10
-3.540078554433676E7
20
1.2035780052164825E7
30
0.0
11
-3.54007335321692E7
21
1.2035661114191324E7
31
0.0
12
-3.5400562475861035E7
22
1.2035792489955103E7
32
0.0
13
-3.5400562475861035E7
23
1.2035792489955103E7
33
0.0
0
3DFACE
8
outermarker
62
252
10
-3.5401000442652434E7
20
1.203576082749798E7
30
0.0
11
-3.540092687628415E7
21
1.2035646975070354E7
31
0.0
12
-3.540078554433676E7
22
1.2035780052164825E7
32
0.0
13
-3.540078554433676E7
23
1.2035780052164825E7
33
0.0
0
3DFACE
8
outermarker
62
252
10
-3.5401392323213525E7
20
1.2035703412995031E7
30
0.0
11
-3.540127946596154E7
21
1.203560472135046E7
31
0.0
12
-3.540120376886174E7
22
1.2035735114912696E7
32
0.0
13
-3.540120376886174E7
23
1.2035735114912696E7
33
0.0
0
3DFACE
8
outermarker
62
252
10
-3.540120376886174E7
20
1.2035735114912696E7
30
0.0
11
-3.540110982562494E7
21
1.2035628044518525E7
31
0.0
12
-3.5401000442652434E7
22
1.203576082749798E7
32
0.0
13
-3.5401000442652434E7
23
1.203576082749798E7
33
0.0
0
3DFACE
8
outermarker
62
252
10
-3.540010593570769E7
20
1.2035796607651606E7
30
0.0
11
-3.540033473430592E7
21
1.2035798041533545E7
31
0.0
12
-3.540012208117231E7
22
1.2035673290101606E7
32
0.0
13
-3.540012208117231E7
23
1.2035673290101606E7
33
0.0
0
3DFACE
8
outermarker
62
252
10
-3.540010593570769E7
20
1.2035796607651606E7
30
0.0
11
-3.540012208117231E7
21
1.2035673290101606E7
31
0.0
12
-3.539991851234221E7
22
1.2035667070281977E7
32
0.0
13
-3.539991851234221E7
23
1.2035667070281977E7
33
0.0
0
3DFACE
8
outermarker
62
252
10
-3.5399879684213325E7
20
1.2035788089130444E7
30
0.0
11
-3.540010593570769E7
21
1.2035796607651606E7
31
0.0
12
-3.539991851234221E7
22
1.2035667070281977E7
32
0.0
13
-3.539991851234221E7
23
1.2035667070281977E7
33
0.0
0
3DFACE
8
outermarker
62
252
10
-3.5399879684213325E7
20
1.2035788089130444E7
30
0.0
11
-3.539991851234221E7
21
1.2035667070281977E7
31
0.0
12
-3.539972043998529E7
22
1.2035655762052702E7
32
0.0
13
-3.539972043998529E7
23
1.2035655762052702E7
33
0.0
0
3DFACE
8
outermarker
62
252
10
-3.540514155719988E7
20
1.2040584794227716E7
30
0.0
11
-3.540526686346846E7
21
1.2040517453741368E7
31
0.0
12
-3.540516100325249E7
22
1.2040482028535869E7
32
0.0
13
-3.540516100325249E7
23
1.2040482028535869E7
33
0.0
0
3DFACE
8
outermarker
62
252
10
-3.540502389702591E7
20
1.2040536796595309E7
30
0.0
11
-3.540516100325249E7
21
1.2040482028535869E7
31
0.0
12
-3.5405078126564145E7
22
1.2040444309583286E7
32
0.0
13
-3.5405078126564145E7
23
1.2040444309583286E7
33
0.0
0
3DFACE
8
outermarker
62
252
10
-3.540486665207232E7
20
1.204043182559098E7
30
0.0
11
-3.540493177826892E7
21
1.2040485507648483E7
31
0.0
12
-3.540501952997287E7
22
1.2040404696176656E7
32
0.0
13
-3.540501952997287E7
23
1.2040404696176656E7
33
0.0
0
3DFACE
8
outermarker
62
252
10
-3.540482955319824E7
20
1.2040376548789704E7
30
0.0
11
-3.540486665207232E7
21
1.204043182559098E7
31
0.0
12
-3.540498614121325E7
22
1.2040364086424751E7
32
0.0
13
-3.540498614121325E7
23
1.2040364086424751E7
33
0.0
0
3DFACE
8
outermarker
62
252
10
-3.540497849547941E7
20
1.2040322879507944E7
30
0.0
11
-3.5404996699679844E7
21
1.2040281773860091E7
31
0.0
12
-3.540484128041788E7
22
1.2040264803136814E7
32
0.0
13
-3.540484128041788E7
23
1.2040264803136814E7
33
0.0
0
3DFACE
8
outermarker
62
252
10
-3.5404996699679844E7
20
1.2040281773860091E7
30
0.0
11
-3.540504046815725E7
21
1.204024146784898E7
31
0.0
12
-3.540496623250639E7
22
1.204015735448147E7
32
0.0
13
-3.540496623250639E7
23
1.204015735448147E7
33
0.0
0
3DFACE
8
outermarker
62
252
10
-3.540504046815725E7
20
1.204024146784898E7
30
0.0
11
-3.5405109110808395E7
21
1.2040202560004508E7
31
0.0
12
-3.540496623250639E7
22
1.204015735448147E7
32
0.0
13
-3.540496623250639E7
23
1.204015735448147E7
33
0.0
0
3DFACE
8
outermarker
62
252
10
-3.5405201556867115E7
20
1.2040165748572733E7
30
0.0
11
-3.540531634303792E7
21
1.2040131532203149E7
31
0.0
12
-3.5405196544712305E7
22
1.2040060786532743E7
32
0.0
13
-3.5405196544712305E7
23
1.2040060786532743E7
33
0.0
0
3DFACE
8
outermarker
62
252
10
-3.540531634303792E7
20
1.2040131532203149E7
30
0.0
11
-3.5405451649172045E7
21
1.2040100409508722E7
31
0.0
12
-3.540534693541051E7
22
1.2040018590084242E7
32
0.0
13
-3.540534693541051E7
23
1.2040018590084242E7
33
0.0
0
3DFACE
8
outermarker
62
252
10
-3.54056053458483E7
20
1.20400729788545E7
30
0.0
11
-3.54057750181869E7
21
1.204004963905146E7
31
0.0
12
-3.540570634927204E7
22
1.2039949563338475E7
32
0.0
13
-3.540570634927204E7
23
1.2039949563338475E7
33
0.0
0
3DFACE
8
outermarker
62
252
10
-3.540595797773591E7
20
1.2040030689144278E7
30
0.0
11
-3.540615134572936E7
21
1.2040016527974699E7
31
0.0
12
-3.540612462095804E7
22
1.2039904581175668E7
32
0.0
13
-3.540612462095804E7
23
1.2039904581175668E7
33
0.0
0
3DFACE
8
outermarker
62
252
10
-3.540765906535742E7
20
1.2039961876098132E7
30
0.0
11
-3.540753194000154E7
21
1.2040058656333506E7
31
0.0
12
-3.540769539894119E7
22
1.2040083799343502E7
32
0.0
13
-3.540769539894119E7
23
1.2040083799343502E7
33
0.0
0
3DFACE
8
outermarker
62
252
10
-3.540800353186803E7
20
1.2040035307953201E7
30
0.0
11
-3.540784074139037E7
21
1.203999589842241E7
31
0.0
12
-3.5407841866297685E7
22
1.204011273324459E7
32
0.0
13
-3.5407841866297685E7
23
1.204011273324459E7
33
0.0
0
3DFACE
8
outermarker
62
252
10
-3.540814486977829E7
20
1.2040079406505689E7
30
0.0
11
-3.540800353186803E7
21
1.2040035307953201E7
31
0.0
12
-3.5408074891225055E7
22
1.204018057761033E7
32
0.0
13
-3.5408074891225055E7
23
1.204018057761033E7
33
0.0
0
3DFACE
8
outermarker
62
252
10
-3.540826252578683E7
20
1.2040127396120682E7
30
0.0
11
-3.540814486977829E7
21
1.2040079406505689E7
31
0.0
12
-3.5408157774305336E7
22
1.2040218291139377E7
32
0.0
13
-3.5408157774305336E7
23
1.2040218291139377E7
33
0.0
0
3DFACE
8
outermarker
62
252
10
-3.5408354646432474E7
20
1.2040178678368572E7
30
0.0
11
-3.540821637321779E7
21
1.2040257900530418E7
31
0.0
12
-3.540824976473922E7
22
1.2040298507927176E7
32
0.0
13
-3.540824976473922E7
23
1.2040298507927176E7
33
0.0
0
3DFACE
8
outermarker
62
252
10
-3.540845688990565E7
20
1.2040287629359605E7
30
0.0
11
-3.5408419776726075E7
21
1.204023235546647E7
31
0.0
12
-3.540824976473922E7
22
1.2040298507927176E7
32
0.0
13
-3.540824976473922E7
23
1.2040298507927176E7
33
0.0
0
3DFACE
8
outermarker
62
252
10
-3.540825742058836E7
20
1.2040339714297792E7
30
0.0
11
-3.5408239222883694E7
21
1.2040380821241923E7
31
0.0
12
-3.54083965289545E7
22
1.2040454052675275E7
32
0.0
13
-3.54083965289545E7
23
1.2040454052675275E7
33
0.0
0
3DFACE
8
outermarker
62
252
10
-3.5408239222883694E7
20
1.2040380821241923E7
30
0.0
11
-3.540819545582927E7
21
1.2040421130310455E7
31
0.0
12
-3.540832023373187E7
22
1.2040506834084945E7
32
0.0
13
-3.540832023373187E7
23
1.2040506834084945E7
33
0.0
0
3DFACE
8
outermarker
62
252
10
-3.540819545582927E7
20
1.2040421130310455E7
30
0.0
11
-3.540812680929303E7
21
1.2040460042781405E7
31
0.0
12
-3.540821749088326E7
22
1.2040556921825621E7
32
0.0
13
-3.540821749088326E7
23
1.2040556921825621E7
33
0.0
0
3DFACE
8
outermarker
62
252
10
-3.5408034368104234E7
20
1.204049686011863E7
30
0.0
11
-3.5407919589461595E7
21
1.2040531083301269E7
31
0.0
12
-3.540808992054474E7
22
1.2040603417741366E7
32
0.0
13
-3.540808992054474E7
23
1.2040603417741366E7
33
0.0
0
3DFACE
8
outermarker
62
252
10
-3.5407919589461595E7
20
1.2040531083301269E7
30
0.0
11
-3.5407784282710865E7
21
1.2040562213287782E7
31
0.0
12
-3.540793953308517E7
22
1.2040645623196593E7
32
0.0
13
-3.540793953308517E7
23
1.2040645623196593E7
33
0.0
0
3DFACE
8
outermarker
62
252
10
-3.540763058096438E7
20
1.2040589651255196E7
30
0.0
11
-3.540746090934183E7
21
1.2040612997933391E7
31
0.0
12
-3.540758012124543E7
22
1.2040714567693077E7
32
0.0
13
-3.540758012124543E7
23
1.2040714567693077E7
33
0.0
0
3DFACE
8
outermarker
62
252
10
-3.540727794380671E7
20
1.2040631953845173E7
30
0.0
11
-3.54070845702432E7
21
1.2040646119771801E7
31
0.0
12
-3.5407161838479094E7
22
1.204075956314761E7
32
0.0
13
-3.5407161838479094E7
23
1.204075956314761E7
33
0.0
0
3DFACE
8
outermarker
62
252
10
-3.540562734980936E7
20
1.2040702351337433E7
30
0.0
11
-3.540570395477968E7
21
1.2040603977923853E7
31
0.0
12
-3.5405540492379926E7
22
1.2040578827805212E7
32
0.0
13
-3.5405540492379926E7
23
1.2040578827805212E7
33
0.0
0
3DFACE
8
outermarker
62
252
10
-3.54052828912264E7
20
1.2040628901611704E7
30
0.0
11
-3.540544567464095E7
21
1.2040668220459929E7
31
0.0
12
-3.540539402996916E7
22
1.204054988654353E7
32
0.0
13
-3.540539402996916E7
23
1.204054988654353E7
33
0.0
0
3DFACE
8
outermarker
62
252
10
-3.540582504978229E7
20
1.2040730495717838E7
30
0.0
11
-3.54058818357321E7
21
1.204062473797738E7
31
0.0
12
-3.540570395477968E7
22
1.2040603977923853E7
32
0.0
13
-3.540570395477968E7
23
1.2040603977923853E7
33
0.0
0
3DFACE
8
outermarker
62
252
10
-3.540582504978229E7
20
1.2040730495717838E7
30
0.0
11
-3.540603565771441E7
21
1.2040752453737749E7
31
0.0
12
-3.54058818357321E7
22
1.204062473797738E7
32
0.0
13
-3.54058818357321E7
23
1.204062473797738E7
33
0.0
0
3DFACE
8
outermarker
62
252
10
-3.540562734980936E7
20
1.2040702351337433E7
30
0.0
11
-3.540582504978229E7
21
1.2040730495717838E7
31
0.0
12
-3.540570395477968E7
22
1.2040603977923853E7
32
0.0
13
-3.540570395477968E7
23
1.2040603977923853E7
33
0.0
0
3DFACE
8
outermarker
62
252
10
-3.540603565771441E7
20
1.2040752453737749E7
30
0.0
11
-3.540607131582804E7
21
1.204064090815447E7
31
0.0
12
-3.54058818357321E7
22
1.204062473797738E7
32
0.0
13
-3.54058818357321E7
23
1.204062473797738E7
33
0.0
0
3DFACE
8
outermarker
62
252
10
-3.540544567464095E7
20
1.2040668220459929E7
30
0.0
11
-3.5405540492379926E7
21
1.2040578827805212E7
31
0.0
12
-3.540539402996916E7
22
1.204054988654353E7
32
0.0
13
-3.540539402996916E7
23
1.204054988654353E7
33
0.0
0
3DFACE
8
outermarker
62
252
10
-3.540544567464095E7
20
1.2040668220459929E7
30
0.0
11
-3.540562734980936E7
21
1.2040702351337433E7
31
0.0
12
-3.5405540492379926E7
22
1.2040578827805212E7
32
0.0
13
-3.5405540492379926E7
23
1.2040578827805212E7
33
0.0
0
3DFACE
8
outermarker
62
252
10
-3.540514155719988E7
20
1.2040584794227716E7
30
0.0
11
-3.54052828912264E7
21
1.2040628901611704E7
31
0.0
12
-3.540526686346846E7
22
1.2040517453741368E7
32
0.0
13
-3.540526686346846E7
23
1.2040517453741368E7
33
0.0
0
3DFACE
8
outermarker
62
252
10
-3.54052828912264E7
20
1.2040628901611704E7
30
0.0
11
-3.540539402996916E7
21
1.204054988654353E7
31
0.0
12
-3.540526686346846E7
22
1.2040517453741368E7
32
0.0
13
-3.540526686346846E7
23
1.2040517453741368E7
33
0.0
0
3DFACE
8
outermarker
62
252
10
-3.540502389702591E7
20
1.2040536796595309E7
30
0.0
11
-3.540514155719988E7
21
1.2040584794227716E7
31
0.0
12
-3.540516100325249E7
22
1.2040482028535869E7
32
0.0
13
-3.540516100325249E7
23
1.2040482028535869E7
33
0.0
0
3DFACE
8
outermarker
62
252
10
-3.540493177826892E7
20
1.2040485507648483E7
30
0.0
11
-3.5405078126564145E7
21
1.2040444309583286E7
31
0.0
12
-3.540501952997287E7
22
1.2040404696176656E7
32
0.0
13
-3.540501952997287E7
23
1.2040404696176656E7
33
0.0
0
3DFACE
8
outermarker
62
252
10
-3.540493177826892E7
20
1.2040485507648483E7
30
0.0
11
-3.540502389702591E7
21
1.2040536796595309E7
31
0.0
12
-3.5405078126564145E7
22
1.2040444309583286E7
32
0.0
13
-3.5405078126564145E7
23
1.2040444309583286E7
33
0.0
0
3DFACE
8
outermarker
62
252
10
-3.540486665207232E7
20
1.204043182559098E7
30
0.0
11
-3.540501952997287E7
21
1.2040404696176656E7
31
0.0
12
-3.540498614121325E7
22
1.2040364086424751E7
32
0.0
13
-3.540498614121325E7
23
1.2040364086424751E7
33
0.0
0
3DFACE
8
outermarker
62
252
10
-3.540482955319824E7
20
1.2040376548789704E7
30
0.0
11
-3.540497849547941E7
21
1.2040322879507944E7
31
0.0
12
-3.540482104054088E7
22
1.2040320575308993E7
32
0.0
13
-3.540482104054088E7
23
1.2040320575308993E7
33
0.0
0
3DFACE
8
outermarker
62
252
10
-3.540482955319824E7
20
1.2040376548789704E7
30
0.0
11
-3.540498614121325E7
21
1.2040364086424751E7
31
0.0
12
-3.540497849547941E7
22
1.2040322879507944E7
32
0.0
13
-3.540497849547941E7
23
1.2040322879507944E7
33
0.0
0
3DFACE
8
outermarker
62
252
10
-3.540482104054088E7
20
1.2040320575308993E7
30
0.0
11
-3.540497849547941E7
21
1.2040322879507944E7
31
0.0
12
-3.540484128041788E7
22
1.2040264803136814E7
32
0.0
13
-3.540484128041788E7
23
1.2040264803136814E7
33
0.0
0
3DFACE
8
outermarker
62
252
10
-3.540484128041788E7
20
1.2040264803136814E7
30
0.0
11
-3.5404996699679844E7
21
1.2040281773860091E7
31
0.0
12
-3.5404889927622326E7
22
1.2040210130176257E7
32
0.0
13
-3.5404889927622326E7
23
1.2040210130176257E7
33
0.0
0
3DFACE
8
outermarker
62
252
10
-3.5404889927622326E7
20
1.2040210130176257E7
30
0.0
11
-3.5404996699679844E7
21
1.2040281773860091E7
31
0.0
12
-3.540496623250639E7
22
1.204015735448147E7
32
0.0
13
-3.540496623250639E7
23
1.204015735448147E7
33
0.0
0
3DFACE
8
outermarker
62
252
10
-3.5405109110808395E7
20
1.2040202560004508E7
30
0.0
11
-3.5405201556867115E7
21
1.2040165748572733E7
31
0.0
12
-3.540506896960729E7
22
1.2040107274033904E7
32
0.0
13
-3.540506896960729E7
23
1.2040107274033904E7
33
0.0
0
3DFACE
8
outermarker
62
252
10
-3.540496623250639E7
20
1.204015735448147E7
30
0.0
11
-3.5405109110808395E7
21
1.2040202560004508E7
31
0.0
12
-3.540506896960729E7
22
1.2040107274033904E7
32
0.0
13
-3.540506896960729E7
23
1.2040107274033904E7
33
0.0
0
3DFACE
8
outermarker
62
252
10
-3.540506896960729E7
20
1.2040107274033904E7
30
0.0
11
-3.5405201556867115E7
21
1.2040165748572733E7
31
0.0
12
-3.5405196544712305E7
22
1.2040060786532743E7
32
0.0
13
-3.5405196544712305E7
23
1.2040060786532743E7
33
0.0
0
3DFACE
8
outermarker
62
252
10
-3.5405451649172045E7
20
1.2040100409508722E7
30
0.0
11
-3.54056053458483E7
21
1.20400729788545E7
31
0.0
12
-3.540551776246325E7
22
1.2039981282994986E7
32
0.0
13
-3.540551776246325E7
23
1.2039981282994986E7
33
0.0
0
3DFACE
8
outermarker
62
252
10
-3.5405196544712305E7
20
1.2040060786532743E7
30
0.0
11
-3.540531634303792E7
21
1.2040131532203149E7
31
0.0
12
-3.540534693541051E7
22
1.2040018590084242E7
32
0.0
13
-3.540534693541051E7
23
1.2040018590084242E7
33
0.0
0
3DFACE
8
outermarker
62
252
10
-3.54057750181869E7
20
1.204004963905146E7
30
0.0
11
-3.540595797773591E7
21
1.2040030689144278E7
31
0.0
12
-3.540590969810691E7
22
1.2039923929650228E7
32
0.0
13
-3.540590969810691E7
23
1.2039923929650228E7
33
0.0
0
3DFACE
8
outermarker
62
252
10
-3.540534693541051E7
20
1.2040018590084242E7
30
0.0
11
-3.5405451649172045E7
21
1.2040100409508722E7
31
0.0
12
-3.540551776246325E7
22
1.2039981282994986E7
32
0.0
13
-3.540551776246325E7
23
1.2039981282994986E7
33
0.0
0
3DFACE
8
outermarker
62
252
10
-3.540635207689153E7
20
1.2040007354872735E7
30
0.0
11
-3.540655700225243E7
21
1.2040003169667052E7
31
0.0
12
-3.5406347715702504E7
22
1.203989211629764E7
32
0.0
13
-3.5406347715702504E7
23
1.203989211629764E7
33
0.0
0
3DFACE
8
outermarker
62
252
10
-3.5407250772183105E7
20
1.203991168839693E7
30
0.0
11
-3.540703059383793E7
21
1.2039896420666773E7
31
0.0
12
-3.5407164586520456E7
22
1.204002173782049E7
32
0.0
13
-3.5407164586520456E7
23
1.204002173782049E7
33
0.0
0
3DFACE
8
outermarker
62
252
10
-3.540615134572936E7
20
1.2040016527974699E7
30
0.0
11
-3.540635207689153E7
21
1.2040007354872735E7
31
0.0
12
-3.5406347715702504E7
22
1.203989211629764E7
32
0.0
13
-3.5406347715702504E7
23
1.203989211629764E7
33
0.0
0
3DFACE
8
outermarker
62
252
10
-3.540551776246325E7
20
1.2039981282994986E7
30
0.0
11
-3.54056053458483E7
21
1.20400729788545E7
31
0.0
12
-3.540570634927204E7
22
1.2039949563338475E7
32
0.0
13
-3.540570634927204E7
23
1.2039949563338475E7
33
0.0
0
3DFACE
8
outermarker
62
252
10
-3.540570634927204E7
20
1.2039949563338475E7
30
0.0
11
-3.54057750181869E7
21
1.204004963905146E7
31
0.0
12
-3.540590969810691E7
22
1.2039923929650228E7
32
0.0
13
-3.540590969810691E7
23
1.2039923929650228E7
33
0.0
0
3DFACE
8
outermarker
62
252
10
-3.540590969810691E7
20
1.2039923929650228E7
30
0.0
11
-3.540595797773591E7
21
1.2040030689144278E7
31
0.0
12
-3.540612462095804E7
22
1.2039904581175668E7
32
0.0
13
-3.540612462095804E7
23
1.2039904581175668E7
33
0.0
0
3DFACE
8
outermarker
62
252
10
-3.540612462095804E7
20
1.2039904581175668E7
30
0.0
11
-3.540615134572936E7
21
1.2040016527974699E7
31
0.0
12
-3.5406347715702504E7
22
1.203989211629764E7
32
0.0
13
-3.5406347715702504E7
23
1.203989211629764E7
33
0.0
0
3DFACE
8
outermarker
62
252
10
-3.5406575477966234E7
20
1.2039886534815773E7
30
0.0
11
-3.5406347715702504E7
21
1.203989211629764E7
31
0.0
12
-3.540655700225243E7
22
1.2040003169667052E7
32
0.0
13
-3.540655700225243E7
23
1.2040003169667052E7
33
0.0
0
3DFACE
8
outermarker
62
252
10
-3.5406575477966234E7
20
1.2039886534815773E7
30
0.0
11
-3.540655700225243E7
21
1.2040003169667052E7
31
0.0
12
-3.5406762886223696E7
22
1.2040004271560496E7
32
0.0
13
-3.5406762886223696E7
23
1.2040004271560496E7
33
0.0
0
3DFACE
8
outermarker
62
252
10
-3.540680430583675E7
20
1.2039887936368773E7
30
0.0
11
-3.5406575477966234E7
21
1.2039886534815773E7
31
0.0
12
-3.5406762886223696E7
22
1.2040004271560496E7
32
0.0
13
-3.5406762886223696E7
23
1.2040004271560496E7
33
0.0
0
3DFACE
8
outermarker
62
252
10
-3.540680430583675E7
20
1.2039887936368773E7
30
0.0
11
-3.5406762886223696E7
21
1.2040004271560496E7
31
0.0
12
-3.54069664849093E7
22
1.2040010460945776E7
32
0.0
13
-3.54069664849093E7
23
1.2040010460945776E7
33
0.0
0
3DFACE
8
outermarker
62
252
10
-3.540703059383793E7
20
1.2039896420666773E7
30
0.0
11
-3.540680430583675E7
21
1.2039887936368773E7
31
0.0
12
-3.54069664849093E7
22
1.2040010460945776E7
32
0.0
13
-3.54069664849093E7
23
1.2040010460945776E7
33
0.0
0
3DFACE
8
outermarker
62
252
10
-3.540703059383793E7
20
1.2039896420666773E7
30
0.0
11
-3.54069664849093E7
21
1.2040010460945776E7
31
0.0
12
-3.5407164586520456E7
22
1.204002173782049E7
32
0.0
13
-3.5407164586520456E7
23
1.204002173782049E7
33
0.0
0
3DFACE
8
outermarker
62
252
10
-3.540746136979879E7
20
1.2039933639860783E7
30
0.0
11
-3.540735406729091E7
21
1.2040037902689818E7
31
0.0
12
-3.540753194000154E7
22
1.2040058656333506E7
32
0.0
13
-3.540753194000154E7
23
1.2040058656333506E7
33
0.0
0
3DFACE
8
outermarker
62
252
10
-3.540746136979879E7
20
1.2039933639860783E7
30
0.0
11
-3.5407250772183105E7
21
1.203991168839693E7
31
0.0
12
-3.540735406729091E7
22
1.2040037902689818E7
32
0.0
13
-3.540735406729091E7
23
1.2040037902689818E7
33
0.0
0
3DFACE
8
outermarker
62
252
10
-3.540765906535742E7
20
1.2039961876098132E7
30
0.0
11
-3.540746136979879E7
21
1.2039933639860783E7
31
0.0
12
-3.540753194000154E7
22
1.2040058656333506E7
32
0.0
13
-3.540753194000154E7
23
1.2040058656333506E7
33
0.0
0
3DFACE
8
outermarker
62
252
10
-3.5407250772183105E7
20
1.203991168839693E7
30
0.0
11
-3.5407164586520456E7
21
1.204002173782049E7
31
0.0
12
-3.540735406729091E7
22
1.2040037902689818E7
32
0.0
13
-3.540735406729091E7
23
1.2040037902689818E7
33
0.0
0
3DFACE
8
outermarker
62
252
10
-3.540784074139037E7
20
1.203999589842241E7
30
0.0
11
-3.540769539894119E7
21
1.2040083799343502E7
31
0.0
12
-3.5407841866297685E7
22
1.204011273324459E7
32
0.0
13
-3.5407841866297685E7
23
1.204011273324459E7
33
0.0
0
3DFACE
8
outermarker
62
252
10
-3.540784074139037E7
20
1.203999589842241E7
30
0.0
11
-3.540765906535742E7
21
1.2039961876098132E7
31
0.0
12
-3.540769539894119E7
22
1.2040083799343502E7
32
0.0
13
-3.540769539894119E7
23
1.2040083799343502E7
33
0.0
0
3DFACE
8
outermarker
62
252
10
-3.540800353186803E7
20
1.2040035307953201E7
30
0.0
11
-3.540796903260271E7
21
1.2040145258669617E7
31
0.0
12
-3.5408074891225055E7
22
1.204018057761033E7
32
0.0
13
-3.5408074891225055E7
23
1.204018057761033E7
33
0.0
0
3DFACE
8
outermarker
62
252
10
-3.540800353186803E7
20
1.2040035307953201E7
30
0.0
11
-3.5407841866297685E7
21
1.204011273324459E7
31
0.0
12
-3.540796903260271E7
22
1.2040145258669617E7
32
0.0
13
-3.540796903260271E7
23
1.2040145258669617E7
33
0.0
0
3DFACE
8
outermarker
62
252
10
-3.540814486977829E7
20
1.2040079406505689E7
30
0.0
11
-3.5408074891225055E7
21
1.204018057761033E7
31
0.0
12
-3.5408157774305336E7
22
1.2040218291139377E7
32
0.0
13
-3.5408157774305336E7
23
1.2040218291139377E7
33
0.0
0
3DFACE
8
outermarker
62
252
10
-3.5408354646432474E7
20
1.2040178678368572E7
30
0.0
11
-3.540826252578683E7
21
1.2040127396120682E7
31
0.0
12
-3.540821637321779E7
22
1.2040257900530418E7
32
0.0
13
-3.540821637321779E7
23
1.2040257900530418E7
33
0.0
0
3DFACE
8
outermarker
62
252
10
-3.540826252578683E7
20
1.2040127396120682E7
30
0.0
11
-3.5408157774305336E7
21
1.2040218291139377E7
31
0.0
12
-3.540821637321779E7
22
1.2040257900530418E7
32
0.0
13
-3.540821637321779E7
23
1.2040257900530418E7
33
0.0
0
3DFACE
8
outermarker
62
252
10
-3.5408419776726075E7
20
1.204023235546647E7
30
0.0
11
-3.5408354646432474E7
21
1.2040178678368572E7
31
0.0
12
-3.540824976473922E7
22
1.2040298507927176E7
32
0.0
13
-3.540824976473922E7
23
1.2040298507927176E7
33
0.0
0
3DFACE
8
outermarker
62
252
10
-3.540845688990565E7
20
1.2040287629359605E7
30
0.0
11
-3.540825742058836E7
21
1.2040339714297792E7
31
0.0
12
-3.5408465400524795E7
22
1.2040343502391234E7
32
0.0
13
-3.5408465400524795E7
23
1.2040343502391234E7
33
0.0
0
3DFACE
8
outermarker
62
252
10
-3.540845688990565E7
20
1.2040287629359605E7
30
0.0
11
-3.540824976473922E7
21
1.2040298507927176E7
31
0.0
12
-3.540825742058836E7
22
1.2040339714297792E7
32
0.0
13
-3.540825742058836E7
23
1.2040339714297792E7
33
0.0
0
3DFACE
8
outermarker
62
252
10
-3.5408465400524795E7
20
1.2040343502391234E7
30
0.0
11
-3.540825742058836E7
21
1.2040339714297792E7
31
0.0
12
-3.540844517399321E7
22
1.2040399276164882E7
32
0.0
13
-3.540844517399321E7
23
1.2040399276164882E7
33
0.0
0
3DFACE
8
outermarker
62
252
10
-3.540844517399321E7
20
1.2040399276164882E7
30
0.0
11
-3.540825742058836E7
21
1.2040339714297792E7
31
0.0
12
-3.54083965289545E7
22
1.2040454052675275E7
32
0.0
13
-3.54083965289545E7
23
1.2040454052675275E7
33
0.0
0
3DFACE
8
outermarker
62
252
10
-3.54083965289545E7
20
1.2040454052675275E7
30
0.0
11
-3.5408239222883694E7
21
1.2040380821241923E7
31
0.0
12
-3.540832023373187E7
22
1.2040506834084945E7
32
0.0
13
-3.540832023373187E7
23
1.2040506834084945E7
33
0.0
0
3DFACE
8
outermarker
62
252
10
-3.540812680929303E7
20
1.2040460042781405E7
30
0.0
11
-3.5408034368104234E7
21
1.204049686011863E7
31
0.0
12
-3.540808992054474E7
22
1.2040603417741366E7
32
0.0
13
-3.540808992054474E7
23
1.2040603417741366E7
33
0.0
0
3DFACE
8
outermarker
62
252
10
-3.540832023373187E7
20
1.2040506834084945E7
30
0.0
11
-3.540819545582927E7
21
1.2040421130310455E7
31
0.0
12
-3.540821749088326E7
22
1.2040556921825621E7
32
0.0
13
-3.540821749088326E7
23
1.2040556921825621E7
33
0.0
0
3DFACE
8
outermarker
62
252
10
-3.540821749088326E7
20
1.2040556921825621E7
30
0.0
11
-3.540812680929303E7
21
1.2040460042781405E7
31
0.0
12
-3.540808992054474E7
22
1.2040603417741366E7
32
0.0
13
-3.540808992054474E7
23
1.2040603417741366E7
33
0.0
0
3DFACE
8
outermarker
62
252
10
-3.5407784282710865E7
20
1.2040562213287782E7
30
0.0
11
-3.540763058096438E7
21
1.2040589651255196E7
31
0.0
12
-3.540776870174586E7
22
1.2040682839544889E7
32
0.0
13
-3.540776870174586E7
23
1.2040682839544889E7
33
0.0
0
3DFACE
8
outermarker
62
252
10
-3.540808992054474E7
20
1.2040603417741366E7
30
0.0
11
-3.5407919589461595E7
21
1.2040531083301269E7
31
0.0
12
-3.540793953308517E7
22
1.2040645623196593E7
32
0.0
13
-3.540793953308517E7
23
1.2040645623196593E7
33
0.0
0
3DFACE
8
outermarker
62
252
10
-3.540746090934183E7
20
1.2040612997933391E7
30
0.0
11
-3.540727794380671E7
21
1.2040631953845173E7
31
0.0
12
-3.540737676376082E7
22
1.2040740308571076E7
32
0.0
13
-3.540737676376082E7
23
1.2040740308571076E7
33
0.0
0
3DFACE
8
outermarker
62
252
10
-3.540793953308517E7
20
1.2040645623196593E7
30
0.0
11
-3.5407784282710865E7
21
1.2040562213287782E7
31
0.0
12
-3.540776870174586E7
22
1.2040682839544889E7
32
0.0
13
-3.540776870174586E7
23
1.2040682839544889E7
33
0.0
0
3DFACE
8
outermarker
62
252
10
-3.54068838365065E7
20
1.2040655395857984E7
30
0.0
11
-3.540667891062178E7
21
1.2040659482752563E7
31
0.0
12
-3.540671096723024E7
22
1.2040777715052405E7
32
0.0
13
-3.540671096723024E7
23
1.2040777715052405E7
33
0.0
0
3DFACE
8
outermarker
62
252
10
-3.540603565771441E7
20
1.2040752453737749E7
30
0.0
11
-3.540625584260883E7
21
1.2040767826024724E7
31
0.0
12
-3.540607131582804E7
22
1.204064090815447E7
32
0.0
13
-3.540607131582804E7
23
1.204064090815447E7
33
0.0
0
3DFACE
8
outermarker
62
252
10
-3.54070845702432E7
20
1.2040646119771801E7
30
0.0
11
-3.54068838365065E7
21
1.2040655395857984E7
31
0.0
12
-3.540693873329659E7
22
1.2040772131764386E7
32
0.0
13
-3.540693873329659E7
23
1.2040772131764386E7
33
0.0
0
3DFACE
8
outermarker
62
252
10
-3.540648213306422E7
20
1.2040776213259187E7
30
0.0
11
-3.540671096723024E7
21
1.2040777715052405E7
31
0.0
12
-3.540667891062178E7
22
1.2040659482752563E7
32
0.0
13
-3.540667891062178E7
23
1.2040659482752563E7
33
0.0
0
3DFACE
8
outermarker
62
252
10
-3.540693873329659E7
20
1.2040772131764386E7
30
0.0
11
-3.54068838365065E7
21
1.2040655395857984E7
31
0.0
12
-3.540671096723024E7
22
1.2040777715052405E7
32
0.0
13
-3.540671096723024E7
23
1.2040777715052405E7
33
0.0
0
3DFACE
8
outermarker
62
252
10
-3.5407161838479094E7
20
1.204075956314761E7
30
0.0
11
-3.54070845702432E7
21
1.2040646119771801E7
31
0.0
12
-3.540693873329659E7
22
1.2040772131764386E7
32
0.0
13
-3.540693873329659E7
23
1.2040772131764386E7
33
0.0
0
3DFACE
8
outermarker
62
252
10
-3.540737676376082E7
20
1.2040740308571076E7
30
0.0
11
-3.540727794380671E7
21
1.2040631953845173E7
31
0.0
12
-3.5407161838479094E7
22
1.204075956314761E7
32
0.0
13
-3.5407161838479094E7
23
1.204075956314761E7
33
0.0
0
3DFACE
8
outermarker
62
252
10
-3.540776870174586E7
20
1.2040682839544889E7
30
0.0
11
-3.540763058096438E7
21
1.2040589651255196E7
31
0.0
12
-3.540758012124543E7
22
1.2040714567693077E7
32
0.0
13
-3.540758012124543E7
23
1.2040714567693077E7
33
0.0
0
3DFACE
8
outermarker
62
252
10
-3.540758012124543E7
20
1.2040714567693077E7
30
0.0
11
-3.540746090934183E7
21
1.2040612997933391E7
31
0.0
12
-3.540737676376082E7
22
1.2040740308571076E7
32
0.0
13
-3.540737676376082E7
23
1.2040740308571076E7
33
0.0
0
3DFACE
8
outermarker
62
252
10
-3.540648213306422E7
20
1.2040776213259187E7
30
0.0
11
-3.540667891062178E7
21
1.2040659482752563E7
31
0.0
12
-3.540647302247733E7
22
1.2040658380481347E7
32
0.0
13
-3.540647302247733E7
23
1.2040658380481347E7
33
0.0
0
3DFACE
8
outermarker
62
252
10
-3.540625584260883E7
20
1.2040767826024724E7
30
0.0
11
-3.540648213306422E7
21
1.2040776213259187E7
31
0.0
12
-3.540647302247733E7
22
1.2040658380481347E7
32
0.0
13
-3.540647302247733E7
23
1.2040658380481347E7
33
0.0
0
3DFACE
8
outermarker
62
252
10
-3.540625584260883E7
20
1.2040767826024724E7
30
0.0
11
-3.540647302247733E7
21
1.2040658380481347E7
31
0.0
12
-3.540626942099245E7
22
1.2040652188901905E7
32
0.0
13
-3.540626942099245E7
23
1.2040652188901905E7
33
0.0
0
3DFACE
8
outermarker
62
252
10
-3.540625584260883E7
20
1.2040767826024724E7
30
0.0
11
-3.540626942099245E7
21
1.2040652188901905E7
31
0.0
12
-3.540607131582804E7
22
1.204064090815447E7
32
0.0
13
-3.540607131582804E7
23
1.204064090815447E7
33
0.0
0
3DFACE
8
outermarker
62
252
10
-3.5414167741397314E7
20
1.20398963575902E7
30
0.0
11
-3.5414318292977266E7
21
1.2039829687124861E7
31
0.0
12
-3.541421242511862E7
22
1.2039794382621273E7
32
0.0
13
-3.541421242511862E7
23
1.2039794382621273E7
33
0.0
0
3DFACE
8
outermarker
62
252
10
-3.541405007032919E7
20
1.2039848383153405E7
30
0.0
11
-3.5414167741397314E7
21
1.20398963575902E7
31
0.0
12
-3.541412953963266E7
22
1.2039756680052431E7
32
0.0
13
-3.541412953963266E7
23
1.2039756680052431E7
33
0.0
0
3DFACE
8
outermarker
62
252
10
-3.5413957951107375E7
20
1.2039797112364119E7
30
0.0
11
-3.5414070933193885E7
21
1.2039717078228617E7
31
0.0
12
-3.541403753376884E7
22
1.2039676475075265E7
32
0.0
13
-3.541403753376884E7
23
1.2039676475075265E7
33
0.0
0
3DFACE
8
outermarker
62
252
10
-3.541385568588207E7
20
1.2039688173654096E7
30
0.0
11
-3.5413892811303884E7
21
1.2039743443143366E7
31
0.0
12
-3.541403753376884E7
22
1.2039676475075265E7
32
0.0
13
-3.541403753376884E7
23
1.2039676475075265E7
33
0.0
0
3DFACE
8
outermarker
62
252
10
-3.541402987665216E7
20
1.2039635269667001E7
30
0.0
11
-3.541404806894578E7
21
1.2039594160416638E7
31
0.0
12
-3.54139160125145E7
22
1.2039521743123494E7
32
0.0
13
-3.54139160125145E7
23
1.2039521743123494E7
33
0.0
0
3DFACE
8
outermarker
62
252
10
-3.541404806894578E7
20
1.2039594160416638E7
30
0.0
11
-3.541409182519414E7
21
1.2039553845748551E7
31
0.0
12
-3.5413992301020004E7
22
1.2039468952379787E7
32
0.0
13
-3.5413992301020004E7
23
1.2039468952379787E7
33
0.0
0
3DFACE
8
outermarker
62
252
10
-3.541409182519414E7
20
1.2039553845748551E7
30
0.0
11
-3.541416045547635E7
21
1.2039514924329173E7
31
0.0
12
-3.541409503382541E7
22
1.2039418851670448E7
32
0.0
13
-3.541409503382541E7
23
1.2039418851670448E7
33
0.0
0
3DFACE
8
outermarker
62
252
10
-3.541425288924459E7
20
1.2039478094616374E7
30
0.0
11
-3.541436766337415E7
21
1.2039443855549037E7
31
0.0
12
-3.541422259321134E7
22
1.2039372339012414E7
32
0.0
13
-3.541422259321134E7
23
1.2039372339012414E7
33
0.0
0
3DFACE
8
outermarker
62
252
10
-3.541436766337415E7
20
1.2039443855549037E7
30
0.0
11
-3.541450295789462E7
21
1.203941270610007E7
31
0.0
12
-3.541437295700495E7
22
1.2039330112910887E7
32
0.0
13
-3.541437295700495E7
23
1.2039330112910887E7
33
0.0
0
3DFACE
8
outermarker
62
252
10
-3.54146566435977E7
20
1.2039385245055605E7
30
0.0
11
-3.541482630576674E7
21
1.2039361871704116E7
31
0.0
12
-3.5414732343884036E7
22
1.2039261015297234E7
32
0.0
13
-3.5414732343884036E7
23
1.2039261015297234E7
33
0.0
0
3DFACE
8
outermarker
62
252
10
-3.541500925609084E7
20
1.2039342885621838E7
30
0.0
11
-3.5415202627872765E7
21
1.2039328686217733E7
31
0.0
12
-3.541515059406328E7
22
1.2039216050438032E7
32
0.0
13
-3.541515059406328E7
23
1.2039216050438032E7
33
0.0
0
3DFACE
8
outermarker
62
252
10
-3.541668501925993E7
20
1.2039272943058867E7
30
0.0
11
-3.541658319626855E7
21
1.2039370541617455E7
31
0.0
12
-3.5416746661124244E7
22
1.2039395652309977E7
32
0.0
13
-3.5416746661124244E7
23
1.2039395652309977E7
33
0.0
0
3DFACE
8
outermarker
62
252
10
-3.541702950114494E7
20
1.2039346307001198E7
30
0.0
11
-3.541686671032098E7
21
1.2039307029336905E7
31
0.0
12
-3.541689312844753E7
22
1.2039424557254575E7
32
0.0
13
-3.541689312844753E7
23
1.2039424557254575E7
33
0.0
0
3DFACE
8
outermarker
62
252
10
-3.541717084595882E7
20
1.2039390377689395E7
30
0.0
11
-3.541702030232515E7
21
1.2039457057537993E7
31
0.0
12
-3.541712617213903E7
22
1.2039492355549412E7
32
0.0
13
-3.541712617213903E7
23
1.2039492355549412E7
33
0.0
0
3DFACE
8
outermarker
62
252
10
-3.541728851998339E7
20
1.2039438344107226E7
30
0.0
11
-3.541717084595882E7
21
1.2039390377689395E7
31
0.0
12
-3.541720906043757E7
22
1.203953005269322E7
32
0.0
13
-3.541720906043757E7
23
1.203953005269322E7
33
0.0
0
3DFACE
8
outermarker
62
252
10
-3.541738065535565E7
20
1.203948960819347E7
30
0.0
11
-3.541726767037922E7
21
1.2039569650499355E7
31
0.0
12
-3.541730107375098E7
22
1.2039610251295066E7
32
0.0
13
-3.541730107375098E7
23
1.2039610251295066E7
33
0.0
0
3DFACE
8
outermarker
62
252
10
-3.541748291993437E7
20
1.2039598539030505E7
30
0.0
11
-3.541744580043588E7
21
1.2039543272451406E7
31
0.0
12
-3.541730107375098E7
22
1.2039610251295066E7
32
0.0
13
-3.541730107375098E7
23
1.2039610251295066E7
33
0.0
0
3DFACE
8
outermarker
62
252
10
-3.541730873503374E7
20
1.2039651456154473E7
30
0.0
11
-3.541729054685901E7
21
1.2039692566698305E7
31
0.0
12
-3.541742261154161E7
22
1.2039764974250818E7
32
0.0
13
-3.541742261154161E7
23
1.2039764974250818E7
33
0.0
0
3DFACE
8
outermarker
62
252
10
-3.541729054685901E7
20
1.2039692566698305E7
30
0.0
11
-3.541724679441854E7
21
1.203973288442104E7
31
0.0
12
-3.5417346327950016E7
22
1.203981777070585E7
32
0.0
13
-3.5417346327950016E7
23
1.203981777070585E7
33
0.0
0
3DFACE
8
outermarker
62
252
10
-3.541724679441854E7
20
1.203973288442104E7
30
0.0
11
-3.541717816739764E7
21
1.2039771810464336E7
31
0.0
12
-3.541724359892756E7
22
1.2039867878706021E7
32
0.0
13
-3.541724359892756E7
23
1.2039867878706021E7
33
0.0
0
3DFACE
8
outermarker
62
252
10
-3.5417085736131415E7
20
1.203980864608056E7
30
0.0
11
-3.541697096359507E7
21
1.2039842891959487E7
31
0.0
12
-3.541711605384091E7
22
1.2039914399774037E7
32
0.0
13
-3.541711605384091E7
23
1.2039914399774037E7
33
0.0
0
3DFACE
8
outermarker
62
252
10
-3.541697096359507E7
20
1.2039842891959487E7
30
0.0
11
-3.541683566966164E7
21
1.203987404869966E7
31
0.0
12
-3.541696567902852E7
22
1.203995663488289E7
32
0.0
13
-3.541696567902852E7
23
1.203995663488289E7
33
0.0
0
3DFACE
8
outermarker
62
252
10
-3.541668198349432E7
20
1.2039901517057143E7
30
0.0
11
-3.541651231984197E7
21
1.2039924897284336E7
31
0.0
12
-3.54166062892088E7
22
1.204002575002169E7
32
0.0
13
-3.54166062892088E7
23
1.204002575002169E7
33
0.0
0
3DFACE
8
outermarker
62
252
10
-3.541632936711227E7
20
1.2039943889372459E7
30
0.0
11
-3.541613600404445E7
21
1.2039958093533507E7
31
0.0
12
-3.5416188030588E7
22
1.2040070728177441E7
32
0.0
13
-3.5416188030588E7
23
1.2040070728177441E7
33
0.0
0
3DFACE
8
outermarker
62
252
10
-3.541465356835165E7
20
1.2040013818921546E7
30
0.0
11
-3.5414755399205774E7
21
1.20399162246638E7
31
0.0
12
-3.541459194515132E7
22
1.203989110686201E7
32
0.0
13
-3.541459194515132E7
23
1.203989110686201E7
33
0.0
0
3DFACE
8
outermarker
62
252
10
-3.5414309084723815E7
20
1.2039940437110312E7
30
0.0
11
-3.541447188753627E7
21
1.2039979723863155E7
31
0.0
12
-3.5414445465867475E7
22
1.203986219455915E7
32
0.0
13
-3.5414445465867475E7
23
1.203986219455915E7
33
0.0
0
3DFACE
8
outermarker
62
252
10
-3.541485127197661E7
20
1.204004202409619E7
30
0.0
11
-3.541493328216911E7
21
1.203993694954742E7
31
0.0
12
-3.5414755399205774E7
22
1.20399162246638E7
32
0.0
13
-3.5414755399205774E7
23
1.20399162246638E7
33
0.0
0
3DFACE
8
outermarker
62
252
10
-3.541485127197661E7
20
1.204004202409619E7
30
0.0
11
-3.5415061869636625E7
21
1.2040063940593129E7
31
0.0
12
-3.541493328216911E7
22
1.203993694954742E7
32
0.0
13
-3.541493328216911E7
23
1.203993694954742E7
33
0.0
0
3DFACE
8
outermarker
62
252
10
-3.541465356835165E7
20
1.2040013818921546E7
30
0.0
11
-3.541485127197661E7
21
1.204004202409619E7
31
0.0
12
-3.5414755399205774E7
22
1.20399162246638E7
32
0.0
13
-3.5414755399205774E7
23
1.20399162246638E7
33
0.0
0
3DFACE
8
outermarker
62
252
10
-3.5415061869636625E7
20
1.2040063940593129E7
30
0.0
11
-3.541512276274043E7
21
1.203995308226083E7
31
0.0
12
-3.541493328216911E7
22
1.203993694954742E7
32
0.0
13
-3.541493328216911E7
23
1.203993694954742E7
33
0.0
0
3DFACE
8
outermarker
62
252
10
-3.541447188753627E7
20
1.2039979723863155E7
30
0.0
11
-3.541459194515132E7
21
1.203989110686201E7
31
0.0
12
-3.5414445465867475E7
22
1.203986219455915E7
32
0.0
13
-3.5414445465867475E7
23
1.203986219455915E7
33
0.0
0
3DFACE
8
outermarker
62
252
10
-3.541447188753627E7
20
1.2039979723863155E7
30
0.0
11
-3.541465356835165E7
21
1.2040013818921546E7
31
0.0
12
-3.541459194515132E7
22
1.203989110686201E7
32
0.0
13
-3.541459194515132E7
23
1.203989110686201E7
33
0.0
0
3DFACE
8
outermarker
62
252
10
-3.5414167741397314E7
20
1.20398963575902E7
30
0.0
11
-3.5414309084723815E7
21
1.2039940437110312E7
31
0.0
12
-3.5414318292977266E7
22
1.2039829687124861E7
32
0.0
13
-3.5414318292977266E7
23
1.2039829687124861E7
33
0.0
0
3DFACE
8
outermarker
62
252
10
-3.5414309084723815E7
20
1.2039940437110312E7
30
0.0
11
-3.5414445465867475E7
21
1.203986219455915E7
31
0.0
12
-3.5414318292977266E7
22
1.2039829687124861E7
32
0.0
13
-3.5414318292977266E7
23
1.2039829687124861E7
33
0.0
0
3DFACE
8
outermarker
62
252
10
-3.5414167741397314E7
20
1.20398963575902E7
30
0.0
11
-3.541421242511862E7
21
1.2039794382621273E7
31
0.0
12
-3.541412953963266E7
22
1.2039756680052431E7
32
0.0
13
-3.541412953963266E7
23
1.2039756680052431E7
33
0.0
0
3DFACE
8
outermarker
62
252
10
-3.5413957951107375E7
20
1.2039797112364119E7
30
0.0
11
-3.541405007032919E7
21
1.2039848383153405E7
31
0.0
12
-3.5414070933193885E7
22
1.2039717078228617E7
32
0.0
13
-3.5414070933193885E7
23
1.2039717078228617E7
33
0.0
0
3DFACE
8
outermarker
62
252
10
-3.541405007032919E7
20
1.2039848383153405E7
30
0.0
11
-3.541412953963266E7
21
1.2039756680052431E7
31
0.0
12
-3.5414070933193885E7
22
1.2039717078228617E7
32
0.0
13
-3.5414070933193885E7
23
1.2039717078228617E7
33
0.0
0
3DFACE
8
outermarker
62
252
10
-3.5413892811303884E7
20
1.2039743443143366E7
30
0.0
11
-3.5413957951107375E7
21
1.2039797112364119E7
31
0.0
12
-3.541403753376884E7
22
1.2039676475075265E7
32
0.0
13
-3.541403753376884E7
23
1.2039676475075265E7
33
0.0
0
3DFACE
8
outermarker
62
252
10
-3.541385568588207E7
20
1.2039688173654096E7
30
0.0
11
-3.541402987665216E7
21
1.2039635269667001E7
31
0.0
12
-3.5413847169662446E7
22
1.2039632201845722E7
32
0.0
13
-3.5413847169662446E7
23
1.2039632201845722E7
33
0.0
0
3DFACE
8
outermarker
62
252
10
-3.541385568588207E7
20
1.2039688173654096E7
30
0.0
11
-3.541403753376884E7
21
1.2039676475075265E7
31
0.0
12
-3.541402987665216E7
22
1.2039635269667001E7
32
0.0
13
-3.541402987665216E7
23
1.2039635269667001E7
33
0.0
0
3DFACE
8
outermarker
62
252
10
-3.5413847169662446E7
20
1.2039632201845722E7
30
0.0
11
-3.541402987665216E7
21
1.2039635269667001E7
31
0.0
12
-3.54138673816271E7
22
1.2039576425680043E7
32
0.0
13
-3.54138673816271E7
23
1.2039576425680043E7
33
0.0
0
3DFACE
8
outermarker
62
252
10
-3.54138673816271E7
20
1.2039576425680043E7
30
0.0
11
-3.541402987665216E7
21
1.2039635269667001E7
31
0.0
12
-3.54139160125145E7
22
1.2039521743123494E7
32
0.0
13
-3.54139160125145E7
23
1.2039521743123494E7
33
0.0
0
3DFACE
8
outermarker
62
252
10
-3.54139160125145E7
20
1.2039521743123494E7
30
0.0
11
-3.541404806894578E7
21
1.2039594160416638E7
31
0.0
12
-3.5413992301020004E7
22
1.2039468952379787E7
32
0.0
13
-3.5413992301020004E7
23
1.2039468952379787E7
33
0.0
0
3DFACE
8
outermarker
62
252
10
-3.541416045547635E7
20
1.2039514924329173E7
30
0.0
11
-3.541425288924459E7
21
1.2039478094616374E7
31
0.0
12
-3.541409503382541E7
22
1.2039418851670448E7
32
0.0
13
-3.541409503382541E7
23
1.2039418851670448E7
33
0.0
0
3DFACE
8
outermarker
62
252
10
-3.5413992301020004E7
20
1.2039468952379787E7
30
0.0
11
-3.541409182519414E7
21
1.2039553845748551E7
31
0.0
12
-3.541409503382541E7
22
1.2039418851670448E7
32
0.0
13
-3.541409503382541E7
23
1.2039418851670448E7
33
0.0
0
3DFACE
8
outermarker
62
252
10
-3.541409503382541E7
20
1.2039418851670448E7
30
0.0
11
-3.541425288924459E7
21
1.2039478094616374E7
31
0.0
12
-3.541422259321134E7
22
1.2039372339012414E7
32
0.0
13
-3.541422259321134E7
23
1.2039372339012414E7
33
0.0
0
3DFACE
8
outermarker
62
252
10
-3.541450295789462E7
20
1.203941270610007E7
30
0.0
11
-3.54146566435977E7
21
1.2039385245055605E7
31
0.0
12
-3.541454378189349E7
22
1.2039292871909924E7
32
0.0
13
-3.541454378189349E7
23
1.2039292871909924E7
33
0.0
0
3DFACE
8
outermarker
62
252
10
-3.541422259321134E7
20
1.2039372339012414E7
30
0.0
11
-3.541436766337415E7
21
1.2039443855549037E7
31
0.0
12
-3.541437295700495E7
22
1.2039330112910887E7
32
0.0
13
-3.541437295700495E7
23
1.2039330112910887E7
33
0.0
0
3DFACE
8
outermarker
62
252
10
-3.541482630576674E7
20
1.2039361871704116E7
30
0.0
11
-3.541500925609084E7
21
1.2039342885621838E7
31
0.0
12
-3.5414935681200586E7
22
1.2039235341514686E7
32
0.0
13
-3.5414935681200586E7
23
1.2039235341514686E7
33
0.0
0
3DFACE
8
outermarker
62
252
10
-3.541437295700495E7
20
1.2039330112910887E7
30
0.0
11
-3.541450295789462E7
21
1.203941270610007E7
31
0.0
12
-3.541454378189349E7
22
1.2039292871909924E7
32
0.0
13
-3.541454378189349E7
23
1.2039292871909924E7
33
0.0
0
3DFACE
8
outermarker
62
252
10
-3.54154033402708E7
20
1.2039319473429792E7
30
0.0
11
-3.541560826482773E7
21
1.2039315247706482E7
31
0.0
12
-3.541560144347679E7
22
1.2039197815411128E7
32
0.0
13
-3.541560144347679E7
23
1.2039197815411128E7
33
0.0
0
3DFACE
8
outermarker
62
252
10
-3.541627672547174E7
20
1.2039222835853538E7
30
0.0
11
-3.541605654639786E7
21
1.2039207611533137E7
31
0.0
12
-3.541621583770645E7
22
1.2039333695733944E7
32
0.0
13
-3.541621583770645E7
23
1.2039333695733944E7
33
0.0
0
3DFACE
8
outermarker
62
252
10
-3.5415202627872765E7
20
1.2039328686217733E7
30
0.0
11
-3.54154033402708E7
21
1.2039319473429792E7
31
0.0
12
-3.541537369241498E7
22
1.2039203441798188E7
32
0.0
13
-3.541537369241498E7
23
1.2039203441798188E7
33
0.0
0
3DFACE
8
outermarker
62
252
10
-3.541454378189349E7
20
1.2039292871909924E7
30
0.0
11
-3.54146566435977E7
21
1.2039385245055605E7
31
0.0
12
-3.5414732343884036E7
22
1.2039261015297234E7
32
0.0
13
-3.5414732343884036E7
23
1.2039261015297234E7
33
0.0
0
3DFACE
8
outermarker
62
252
10
-3.5414732343884036E7
20
1.2039261015297234E7
30
0.0
11
-3.541482630576674E7
21
1.2039361871704116E7
31
0.0
12
-3.5414935681200586E7
22
1.2039235341514686E7
32
0.0
13
-3.5414935681200586E7
23
1.2039235341514686E7
33
0.0
0
3DFACE
8
outermarker
62
252
10
-3.5414935681200586E7
20
1.2039235341514686E7
30
0.0
11
-3.541500925609084E7
21
1.2039342885621838E7
31
0.0
12
-3.541515059406328E7
22
1.2039216050438032E7
32
0.0
13
-3.541515059406328E7
23
1.2039216050438032E7
33
0.0
0
3DFACE
8
outermarker
62
252
10
-3.541515059406328E7
20
1.2039216050438032E7
30
0.0
11
-3.5415202627872765E7
21
1.2039328686217733E7
31
0.0
12
-3.541537369241498E7
22
1.2039203441798188E7
32
0.0
13
-3.541537369241498E7
23
1.2039203441798188E7
33
0.0
0
3DFACE
8
outermarker
62
252
10
-3.541537369241498E7
20
1.2039203441798188E7
30
0.0
11
-3.54154033402708E7
21
1.2039319473429792E7
31
0.0
12
-3.541560144347679E7
22
1.2039197815411128E7
32
0.0
13
-3.541560144347679E7
23
1.2039197815411128E7
33
0.0
0
3DFACE
8
outermarker
62
252
10
-3.541560144347679E7
20
1.2039197815411128E7
30
0.0
11
-3.541560826482773E7
21
1.2039315247706482E7
31
0.0
12
-3.541581414231706E7
22
1.203931630889435E7
32
0.0
13
-3.541581414231706E7
23
1.203931630889435E7
33
0.0
0
3DFACE
8
outermarker
62
252
10
-3.541583026683006E7
20
1.203919917184851E7
30
0.0
11
-3.541560144347679E7
21
1.2039197815411128E7
31
0.0
12
-3.541581414231706E7
22
1.203931630889435E7
32
0.0
13
-3.541581414231706E7
23
1.203931630889435E7
33
0.0
0
3DFACE
8
outermarker
62
252
10
-3.541583026683006E7
20
1.203919917184851E7
30
0.0
11
-3.541581414231706E7
21
1.203931630889435E7
31
0.0
12
-3.5416017737183236E7
22
1.2039322458025986E7
32
0.0
13
-3.5416017737183236E7
23
1.2039322458025986E7
33
0.0
0
3DFACE
8
outermarker
62
252
10
-3.541605654639786E7
20
1.2039207611533137E7
30
0.0
11
-3.541583026683006E7
21
1.203919917184851E7
31
0.0
12
-3.5416017737183236E7
22
1.2039322458025986E7
32
0.0
13
-3.5416017737183236E7
23
1.2039322458025986E7
33
0.0
0
3DFACE
8
outermarker
62
252
10
-3.541605654639786E7
20
1.2039207611533137E7
30
0.0
11
-3.5416017737183236E7
21
1.2039322458025986E7
31
0.0
12
-3.541621583770645E7
22
1.2039333695733944E7
32
0.0
13
-3.541621583770645E7
23
1.2039333695733944E7
33
0.0
0
3DFACE
8
outermarker
62
252
10
-3.541648733064595E7
20
1.2039244745795874E7
30
0.0
11
-3.541640531537342E7
21
1.2039349823141854E7
31
0.0
12
-3.541658319626855E7
22
1.2039370541617455E7
32
0.0
13
-3.541658319626855E7
23
1.2039370541617455E7
33
0.0
0
3DFACE
8
outermarker
62
252
10
-3.541648733064595E7
20
1.2039244745795874E7
30
0.0
11
-3.541627672547174E7
21
1.2039222835853538E7
31
0.0
12
-3.541640531537342E7
22
1.2039349823141854E7
32
0.0
13
-3.541640531537342E7
23
1.2039349823141854E7
33
0.0
0
3DFACE
8
outermarker
62
252
10
-3.541668501925993E7
20
1.2039272943058867E7
30
0.0
11
-3.541648733064595E7
21
1.2039244745795874E7
31
0.0
12
-3.541658319626855E7
22
1.2039370541617455E7
32
0.0
13
-3.541658319626855E7
23
1.2039370541617455E7
33
0.0
0
3DFACE
8
outermarker
62
252
10
-3.541627672547174E7
20
1.2039222835853538E7
30
0.0
11
-3.541621583770645E7
21
1.2039333695733944E7
31
0.0
12
-3.541640531537342E7
22
1.2039349823141854E7
32
0.0
13
-3.541640531537342E7
23
1.2039349823141854E7
33
0.0
0
3DFACE
8
outermarker
62
252
10
-3.541686671032098E7
20
1.2039307029336905E7
30
0.0
11
-3.5416746661124244E7
21
1.2039395652309977E7
31
0.0
12
-3.541689312844753E7
22
1.2039424557254575E7
32
0.0
13
-3.541689312844753E7
23
1.2039424557254575E7
33
0.0
0
3DFACE
8
outermarker
62
252
10
-3.541686671032098E7
20
1.2039307029336905E7
30
0.0
11
-3.541668501925993E7
21
1.2039272943058867E7
31
0.0
12
-3.5416746661124244E7
22
1.2039395652309977E7
32
0.0
13
-3.5416746661124244E7
23
1.2039395652309977E7
33
0.0
0
3DFACE
8
outermarker
62
252
10
-3.541717084595882E7
20
1.2039390377689395E7
30
0.0
11
-3.541702950114494E7
21
1.2039346307001198E7
31
0.0
12
-3.541702030232515E7
22
1.2039457057537993E7
32
0.0
13
-3.541702030232515E7
23
1.2039457057537993E7
33
0.0
0
3DFACE
8
outermarker
62
252
10
-3.541702950114494E7
20
1.2039346307001198E7
30
0.0
11
-3.541689312844753E7
21
1.2039424557254575E7
31
0.0
12
-3.541702030232515E7
22
1.2039457057537993E7
32
0.0
13
-3.541702030232515E7
23
1.2039457057537993E7
33
0.0
0
3DFACE
8
outermarker
62
252
10
-3.541717084595882E7
20
1.2039390377689395E7
30
0.0
11
-3.541712617213903E7
21
1.2039492355549412E7
31
0.0
12
-3.541720906043757E7
22
1.203953005269322E7
32
0.0
13
-3.541720906043757E7
23
1.203953005269322E7
33
0.0
0
3DFACE
8
outermarker
62
252
10
-3.541738065535565E7
20
1.203948960819347E7
30
0.0
11
-3.541728851998339E7
21
1.2039438344107226E7
31
0.0
12
-3.541726767037922E7
22
1.2039569650499355E7
32
0.0
13
-3.541726767037922E7
23
1.2039569650499355E7
33
0.0
0
3DFACE
8
outermarker
62
252
10
-3.541728851998339E7
20
1.2039438344107226E7
30
0.0
11
-3.541720906043757E7
21
1.203953005269322E7
31
0.0
12
-3.541726767037922E7
22
1.2039569650499355E7
32
0.0
13
-3.541726767037922E7
23
1.2039569650499355E7
33
0.0
0
3DFACE
8
outermarker
62
252
10
-3.541744580043588E7
20
1.2039543272451406E7
30
0.0
11
-3.541738065535565E7
21
1.203948960819347E7
31
0.0
12
-3.541730107375098E7
22
1.2039610251295066E7
32
0.0
13
-3.541730107375098E7
23
1.2039610251295066E7
33
0.0
0
3DFACE
8
outermarker
62
252
10
-3.541748291993437E7
20
1.2039598539030505E7
30
0.0
11
-3.541730873503374E7
21
1.2039651456154473E7
31
0.0
12
-3.541749145433968E7
22
1.2039654510157432E7
32
0.0
13
-3.541749145433968E7
23
1.2039654510157432E7
33
0.0
0
3DFACE
8
outermarker
62
252
10
-3.541748291993437E7
20
1.2039598539030505E7
30
0.0
11
-3.541730107375098E7
21
1.2039610251295066E7
31
0.0
12
-3.541730873503374E7
22
1.2039651456154473E7
32
0.0
13
-3.541730873503374E7
23
1.2039651456154473E7
33
0.0
0
3DFACE
8
outermarker
62
252
10
-3.541749145433968E7
20
1.2039654510157432E7
30
0.0
11
-3.541730873503374E7
21
1.2039651456154473E7
31
0.0
12
-3.54174712366899E7
22
1.2039710287922094E7
32
0.0
13
-3.54174712366899E7
23
1.2039710287922094E7
33
0.0
0
3DFACE
8
outermarker
62
252
10
-3.54174712366899E7
20
1.2039710287922094E7
30
0.0
11
-3.541730873503374E7
21
1.2039651456154473E7
31
0.0
12
-3.541742261154161E7
22
1.2039764974250818E7
32
0.0
13
-3.541742261154161E7
23
1.2039764974250818E7
33
0.0
0
3DFACE
8
outermarker
62
252
10
-3.541742261154161E7
20
1.2039764974250818E7
30
0.0
11
-3.541729054685901E7
21
1.2039692566698305E7
31
0.0
12
-3.5417346327950016E7
22
1.203981777070585E7
32
0.0
13
-3.5417346327950016E7
23
1.203981777070585E7
33
0.0
0
3DFACE
8
outermarker
62
252
10
-3.541717816739764E7
20
1.2039771810464336E7
30
0.0
11
-3.5417085736131415E7
21
1.203980864608056E7
31
0.0
12
-3.541724359892756E7
22
1.2039867878706021E7
32
0.0
13
-3.541724359892756E7
23
1.2039867878706021E7
33
0.0
0
3DFACE
8
outermarker
62
252
10
-3.5417346327950016E7
20
1.203981777070585E7
30
0.0
11
-3.541724679441854E7
21
1.203973288442104E7
31
0.0
12
-3.541724359892756E7
22
1.2039867878706021E7
32
0.0
13
-3.541724359892756E7
23
1.2039867878706021E7
33
0.0
0
3DFACE
8
outermarker
62
252
10
-3.541724359892756E7
20
1.2039867878706021E7
30
0.0
11
-3.5417085736131415E7
21
1.203980864608056E7
31
0.0
12
-3.541711605384091E7
22
1.2039914399774037E7
32
0.0
13
-3.541711605384091E7
23
1.2039914399774037E7
33
0.0
0
3DFACE
8
outermarker
62
252
10
-3.541683566966164E7
20
1.203987404869966E7
30
0.0
11
-3.541668198349432E7
21
1.2039901517057143E7
31
0.0
12
-3.5416794865328856E7
22
1.203999388491456E7
32
0.0
13
-3.5416794865328856E7
23
1.203999388491456E7
33
0.0
0
3DFACE
8
outermarker
62
252
10
-3.541711605384091E7
20
1.2039914399774037E7
30
0.0
11
-3.541697096359507E7
21
1.2039842891959487E7
31
0.0
12
-3.541696567902852E7
22
1.203995663488289E7
32
0.0
13
-3.541696567902852E7
23
1.203995663488289E7
33
0.0
0
3DFACE
8
outermarker
62
252
10
-3.541651231984197E7
20
1.2039924897284336E7
30
0.0
11
-3.541632936711227E7
21
1.2039943889372459E7
31
0.0
12
-3.541640294825358E7
22
1.2040051431222431E7
32
0.0
13
-3.541640294825358E7
23
1.2040051431222431E7
33
0.0
0
3DFACE
8
outermarker
62
252
10
-3.541696567902852E7
20
1.203995663488289E7
30
0.0
11
-3.541683566966164E7
21
1.203987404869966E7
31
0.0
12
-3.5416794865328856E7
22
1.203999388491456E7
32
0.0
13
-3.5416794865328856E7
23
1.203999388491456E7
33
0.0
0
3DFACE
8
outermarker
62
252
10
-3.541593527599532E7
20
1.2039967309536397E7
30
0.0
11
-3.5415730347346336E7
21
1.2039971536724752E7
31
0.0
12
-3.541573718122513E7
22
1.2040088968981203E7
32
0.0
13
-3.541573718122513E7
23
1.2040088968981203E7
33
0.0
0
3DFACE
8
outermarker
62
252
10
-3.5415061869636625E7
20
1.2040063940593129E7
30
0.0
11
-3.541528205408415E7
21
1.2040079169692922E7
31
0.0
12
-3.541512276274043E7
22
1.203995308226083E7
32
0.0
13
-3.541512276274043E7
23
1.203995308226083E7
33
0.0
0
3DFACE
8
outermarker
62
252
10
-3.541613600404445E7
20
1.2039958093533507E7
30
0.0
11
-3.541593527599532E7
21
1.2039967309536397E7
31
0.0
12
-3.5415964938464895E7
22
1.2040083340784077E7
32
0.0
13
-3.5415964938464895E7
23
1.2040083340784077E7
33
0.0
0
3DFACE
8
outermarker
62
252
10
-3.541573718122513E7
20
1.2040088968981203E7
30
0.0
11
-3.5415730347346336E7
21
1.2039971536724752E7
31
0.0
12
-3.541552446568332E7
22
1.2039970475161903E7
32
0.0
13
-3.541552446568332E7
23
1.2039970475161903E7
33
0.0
0
3DFACE
8
outermarker
62
252
10
-3.5415964938464895E7
20
1.2040083340784077E7
30
0.0
11
-3.541593527599532E7
21
1.2039967309536397E7
31
0.0
12
-3.541573718122513E7
22
1.2040088968981203E7
32
0.0
13
-3.541573718122513E7
23
1.2040088968981203E7
33
0.0
0
3DFACE
8
outermarker
62
252
10
-3.5416188030588E7
20
1.2040070728177441E7
30
0.0
11
-3.541613600404445E7
21
1.2039958093533507E7
31
0.0
12
-3.5415964938464895E7
22
1.2040083340784077E7
32
0.0
13
-3.5415964938464895E7
23
1.2040083340784077E7
33
0.0
0
3DFACE
8
outermarker
62
252
10
-3.541640294825358E7
20
1.2040051431222431E7
30
0.0
11
-3.541632936711227E7
21
1.2039943889372459E7
31
0.0
12
-3.5416188030588E7
22
1.2040070728177441E7
32
0.0
13
-3.5416188030588E7
23
1.2040070728177441E7
33
0.0
0
3DFACE
8
outermarker
62
252
10
-3.5416794865328856E7
20
1.203999388491456E7
30
0.0
11
-3.541668198349432E7
21
1.2039901517057143E7
31
0.0
12
-3.54166062892088E7
22
1.204002575002169E7
32
0.0
13
-3.54166062892088E7
23
1.204002575002169E7
33
0.0
0
3DFACE
8
outermarker
62
252
10
-3.54166062892088E7
20
1.204002575002169E7
30
0.0
11
-3.541651231984197E7
21
1.2039924897284336E7
31
0.0
12
-3.541640294825358E7
22
1.2040051431222431E7
32
0.0
13
-3.541640294825358E7
23
1.2040051431222431E7
33
0.0
0
3DFACE
8
outermarker
62
252
10
-3.541550835157216E7
20
1.2040087612081375E7
30
0.0
11
-3.541573718122513E7
21
1.2040088968981203E7
31
0.0
12
-3.541552446568332E7
22
1.2039970475161903E7
32
0.0
13
-3.541552446568332E7
23
1.2039970475161903E7
33
0.0
0
3DFACE
8
outermarker
62
252
10
-3.541550835157216E7
20
1.2040087612081375E7
30
0.0
11
-3.541552446568332E7
21
1.2039970475161903E7
31
0.0
12
-3.541532086682421E7
22
1.2039964323838882E7
32
0.0
13
-3.541532086682421E7
23
1.2039964323838882E7
33
0.0
0
3DFACE
8
outermarker
62
252
10
-3.541528205408415E7
20
1.2040079169692922E7
30
0.0
11
-3.541550835157216E7
21
1.2040087612081375E7
31
0.0
12
-3.541532086682421E7
22
1.2039964323838882E7
32
0.0
13
-3.541532086682421E7
23
1.2039964323838882E7
33
0.0
0
3DFACE
8
outermarker
62
252
10
-3.541528205408415E7
20
1.2040079169692922E7
30
0.0
11
-3.541532086682421E7
21
1.2039964323838882E7
31
0.0
12
-3.541512276274043E7
22
1.203995308226083E7
32
0.0
13
-3.541512276274043E7
23
1.203995308226083E7
33
0.0
0
3DFACE
8
outermarker
62
252
10
-3.540634777877552E7
20
1.2033531847919635E7
30
0.0
11
-3.540606302517928E7
21
1.203353183903073E7
31
0.0
12
-3.5406063020048864E7
22
1.2033637299794251E7
32
0.0
13
-3.5406347774574555E7
23
1.203363730868325E7
33
0.0
0
3DFACE
8
outermarker
62
252
10
-3.540634802022283E7
20
1.2027469397631504E7
30
0.0
11
-3.540606332004702E7
21
1.2027469388748232E7
31
0.0
12
-3.540606331491367E7
22
1.2027574949380815E7
32
0.0
13
-3.540634801601947E7
23
1.2027574958264183E7
33
0.0
0
3DFACE
8
outermarker
62
252
10
-3.540634826157559E7
20
1.2021407042156635E7
30
0.0
11
-3.54060636147993E7
21
1.2021407033279002E7
31
0.0
12
-3.5406063609672725E7
22
1.2021512494215408E7
32
0.0
13
-3.540634825737779E7
23
1.2021512503093142E7
33
0.0
0
3DFACE
8
outermarker
62
252
10
-3.540634850283783E7
20
1.2015344682740727E7
30
0.0
11
-3.540606390944103E7
21
1.2015344673868725E7
31
0.0
12
-3.540606390431637E7
22
1.201545013486498E7
32
0.0
13
-3.540634849864161E7
23
1.2015450143737078E7
33
0.0
0
3DFACE
8
outermarker
62
252
10
-3.541538692757777E7
20
1.2015341251429982E7
30
0.0
11
-3.5415102322355144E7
21
1.201534129869143E7
31
0.0
12
-3.541510234671622E7
22
1.2015446759681286E7
32
0.0
13
-3.541538695286731E7
23
1.2015446712419316E7
33
0.0
0
3DFACE
8
outermarker
62
252
10
-3.540041084995833E7
20
1.2029237435360348E7
30
0.0
11
-3.540012612234247E7
21
1.202923738956439E7
31
0.0
12
-3.540012609783663E7
22
1.2029342850390755E7
32
0.0
13
-3.540041082638176E7
23
1.2029342896187214E7
33
0.0
0
3DFACE
8
outermarker
62
252
10
-3.5400412205006994E7
20
1.2023174981803356E7
30
0.0
11
-3.540012753079956E7
21
1.2023174936036443E7
31
0.0
12
-3.540012750627975E7
22
1.202328049671936E7
32
0.0
13
-3.5400412181416966E7
23
1.2023280542486776E7
33
0.0
0
3DFACE
8
outermarker
62
252
10
-3.54004135595251E7
20
1.201711262378164E7
30
0.0
11
-3.540012893870521E7
21
1.2017112578043772E7
31
0.0
12
-3.5400128914217755E7
22
1.201721803901791E7
32
0.0
13
-3.540041353596621E7
23
1.201721808475628E7
33
0.0
0
3DFACE
8
outermarker
62
252
10
-3.540041491353525E7
20
1.2011050262540841E7
30
0.0
11
-3.540013034608288E7
21
1.2011050216832012E7
31
0.0
12
-3.540013032160461E7
22
1.2011155677853435E7
32
0.0
13
-3.54004148899852E7
23
1.2011155723562771E7
33
0.0
0
3DFACE
8
outermarker
62
252
10
-3.5400408138379745E7
20
1.204136212613394E7
30
0.0
11
-3.54001233038886E7
21
1.2041362080279881E7
31
0.0
12
-3.540012327936437E7
22
1.2041467540887538E7
32
0.0
13
-3.540040811478547E7
23
1.20414675867421E7
33
0.0
0
3DFACE
8
outermarker
62
252
10
-3.540040690081286E7
20
1.2047424461104436E7
30
0.0
11
-3.5400121762983575E7
21
1.2047424415181043E7
31
0.0
12
-3.54001217384497E7
22
1.204752987565275E7
32
0.0
13
-3.54004068772101E7
23
1.2047529921576649E7
33
0.0
0
3DFACE
8
outermarker
62
252
10
-3.540040554377301E7
20
1.2053486787740307E7
30
0.0
11
-3.5400120352409E7
21
1.2053486741787836E7
31
0.0
12
-3.540012032786592E7
22
1.2053592202105861E7
32
0.0
13
-3.54004055201614E7
23
1.2053592248058837E7
33
0.0
0
3DFACE
8
outermarker
62
252
10
-3.54004041862235E7
20
1.2059549105041014E7
30
0.0
11
-3.540011894130467E7
21
1.2059549059059454E7
31
0.0
12
-3.540011891672913E7
22
1.2059654618979143E7
32
0.0
13
-3.540040416258067E7
23
1.205965466496121E7
33
0.0
0
3DFACE
8
outermarker
62
252
10
-3.540040282816403E7
20
1.2065611411987236E7
30
0.0
11
-3.540011752967025E7
21
1.2065611365976583E7
31
0.0
12
-3.540011750508549E7
22
1.2065716925706945E7
32
0.0
13
-3.540040280451232E7
23
1.2065716971718103E7
33
0.0
0
ENDSEC
0
EOF
