  0
SECTION
  2
HEADER
  0
ENDSEC
  0
SECTION
  2
ENTITIES
  0
3DFACE
  8
mg_to_dxf
  62
2
  10
-35417016.78
  20
11998053.98
  30
0.00
  11
-35417013.78
  21
11998053.98
  31
0.00
  12
-35417013.78
  22
11998102.70
  32
0.00
  13
-35417016.78
  23
11998102.70
  33
0.00
  0
3DFACE
  8
mg_to_dxf
  62
2
  10
-35417016.78
  20
11998005.26
  30
0.00
  11
-35417013.78
  21
11998005.26
  31
0.00
  12
-35417013.78
  22
11998053.98
  32
0.00
  13
-35417016.78
  23
11998053.98
  33
0.00
  0
3DFACE
  8
mg_to_dxf
  62
2
  10
-35417011.21
  20
12002191.11
  30
0.00
  11
-35417008.21
  21
12002191.11
  31
0.00
  12
-35417008.21
  22
12002228.70
  32
0.00
  13
-35417011.21
  23
12002228.70
  33
0.00
  0
3DFACE
  8
mg_to_dxf
  62
2
  10
-35417011.21
  20
12002152.14
  30
0.00
  11
-35417008.21
  21
12002152.14
  31
0.00
  12
-35417008.21
  22
12002191.11
  32
0.00
  13
-35417011.21
  23
12002191.11
  33
0.00
  0
3DFACE
  8
mg_to_dxf
  62
2
  10
-35417005.65
  20
12003456.48
  30
0.00
  11
-35417002.65
  21
12003456.48
  31
0.00
  12
-35417002.65
  22
12003533.04
  32
0.00
  13
-35417005.65
  23
12003533.04
  33
0.00
  0
3DFACE
  8
mg_to_dxf
  62
2
  10
-35422368.01
  20
12005114.08
  30
0.00
  11
-35422370.10
  21
12005111.92
  31
0.00
  12
-35422331.11
  22
12005074.32
  32
0.00
  13
-35422329.05
  23
12005076.50
  33
0.00
  0
3DFACE
  8
mg_to_dxf
  62
2
  10
-35422329.05
  20
12005076.50
  30
0.00
  11
-35422331.11
  21
12005074.32
  31
0.00
  12
-35422292.12
  22
12005038.12
  32
0.00
  13
-35422290.08
  23
12005040.32
  33
0.00
  0
3DFACE
  8
mg_to_dxf
  62
2
  10
-35421220.63
  20
12004082.03
  30
0.00
  11
-35421217.83
  21
12004080.96
  31
0.00
  12
-35421201.11
  22
12004128.33
  32
0.00
  13
-35421203.94
  23
12004129.33
  33
0.00
  0
3DFACE
  8
mg_to_dxf
  62
2
  10
-35421240.11
  20
12004034.74
  30
0.00
  11
-35421237.33
  21
12004033.60
  31
0.00
  12
-35421217.83
  22
12004080.96
  32
0.00
  13
-35421220.63
  23
12004082.03
  33
0.00
  0
3DFACE
  8
mg_to_dxf
  62
2
  10
-35419759.36
  20
12002576.42
  30
0.00
  11
-35419761.40
  21
12002574.22
  31
0.00
  12
-35419722.46
  22
12002538.06
  32
0.00
  13
-35419720.34
  23
12002540.18
  33
0.00
  0
3DFACE
  8
mg_to_dxf
  62
2
  10
-35419720.34
  20
12002540.18
  30
0.00
  11
-35419722.46
  21
12002538.06
  31
0.00
  12
-35419686.26
  22
12002499.08
  32
0.00
  13
-35419684.15
  23
12002501.21
  33
0.00
  0
3DFACE
  8
mg_to_dxf
  62
2
  10
-35419684.15
  20
12002501.21
  30
0.00
  11
-35419686.26
  21
12002499.08
  31
0.00
  12
-35419627.77
  22
12002446.16
  32
0.00
  13
-35419625.72
  23
12002448.34
  33
0.00
  0
3DFACE
  8
mg_to_dxf
  62
2
  10
-35419625.72
  20
12002448.34
  30
0.00
  11
-35419627.77
  21
12002446.16
  31
0.00
  12
-35419566.55
  22
12002386.32
  32
0.00
  13
-35419564.44
  23
12002388.46
  33
0.00
  0
3DFACE
  8
mg_to_dxf
  62
2
  10
-35419564.44
  20
12002388.46
  30
0.00
  11
-35419566.55
  21
12002386.32
  31
0.00
  12
-35419527.57
  22
12002347.34
  32
0.00
  13
-35419525.47
  23
12002349.48
  33
0.00
  0
3DFACE
  8
mg_to_dxf
  62
2
  10
-35419525.47
  20
12002349.48
  30
0.00
  11
-35419527.57
  21
12002347.34
  31
0.00
  12
-35419488.58
  22
12002309.75
  32
0.00
  13
-35419486.50
  23
12002311.91
  33
0.00
  0
3DFACE
  8
mg_to_dxf
  62
2
  10
-35424818.80
  20
12007670.08
  30
0.00
  11
-35424819.28
  21
12007673.04
  31
0.00
  12
-35424897.25
  22
12007660.51
  32
0.00
  13
-35424896.74
  23
12007657.55
  33
0.00
  0
3DFACE
  8
mg_to_dxf
  62
2
  10
-35424896.74
  20
12007657.55
  30
0.00
  11
-35424897.25
  21
12007660.51
  31
0.00
  12
-35424958.51
  22
12007649.37
  32
0.00
  13
-35424957.97
  23
12007646.42
  33
0.00
  0
3DFACE
  8
mg_to_dxf
  62
2
  10
-35423734.30
  20
12006439.93
  30
0.00
  11
-35423732.20
  21
12006442.07
  31
0.00
  12
-35423771.19
  22
12006479.67
  32
0.00
  13
-35423773.27
  23
12006477.51
  33
0.00
  0
3DFACE
  8
mg_to_dxf
  62
2
  10
-35423695.33
  20
12006400.96
  30
0.00
  11
-35423693.21
  21
12006403.08
  31
0.00
  12
-35423732.20
  22
12006442.07
  32
0.00
  13
-35423734.30
  23
12006439.93
  33
0.00
  0
3DFACE
  8
mg_to_dxf
  62
2
  10
-35426733.44
  20
12009357.01
  30
0.00
  11
-35426735.52
  21
12009354.85
  31
0.00
  12
-35426657.57
  22
12009279.68
  32
0.00
  13
-35426655.49
  23
12009281.84
  33
0.00
  0
3DFACE
  8
mg_to_dxf
  62
2
  10
-35426655.49
  20
12009281.84
  30
0.00
  11
-35426657.57
  21
12009279.68
  31
0.00
  12
-35426657.57
  22
12009279.68
  32
0.00
  13
-35426655.49
  23
12009281.84
  33
0.00
  0
3DFACE
  8
mg_to_dxf
  62
2
  10
-35417077.71
  20
12000610.69
  30
0.00
  11
-35417075.35
  21
12000608.83
  31
0.00
  12
-35417041.94
  22
12000652.00
  32
0.00
  13
-35417044.31
  23
12000653.83
  33
0.00
  0
3DFACE
  8
mg_to_dxf
  62
2
  10
-35417111.11
  20
12000568.94
  30
0.00
  11
-35417108.77
  21
12000567.06
  31
0.00
  12
-35417075.35
  22
12000608.83
  32
0.00
  13
-35417077.71
  23
12000610.69
  33
0.00
  0
3DFACE
  8
mg_to_dxf
  62
2
  10
-35417022.56
  20
12001100.11
  30
0.00
  11
-35417024.71
  21
12001102.19
  31
0.00
  12
-35417063.72
  22
12001061.80
  32
0.00
  13
-35417061.51
  23
12001059.76
  33
0.00
  0
3DFACE
  8
mg_to_dxf
  62
2
  10
-35417061.51
  20
12001059.76
  30
0.00
  11
-35417063.72
  21
12001061.80
  31
0.00
  12
-35417102.72
  22
12001017.22
  32
0.00
  13
-35417100.46
  23
12001015.25
  33
0.00
  0
3DFACE
  8
mg_to_dxf
  62
2
  10
-35416273.31
  20
12000362.86
  30
0.00
  11
-35416276.13
  21
12000363.88
  31
0.00
  12
-35416292.84
  22
12000317.93
  32
0.00
  13
-35416290.01
  23
12000316.94
  33
0.00
  0
3DFACE
  8
mg_to_dxf
  62
2
  10
-35416290.01
  20
12000316.94
  30
0.00
  11
-35416292.84
  21
12000317.93
  31
0.00
  12
-35416309.55
  22
12000267.79
  32
0.00
  13
-35416306.71
  23
12000266.85
  33
0.00
  0
3DFACE
  8
mg_to_dxf
  62
2
  10
-35415596.69
  20
12000268.63
  30
0.00
  11
-35415599.69
  21
12000268.80
  31
0.00
  12
-35415602.47
  22
12000220.07
  32
0.00
  13
-35415599.48
  23
12000219.91
  33
0.00
  0
3DFACE
  8
mg_to_dxf
  62
2
  10
-35415599.48
  20
12000219.91
  30
0.00
  11
-35415602.47
  21
12000220.07
  31
0.00
  12
-35415605.26
  22
12000169.96
  32
0.00
  13
-35415602.26
  23
12000169.79
  33
0.00
  0
3DFACE
  8
mg_to_dxf
  62
2
  10
-35415563.50
  20
12004792.87
  30
0.00
  11
-35415560.50
  21
12004792.79
  31
0.00
  12
-35415560.50
  22
12004840.16
  32
0.00
  13
-35415563.50
  23
12004840.16
  33
0.00
  0
3DFACE
  8
mg_to_dxf
  62
2
  10
-35415566.28
  20
12004745.59
  30
0.00
  11
-35415563.28
  21
12004745.41
  31
0.00
  12
-35415560.50
  22
12004792.79
  32
0.00
  13
-35415563.50
  23
12004792.87
  33
0.00
  0
3DFACE
  8
mg_to_dxf
  62
2
  10
-35416297.63
  20
12003939.48
  30
0.00
  11
-35416296.35
  21
12003936.76
  31
0.00
  12
-35416190.56
  22
12003986.88
  32
0.00
  13
-35416191.84
  23
12003989.59
  33
0.00
  0
3DFACE
  8
mg_to_dxf
  62
2
  10
-35416297.63
  20
12003939.48
  30
0.00
  11
-35416296.35
  21
12003936.76
  31
0.00
  12
-35416296.35
  22
12003936.76
  32
0.00
  13
-35416297.63
  23
12003939.48
  33
0.00
  0
3DFACE
  8
mg_to_dxf
  62
2
  10
-35416278.79
  20
12002238.36
  30
0.00
  11
-35416281.79
  21
12002238.53
  31
0.00
  12
-35416284.57
  22
12002188.37
  32
0.00
  13
-35416281.57
  23
12002188.29
  33
0.00
  0
3DFACE
  8
mg_to_dxf
  62
2
  10
-35416281.57
  20
12002188.29
  30
0.00
  11
-35416284.57
  21
12002188.37
  31
0.00
  12
-35416284.57
  22
12002138.22
  32
0.00
  13
-35416281.57
  23
12002138.22
  33
0.00
  0
3DFACE
  8
mg_to_dxf
  62
2
  10
-35415591.34
  20
12002186.94
  30
0.00
  11
-35415588.34
  21
12002186.94
  31
0.00
  12
-35415588.34
  22
12002235.66
  32
0.00
  13
-35415591.34
  23
12002235.66
  33
0.00
  0
3DFACE
  8
mg_to_dxf
  62
2
  10
-35415591.34
  20
12002136.82
  30
0.00
  11
-35415588.34
  21
12002136.82
  31
0.00
  12
-35415588.34
  22
12002186.94
  32
0.00
  13
-35415591.34
  23
12002186.94
  33
0.00
  0
3DFACE
  8
mg_to_dxf
  62
2
  10
-35416230.80
  20
12002629.58
  30
0.00
  11
-35416229.55
  21
12002626.85
  31
0.00
  12
-35416179.42
  22
12002650.52
  32
0.00
  13
-35416180.70
  23
12002653.23
  33
0.00
  0
3DFACE
  8
mg_to_dxf
  62
2
  10
-35416283.68
  20
12002605.92
  30
0.00
  11
-35416282.46
  21
12002603.18
  31
0.00
  12
-35416229.55
  22
12002626.85
  32
0.00
  13
-35416230.80
  23
12002629.58
  33
0.00
  0
3DFACE
  8
mg_to_dxf
  62
2
  10
-35416228.05
  20
12003050.04
  30
0.00
  11
-35416226.73
  21
12003052.74
  31
0.00
  12
-35416282.43
  22
12003079.20
  32
0.00
  13
-35416283.72
  23
12003076.49
  33
0.00
  0
3DFACE
  8
mg_to_dxf
  62
2
  10
-35416180.73
  20
12003026.39
  30
0.00
  11
-35416179.39
  21
12003029.07
  31
0.00
  12
-35416226.73
  22
12003052.74
  32
0.00
  13
-35416228.05
  23
12003050.04
  33
0.00
  0
3DFACE
  8
mg_to_dxf
  62
2
  10
-35416279.00
  20
12003492.67
  30
0.00
  11
-35416276.00
  21
12003492.67
  31
0.00
  12
-35416276.00
  22
12003542.78
  32
0.00
  13
-35416279.00
  23
12003542.78
  33
0.00
  0
3DFACE
  8
mg_to_dxf
  62
2
  10
-35416279.00
  20
12003442.55
  30
0.00
  11
-35416276.00
  21
12003442.55
  31
0.00
  12
-35416276.00
  22
12003492.67
  32
0.00
  13
-35416279.00
  23
12003492.67
  33
0.00
  0
3DFACE
  8
mg_to_dxf
  62
2
  10
-35415585.77
  20
12003491.28
  30
0.00
  11
-35415582.77
  21
12003491.28
  31
0.00
  12
-35415582.77
  22
12003538.61
  32
0.00
  13
-35415585.77
  23
12003538.61
  33
0.00
  0
3DFACE
  8
mg_to_dxf
  62
2
  10
-35415585.77
  20
12003439.77
  30
0.00
  11
-35415582.77
  21
12003439.77
  31
0.00
  12
-35415582.77
  22
12003491.28
  32
0.00
  13
-35415585.77
  23
12003491.28
  33
0.00
  0
3DFACE
  8
mg_to_dxf
  62
2
  10
-35416207.26
  20
12001129.03
  30
0.00
  11
-35416208.54
  21
12001131.74
  31
0.00
  12
-35416314.34
  22
12001081.62
  32
0.00
  13
-35416313.05
  23
12001078.91
  33
0.00
  0
3DFACE
  8
mg_to_dxf
  62
2
  10
-35416313.05
  20
12001078.91
  30
0.00
  11
-35416314.34
  21
12001081.62
  31
0.00
  12
-35416314.34
  22
12001081.62
  32
0.00
  13
-35416313.05
  23
12001078.91
  33
0.00
  0
3DFACE
  8
mg_to_dxf
  62
2
  10
-35416278.89
  20
12000707.77
  30
0.00
  11
-35416276.11
  21
12000706.63
  31
0.00
  12
-35416259.39
  22
12000752.63
  32
0.00
  13
-35416262.21
  23
12000753.65
  33
0.00
  0
3DFACE
  8
mg_to_dxf
  62
2
  10
-35416301.14
  20
12000659.11
  30
0.00
  11
-35416298.41
  21
12000657.86
  31
0.00
  12
-35416276.11
  22
12000706.63
  32
0.00
  13
-35416278.89
  23
12000707.77
  33
0.00
  0
3DFACE
  8
mg_to_dxf
  62
2
  10
-35415596.90
  20
12000595.93
  30
0.00
  11
-35415593.91
  21
12000595.75
  31
0.00
  12
-35415591.12
  22
12000644.48
  32
0.00
  13
-35415594.12
  23
12000644.65
  33
0.00
  0
3DFACE
  8
mg_to_dxf
  62
2
  10
-35415599.69
  20
12000548.60
  30
0.00
  11
-35415596.69
  21
12000548.42
  31
0.00
  12
-35415593.91
  22
12000595.75
  32
0.00
  13
-35415596.90
  23
12000595.93
  33
0.00
  0
3DFACE
  8
mg_to_dxf
  62
2
  10
-35416284.36
  20
11998101.23
  30
0.00
  11
-35416287.35
  21
11998101.40
  31
0.00
  12
-35416290.14
  22
11998052.59
  32
0.00
  13
-35416287.14
  23
11998052.59
  33
0.00
  0
3DFACE
  8
mg_to_dxf
  62
2
  10
-35416287.14
  20
11998052.59
  30
0.00
  11
-35416290.14
  21
11998052.59
  31
0.00
  12
-35416287.35
  22
11998001.00
  32
0.00
  13
-35416284.36
  23
11998001.17
  33
0.00
  0
3DFACE
  8
mg_to_dxf
  62
2
  10
-35415605.26
  20
11998049.81
  30
0.00
  11
-35415602.26
  21
11998049.81
  31
0.00
  12
-35415602.26
  22
11998099.92
  32
0.00
  13
-35415605.26
  23
11998099.92
  33
0.00
  0
3DFACE
  8
mg_to_dxf
  62
2
  10
-35415605.26
  20
11997999.69
  30
0.00
  11
-35415602.26
  21
11997999.69
  31
0.00
  12
-35415602.26
  22
11998049.81
  32
0.00
  13
-35415605.26
  23
11998049.81
  33
0.00
  0
3DFACE
  8
mg_to_dxf
  62
2
  10
-35414850.77
  20
12004790.05
  30
0.00
  11
-35414847.77
  21
12004790.05
  31
0.00
  12
-35414847.77
  22
12004837.38
  32
0.00
  13
-35414850.77
  23
12004837.38
  33
0.00
  0
3DFACE
  8
mg_to_dxf
  62
2
  10
-35414850.77
  20
12004742.72
  30
0.00
  11
-35414847.77
  21
12004742.72
  31
0.00
  12
-35414847.77
  22
12004790.05
  32
0.00
  13
-35414850.77
  23
12004790.05
  33
0.00
  0
3DFACE
  8
mg_to_dxf
  62
2
  10
-35414799.79
  20
12003928.35
  30
0.00
  11
-35414798.53
  21
12003925.62
  31
0.00
  12
-35414748.41
  22
12003949.29
  32
0.00
  13
-35414749.69
  23
12003952.00
  33
0.00
  0
3DFACE
  8
mg_to_dxf
  62
2
  10
-35414852.67
  20
12003904.69
  30
0.00
  11
-35414851.45
  21
12003901.95
  31
0.00
  12
-35414798.53
  22
12003925.62
  32
0.00
  13
-35414799.79
  23
12003928.35
  33
0.00
  0
3DFACE
  8
mg_to_dxf
  62
2
  10
-35414850.77
  20
12003487.10
  30
0.00
  11
-35414847.77
  21
12003487.10
  31
0.00
  12
-35414847.77
  22
12003535.82
  32
0.00
  13
-35414850.77
  23
12003535.82
  33
0.00
  0
3DFACE
  8
mg_to_dxf
  62
2
  10
-35414850.77
  20
12003435.59
  30
0.00
  11
-35414847.77
  21
12003435.59
  31
0.00
  12
-35414847.77
  22
12003487.10
  32
0.00
  13
-35414850.77
  23
12003487.10
  33
0.00
  0
3DFACE
  8
mg_to_dxf
  62
2
  10
-35414721.88
  20
12003063.97
  30
0.00
  11
-35414720.54
  21
12003066.65
  31
0.00
  12
-35414770.68
  22
12003091.72
  32
0.00
  13
-35414771.96
  23
12003089.01
  33
0.00
  0
3DFACE
  8
mg_to_dxf
  62
2
  10
-35414771.96
  20
12003089.01
  30
0.00
  11
-35414770.68
  21
12003091.72
  31
0.00
  12
-35414826.39
  22
12003116.79
  32
0.00
  13
-35414827.62
  23
12003114.06
  33
0.00
  0
3DFACE
  8
mg_to_dxf
  62
2
  10
-35414726.10
  20
12002603.21
  30
0.00
  11
-35414727.45
  21
12002605.89
  31
0.00
  12
-35414777.57
  22
12002580.83
  32
0.00
  13
-35414776.20
  23
12002578.16
  33
0.00
  0
3DFACE
  8
mg_to_dxf
  62
2
  10
-35414776.20
  20
12002578.16
  30
0.00
  11
-35414777.57
  21
12002580.83
  31
0.00
  12
-35414827.70
  22
12002554.37
  32
0.00
  13
-35414826.30
  23
12002551.72
  33
0.00
  0
3DFACE
  8
mg_to_dxf
  62
2
  10
-35414859.13
  20
12002182.76
  30
0.00
  11
-35414856.13
  21
12002182.76
  31
0.00
  12
-35414856.13
  22
12002232.87
  32
0.00
  13
-35414859.13
  23
12002232.87
  33
0.00
  0
3DFACE
  8
mg_to_dxf
  62
2
  10
-35414859.13
  20
12002134.04
  30
0.00
  11
-35414856.13
  21
12002134.04
  31
0.00
  12
-35414856.13
  22
12002182.76
  32
0.00
  13
-35414859.13
  23
12002182.76
  33
0.00
  0
3DFACE
  8
mg_to_dxf
  62
2
  10
-35414884.18
  20
11997744.97
  30
0.00
  11
-35414881.18
  21
11997744.93
  31
0.00
  12
-35414878.40
  22
11997995.51
  32
0.00
  13
-35414881.40
  23
11997995.52
  33
0.00
  0
3DFACE
  8
mg_to_dxf
  62
2
  10
-35414881.40
  20
11997995.52
  30
0.00
  11
-35414878.40
  21
11997995.51
  31
0.00
  12
-35414878.40
  22
11998047.01
  32
0.00
  13
-35414881.40
  23
11998047.03
  33
0.00
  0
3DFACE
  8
mg_to_dxf
  62
2
  10
-35414881.40
  20
11998047.03
  30
0.00
  11
-35414878.40
  21
11998047.01
  31
0.00
  12
-35414875.62
  22
11998314.28
  32
0.00
  13
-35414878.62
  23
11998314.30
  33
0.00
  0
3DFACE
  8
mg_to_dxf
  62
2
  10
-35414878.62
  20
11998314.30
  30
0.00
  11
-35414875.62
  21
11998314.28
  31
0.00
  12
-35414875.62
  22
11998364.41
  32
0.00
  13
-35414878.62
  23
11998364.41
  33
0.00
  0
3DFACE
  8
mg_to_dxf
  62
2
  10
-35414878.62
  20
11998364.41
  30
0.00
  11
-35414875.62
  21
11998364.41
  31
0.00
  12
-35414875.62
  22
11998630.28
  32
0.00
  13
-35414878.62
  23
11998630.28
  33
0.00
  0
3DFACE
  8
mg_to_dxf
  62
2
  10
-35414864.69
  20
12000215.81
  30
0.00
  11
-35414861.69
  21
12000215.81
  31
0.00
  12
-35414861.69
  22
12000264.54
  32
0.00
  13
-35414864.69
  23
12000264.54
  33
0.00
  0
3DFACE
  8
mg_to_dxf
  62
2
  10
-35414864.69
  20
12000164.31
  30
0.00
  11
-35414861.69
  21
12000164.31
  31
0.00
  12
-35414861.69
  22
12000215.81
  32
0.00
  13
-35414864.69
  23
12000215.81
  33
0.00
  0
3DFACE
  8
mg_to_dxf
  62
2
  10
-35414867.48
  20
12000590.27
  30
0.00
  11
-35414864.48
  21
12000590.27
  31
0.00
  12
-35414864.48
  22
12000640.39
  32
0.00
  13
-35414867.48
  23
12000640.39
  33
0.00
  0
3DFACE
  8
mg_to_dxf
  62
2
  10
-35414867.48
  20
12000541.55
  30
0.00
  11
-35414864.48
  21
12000541.55
  31
0.00
  12
-35414864.48
  22
12000590.27
  32
0.00
  13
-35414867.48
  23
12000590.27
  33
0.00
  0
3DFACE
  8
mg_to_dxf
  62
2
  10
-35414759.54
  20
12001053.86
  30
0.00
  11
-35414760.83
  21
12001056.57
  31
0.00
  12
-35414866.62
  22
12001006.45
  32
0.00
  13
-35414865.34
  23
12001003.74
  33
0.00
  0
3DFACE
  8
mg_to_dxf
  62
2
  10
-35414865.34
  20
12001003.74
  30
0.00
  11
-35414866.62
  21
12001006.45
  31
0.00
  12
-35414866.62
  22
12001006.45
  32
0.00
  13
-35414865.34
  23
12001003.74
  33
0.00
  0
3DFACE
  8
mg_to_dxf
  62
2
  10
-35417030.70
  20
12008999.56
  30
0.00
  11
-35417027.70
  21
12008999.56
  31
0.00
  12
-35417027.70
  22
12009048.29
  32
0.00
  13
-35417030.70
  23
12009048.29
  33
0.00
  0
3DFACE
  8
mg_to_dxf
  62
2
  10
-35417030.70
  20
12008949.45
  30
0.00
  11
-35417027.70
  21
12008949.45
  31
0.00
  12
-35417027.70
  22
12008999.56
  32
0.00
  13
-35417030.70
  23
12008999.56
  33
0.00
  0
3DFACE
  8
mg_to_dxf
  62
2
  10
-35417030.70
  20
12009375.41
  30
0.00
  11
-35417027.70
  21
12009375.41
  31
0.00
  12
-35417027.70
  22
12009422.74
  32
0.00
  13
-35417030.70
  23
12009422.74
  33
0.00
  0
3DFACE
  8
mg_to_dxf
  62
2
  10
-35417030.70
  20
12009323.91
  30
0.00
  11
-35417027.70
  21
12009323.91
  31
0.00
  12
-35417027.70
  22
12009375.41
  32
0.00
  13
-35417030.70
  23
12009375.41
  33
0.00
  0
3DFACE
  8
mg_to_dxf
  62
2
  10
-35416253.95
  20
12009372.63
  30
0.00
  11
-35416250.95
  21
12009372.63
  31
0.00
  12
-35416250.95
  22
12009418.57
  32
0.00
  13
-35416253.95
  23
12009418.57
  33
0.00
  0
3DFACE
  8
mg_to_dxf
  62
2
  10
-35416253.95
  20
12009321.12
  30
0.00
  11
-35416250.95
  21
12009321.12
  31
0.00
  12
-35416250.95
  22
12009372.63
  32
0.00
  13
-35416253.95
  23
12009372.63
  33
0.00
  0
3DFACE
  8
mg_to_dxf
  62
2
  10
-35415549.58
  20
12009368.45
  30
0.00
  11
-35415546.58
  21
12009368.45
  31
0.00
  12
-35415546.58
  22
12009415.78
  32
0.00
  13
-35415549.58
  23
12009415.78
  33
0.00
  0
3DFACE
  8
mg_to_dxf
  62
2
  10
-35415549.58
  20
12009319.73
  30
0.00
  11
-35415546.58
  21
12009319.73
  31
0.00
  12
-35415546.58
  22
12009368.45
  32
0.00
  13
-35415549.58
  23
12009368.45
  33
0.00
  0
3DFACE
  8
mg_to_dxf
  62
2
  10
-35415549.58
  20
12008994.04
  30
0.00
  11
-35415546.58
  21
12008993.96
  31
0.00
  12
-35415546.58
  22
12009042.72
  32
0.00
  13
-35415549.58
  23
12009042.72
  33
0.00
  0
3DFACE
  8
mg_to_dxf
  62
2
  10
-35415552.36
  20
12008942.57
  30
0.00
  11
-35415549.36
  21
12008942.41
  31
0.00
  12
-35415546.58
  22
12008993.96
  32
0.00
  13
-35415549.58
  23
12008994.04
  33
0.00
  0
3DFACE
  8
mg_to_dxf
  62
2
  10
-35416273.44
  20
12008996.78
  30
0.00
  11
-35416270.44
  21
12008996.78
  31
0.00
  12
-35416270.44
  22
12009045.50
  32
0.00
  13
-35416273.44
  23
12009045.50
  33
0.00
  0
3DFACE
  8
mg_to_dxf
  62
2
  10
-35416273.44
  20
12008943.88
  30
0.00
  11
-35416270.44
  21
12008943.88
  31
0.00
  12
-35416270.44
  22
12008996.78
  32
0.00
  13
-35416273.44
  23
12008996.78
  33
0.00
  0
3DFACE
  8
mg_to_dxf
  62
2
  10
-35415566.28
  20
12007400.11
  30
0.00
  11
-35415563.28
  21
12007400.11
  31
0.00
  12
-35415563.28
  22
12007450.23
  32
0.00
  13
-35415566.28
  23
12007450.23
  33
0.00
  0
3DFACE
  8
mg_to_dxf
  62
2
  10
-35415566.28
  20
12007352.79
  30
0.00
  11
-35415563.28
  21
12007352.79
  31
0.00
  12
-35415563.28
  22
12007400.11
  32
0.00
  13
-35415566.28
  23
12007400.11
  33
0.00
  0
3DFACE
  8
mg_to_dxf
  62
2
  10
-35416239.18
  20
12005626.70
  30
0.00
  11
-35416237.87
  21
12005629.40
  31
0.00
  12
-35416288.00
  22
12005653.07
  32
0.00
  13
-35416289.28
  23
12005650.36
  33
0.00
  0
3DFACE
  8
mg_to_dxf
  62
2
  10
-35416189.08
  20
12005601.65
  30
0.00
  11
-35416187.74
  21
12005604.34
  31
0.00
  12
-35416237.87
  22
12005629.40
  32
0.00
  13
-35416239.18
  23
12005626.70
  33
0.00
  0
3DFACE
  8
mg_to_dxf
  62
2
  10
-35415571.85
  20
12006097.17
  30
0.00
  11
-35415568.85
  21
12006097.17
  31
0.00
  12
-35415568.85
  22
12006147.28
  32
0.00
  13
-35415571.85
  23
12006147.28
  33
0.00
  0
3DFACE
  8
mg_to_dxf
  62
2
  10
-35415571.85
  20
12006047.05
  30
0.00
  11
-35415568.85
  21
12006047.05
  31
0.00
  12
-35415568.85
  22
12006097.17
  32
0.00
  13
-35415571.85
  23
12006097.17
  33
0.00
  0
3DFACE
  8
mg_to_dxf
  62
2
  10
-35416180.70
  20
12006905.98
  30
0.00
  11
-35416179.42
  21
12006908.69
  31
0.00
  12
-35416232.32
  22
12006933.75
  32
0.00
  13
-35416233.60
  23
12006931.03
  33
0.00
  0
3DFACE
  8
mg_to_dxf
  62
2
  10
-35416233.60
  20
12006931.03
  30
0.00
  11
-35416232.32
  21
12006933.75
  31
0.00
  12
-35416282.43
  22
12006957.41
  32
0.00
  13
-35416283.71
  23
12006954.70
  33
0.00
  0
3DFACE
  8
mg_to_dxf
  62
2
  10
-35414819.93
  20
12011432.84
  30
0.00
  11
-35414822.93
  21
12011432.84
  31
0.00
  12
-35414822.93
  22
12011384.12
  32
0.00
  13
-35414819.93
  23
12011384.12
  33
0.00
  0
3DFACE
  8
mg_to_dxf
  62
2
  10
-35414819.93
  20
12011384.12
  30
0.00
  11
-35414822.93
  21
12011384.12
  31
0.00
  12
-35414822.93
  22
12011334.02
  32
0.00
  13
-35414819.93
  23
12011334.00
  33
0.00
  0
3DFACE
  8
mg_to_dxf
  62
2
  10
-35414819.93
  20
12011334.00
  30
0.00
  11
-35414822.93
  21
12011334.02
  31
0.00
  12
-35414825.72
  22
12011066.75
  32
0.00
  13
-35414822.72
  23
12011066.73
  33
0.00
  0
3DFACE
  8
mg_to_dxf
  62
2
  10
-35414822.72
  20
12011066.73
  30
0.00
  11
-35414825.72
  21
12011066.75
  31
0.00
  12
-35414825.72
  22
12010800.86
  32
0.00
  13
-35414822.72
  23
12010800.86
  33
0.00
  0
3DFACE
  8
mg_to_dxf
  62
2
  10
-35414822.93
  20
12008941.11
  30
0.00
  11
-35414819.93
  21
12008941.09
  31
0.00
  12
-35414817.15
  22
12009415.77
  32
0.00
  13
-35414820.15
  23
12009415.79
  33
0.00
  0
3DFACE
  8
mg_to_dxf
  62
2
  10
-35414834.07
  20
12007398.72
  30
0.00
  11
-35414831.07
  21
12007398.72
  31
0.00
  12
-35414831.07
  22
12007447.44
  32
0.00
  13
-35414834.07
  23
12007447.44
  33
0.00
  0
3DFACE
  8
mg_to_dxf
  62
2
  10
-35414834.07
  20
12007348.61
  30
0.00
  11
-35414831.07
  21
12007348.61
  31
0.00
  12
-35414831.07
  22
12007398.72
  32
0.00
  13
-35414834.07
  23
12007398.72
  33
0.00
  0
3DFACE
  8
mg_to_dxf
  62
2
  10
-35414784.58
  20
12006957.40
  30
0.00
  11
-35414785.90
  21
12006954.71
  31
0.00
  12
-35414735.77
  22
12006931.03
  32
0.00
  13
-35414734.49
  23
12006933.75
  33
0.00
  0
3DFACE
  8
mg_to_dxf
  62
2
  10
-35414834.68
  20
12006982.45
  30
0.00
  11
-35414836.02
  21
12006979.77
  31
0.00
  12
-35414785.90
  22
12006954.71
  32
0.00
  13
-35414784.58
  23
12006957.40
  33
0.00
  0
3DFACE
  8
mg_to_dxf
  62
2
  10
-35414836.85
  20
12006094.43
  30
0.00
  11
-35414833.85
  21
12006094.34
  31
0.00
  12
-35414833.85
  22
12006144.50
  32
0.00
  13
-35414836.85
  23
12006144.50
  33
0.00
  0
3DFACE
  8
mg_to_dxf
  62
2
  10
-35414839.64
  20
12006044.35
  30
0.00
  11
-35414836.64
  21
12006044.19
  31
0.00
  12
-35414833.85
  22
12006094.34
  32
0.00
  13
-35414836.85
  23
12006094.43
  33
0.00
  0
3DFACE
  8
mg_to_dxf
  62
2
  10
-35414840.25
  20
12005679.51
  30
0.00
  11
-35414841.59
  21
12005676.82
  31
0.00
  12
-35414741.37
  22
12005626.71
  32
0.00
  13
-35414740.02
  23
12005629.39
  33
0.00
  0
3DFACE
  8
mg_to_dxf
  62
2
  10
-35414840.25
  20
12005679.51
  30
0.00
  11
-35414841.59
  21
12005676.82
  31
0.00
  12
-35414841.59
  22
12005676.82
  32
0.00
  13
-35414840.25
  23
12005679.51
  33
0.00
  0
3DFACE
  8
mg_to_dxf
  62
2
  10
-35407918.22
  20
12011409.18
  30
0.00
  11
-35407921.22
  21
12011409.18
  31
0.00
  12
-35407921.22
  22
12011359.07
  32
0.00
  13
-35407918.22
  23
12011359.07
  33
0.00
  0
3DFACE
  8
mg_to_dxf
  62
2
  10
-35407918.22
  20
12011359.07
  30
0.00
  11
-35407921.22
  21
12011359.07
  31
0.00
  12
-35407921.22
  22
12011308.96
  32
0.00
  13
-35407918.22
  23
12011308.95
  33
0.00
  0
3DFACE
  8
mg_to_dxf
  62
2
  10
-35407918.22
  20
12011308.95
  30
0.00
  11
-35407921.22
  21
12011308.96
  31
0.00
  12
-35407924.00
  22
12010874.64
  32
0.00
  13
-35407921.00
  23
12010874.63
  33
0.00
  0
3DFACE
  8
mg_to_dxf
  62
2
  10
-35407921.00
  20
12010874.63
  30
0.00
  11
-35407924.00
  21
12010874.64
  31
0.00
  12
-35407924.00
  22
12010773.02
  32
0.00
  13
-35407921.00
  23
12010773.02
  33
0.00
  0
3DFACE
  8
mg_to_dxf
  62
2
  10
-35407934.92
  20
12009389.25
  30
0.00
  11
-35407937.92
  21
12009389.42
  31
0.00
  12
-35407940.71
  22
12009342.01
  32
0.00
  13
-35407937.70
  23
12009342.00
  33
0.00
  0
3DFACE
  8
mg_to_dxf
  62
2
  10
-35407937.70
  20
12009342.00
  30
0.00
  11
-35407940.71
  21
12009342.01
  31
0.00
  12
-35407937.92
  22
12009290.48
  32
0.00
  13
-35407934.92
  23
12009290.52
  33
0.00
  0
3DFACE
  8
mg_to_dxf
  62
2
  10
-35407934.92
  20
12009290.52
  30
0.00
  11
-35407937.92
  21
12009290.48
  31
0.00
  12
-35407940.71
  22
12009183.33
  32
0.00
  13
-35407937.71
  23
12009183.29
  33
0.00
  0
3DFACE
  8
mg_to_dxf
  62
2
  10
-35407937.71
  20
12009183.29
  30
0.00
  11
-35407940.71
  21
12009183.33
  31
0.00
  12
-35407940.71
  22
12009152.69
  32
0.00
  13
-35407937.71
  23
12009152.69
  33
0.00
  0
3DFACE
  8
mg_to_dxf
  62
2
  10
-35407937.71
  20
12009152.69
  30
0.00
  11
-35407940.71
  21
12009152.69
  31
0.00
  12
-35407940.71
  22
12009120.67
  32
0.00
  13
-35407937.71
  23
12009120.67
  33
0.00
  0
3DFACE
  8
mg_to_dxf
  62
2
  10
-35407937.71
  20
12009120.67
  30
0.00
  11
-35407940.71
  21
12009120.67
  31
0.00
  12
-35407940.71
  22
12008914.65
  32
0.00
  13
-35407937.71
  23
12008914.65
  33
0.00
  0
3DFACE
  8
mg_to_dxf
  62
2
  10
-35407951.84
  20
12007372.27
  30
0.00
  11
-35407948.84
  21
12007372.27
  31
0.00
  12
-35407948.84
  22
12007422.39
  32
0.00
  13
-35407951.84
  23
12007422.39
  33
0.00
  0
3DFACE
  8
mg_to_dxf
  62
2
  10
-35407951.84
  20
12007322.16
  30
0.00
  11
-35407948.84
  21
12007322.16
  31
0.00
  12
-35407948.84
  22
12007372.27
  32
0.00
  13
-35407951.84
  23
12007372.27
  33
0.00
  0
3DFACE
  8
mg_to_dxf
  62
2
  10
-35408051.22
  20
12006910.07
  30
0.00
  11
-35408049.91
  21
12006907.38
  31
0.00
  12
-35407949.69
  22
12006956.10
  32
0.00
  13
-35407951.00
  23
12006958.80
  33
0.00
  0
3DFACE
  8
mg_to_dxf
  62
2
  10
-35407951.63
  20
12006117.96
  30
0.00
  11
-35407954.62
  21
12006118.13
  31
0.00
  12
-35407957.41
  22
12006069.37
  32
0.00
  13
-35407954.41
  23
12006069.28
  33
0.00
  0
3DFACE
  8
mg_to_dxf
  62
2
  10
-35407954.41
  20
12006069.28
  30
0.00
  11
-35407957.41
  21
12006069.37
  31
0.00
  12
-35407957.41
  22
12006019.21
  32
0.00
  13
-35407954.41
  23
12006019.21
  33
0.00
  0
3DFACE
  8
mg_to_dxf
  62
2
  10
-35408059.53
  20
12005607.15
  30
0.00
  11
-35408058.31
  21
12005604.41
  31
0.00
  12
-35408005.38
  22
12005628.09
  32
0.00
  13
-35408006.67
  23
12005630.80
  33
0.00
  0
3DFACE
  8
mg_to_dxf
  62
2
  10
-35408006.67
  20
12005630.80
  30
0.00
  11
-35408005.38
  21
12005628.09
  31
0.00
  12
-35407955.24
  22
12005653.16
  32
0.00
  13
-35407956.58
  23
12005655.84
  33
0.00
  0
3DFACE
  8
mg_to_dxf
  62
2
  10
-35407954.41
  20
12004763.60
  30
0.00
  11
-35407957.41
  21
12004763.60
  31
0.00
  12
-35407957.41
  22
12004716.27
  32
0.00
  13
-35407954.41
  23
12004716.27
  33
0.00
  0
3DFACE
  8
mg_to_dxf
  62
2
  10
-35407954.41
  20
12004813.71
  30
0.00
  11
-35407957.41
  21
12004813.71
  31
0.00
  12
-35407957.41
  22
12004763.60
  32
0.00
  13
-35407954.41
  23
12004763.60
  33
0.00
  0
3DFACE
  8
mg_to_dxf
  62
2
  10
-35407979.47
  20
11998624.72
  30
0.00
  11
-35407982.47
  21
11998624.72
  31
0.00
  12
-35407982.47
  22
11998503.61
  32
0.00
  13
-35407979.47
  23
11998503.60
  33
0.00
  0
3DFACE
  8
mg_to_dxf
  62
2
  10
-35407979.47
  20
11998503.60
  30
0.00
  11
-35407982.47
  21
11998503.61
  31
0.00
  12
-35407985.25
  22
11998070.69
  32
0.00
  13
-35407982.25
  23
11998070.68
  33
0.00
  0
3DFACE
  8
mg_to_dxf
  62
2
  10
-35407982.25
  20
11998070.68
  30
0.00
  11
-35407985.25
  21
11998070.69
  31
0.00
  12
-35407985.25
  22
11997725.46
  32
0.00
  13
-35407982.25
  23
11997725.46
  33
0.00
  0
3DFACE
  8
mg_to_dxf
  62
2
  10
-35407988.03
  20
12000189.37
  30
0.00
  11
-35407985.03
  21
12000189.37
  31
0.00
  12
-35407985.03
  22
12000240.87
  32
0.00
  13
-35407988.03
  23
12000240.87
  33
0.00
  0
3DFACE
  8
mg_to_dxf
  62
2
  10
-35407988.03
  20
12000137.86
  30
0.00
  11
-35407985.03
  21
12000137.86
  31
0.00
  12
-35407985.03
  22
12000189.37
  32
0.00
  13
-35407988.03
  23
12000189.37
  33
0.00
  0
3DFACE
  8
mg_to_dxf
  62
2
  10
-35407985.25
  20
12000566.61
  30
0.00
  11
-35407982.25
  21
12000566.61
  31
0.00
  12
-35407982.25
  22
12000616.72
  32
0.00
  13
-35407985.25
  23
12000616.72
  33
0.00
  0
3DFACE
  8
mg_to_dxf
  62
2
  10
-35407985.25
  20
12000516.49
  30
0.00
  11
-35407982.25
  21
12000516.49
  31
0.00
  12
-35407982.25
  22
12000566.61
  32
0.00
  13
-35407985.25
  23
12000566.61
  33
0.00
  0
3DFACE
  8
mg_to_dxf
  62
2
  10
-35408080.52
  20
12001031.50
  30
0.00
  11
-35408081.86
  21
12001028.81
  31
0.00
  12
-35408034.52
  22
12001005.14
  32
0.00
  13
-35408033.21
  23
12001007.84
  33
0.00
  0
3DFACE
  8
mg_to_dxf
  62
2
  10
-35408033.21
  20
12001007.84
  30
0.00
  11
-35408034.52
  21
12001005.14
  31
0.00
  12
-35407981.61
  22
12000980.08
  32
0.00
  13
-35407980.32
  23
12000982.79
  33
0.00
  0
3DFACE
  8
mg_to_dxf
  62
2
  10
-35407976.90
  20
12002157.71
  30
0.00
  11
-35407973.90
  21
12002157.71
  31
0.00
  12
-35407973.90
  22
12002206.43
  32
0.00
  13
-35407976.90
  23
12002206.43
  33
0.00
  0
3DFACE
  8
mg_to_dxf
  62
2
  10
-35407976.90
  20
12002107.59
  30
0.00
  11
-35407973.90
  21
12002107.59
  31
0.00
  12
-35407973.90
  22
12002157.71
  32
0.00
  13
-35407976.90
  23
12002157.71
  33
0.00
  0
3DFACE
  8
mg_to_dxf
  62
2
  10
-35408102.79
  20
12002579.44
  30
0.00
  11
-35408104.14
  21
12002576.76
  31
0.00
  12
-35408054.01
  22
12002551.69
  32
0.00
  13
-35408052.70
  23
12002554.39
  33
0.00
  0
3DFACE
  8
mg_to_dxf
  62
2
  10
-35408052.70
  20
12002554.39
  30
0.00
  11
-35408054.01
  21
12002551.69
  31
0.00
  12
-35408003.88
  22
12002528.02
  32
0.00
  13
-35408002.60
  23
12002530.74
  33
0.00
  0
3DFACE
  8
mg_to_dxf
  62
2
  10
-35408051.21
  20
12003066.67
  30
0.00
  11
-35408049.93
  21
12003063.96
  31
0.00
  12
-35407997.00
  22
12003090.42
  32
0.00
  13
-35407998.34
  23
12003093.10
  33
0.00
  0
3DFACE
  8
mg_to_dxf
  62
2
  10
-35408104.08
  20
12003043.02
  30
0.00
  11
-35408102.85
  21
12003040.28
  31
0.00
  12
-35408049.93
  22
12003063.96
  32
0.00
  13
-35408051.21
  23
12003066.67
  33
0.00
  0
3DFACE
  8
mg_to_dxf
  62
2
  10
-35407971.33
  20
12003460.65
  30
0.00
  11
-35407968.33
  21
12003460.65
  31
0.00
  12
-35407968.33
  22
12003510.76
  32
0.00
  13
-35407971.33
  23
12003510.76
  33
0.00
  0
3DFACE
  8
mg_to_dxf
  62
2
  10
-35407971.33
  20
12003410.54
  30
0.00
  11
-35407968.33
  21
12003410.54
  31
0.00
  12
-35407968.33
  22
12003460.65
  32
0.00
  13
-35407971.33
  23
12003460.65
  33
0.00
  0
3DFACE
  8
mg_to_dxf
  62
2
  10
-35408063.79
  20
12003926.92
  30
0.00
  11
-35408065.19
  21
12003924.27
  31
0.00
  12
-35408017.83
  22
12003899.19
  32
0.00
  13
-35408016.49
  23
12003901.88
  33
0.00
  0
3DFACE
  8
mg_to_dxf
  62
2
  10
-35408016.49
  20
12003901.88
  30
0.00
  11
-35408017.83
  21
12003899.19
  31
0.00
  12
-35407967.69
  22
12003875.51
  32
0.00
  13
-35407966.41
  23
12003878.23
  33
0.00
  0
3DFACE
  8
mg_to_dxf
  62
2
  10
-35407244.69
  20
12004762.21
  30
0.00
  11
-35407241.69
  21
12004762.21
  31
0.00
  12
-35407241.69
  22
12004809.53
  32
0.00
  13
-35407244.69
  23
12004809.53
  33
0.00
  0
3DFACE
  8
mg_to_dxf
  62
2
  10
-35407244.69
  20
12004712.09
  30
0.00
  11
-35407241.69
  21
12004712.09
  31
0.00
  12
-35407241.69
  22
12004762.21
  32
0.00
  13
-35407244.69
  23
12004762.21
  33
0.00
  0
3DFACE
  8
mg_to_dxf
  62
2
  10
-35407244.69
  20
12003457.87
  30
0.00
  11
-35407241.69
  21
12003457.87
  31
0.00
  12
-35407241.69
  22
12003507.98
  32
0.00
  13
-35407244.69
  23
12003507.98
  33
0.00
  0
3DFACE
  8
mg_to_dxf
  62
2
  10
-35407244.69
  20
12003407.75
  30
0.00
  11
-35407241.69
  21
12003407.75
  31
0.00
  12
-35407241.69
  22
12003457.87
  32
0.00
  13
-35407244.69
  23
12003457.87
  33
0.00
  0
3DFACE
  8
mg_to_dxf
  62
2
  10
-35407250.26
  20
12002154.92
  30
0.00
  11
-35407247.26
  21
12002154.92
  31
0.00
  12
-35407247.26
  22
12002205.03
  32
0.00
  13
-35407250.26
  23
12002205.03
  33
0.00
  0
3DFACE
  8
mg_to_dxf
  62
2
  10
-35407250.26
  20
12002104.81
  30
0.00
  11
-35407247.26
  21
12002104.81
  31
0.00
  12
-35407247.26
  22
12002154.92
  32
0.00
  13
-35407250.26
  23
12002154.92
  33
0.00
  0
3DFACE
  8
mg_to_dxf
  62
2
  10
-35407250.04
  20
12000612.46
  30
0.00
  11
-35407253.04
  21
12000612.63
  31
0.00
  12
-35407255.82
  22
12000563.87
  32
0.00
  13
-35407252.82
  23
12000563.78
  33
0.00
  0
3DFACE
  8
mg_to_dxf
  62
2
  10
-35407252.82
  20
12000563.78
  30
0.00
  11
-35407255.82
  21
12000563.87
  31
0.00
  12
-35407255.82
  22
12000515.10
  32
0.00
  13
-35407252.82
  23
12000515.10
  33
0.00
  0
3DFACE
  8
mg_to_dxf
  62
2
  10
-35407264.18
  20
12000186.58
  30
0.00
  11
-35407261.18
  21
12000186.58
  31
0.00
  12
-35407261.18
  22
12000236.69
  32
0.00
  13
-35407264.18
  23
12000236.69
  33
0.00
  0
3DFACE
  8
mg_to_dxf
  62
2
  10
-35407264.18
  20
12000136.47
  30
0.00
  11
-35407261.18
  21
12000136.47
  31
0.00
  12
-35407261.18
  22
12000186.58
  32
0.00
  13
-35407264.18
  23
12000186.58
  33
0.00
  0
3DFACE
  8
mg_to_dxf
  62
2
  10
-35407275.31
  20
11998017.79
  30
0.00
  11
-35407272.31
  21
11998017.79
  31
0.00
  12
-35407272.31
  22
11998066.51
  32
0.00
  13
-35407275.31
  23
11998066.51
  33
0.00
  0
3DFACE
  8
mg_to_dxf
  62
2
  10
-35407275.31
  20
11997969.07
  30
0.00
  11
-35407272.31
  21
11997969.07
  31
0.00
  12
-35407272.31
  22
11998017.79
  32
0.00
  13
-35407275.31
  23
11998017.79
  33
0.00
  0
3DFACE
  8
mg_to_dxf
  62
2
  10
-35406587.65
  20
11998016.44
  30
0.00
  11
-35406584.65
  21
11998016.36
  31
0.00
  12
-35406584.65
  22
11998063.73
  32
0.00
  13
-35406587.65
  23
11998063.73
  33
0.00
  0
3DFACE
  8
mg_to_dxf
  62
2
  10
-35406590.43
  20
11997963.58
  30
0.00
  11
-35406587.43
  21
11997963.42
  31
0.00
  12
-35406584.65
  22
11998016.36
  32
0.00
  13
-35406587.65
  23
11998016.44
  33
0.00
  0
3DFACE
  8
mg_to_dxf
  62
2
  10
-35406543.10
  20
12000183.80
  30
0.00
  11
-35406540.10
  21
12000183.80
  31
0.00
  12
-35406540.10
  22
12000233.91
  32
0.00
  13
-35406543.10
  23
12000233.91
  33
0.00
  0
3DFACE
  8
mg_to_dxf
  62
2
  10
-35406543.10
  20
12000135.08
  30
0.00
  11
-35406540.10
  21
12000135.08
  31
0.00
  12
-35406540.10
  22
12000183.80
  32
0.00
  13
-35406543.10
  23
12000183.80
  33
0.00
  0
3DFACE
  8
mg_to_dxf
  62
2
  10
-35406557.02
  20
12000559.65
  30
0.00
  11
-35406554.02
  21
12000559.65
  31
0.00
  12
-35406554.02
  22
12000609.76
  32
0.00
  13
-35406557.02
  23
12000609.76
  33
0.00
  0
3DFACE
  8
mg_to_dxf
  62
2
  10
-35406557.02
  20
12000510.93
  30
0.00
  11
-35406554.02
  21
12000510.93
  31
0.00
  12
-35406554.02
  22
12000559.65
  32
0.00
  13
-35406557.02
  23
12000559.65
  33
0.00
  0
3DFACE
  8
mg_to_dxf
  62
2
  10
-35406669.00
  20
12001034.28
  30
0.00
  11
-35406670.34
  21
12001031.60
  31
0.00
  12
-35406606.28
  22
12000999.57
  32
0.00
  13
-35406604.99
  23
12001002.28
  33
0.00
  0
3DFACE
  8
mg_to_dxf
  62
2
  10
-35406604.99
  20
12001002.28
  30
0.00
  11
-35406606.28
  21
12000999.57
  31
0.00
  12
-35406553.35
  22
12000975.89
  32
0.00
  13
-35406552.12
  23
12000978.63
  33
0.00
  0
3DFACE
  8
mg_to_dxf
  62
2
  10
-35406646.72
  20
12002617.03
  30
0.00
  11
-35406648.07
  21
12002614.34
  31
0.00
  12
-35406597.94
  22
12002589.28
  32
0.00
  13
-35406596.63
  23
12002591.98
  33
0.00
  0
3DFACE
  8
mg_to_dxf
  62
2
  10
-35406596.63
  20
12002591.98
  30
0.00
  11
-35406597.94
  21
12002589.28
  31
0.00
  12
-35406547.81
  22
12002565.61
  32
0.00
  13
-35406546.53
  23
12002568.32
  33
0.00
  0
3DFACE
  8
mg_to_dxf
  62
2
  10
-35406540.96
  20
12003038.90
  30
0.00
  11
-35406542.24
  21
12003041.61
  31
0.00
  12
-35406595.15
  22
12003016.55
  32
0.00
  13
-35406593.84
  23
12003013.85
  33
0.00
  0
3DFACE
  8
mg_to_dxf
  62
2
  10
-35406593.84
  20
12003013.85
  30
0.00
  11
-35406595.15
  21
12003016.55
  31
0.00
  12
-35406645.28
  22
12002991.48
  32
0.00
  13
-35406643.94
  23
12002988.80
  33
0.00
  0
3DFACE
  8
mg_to_dxf
  62
2
  10
-35406565.37
  20
12003456.48
  30
0.00
  11
-35406562.37
  21
12003456.48
  31
0.00
  12
-35406562.37
  22
12003505.20
  32
0.00
  13
-35406565.37
  23
12003505.20
  33
0.00
  0
3DFACE
  8
mg_to_dxf
  62
2
  10
-35406565.37
  20
12003404.97
  30
0.00
  11
-35406562.37
  21
12003404.97
  31
0.00
  12
-35406562.37
  22
12003456.48
  32
0.00
  13
-35406565.37
  23
12003456.48
  33
0.00
  0
3DFACE
  8
mg_to_dxf
  62
2
  10
-35406638.34
  20
12003919.96
  30
0.00
  11
-35406639.75
  21
12003917.31
  31
0.00
  12
-35406592.39
  22
12003892.23
  32
0.00
  13
-35406591.04
  23
12003894.92
  33
0.00
  0
3DFACE
  8
mg_to_dxf
  62
2
  10
-35406591.04
  20
12003894.92
  30
0.00
  11
-35406592.39
  21
12003892.23
  31
0.00
  12
-35406539.46
  22
12003867.16
  32
0.00
  13
-35406538.17
  23
12003869.87
  33
0.00
  0
3DFACE
  8
mg_to_dxf
  62
2
  10
-35405819.24
  20
11998010.93
  30
0.00
  11
-35405816.25
  21
11998010.73
  31
0.00
  12
-35405813.46
  22
11998051.09
  32
0.00
  13
-35405816.45
  23
11998051.30
  33
0.00
  0
3DFACE
  8
mg_to_dxf
  62
2
  10
-35405822.02
  20
11997970.56
  30
0.00
  11
-35405819.03
  21
11997970.36
  31
0.00
  12
-35405816.25
  22
11998010.73
  32
0.00
  13
-35405819.24
  23
11998010.93
  33
0.00
  0
3DFACE
  8
mg_to_dxf
  62
2
  10
-35405793.97
  20
12000229.65
  30
0.00
  11
-35405796.97
  21
12000229.82
  31
0.00
  12
-35405799.75
  22
12000181.06
  32
0.00
  13
-35405796.75
  23
12000180.97
  33
0.00
  0
3DFACE
  8
mg_to_dxf
  62
2
  10
-35405796.75
  20
12000180.97
  30
0.00
  11
-35405799.75
  21
12000181.06
  31
0.00
  12
-35405799.75
  22
12000132.29
  32
0.00
  13
-35405796.75
  23
12000132.29
  33
0.00
  0
3DFACE
  8
mg_to_dxf
  62
2
  10
-35405777.48
  20
12000558.30
  30
0.00
  11
-35405774.48
  21
12000558.21
  31
0.00
  12
-35405774.48
  22
12000606.98
  32
0.00
  13
-35405777.48
  23
12000606.98
  33
0.00
  0
3DFACE
  8
mg_to_dxf
  62
2
  10
-35405780.26
  20
12000508.23
  30
0.00
  11
-35405777.27
  21
12000508.06
  31
0.00
  12
-35405774.48
  22
12000558.21
  32
0.00
  13
-35405777.48
  23
12000558.30
  33
0.00
  0
3DFACE
  8
mg_to_dxf
  62
2
  10
-35405755.21
  20
12003450.96
  30
0.00
  11
-35405752.21
  21
12003450.85
  31
0.00
  12
-35405752.21
  22
12003489.88
  32
0.00
  13
-35405755.21
  23
12003489.88
  33
0.00
  0
3DFACE
  8
mg_to_dxf
  62
2
  10
-35405757.99
  20
12003414.83
  30
0.00
  11
-35405755.00
  21
12003414.60
  31
0.00
  12
-35405752.21
  22
12003450.85
  32
0.00
  13
-35405755.21
  23
12003450.96
  33
0.00
  0
3DFACE
  8
mg_to_dxf
  62
2
  10
-35400892.69
  20
12002870.54
  30
0.00
  11
-35400892.74
  21
12002867.54
  31
0.00
  12
-35400820.33
  22
12002867.54
  32
0.00
  13
-35400820.33
  23
12002870.54
  33
0.00
  0
3DFACE
  8
mg_to_dxf
  62
2
  10
-35400934.43
  20
12002871.93
  30
0.00
  11
-35400934.53
  21
12002868.93
  31
0.00
  12
-35400892.74
  22
12002867.54
  32
0.00
  13
-35400892.69
  23
12002870.54
  33
0.00
  0
3DFACE
  8
mg_to_dxf
  62
2
  10
-35400898.28
  20
12001923.95
  30
0.00
  11
-35400898.29
  21
12001920.95
  31
0.00
  12
-35400845.35
  22
12001922.34
  32
0.00
  13
-35400845.43
  23
12001925.34
  33
0.00
  0
3DFACE
  8
mg_to_dxf
  62
2
  10
-35400942.78
  20
12001925.34
  30
0.00
  11
-35400942.88
  21
12001922.34
  31
0.00
  12
-35400898.29
  22
12001920.95
  32
0.00
  13
-35400898.28
  23
12001923.95
  33
0.00
  0
3DFACE
  8
mg_to_dxf
  62
2
  10
-35400546.82
  20
12003023.60
  30
0.00
  11
-35400548.16
  21
12003026.29
  31
0.00
  12
-35400598.50
  22
12003001.12
  32
0.00
  13
-35400596.71
  23
12002998.66
  33
0.00
  0
3DFACE
  8
mg_to_dxf
  62
2
  10
-35400596.71
  20
12002998.66
  30
0.00
  11
-35400598.50
  21
12003001.12
  31
0.00
  12
-35400654.36
  22
12002943.86
  32
0.00
  13
-35400652.21
  23
12002941.77
  33
0.00
  0
3DFACE
  8
mg_to_dxf
  62
2
  10
-35400635.30
  20
11996837.34
  30
0.00
  11
-35400632.30
  21
11996837.34
  31
0.00
  12
-35400632.30
  22
11996877.71
  32
0.00
  13
-35400635.30
  23
11996877.71
  33
0.00
  0
3DFACE
  8
mg_to_dxf
  62
2
  10
-35400635.30
  20
11996725.99
  30
0.00
  11
-35400632.30
  21
11996725.97
  31
0.00
  12
-35400632.30
  22
11996837.34
  32
0.00
  13
-35400635.30
  23
11996837.34
  33
0.00
  0
3DFACE
  8
mg_to_dxf
  62
2
  10
-35400638.08
  20
11996571.48
  30
0.00
  11
-35400635.08
  21
11996571.45
  31
0.00
  12
-35400632.30
  22
11996725.97
  32
0.00
  13
-35400635.30
  23
11996725.99
  33
0.00
  0
3DFACE
  8
mg_to_dxf
  62
2
  10
-35400638.08
  20
11996535.27
  30
0.00
  11
-35400635.08
  21
11996535.27
  31
0.00
  12
-35400635.08
  22
11996571.45
  32
0.00
  13
-35400638.08
  23
11996571.48
  33
0.00
  0
3DFACE
  8
mg_to_dxf
  62
2
  10
-35400627.42
  20
11997272.93
  30
0.00
  11
-35400629.04
  21
11997270.39
  31
0.00
  12
-35400578.82
  22
11997243.88
  32
0.00
  13
-35400577.42
  23
11997246.53
  33
0.00
  0
3DFACE
  8
mg_to_dxf
  62
2
  10
-35400638.35
  20
11997281.12
  30
0.00
  11
-35400640.39
  21
11997278.90
  31
0.00
  12
-35400629.04
  22
11997270.39
  32
0.00
  13
-35400627.42
  23
11997272.93
  33
0.00
  0
3DFACE
  8
mg_to_dxf
  62
2
  10
-35400682.79
  20
11997331.12
  30
0.00
  11
-35400685.03
  21
11997329.13
  31
0.00
  12
-35400640.39
  22
11997278.90
  32
0.00
  13
-35400638.35
  23
11997281.12
  33
0.00
  0
3DFACE
  8
mg_to_dxf
  62
2
  10
-35400680.03
  20
11998322.28
  30
0.00
  11
-35400682.22
  21
11998320.23
  31
0.00
  12
-35400623.57
  22
11998257.39
  32
0.00
  13
-35400621.75
  23
11998259.83
  33
0.00
  0
3DFACE
  8
mg_to_dxf
  62
2
  10
-35400621.75
  20
11998259.83
  30
0.00
  11
-35400623.57
  21
11998257.39
  31
0.00
  12
-35400573.22
  22
11998232.21
  32
0.00
  13
-35400571.88
  23
11998234.90
  33
0.00
  0
3DFACE
  8
mg_to_dxf
  62
2
  10
-35400555.14
  20
12001344.82
  30
0.00
  11
-35400556.54
  21
12001347.47
  31
0.00
  12
-35400606.87
  22
12001320.91
  32
0.00
  13
-35400605.04
  23
12001318.49
  33
0.00
  0
3DFACE
  8
mg_to_dxf
  62
2
  10
-35400605.04
  20
12001318.49
  30
0.00
  11
-35400606.87
  21
12001320.91
  31
0.00
  12
-35400660.14
  22
12001264.98
  32
0.00
  13
-35400663.14
  23
12001257.48
  33
0.00
  0
3DFACE
  8
mg_to_dxf
  62
2
  10
-35400663.14
  20
12001257.48
  30
0.00
  11
-35400660.14
  21
12001264.98
  31
0.00
  12
-35400660.14
  22
12001262.63
  32
0.00
  13
-35400663.14
  23
12001262.63
  33
0.00
  0
3DFACE
  8
mg_to_dxf
  62
2
  10
-35400666.10
  20
12000332.36
  30
0.00
  11
-35400668.32
  21
12000330.34
  31
0.00
  12
-35400612.42
  22
12000268.86
  32
0.00
  13
-35400610.63
  23
12000271.35
  33
0.00
  0
3DFACE
  8
mg_to_dxf
  62
2
  10
-35400610.63
  20
12000271.35
  30
0.00
  11
-35400612.42
  21
12000268.86
  31
0.00
  12
-35400562.02
  22
12000246.46
  32
0.00
  13
-35400560.80
  23
12000249.20
  33
0.00
  0
3DFACE
  8
mg_to_dxf
  62
2
  10
-35400599.11
  20
12003431.42
  30
0.00
  11
-35400596.11
  21
12003431.42
  31
0.00
  12
-35400596.11
  22
12003467.61
  32
0.00
  13
-35400599.11
  23
12003467.61
  33
0.00
  0
3DFACE
  8
mg_to_dxf
  62
2
  10
-35400599.11
  20
12003396.62
  30
0.00
  11
-35400596.11
  21
12003396.62
  31
0.00
  12
-35400596.11
  22
12003431.42
  32
0.00
  13
-35400599.11
  23
12003431.42
  33
0.00
  0
3DFACE
  8
mg_to_dxf
  62
2
  10
-35400538.47
  20
12004346.04
  30
0.00
  11
-35400539.81
  21
12004348.72
  31
0.00
  12
-35400590.10
  22
12004323.58
  32
0.00
  13
-35400588.41
  23
12004321.07
  33
0.00
  0
3DFACE
  8
mg_to_dxf
  62
2
  10
-35400588.41
  20
12004321.07
  30
0.00
  11
-35400590.10
  21
12004323.58
  31
0.00
  12
-35400601.45
  22
12004313.64
  32
0.00
  13
-35400599.33
  23
12004311.51
  33
0.00
  0
3DFACE
  8
mg_to_dxf
  62
2
  10
-35400599.33
  20
12004311.51
  30
0.00
  11
-35400601.45
  21
12004313.64
  31
0.00
  12
-35400646.06
  22
12004263.46
  32
0.00
  13
-35400643.81
  23
12004261.47
  33
0.00
  0
3DFACE
  8
mg_to_dxf
  62
2
  10
-35397266.05
  20
12003657.18
  30
0.00
  11
-35397264.09
  21
12003659.46
  31
0.00
  12
-35397311.45
  22
12003698.46
  32
0.00
  13
-35397313.35
  23
12003696.14
  33
0.00
  0
3DFACE
  8
mg_to_dxf
  62
2
  10
-35397227.09
  20
12003622.40
  30
0.00
  11
-35397225.09
  21
12003624.64
  31
0.00
  12
-35397264.09
  22
12003659.46
  32
0.00
  13
-35397266.05
  23
12003657.18
  33
0.00
  0
3DFACE
  8
mg_to_dxf
  62
2
  10
-35399354.08
  20
12005013.92
  30
0.00
  11
-35399352.16
  21
12005011.62
  31
0.00
  12
-35399307.61
  22
12005049.21
  32
0.00
  13
-35399309.55
  23
12005051.50
  33
0.00
  0
3DFACE
  8
mg_to_dxf
  62
2
  10
-35399393.05
  20
12004981.91
  30
0.00
  11
-35399391.15
  21
12004979.60
  31
0.00
  12
-35399352.16
  22
12005011.62
  32
0.00
  13
-35399354.08
  23
12005013.92
  33
0.00
  0
3DFACE
  8
mg_to_dxf
  62
2
  10
-35401069.96
  20
12006549.80
  30
0.00
  11
-35401071.83
  21
12006552.14
  31
0.00
  12
-35401113.61
  22
12006518.73
  32
0.00
  13
-35401111.71
  23
12006516.40
  33
0.00
  0
3DFACE
  8
mg_to_dxf
  62
2
  10
-35401111.71
  20
12006516.40
  30
0.00
  11
-35401113.61
  21
12006518.73
  31
0.00
  12
-35401155.38
  22
12006483.91
  32
0.00
  13
-35401153.46
  23
12006481.61
  33
0.00
  0
3DFACE
  8
mg_to_dxf
  62
2
  10
-35398814.82
  20
12004977.71
  30
0.00
  11
-35398816.78
  21
12004975.45
  31
0.00
  12
-35398775.00
  22
12004939.23
  32
0.00
  13
-35398773.08
  23
12004941.54
  33
0.00
  0
3DFACE
  8
mg_to_dxf
  62
2
  10
-35398773.08
  20
12004941.54
  30
0.00
  11
-35398775.00
  21
12004939.23
  31
0.00
  12
-35398733.21
  22
12004905.81
  32
0.00
  13
-35398731.34
  23
12004908.15
  33
0.00
  0
3DFACE
  8
mg_to_dxf
  62
2
  10
-35401436.98
  20
12007211.70
  30
0.00
  11
-35401439.81
  21
12007212.68
  31
0.00
  12
-35401456.53
  22
12007163.93
  32
0.00
  13
-35401453.67
  23
12007163.01
  33
0.00
  0
3DFACE
  8
mg_to_dxf
  62
2
  10
-35401453.67
  20
12007163.01
  30
0.00
  11
-35401456.53
  21
12007163.93
  31
0.00
  12
-35401470.46
  22
12007117.97
  32
0.00
  13
-35401467.58
  23
12007117.10
  33
0.00
  0
3DFACE
  8
mg_to_dxf
  62
2
  10
-35405791.40
  20
12007363.92
  30
0.00
  11
-35405788.40
  21
12007363.92
  31
0.00
  12
-35405788.40
  22
12007401.51
  32
0.00
  13
-35405791.40
  23
12007401.51
  33
0.00
  0
3DFACE
  8
mg_to_dxf
  62
2
  10
-35405791.40
  20
12007327.73
  30
0.00
  11
-35405788.40
  21
12007327.73
  31
0.00
  12
-35405788.40
  22
12007363.92
  32
0.00
  13
-35405791.40
  23
12007363.92
  33
0.00
  0
3DFACE
  8
mg_to_dxf
  62
2
  10
-35405788.40
  20
12009006.44
  30
0.00
  11
-35405791.40
  21
12009006.61
  31
0.00
  12
-35405794.19
  22
12008956.45
  32
0.00
  13
-35405791.19
  23
12008956.37
  33
0.00
  0
3DFACE
  8
mg_to_dxf
  62
2
  10
-35405791.19
  20
12008956.37
  30
0.00
  11
-35405794.19
  21
12008956.45
  31
0.00
  12
-35405794.19
  22
12008904.91
  32
0.00
  13
-35405791.19
  23
12008904.91
  33
0.00
  0
3DFACE
  8
mg_to_dxf
  62
2
  10
-35405794.19
  20
12009333.65
  30
0.00
  11
-35405791.19
  21
12009333.65
  31
0.00
  12
-35405791.19
  22
12009382.37
  32
0.00
  13
-35405794.19
  23
12009382.37
  33
0.00
  0
3DFACE
  8
mg_to_dxf
  62
2
  10
-35405794.19
  20
12009282.15
  30
0.00
  11
-35405791.19
  21
12009282.15
  31
0.00
  12
-35405791.19
  22
12009333.65
  32
0.00
  13
-35405794.19
  23
12009333.65
  33
0.00
  0
3DFACE
  8
mg_to_dxf
  62
2
  10
-35404756.01
  20
12010033.57
  30
0.00
  11
-35404758.01
  21
12010031.34
  31
0.00
  12
-35404719.02
  22
12009996.52
  32
0.00
  13
-35404717.05
  23
12009998.79
  33
0.00
  0
3DFACE
  8
mg_to_dxf
  62
2
  10
-35404717.05
  20
12009998.79
  30
0.00
  11
-35404719.02
  21
12009996.52
  31
0.00
  12
-35404674.46
  22
12009958.92
  32
0.00
  13
-35404672.52
  23
12009961.22
  33
0.00
  0
3DFACE
  8
mg_to_dxf
  62
2
  10
-35404357.09
  20
12009695.84
  30
0.00
  11
-35404355.12
  21
12009698.11
  31
0.00
  12
-35404396.89
  22
12009734.31
  32
0.00
  13
-35404398.84
  23
12009732.02
  33
0.00
  0
3DFACE
  8
mg_to_dxf
  62
2
  10
-35404398.84
  20
12009732.02
  30
0.00
  11
-35404396.89
  21
12009734.31
  31
0.00
  12
-35404438.67
  22
12009769.12
  32
0.00
  13
-35404440.59
  23
12009766.82
  33
0.00
  0
3DFACE
  8
mg_to_dxf
  62
2
  10
-35403151.97
  20
12008673.33
  30
0.00
  11
-35403154.80
  21
12008674.33
  31
0.00
  12
-35403171.52
  22
12008626.96
  32
0.00
  13
-35403168.66
  23
12008626.04
  33
0.00
  0
3DFACE
  8
mg_to_dxf
  62
2
  10
-35403168.66
  20
12008626.04
  30
0.00
  11
-35403171.52
  21
12008626.96
  31
0.00
  12
-35403185.45
  22
12008579.59
  32
0.00
  13
-35403182.57
  23
12008578.75
  33
0.00
  0
3DFACE
  8
mg_to_dxf
  62
2
  10
-35400590.75
  20
12004866.61
  30
0.00
  11
-35400587.75
  21
12004866.61
  31
0.00
  12
-35400587.75
  22
12005067.06
  32
0.00
  13
-35400590.75
  23
12005067.06
  33
0.00
  0
3DFACE
  8
mg_to_dxf
  62
2
  10
-35400590.75
  20
12004714.88
  30
0.00
  11
-35400587.75
  21
12004714.88
  31
0.00
  12
-35400587.75
  22
12004866.61
  32
0.00
  13
-35400590.75
  23
12004866.61
  33
0.00
  0
3DFACE
  8
mg_to_dxf
  62
2
  10
-35406584.00
  20
12005625.23
  30
0.00
  11
-35406582.72
  21
12005622.52
  31
0.00
  12
-35406529.82
  22
12005647.58
  32
0.00
  13
-35406531.11
  23
12005650.29
  33
0.00
  0
3DFACE
  8
mg_to_dxf
  62
2
  10
-35406634.12
  20
12005601.57
  30
0.00
  11
-35406632.83
  21
12005598.85
  31
0.00
  12
-35406582.72
  22
12005622.52
  32
0.00
  13
-35406584.00
  23
12005625.23
  33
0.00
  0
3DFACE
  8
mg_to_dxf
  62
2
  10
-35406512.48
  20
12006063.76
  30
0.00
  11
-35406509.48
  21
12006063.76
  31
0.00
  12
-35406509.48
  22
12006113.87
  32
0.00
  13
-35406512.48
  23
12006113.87
  33
0.00
  0
3DFACE
  8
mg_to_dxf
  62
2
  10
-35406512.48
  20
12006013.65
  30
0.00
  11
-35406509.48
  21
12006013.65
  31
0.00
  12
-35406509.48
  22
12006063.76
  32
0.00
  13
-35406512.48
  23
12006063.76
  33
0.00
  0
3DFACE
  8
mg_to_dxf
  62
2
  10
-35406564.54
  20
12006914.24
  30
0.00
  11
-35406563.20
  21
12006911.56
  31
0.00
  12
-35406513.06
  22
12006938.02
  32
0.00
  13
-35406514.46
  23
12006940.68
  33
0.00
  0
3DFACE
  8
mg_to_dxf
  62
2
  10
-35406614.63
  20
12006890.59
  30
0.00
  11
-35406613.35
  21
12006887.88
  31
0.00
  12
-35406563.20
  22
12006911.56
  32
0.00
  13
-35406564.54
  23
12006914.24
  33
0.00
  0
3DFACE
  8
mg_to_dxf
  62
2
  10
-35406515.26
  20
12007368.10
  30
0.00
  11
-35406512.26
  21
12007368.10
  31
0.00
  12
-35406512.26
  22
12007416.82
  32
0.00
  13
-35406515.26
  23
12007416.82
  33
0.00
  0
3DFACE
  8
mg_to_dxf
  62
2
  10
-35406515.26
  20
12007316.59
  30
0.00
  11
-35406512.26
  21
12007316.59
  31
0.00
  12
-35406512.26
  22
12007368.10
  32
0.00
  13
-35406515.26
  23
12007368.10
  33
0.00
  0
3DFACE
  8
mg_to_dxf
  62
2
  10
-35406509.69
  20
12008959.20
  30
0.00
  11
-35406506.69
  21
12008959.20
  31
0.00
  12
-35406506.69
  22
12009009.31
  32
0.00
  13
-35406509.69
  23
12009009.31
  33
0.00
  0
3DFACE
  8
mg_to_dxf
  62
2
  10
-35406509.69
  20
12008909.08
  30
0.00
  11
-35406506.69
  21
12008909.08
  31
0.00
  12
-35406506.69
  22
12008959.20
  32
0.00
  13
-35406509.69
  23
12008959.20
  33
0.00
  0
3DFACE
  8
mg_to_dxf
  62
2
  10
-35406512.48
  20
12009335.04
  30
0.00
  11
-35406509.48
  21
12009335.04
  31
0.00
  12
-35406509.48
  22
12009385.16
  32
0.00
  13
-35406512.48
  23
12009385.16
  33
0.00
  0
3DFACE
  8
mg_to_dxf
  62
2
  10
-35406512.48
  20
12009284.93
  30
0.00
  11
-35406509.48
  21
12009284.93
  31
0.00
  12
-35406509.48
  22
12009335.04
  32
0.00
  13
-35406512.48
  23
12009335.04
  33
0.00
  0
3DFACE
  8
mg_to_dxf
  62
2
  10
-35407208.49
  20
12009336.44
  30
0.00
  11
-35407205.49
  21
12009336.44
  31
0.00
  12
-35407205.49
  22
12009386.55
  32
0.00
  13
-35407208.49
  23
12009386.55
  33
0.00
  0
3DFACE
  8
mg_to_dxf
  62
2
  10
-35407208.49
  20
12009287.72
  30
0.00
  11
-35407205.49
  21
12009287.72
  31
0.00
  12
-35407205.49
  22
12009336.44
  32
0.00
  13
-35407208.49
  23
12009336.44
  33
0.00
  0
3DFACE
  8
mg_to_dxf
  62
2
  10
-35407208.28
  20
12008961.98
  30
0.00
  11
-35407211.28
  21
12008961.98
  31
0.00
  12
-35407211.28
  22
12008911.87
  32
0.00
  13
-35407208.28
  23
12008911.87
  33
0.00
  0
3DFACE
  8
mg_to_dxf
  62
2
  10
-35407208.28
  20
12009012.09
  30
0.00
  11
-35407211.28
  21
12009012.09
  31
0.00
  12
-35407211.28
  22
12008961.98
  32
0.00
  13
-35407208.28
  23
12008961.98
  33
0.00
  0
3DFACE
  8
mg_to_dxf
  62
2
  10
-35407222.20
  20
12007370.88
  30
0.00
  11
-35407225.20
  21
12007370.88
  31
0.00
  12
-35407225.20
  22
12007319.38
  32
0.00
  13
-35407222.20
  23
12007319.38
  33
0.00
  0
3DFACE
  8
mg_to_dxf
  62
2
  10
-35407222.20
  20
12007419.60
  30
0.00
  11
-35407225.20
  21
12007419.60
  31
0.00
  12
-35407225.20
  22
12007370.88
  32
0.00
  13
-35407222.20
  23
12007370.88
  33
0.00
  0
3DFACE
  8
mg_to_dxf
  62
2
  10
-35407241.69
  20
12006067.94
  30
0.00
  11
-35407244.69
  21
12006067.94
  31
0.00
  12
-35407244.69
  22
12006015.04
  32
0.00
  13
-35407241.69
  23
12006015.04
  33
0.00
  0
3DFACE
  8
mg_to_dxf
  62
2
  10
-35407241.69
  20
12006115.26
  30
0.00
  11
-35407244.69
  21
12006115.26
  31
0.00
  12
-35407244.69
  22
12006067.94
  32
0.00
  13
-35407241.69
  23
12006067.94
  33
0.00
  0
3DFACE
  8
mg_to_dxf
  62
2
  10
-35403766.84
  20
12010206.70
  30
0.00
  11
-35403764.92
  21
12010209.00
  31
0.00
  12
-35403798.35
  22
12010236.86
  32
0.00
  13
-35403800.23
  23
12010234.52
  33
0.00
  0
3DFACE
  8
mg_to_dxf
  62
2
  10
-35403800.23
  20
12010234.52
  30
0.00
  11
-35403798.35
  21
12010236.86
  31
0.00
  12
-35403829.00
  22
12010260.54
  32
0.00
  13
-35403830.83
  23
12010258.17
  33
0.00
  0
3DFACE
  8
mg_to_dxf
  62
2
  10
-35404154.65
  20
12010536.10
  30
0.00
  11
-35404156.65
  21
12010533.86
  31
0.00
  12
-35404117.66
  22
12010499.05
  32
0.00
  13
-35404115.68
  23
12010501.31
  33
0.00
  0
3DFACE
  8
mg_to_dxf
  62
2
  10
-35404115.68
  20
12010501.31
  30
0.00
  11
-35404117.66
  21
12010499.05
  31
0.00
  12
-35404075.89
  22
12010462.85
  32
0.00
  13
-35404073.93
  23
12010465.12
  33
0.00
  0
ENDSEC
  0
EOF
