  0
SECTION
  2
HEADER
  0
ENDSEC
  0
SECTION
  2
ENTITIES
  0
3DFACE
  8
mg_to_dxf
  62
2
  10
-35406181.48
  20
12011798.69
  30
0.00
  11
-35406183.43
  21
12011796.42
  31
0.00
  12
-35406132.36
  22
12011752.44
  32
0.00
  13
-35406132.33
  23
12011756.37
  33
0.00
  0
3DFACE
  8
mg_to_dxf
  62
2
  10
-35406132.33
  20
12011756.37
  30
0.00
  11
-35406132.36
  21
12011752.44
  31
0.00
  12
-35406081.27
  22
12011795.01
  32
0.00
  13
-35406083.19
  23
12011797.32
  33
0.00
  0
3DFACE
  8
mg_to_dxf
  62
2
  10
-35406270.57
  20
12011775.03
  30
0.00
  11
-35406272.52
  21
12011772.76
  31
0.00
  12
-35406132.35
  22
12011652.20
  32
0.00
  13
-35406132.34
  23
12011656.15
  33
0.00
  0
3DFACE
  8
mg_to_dxf
  62
2
  10
-35406132.34
  20
12011656.15
  30
0.00
  11
-35406132.35
  21
12011652.20
  31
0.00
  12
-35405992.17
  22
12011771.36
  32
0.00
  13
-35405994.11
  23
12011773.64
  33
0.00
  0
3DFACE
  8
mg_to_dxf
  62
2
  10
-35406132.34
  20
12011555.91
  30
0.00
  11
-35406132.35
  21
12011551.99
  31
0.00
  12
-35405989.39
  22
12011671.12
  32
0.00
  13
-35405991.31
  23
12011673.43
  33
0.00
  0
3DFACE
  8
mg_to_dxf
  62
2
  10
-35406273.36
  20
12011674.81
  30
0.00
  11
-35406275.30
  21
12011672.52
  31
0.00
  12
-35406132.35
  22
12011551.99
  32
0.00
  13
-35406132.34
  23
12011555.91
  33
0.00
  0
3DFACE
  8
mg_to_dxf
  62
2
  10
-35406273.36
  20
12011574.59
  30
0.00
  11
-35406275.30
  21
12011572.29
  31
0.00
  12
-35406132.34
  22
12011451.76
  32
0.00
  13
-35406132.34
  23
12011455.68
  33
0.00
  0
3DFACE
  8
mg_to_dxf
  62
2
  10
-35406132.34
  20
12011455.68
  30
0.00
  11
-35406132.34
  21
12011451.76
  31
0.00
  12
-35405992.17
  22
12011569.51
  32
0.00
  13
-35405994.10
  23
12011571.80
  33
0.00
  0
3DFACE
  8
mg_to_dxf
  62
2
  10
-35406273.37
  20
12011472.97
  30
0.00
  11
-35406275.29
  21
12011470.67
  31
0.00
  12
-35406191.77
  22
12011401.07
  32
0.00
  13
-35406189.85
  23
12011403.37
  33
0.00
  0
3DFACE
  8
mg_to_dxf
  62
2
  10
-35406077.61
  20
12011401.99
  30
0.00
  11
-35406075.71
  21
12011399.67
  31
0.00
  12
-35405989.40
  22
12011470.66
  32
0.00
  13
-35405991.31
  23
12011472.98
  33
0.00
  0
3DFACE
  8
mg_to_dxf
  62
2
  10
-35406204.73
  20
12011410.46
  30
0.00
  11
-35406204.73
  21
12011413.46
  31
0.00
  12
-35406271.55
  22
12011413.46
  32
0.00
  13
-35406271.55
  23
12011410.46
  33
0.00
  0
3DFACE
  8
mg_to_dxf
  62
2
  10
-35406132.36
  20
12011410.46
  30
0.00
  11
-35406132.33
  21
12011413.46
  31
0.00
  12
-35406204.73
  22
12011413.46
  32
0.00
  13
-35406204.73
  23
12011410.46
  33
0.00
  0
3DFACE
  8
mg_to_dxf
  62
2
  10
-35406065.54
  20
12011409.07
  30
0.00
  11
-35406065.51
  21
12011412.07
  31
0.00
  12
-35406132.33
  22
12011413.46
  32
0.00
  13
-35406132.36
  23
12011410.46
  33
0.00
  0
3DFACE
  8
mg_to_dxf
  62
2
  10
-35405998.71
  20
12011409.07
  30
0.00
  11
-35405998.71
  21
12011412.07
  31
0.00
  12
-35406065.51
  22
12011412.07
  32
0.00
  13
-35406065.54
  23
12011409.07
  33
0.00
  0
3DFACE
  8
mg_to_dxf
  62
2
  10
-35416641.24
  20
12011840.46
  30
0.00
  11
-35416643.20
  21
12011838.18
  31
0.00
  12
-35416592.15
  22
12011794.22
  32
0.00
  13
-35416592.06
  23
12011798.11
  33
0.00
  0
3DFACE
  8
mg_to_dxf
  62
2
  10
-35416592.06
  20
12011798.11
  30
0.00
  11
-35416592.15
  21
12011794.22
  31
0.00
  12
-35416538.28
  22
12011836.75
  32
0.00
  13
-35416540.14
  23
12011839.10
  33
0.00
  0
3DFACE
  8
mg_to_dxf
  62
2
  10
-35416730.33
  20
12011816.79
  30
0.00
  11
-35416732.29
  21
12011814.52
  31
0.00
  12
-35416592.12
  22
12011693.97
  32
0.00
  13
-35416592.09
  23
12011697.90
  33
0.00
  0
3DFACE
  8
mg_to_dxf
  62
2
  10
-35416592.09
  20
12011697.90
  30
0.00
  11
-35416592.12
  21
12011693.97
  31
0.00
  12
-35416449.16
  22
12011813.11
  32
0.00
  13
-35416451.08
  23
12011815.41
  33
0.00
  0
3DFACE
  8
mg_to_dxf
  62
2
  10
-35416592.09
  20
12011597.68
  30
0.00
  11
-35416592.12
  21
12011593.75
  31
0.00
  12
-35416449.16
  22
12011712.88
  32
0.00
  13
-35416451.08
  23
12011715.19
  33
0.00
  0
3DFACE
  8
mg_to_dxf
  62
2
  10
-35416730.33
  20
12011716.56
  30
0.00
  11
-35416732.29
  21
12011714.29
  31
0.00
  12
-35416592.12
  22
12011593.75
  32
0.00
  13
-35416592.09
  23
12011597.68
  33
0.00
  0
3DFACE
  8
mg_to_dxf
  62
2
  10
-35416733.12
  20
12011616.35
  30
0.00
  11
-35416735.06
  21
12011614.05
  31
0.00
  12
-35416592.11
  22
12011493.53
  32
0.00
  13
-35416592.10
  23
12011497.44
  33
0.00
  0
3DFACE
  8
mg_to_dxf
  62
2
  10
-35416592.10
  20
12011497.44
  30
0.00
  11
-35416592.11
  21
12011493.53
  31
0.00
  12
-35416449.16
  22
12011612.66
  32
0.00
  13
-35416451.08
  23
12011614.96
  33
0.00
  0
3DFACE
  8
mg_to_dxf
  62
2
  10
-35416733.12
  20
12011516.12
  30
0.00
  11
-35416735.06
  21
12011513.83
  31
0.00
  12
-35416651.54
  22
12011442.84
  32
0.00
  13
-35416649.60
  23
12011445.12
  33
0.00
  0
3DFACE
  8
mg_to_dxf
  62
2
  10
-35416537.38
  20
12011443.75
  30
0.00
  11
-35416535.47
  21
12011441.43
  31
0.00
  12
-35416449.16
  22
12011512.42
  32
0.00
  13
-35416451.07
  23
12011514.74
  33
0.00
  0
3DFACE
  8
mg_to_dxf
  62
2
  10
-35416661.71
  20
12011453.62
  30
0.00
  11
-35416661.71
  21
12011456.62
  31
0.00
  12
-35416728.55
  22
12011455.22
  32
0.00
  13
-35416728.49
  23
12011452.22
  33
0.00
  0
3DFACE
  8
mg_to_dxf
  62
2
  10
-35416592.13
  20
12011452.22
  30
0.00
  11
-35416592.07
  21
12011455.22
  31
0.00
  12
-35416661.71
  22
12011456.62
  32
0.00
  13
-35416661.71
  23
12011453.62
  33
0.00
  0
3DFACE
  8
mg_to_dxf
  62
2
  10
-35416525.30
  20
12011450.83
  30
0.00
  11
-35416525.27
  21
12011453.83
  31
0.00
  12
-35416592.07
  22
12011455.22
  32
0.00
  13
-35416592.13
  23
12011452.22
  33
0.00
  0
3DFACE
  8
mg_to_dxf
  62
2
  10
-35416458.47
  20
12011450.83
  30
0.00
  11
-35416458.47
  21
12011453.83
  31
0.00
  12
-35416525.27
  22
12011453.83
  32
0.00
  13
-35416525.30
  23
12011450.83
  33
0.00
  0
3DFACE
  8
mg_to_dxf
  62
2
  10
-35426944.57
  20
12009277.87
  30
0.00
  11
-35426947.57
  21
12009278.07
  31
0.00
  12
-35426953.14
  22
12009195.94
  32
0.00
  13
-35426950.14
  23
12009195.74
  33
0.00
  0
3DFACE
  8
mg_to_dxf
  62
2
  10
-35427038.03
  20
12009133.09
  30
0.00
  11
-35427037.86
  21
12009136.09
  31
0.00
  12
-35427135.30
  22
12009141.66
  32
0.00
  13
-35427135.47
  23
12009138.66
  33
0.00
  0
3DFACE
  8
mg_to_dxf
  62
2
  10
-35427036.52
  20
12009207.16
  30
0.00
  11
-35427033.80
  21
12009204.01
  31
0.00
  12
-35427019.75
  22
12009355.79
  32
0.00
  13
-35427022.73
  23
12009356.06
  33
0.00
  0
3DFACE
  8
mg_to_dxf
  62
2
  10
-35427213.26
  20
12009216.83
  30
0.00
  11
-35427213.42
  21
12009213.83
  31
0.00
  12
-35427033.80
  22
12009204.01
  32
0.00
  13
-35427036.52
  23
12009207.16
  33
0.00
  0
3DFACE
  8
mg_to_dxf
  62
2
  10
-35427288.43
  20
12009292.00
  30
0.00
  11
-35427288.60
  21
12009289.00
  31
0.00
  12
-35427111.73
  22
12009279.18
  32
0.00
  13
-35427114.50
  23
12009282.33
  33
0.00
  0
3DFACE
  8
mg_to_dxf
  62
2
  10
-35427114.50
  20
12009282.33
  30
0.00
  11
-35427111.73
  21
12009279.18
  31
0.00
  12
-35427100.48
  22
12009428.20
  32
0.00
  13
-35427103.47
  23
12009428.42
  33
0.00
  0
3DFACE
  8
mg_to_dxf
  62
2
  10
-35427192.43
  20
12009357.53
  30
0.00
  11
-35427189.71
  21
12009354.32
  31
0.00
  12
-35427184.01
  22
12009417.04
  32
0.00
  13
-35427187.00
  23
12009417.31
  33
0.00
  0
3DFACE
  8
mg_to_dxf
  62
2
  10
-35427263.34
  20
12009362.99
  30
0.00
  11
-35427263.57
  21
12009360.00
  31
0.00
  12
-35427189.71
  22
12009354.32
  32
0.00
  13
-35427192.43
  23
12009357.53
  33
0.00
  0
3DFACE
  8
mg_to_dxf
  62
2
  10
-35420053.76
  20
12002414.16
  30
0.00
  11
-35420051.65
  21
12002416.30
  31
0.00
  12
-35420146.31
  22
12002509.57
  32
0.00
  13
-35420148.42
  23
12002507.43
  33
0.00
  0
3DFACE
  8
mg_to_dxf
  62
2
  10
-35420212.46
  20
12002568.69
  30
0.00
  11
-35420210.34
  21
12002570.81
  31
0.00
  12
-35420299.43
  22
12002659.90
  32
0.00
  13
-35420301.55
  23
12002657.78
  33
0.00
  0
3DFACE
  8
mg_to_dxf
  62
2
  10
-35420365.58
  20
12002717.63
  30
0.00
  11
-35420363.47
  21
12002719.76
  31
0.00
  12
-35420455.34
  22
12002810.25
  32
0.00
  13
-35420457.45
  23
12002808.11
  33
0.00
  0
3DFACE
  8
mg_to_dxf
  62
2
  10
-35420836.08
  20
12003175.61
  30
0.00
  11
-35420833.98
  21
12003177.74
  31
0.00
  12
-35420925.85
  22
12003268.23
  32
0.00
  13
-35420927.96
  23
12003266.09
  33
0.00
  0
3DFACE
  8
mg_to_dxf
  62
2
  10
-35420696.88
  20
12003040.58
  30
0.00
  11
-35420694.78
  21
12003042.72
  31
0.00
  12
-35420769.95
  22
12003116.50
  32
0.00
  13
-35420772.05
  23
12003114.36
  33
0.00
  0
3DFACE
  8
mg_to_dxf
  62
2
  10
-35420980.85
  20
12003316.20
  30
0.00
  11
-35420978.76
  21
12003318.35
  31
0.00
  12
-35421081.77
  22
12003418.57
  32
0.00
  13
-35421083.86
  23
12003416.42
  33
0.00
  0
3DFACE
  8
mg_to_dxf
  62
2
  10
-35421150.67
  20
12003481.85
  30
0.00
  11
-35421148.59
  21
12003484.00
  31
0.00
  12
-35421237.68
  22
12003570.31
  32
0.00
  13
-35421239.77
  23
12003568.15
  33
0.00
  0
3DFACE
  8
mg_to_dxf
  62
2
  10
-35421301.01
  20
12003628.00
  30
0.00
  11
-35421298.94
  21
12003630.17
  31
0.00
  12
-35421390.81
  22
12003717.87
  32
0.00
  13
-35421392.88
  23
12003715.70
  33
0.00
  0
3DFACE
  8
mg_to_dxf
  62
2
  10
-35421456.92
  20
12003779.74
  30
0.00
  11
-35421454.84
  21
12003781.90
  31
0.00
  12
-35421546.71
  22
12003870.99
  32
0.00
  13
-35421548.80
  23
12003868.83
  33
0.00
  0
3DFACE
  8
mg_to_dxf
  62
2
  10
-35421612.84
  20
12003930.09
  30
0.00
  11
-35421610.73
  21
12003932.23
  31
0.00
  12
-35421702.61
  22
12004022.71
  32
0.00
  13
-35421704.71
  23
12004020.57
  33
0.00
  0
3DFACE
  8
mg_to_dxf
  62
2
  10
-35421765.95
  20
12004080.42
  30
0.00
  11
-35421763.87
  21
12004082.58
  31
0.00
  12
-35421861.32
  22
12004175.85
  32
0.00
  13
-35421863.39
  23
12004173.68
  33
0.00
  0
3DFACE
  8
mg_to_dxf
  62
2
  10
-35421921.86
  20
12004232.15
  30
0.00
  11
-35421919.77
  21
12004234.31
  31
0.00
  12
-35422014.43
  22
12004326.18
  32
0.00
  13
-35422016.52
  23
12004324.03
  33
0.00
  0
3DFACE
  8
mg_to_dxf
  62
2
  10
-35422080.57
  20
12004385.29
  30
0.00
  11
-35422078.45
  21
12004387.42
  31
0.00
  12
-35422159.19
  22
12004468.15
  32
0.00
  13
-35422161.31
  23
12004466.03
  33
0.00
  0
3DFACE
  8
mg_to_dxf
  62
2
  10
-35422236.46
  20
12004537.01
  30
0.00
  11
-35422234.38
  21
12004539.16
  31
0.00
  12
-35422326.25
  22
12004628.25
  32
0.00
  13
-35422328.34
  23
12004626.10
  33
0.00
  0
3DFACE
  8
mg_to_dxf
  62
2
  10
-35422389.59
  20
12004685.96
  30
0.00
  11
-35422387.50
  21
12004688.11
  31
0.00
  12
-35422482.16
  22
12004779.99
  32
0.00
  13
-35422484.25
  23
12004777.83
  33
0.00
  0
3DFACE
  8
mg_to_dxf
  62
2
  10
-35422542.71
  20
12004836.30
  30
0.00
  11
-35422540.62
  21
12004838.45
  31
0.00
  12
-35422632.50
  22
12004927.54
  32
0.00
  13
-35422634.59
  23
12004925.39
  33
0.00
  0
3DFACE
  8
mg_to_dxf
  62
2
  10
-35422698.61
  20
12004986.63
  30
0.00
  11
-35422696.54
  21
12004988.80
  31
0.00
  12
-35422791.20
  22
12005079.28
  32
0.00
  13
-35422793.27
  23
12005077.11
  33
0.00
  0
3DFACE
  8
mg_to_dxf
  62
2
  10
-35422854.53
  20
12005138.37
  30
0.00
  11
-35422852.44
  21
12005140.52
  31
0.00
  12
-35422944.31
  22
12005229.61
  32
0.00
  13
-35422946.40
  23
12005227.46
  33
0.00
  0
3DFACE
  8
mg_to_dxf
  62
2
  10
-35419479.27
  20
12001923.74
  30
0.00
  11
-35419479.10
  21
12001926.73
  31
0.00
  12
-35419552.94
  22
12001930.99
  32
0.00
  13
-35419550.21
  23
12001927.83
  33
0.00
  0
3DFACE
  8
mg_to_dxf
  62
2
  10
-35419550.21
  20
12001927.83
  30
0.00
  11
-35419552.94
  21
12001930.99
  31
0.00
  12
-35419558.64
  22
12001865.51
  32
0.00
  13
-35419555.65
  23
12001865.25
  33
0.00
  0
3DFACE
  8
mg_to_dxf
  62
2
  10
-35419628.14
  20
12002003.04
  30
0.00
  11
-35419630.91
  21
12002006.12
  31
0.00
  12
-35419642.16
  22
12001859.92
  32
0.00
  13
-35419639.17
  23
12001859.69
  33
0.00
  0
3DFACE
  8
mg_to_dxf
  62
2
  10
-35419473.66
  20
12001998.91
  30
0.00
  11
-35419473.58
  21
12002001.90
  31
0.00
  12
-35419630.91
  22
12002006.12
  32
0.00
  13
-35419628.14
  23
12002003.04
  33
0.00
  0
3DFACE
  8
mg_to_dxf
  62
2
  10
-35419548.86
  20
12002071.29
  30
0.00
  11
-35419548.72
  21
12002074.29
  31
0.00
  12
-35419708.84
  22
12002081.31
  32
0.00
  13
-35419706.12
  23
12002078.19
  33
0.00
  0
3DFACE
  8
mg_to_dxf
  62
2
  10
-35419706.12
  20
12002078.19
  30
0.00
  11
-35419708.84
  21
12002081.31
  31
0.00
  12
-35419722.90
  22
12001932.34
  32
0.00
  13
-35419719.91
  23
12001932.05
  33
0.00
  0
3DFACE
  8
mg_to_dxf
  62
2
  10
-35419626.82
  20
12002146.46
  30
0.00
  11
-35419626.66
  21
12002149.46
  31
0.00
  12
-35419704.62
  22
12002153.63
  32
0.00
  13
-35419704.78
  23
12002150.64
  33
0.00
  0
3DFACE
  8
mg_to_dxf
  62
2
  10
-35419789.51
  20
12002089.39
  30
0.00
  11
-35419792.50
  21
12002089.60
  31
0.00
  12
-35419798.07
  22
12002008.86
  32
0.00
  13
-35419795.08
  23
12002008.65
  33
0.00
  0
3DFACE
  8
mg_to_dxf
  62
2
  10
-35419657.37
  20
12002029.64
  30
1.50
  11
-35419657.37
  21
12002029.64
  31
-1.50
  12
-35419657.37
  22
12002029.64
  32
-1.50
  13
-35419657.37
  23
12002029.64
  33
1.50
  0
3DFACE
  8
mg_to_dxf
  62
2
  10
-35423010.44
  20
12005290.10
  30
0.00
  11
-35423008.35
  21
12005292.26
  31
0.00
  12
-35423100.22
  22
12005381.35
  32
0.00
  13
-35423102.31
  23
12005379.19
  33
0.00
  0
3DFACE
  8
mg_to_dxf
  62
2
  10
-35423166.35
  20
12005440.45
  30
0.00
  11
-35423164.25
  21
12005442.59
  31
0.00
  12
-35423256.12
  22
12005533.07
  32
0.00
  13
-35423258.23
  23
12005530.93
  33
0.00
  0
3DFACE
  8
mg_to_dxf
  62
2
  10
-35423322.26
  20
12005592.18
  30
0.00
  11
-35423320.16
  21
12005594.32
  31
0.00
  12
-35423412.03
  22
12005684.80
  32
0.00
  13
-35423414.14
  23
12005682.66
  33
0.00
  0
3DFACE
  8
mg_to_dxf
  62
2
  10
-35423478.16
  20
12005743.91
  30
0.00
  11
-35423476.07
  21
12005746.06
  31
0.00
  12
-35423567.95
  22
12005835.15
  32
0.00
  13
-35423570.03
  23
12005833.00
  33
0.00
  0
3DFACE
  8
mg_to_dxf
  62
2
  10
-35423631.28
  20
12005892.85
  30
0.00
  11
-35423629.20
  21
12005895.01
  31
0.00
  12
-35423723.85
  22
12005986.88
  32
0.00
  13
-35423725.94
  23
12005984.73
  33
0.00
  0
3DFACE
  8
mg_to_dxf
  62
2
  10
-35423789.98
  20
12006045.99
  30
0.00
  11
-35423787.88
  21
12006048.12
  31
0.00
  12
-35423876.97
  22
12006135.82
  32
0.00
  13
-35423879.07
  23
12006133.68
  33
0.00
  0
3DFACE
  8
mg_to_dxf
  62
2
  10
-35423945.89
  20
12006196.33
  30
0.00
  11
-35423943.79
  21
12006198.46
  31
0.00
  12
-35424035.66
  22
12006288.95
  32
0.00
  13
-35424037.77
  23
12006286.81
  33
0.00
  0
3DFACE
  8
mg_to_dxf
  62
2
  10
-35424099.01
  20
12006346.66
  30
0.00
  11
-35424096.92
  21
12006348.81
  31
0.00
  12
-35424191.58
  22
12006440.69
  32
0.00
  13
-35424193.67
  23
12006438.53
  33
0.00
  0
3DFACE
  8
mg_to_dxf
  62
2
  10
-35424254.91
  20
12006499.77
  30
0.00
  11
-35424252.84
  21
12006501.94
  31
0.00
  12
-35424344.71
  22
12006589.64
  32
0.00
  13
-35424346.78
  23
12006587.47
  33
0.00
  0
3DFACE
  8
mg_to_dxf
  62
2
  10
-35424424.75
  20
12006662.65
  30
0.00
  11
-35424422.66
  21
12006664.80
  31
0.00
  12
-35424514.53
  22
12006753.89
  32
0.00
  13
-35424516.62
  23
12006751.74
  33
0.00
  0
3DFACE
  8
mg_to_dxf
  62
2
  10
-35424580.66
  20
12006814.39
  30
0.00
  11
-35424578.56
  21
12006816.53
  31
0.00
  12
-35424667.65
  22
12006904.23
  32
0.00
  13
-35424669.75
  23
12006902.09
  33
0.00
  0
3DFACE
  8
mg_to_dxf
  62
2
  10
-35424733.77
  20
12006964.71
  30
0.00
  11
-35424731.70
  21
12006966.88
  31
0.00
  12
-35424823.57
  22
12007054.58
  32
0.00
  13
-35424825.64
  23
12007052.41
  33
0.00
  0
3DFACE
  8
mg_to_dxf
  62
2
  10
-35424889.68
  20
12007116.45
  30
0.00
  11
-35424887.61
  21
12007118.62
  31
0.00
  12
-35424979.48
  22
12007206.31
  32
0.00
  13
-35424981.55
  23
12007204.14
  33
0.00
  0
3DFACE
  8
mg_to_dxf
  62
2
  10
-35425048.39
  20
12007269.59
  30
0.00
  11
-35425046.28
  21
12007271.72
  31
0.00
  12
-35425132.59
  22
12007356.64
  32
0.00
  13
-35425134.69
  23
12007354.50
  33
0.00
  0
3DFACE
  8
mg_to_dxf
  62
2
  10
-35425198.71
  20
12007417.13
  30
0.00
  11
-35425196.64
  21
12007419.30
  31
0.00
  12
-35425288.51
  22
12007506.99
  32
0.00
  13
-35425290.58
  23
12007504.82
  33
0.00
  0
3DFACE
  8
mg_to_dxf
  62
2
  10
-35425354.62
  20
12007568.86
  30
0.00
  11
-35425352.55
  21
12007571.03
  31
0.00
  12
-35425444.42
  22
12007658.73
  32
0.00
  13
-35425446.49
  23
12007656.56
  33
0.00
  0
3DFACE
  8
mg_to_dxf
  62
2
  10
-35425535.61
  20
12007742.89
  30
0.00
  11
-35425533.49
  21
12007745.01
  31
0.00
  12
-35425608.66
  22
12007820.18
  32
0.00
  13
-35425610.78
  23
12007818.06
  33
0.00
  0
3DFACE
  8
mg_to_dxf
  62
2
  10
-35425666.43
  20
12007872.32
  30
0.00
  11
-35425664.36
  21
12007874.49
  31
0.00
  12
-35425756.24
  22
12007962.19
  32
0.00
  13
-35425758.31
  23
12007960.02
  33
0.00
  0
3DFACE
  8
mg_to_dxf
  62
2
  10
-35425825.14
  20
12008024.07
  30
0.00
  11
-35425823.04
  21
12008026.21
  31
0.00
  12
-35425906.56
  22
12008108.34
  32
0.00
  13
-35425908.66
  23
12008106.20
  33
0.00
  0
3DFACE
  8
mg_to_dxf
  62
2
  10
-35425978.27
  20
12008174.41
  30
0.00
  11
-35425976.16
  21
12008176.55
  31
0.00
  12
-35426065.25
  22
12008264.25
  32
0.00
  13
-35426067.36
  23
12008262.11
  33
0.00
  0
3DFACE
  8
mg_to_dxf
  62
2
  10
-35426131.37
  20
12008324.73
  30
0.00
  11
-35426129.30
  21
12008326.90
  31
0.00
  12
-35426221.18
  22
12008414.60
  32
0.00
  13
-35426223.25
  23
12008412.43
  33
0.00
  0
3DFACE
  8
mg_to_dxf
  62
2
  10
-35426290.07
  20
12008477.86
  30
0.00
  11
-35426287.99
  21
12008480.03
  31
0.00
  12
-35426379.87
  22
12008567.73
  32
0.00
  13
-35426381.94
  23
12008565.56
  33
0.00
  0
3DFACE
  8
mg_to_dxf
  62
2
  10
-35426443.20
  20
12008626.81
  30
0.00
  11
-35426441.11
  21
12008628.97
  31
0.00
  12
-35426535.77
  22
12008720.84
  32
0.00
  13
-35426537.86
  23
12008718.69
  33
0.00
  0
3DFACE
  8
mg_to_dxf
  62
2
  10
-35426599.11
  20
12008778.55
  30
0.00
  11
-35426597.01
  21
12008780.69
  31
0.00
  12
-35426688.88
  22
12008871.17
  32
0.00
  13
-35426690.99
  23
12008869.04
  33
0.00
  0
3DFACE
  8
mg_to_dxf
  62
2
  10
-35416620.92
  20
11997706.22
  30
0.00
  11
-35416618.97
  21
11997708.51
  31
0.00
  12
-35416667.23
  22
11997749.67
  32
0.00
  13
-35416667.32
  23
11997745.80
  33
0.00
  0
3DFACE
  8
mg_to_dxf
  62
2
  10
-35416667.32
  20
11997745.80
  30
0.00
  11
-35416667.23
  21
11997749.67
  31
0.00
  12
-35416718.31
  22
11997709.94
  32
0.00
  13
-35416716.47
  23
11997707.57
  33
0.00
  0
3DFACE
  8
mg_to_dxf
  62
2
  10
-35416667.27
  20
11997845.99
  30
0.00
  11
-35416667.28
  21
11997849.93
  31
0.00
  12
-35416751.77
  22
11997778.11
  32
0.00
  13
-35416749.82
  23
11997775.82
  33
0.00
  0
3DFACE
  8
mg_to_dxf
  62
2
  10
-35416587.50
  20
11997778.60
  30
0.00
  11
-35416585.57
  21
11997780.90
  31
0.00
  12
-35416667.28
  22
11997849.93
  32
0.00
  13
-35416667.27
  23
11997845.99
  33
0.00
  0
3DFACE
  8
mg_to_dxf
  62
2
  10
-35416587.52
  20
11997877.45
  30
0.00
  11
-35416585.56
  21
11997879.72
  31
0.00
  12
-35416667.27
  22
11997950.16
  32
0.00
  13
-35416667.28
  23
11997946.21
  33
0.00
  0
3DFACE
  8
mg_to_dxf
  62
2
  10
-35416667.28
  20
11997946.21
  30
0.00
  11
-35416667.27
  21
11997950.16
  31
0.00
  12
-35416751.77
  22
11997878.34
  32
0.00
  13
-35416749.82
  23
11997876.05
  33
0.00
  0
3DFACE
  8
mg_to_dxf
  62
2
  10
-35416751.83
  20
11997975.72
  30
0.00
  11
-35416749.76
  21
11997973.55
  31
0.00
  12
-35416721.92
  22
11998000.00
  32
0.00
  13
-35416723.99
  23
11998002.17
  33
0.00
  0
3DFACE
  8
mg_to_dxf
  62
2
  10
-35416613.44
  20
11998000.86
  30
0.00
  11
-35416615.31
  21
11997998.52
  31
0.00
  12
-35416587.47
  22
11997976.25
  32
0.00
  13
-35416585.60
  23
11997978.59
  33
0.00
  0
3DFACE
  8
mg_to_dxf
  62
2
  10
-35416618.48
  20
12009350.66
  30
0.00
  11
-35416621.41
  21
12009350.05
  31
0.00
  12
-35416611.62
  22
12009302.71
  32
0.00
  13
-35416611.57
  23
12009317.27
  33
0.00
  0
3DFACE
  8
mg_to_dxf
  62
2
  10
-35416611.57
  20
12009317.27
  30
0.00
  11
-35416611.62
  21
12009302.71
  31
0.00
  12
-35416601.77
  22
12009348.65
  32
0.00
  13
-35416604.71
  23
12009349.28
  33
0.00
  0
3DFACE
  8
mg_to_dxf
  62
2
  10
-35416613.09
  20
12009346.18
  30
0.00
  11
-35416610.09
  21
12009346.18
  31
0.00
  12
-35416610.09
  22
12009421.35
  32
0.00
  13
-35416613.09
  23
12009421.35
  33
0.00
  0
3DFACE
  8
mg_to_dxf
  62
2
  10
-35416618.48
  20
12009148.83
  30
0.00
  11
-35416621.41
  21
12009148.20
  31
0.00
  12
-35416611.59
  22
12009102.38
  32
0.00
  13
-35416611.59
  23
12009116.69
  33
0.00
  0
3DFACE
  8
mg_to_dxf
  62
2
  10
-35416611.59
  20
12009116.69
  30
0.00
  11
-35416611.59
  21
12009102.38
  31
0.00
  12
-35416601.77
  22
12009148.20
  32
0.00
  13
-35416604.71
  23
12009148.83
  33
0.00
  0
3DFACE
  8
mg_to_dxf
  62
2
  10
-35416615.88
  20
12008942.49
  30
0.00
  11
-35416612.88
  21
12008942.49
  31
0.00
  12
-35416612.88
  22
12008943.88
  32
0.00
  13
-35416615.88
  23
12008943.88
  33
0.00
  0
3DFACE
  8
mg_to_dxf
  62
2
  10
-35416613.09
  20
12009142.94
  30
0.00
  11
-35416610.09
  21
12009142.94
  31
0.00
  12
-35416610.09
  22
12009223.68
  32
0.00
  13
-35416613.09
  23
12009223.68
  33
0.00
  0
3DFACE
  8
mg_to_dxf
  62
2
  10
-35416612.88
  20
12009020.44
  30
0.00
  11
-35416615.88
  21
12009020.44
  31
0.00
  12
-35416615.88
  22
12008939.71
  32
0.00
  13
-35416612.88
  23
12008939.71
  33
0.00
  0
3DFACE
  8
mg_to_dxf
  62
2
  10
-35416618.46
  20
12008946.89
  30
0.00
  11
-35416621.43
  21
12008946.44
  31
0.00
  12
-35416614.70
  22
12008902.70
  32
0.00
  13
-35416614.05
  23
12008918.24
  33
0.00
  0
3DFACE
  8
mg_to_dxf
  62
2
  10
-35416614.05
  20
12008918.24
  30
0.00
  11
-35416614.70
  21
12008902.70
  31
0.00
  12
-35416604.57
  22
12008944.92
  32
0.00
  13
-35416607.48
  23
12008945.62
  33
0.00
  0
3DFACE
  8
mg_to_dxf
  62
2
  10
-35416612.88
  20
12008819.99
  30
0.00
  11
-35416615.88
  21
12008819.99
  31
0.00
  12
-35416615.88
  22
12008739.25
  32
0.00
  13
-35416612.88
  23
12008739.25
  33
0.00
  0
3DFACE
  8
mg_to_dxf
  62
2
  10
-35416621.27
  20
12008746.56
  30
0.00
  11
-35416624.19
  21
12008745.86
  31
0.00
  12
-35416614.38
  22
12008704.99
  32
0.00
  13
-35416614.38
  23
12008717.84
  33
0.00
  0
3DFACE
  8
mg_to_dxf
  62
2
  10
-35416614.38
  20
12008717.84
  30
0.00
  11
-35416614.38
  21
12008704.99
  31
0.00
  12
-35416604.57
  22
12008745.86
  32
0.00
  13
-35416607.48
  23
12008746.56
  33
0.00
  0
3DFACE
  8
mg_to_dxf
  62
2
  10
-35416612.88
  20
12008627.89
  30
0.00
  11
-35416615.88
  21
12008627.89
  31
0.00
  12
-35416615.88
  22
12008538.80
  32
0.00
  13
-35416612.88
  23
12008538.80
  33
0.00
  0
3DFACE
  8
mg_to_dxf
  62
2
  10
-35416621.26
  20
12008546.09
  30
0.00
  11
-35416624.19
  21
12008545.43
  31
0.00
  12
-35416614.11
  22
12008500.05
  32
0.00
  13
-35416614.64
  23
12008516.30
  33
0.00
  0
3DFACE
  8
mg_to_dxf
  62
2
  10
-35416614.64
  20
12008516.30
  30
0.00
  11
-35416614.11
  21
12008500.05
  31
0.00
  12
-35416607.33
  22
12008544.14
  32
0.00
  13
-35416610.29
  23
12008544.60
  33
0.00
  0
3DFACE
  8
mg_to_dxf
  62
2
  10
-35416554.43
  20
12008469.43
  30
0.00
  11
-35416557.39
  21
12008468.97
  31
0.00
  12
-35416550.67
  22
12008425.24
  32
0.00
  13
-35416550.02
  23
12008440.78
  33
0.00
  0
3DFACE
  8
mg_to_dxf
  62
2
  10
-35416550.02
  20
12008440.78
  30
0.00
  11
-35416550.67
  21
12008425.24
  31
0.00
  12
-35416540.53
  22
12008467.46
  32
0.00
  13
-35416543.45
  23
12008468.16
  33
0.00
  0
3DFACE
  8
mg_to_dxf
  62
2
  10
-35416598.97
  20
12008469.43
  30
0.00
  11
-35416601.94
  21
12008468.97
  31
0.00
  12
-35416595.21
  22
12008425.24
  32
0.00
  13
-35416594.57
  23
12008440.78
  33
0.00
  0
3DFACE
  8
mg_to_dxf
  62
2
  10
-35416594.57
  20
12008440.78
  30
0.00
  11
-35416595.21
  21
12008425.24
  31
0.00
  12
-35416585.08
  22
12008467.46
  32
0.00
  13
-35416587.99
  23
12008468.16
  33
0.00
  0
3DFACE
  8
mg_to_dxf
  62
2
  10
-35416643.52
  20
12008468.03
  30
0.00
  11
-35416646.48
  21
12008467.58
  31
0.00
  12
-35416639.76
  22
12008423.84
  32
0.00
  13
-35416639.11
  23
12008439.38
  33
0.00
  0
3DFACE
  8
mg_to_dxf
  62
2
  10
-35416639.11
  20
12008439.38
  30
0.00
  11
-35416639.76
  21
12008423.84
  31
0.00
  12
-35416629.62
  22
12008466.06
  32
0.00
  13
-35416632.54
  23
12008466.76
  33
0.00
  0
3DFACE
  8
mg_to_dxf
  62
2
  10
-35416688.06
  20
12008468.02
  30
0.00
  11
-35416691.03
  21
12008467.59
  31
0.00
  12
-35416684.25
  22
12008420.12
  32
0.00
  13
-35416683.71
  23
12008437.54
  33
0.00
  0
3DFACE
  8
mg_to_dxf
  62
2
  10
-35416683.71
  20
12008437.54
  30
0.00
  11
-35416684.25
  21
12008420.12
  31
0.00
  12
-35416674.16
  22
12008468.89
  32
0.00
  13
-35416677.10
  23
12008469.50
  33
0.00
  0
3DFACE
  8
mg_to_dxf
  62
2
  10
-35416618.44
  20
12007823.27
  30
0.00
  11
-35416621.44
  21
12007823.32
  31
0.00
  12
-35416621.44
  22
12007702.19
  32
0.00
  13
-35416618.44
  23
12007702.19
  33
0.00
  0
3DFACE
  8
mg_to_dxf
  62
2
  10
-35416615.66
  20
12007904.01
  30
0.00
  11
-35416618.66
  21
12007904.06
  31
0.00
  12
-35416621.44
  22
12007823.32
  32
0.00
  13
-35416618.44
  23
12007823.27
  33
0.00
  0
3DFACE
  8
mg_to_dxf
  62
2
  10
-35416615.66
  20
12008018.18
  30
0.00
  11
-35416618.66
  21
12008018.18
  31
0.00
  12
-35416618.66
  22
12007904.06
  32
0.00
  13
-35416615.66
  23
12007904.01
  33
0.00
  0
3DFACE
  8
mg_to_dxf
  62
2
  10
-35416618.44
  20
12007615.88
  30
0.00
  11
-35416621.44
  21
12007615.88
  31
0.00
  12
-35416621.44
  22
12007504.52
  32
0.00
  13
-35416618.44
  23
12007504.52
  33
0.00
  0
3DFACE
  8
mg_to_dxf
  62
2
  10
-35416618.44
  20
12007409.83
  30
0.00
  11
-35416621.44
  21
12007409.89
  31
0.00
  12
-35416624.23
  22
12007256.76
  32
0.00
  13
-35416621.23
  23
12007256.71
  33
0.00
  0
3DFACE
  8
mg_to_dxf
  62
2
  10
-35416629.58
  20
12005392.80
  30
0.00
  11
-35416632.58
  21
12005392.80
  31
0.00
  12
-35416632.58
  22
12005271.69
  32
0.00
  13
-35416629.58
  23
12005271.69
  33
0.00
  0
3DFACE
  8
mg_to_dxf
  62
2
  10
-35416629.58
  20
12005185.35
  30
0.00
  11
-35416632.58
  21
12005185.42
  31
0.00
  12
-35416635.36
  22
12005071.27
  32
0.00
  13
-35416632.37
  23
12005071.20
  33
0.00
  0
3DFACE
  8
mg_to_dxf
  62
2
  10
-35416632.37
  20
12004990.50
  30
0.00
  11
-35416635.37
  21
12004990.50
  31
0.00
  12
-35416635.37
  22
12004868.00
  32
0.00
  13
-35416632.37
  23
12004868.00
  33
0.00
  0
3DFACE
  8
mg_to_dxf
  62
2
  10
-35416632.37
  20
12004787.26
  30
0.00
  11
-35416635.37
  21
12004787.26
  31
0.00
  12
-35416635.37
  22
12004666.15
  32
0.00
  13
-35416632.37
  23
12004666.15
  33
0.00
  0
3DFACE
  8
mg_to_dxf
  62
2
  10
-35416632.37
  20
12004582.60
  30
0.00
  11
-35416635.36
  21
12004582.67
  31
0.00
  12
-35416638.15
  22
12004462.95
  32
0.00
  13
-35416635.15
  23
12004462.88
  33
0.00
  0
3DFACE
  8
mg_to_dxf
  62
2
  10
-35416635.15
  20
12004380.79
  30
0.00
  11
-35416638.15
  21
12004380.79
  31
0.00
  12
-35416638.15
  22
12004261.07
  32
0.00
  13
-35416635.15
  23
12004261.07
  33
0.00
  0
3DFACE
  8
mg_to_dxf
  62
2
  10
-35416635.15
  20
12004181.73
  30
0.00
  11
-35416638.15
  21
12004181.73
  31
0.00
  12
-35416638.15
  22
12004067.58
  32
0.00
  13
-35416635.15
  23
12004067.58
  33
0.00
  0
3DFACE
  8
mg_to_dxf
  62
2
  10
-35416635.15
  20
12003986.81
  30
0.00
  11
-35416638.15
  21
12003986.88
  31
0.00
  12
-35416640.93
  22
12003865.77
  32
0.00
  13
-35416637.93
  23
12003865.70
  33
0.00
  0
3DFACE
  8
mg_to_dxf
  62
2
  10
-35416637.93
  20
12003780.82
  30
0.00
  11
-35416640.93
  21
12003780.82
  31
0.00
  12
-35416640.93
  22
12003663.89
  32
0.00
  13
-35416637.93
  23
12003663.89
  33
0.00
  0
3DFACE
  8
mg_to_dxf
  62
2
  10
-35416637.93
  20
12003580.37
  30
0.00
  11
-35416640.93
  21
12003580.37
  31
0.00
  12
-35416640.93
  22
12003460.65
  32
0.00
  13
-35416637.93
  23
12003460.65
  33
0.00
  0
3DFACE
  8
mg_to_dxf
  62
2
  10
-35416640.72
  20
12003382.70
  30
0.00
  11
-35416643.72
  21
12003382.70
  31
0.00
  12
-35416643.72
  22
12003257.41
  32
0.00
  13
-35416640.72
  23
12003257.41
  33
0.00
  0
3DFACE
  8
mg_to_dxf
  62
2
  10
-35416640.72
  20
12003176.68
  30
0.00
  11
-35416643.72
  21
12003176.68
  31
0.00
  12
-35416643.72
  22
12003058.35
  32
0.00
  13
-35416640.72
  23
12003058.35
  33
0.00
  0
3DFACE
  8
mg_to_dxf
  62
2
  10
-35416640.72
  20
12002973.40
  30
0.00
  11
-35416643.72
  21
12002973.47
  31
0.00
  12
-35416646.50
  22
12002852.37
  32
0.00
  13
-35416643.50
  23
12002852.30
  33
0.00
  0
3DFACE
  8
mg_to_dxf
  62
2
  10
-35416643.50
  20
12002771.59
  30
0.00
  11
-35416646.50
  21
12002771.59
  31
0.00
  12
-35416646.50
  22
12002651.88
  32
0.00
  13
-35416643.50
  23
12002651.88
  33
0.00
  0
3DFACE
  8
mg_to_dxf
  62
2
  10
-35416643.50
  20
12002571.14
  30
0.00
  11
-35416646.50
  21
12002571.14
  31
0.00
  12
-35416646.50
  22
12002448.64
  32
0.00
  13
-35416643.50
  23
12002448.64
  33
0.00
  0
3DFACE
  8
mg_to_dxf
  62
2
  10
-35416643.50
  20
12002367.87
  30
0.00
  11
-35416646.50
  21
12002367.94
  31
0.00
  12
-35416649.29
  22
12002246.83
  32
0.00
  13
-35416646.29
  23
12002246.76
  33
0.00
  0
3DFACE
  8
mg_to_dxf
  62
2
  10
-35416646.29
  20
12002163.27
  30
0.00
  11
-35416649.29
  21
12002163.27
  31
0.00
  12
-35416649.29
  22
12002043.56
  32
0.00
  13
-35416646.29
  23
12002043.56
  33
0.00
  0
3DFACE
  8
mg_to_dxf
  62
2
  10
-35416646.29
  20
12001962.82
  30
0.00
  11
-35416649.29
  21
12001962.82
  31
0.00
  12
-35416649.29
  22
12001840.32
  32
0.00
  13
-35416646.29
  23
12001840.32
  33
0.00
  0
3DFACE
  8
mg_to_dxf
  62
2
  10
-35416649.07
  20
12001759.58
  30
0.00
  11
-35416652.07
  21
12001759.58
  31
0.00
  12
-35416652.07
  22
12001637.08
  32
0.00
  13
-35416649.07
  23
12001637.08
  33
0.00
  0
3DFACE
  8
mg_to_dxf
  62
2
  10
-35416649.07
  20
12001556.35
  30
0.00
  11
-35416652.07
  21
12001556.35
  31
0.00
  12
-35416652.07
  22
12001435.24
  32
0.00
  13
-35416649.07
  23
12001435.24
  33
0.00
  0
3DFACE
  8
mg_to_dxf
  62
2
  10
-35416649.07
  20
12001351.72
  30
0.00
  11
-35416652.07
  21
12001351.72
  31
0.00
  12
-35416652.07
  22
12001230.61
  32
0.00
  13
-35416649.07
  23
12001230.61
  33
0.00
  0
3DFACE
  8
mg_to_dxf
  62
2
  10
-35416651.85
  20
12001148.48
  30
0.00
  11
-35416654.85
  21
12001148.48
  31
0.00
  12
-35416654.85
  22
12001027.37
  32
0.00
  13
-35416651.85
  23
12001027.37
  33
0.00
  0
3DFACE
  8
mg_to_dxf
  62
2
  10
-35416651.85
  20
12000945.24
  30
0.00
  11
-35416654.85
  21
12000945.24
  31
0.00
  12
-35416654.85
  22
12000826.92
  32
0.00
  13
-35416651.85
  23
12000826.92
  33
0.00
  0
3DFACE
  8
mg_to_dxf
  62
2
  10
-35416651.85
  20
12000744.79
  30
0.00
  11
-35416654.85
  21
12000744.79
  31
0.00
  12
-35416654.85
  22
12000626.46
  32
0.00
  13
-35416651.85
  23
12000626.46
  33
0.00
  0
3DFACE
  8
mg_to_dxf
  62
2
  10
-35416651.85
  20
12000540.13
  30
0.00
  11
-35416654.85
  21
12000540.19
  31
0.00
  12
-35416657.64
  22
12000407.95
  32
0.00
  13
-35416654.64
  23
12000407.88
  33
0.00
  0
3DFACE
  8
mg_to_dxf
  62
2
  10
-35416654.64
  20
12000335.53
  30
0.00
  11
-35416657.64
  21
12000335.53
  31
0.00
  12
-35416657.64
  22
12000219.99
  32
0.00
  13
-35416654.64
  23
12000219.99
  33
0.00
  0
3DFACE
  8
mg_to_dxf
  62
2
  10
-35416654.64
  20
12000132.29
  30
0.00
  11
-35416657.64
  21
12000132.29
  31
0.00
  12
-35416657.64
  22
12000015.36
  32
0.00
  13
-35416654.64
  23
12000015.36
  33
0.00
  0
3DFACE
  8
mg_to_dxf
  62
2
  10
-35416657.42
  20
11999931.84
  30
0.00
  11
-35416660.42
  21
11999931.84
  31
0.00
  12
-35416660.42
  22
11999812.12
  32
0.00
  13
-35416657.42
  23
11999812.12
  33
0.00
  0
3DFACE
  8
mg_to_dxf
  62
2
  10
-35416657.42
  20
11999729.99
  30
0.00
  11
-35416660.42
  21
11999729.99
  31
0.00
  12
-35416660.42
  22
11999610.28
  32
0.00
  13
-35416657.42
  23
11999610.28
  33
0.00
  0
3DFACE
  8
mg_to_dxf
  62
2
  10
-35416657.42
  20
11999526.72
  30
0.00
  11
-35416660.42
  21
11999526.79
  31
0.00
  12
-35416663.21
  22
11999409.86
  32
0.00
  13
-35416660.21
  23
11999409.79
  33
0.00
  0
3DFACE
  8
mg_to_dxf
  62
2
  10
-35416660.21
  20
11999324.91
  30
0.00
  11
-35416663.21
  21
11999324.91
  31
0.00
  12
-35416663.21
  22
11999202.41
  32
0.00
  13
-35416660.21
  23
11999202.41
  33
0.00
  0
3DFACE
  8
mg_to_dxf
  62
2
  10
-35416660.21
  20
11999120.28
  30
0.00
  11
-35416663.21
  21
11999120.28
  31
0.00
  12
-35416663.21
  22
11999001.96
  32
0.00
  13
-35416660.21
  23
11999001.96
  33
0.00
  0
3DFACE
  8
mg_to_dxf
  62
2
  10
-35416660.21
  20
11998917.01
  30
0.00
  11
-35416663.21
  21
11998917.08
  31
0.00
  12
-35416665.99
  22
11998798.76
  32
0.00
  13
-35416662.99
  23
11998798.69
  33
0.00
  0
3DFACE
  8
mg_to_dxf
  62
2
  10
-35416662.99
  20
11998713.81
  30
0.00
  11
-35416665.99
  21
11998713.81
  31
0.00
  12
-35416665.99
  22
11998594.09
  32
0.00
  13
-35416662.99
  23
11998594.09
  33
0.00
  0
3DFACE
  8
mg_to_dxf
  62
2
  10
-35416662.99
  20
11998513.35
  30
0.00
  11
-35416665.99
  21
11998513.35
  31
0.00
  12
-35416665.99
  22
11998388.07
  32
0.00
  13
-35416662.99
  23
11998388.07
  33
0.00
  0
3DFACE
  8
mg_to_dxf
  62
2
  10
-35415221.36
  20
12011833.49
  30
0.00
  11
-35415223.32
  21
12011831.22
  31
0.00
  12
-35415172.24
  22
12011787.24
  32
0.00
  13
-35415172.21
  23
12011791.17
  33
0.00
  0
3DFACE
  8
mg_to_dxf
  62
2
  10
-35415172.21
  20
12011791.17
  30
0.00
  11
-35415172.24
  21
12011787.24
  31
0.00
  12
-35415121.15
  22
12011829.81
  32
0.00
  13
-35415123.07
  23
12011832.12
  33
0.00
  0
3DFACE
  8
mg_to_dxf
  62
2
  10
-35415310.45
  20
12011809.83
  30
0.00
  11
-35415312.41
  21
12011807.56
  31
0.00
  12
-35415172.25
  22
12011687.02
  32
0.00
  13
-35415172.21
  23
12011690.94
  33
0.00
  0
3DFACE
  8
mg_to_dxf
  62
2
  10
-35415172.21
  20
12011690.94
  30
0.00
  11
-35415172.25
  21
12011687.02
  31
0.00
  12
-35415029.29
  22
12011804.75
  32
0.00
  13
-35415031.19
  23
12011807.07
  33
0.00
  0
3DFACE
  8
mg_to_dxf
  62
2
  10
-35415172.22
  20
12011590.70
  30
0.00
  11
-35415172.24
  21
12011586.80
  31
0.00
  12
-35415029.29
  22
12011704.53
  32
0.00
  13
-35415031.19
  23
12011706.84
  33
0.00
  0
3DFACE
  8
mg_to_dxf
  62
2
  10
-35415313.25
  20
12011709.61
  30
0.00
  11
-35415315.18
  21
12011707.32
  31
0.00
  12
-35415172.24
  22
12011586.80
  32
0.00
  13
-35415172.22
  23
12011590.70
  33
0.00
  0
3DFACE
  8
mg_to_dxf
  62
2
  10
-35415313.25
  20
12011608.00
  30
0.00
  11
-35415315.18
  21
12011605.70
  31
0.00
  12
-35415172.23
  22
12011485.18
  32
0.00
  13
-35415172.22
  23
12011489.09
  33
0.00
  0
3DFACE
  8
mg_to_dxf
  62
2
  10
-35415172.22
  20
12011489.09
  30
0.00
  11
-35415172.23
  21
12011485.18
  31
0.00
  12
-35415029.28
  22
12011604.30
  32
0.00
  13
-35415031.20
  23
12011606.61
  33
0.00
  0
3DFACE
  8
mg_to_dxf
  62
2
  10
-35415313.24
  20
12011507.76
  30
0.00
  11
-35415315.19
  21
12011505.48
  31
0.00
  12
-35415231.66
  22
12011434.49
  32
0.00
  13
-35415229.72
  23
12011436.77
  33
0.00
  0
3DFACE
  8
mg_to_dxf
  62
2
  10
-35415117.50
  20
12011436.79
  30
0.00
  11
-35415115.59
  21
12011434.47
  31
0.00
  12
-35415029.29
  22
12011505.46
  32
0.00
  13
-35415031.19
  23
12011507.78
  33
0.00
  0
3DFACE
  8
mg_to_dxf
  62
2
  10
-35415241.81
  20
12011445.26
  30
0.00
  11
-35415241.84
  21
12011448.26
  31
0.00
  12
-35415311.46
  22
12011446.87
  32
0.00
  13
-35415311.40
  23
12011443.87
  33
0.00
  0
3DFACE
  8
mg_to_dxf
  62
2
  10
-35415172.24
  20
12011445.26
  30
0.00
  11
-35415172.21
  21
12011448.26
  31
0.00
  12
-35415241.84
  22
12011448.26
  32
0.00
  13
-35415241.81
  23
12011445.26
  33
0.00
  0
3DFACE
  8
mg_to_dxf
  62
2
  10
-35415105.42
  20
12011443.87
  30
0.00
  11
-35415105.39
  21
12011446.87
  31
0.00
  12
-35415172.21
  22
12011448.26
  32
0.00
  13
-35415172.24
  23
12011445.26
  33
0.00
  0
3DFACE
  8
mg_to_dxf
  62
2
  10
-35415038.59
  20
12011443.87
  30
0.00
  11
-35415038.59
  21
12011446.87
  31
0.00
  12
-35415105.39
  22
12011446.87
  32
0.00
  13
-35415105.42
  23
12011443.87
  33
0.00
  0
3DFACE
  8
mg_to_dxf
  62
2
  10
-35415207.14
  20
12005108.82
  30
0.00
  11
-35415204.14
  21
12005108.82
  31
0.00
  12
-35415204.14
  22
12005227.15
  32
0.00
  13
-35415207.14
  23
12005227.15
  33
0.00
  0
3DFACE
  8
mg_to_dxf
  62
2
  10
-35415204.35
  20
12005309.28
  30
0.00
  11
-35415201.35
  21
12005309.28
  31
0.00
  12
-35415201.35
  22
12005428.99
  32
0.00
  13
-35415204.35
  23
12005428.99
  33
0.00
  0
3DFACE
  8
mg_to_dxf
  62
2
  10
-35415204.35
  20
12005509.73
  30
0.00
  11
-35415201.35
  21
12005509.73
  31
0.00
  12
-35415201.35
  22
12005628.05
  32
0.00
  13
-35415204.35
  23
12005628.05
  33
0.00
  0
3DFACE
  8
mg_to_dxf
  62
2
  10
-35415204.35
  20
12005710.22
  30
0.00
  11
-35415201.35
  21
12005710.15
  31
0.00
  12
-35415198.57
  22
12005828.47
  32
0.00
  13
-35415201.57
  23
12005828.54
  33
0.00
  0
3DFACE
  8
mg_to_dxf
  62
2
  10
-35415201.57
  20
12005909.24
  30
0.00
  11
-35415198.57
  21
12005909.24
  31
0.00
  12
-35415198.57
  22
12006031.74
  32
0.00
  13
-35415201.57
  23
12006031.74
  33
0.00
  0
3DFACE
  8
mg_to_dxf
  62
2
  10
-35415201.57
  20
12006108.30
  30
0.00
  11
-35415198.57
  21
12006108.30
  31
0.00
  12
-35415198.57
  22
12006230.80
  32
0.00
  13
-35415201.57
  23
12006230.80
  33
0.00
  0
3DFACE
  8
mg_to_dxf
  62
2
  10
-35415200.07
  20
12006108.30
  30
1.50
  11
-35415200.07
  21
12006108.30
  31
-1.50
  12
-35415198.57
  22
12006108.30
  32
0.00
  13
-35415201.57
  23
12006108.30
  33
0.00
  0
3DFACE
  8
mg_to_dxf
  62
2
  10
-35415201.57
  20
12006310.18
  30
0.00
  11
-35415198.57
  21
12006310.12
  31
0.00
  12
-35415195.78
  22
12006434.01
  32
0.00
  13
-35415198.78
  23
12006434.07
  33
0.00
  0
3DFACE
  8
mg_to_dxf
  62
2
  10
-35415198.78
  20
12006510.60
  30
0.00
  11
-35415195.78
  21
12006510.60
  31
0.00
  12
-35415195.78
  22
12006630.32
  32
0.00
  13
-35415198.78
  23
12006630.32
  33
0.00
  0
3DFACE
  8
mg_to_dxf
  62
2
  10
-35415198.78
  20
12006712.45
  30
0.00
  11
-35415195.78
  21
12006712.45
  31
0.00
  12
-35415195.78
  22
12006830.77
  32
0.00
  13
-35415198.78
  23
12006830.77
  33
0.00
  0
3DFACE
  8
mg_to_dxf
  62
2
  10
-35415198.78
  20
12006912.94
  30
0.00
  11
-35415195.78
  21
12006912.87
  31
0.00
  12
-35415193.00
  22
12007031.19
  32
0.00
  13
-35415196.00
  23
12007031.26
  33
0.00
  0
3DFACE
  8
mg_to_dxf
  62
2
  10
-35415196.00
  20
12007111.96
  30
0.00
  11
-35415193.00
  21
12007111.96
  31
0.00
  12
-35415193.00
  22
12007233.07
  32
0.00
  13
-35415196.00
  23
12007233.07
  33
0.00
  0
3DFACE
  8
mg_to_dxf
  62
2
  10
-35415196.00
  20
12007312.42
  30
0.00
  11
-35415193.00
  21
12007312.42
  31
0.00
  12
-35415193.00
  22
12007433.52
  32
0.00
  13
-35415196.00
  23
12007433.52
  33
0.00
  0
3DFACE
  8
mg_to_dxf
  62
2
  10
-35415196.00
  20
12007512.90
  30
0.00
  11
-35415193.00
  21
12007512.83
  31
0.00
  12
-35415190.22
  22
12007633.94
  32
0.00
  13
-35415193.21
  23
12007634.01
  33
0.00
  0
3DFACE
  8
mg_to_dxf
  62
2
  10
-35415193.22
  20
12007714.71
  30
0.00
  11
-35415190.22
  21
12007714.71
  31
0.00
  12
-35415190.22
  22
12007837.21
  32
0.00
  13
-35415193.22
  23
12007837.21
  33
0.00
  0
3DFACE
  8
mg_to_dxf
  62
2
  10
-35415193.22
  20
12007916.56
  30
0.00
  11
-35415190.22
  21
12007916.56
  31
0.00
  12
-35415190.22
  22
12008033.49
  32
0.00
  13
-35415193.22
  23
12008033.49
  33
0.00
  0
3DFACE
  8
mg_to_dxf
  62
2
  10
-35415190.43
  20
12008117.01
  30
0.00
  11
-35415187.43
  21
12008117.01
  31
0.00
  12
-35415187.43
  22
12008236.73
  32
0.00
  13
-35415190.43
  23
12008236.73
  33
0.00
  0
3DFACE
  8
mg_to_dxf
  62
2
  10
-35415190.43
  20
12008317.47
  30
0.00
  11
-35415187.43
  21
12008317.47
  31
0.00
  12
-35415187.43
  22
12008437.18
  32
0.00
  13
-35415190.43
  23
12008437.18
  33
0.00
  0
3DFACE
  8
mg_to_dxf
  62
2
  10
-35415190.43
  20
12008516.53
  30
0.00
  11
-35415187.43
  21
12008516.53
  31
0.00
  12
-35415187.43
  22
12008637.63
  32
0.00
  13
-35415190.43
  23
12008637.63
  33
0.00
  0
3DFACE
  8
mg_to_dxf
  62
2
  10
-35415187.65
  20
12008701.67
  30
0.00
  11
-35415184.65
  21
12008701.67
  31
0.00
  12
-35415184.65
  22
12008836.70
  32
0.00
  13
-35415187.65
  23
12008836.70
  33
0.00
  0
3DFACE
  8
mg_to_dxf
  62
2
  10
-35415187.65
  20
12008917.43
  30
0.00
  11
-35415184.65
  21
12008917.43
  31
0.00
  12
-35415184.65
  22
12009039.93
  32
0.00
  13
-35415187.65
  23
12009039.93
  33
0.00
  0
3DFACE
  8
mg_to_dxf
  62
2
  10
-35415187.65
  20
12009117.89
  30
0.00
  11
-35415184.65
  21
12009117.89
  31
0.00
  12
-35415184.65
  22
12009240.39
  32
0.00
  13
-35415187.65
  23
12009240.39
  33
0.00
  0
3DFACE
  8
mg_to_dxf
  62
2
  10
-35415187.65
  20
12009319.77
  30
0.00
  11
-35415184.65
  21
12009319.70
  31
0.00
  12
-35415181.86
  22
12009440.81
  32
0.00
  13
-35415184.86
  23
12009440.87
  33
0.00
  0
3DFACE
  8
mg_to_dxf
  62
2
  10
-35415184.86
  20
12009520.19
  30
0.00
  11
-35415181.86
  21
12009520.19
  31
0.00
  12
-35415181.86
  22
12009641.29
  32
0.00
  13
-35415184.86
  23
12009641.29
  33
0.00
  0
3DFACE
  8
mg_to_dxf
  62
2
  10
-35415184.86
  20
12009722.03
  30
0.00
  11
-35415181.86
  21
12009722.03
  31
0.00
  12
-35415181.86
  22
12009841.75
  32
0.00
  13
-35415184.86
  23
12009841.75
  33
0.00
  0
3DFACE
  8
mg_to_dxf
  62
2
  10
-35415182.08
  20
12009922.48
  30
0.00
  11
-35415179.08
  21
12009922.48
  31
0.00
  12
-35415179.08
  22
12010043.59
  32
0.00
  13
-35415182.08
  23
12010043.59
  33
0.00
  0
3DFACE
  8
mg_to_dxf
  62
2
  10
-35415182.08
  20
12010124.33
  30
0.00
  11
-35415179.08
  21
12010124.33
  31
0.00
  12
-35415179.08
  22
12010242.65
  32
0.00
  13
-35415182.08
  23
12010242.65
  33
0.00
  0
3DFACE
  8
mg_to_dxf
  62
2
  10
-35415182.08
  20
12010324.82
  30
0.00
  11
-35415179.08
  21
12010324.75
  31
0.00
  12
-35415176.30
  22
12010441.68
  32
0.00
  13
-35415179.29
  23
12010441.75
  33
0.00
  0
3DFACE
  8
mg_to_dxf
  62
2
  10
-35415179.29
  20
12010525.24
  30
0.00
  11
-35415176.29
  21
12010525.24
  31
0.00
  12
-35415176.29
  22
12010644.95
  32
0.00
  13
-35415179.29
  23
12010644.95
  33
0.00
  0
3DFACE
  8
mg_to_dxf
  62
2
  10
-35415179.29
  20
12010722.91
  30
0.00
  11
-35415176.29
  21
12010722.91
  31
0.00
  12
-35415176.29
  22
12010844.01
  32
0.00
  13
-35415179.29
  23
12010844.01
  33
0.00
  0
3DFACE
  8
mg_to_dxf
  62
2
  10
-35415176.51
  20
12010927.53
  30
0.00
  11
-35415173.51
  21
12010927.53
  31
0.00
  12
-35415173.51
  22
12011044.47
  32
0.00
  13
-35415176.51
  23
12011044.47
  33
0.00
  0
3DFACE
  8
mg_to_dxf
  62
2
  10
-35415241.85
  20
11997744.39
  30
0.00
  11
-35415241.81
  21
11997748.29
  31
0.00
  12
-35415301.24
  22
11997700.18
  32
0.00
  13
-35415299.35
  23
11997697.85
  33
0.00
  0
3DFACE
  8
mg_to_dxf
  62
2
  10
-35415187.12
  20
11997697.87
  30
0.00
  11
-35415185.18
  21
11997700.16
  31
0.00
  12
-35415241.81
  22
11997748.29
  32
0.00
  13
-35415241.85
  23
11997744.39
  33
0.00
  0
3DFACE
  8
mg_to_dxf
  62
2
  10
-35415134.23
  20
11997752.16
  30
0.00
  11
-35415132.27
  21
11997754.44
  31
0.00
  12
-35415241.83
  22
11997848.54
  32
0.00
  13
-35415241.83
  23
11997844.59
  33
0.00
  0
3DFACE
  8
mg_to_dxf
  62
2
  10
-35415241.83
  20
11997844.59
  30
0.00
  11
-35415241.83
  21
11997848.54
  31
0.00
  12
-35415356.95
  22
11997750.27
  32
0.00
  13
-35415355.00
  23
11997747.98
  33
0.00
  0
3DFACE
  8
mg_to_dxf
  62
2
  10
-35415241.83
  20
11997943.44
  30
0.00
  11
-35415241.82
  21
11997947.37
  31
0.00
  12
-35415356.94
  22
11997850.50
  32
0.00
  13
-35415355.01
  23
11997848.20
  33
0.00
  0
3DFACE
  8
mg_to_dxf
  62
2
  10
-35415131.44
  20
11997849.60
  30
0.00
  11
-35415129.49
  21
11997851.89
  31
0.00
  12
-35415241.82
  22
11997947.37
  32
0.00
  13
-35415241.83
  23
11997943.44
  33
0.00
  0
3DFACE
  8
mg_to_dxf
  62
2
  10
-35415356.94
  20
11997954.90
  30
0.00
  11
-35415355.01
  21
11997952.61
  31
0.00
  12
-35415302.11
  22
11997997.15
  32
0.00
  13
-35415304.04
  23
11997999.45
  33
0.00
  0
3DFACE
  8
mg_to_dxf
  62
2
  10
-35415176.79
  20
11997998.03
  30
0.00
  11
-35415178.80
  21
11997995.79
  31
0.00
  12
-35415125.90
  22
11997948.46
  32
0.00
  13
-35415123.90
  23
11997950.70
  33
0.00
  0
3DFACE
  8
mg_to_dxf
  62
2
  10
-35415240.54
  20
11998388.07
  30
0.00
  11
-35415237.54
  21
11998388.07
  31
0.00
  12
-35415237.54
  22
11998509.18
  32
0.00
  13
-35415240.54
  23
11998509.18
  33
0.00
  0
3DFACE
  8
mg_to_dxf
  62
2
  10
-35415240.54
  20
11998589.92
  30
0.00
  11
-35415237.54
  21
11998589.92
  31
0.00
  12
-35415237.54
  22
11998712.41
  32
0.00
  13
-35415240.54
  23
11998712.41
  33
0.00
  0
3DFACE
  8
mg_to_dxf
  62
2
  10
-35415204.14
  20
12005029.48
  30
0.00
  11
-35415207.14
  21
12005029.48
  31
0.00
  12
-35415207.14
  22
12004906.98
  32
0.00
  13
-35415204.14
  23
12004906.98
  33
0.00
  0
3DFACE
  8
mg_to_dxf
  62
2
  10
-35415206.92
  20
12004827.63
  30
0.00
  11
-35415209.92
  21
12004827.63
  31
0.00
  12
-35415209.92
  22
12004707.92
  32
0.00
  13
-35415206.92
  23
12004707.92
  33
0.00
  0
3DFACE
  8
mg_to_dxf
  62
2
  10
-35415206.92
  20
12004656.41
  30
0.00
  11
-35415209.92
  21
12004656.41
  31
0.00
  12
-35415209.92
  22
12004606.30
  32
0.00
  13
-35415206.92
  23
12004606.30
  33
0.00
  0
3DFACE
  8
mg_to_dxf
  62
2
  10
-35415206.92
  20
12004557.58
  30
0.00
  11
-35415209.92
  21
12004557.58
  31
0.00
  12
-35415209.92
  22
12004436.47
  32
0.00
  13
-35415206.92
  23
12004436.47
  33
0.00
  0
3DFACE
  8
mg_to_dxf
  62
2
  10
-35415206.92
  20
12004351.52
  30
0.00
  11
-35415209.92
  21
12004351.59
  31
0.00
  12
-35415212.70
  22
12004229.09
  32
0.00
  13
-35415209.70
  23
12004229.02
  33
0.00
  0
3DFACE
  8
mg_to_dxf
  62
2
  10
-35415209.70
  20
12004146.93
  30
0.00
  11
-35415212.70
  21
12004146.93
  31
0.00
  12
-35415212.70
  22
12004029.99
  32
0.00
  13
-35415209.70
  23
12004029.99
  33
0.00
  0
3DFACE
  8
mg_to_dxf
  62
2
  10
-35415209.70
  20
12003943.69
  30
0.00
  11
-35415212.70
  21
12003943.69
  31
0.00
  12
-35415212.70
  22
12003822.58
  32
0.00
  13
-35415209.70
  23
12003822.58
  33
0.00
  0
3DFACE
  8
mg_to_dxf
  62
2
  10
-35415209.70
  20
12003743.18
  30
0.00
  11
-35415212.70
  21
12003743.28
  31
0.00
  12
-35415215.49
  22
12003659.76
  32
0.00
  13
-35415212.49
  23
12003659.66
  33
0.00
  0
3DFACE
  8
mg_to_dxf
  62
2
  10
-35415212.49
  20
12003576.19
  30
0.00
  11
-35415215.49
  21
12003576.19
  31
0.00
  12
-35415215.49
  22
12003452.30
  32
0.00
  13
-35415212.49
  23
12003452.30
  33
0.00
  0
3DFACE
  8
mg_to_dxf
  62
2
  10
-35415212.49
  20
12003371.56
  30
0.00
  11
-35415215.49
  21
12003371.56
  31
0.00
  12
-35415215.49
  22
12003254.63
  32
0.00
  13
-35415212.49
  23
12003254.63
  33
0.00
  0
3DFACE
  8
mg_to_dxf
  62
2
  10
-35415215.27
  20
12003172.50
  30
0.00
  11
-35415218.27
  21
12003172.50
  31
0.00
  12
-35415218.27
  22
12003051.39
  32
0.00
  13
-35415215.27
  23
12003051.39
  33
0.00
  0
3DFACE
  8
mg_to_dxf
  62
2
  10
-35415218.27
  20
12002849.55
  30
0.00
  11
-35415215.27
  21
12002849.55
  31
0.00
  12
-35415215.27
  22
12002972.05
  32
0.00
  13
-35415218.27
  23
12002972.05
  33
0.00
  0
3DFACE
  8
mg_to_dxf
  62
2
  10
-35415215.27
  20
12002767.42
  30
0.00
  11
-35415218.27
  21
12002767.42
  31
0.00
  12
-35415218.27
  22
12002644.92
  32
0.00
  13
-35415215.27
  23
12002644.92
  33
0.00
  0
3DFACE
  8
mg_to_dxf
  62
2
  10
-35415215.27
  20
12002767.42
  30
0.00
  11
-35415218.27
  21
12002767.42
  31
0.00
  12
-35415216.77
  22
12002767.42
  32
-1.50
  13
-35415216.77
  23
12002767.42
  33
1.50
  0
3DFACE
  8
mg_to_dxf
  62
2
  10
-35415218.06
  20
12002560.00
  30
0.00
  11
-35415221.06
  21
12002560.00
  31
0.00
  12
-35415221.06
  22
12002441.68
  32
0.00
  13
-35415218.06
  23
12002441.68
  33
0.00
  0
3DFACE
  8
mg_to_dxf
  62
2
  10
-35415218.06
  20
12002359.55
  30
0.00
  11
-35415221.06
  21
12002359.55
  31
0.00
  12
-35415221.06
  22
12002239.84
  32
0.00
  13
-35415218.06
  23
12002239.84
  33
0.00
  0
3DFACE
  8
mg_to_dxf
  62
2
  10
-35415218.06
  20
12002157.67
  30
0.00
  11
-35415221.06
  21
12002157.74
  31
0.00
  12
-35415223.84
  22
12002035.24
  32
0.00
  13
-35415220.84
  23
12002035.17
  33
0.00
  0
3DFACE
  8
mg_to_dxf
  62
2
  10
-35415220.84
  20
12001954.47
  30
0.00
  11
-35415223.84
  21
12001954.47
  31
0.00
  12
-35415223.84
  22
12001833.36
  32
0.00
  13
-35415220.84
  23
12001833.36
  33
0.00
  0
3DFACE
  8
mg_to_dxf
  62
2
  10
-35415220.84
  20
12001751.23
  30
0.00
  11
-35415223.84
  21
12001751.23
  31
0.00
  12
-35415223.84
  22
12001634.30
  32
0.00
  13
-35415220.84
  23
12001634.30
  33
0.00
  0
3DFACE
  8
mg_to_dxf
  62
2
  10
-35415220.84
  20
12001549.35
  30
0.00
  11
-35415223.84
  21
12001549.42
  31
0.00
  12
-35415226.62
  22
12001429.70
  32
0.00
  13
-35415223.62
  23
12001429.64
  33
0.00
  0
3DFACE
  8
mg_to_dxf
  62
2
  10
-35415223.62
  20
12001347.54
  30
0.00
  11
-35415226.62
  21
12001347.54
  31
0.00
  12
-35415226.62
  22
12001229.22
  32
0.00
  13
-35415223.62
  23
12001229.22
  33
0.00
  0
3DFACE
  8
mg_to_dxf
  62
2
  10
-35415223.62
  20
12001141.52
  30
0.00
  11
-35415226.62
  21
12001141.52
  31
0.00
  12
-35415226.62
  22
12001024.59
  32
0.00
  13
-35415223.62
  23
12001024.59
  33
0.00
  0
3DFACE
  8
mg_to_dxf
  62
2
  10
-35415223.62
  20
12000941.03
  30
0.00
  11
-35415226.62
  21
12000941.10
  31
0.00
  12
-35415229.41
  22
12000821.38
  32
0.00
  13
-35415226.41
  23
12000821.32
  33
0.00
  0
3DFACE
  8
mg_to_dxf
  62
2
  10
-35415226.41
  20
12000737.83
  30
0.00
  11
-35415229.41
  21
12000737.83
  31
0.00
  12
-35415229.41
  22
12000618.11
  32
0.00
  13
-35415226.41
  23
12000618.11
  33
0.00
  0
3DFACE
  8
mg_to_dxf
  62
2
  10
-35415226.41
  20
12000534.59
  30
0.00
  11
-35415229.41
  21
12000534.59
  31
0.00
  12
-35415229.41
  22
12000419.05
  32
0.00
  13
-35415226.41
  23
12000419.05
  33
0.00
  0
3DFACE
  8
mg_to_dxf
  62
2
  10
-35415229.19
  20
12000329.96
  30
0.00
  11
-35415232.19
  21
12000329.96
  31
0.00
  12
-35415232.19
  22
12000217.21
  32
0.00
  13
-35415229.19
  23
12000217.21
  33
0.00
  0
3DFACE
  8
mg_to_dxf
  62
2
  10
-35415229.19
  20
12000128.12
  30
0.00
  11
-35415232.19
  21
12000128.12
  31
0.00
  12
-35415232.19
  22
12000011.18
  32
0.00
  13
-35415229.19
  23
12000011.18
  33
0.00
  0
3DFACE
  8
mg_to_dxf
  62
2
  10
-35415229.19
  20
11999924.84
  30
0.00
  11
-35415232.19
  21
11999924.91
  31
0.00
  12
-35415234.98
  22
11999809.38
  32
0.00
  13
-35415231.98
  23
11999809.30
  33
0.00
  0
3DFACE
  8
mg_to_dxf
  62
2
  10
-35415231.98
  20
11999724.43
  30
0.00
  11
-35415234.98
  21
11999724.43
  31
0.00
  12
-35415234.98
  22
11999606.10
  32
0.00
  13
-35415231.98
  23
11999606.10
  33
0.00
  0
3DFACE
  8
mg_to_dxf
  62
2
  10
-35415231.98
  20
11999519.80
  30
0.00
  11
-35415234.98
  21
11999519.80
  31
0.00
  12
-35415234.98
  22
11999402.86
  32
0.00
  13
-35415231.98
  23
11999402.86
  33
0.00
  0
3DFACE
  8
mg_to_dxf
  62
2
  10
-35415231.98
  20
11999331.84
  30
0.00
  11
-35415234.98
  21
11999331.90
  31
0.00
  12
-35415237.76
  22
11999196.87
  32
0.00
  13
-35415234.76
  23
11999196.81
  33
0.00
  0
3DFACE
  8
mg_to_dxf
  62
2
  10
-35415234.76
  20
11999114.71
  30
0.00
  11
-35415237.76
  21
11999114.71
  31
0.00
  12
-35415237.76
  22
11998996.39
  32
0.00
  13
-35415234.76
  23
11998996.39
  33
0.00
  0
3DFACE
  8
mg_to_dxf
  62
2
  10
-35415234.76
  20
11998912.87
  30
0.00
  11
-35415237.76
  21
11998912.87
  31
0.00
  12
-35415237.76
  22
11998791.76
  32
0.00
  13
-35415234.76
  23
11998791.76
  33
0.00
  0
3DFACE
  8
mg_to_dxf
  62
2
  10
-35427053.76
  20
12009133.38
  30
0.00
  11
-35427055.54
  21
12009135.80
  31
0.00
  12
-35427080.58
  22
12009117.71
  32
0.00
  13
-35427078.83
  23
12009115.28
  33
0.00
  0
3DFACE
  8
mg_to_dxf
  62
2
  10
-35426950.75
  20
12009209.94
  30
0.00
  11
-35426952.53
  21
12009212.36
  31
0.00
  12
-35427055.54
  22
12009135.80
  32
0.00
  13
-35427053.76
  23
12009133.38
  33
0.00
  0
3DFACE
  8
mg_to_dxf
  62
2
  10
-35426925.70
  20
12009228.03
  30
0.00
  11
-35426927.46
  21
12009230.47
  31
0.00
  12
-35426952.53
  22
12009212.36
  32
0.00
  13
-35426950.75
  23
12009209.94
  33
0.00
  0
3DFACE
  8
mg_to_dxf
  62
2
  10
-35407693.24
  20
11997967.92
  30
0.00
  11
-35407695.18
  21
11997970.21
  31
0.00
  12
-35407750.86
  22
11997922.88
  32
0.00
  13
-35407748.92
  23
11997920.60
  33
0.00
  0
3DFACE
  8
mg_to_dxf
  62
2
  10
-35407525.35
  20
11997820.37
  30
0.00
  11
-35407523.41
  21
11997822.65
  31
0.00
  12
-35407635.73
  22
11997918.13
  32
0.00
  13
-35407635.75
  23
11997914.21
  33
0.00
  0
3DFACE
  8
mg_to_dxf
  62
2
  10
-35407635.75
  20
11997914.21
  30
0.00
  11
-35407635.73
  21
11997918.13
  31
0.00
  12
-35407748.07
  22
11997824.05
  32
0.00
  13
-35407746.14
  23
11997821.75
  33
0.00
  0
3DFACE
  8
mg_to_dxf
  62
2
  10
-35407635.75
  20
11997813.99
  30
0.00
  11
-35407635.73
  21
11997817.90
  31
0.00
  12
-35407748.06
  22
11997725.23
  32
0.00
  13
-35407746.15
  23
11997722.91
  33
0.00
  0
3DFACE
  8
mg_to_dxf
  62
2
  10
-35407528.13
  20
11997722.92
  30
0.00
  11
-35407526.19
  21
11997725.21
  31
0.00
  12
-35407635.73
  22
11997817.90
  32
0.00
  13
-35407635.75
  23
11997813.99
  33
0.00
  0
3DFACE
  8
mg_to_dxf
  62
2
  10
-35407586.54
  20
11997674.16
  30
0.00
  11
-35407584.72
  21
11997676.54
  31
0.00
  12
-35407638.56
  22
11997717.63
  32
0.00
  13
-35407638.49
  23
11997713.80
  33
0.00
  0
3DFACE
  8
mg_to_dxf
  62
2
  10
-35407638.49
  20
11997713.80
  30
0.00
  11
-35407638.56
  21
11997717.63
  31
0.00
  12
-35407686.81
  22
11997677.90
  32
0.00
  13
-35407684.90
  23
11997675.58
  33
0.00
  0
3DFACE
  8
mg_to_dxf
  62
2
  10
-35407634.46
  20
11998360.23
  30
0.00
  11
-35407631.46
  21
11998360.23
  31
0.00
  12
-35407631.46
  22
11998482.73
  32
0.00
  13
-35407634.46
  23
11998482.73
  33
0.00
  0
3DFACE
  8
mg_to_dxf
  62
2
  10
-35407634.46
  20
11998563.47
  30
0.00
  11
-35407631.46
  21
11998563.47
  31
0.00
  12
-35407631.46
  22
11998683.18
  32
0.00
  13
-35407634.46
  23
11998683.18
  33
0.00
  0
3DFACE
  8
mg_to_dxf
  62
2
  10
-35407631.67
  20
11998765.31
  30
0.00
  11
-35407628.67
  21
11998765.31
  31
0.00
  12
-35407628.67
  22
11998904.52
  32
0.00
  13
-35407631.67
  23
11998904.52
  33
0.00
  0
3DFACE
  8
mg_to_dxf
  62
2
  10
-35407631.67
  20
11998967.16
  30
0.00
  11
-35407628.67
  21
11998967.16
  31
0.00
  12
-35407628.67
  22
11999089.66
  32
0.00
  13
-35407631.67
  23
11999089.66
  33
0.00
  0
3DFACE
  8
mg_to_dxf
  62
2
  10
-35407631.67
  20
11999169.04
  30
0.00
  11
-35407628.67
  21
11999168.97
  31
0.00
  12
-35407625.89
  22
11999290.08
  32
0.00
  13
-35407628.89
  23
11999290.14
  33
0.00
  0
3DFACE
  8
mg_to_dxf
  62
2
  10
-35407628.89
  20
11999372.24
  30
0.00
  11
-35407625.89
  21
11999372.24
  31
0.00
  12
-35407625.89
  22
11999496.13
  32
0.00
  13
-35407628.89
  23
11999496.13
  33
0.00
  0
3DFACE
  8
mg_to_dxf
  62
2
  10
-35407628.89
  20
11999574.09
  30
0.00
  11
-35407625.89
  21
11999574.09
  31
0.00
  12
-35407625.89
  22
11999695.19
  32
0.00
  13
-35407628.89
  23
11999695.19
  33
0.00
  0
3DFACE
  8
mg_to_dxf
  62
2
  10
-35407626.11
  20
11999775.93
  30
0.00
  11
-35407623.11
  21
11999775.93
  31
0.00
  12
-35407623.11
  22
11999894.25
  32
0.00
  13
-35407626.11
  23
11999894.25
  33
0.00
  0
3DFACE
  8
mg_to_dxf
  62
2
  10
-35407626.11
  20
11999974.99
  30
0.00
  11
-35407623.11
  21
11999974.99
  31
0.00
  12
-35407623.11
  22
12000098.88
  32
0.00
  13
-35407626.11
  23
12000098.88
  33
0.00
  0
3DFACE
  8
mg_to_dxf
  62
2
  10
-35407626.10
  20
12000176.87
  30
0.00
  11
-35407623.11
  21
12000176.80
  31
0.00
  12
-35407620.32
  22
12000299.30
  32
0.00
  13
-35407623.32
  23
12000299.37
  33
0.00
  0
3DFACE
  8
mg_to_dxf
  62
2
  10
-35407623.32
  20
12000373.11
  30
0.00
  11
-35407620.32
  21
12000373.11
  31
0.00
  12
-35407620.32
  22
12000508.14
  32
0.00
  13
-35407623.32
  23
12000508.14
  33
0.00
  0
3DFACE
  8
mg_to_dxf
  62
2
  10
-35407623.32
  20
12000577.74
  30
0.00
  11
-35407620.32
  21
12000577.74
  31
0.00
  12
-35407620.32
  22
12000700.24
  32
0.00
  13
-35407623.32
  23
12000700.24
  33
0.00
  0
3DFACE
  8
mg_to_dxf
  62
2
  10
-35407623.32
  20
12000776.84
  30
0.00
  11
-35407620.32
  21
12000776.77
  31
0.00
  12
-35407617.54
  22
12000896.49
  32
0.00
  13
-35407620.54
  23
12000896.55
  33
0.00
  0
3DFACE
  8
mg_to_dxf
  62
2
  10
-35407620.54
  20
12000988.39
  30
0.00
  11
-35407617.54
  21
12000988.39
  31
0.00
  12
-35407617.54
  22
12001109.50
  32
0.00
  13
-35407620.54
  23
12001109.50
  33
0.00
  0
3DFACE
  8
mg_to_dxf
  62
2
  10
-35407620.54
  20
12001188.88
  30
0.00
  11
-35407617.54
  21
12001188.81
  31
0.00
  12
-35407614.75
  22
12001311.31
  32
0.00
  13
-35407617.75
  23
12001311.38
  33
0.00
  0
3DFACE
  8
mg_to_dxf
  62
2
  10
-35407617.75
  20
12001392.08
  30
0.00
  11
-35407614.75
  21
12001392.08
  31
0.00
  12
-35407614.75
  22
12001510.41
  32
0.00
  13
-35407617.75
  23
12001510.41
  33
0.00
  0
3DFACE
  8
mg_to_dxf
  62
2
  10
-35407617.75
  20
12001595.32
  30
0.00
  11
-35407614.75
  21
12001595.32
  31
0.00
  12
-35407614.75
  22
12001715.04
  32
0.00
  13
-35407617.75
  23
12001715.04
  33
0.00
  0
3DFACE
  8
mg_to_dxf
  62
2
  10
-35407614.97
  20
12001797.17
  30
0.00
  11
-35407611.97
  21
12001797.17
  31
0.00
  12
-35407611.97
  22
12001915.49
  32
0.00
  13
-35407614.97
  23
12001915.49
  33
0.00
  0
3DFACE
  8
mg_to_dxf
  62
2
  10
-35407614.97
  20
12002001.80
  30
0.00
  11
-35407611.97
  21
12002001.80
  31
0.00
  12
-35407611.97
  22
12002118.73
  32
0.00
  13
-35407614.97
  23
12002118.73
  33
0.00
  0
3DFACE
  8
mg_to_dxf
  62
2
  10
-35407614.97
  20
12002199.50
  30
0.00
  11
-35407611.97
  21
12002199.43
  31
0.00
  12
-35407609.19
  22
12002323.32
  32
0.00
  13
-35407612.18
  23
12002323.39
  33
0.00
  0
3DFACE
  8
mg_to_dxf
  62
2
  10
-35407612.18
  20
12002402.70
  30
0.00
  11
-35407609.18
  21
12002402.70
  31
0.00
  12
-35407609.18
  22
12002525.20
  32
0.00
  13
-35407612.18
  23
12002525.20
  33
0.00
  0
3DFACE
  8
mg_to_dxf
  62
2
  10
-35407612.18
  20
12002605.94
  30
0.00
  11
-35407609.18
  21
12002605.94
  31
0.00
  12
-35407609.18
  22
12002727.05
  32
0.00
  13
-35407612.18
  23
12002727.05
  33
0.00
  0
3DFACE
  8
mg_to_dxf
  62
2
  10
-35407609.40
  20
12002810.57
  30
0.00
  11
-35407606.40
  21
12002810.57
  31
0.00
  12
-35407606.40
  22
12002928.89
  32
0.00
  13
-35407609.40
  23
12002928.89
  33
0.00
  0
3DFACE
  8
mg_to_dxf
  62
2
  10
-35407609.40
  20
12003009.63
  30
0.00
  11
-35407606.40
  21
12003009.63
  31
0.00
  12
-35407606.40
  22
12003132.13
  32
0.00
  13
-35407609.40
  23
12003132.13
  33
0.00
  0
3DFACE
  8
mg_to_dxf
  62
2
  10
-35407609.40
  20
12003212.87
  30
0.00
  11
-35407606.40
  21
12003212.87
  31
0.00
  12
-35407606.40
  22
12003336.76
  32
0.00
  13
-35407609.40
  23
12003336.76
  33
0.00
  0
3DFACE
  8
mg_to_dxf
  62
2
  10
-35407606.62
  20
12003414.71
  30
0.00
  11
-35407603.62
  21
12003414.71
  31
0.00
  12
-35407603.62
  22
12003540.00
  32
0.00
  13
-35407606.62
  23
12003540.00
  33
0.00
  0
3DFACE
  8
mg_to_dxf
  62
2
  10
-35407606.62
  20
12003608.21
  30
0.00
  11
-35407603.62
  21
12003608.21
  31
0.00
  12
-35407603.62
  22
12003737.67
  32
0.00
  13
-35407606.62
  23
12003737.67
  33
0.00
  0
3DFACE
  8
mg_to_dxf
  62
2
  10
-35407600.83
  20
12003942.26
  30
0.00
  11
-35407603.83
  21
12003942.33
  31
0.00
  12
-35407606.62
  22
12003830.97
  32
0.00
  13
-35407603.62
  23
12003830.90
  33
0.00
  0
3DFACE
  8
mg_to_dxf
  62
2
  10
-35407603.83
  20
12004024.43
  30
0.00
  11
-35407600.83
  21
12004024.43
  31
0.00
  12
-35407600.83
  22
12004146.93
  32
0.00
  13
-35407603.83
  23
12004146.93
  33
0.00
  0
3DFACE
  8
mg_to_dxf
  62
2
  10
-35407603.83
  20
12004229.06
  30
0.00
  11
-35407600.83
  21
12004229.06
  31
0.00
  12
-35407600.83
  22
12004348.77
  32
0.00
  13
-35407603.83
  23
12004348.77
  33
0.00
  0
3DFACE
  8
mg_to_dxf
  62
2
  10
-35407601.05
  20
12004432.29
  30
0.00
  11
-35407598.05
  21
12004432.29
  31
0.00
  12
-35407598.05
  22
12004550.62
  32
0.00
  13
-35407601.05
  23
12004550.62
  33
0.00
  0
3DFACE
  8
mg_to_dxf
  62
2
  10
-35407601.05
  20
12004634.14
  30
0.00
  11
-35407598.05
  21
12004634.14
  31
0.00
  12
-35407598.05
  22
12004753.85
  32
0.00
  13
-35407601.05
  23
12004753.85
  33
0.00
  0
3DFACE
  8
mg_to_dxf
  62
2
  10
-35407601.05
  20
12004838.77
  30
0.00
  11
-35407598.05
  21
12004838.77
  31
0.00
  12
-35407598.05
  22
12004943.17
  32
0.00
  13
-35407601.05
  23
12004943.17
  33
0.00
  0
3DFACE
  8
mg_to_dxf
  62
2
  10
-35407598.26
  20
12005032.26
  30
0.00
  11
-35407595.26
  21
12005032.26
  31
0.00
  12
-35407595.26
  22
12005154.76
  32
0.00
  13
-35407598.26
  23
12005154.76
  33
0.00
  0
3DFACE
  8
mg_to_dxf
  62
2
  10
-35407598.26
  20
12005242.46
  30
0.00
  11
-35407595.26
  21
12005242.46
  31
0.00
  12
-35407595.26
  22
12005359.39
  32
0.00
  13
-35407598.26
  23
12005359.39
  33
0.00
  0
3DFACE
  8
mg_to_dxf
  62
2
  10
-35407598.26
  20
12005444.34
  30
0.00
  11
-35407595.26
  21
12005444.27
  31
0.00
  12
-35407592.48
  22
12005559.81
  32
0.00
  13
-35407595.48
  23
12005559.88
  33
0.00
  0
3DFACE
  8
mg_to_dxf
  62
2
  10
-35407595.48
  20
12005655.89
  30
0.00
  11
-35407592.48
  21
12005655.89
  31
0.00
  12
-35407592.48
  22
12005767.26
  32
0.00
  13
-35407595.48
  23
12005767.26
  33
0.00
  0
3DFACE
  8
mg_to_dxf
  62
2
  10
-35407595.48
  20
12005867.48
  30
0.00
  11
-35407592.48
  21
12005867.48
  31
0.00
  12
-35407592.48
  22
12005985.81
  32
0.00
  13
-35407595.48
  23
12005985.81
  33
0.00
  0
3DFACE
  8
mg_to_dxf
  62
2
  10
-35407595.48
  20
12006067.97
  30
0.00
  11
-35407592.48
  21
12006067.90
  31
0.00
  12
-35407589.70
  22
12006187.62
  32
0.00
  13
-35407592.70
  23
12006187.69
  33
0.00
  0
3DFACE
  8
mg_to_dxf
  62
2
  10
-35407592.70
  20
12006265.60
  30
0.00
  11
-35407589.70
  21
12006265.60
  31
0.00
  12
-35407589.70
  22
12006388.10
  32
0.00
  13
-35407592.70
  23
12006388.10
  33
0.00
  0
3DFACE
  8
mg_to_dxf
  62
2
  10
-35407592.70
  20
12006474.41
  30
0.00
  11
-35407589.70
  21
12006474.41
  31
0.00
  12
-35407589.70
  22
12006589.95
  32
0.00
  13
-35407592.70
  23
12006589.95
  33
0.00
  0
3DFACE
  8
mg_to_dxf
  62
2
  10
-35407592.70
  20
12006667.94
  30
0.00
  11
-35407589.70
  21
12006667.87
  31
0.00
  12
-35407586.91
  22
12006788.98
  32
0.00
  13
-35407589.91
  23
12006789.04
  33
0.00
  0
3DFACE
  8
mg_to_dxf
  62
2
  10
-35407589.91
  20
12006871.14
  30
0.00
  11
-35407586.91
  21
12006871.14
  31
0.00
  12
-35407586.91
  22
12006988.07
  32
0.00
  13
-35407589.91
  23
12006988.07
  33
0.00
  0
3DFACE
  8
mg_to_dxf
  62
2
  10
-35407589.91
  20
12007067.45
  30
0.00
  11
-35407586.91
  21
12007067.38
  31
0.00
  12
-35407584.13
  22
12007188.49
  32
0.00
  13
-35407587.13
  23
12007188.56
  33
0.00
  0
3DFACE
  8
mg_to_dxf
  62
2
  10
-35407587.13
  20
12007266.48
  30
0.00
  11
-35407584.13
  21
12007266.48
  31
0.00
  12
-35407584.13
  22
12007388.98
  32
0.00
  13
-35407587.13
  23
12007388.98
  33
0.00
  0
3DFACE
  8
mg_to_dxf
  62
2
  10
-35407587.13
  20
12007468.32
  30
0.00
  11
-35407584.13
  21
12007468.32
  31
0.00
  12
-35407584.13
  22
12007589.43
  32
0.00
  13
-35407587.13
  23
12007589.43
  33
0.00
  0
3DFACE
  8
mg_to_dxf
  62
2
  10
-35407587.13
  20
12007671.60
  30
0.00
  11
-35407584.13
  21
12007671.53
  31
0.00
  12
-35407581.34
  22
12007789.85
  32
0.00
  13
-35407584.34
  23
12007789.92
  33
0.00
  0
3DFACE
  8
mg_to_dxf
  62
2
  10
-35407584.34
  20
12007872.01
  30
0.00
  11
-35407581.34
  21
12007872.01
  31
0.00
  12
-35407581.34
  22
12007994.51
  32
0.00
  13
-35407584.34
  23
12007994.51
  33
0.00
  0
3DFACE
  8
mg_to_dxf
  62
2
  10
-35407584.34
  20
12008089.17
  30
0.00
  11
-35407581.34
  21
12008089.17
  31
0.00
  12
-35407581.34
  22
12008211.67
  32
0.00
  13
-35407584.34
  23
12008211.67
  33
0.00
  0
3DFACE
  8
mg_to_dxf
  62
2
  10
-35407581.56
  20
12008291.02
  30
0.00
  11
-35407578.56
  21
12008291.02
  31
0.00
  12
-35407578.56
  22
12008409.34
  32
0.00
  13
-35407581.56
  23
12008409.34
  33
0.00
  0
3DFACE
  8
mg_to_dxf
  62
2
  10
-35407570.42
  20
12010697.85
  30
0.00
  11
-35407567.42
  21
12010697.85
  31
0.00
  12
-35407567.42
  22
12010816.17
  32
0.00
  13
-35407570.42
  23
12010816.17
  33
0.00
  0
3DFACE
  8
mg_to_dxf
  62
2
  10
-35407567.64
  20
12010895.52
  30
0.00
  11
-35407564.64
  21
12010895.52
  31
0.00
  12
-35407564.64
  22
12011016.62
  32
0.00
  13
-35407567.64
  23
12011016.62
  33
0.00
  0
3DFACE
  8
mg_to_dxf
  62
2
  10
-35406161.16
  20
11997665.86
  30
0.00
  11
-35406159.20
  21
11997668.13
  31
0.00
  12
-35406210.26
  22
11997712.10
  32
0.00
  13
-35406210.33
  23
11997708.20
  33
0.00
  0
3DFACE
  8
mg_to_dxf
  62
2
  10
-35406210.33
  20
11997708.20
  30
0.00
  11
-35406210.26
  21
11997712.10
  31
0.00
  12
-35406261.35
  22
11997670.95
  32
0.00
  13
-35406259.47
  23
11997668.61
  33
0.00
  0
3DFACE
  8
mg_to_dxf
  62
2
  10
-35406210.31
  20
11997808.42
  30
0.00
  11
-35406210.29
  21
11997812.33
  31
0.00
  12
-35406291.99
  22
11997744.71
  32
0.00
  13
-35406290.08
  23
11997742.40
  33
0.00
  0
3DFACE
  8
mg_to_dxf
  62
2
  10
-35406130.53
  20
11997741.02
  30
0.00
  11
-35406128.59
  21
11997743.31
  31
0.00
  12
-35406210.29
  22
11997812.33
  32
0.00
  13
-35406210.31
  23
11997808.42
  33
0.00
  0
3DFACE
  8
mg_to_dxf
  62
2
  10
-35406130.53
  20
11997841.25
  30
0.00
  11
-35406128.59
  21
11997843.54
  31
0.00
  12
-35406210.30
  22
11997912.57
  32
0.00
  13
-35406210.30
  23
11997908.64
  33
0.00
  0
3DFACE
  8
mg_to_dxf
  62
2
  10
-35406210.30
  20
11997908.64
  30
0.00
  11
-35406210.30
  21
11997912.57
  31
0.00
  12
-35406292.00
  22
11997843.54
  32
0.00
  13
-35406290.07
  23
11997841.25
  33
0.00
  0
3DFACE
  8
mg_to_dxf
  62
2
  10
-35406294.67
  20
11997942.46
  30
0.00
  11
-35406292.97
  21
11997939.99
  31
0.00
  12
-35406270.70
  22
11997955.30
  32
0.00
  13
-35406272.40
  23
11997957.78
  33
0.00
  0
3DFACE
  8
mg_to_dxf
  62
2
  10
-35406142.46
  20
11997956.25
  30
0.00
  11
-35406144.49
  21
11997954.04
  31
0.00
  12
-35406127.79
  22
11997938.73
  32
0.00
  13
-35406125.76
  23
11997940.94
  33
0.00
  0
3DFACE
  8
mg_to_dxf
  62
2
  10
-35406175.60
  20
12004610.51
  30
0.00
  11
-35406172.60
  21
12004610.44
  31
0.00
  12
-35406169.82
  22
12004730.15
  32
0.00
  13
-35406172.82
  23
12004730.22
  33
0.00
  0
3DFACE
  8
mg_to_dxf
  62
2
  10
-35406172.82
  20
12004810.93
  30
0.00
  11
-35406169.82
  21
12004810.93
  31
0.00
  12
-35406169.82
  22
12004933.43
  32
0.00
  13
-35406172.82
  23
12004933.43
  33
0.00
  0
3DFACE
  8
mg_to_dxf
  62
2
  10
-35406172.82
  20
12005018.34
  30
0.00
  11
-35406169.82
  21
12005018.34
  31
0.00
  12
-35406169.82
  22
12005138.06
  32
0.00
  13
-35406172.82
  23
12005138.06
  33
0.00
  0
3DFACE
  8
mg_to_dxf
  62
2
  10
-35406172.82
  20
12005218.83
  30
0.00
  11
-35406169.82
  21
12005218.76
  31
0.00
  12
-35406167.04
  22
12005339.87
  32
0.00
  13
-35406170.03
  23
12005339.93
  33
0.00
  0
3DFACE
  8
mg_to_dxf
  62
2
  10
-35406170.04
  20
12005423.42
  30
0.00
  11
-35406167.04
  21
12005423.42
  31
0.00
  12
-35406167.04
  22
12005541.75
  32
0.00
  13
-35406170.04
  23
12005541.75
  33
0.00
  0
3DFACE
  8
mg_to_dxf
  62
2
  10
-35406170.04
  20
12005622.48
  30
0.00
  11
-35406167.04
  21
12005622.48
  31
0.00
  12
-35406167.04
  22
12005746.37
  32
0.00
  13
-35406170.04
  23
12005746.37
  33
0.00
  0
3DFACE
  8
mg_to_dxf
  62
2
  10
-35406170.04
  20
12005841.03
  30
0.00
  11
-35406167.04
  21
12005841.03
  31
0.00
  12
-35406167.04
  22
12005946.83
  32
0.00
  13
-35406170.04
  23
12005946.83
  33
0.00
  0
3DFACE
  8
mg_to_dxf
  62
2
  10
-35406167.25
  20
12006031.74
  30
0.00
  11
-35406164.25
  21
12006031.74
  31
0.00
  12
-35406164.25
  22
12006148.67
  32
0.00
  13
-35406167.25
  23
12006148.67
  33
0.00
  0
3DFACE
  8
mg_to_dxf
  62
2
  10
-35406167.25
  20
12006233.59
  30
0.00
  11
-35406164.25
  21
12006233.59
  31
0.00
  12
-35406164.25
  22
12006364.44
  32
0.00
  13
-35406167.25
  23
12006364.44
  33
0.00
  0
3DFACE
  8
mg_to_dxf
  62
2
  10
-35406164.47
  20
12006438.22
  30
0.00
  11
-35406161.47
  21
12006438.22
  31
0.00
  12
-35406161.47
  22
12006557.93
  32
0.00
  13
-35406164.47
  23
12006557.93
  33
0.00
  0
3DFACE
  8
mg_to_dxf
  62
2
  10
-35406164.47
  20
12006641.49
  30
0.00
  11
-35406161.47
  21
12006641.42
  31
0.00
  12
-35406158.68
  22
12006758.35
  32
0.00
  13
-35406161.68
  23
12006758.42
  33
0.00
  0
3DFACE
  8
mg_to_dxf
  62
2
  10
-35406161.68
  20
12006840.52
  30
0.00
  11
-35406158.68
  21
12006840.52
  31
0.00
  12
-35406158.68
  22
12006958.84
  32
0.00
  13
-35406161.68
  23
12006958.84
  33
0.00
  0
3DFACE
  8
mg_to_dxf
  62
2
  10
-35406156.11
  20
12008064.12
  30
0.00
  11
-35406153.11
  21
12008064.12
  31
0.00
  12
-35406153.11
  22
12008181.05
  32
0.00
  13
-35406156.11
  23
12008181.05
  33
0.00
  0
3DFACE
  8
mg_to_dxf
  62
2
  10
-35406156.11
  20
12008286.84
  30
0.00
  11
-35406153.11
  21
12008286.84
  31
0.00
  12
-35406153.11
  22
12008381.50
  32
0.00
  13
-35406156.11
  23
12008381.50
  33
0.00
  0
3DFACE
  8
mg_to_dxf
  62
2
  10
-35406156.11
  20
12008466.41
  30
0.00
  11
-35406153.11
  21
12008466.41
  31
0.00
  12
-35406153.11
  22
12008595.87
  32
0.00
  13
-35406156.11
  23
12008595.87
  33
0.00
  0
3DFACE
  8
mg_to_dxf
  62
2
  10
-35406153.33
  20
12008669.65
  30
0.00
  11
-35406150.33
  21
12008669.65
  31
0.00
  12
-35406150.33
  22
12008792.15
  32
0.00
  13
-35406153.33
  23
12008792.15
  33
0.00
  0
3DFACE
  8
mg_to_dxf
  62
2
  10
-35406172.60
  20
12004325.11
  30
0.00
  11
-35406175.60
  21
12004325.11
  31
0.00
  12
-35406175.60
  22
12004210.96
  32
0.00
  13
-35406172.60
  23
12004210.96
  33
0.00
  0
3DFACE
  8
mg_to_dxf
  62
2
  10
-35406178.17
  20
12003549.74
  30
0.00
  11
-35406181.17
  21
12003549.74
  31
0.00
  12
-35406181.17
  22
12003430.03
  32
0.00
  13
-35406178.17
  23
12003430.03
  33
0.00
  0
3DFACE
  8
mg_to_dxf
  62
2
  10
-35406178.17
  20
12003345.11
  30
0.00
  11
-35406181.17
  21
12003345.11
  31
0.00
  12
-35406181.17
  22
12003225.40
  32
0.00
  13
-35406178.17
  23
12003225.40
  33
0.00
  0
3DFACE
  8
mg_to_dxf
  62
2
  10
-35406178.17
  20
12003168.29
  30
0.00
  11
-35406181.17
  21
12003168.35
  31
0.00
  12
-35406183.96
  22
12003024.97
  32
0.00
  13
-35406180.96
  23
12003024.91
  33
0.00
  0
3DFACE
  8
mg_to_dxf
  62
2
  10
-35406180.96
  20
12002937.25
  30
0.00
  11
-35406183.96
  21
12002937.25
  31
0.00
  12
-35406183.96
  22
12002823.10
  32
0.00
  13
-35406180.96
  23
12002823.10
  33
0.00
  0
3DFACE
  8
mg_to_dxf
  62
2
  10
-35406180.96
  20
12002739.54
  30
0.00
  11
-35406183.96
  21
12002739.61
  31
0.00
  12
-35406186.74
  22
12002618.50
  32
0.00
  13
-35406183.74
  23
12002618.43
  33
0.00
  0
3DFACE
  8
mg_to_dxf
  62
2
  10
-35406183.74
  20
12002533.55
  30
0.00
  11
-35406186.74
  21
12002533.55
  31
0.00
  12
-35406186.74
  22
12002416.62
  32
0.00
  13
-35406183.74
  23
12002416.62
  33
0.00
  0
3DFACE
  8
mg_to_dxf
  62
2
  10
-35406183.74
  20
12002333.10
  30
0.00
  11
-35406186.74
  21
12002333.10
  31
0.00
  12
-35406186.74
  22
12002211.99
  32
0.00
  13
-35406183.74
  23
12002211.99
  33
0.00
  0
3DFACE
  8
mg_to_dxf
  62
2
  10
-35406183.74
  20
12002128.44
  30
0.00
  11
-35406186.74
  21
12002128.51
  31
0.00
  12
-35406189.52
  22
12002010.18
  32
0.00
  13
-35406186.52
  23
12002010.11
  33
0.00
  0
3DFACE
  8
mg_to_dxf
  62
2
  10
-35406186.52
  20
12001926.63
  30
0.00
  11
-35406189.52
  21
12001926.63
  31
0.00
  12
-35406189.52
  22
12001808.30
  32
0.00
  13
-35406186.52
  23
12001808.30
  33
0.00
  0
3DFACE
  8
mg_to_dxf
  62
2
  10
-35406186.52
  20
12001724.78
  30
0.00
  11
-35406189.52
  21
12001724.78
  31
0.00
  12
-35406189.52
  22
12001602.28
  32
0.00
  13
-35406186.52
  23
12001602.28
  33
0.00
  0
3DFACE
  8
mg_to_dxf
  62
2
  10
-35406189.31
  20
12001521.54
  30
0.00
  11
-35406192.31
  21
12001521.54
  31
0.00
  12
-35406192.31
  22
12001399.05
  32
0.00
  13
-35406189.31
  23
12001399.05
  33
0.00
  0
3DFACE
  8
mg_to_dxf
  62
2
  10
-35406189.31
  20
12001316.92
  30
0.00
  11
-35406192.31
  21
12001316.92
  31
0.00
  12
-35406192.31
  22
12001199.98
  32
0.00
  13
-35406189.31
  23
12001199.98
  33
0.00
  0
3DFACE
  8
mg_to_dxf
  62
2
  10
-35406189.31
  20
12001113.68
  30
0.00
  11
-35406192.31
  21
12001113.68
  31
0.00
  12
-35406192.31
  22
12000996.75
  32
0.00
  13
-35406189.31
  23
12000996.75
  33
0.00
  0
3DFACE
  8
mg_to_dxf
  62
2
  10
-35406192.09
  20
12000911.83
  30
0.00
  11
-35406195.09
  21
12000911.83
  31
0.00
  12
-35406195.09
  22
12000790.73
  32
0.00
  13
-35406192.09
  23
12000790.73
  33
0.00
  0
3DFACE
  8
mg_to_dxf
  62
2
  10
-35406197.66
  20
11999489.14
  30
0.00
  11
-35406200.66
  21
11999489.21
  31
0.00
  12
-35406203.44
  22
11999370.88
  32
0.00
  13
-35406200.44
  23
11999370.81
  33
0.00
  0
3DFACE
  8
mg_to_dxf
  62
2
  10
-35406200.44
  20
11999085.48
  30
0.00
  11
-35406203.44
  21
11999085.48
  31
0.00
  12
-35406203.44
  22
11998965.77
  32
0.00
  13
-35406200.44
  23
11998965.77
  33
0.00
  0
3DFACE
  8
mg_to_dxf
  62
2
  10
-35406203.23
  20
11998880.85
  30
0.00
  11
-35406206.23
  21
11998880.85
  31
0.00
  12
-35406206.23
  22
11998763.92
  32
0.00
  13
-35406203.23
  23
11998763.92
  33
0.00
  0
3DFACE
  8
mg_to_dxf
  62
2
  10
-35406203.23
  20
11998690.14
  30
0.00
  11
-35406206.23
  21
11998690.14
  31
0.00
  12
-35406206.23
  22
11998556.51
  32
0.00
  13
-35406203.23
  23
11998556.51
  33
0.00
  0
3DFACE
  8
mg_to_dxf
  62
2
  10
-35406203.23
  20
11998475.77
  30
0.00
  11
-35406206.23
  21
11998475.77
  31
0.00
  12
-35406206.23
  22
11998354.66
  32
0.00
  13
-35406203.23
  23
11998354.66
  33
0.00
  0
3DFACE
  8
mg_to_dxf
  62
2
  10
-35400228.28
  20
11996137.39
  30
0.00
  11
-35400226.36
  21
11996139.69
  31
0.00
  12
-35400277.46
  22
11996182.28
  32
0.00
  13
-35400277.41
  23
11996178.32
  33
0.00
  0
3DFACE
  8
mg_to_dxf
  62
2
  10
-35400277.41
  20
11996178.32
  30
0.00
  11
-35400277.46
  21
11996182.28
  31
0.00
  12
-35400325.76
  22
11996139.66
  32
0.00
  13
-35400323.77
  23
11996137.41
  33
0.00
  0
3DFACE
  8
mg_to_dxf
  62
2
  10
-35400274.67
  20
11996278.56
  30
0.00
  11
-35400274.64
  21
11996282.50
  31
0.00
  12
-35400398.12
  22
11996178.66
  32
0.00
  13
-35400396.19
  23
11996176.37
  33
0.00
  0
3DFACE
  8
mg_to_dxf
  62
2
  10
-35400153.13
  20
11996173.60
  30
0.00
  11
-35400151.17
  21
11996175.87
  31
0.00
  12
-35400274.64
  22
11996282.50
  32
0.00
  13
-35400274.67
  23
11996278.56
  33
0.00
  0
3DFACE
  8
mg_to_dxf
  62
2
  10
-35400153.13
  20
11996275.22
  30
0.00
  11
-35400151.17
  21
11996277.49
  31
0.00
  12
-35400274.65
  22
11996384.12
  32
0.00
  13
-35400274.66
  23
11996380.17
  33
0.00
  0
3DFACE
  8
mg_to_dxf
  62
2
  10
-35400274.66
  20
11996380.17
  30
0.00
  11
-35400274.65
  21
11996384.12
  31
0.00
  12
-35400398.12
  22
11996278.88
  32
0.00
  13
-35400396.18
  23
11996276.60
  33
0.00
  0
3DFACE
  8
mg_to_dxf
  62
2
  10
-35400274.65
  20
11996480.39
  30
0.00
  11
-35400274.66
  21
11996484.35
  31
0.00
  12
-35400398.13
  22
11996377.71
  32
0.00
  13
-35400396.17
  23
11996375.44
  33
0.00
  0
3DFACE
  8
mg_to_dxf
  62
2
  10
-35400150.34
  20
11996374.05
  30
0.00
  11
-35400148.39
  21
11996376.33
  31
0.00
  12
-35400274.66
  22
11996484.35
  32
0.00
  13
-35400274.65
  23
11996480.39
  33
0.00
  0
3DFACE
  8
mg_to_dxf
  62
2
  10
-35400398.13
  20
11996477.94
  30
0.00
  11
-35400396.18
  21
11996475.66
  31
0.00
  12
-35400329.36
  22
11996532.74
  32
0.00
  13
-35400331.31
  23
11996535.02
  33
0.00
  0
3DFACE
  8
mg_to_dxf
  62
2
  10
-35400215.24
  20
11996533.65
  30
0.00
  11
-35400217.14
  21
11996531.33
  31
0.00
  12
-35400147.54
  22
11996474.25
  32
0.00
  13
-35400145.63
  23
11996476.57
  33
0.00
  0
3DFACE
  8
mg_to_dxf
  62
2
  10
-35400273.37
  20
11996925.04
  30
0.00
  11
-35400270.37
  21
11996925.04
  31
0.00
  12
-35400270.37
  22
11997044.76
  32
0.00
  13
-35400273.37
  23
11997044.76
  33
0.00
  0
3DFACE
  8
mg_to_dxf
  62
2
  10
-35400273.37
  20
11997125.53
  30
0.00
  11
-35400270.37
  21
11997125.46
  31
0.00
  12
-35400267.59
  22
11997246.57
  32
0.00
  13
-35400270.58
  23
11997246.63
  33
0.00
  0
3DFACE
  8
mg_to_dxf
  62
2
  10
-35400270.58
  20
11997325.95
  30
0.00
  11
-35400267.58
  21
11997325.95
  31
0.00
  12
-35400267.58
  22
11997447.05
  32
0.00
  13
-35400270.58
  23
11997447.05
  33
0.00
  0
3DFACE
  8
mg_to_dxf
  62
2
  10
-35400270.58
  20
11997527.79
  30
0.00
  11
-35400267.58
  21
11997527.79
  31
0.00
  12
-35400267.58
  22
11997646.11
  32
0.00
  13
-35400270.58
  23
11997646.11
  33
0.00
  0
3DFACE
  8
mg_to_dxf
  62
2
  10
-35400270.58
  20
11997726.89
  30
0.00
  11
-35400267.59
  21
11997726.82
  31
0.00
  12
-35400264.80
  22
11997845.14
  32
0.00
  13
-35400267.80
  23
11997845.21
  33
0.00
  0
3DFACE
  8
mg_to_dxf
  62
2
  10
-35400267.80
  20
11997928.70
  30
0.00
  11
-35400264.80
  21
11997928.70
  31
0.00
  12
-35400264.80
  22
11998044.24
  32
0.00
  13
-35400267.80
  23
11998044.24
  33
0.00
  0
3DFACE
  8
mg_to_dxf
  62
2
  10
-35400267.80
  20
11998127.76
  30
0.00
  11
-35400264.80
  21
11998127.76
  31
0.00
  12
-35400264.80
  22
11998246.08
  32
0.00
  13
-35400267.80
  23
11998246.08
  33
0.00
  0
3DFACE
  8
mg_to_dxf
  62
2
  10
-35400265.02
  20
11998331.00
  30
0.00
  11
-35400262.02
  21
11998331.00
  31
0.00
  12
-35400262.02
  22
11998457.67
  32
0.00
  13
-35400265.02
  23
11998457.67
  33
0.00
  0
3DFACE
  8
mg_to_dxf
  62
2
  10
-35400265.02
  20
11998530.06
  30
0.00
  11
-35400262.02
  21
11998530.06
  31
0.00
  12
-35400262.02
  22
11998649.77
  32
0.00
  13
-35400265.02
  23
11998649.77
  33
0.00
  0
3DFACE
  8
mg_to_dxf
  62
2
  10
-35400262.23
  20
11998729.12
  30
0.00
  11
-35400259.23
  21
11998729.12
  31
0.00
  12
-35400259.23
  22
11998848.83
  32
0.00
  13
-35400262.23
  23
11998848.83
  33
0.00
  0
3DFACE
  8
mg_to_dxf
  62
2
  10
-35400262.23
  20
11998930.96
  30
0.00
  11
-35400259.23
  21
11998930.96
  31
0.00
  12
-35400259.23
  22
11999050.68
  32
0.00
  13
-35400262.23
  23
11999050.68
  33
0.00
  0
3DFACE
  8
mg_to_dxf
  62
2
  10
-35400262.23
  20
11999130.06
  30
0.00
  11
-35400259.23
  21
11999129.99
  31
0.00
  12
-35400256.45
  22
11999249.71
  32
0.00
  13
-35400259.45
  23
11999249.78
  33
0.00
  0
3DFACE
  8
mg_to_dxf
  62
2
  10
-35400259.45
  20
11999331.87
  30
0.00
  11
-35400256.45
  21
11999331.87
  31
0.00
  12
-35400256.45
  22
11999452.98
  32
0.00
  13
-35400259.45
  23
11999452.98
  33
0.00
  0
3DFACE
  8
mg_to_dxf
  62
2
  10
-35400259.45
  20
11999533.72
  30
0.00
  11
-35400256.45
  21
11999533.72
  31
0.00
  12
-35400256.45
  22
11999653.43
  32
0.00
  13
-35400259.45
  23
11999653.43
  33
0.00
  0
3DFACE
  8
mg_to_dxf
  62
2
  10
-35400259.45
  20
11999732.81
  30
0.00
  11
-35400256.45
  21
11999732.74
  31
0.00
  12
-35400253.66
  22
11999855.24
  32
0.00
  13
-35400256.66
  23
11999855.31
  33
0.00
  0
3DFACE
  8
mg_to_dxf
  62
2
  10
-35400256.66
  20
11999931.84
  30
0.00
  11
-35400253.66
  21
11999931.84
  31
0.00
  12
-35400253.66
  22
12000052.95
  32
0.00
  13
-35400256.66
  23
12000052.95
  33
0.00
  0
3DFACE
  8
mg_to_dxf
  62
2
  10
-35400256.66
  20
12000133.72
  30
0.00
  11
-35400253.66
  21
12000133.65
  31
0.00
  12
-35400250.88
  22
12000253.36
  32
0.00
  13
-35400253.88
  23
12000253.43
  33
0.00
  0
3DFACE
  8
mg_to_dxf
  62
2
  10
-35400253.88
  20
12000334.14
  30
0.00
  11
-35400250.88
  21
12000334.14
  31
0.00
  12
-35400250.88
  22
12000451.07
  32
0.00
  13
-35400253.88
  23
12000451.07
  33
0.00
  0
3DFACE
  8
mg_to_dxf
  62
2
  10
-35400253.88
  20
12000535.98
  30
0.00
  11
-35400250.88
  21
12000535.98
  31
0.00
  12
-35400250.88
  22
12000652.91
  32
0.00
  13
-35400253.88
  23
12000652.91
  33
0.00
  0
3DFACE
  8
mg_to_dxf
  62
2
  10
-35400253.88
  20
12000735.08
  30
0.00
  11
-35400250.88
  21
12000735.01
  31
0.00
  12
-35400248.10
  22
12000858.90
  32
0.00
  13
-35400251.10
  23
12000858.97
  33
0.00
  0
3DFACE
  8
mg_to_dxf
  62
2
  10
-35400251.10
  20
12000935.50
  30
0.00
  11
-35400248.10
  21
12000935.50
  31
0.00
  12
-35400248.10
  22
12001058.00
  32
0.00
  13
-35400251.10
  23
12001058.00
  33
0.00
  0
3DFACE
  8
mg_to_dxf
  62
2
  10
-35400251.10
  20
12001137.38
  30
0.00
  11
-35400248.10
  21
12001137.31
  31
0.00
  12
-35400245.31
  22
12001258.42
  32
0.00
  13
-35400248.31
  23
12001258.48
  33
0.00
  0
3DFACE
  8
mg_to_dxf
  62
2
  10
-35400248.31
  20
12001337.80
  30
0.00
  11
-35400245.31
  21
12001337.80
  31
0.00
  12
-35400245.31
  22
12001457.51
  32
0.00
  13
-35400248.31
  23
12001457.51
  33
0.00
  0
3DFACE
  8
mg_to_dxf
  62
2
  10
-35400248.31
  20
12001538.25
  30
0.00
  11
-35400245.31
  21
12001538.25
  31
0.00
  12
-35400245.31
  22
12001659.36
  32
0.00
  13
-35400248.31
  23
12001659.36
  33
0.00
  0
3DFACE
  8
mg_to_dxf
  62
2
  10
-35400248.31
  20
12001735.95
  30
0.00
  11
-35400245.31
  21
12001735.88
  31
0.00
  12
-35400242.53
  22
12001858.38
  32
0.00
  13
-35400245.53
  23
12001858.45
  33
0.00
  0
3DFACE
  8
mg_to_dxf
  62
2
  10
-35400245.53
  20
12001939.16
  30
0.00
  11
-35400242.53
  21
12001939.16
  31
0.00
  12
-35400242.53
  22
12002060.26
  32
0.00
  13
-35400245.53
  23
12002060.26
  33
0.00
  0
3DFACE
  8
mg_to_dxf
  62
2
  10
-35400245.53
  20
12002141.00
  30
0.00
  11
-35400242.53
  21
12002141.00
  31
0.00
  12
-35400242.53
  22
12002259.32
  32
0.00
  13
-35400245.53
  23
12002259.32
  33
0.00
  0
3DFACE
  8
mg_to_dxf
  62
2
  10
-35400242.74
  20
12002340.06
  30
0.00
  11
-35400239.74
  21
12002340.06
  31
0.00
  12
-35400239.74
  22
12002456.99
  32
0.00
  13
-35400242.74
  23
12002456.99
  33
0.00
  0
3DFACE
  8
mg_to_dxf
  62
2
  10
-35400242.74
  20
12002539.12
  30
0.00
  11
-35400239.74
  21
12002539.12
  31
0.00
  12
-35400239.74
  22
12002658.84
  32
0.00
  13
-35400242.74
  23
12002658.84
  33
0.00
  0
3DFACE
  8
mg_to_dxf
  62
2
  10
-35400242.74
  20
12002741.00
  30
0.00
  11
-35400239.74
  21
12002740.93
  31
0.00
  12
-35400236.96
  22
12002863.43
  32
0.00
  13
-35400239.96
  23
12002863.50
  33
0.00
  0
3DFACE
  8
mg_to_dxf
  62
2
  10
-35400239.96
  20
12002942.81
  30
0.00
  11
-35400236.96
  21
12002942.81
  31
0.00
  12
-35400236.96
  22
12003058.35
  32
0.00
  13
-35400239.96
  23
12003058.35
  33
0.00
  0
3DFACE
  8
mg_to_dxf
  62
2
  10
-35400239.96
  20
12003143.27
  30
0.00
  11
-35400236.96
  21
12003143.27
  31
0.00
  12
-35400236.96
  22
12003262.98
  32
0.00
  13
-35400239.96
  23
12003262.98
  33
0.00
  0
3DFACE
  8
mg_to_dxf
  62
2
  10
-35400239.96
  20
12003343.76
  30
0.00
  11
-35400236.96
  21
12003343.68
  31
0.00
  12
-35400234.18
  22
12003462.01
  32
0.00
  13
-35400237.18
  23
12003462.08
  33
0.00
  0
3DFACE
  8
mg_to_dxf
  62
2
  10
-35400237.18
  20
12003545.57
  30
0.00
  11
-35400234.18
  21
12003545.57
  31
0.00
  12
-35400234.18
  22
12003663.89
  32
0.00
  13
-35400237.18
  23
12003663.89
  33
0.00
  0
3DFACE
  8
mg_to_dxf
  62
2
  10
-35400237.18
  20
12003744.63
  30
0.00
  11
-35400234.18
  21
12003744.63
  31
0.00
  12
-35400234.18
  22
12003862.95
  32
0.00
  13
-35400237.18
  23
12003862.95
  33
0.00
  0
3DFACE
  8
mg_to_dxf
  62
2
  10
-35400234.39
  20
12003945.08
  30
0.00
  11
-35400231.39
  21
12003945.08
  31
0.00
  12
-35400231.39
  22
12004064.79
  32
0.00
  13
-35400234.39
  23
12004064.79
  33
0.00
  0
3DFACE
  8
mg_to_dxf
  62
2
  10
-35400234.39
  20
12004144.14
  30
0.00
  11
-35400231.39
  21
12004144.14
  31
0.00
  12
-35400231.39
  22
12004265.25
  32
0.00
  13
-35400234.39
  23
12004265.25
  33
0.00
  0
3DFACE
  8
mg_to_dxf
  62
2
  10
-35400228.61
  20
12004467.09
  30
0.00
  11
-35400231.61
  21
12004467.09
  31
0.00
  12
-35400231.61
  22
12004344.59
  32
0.00
  13
-35400228.61
  23
12004344.59
  33
0.00
  0
3DFACE
  8
mg_to_dxf
  62
2
  10
-35400231.61
  20
12004545.05
  30
0.00
  11
-35400228.61
  21
12004545.05
  31
0.00
  12
-35400228.61
  22
12004664.76
  32
0.00
  13
-35400231.61
  23
12004664.76
  33
0.00
  0
3DFACE
  8
mg_to_dxf
  62
2
  10
-35407612.49
  20
12011704.04
  30
0.00
  11
-35407614.45
  21
12011701.76
  31
0.00
  12
-35407563.36
  22
12011657.77
  32
0.00
  13
-35407563.36
  23
12011661.73
  33
0.00
  0
3DFACE
  8
mg_to_dxf
  62
2
  10
-35407563.36
  20
12011661.73
  30
0.00
  11
-35407563.36
  21
12011657.77
  31
0.00
  12
-35407512.26
  22
12011701.76
  32
0.00
  13
-35407514.22
  23
12011704.04
  33
0.00
  0
3DFACE
  8
mg_to_dxf
  62
2
  10
-35407563.35
  20
12011561.48
  30
0.00
  11
-35407563.36
  21
12011557.56
  31
0.00
  12
-35407437.11
  22
12011662.77
  32
0.00
  13
-35407439.03
  23
12011665.07
  33
0.00
  0
3DFACE
  8
mg_to_dxf
  62
2
  10
-35407687.67
  20
12011666.46
  30
0.00
  11
-35407689.61
  21
12011664.17
  31
0.00
  12
-35407563.36
  22
12011557.56
  32
0.00
  13
-35407563.35
  23
12011561.48
  33
0.00
  0
3DFACE
  8
mg_to_dxf
  62
2
  10
-35407687.66
  20
12011567.62
  30
0.00
  11
-35407689.61
  21
12011565.34
  31
0.00
  12
-35407563.36
  22
12011457.32
  32
0.00
  13
-35407563.36
  23
12011461.27
  33
0.00
  0
3DFACE
  8
mg_to_dxf
  62
2
  10
-35407563.36
  20
12011461.27
  30
0.00
  11
-35407563.36
  21
12011457.32
  31
0.00
  12
-35407437.10
  22
12011565.34
  32
0.00
  13
-35407439.05
  23
12011567.62
  33
0.00
  0
3DFACE
  8
mg_to_dxf
  62
2
  10
-35407687.69
  20
12011466.02
  30
0.00
  11
-35407689.59
  21
12011463.70
  31
0.00
  12
-35407619.99
  22
12011406.63
  32
0.00
  13
-35407618.09
  23
12011408.95
  33
0.00
  0
3DFACE
  8
mg_to_dxf
  62
2
  10
-35407508.63
  20
12011408.95
  30
0.00
  11
-35407506.72
  21
12011406.63
  31
0.00
  12
-35407437.12
  22
12011463.70
  32
0.00
  13
-35407439.02
  23
12011466.02
  33
0.00
  0
3DFACE
  8
mg_to_dxf
  62
2
  10
-35404463.72
  20
12010224.32
  30
0.00
  11
-35404465.64
  21
12010222.01
  31
0.00
  12
-35404398.82
  22
12010166.33
  32
0.00
  13
-35404396.90
  23
12010168.64
  33
0.00
  0
3DFACE
  8
mg_to_dxf
  62
2
  10
-35404405.43
  20
12010167.37
  30
0.00
  11
-35404407.00
  21
12010164.81
  31
0.00
  12
-35404361.79
  22
12010136.99
  32
0.00
  13
-35404378.26
  23
12010150.65
  33
0.00
  0
3DFACE
  8
mg_to_dxf
  62
2
  10
-35404378.26
  20
12010150.65
  30
0.00
  11
-35404361.79
  21
12010136.99
  31
0.00
  12
-35404396.75
  22
12010175.45
  32
0.00
  13
-35404398.97
  23
12010173.43
  33
0.00
  0
3DFACE
  8
mg_to_dxf
  62
2
  10
-35404299.48
  20
12010082.34
  30
0.00
  11
-35404301.37
  21
12010080.01
  31
0.00
  12
-35404234.55
  22
12010025.72
  32
0.00
  13
-35404232.66
  23
12010028.05
  33
0.00
  0
3DFACE
  8
mg_to_dxf
  62
2
  10
-35404241.15
  20
12010026.76
  30
0.00
  11
-35404242.77
  21
12010024.23
  31
0.00
  12
-35404195.57
  22
12009993.89
  32
0.00
  13
-35404210.39
  23
12010006.98
  33
0.00
  0
3DFACE
  8
mg_to_dxf
  62
2
  10
-35404210.39
  20
12010006.98
  30
0.00
  11
-35404195.57
  21
12009993.89
  31
0.00
  12
-35404229.67
  22
12010034.81
  32
0.00
  13
-35404231.97
  23
12010032.89
  33
0.00
  0
3DFACE
  8
mg_to_dxf
  62
2
  10
-35404135.18
  20
12009944.50
  30
0.00
  11
-35404137.14
  21
12009942.23
  31
0.00
  12
-35404067.54
  22
12009882.37
  32
0.00
  13
-35404065.58
  23
12009884.64
  33
0.00
  0
3DFACE
  8
mg_to_dxf
  62
2
  10
-35404074.10
  20
12009883.38
  30
0.00
  11
-35404075.72
  21
12009880.85
  31
0.00
  12
-35404028.53
  22
12009850.51
  32
0.00
  13
-35404043.34
  23
12009863.60
  33
0.00
  0
3DFACE
  8
mg_to_dxf
  62
2
  10
-35404043.34
  20
12009863.60
  30
0.00
  11
-35404028.53
  21
12009850.51
  31
0.00
  12
-35404062.62
  22
12009891.43
  32
0.00
  13
-35404064.93
  23
12009889.51
  33
0.00
  0
3DFACE
  8
mg_to_dxf
  62
2
  10
-35404054.45
  20
12009767.31
  30
0.00
  11
-35404039.70
  21
12009754.71
  31
0.00
  12
-35404070.99
  22
12009791.22
  32
0.00
  13
-35404073.27
  23
12009789.26
  33
0.00
  0
3DFACE
  8
mg_to_dxf
  62
2
  10
-35404082.48
  20
12009784.56
  30
0.00
  11
-35404084.05
  21
12009782.00
  31
0.00
  12
-35404039.70
  22
12009754.71
  32
0.00
  13
-35404054.45
  23
12009767.31
  33
0.00
  0
3DFACE
  8
mg_to_dxf
  62
2
  10
-35404011.48
  20
12009801.61
  30
0.00
  11
-35403993.57
  21
12009787.23
  31
0.00
  12
-35404032.07
  22
12009827.47
  32
0.00
  13
-35404034.24
  23
12009825.40
  33
0.00
  0
3DFACE
  8
mg_to_dxf
  62
2
  10
-35404040.72
  20
12009819.36
  30
0.00
  11
-35404042.28
  21
12009816.80
  31
0.00
  12
-35403993.57
  22
12009787.23
  32
0.00
  13
-35404011.48
  23
12009801.61
  33
0.00
  0
3DFACE
  8
mg_to_dxf
  62
2
  10
-35403970.36
  20
12009837.95
  30
0.00
  11
-35403956.74
  21
12009826.05
  31
0.00
  12
-35403987.45
  22
12009863.58
  32
0.00
  13
-35403989.77
  23
12009861.68
  33
0.00
  0
3DFACE
  8
mg_to_dxf
  62
2
  10
-35403998.96
  20
12009855.55
  30
0.00
  11
-35404000.53
  21
12009853.00
  31
0.00
  12
-35403956.74
  22
12009826.05
  32
0.00
  13
-35403970.36
  23
12009837.95
  33
0.00
  0
3DFACE
  8
mg_to_dxf
  62
2
  10
-35403928.72
  20
12009874.29
  30
0.00
  11
-35403914.86
  21
12009862.10
  31
0.00
  12
-35403945.68
  22
12009899.77
  32
0.00
  13
-35403948.01
  23
12009897.87
  33
0.00
  0
3DFACE
  8
mg_to_dxf
  62
2
  10
-35403954.40
  20
12009890.35
  30
0.00
  11
-35403955.99
  21
12009887.80
  31
0.00
  12
-35403914.86
  22
12009862.10
  32
0.00
  13
-35403928.72
  23
12009874.29
  33
0.00
  0
3DFACE
  8
mg_to_dxf
  62
2
  10
-35396683.23
  20
12003656.82
  30
0.00
  11
-35396683.17
  21
12003659.82
  31
0.00
  12
-35396757.02
  22
12003661.24
  32
0.00
  13
-35396754.15
  23
12003658.18
  33
0.00
  0
3DFACE
  8
mg_to_dxf
  62
2
  10
-35396754.15
  20
12003658.18
  30
0.00
  11
-35396757.02
  21
12003661.24
  31
0.00
  12
-35396759.87
  22
12003597.14
  32
0.00
  13
-35396756.87
  23
12003597.00
  33
0.00
  0
3DFACE
  8
mg_to_dxf
  62
2
  10
-35396840.39
  20
12003730.57
  30
0.00
  11
-35396843.39
  21
12003733.62
  31
0.00
  12
-35396843.39
  22
12003597.07
  32
0.00
  13
-35396840.39
  23
12003597.07
  33
0.00
  0
3DFACE
  8
mg_to_dxf
  62
2
  10
-35396680.44
  20
12003727.81
  30
0.00
  11
-35396680.39
  21
12003730.81
  31
0.00
  12
-35396843.39
  22
12003733.62
  32
0.00
  13
-35396840.39
  23
12003730.57
  33
0.00
  0
3DFACE
  8
mg_to_dxf
  62
2
  10
-35396763.95
  20
12003798.81
  30
0.00
  11
-35396763.92
  21
12003801.81
  31
0.00
  12
-35396926.91
  22
12003803.21
  32
0.00
  13
-35396923.91
  23
12003800.19
  33
0.00
  0
3DFACE
  8
mg_to_dxf
  62
2
  10
-35396923.91
  20
12003800.19
  30
0.00
  11
-35396926.91
  21
12003803.21
  31
0.00
  12
-35396926.91
  22
12003666.67
  32
0.00
  13
-35396923.91
  23
12003666.67
  33
0.00
  0
3DFACE
  8
mg_to_dxf
  62
2
  10
-35396925.34
  20
12003874.19
  30
0.00
  11
-35396925.48
  21
12003871.20
  31
0.00
  12
-35396894.86
  22
12003869.80
  32
0.00
  13
-35396894.72
  23
12003872.80
  33
0.00
  0
3DFACE
  8
mg_to_dxf
  62
2
  10
-35397010.22
  20
12003800.31
  30
0.00
  11
-35397013.22
  21
12003800.31
  31
0.00
  12
-35397013.22
  22
12003736.27
  32
0.00
  13
-35397010.22
  23
12003736.27
  33
0.00
  0
3DFACE
  8
mg_to_dxf
  62
2
  10
-35397293.89
  20
12004113.77
  30
0.00
  11
-35397291.93
  21
12004116.04
  31
0.00
  12
-35397394.94
  22
12004205.13
  32
0.00
  13
-35397396.90
  23
12004202.86
  33
0.00
  0
3DFACE
  8
mg_to_dxf
  62
2
  10
-35397463.71
  20
12004258.54
  30
0.00
  11
-35397461.77
  21
12004260.82
  31
0.00
  12
-35397564.78
  22
12004348.52
  32
0.00
  13
-35397566.72
  23
12004346.24
  33
0.00
  0
3DFACE
  8
mg_to_dxf
  62
2
  10
-35397630.76
  20
12004401.92
  30
0.00
  11
-35397628.81
  21
12004404.20
  31
0.00
  12
-35397731.82
  22
12004491.90
  32
0.00
  13
-35397733.77
  23
12004489.62
  33
0.00
  0
3DFACE
  8
mg_to_dxf
  62
2
  10
-35397803.38
  20
12004546.70
  30
0.00
  11
-35397801.41
  21
12004548.96
  31
0.00
  12
-35397901.63
  22
12004636.66
  32
0.00
  13
-35397903.61
  23
12004634.40
  33
0.00
  0
3DFACE
  8
mg_to_dxf
  62
2
  10
-35397970.41
  20
12004691.46
  30
0.00
  11
-35397968.47
  21
12004693.75
  31
0.00
  12
-35398071.48
  22
12004781.44
  32
0.00
  13
-35398073.42
  23
12004779.16
  33
0.00
  0
3DFACE
  8
mg_to_dxf
  62
2
  10
-35398140.23
  20
12004836.22
  30
0.00
  11
-35398138.31
  21
12004838.53
  31
0.00
  12
-35398238.54
  22
12004922.05
  32
0.00
  13
-35398240.46
  23
12004919.75
  33
0.00
  0
3DFACE
  8
mg_to_dxf
  62
2
  10
-35398307.28
  20
12004978.21
  30
0.00
  11
-35398305.35
  21
12004980.51
  31
0.00
  12
-35398408.36
  22
12005066.82
  32
0.00
  13
-35398410.29
  23
12005064.52
  33
0.00
  0
3DFACE
  8
mg_to_dxf
  62
2
  10
-35398474.32
  20
12005120.20
  30
0.00
  11
-35398472.40
  21
12005122.50
  31
0.00
  12
-35398572.62
  22
12005206.03
  32
0.00
  13
-35398574.54
  23
12005203.72
  33
0.00
  0
3DFACE
  8
mg_to_dxf
  62
2
  10
-35398644.16
  20
12005263.59
  30
0.00
  11
-35398642.21
  21
12005265.87
  31
0.00
  12
-35398742.43
  22
12005352.17
  32
0.00
  13
-35398744.39
  23
12005349.90
  33
0.00
  0
3DFACE
  8
mg_to_dxf
  62
2
  10
-35398811.19
  20
12005406.96
  30
0.00
  11
-35398809.27
  21
12005409.26
  31
0.00
  12
-35398909.50
  22
12005492.78
  32
0.00
  13
-35398911.42
  23
12005490.48
  33
0.00
  0
3DFACE
  8
mg_to_dxf
  62
2
  10
-35398978.25
  20
12005548.96
  30
0.00
  11
-35398976.30
  21
12005551.24
  31
0.00
  12
-35399073.74
  22
12005634.76
  32
0.00
  13
-35399075.69
  23
12005632.48
  33
0.00
  0
3DFACE
  8
mg_to_dxf
  62
2
  10
-35399145.28
  20
12005690.94
  30
0.00
  11
-35399143.36
  21
12005693.24
  31
0.00
  12
-35399246.37
  22
12005779.54
  32
0.00
  13
-35399248.29
  23
12005777.24
  33
0.00
  0
3DFACE
  8
mg_to_dxf
  62
2
  10
-35399315.12
  20
12005835.72
  30
0.00
  11
-35399313.18
  21
12005838.00
  31
0.00
  12
-35399416.19
  22
12005925.70
  32
0.00
  13
-35399418.13
  23
12005923.41
  33
0.00
  0
3DFACE
  8
mg_to_dxf
  62
2
  10
-35399484.96
  20
12005979.10
  30
0.00
  11
-35399482.99
  21
12005981.37
  31
0.00
  12
-35399586.01
  22
12006070.46
  32
0.00
  13
-35399587.97
  23
12006068.19
  33
0.00
  0
3DFACE
  8
mg_to_dxf
  62
2
  10
-35399654.78
  20
12006125.26
  30
0.00
  11
-35399652.83
  21
12006127.54
  31
0.00
  12
-35399753.05
  22
12006213.84
  32
0.00
  13
-35399755.01
  23
12006211.57
  33
0.00
  0
3DFACE
  8
mg_to_dxf
  62
2
  10
-35399824.60
  20
12006270.03
  30
0.00
  11
-35399822.66
  21
12006272.32
  31
0.00
  12
-35399922.89
  22
12006357.23
  32
0.00
  13
-35399924.83
  23
12006354.94
  33
0.00
  0
3DFACE
  8
mg_to_dxf
  62
2
  10
-35399991.64
  20
12006412.01
  30
0.00
  11
-35399989.71
  21
12006414.31
  31
0.00
  12
-35400095.51
  22
12006503.40
  32
0.00
  13
-35400097.44
  23
12006501.10
  33
0.00
  0
3DFACE
  8
mg_to_dxf
  62
2
  10
-35400164.27
  20
12006558.19
  30
0.00
  11
-35400162.31
  21
12006560.46
  31
0.00
  12
-35400265.32
  22
12006649.55
  32
0.00
  13
-35400267.28
  23
12006647.28
  33
0.00
  0
3DFACE
  8
mg_to_dxf
  62
2
  10
-35400345.24
  20
12006712.71
  30
0.00
  11
-35400343.27
  21
12006714.97
  31
0.00
  12
-35400446.28
  22
12006804.07
  32
0.00
  13
-35400448.25
  23
12006801.80
  33
0.00
  0
3DFACE
  8
mg_to_dxf
  62
2
  10
-35400523.40
  20
12006865.82
  30
0.00
  11
-35400521.47
  21
12006868.11
  31
0.00
  12
-35400630.05
  22
12006959.98
  32
0.00
  13
-35400631.98
  23
12006957.69
  33
0.00
  0
3DFACE
  8
mg_to_dxf
  62
2
  10
-35400704.37
  20
12007020.34
  30
0.00
  11
-35400702.43
  21
12007022.62
  31
0.00
  12
-35400802.66
  22
12007107.54
  32
0.00
  13
-35400804.60
  23
12007105.25
  33
0.00
  0
3DFACE
  8
mg_to_dxf
  62
2
  10
-35400874.20
  20
12007163.72
  30
0.00
  11
-35400872.26
  21
12007166.00
  31
0.00
  12
-35400972.49
  22
12007250.92
  32
0.00
  13
-35400974.42
  23
12007248.63
  33
0.00
  0
3DFACE
  8
mg_to_dxf
  62
2
  10
-35401041.25
  20
12007305.71
  30
0.00
  11
-35401039.29
  21
12007307.98
  31
0.00
  12
-35401139.52
  22
12007394.29
  32
0.00
  13
-35401141.48
  23
12007392.02
  33
0.00
  0
3DFACE
  8
mg_to_dxf
  62
2
  10
-35401202.72
  20
12007443.51
  30
0.00
  11
-35401200.78
  21
12007445.80
  31
0.00
  12
-35401301.01
  22
12007530.72
  32
0.00
  13
-35401302.95
  23
12007528.43
  33
0.00
  0
3DFACE
  8
mg_to_dxf
  62
2
  10
-35401369.76
  20
12007585.50
  30
0.00
  11
-35401367.82
  21
12007587.79
  31
0.00
  12
-35401468.05
  22
12007672.71
  32
0.00
  13
-35401469.99
  23
12007670.42
  33
0.00
  0
3DFACE
  8
mg_to_dxf
  62
2
  10
-35401536.82
  20
12007727.50
  30
0.00
  11
-35401534.86
  21
12007729.77
  31
0.00
  12
-35401635.09
  22
12007816.08
  32
0.00
  13
-35401637.04
  23
12007813.80
  33
0.00
  0
3DFACE
  8
mg_to_dxf
  62
2
  10
-35401701.07
  20
12007868.09
  30
0.00
  11
-35401699.13
  21
12007870.37
  31
0.00
  12
-35401802.14
  22
12007958.07
  32
0.00
  13
-35401804.08
  23
12007955.79
  33
0.00
  0
3DFACE
  8
mg_to_dxf
  62
2
  10
-35401870.90
  20
12008011.47
  30
0.00
  11
-35401868.95
  21
12008013.75
  31
0.00
  12
-35401966.39
  22
12008097.27
  32
0.00
  13
-35401968.35
  23
12008094.99
  33
0.00
  0
3DFACE
  8
mg_to_dxf
  62
2
  10
-35402037.95
  20
12008153.46
  30
0.00
  11
-35402035.99
  21
12008155.73
  31
0.00
  12
-35402136.22
  22
12008242.04
  32
0.00
  13
-35402138.18
  23
12008239.77
  33
0.00
  0
3DFACE
  8
mg_to_dxf
  62
2
  10
-35402204.99
  20
12008295.45
  30
0.00
  11
-35402203.04
  21
12008297.72
  31
0.00
  12
-35402303.26
  22
12008384.03
  32
0.00
  13
-35402305.22
  23
12008381.76
  33
0.00
  0
3DFACE
  8
mg_to_dxf
  62
2
  10
-35402372.05
  20
12008437.44
  30
0.00
  11
-35402370.07
  21
12008439.70
  31
0.00
  12
-35402467.52
  22
12008524.62
  32
0.00
  13
-35402469.49
  23
12008522.36
  33
0.00
  0
3DFACE
  8
mg_to_dxf
  62
2
  10
-35402539.09
  20
12008579.43
  30
0.00
  11
-35402537.12
  21
12008581.69
  31
0.00
  12
-35402637.34
  22
12008669.39
  32
0.00
  13
-35402639.32
  23
12008667.13
  33
0.00
  0
3DFACE
  8
mg_to_dxf
  62
2
  10
-35402706.13
  20
12008722.80
  30
0.00
  11
-35402704.17
  21
12008725.08
  31
0.00
  12
-35402804.40
  22
12008811.38
  32
0.00
  13
-35402806.35
  23
12008809.11
  33
0.00
  0
3DFACE
  8
mg_to_dxf
  62
2
  10
-35402870.37
  20
12008863.39
  30
0.00
  11
-35402868.45
  21
12008865.69
  31
0.00
  12
-35402971.46
  22
12008951.99
  32
0.00
  13
-35402973.38
  23
12008949.69
  33
0.00
  0
3DFACE
  8
mg_to_dxf
  62
2
  10
-35403037.42
  20
12009006.77
  30
0.00
  11
-35403035.49
  21
12009009.07
  31
0.00
  12
-35403138.50
  22
12009095.37
  32
0.00
  13
-35403140.43
  23
12009093.07
  33
0.00
  0
3DFACE
  8
mg_to_dxf
  62
2
  10
-35403207.26
  20
12009150.16
  30
0.00
  11
-35403205.31
  21
12009152.44
  31
0.00
  12
-35403302.75
  22
12009235.96
  32
0.00
  13
-35403304.70
  23
12009233.68
  33
0.00
  0
3DFACE
  8
mg_to_dxf
  62
2
  10
-35403371.51
  20
12009290.75
  30
0.00
  11
-35403369.57
  21
12009293.04
  31
0.00
  12
-35403469.80
  22
12009377.95
  32
0.00
  13
-35403471.74
  23
12009375.66
  33
0.00
  0
3DFACE
  8
mg_to_dxf
  62
2
  10
-35403538.55
  20
12009432.73
  30
0.00
  11
-35403536.62
  21
12009435.03
  31
0.00
  12
-35403639.63
  22
12009521.34
  32
0.00
  13
-35403641.56
  23
12009519.04
  33
0.00
  0
3DFACE
  8
mg_to_dxf
  62
2
  10
-35400227.28
  20
12005412.84
  30
0.00
  11
-35400227.36
  21
12005408.95
  31
0.00
  12
-35400173.50
  22
12005451.48
  32
0.00
  13
-35400175.36
  23
12005453.83
  33
0.00
  0
3DFACE
  8
mg_to_dxf
  62
2
  10
-35400276.46
  20
12005455.18
  30
0.00
  11
-35400278.42
  21
12005452.91
  31
0.00
  12
-35400227.36
  22
12005408.95
  32
0.00
  13
-35400227.28
  23
12005412.84
  33
0.00
  0
3DFACE
  8
mg_to_dxf
  62
2
  10
-35400348.84
  20
12005416.21
  30
0.00
  11
-35400350.80
  21
12005413.94
  31
0.00
  12
-35400227.36
  22
12005307.33
  32
0.00
  13
-35400227.29
  23
12005311.23
  33
0.00
  0
3DFACE
  8
mg_to_dxf
  62
2
  10
-35400227.29
  20
12005311.23
  30
0.00
  11
-35400227.36
  21
12005307.33
  31
0.00
  12
-35400101.10
  22
12005408.33
  32
0.00
  13
-35400102.98
  23
12005410.67
  33
0.00
  0
3DFACE
  8
mg_to_dxf
  62
2
  10
-35400227.30
  20
12005211.00
  30
0.00
  11
-35400227.35
  21
12005207.10
  31
0.00
  12
-35400101.10
  22
12005309.50
  32
0.00
  13
-35400102.99
  23
12005311.83
  33
0.00
  0
3DFACE
  8
mg_to_dxf
  62
2
  10
-35400348.85
  20
12005314.59
  30
0.00
  11
-35400350.80
  21
12005312.31
  31
0.00
  12
-35400227.35
  22
12005207.10
  32
0.00
  13
-35400227.30
  23
12005211.00
  33
0.00
  0
3DFACE
  8
mg_to_dxf
  62
2
  10
-35400348.83
  20
12005217.14
  30
0.00
  11
-35400350.81
  21
12005214.88
  31
0.00
  12
-35400227.35
  22
12005106.85
  32
0.00
  13
-35400227.30
  23
12005110.79
  33
0.00
  0
3DFACE
  8
mg_to_dxf
  62
2
  10
-35400227.30
  20
12005110.79
  30
0.00
  11
-35400227.35
  21
12005106.85
  31
0.00
  12
-35400101.08
  22
12005212.07
  32
0.00
  13
-35400103.00
  23
12005214.38
  33
0.00
  0
3DFACE
  8
mg_to_dxf
  62
2
  10
-35400351.64
  20
12005116.93
  30
0.00
  11
-35400353.57
  21
12005114.63
  31
0.00
  12
-35400283.97
  22
12005056.17
  32
0.00
  13
-35400282.04
  23
12005058.47
  33
0.00
  0
3DFACE
  8
mg_to_dxf
  62
2
  10
-35400172.62
  20
12005057.06
  30
0.00
  11
-35400170.66
  21
12005054.79
  31
0.00
  12
-35400101.06
  22
12005114.65
  32
0.00
  13
-35400103.02
  23
12005116.92
  33
0.00
  0
3DFACE
  8
mg_to_dxf
  62
2
  10
-35404784.82
  20
12010433.47
  30
0.00
  11
-35404784.88
  21
12010430.47
  31
0.00
  12
-35404708.25
  22
12010429.05
  32
0.00
  13
-35404711.11
  23
12010432.10
  33
0.00
  0
3DFACE
  8
mg_to_dxf
  62
2
  10
-35404711.11
  20
12010432.10
  30
0.00
  11
-35404708.25
  21
12010429.05
  31
0.00
  12
-35404705.40
  22
12010493.15
  32
0.00
  13
-35404708.40
  23
12010493.29
  33
0.00
  0
3DFACE
  8
mg_to_dxf
  62
2
  10
-35404624.87
  20
12010361.08
  30
0.00
  11
-35404621.87
  21
12010358.08
  31
0.00
  12
-35404621.87
  22
12010496.00
  32
0.00
  13
-35404624.87
  23
12010496.00
  33
0.00
  0
3DFACE
  8
mg_to_dxf
  62
2
  10
-35404787.63
  20
12010361.08
  30
0.00
  11
-35404787.63
  21
12010358.08
  31
0.00
  12
-35404621.87
  22
12010358.08
  32
0.00
  13
-35404624.87
  23
12010361.08
  33
0.00
  0
3DFACE
  8
mg_to_dxf
  62
2
  10
-35404701.33
  20
12010290.09
  30
0.00
  11
-35404701.33
  21
12010287.09
  31
0.00
  12
-35404541.17
  22
12010287.09
  32
0.00
  13
-35404544.11
  23
12010290.09
  33
0.00
  0
3DFACE
  8
mg_to_dxf
  62
2
  10
-35404544.11
  20
12010290.09
  30
0.00
  11
-35404541.17
  21
12010287.09
  31
0.00
  12
-35404538.35
  22
12010422.19
  32
0.00
  13
-35404541.35
  23
12010422.26
  33
0.00
  0
3DFACE
  8
mg_to_dxf
  62
2
  10
-35404623.37
  20
12010219.10
  30
0.00
  11
-35404623.37
  21
12010216.10
  31
0.00
  12
-35404537.07
  22
12010216.10
  32
0.00
  13
-35404537.07
  23
12010219.10
  33
0.00
  0
3DFACE
  8
mg_to_dxf
  62
2
  10
-35404455.05
  20
12010288.59
  30
0.00
  11
-35404452.05
  21
12010288.59
  31
0.00
  12
-35404452.05
  22
12010349.84
  32
0.00
  13
-35404455.05
  23
12010349.84
  33
0.00
  0
ENDSEC
  0
EOF
