  0
SECTION
  2
HEADER
  9
$ACADVER
  1
AC1014
  9
$ACADMAINTVER
 70
     0
  9
$DWGCODEPAGE
  3
ANSI_1252
  9
$INSBASE
 10
0.0
 20
0.0
 30
0.0
  9
$EXTMIN
 10
-97.082846
 20
32.875063
 30
0.0
  9
$EXTMAX
 10
-97.001189
 20
32.915662
 30
0.0
  9
$LIMMIN
 10
-97.082846
 20
32.875063
  9
$LIMMAX
 10
-97.001189
 20
32.915662
  9
$ORTHOMODE
 70
     0
  9
$REGENMODE
 70
     1
  9
$FILLMODE
 70
     1
  9
$QTEXTMODE
 70
     0
  9
$MIRRTEXT
 70
     1
  9
$DRAGMODE
 70
     2
  9
$LTSCALE
 40
1.0
  9
$OSMODE
 70
     0
  9
$ATTMODE
 70
     1
  9
$TEXTSIZE
 40
0.2
  9
$TRACEWID
 40
0.05
  9
$TEXTSTYLE
  7
STANDARD
  9
$CLAYER
  8
0
  9
$CELTYPE
  6
CONTINUOUS
  9
$CECOLOR
 62
   256
  9
$CELTSCALE
 40
1.0
  9
$DELOBJ
 70
     1
  9
$DISPSILH
 70
     0
  9
$DIMSCALE
 40
1.0
  9
$DIMASZ
 40
0.18
  9
$DIMEXO
 40
0.0625
  9
$DIMDLI
 40
0.38
  9
$DIMRND
 40
0.0
  9
$DIMDLE
 40
0.0
  9
$DIMEXE
 40
0.18
  9
$DIMTP
 40
0.0
  9
$DIMTM
 40
0.0
  9
$DIMTXT
 40
0.18
  9
$DIMCEN
 40
0.09
  9
$DIMTSZ
 40
0.0
  9
$DIMTOL
 70
     0
  9
$DIMLIM
 70
     0
  9
$DIMTIH
 70
     1
  9
$DIMTOH
 70
     1
  9
$DIMSE1
 70
     0
  9
$DIMSE2
 70
     0
  9
$DIMTAD
 70
     0
  9
$DIMZIN
 70
     0
  9
$DIMBLK
  1

  9
$DIMASO
 70
     1
  9
$DIMSHO
 70
     1
  9
$DIMPOST
  1

  9
$DIMAPOST
  1

  9
$DIMALT
 70
     0
  9
$DIMALTD
 70
     2
  9
$DIMALTF
 40
25.4
  9
$DIMLFAC
 40
1.0
  9
$DIMTOFL
 70
     0
  9
$DIMTVP
 40
0.0
  9
$DIMTIX
 70
     0
  9
$DIMSOXD
 70
     0
  9
$DIMSAH
 70
     0
  9
$DIMBLK1
  1

  9
$DIMBLK2
  1

  9
$DIMSTYLE
  2
STANDARD
  9
$DIMCLRD
 70
     0
  9
$DIMCLRE
 70
     0
  9
$DIMCLRT
 70
     0
  9
$DIMTFAC
 40
1.0
  9
$DIMGAP
 40
0.09
  9
$DIMJUST
 70
     0
  9
$DIMSD1
 70
     0
  9
$DIMSD2
 70
     0
  9
$DIMTOLJ
 70
     1
  9
$DIMTZIN
 70
     0
  9
$DIMALTZ
 70
     0
  9
$DIMALTTZ
 70
     0
  9
$DIMFIT
 70
     3
  9
$DIMUPT
 70
     0
  9
$DIMUNIT
 70
     2
  9
$DIMDEC
 70
     4
  9
$DIMTDEC
 70
     4
  9
$DIMALTU
 70
     2
  9
$DIMALTTD
 70
     2
  9
$DIMTXSTY
  7
STANDARD
  9
$DIMAUNIT
 70
     0
  9
$LUNITS
 70
     2
  9
$LUPREC
 70
     4
  9
$SKETCHINC
 40
0.1
  9
$FILLETRAD
 40
0.0
  9
$AUNITS
 70
     0
  9
$AUPREC
 70
     0
  9
$MENU
  1
acad
  9
$ELEVATION
 40
0.0
  9
$PELEVATION
 40
0.0
  9
$THICKNESS
 40
0.0
  9
$LIMCHECK
 70
     0
  9
$BLIPMODE
 70
     1
  9
$CHAMFERA
 40
0.0
  9
$CHAMFERB
 40
0.0
  9
$CHAMFERC
 40
0.0
  9
$CHAMFERD
 40
0.0
  9
$SKPOLY
 70
     0
  9
$TDCREATE
 40
2454559.683379630
  9
$TDUPDATE
 40
2454559.683379630
  9
$TDINDWG
 40
0.0000000000
  9
$TDUSRTIMER
 40
0.0000000000
  9
$USRTIMER
 70
     1
  9
$ANGBASE
 50
0.0
  9
$ANGDIR
 70
     0
  9
$PDMODE
 70
     0
  9
$PDSIZE
 40
0.0
  9
$PLINEWID
 40
0.0
  9
$COORDS
 70
     1
  9
$SPLFRAME
 70
     0
  9
$SPLINETYPE
 70
     6
  9
$SPLINESEGS
 70
     8
  9
$ATTDIA
 70
     0
  9
$ATTREQ
 70
     1
  9
$HANDLING
 70
     1
  9
$HANDSEED
  5
1AE
  9
$SURFTAB1
 70
     6
  9
$SURFTAB2
 70
     6
  9
$SURFTYPE
 70
     6
  9
$SURFU
 70
     6
  9
$SURFV
 70
     6
  9
$UCSNAME
  2

  9
$UCSORG
 10
0.0
 20
0.0
 30
0.0
  9
$UCSXDIR
 10
1.0
 20
0.0
 30
0.0
  9
$UCSYDIR
 10
0.0
 20
1.0
 30
0.0
  9
$PUCSNAME
  2

  9
$PUCSORG
 10
0.0
 20
0.0
 30
0.0
  9
$PUCSXDIR
 10
1.0
 20
0.0
 30
0.0
  9
$PUCSYDIR
 10
0.0
 20
1.0
 30
0.0
  9
$USERI1
 70
     0
  9
$USERI2
 70
     0
  9
$USERI3
 70
     0
  9
$USERI4
 70
     0
  9
$USERI5
 70
     0
  9
$USERR1
 40
0.0
  9
$USERR2
 40
0.0
  9
$USERR3
 40
0.0
  9
$USERR4
 40
0.0
  9
$USERR5
 40
0.0
  9
$WORLDVIEW
 70
     1
  9
$SHADEDGE
 70
     3
  9
$SHADEDIF
 70
    70
  9
$TILEMODE
 70
     1
  9
$MAXACTVP
 70
    16
  9
$PINSBASE
 10
0.0
 20
0.0
 30
0.0
  9
$PLIMCHECK
 70
     0
  9
$PEXTMIN
 10
1.000000E+20
 20
1.000000E+20
 30
1.000000E+20
  9
$PEXTMAX
 10
-1.000000E+20
 20
-1.000000E+20
 30
-1.000000E+20
  9
$PLIMMIN
 10
0.0
 20
0.0
  9
$PLIMMAX
 10
12.0
 20
9.0
  9
$UNITMODE
 70
     0
  9
$VISRETAIN
 70
     0
  9
$PLINEGEN
 70
     1
  9
$PSLTSCALE
 70
     0
  9
$TREEDEPTH
 70
  3020
  9
$PICKSTYLE
 70
     1
  9
$CMLSTYLE
  2
STANDARD
  9
$CMLJUST
 70
     0
  9
$CMLSCALE
 40
1.0
  9
$PROXYGRAPHICS
 70
     0
  9
$MEASUREMENT
 70
     0
  0
ENDSEC
  0
SECTION
  2
CLASSES
  0
CLASS
  1
LWPOLYLINE
  2
AcDbPolyline
  3
"AutoCAD"
 90
        0
280
     0
281
     1
  0
CLASS
  1
IMAGE
  2
AcDbRasterImage
  3
ISM
 90
      127
280
     0
281
     1
  0
CLASS
  1
OLE2FRAME
  2
AcDbOle2Frame
  3
""
 90
        0
280
     0
281
     1
  0
CLASS
  1
HATCH
  2
AcDbHatch
  3
"ACAD_SEDONA"
 90
        0
280
     0
281
     1
  0
CLASS
  1
DICTIONARYVAR
  2
AcDbDictionaryVar
  3
"AutoCAD"
 90
        0
280
     0
281
     0
  0
CLASS
  1
RASTERVARIABLES
  2
AcDbRasterVariables
  3
ISM
 90
        0
280
     0
281
     0
  0
CLASS
  1
IMAGEDEF
  2
AcDbRasterImageDef
  3
ISM
 90
        0
280
     0
281
     0
  0
CLASS
  1
IMAGEDEF_REACTOR
  2
AcDbRasterImageDefReactor
  3
ISM
 90
        1
280
     0
281
     0
  0
CLASS
  1
IDBUFFER
  2
AcDbIdBuffer
  3
"Acad"
 90
        0
280
     0
281
     0
  0
CLASS
  1
SPATIAL_FILTER
  2
AcDbSpatialFilter
  3
"Acad"
 90
        0
280
     0
281
     0
  0
CLASS
  1
XRECORD
  2
AcDbXrecord
  3
"<Built In>"
 90
        0
280
     0
281
     0
  0
CLASS
  1
SORTENTSTABLE
  2
AcDbSortentsTable
  3
"AutoCAD"
 90
        0
280
     0
281
     0
  0
CLASS
  1
LAYER_INDEX
  2
AcDbLayerIndex
  3
"Acad"
 90
        0
280
     0
281
     0
  0
CLASS
  1
SPATIAL_INDEX
  2
AcDbSpatialIndex
  3
"Acad"
 90
        0
280
     0
281
     0
  0
CLASS
  1
OBJECT_PTR
  2
CAseDLPNTableRecord
  3
"ASE-LPNTableRecord"
 90
        1
280
     0
281
     0
  0
CLASS
  1
LAYOUT
  2
AcDbLayout
  3
"AutoCAD 2000"
 90
        0
280
     0
281
     0
  0
CLASS
  1
PLOTSETTINGS
  2
AcDbPlotSettings
  3
"AutoCAD 2000"
 90
        0
280
     0
281
     0
  0
CLASS
  1
ACDBDICTIONARYWDFLT
  2
AcDbDictionaryWithDefault
  3
"AutoCAD 2000"
 90
        0
280
     0
281
     0
  0
CLASS
  1
ACDBPLACEHOLDER
  2
AcDbPlaceHolder
  3
"AutoCAD 2000"
 90
        0
280
     0
281
     0
  0
ENDSEC
  0
SECTION
  2
TABLES
  0
TABLE
  2
VPORT
  5
7
100
AcDbSymbolTable
 70
     1
  0
VPORT
  5
15
100
AcDbSymbolTableRecord
100
AcDbViewportTableRecord
  2
*ACTIVE
 70
     0
 10
0.0
 20
0.0
 11
1.0
 21
1.0
 12
-97.062432
 22
32.895363
 13
0.0
 23
0.0
 14
1.0
 24
1.0
 15
0.0
 25
0.0
 16
0.0
 26
0.0
 36
1.0
 17
0.0
 27
0.0
 37
0.0
 40
0.040599
 41
0.688564
 42
50.0
 43
0.0
 44
0.0
 50
0.0
 51
0.0
 71
     0
 72
   100
 73
     1
 74
     1
 75
     0
 76
     0
 77
     0
 78
     0
  0
ENDTAB
  0
TABLE
  2
LTYPE
  5
4
100
AcDbSymbolTable
 70
     3
  0
LTYPE
  5
11
100
AcDbSymbolTableRecord
100
AcDbLinetypeTableRecord
  2
BYBLOCK
 70
    64
  3

 72
    65
 73
     0
 40
0.0
  0
LTYPE
  5
12
100
AcDbSymbolTableRecord
100
AcDbLinetypeTableRecord
  2
BYLAYER
 70
    64
  3

 72
    65
 73
     0
 40
0.0
  0
LTYPE
  5
13
100
AcDbSymbolTableRecord
100
AcDbLinetypeTableRecord
  2
CONTINUOUS
 70
    64
  3
Solid line
 72
    65
 73
     0
 40
0.0
  0
ENDTAB
  0
TABLE
  2
LAYER
  5
2
100
AcDbSymbolTable
 70
     2
  0
LAYER
  5
14
100
AcDbSymbolTableRecord
100
AcDbLayerTableRecord
  2
0
 70
     0
 62
     7
  6
CONTINUOUS
  0
LAYER
  5
1D
100
AcDbSymbolTableRecord
100
AcDbLayerTableRecord
  2
DFW_TAXIWAY_GUIDANCE_LINE
 70
     0
 62
    40
  6
CONTINUOUS
  0
ENDTAB
  0
TABLE
  2
STYLE
  5
3
100
AcDbSymbolTable
 70
     1
  0
STYLE
  5
17
100
AcDbSymbolTableRecord
100
AcDbTextStyleTableRecord
  2
STANDARD
 70
     0
 40
0.0
 41
1.0
 50
0.0
 71
     0
 42
0.0
  3
txt
  4

  0
ENDTAB
  0
TABLE
  2
VIEW
  5
5
100
AcDbSymbolTable
 70
     0
  0
ENDTAB
  0
TABLE
  2
UCS
  5
6
100
AcDbSymbolTable
 70
     0
  0
ENDTAB
  0
TABLE
  2
APPID
  5
8
100
AcDbSymbolTable
 70
     1
  0
APPID
  5
16
100
AcDbSymbolTableRecord
100
AcDbRegAppTableRecord
  2
ACAD
 70
     0
  0
ENDTAB
  0
TABLE
  2
DIMSTYLE
  5
9
100
AcDbSymbolTable
 70
     1
  0
DIMSTYLE
105
18
100
AcDbSymbolTableRecord
100
AcDbDimStyleTableRecord
  2
STANDARD
 70
     0
  3

  4

  5

  6

  7

 40
1.0
 41
0.18
 42
0.0625
 43
0.38
 44
0.18
 45
0.0
 46
0.0
 47
0.0
 48
0.0
 71
     0
 72
     0
 73
     1
 74
     1
 75
     0
 76
     0
 77
     0
 78
     0
140
0.18
141
0.09
142
0.0
143
25.4
144
1.0
145
0.0
146
1.0
147
0.09
170
     0
171
     2
172
     0
173
     0
174
     0
175
     0
176
     0
177
     0
178
     0
270
     2
271
     4
272
     4
273
     2
274
     2
275
     0
280
     0
281
     0
282
     0
283
     1
284
     0
285
     0
286
     0
287
     3
288
     0
340
17
  0
ENDTAB
  0
TABLE
  2
BLOCK_RECORD
  5
1
100
AcDbSymbolTable
 70
     0
  0
BLOCK_RECORD
  5
A
100
AcDbSymbolTableRecord
100
AcDbBlockTableRecord
  2
*MODEL_SPACE
  0
BLOCK_RECORD
  5
B
100
AcDbSymbolTableRecord
100
AcDbBlockTableRecord
  2
*PAPER_SPACE
  0
ENDTAB
  0
ENDSEC
  0
SECTION
  2
BLOCKS
  0
BLOCK
  5
D
100
AcDbEntity
  8
0
100
AcDbBlockBegin
  2
*MODEL_SPACE
 70
     0
 10
0.0
 20
0.0
 30
0.0
  3
*MODEL_SPACE
  1

  0
ENDBLK
  5
E
100
AcDbEntity
  8
0
100
AcDbBlockEnd
  0
BLOCK
  5
F
100
AcDbEntity
 67
     1
  8
0
100
AcDbBlockBegin
  2
*PAPER_SPACE
 70
     0
 10
0.0
 20
0.0
 30
0.0
  3
*PAPER_SPACE
  1

  0
ENDBLK
  5
10
100
AcDbEntity
 67
     1
  8
0
100
AcDbBlockEnd
  0
ENDSEC
  0
SECTION
  2
ENTITIES
  0
LWPOLYLINE
  5
1E
100
AcDbEntity
  8
DFW_TAXIWAY_GUIDANCE_LINE
 62
    91
100
AcDbPolyline
 90
        4
 70
     0
 10
-97.033122
 20
32.903985
 10
-97.033288
 20
32.903984
 10
-97.033696
 20
32.903985
 10
-97.033715
 20
32.903986
  0
LWPOLYLINE
  5
1F
100
AcDbEntity
  8
DFW_TAXIWAY_GUIDANCE_LINE
 62
    91
100
AcDbPolyline
 90
        2
 70
     0
 10
-97.035427
 20
32.90788
 10
-97.035011
 20
32.90815
  0
LWPOLYLINE
  5
20
100
AcDbEntity
  8
DFW_TAXIWAY_GUIDANCE_LINE
 62
    91
100
AcDbPolyline
 90
        2
 70
     0
 10
-97.047613
 20
32.90542
 10
-97.047455
 20
32.905418
  0
LWPOLYLINE
  5
21
100
AcDbEntity
  8
DFW_TAXIWAY_GUIDANCE_LINE
 62
    91
100
AcDbPolyline
 90
        2
 70
     0
 10
-97.047621
 20
32.904043
 10
-97.047462
 20
32.904042
  0
LWPOLYLINE
  5
22
100
AcDbEntity
  8
DFW_TAXIWAY_GUIDANCE_LINE
 62
    91
100
AcDbPolyline
 90
        8
 70
     0
 10
-97.058345
 20
32.913043
 10
-97.058164
 20
32.913044
 10
-97.05784
 20
32.913042
 10
-97.057846
 20
32.912703
 10
-97.057843
 20
32.911903
 10
-97.057857
 20
32.910576
 10
-97.057858
 20
32.909731
 10
-97.057904
 20
32.900601
  0
LWPOLYLINE
  5
23
100
AcDbEntity
  8
DFW_TAXIWAY_GUIDANCE_LINE
 62
    91
100
AcDbPolyline
 90
        3
 70
     0
 10
-97.021141
 20
32.912643
 10
-97.020881
 20
32.912863
 10
-97.020092
 20
32.913521
  0
LWPOLYLINE
  5
24
100
AcDbEntity
  8
DFW_TAXIWAY_GUIDANCE_LINE
 62
    91
100
AcDbPolyline
 90
        3
 70
     0
 10
-97.02028
 20
32.91191
 10
-97.020051
 20
32.912109
 10
-97.019352
 20
32.912692
  0
LWPOLYLINE
  5
25
100
AcDbEntity
  8
DFW_TAXIWAY_GUIDANCE_LINE
 62
    91
100
AcDbPolyline
 90
        7
 70
     0
 10
-97.028014
 20
32.901061
 10
-97.027755
 20
32.900698
 10
-97.026811
 20
32.899302
 10
-97.026666
 20
32.899071
 10
-97.026569
 20
32.898894
 10
-97.02642
 20
32.898574
 10
-97.026309
 20
32.898295
  0
LWPOLYLINE
  5
26
100
AcDbEntity
  8
DFW_TAXIWAY_GUIDANCE_LINE
 62
    91
100
AcDbPolyline
 90
        9
 70
     0
 10
-97.02799
 20
32.904652
 10
-97.027754
 20
32.904303
 10
-97.02754
 20
32.90398
 10
-97.026825
 20
32.902929
 10
-97.026649
 20
32.90264
 10
-97.026554
 20
32.902474
 10
-97.02649
 20
32.902343
 10
-97.026365
 20
32.902055
 10
-97.026292
 20
32.901858
  0
LWPOLYLINE
  5
27
100
AcDbEntity
  8
DFW_TAXIWAY_GUIDANCE_LINE
 62
    91
100
AcDbPolyline
 90
        3
 70
     0
 10
-97.026273
 20
32.904551
 10
-97.026361
 20
32.904598
 10
-97.026465
 20
32.904646
  0
LWPOLYLINE
  5
28
100
AcDbEntity
  8
DFW_TAXIWAY_GUIDANCE_LINE
 62
    91
100
AcDbPolyline
 90
        7
 70
     0
 10
-97.029625
 20
32.904655
 10
-97.02919
 20
32.90466
 10
-97.028587
 20
32.904655
 10
-97.02799
 20
32.904655
 10
-97.027354
 20
32.904652
 10
-97.026834
 20
32.904649
 10
-97.026273
 20
32.904644
  0
LWPOLYLINE
  5
29
100
AcDbEntity
  8
DFW_TAXIWAY_GUIDANCE_LINE
 62
    91
100
AcDbPolyline
 90
       10
 70
     0
 10
-97.02797
 20
32.90866
 10
-97.027929
 20
32.908781
 10
-97.027886
 20
32.908838
 10
-97.027831
 20
32.908894
 10
-97.027781
 20
32.908927
 10
-97.027723
 20
32.908957
 10
-97.027665
 20
32.908979
 10
-97.02762
 20
32.908995
 10
-97.027564
 20
32.909003
 10
-97.027465
 20
32.909015
  0
LWPOLYLINE
  5
2A
100
AcDbEntity
  8
DFW_TAXIWAY_GUIDANCE_LINE
 62
    91
100
AcDbPolyline
 90
       11
 70
     0
 10
-97.027392
 20
32.909015
 10
-97.027503
 20
32.90903
 10
-97.027598
 20
32.909059
 10
-97.02767
 20
32.909091
 10
-97.027752
 20
32.90914
 10
-97.027811
 20
32.909188
 10
-97.027859
 20
32.90924
 10
-97.027902
 20
32.909297
 10
-97.027932
 20
32.90935
 10
-97.027952
 20
32.909403
 10
-97.027969
 20
32.90944
  0
LWPOLYLINE
  5
2B
100
AcDbEntity
  8
DFW_TAXIWAY_GUIDANCE_LINE
 62
    91
100
AcDbPolyline
 90
       10
 70
     0
 10
-97.028493
 20
32.909017
 10
-97.028386
 20
32.909035
 10
-97.028293
 20
32.909069
 10
-97.028217
 20
32.909114
 10
-97.028153
 20
32.909168
 10
-97.028097
 20
32.90922
 10
-97.028048
 20
32.909283
 10
-97.028009
 20
32.909339
 10
-97.027986
 20
32.909389
 10
-97.027969
 20
32.909448
  0
LWPOLYLINE
  5
2C
100
AcDbEntity
  8
DFW_TAXIWAY_GUIDANCE_LINE
 62
    91
100
AcDbPolyline
 90
        5
 70
     0
 10
-97.026255
 20
32.908915
 10
-97.026287
 20
32.908936
 10
-97.026351
 20
32.908962
 10
-97.026419
 20
32.908986
 10
-97.026492
 20
32.909008
  0
LWPOLYLINE
  5
2D
100
AcDbEntity
  8
DFW_TAXIWAY_GUIDANCE_LINE
 62
    91
100
AcDbPolyline
 90
        7
 70
     0
 10
-97.029602
 20
32.909018
 10
-97.029251
 20
32.909018
 10
-97.028599
 20
32.909017
 10
-97.027969
 20
32.909015
 10
-97.027309
 20
32.909015
 10
-97.026859
 20
32.909008
 10
-97.026255
 20
32.909008
  0
LWPOLYLINE
  5
2E
100
AcDbEntity
  8
DFW_TAXIWAY_GUIDANCE_LINE
 62
    91
100
AcDbPolyline
 90
        3
 70
     0
 10
-97.029596
 20
32.910006
 10
-97.029541
 20
32.91003
 10
-97.029462
 20
32.910052
  0
LWPOLYLINE
  5
2F
100
AcDbEntity
  8
DFW_TAXIWAY_GUIDANCE_LINE
 62
    91
100
AcDbPolyline
 90
        9
 70
     0
 10
-97.027969
 20
32.909582
 10
-97.02799
 20
32.909682
 10
-97.028024
 20
32.909757
 10
-97.02807
 20
32.909828
 10
-97.028137
 20
32.909892
 10
-97.028198
 20
32.909934
 10
-97.028256
 20
32.909971
 10
-97.028385
 20
32.910024
 10
-97.028457
 20
32.910047
  0
LWPOLYLINE
  5
30
100
AcDbEntity
  8
DFW_TAXIWAY_GUIDANCE_LINE
 62
    91
100
AcDbPolyline
 90
       10
 70
     0
 10
-97.027969
 20
32.909577
 10
-97.027944
 20
32.909678
 10
-97.027912
 20
32.909742
 10
-97.027877
 20
32.909807
 10
-97.027833
 20
32.909863
 10
-97.027779
 20
32.909914
 10
-97.027705
 20
32.909955
 10
-97.027623
 20
32.909996
 10
-97.027553
 20
32.910016
 10
-97.02743
 20
32.910045
  0
LWPOLYLINE
  5
31
100
AcDbEntity
  8
DFW_TAXIWAY_GUIDANCE_LINE
 62
    91
100
AcDbPolyline
 90
        2
 70
     0
 10
-97.027969
 20
32.90953
 10
-97.027968
 20
32.910046
  0
LWPOLYLINE
  5
32
100
AcDbEntity
  8
DFW_TAXIWAY_GUIDANCE_LINE
 62
    91
100
AcDbPolyline
 90
        5
 70
     0
 10
-97.026249
 20
32.909958
 10
-97.026305
 20
32.909983
 10
-97.026361
 20
32.910003
 10
-97.026414
 20
32.91002
 10
-97.02651
 20
32.910042
  0
LWPOLYLINE
  5
33
100
AcDbEntity
  8
DFW_TAXIWAY_GUIDANCE_LINE
 62
    91
100
AcDbPolyline
 90
        6
 70
     0
 10
-97.029596
 20
32.910053
 10
-97.029067
 20
32.910048
 10
-97.028593
 20
32.910047
 10
-97.027286
 20
32.910044
 10
-97.026739
 20
32.910041
 10
-97.026248
 20
32.910043
  0
LWPOLYLINE
  5
34
100
AcDbEntity
  8
DFW_TAXIWAY_GUIDANCE_LINE
 62
    91
100
AcDbPolyline
 90
        3
 70
     0
 10
-97.028006
 20
32.900659
 10
-97.028015
 20
32.901083
 10
-97.027969
 20
32.90953
  0
LWPOLYLINE
  5
35
100
AcDbEntity
  8
DFW_TAXIWAY_GUIDANCE_LINE
 62
    91
100
AcDbPolyline
 90
        5
 70
     0
 10
-97.026567
 20
32.901075
 10
-97.026486
 20
32.901085
 10
-97.026418
 20
32.901103
 10
-97.026368
 20
32.901124
 10
-97.026297
 20
32.901162
  0
LWPOLYLINE
  5
36
100
AcDbEntity
  8
DFW_TAXIWAY_GUIDANCE_LINE
 62
    91
100
AcDbPolyline
 90
        6
 70
     0
 10
-97.026298
 20
32.900982
 10
-97.026331
 20
32.901003
 10
-97.026379
 20
32.901025
 10
-97.026428
 20
32.90104
 10
-97.026477
 20
32.901055
 10
-97.026568
 20
32.901075
  0
LWPOLYLINE
  5
37
100
AcDbEntity
  8
DFW_TAXIWAY_GUIDANCE_LINE
 62
    91
100
AcDbPolyline
 90
        6
 70
     0
 10
-97.029643
 20
32.901091
 10
-97.02925
 20
32.90109
 10
-97.028618
 20
32.901085
 10
-97.027266
 20
32.901081
 10
-97.026714
 20
32.901076
 10
-97.026298
 20
32.901074
  0
LWPOLYLINE
  5
38
100
AcDbEntity
  8
DFW_TAXIWAY_GUIDANCE_LINE
 62
    91
100
AcDbPolyline
 90
        4
 70
     0
 10
-97.028027
 20
32.89788
 10
-97.028022
 20
32.89878
 10
-97.028003
 20
32.90032
 10
-97.028006
 20
32.900659
  0
LWPOLYLINE
  5
39
100
AcDbEntity
  8
DFW_TAXIWAY_GUIDANCE_LINE
 62
    91
100
AcDbPolyline
 90
       11
 70
     0
 10
-97.011571
 20
32.897885
 10
-97.011513
 20
32.898008
 10
-97.01148
 20
32.898059
 10
-97.011441
 20
32.898096
 10
-97.011402
 20
32.898131
 10
-97.011365
 20
32.898156
 10
-97.011329
 20
32.898174
 10
-97.011298
 20
32.898187
 10
-97.011258
 20
32.898199
 10
-97.011184
 20
32.898218
 10
-97.011138
 20
32.898224
  0
LWPOLYLINE
  5
3A
100
AcDbEntity
  8
DFW_TAXIWAY_GUIDANCE_LINE
 62
    91
100
AcDbPolyline
 90
        2
 70
     0
 10
-97.011576
 20
32.89749
 10
-97.011324
 20
32.89711
  0
LWPOLYLINE
  5
3B
100
AcDbEntity
  8
DFW_TAXIWAY_GUIDANCE_LINE
 62
    91
100
AcDbPolyline
 90
        2
 70
     0
 10
-97.011017
 20
32.897484
 10
-97.011576
 20
32.89749
  0
LWPOLYLINE
  5
3C
100
AcDbEntity
  8
DFW_TAXIWAY_GUIDANCE_LINE
 62
    91
100
AcDbPolyline
 90
       12
 70
     0
 10
-97.011712
 20
32.898404
 10
-97.011647
 20
32.898345
 10
-97.011583
 20
32.898306
 10
-97.011522
 20
32.898276
 10
-97.011448
 20
32.898249
 10
-97.011392
 20
32.898234
 10
-97.01134
 20
32.898225
 10
-97.010243
 20
32.898218
 10
-97.010149
 20
32.898202
 10
-97.010096
 20
32.898181
 10
-97.010049
 20
32.898162
 10
-97.010022
 20
32.898152
  0
LWPOLYLINE
  5
3D
100
AcDbEntity
  8
DFW_TAXIWAY_GUIDANCE_LINE
 62
    91
100
AcDbPolyline
 90
       10
 70
     0
 10
-97.01158
 20
32.897027
 10
-97.011573
 20
32.897801
 10
-97.011569
 20
32.898001
 10
-97.01158
 20
32.898104
 10
-97.011603
 20
32.898189
 10
-97.011625
 20
32.898262
 10
-97.011656
 20
32.898325
 10
-97.011702
 20
32.898393
 10
-97.011758
 20
32.898454
 10
-97.012515
 20
32.899389
  0
LWPOLYLINE
  5
3E
100
AcDbEntity
  8
DFW_TAXIWAY_GUIDANCE_LINE
 62
    91
100
AcDbPolyline
 90
        8
 70
     0
 10
-97.010025
 20
32.897416
 10
-97.010065
 20
32.897434
 10
-97.010111
 20
32.897452
 10
-97.010157
 20
32.897466
 10
-97.010208
 20
32.897479
 10
-97.010498
 20
32.897486
 10
-97.010775
 20
32.897489
 10
-97.011017
 20
32.897484
  0
LWPOLYLINE
  5
3F
100
AcDbEntity
  8
DFW_TAXIWAY_GUIDANCE_LINE
 62
    91
100
AcDbPolyline
 90
       15
 70
     0
 10
-97.022129
 20
32.90899
 10
-97.022223
 20
32.909003
 10
-97.022295
 20
32.909025
 10
-97.022387
 20
32.909059
 10
-97.022461
 20
32.909098
 10
-97.022517
 20
32.909141
 10
-97.022571
 20
32.909192
 10
-97.022616
 20
32.909243
 10
-97.022654
 20
32.909292
 10
-97.02268
 20
32.909341
 10
-97.022704
 20
32.909394
 10
-97.022736
 20
32.909512
 10
-97.022739
 20
32.909554
 10
-97.022741
 20
32.909581
 10
-97.022737
 20
32.909607
  0
LWPOLYLINE
  5
40
100
AcDbEntity
  8
DFW_TAXIWAY_GUIDANCE_LINE
 62
    91
100
AcDbPolyline
 90
       11
 70
     0
 10
-97.023103
 20
32.911002
 10
-97.023036
 20
32.911033
 10
-97.022975
 20
32.911057
 10
-97.022906
 20
32.911075
 10
-97.022827
 20
32.911087
 10
-97.02276
 20
32.911091
 10
-97.022702
 20
32.911091
 10
-97.022626
 20
32.911079
 10
-97.022551
 20
32.911057
 10
-97.02246
 20
32.911018
 10
-97.022394
 20
32.910986
  0
LWPOLYLINE
  5
41
100
AcDbEntity
  8
DFW_TAXIWAY_GUIDANCE_LINE
 62
    91
100
AcDbPolyline
 90
       11
 70
     0
 10
-97.022393
 20
32.910985
 10
-97.022437
 20
32.911041
 10
-97.022473
 20
32.911109
 10
-97.022498
 20
32.911175
 10
-97.022513
 20
32.911235
 10
-97.022518
 20
32.91129
 10
-97.022516
 20
32.911362
 10
-97.022502
 20
32.911426
 10
-97.022469
 20
32.911491
 10
-97.022423
 20
32.911551
 10
-97.022378
 20
32.911612
  0
LWPOLYLINE
  5
42
100
AcDbEntity
  8
DFW_TAXIWAY_GUIDANCE_LINE
 62
    91
100
AcDbPolyline
 90
        9
 70
     0
 10
-97.022258
 20
32.91087
 10
-97.022203
 20
32.910801
 10
-97.022171
 20
32.910732
 10
-97.022151
 20
32.910667
 10
-97.022138
 20
32.910589
 10
-97.02214
 20
32.910515
 10
-97.022155
 20
32.910448
 10
-97.022189
 20
32.910365
 10
-97.022257
 20
32.910264
  0
LWPOLYLINE
  5
43
100
AcDbEntity
  8
DFW_TAXIWAY_GUIDANCE_LINE
 62
    91
100
AcDbPolyline
 90
       12
 70
     0
 10
-97.021513
 20
32.910887
 10
-97.02158
 20
32.910845
 10
-97.021644
 20
32.910808
 10
-97.021695
 20
32.910791
 10
-97.021745
 20
32.910782
 10
-97.021803
 20
32.910773
 10
-97.021922
 20
32.910771
 10
-97.021978
 20
32.910774
 10
-97.02204
 20
32.910784
 10
-97.022123
 20
32.910811
 10
-97.022221
 20
32.91086
 10
-97.022299
 20
32.910905
  0
LWPOLYLINE
  5
44
100
AcDbEntity
  8
DFW_TAXIWAY_GUIDANCE_LINE
 62
    91
100
AcDbPolyline
 90
       12
 70
     0
 10
-97.021461
 20
32.910192
 10
-97.021526
 20
32.910255
 10
-97.021582
 20
32.910319
 10
-97.021615
 20
32.910397
 10
-97.021628
 20
32.910454
 10
-97.021638
 20
32.910517
 10
-97.02164
 20
32.910568
 10
-97.021632
 20
32.910633
 10
-97.02162
 20
32.910696
 10
-97.021601
 20
32.910748
 10
-97.02156
 20
32.910813
 10
-97.021513
 20
32.910888
  0
LWPOLYLINE
  5
45
100
AcDbEntity
  8
DFW_TAXIWAY_GUIDANCE_LINE
 62
    91
100
AcDbPolyline
 90
       12
 70
     0
 10
-97.022323
 20
32.910206
 10
-97.022268
 20
32.910241
 10
-97.022209
 20
32.910273
 10
-97.022146
 20
32.910299
 10
-97.02206
 20
32.910318
 10
-97.021972
 20
32.910335
 10
-97.021894
 20
32.910339
 10
-97.021806
 20
32.910333
 10
-97.021722
 20
32.910316
 10
-97.021645
 20
32.91029
 10
-97.021548
 20
32.910245
 10
-97.021461
 20
32.910192
  0
LWPOLYLINE
  5
46
100
AcDbEntity
  8
DFW_TAXIWAY_GUIDANCE_LINE
 62
    91
100
AcDbPolyline
 90
        5
 70
     0
 10
-97.020892
 20
32.911402
 10
-97.020839
 20
32.911435
 10
-97.020797
 20
32.911459
 10
-97.020755
 20
32.911478
 10
-97.020696
 20
32.911497
  0
LWPOLYLINE
  5
47
100
AcDbEntity
  8
DFW_TAXIWAY_GUIDANCE_LINE
 62
    91
100
AcDbPolyline
 90
        7
 70
     0
 10
-97.019711
 20
32.908528
 10
-97.019609
 20
32.908493
 10
-97.019537
 20
32.908465
 10
-97.019464
 20
32.908429
 10
-97.019389
 20
32.908388
 10
-97.019307
 20
32.908341
 10
-97.019219
 20
32.908281
  0
LWPOLYLINE
  5
48
100
AcDbEntity
  8
DFW_TAXIWAY_GUIDANCE_LINE
 62
    91
100
AcDbPolyline
 90
        4
 70
     0
 10
-97.016317
 20
32.90421
 10
-97.016623
 20
32.904603
 10
-97.016664
 20
32.904638
 10
-97.016906
 20
32.904855
  0
LWPOLYLINE
  5
49
100
AcDbEntity
  8
DFW_TAXIWAY_GUIDANCE_LINE
 62
    91
100
AcDbPolyline
 90
       15
 70
     0
 10
-97.016011
 20
32.904556
 10
-97.015883
 20
32.90456
 10
-97.015808
 20
32.904578
 10
-97.015743
 20
32.904602
 10
-97.015684
 20
32.904633
 10
-97.015628
 20
32.904677
 10
-97.015584
 20
32.904719
 10
-97.015551
 20
32.904765
 10
-97.015526
 20
32.904814
 10
-97.015512
 20
32.904854
 10
-97.0155
 20
32.904908
 10
-97.015497
 20
32.90497
 10
-97.015505
 20
32.905031
 10
-97.015526
 20
32.905087
 10
-97.015567
 20
32.905167
  0
LWPOLYLINE
  5
4A
100
AcDbEntity
  8
DFW_TAXIWAY_GUIDANCE_LINE
 62
    91
100
AcDbPolyline
 90
       15
 70
     0
 10
-97.017067
 20
32.904609
 10
-97.016982
 20
32.904598
 10
-97.016905
 20
32.904583
 10
-97.016835
 20
32.904564
 10
-97.016777
 20
32.904546
 10
-97.016731
 20
32.904529
 10
-97.016578
 20
32.904448
 10
-97.016478
 20
32.904379
 10
-97.0164
 20
32.904309
 10
-97.016324
 20
32.904221
 10
-97.016234
 20
32.904093
 10
-97.016107
 20
32.903942
 10
-97.015715
 20
32.90342
 10
-97.015281
 20
32.902856
 10
-97.012515
 20
32.899389
  0
LWPOLYLINE
  5
4B
100
AcDbEntity
  8
DFW_TAXIWAY_GUIDANCE_LINE
 62
    91
100
AcDbPolyline
 90
       19
 70
     0
 10
-97.022077
 20
32.90899
 10
-97.021978
 20
32.908976
 10
-97.021881
 20
32.908952
 10
-97.021762
 20
32.908916
 10
-97.021659
 20
32.908869
 10
-97.021558
 20
32.908809
 10
-97.021479
 20
32.908745
 10
-97.02115
 20
32.908467
 10
-97.021019
 20
32.908352
 10
-97.020776
 20
32.908143
 10
-97.018059
 20
32.905834
 10
-97.017457
 20
32.905315
 10
-97.016793
 20
32.904761
 10
-97.016729
 20
32.904715
 10
-97.016676
 20
32.904692
 10
-97.016643
 20
32.904672
 10
-97.016545
 20
32.904634
 10
-97.016462
 20
32.904609
 10
-97.016361
 20
32.904583
  0
LWPOLYLINE
  5
4C
100
AcDbEntity
  8
DFW_TAXIWAY_GUIDANCE_LINE
 62
    91
100
AcDbPolyline
 90
       10
 70
     0
 10
-97.022838
 20
32.90857
 10
-97.022823
 20
32.908615
 10
-97.022783
 20
32.908682
 10
-97.022738
 20
32.908752
 10
-97.022696
 20
32.908802
 10
-97.022646
 20
32.90885
 10
-97.022595
 20
32.908889
 10
-97.022532
 20
32.908926
 10
-97.022373
 20
32.908974
 10
-97.022259
 20
32.908991
  0
LWPOLYLINE
  5
4D
100
AcDbEntity
  8
DFW_TAXIWAY_GUIDANCE_LINE
 62
    91
100
AcDbPolyline
 90
        9
 70
     0
 10
-97.023321
 20
32.908995
 10
-97.023227
 20
32.908969
 10
-97.02313
 20
32.908922
 10
-97.023057
 20
32.908876
 10
-97.022987
 20
32.908823
 10
-97.022933
 20
32.908765
 10
-97.022894
 20
32.908704
 10
-97.022874
 20
32.908654
 10
-97.022838
 20
32.908569
  0
LWPOLYLINE
  5
4E
100
AcDbEntity
  8
DFW_TAXIWAY_GUIDANCE_LINE
 62
    91
100
AcDbPolyline
 90
        8
 70
     0
 10
-97.023329
 20
32.908995
 10
-97.023221
 20
32.909026
 10
-97.023138
 20
32.909057
 10
-97.023057
 20
32.909093
 10
-97.022992
 20
32.909139
 10
-97.022932
 20
32.909187
 10
-97.022884
 20
32.909245
 10
-97.022814
 20
32.909356
  0
LWPOLYLINE
  5
4F
100
AcDbEntity
  8
DFW_TAXIWAY_GUIDANCE_LINE
 62
    91
100
AcDbPolyline
 90
       11
 70
     0
 10
-97.024056
 20
32.909441
 10
-97.024025
 20
32.909344
 10
-97.023995
 20
32.909281
 10
-97.02397
 20
32.909241
 10
-97.023932
 20
32.909196
 10
-97.023874
 20
32.909141
 10
-97.02381
 20
32.909096
 10
-97.023714
 20
32.909049
 10
-97.023637
 20
32.909022
 10
-97.02357
 20
32.909009
 10
-97.023495
 20
32.908998
  0
LWPOLYLINE
  5
50
100
AcDbEntity
  8
DFW_TAXIWAY_GUIDANCE_LINE
 62
    91
100
AcDbPolyline
 90
       10
 70
     0
 10
-97.024617
 20
32.909
 10
-97.024503
 20
32.909019
 10
-97.024418
 20
32.909045
 10
-97.024345
 20
32.909079
 10
-97.024273
 20
32.90912
 10
-97.024212
 20
32.90918
 10
-97.024159
 20
32.909238
 10
-97.024102
 20
32.909314
 10
-97.02407
 20
32.909376
 10
-97.024056
 20
32.909441
  0
LWPOLYLINE
  5
51
100
AcDbEntity
  8
DFW_TAXIWAY_GUIDANCE_LINE
 62
    91
100
AcDbPolyline
 90
        5
 70
     0
 10
-97.025775
 20
32.908916
 10
-97.025718
 20
32.908947
 10
-97.025666
 20
32.908966
 10
-97.025613
 20
32.908983
 10
-97.025545
 20
32.909006
  0
LWPOLYLINE
  5
52
100
AcDbEntity
  8
DFW_TAXIWAY_GUIDANCE_LINE
 62
    91
100
AcDbPolyline
 90
       14
 70
     0
 10
-97.022288
 20
32.90463
 10
-97.022371
 20
32.904639
 10
-97.022425
 20
32.90465
 10
-97.022466
 20
32.904662
 10
-97.022524
 20
32.904684
 10
-97.022591
 20
32.904713
 10
-97.022645
 20
32.904748
 10
-97.022694
 20
32.904787
 10
-97.022733
 20
32.904826
 10
-97.022767
 20
32.904864
 10
-97.022792
 20
32.904904
 10
-97.022816
 20
32.904947
 10
-97.022838
 20
32.905
 10
-97.022859
 20
32.905093
  0
LWPOLYLINE
  5
53
100
AcDbEntity
  8
DFW_TAXIWAY_GUIDANCE_LINE
 62
    91
100
AcDbPolyline
 90
       11
 70
     0
 10
-97.022871
 20
32.904174
 10
-97.022852
 20
32.904262
 10
-97.022803
 20
32.904344
 10
-97.022754
 20
32.904405
 10
-97.022705
 20
32.904462
 10
-97.022636
 20
32.904515
 10
-97.022583
 20
32.904546
 10
-97.022544
 20
32.904564
 10
-97.022454
 20
32.9046
 10
-97.022377
 20
32.90462
 10
-97.022291
 20
32.90463
  0
LWPOLYLINE
  5
54
100
AcDbEntity
  8
DFW_TAXIWAY_GUIDANCE_LINE
 62
    91
100
AcDbPolyline
 90
       11
 70
     0
 10
-97.023425
 20
32.904634
 10
-97.023309
 20
32.904622
 10
-97.023224
 20
32.904596
 10
-97.023138
 20
32.904557
 10
-97.023067
 20
32.9045
 10
-97.022996
 20
32.904436
 10
-97.022944
 20
32.904371
 10
-97.022899
 20
32.904301
 10
-97.022873
 20
32.904235
 10
-97.022867
 20
32.904064
 10
-97.022872
 20
32.901059
  0
LWPOLYLINE
  5
55
100
AcDbEntity
  8
DFW_TAXIWAY_GUIDANCE_LINE
 62
    91
100
AcDbPolyline
 90
       27
 70
     0
 10
-97.020737
 20
32.911532
 10
-97.021163
 20
32.911175
 10
-97.021486
 20
32.910911
 10
-97.021896
 20
32.910562
 10
-97.022325
 20
32.910208
 10
-97.022414
 20
32.910114
 10
-97.022494
 20
32.910026
 10
-97.022554
 20
32.909946
 10
-97.022605
 20
32.909871
 10
-97.022657
 20
32.909786
 10
-97.022698
 20
32.909711
 10
-97.022747
 20
32.909581
 10
-97.022788
 20
32.909467
 10
-97.022817
 20
32.909344
 10
-97.022827
 20
32.909254
 10
-97.022836
 20
32.908993
 10
-97.022859
 20
32.905175
 10
-97.022858
 20
32.905096
 10
-97.022872
 20
32.905021
 10
-97.022898
 20
32.904948
 10
-97.022946
 20
32.904872
 10
-97.023
 20
32.904815
 10
-97.023049
 20
32.904772
 10
-97.023113
 20
32.904729
 10
-97.023203
 20
32.904685
 10
-97.023296
 20
32.904656
 10
-97.023424
 20
32.904634
  0
LWPOLYLINE
  5
56
100
AcDbEntity
  8
DFW_TAXIWAY_GUIDANCE_LINE
 62
    91
100
AcDbPolyline
 90
       10
 70
     0
 10
-97.024055
 20
32.909578
 10
-97.024067
 20
32.909649
 10
-97.024101
 20
32.909723
 10
-97.024156
 20
32.9098
 10
-97.024216
 20
32.909863
 10
-97.024279
 20
32.90991
 10
-97.02436
 20
32.909957
 10
-97.024435
 20
32.909993
 10
-97.024515
 20
32.910017
 10
-97.024607
 20
32.910036
  0
LWPOLYLINE
  5
57
100
AcDbEntity
  8
DFW_TAXIWAY_GUIDANCE_LINE
 62
    91
100
AcDbPolyline
 90
       10
 70
     0
 10
-97.024055
 20
32.909581
 10
-97.024032
 20
32.909657
 10
-97.023993
 20
32.909749
 10
-97.023928
 20
32.90983
 10
-97.023871
 20
32.90989
 10
-97.023803
 20
32.909932
 10
-97.023737
 20
32.909971
 10
-97.02368
 20
32.909992
 10
-97.023619
 20
32.91001
 10
-97.023509
 20
32.910031
  0
LWPOLYLINE
  5
58
100
AcDbEntity
  8
DFW_TAXIWAY_GUIDANCE_LINE
 62
    91
100
AcDbPolyline
 90
        4
 70
     0
 10
-97.024054
 20
32.910211
 10
-97.024054
 20
32.910034
 10
-97.024056
 20
32.90952
 10
-97.024056
 20
32.908999
  0
LWPOLYLINE
  5
59
100
AcDbEntity
  8
DFW_TAXIWAY_GUIDANCE_LINE
 62
    91
100
AcDbPolyline
 90
        5
 70
     0
 10
-97.025793
 20
32.904565
 10
-97.025731
 20
32.904592
 10
-97.025661
 20
32.904614
 10
-97.025587
 20
32.904626
 10
-97.025488
 20
32.904641
  0
LWPOLYLINE
  5
5A
100
AcDbEntity
  8
DFW_TAXIWAY_GUIDANCE_LINE
 62
    91
100
AcDbPolyline
 90
        4
 70
     0
 10
-97.014262
 20
32.904349
 10
-97.014725
 20
32.904455
 10
-97.016683
 20
32.904608
 10
-97.025792
 20
32.904643
  0
LWPOLYLINE
  5
5B
100
AcDbEntity
  8
DFW_TAXIWAY_GUIDANCE_LINE
 62
    91
100
AcDbPolyline
 90
        3
 70
     0
 10
-97.014048
 20
32.90389
 10
-97.014726
 20
32.904454
 10
-97.015062
 20
32.904746
  0
LWPOLYLINE
  5
5C
100
AcDbEntity
  8
DFW_TAXIWAY_GUIDANCE_LINE
 62
    91
100
AcDbPolyline
 90
       11
 70
     0
 10
-97.018741
 20
32.907874
 10
-97.015677
 20
32.905259
 10
-97.015063
 20
32.904747
 10
-97.014951
 20
32.904669
 10
-97.014847
 20
32.904611
 10
-97.014785
 20
32.904573
 10
-97.014683
 20
32.904519
 10
-97.014462
 20
32.904423
 10
-97.014296
 20
32.904358
 10
-97.014159
 20
32.904321
 10
-97.013838
 20
32.90425
  0
LWPOLYLINE
  5
5D
100
AcDbEntity
  8
DFW_TAXIWAY_GUIDANCE_LINE
 62
    91
100
AcDbPolyline
 90
        6
 70
     0
 10
-97.022757
 20
32.911293
 10
-97.022376
 20
32.910971
 10
-97.021438
 20
32.910172
 10
-97.020087
 20
32.909024
 10
-97.019439
 20
32.908469
 10
-97.018741
 20
32.907874
  0
LWPOLYLINE
  5
5E
100
AcDbEntity
  8
DFW_TAXIWAY_GUIDANCE_LINE
 62
    91
100
AcDbPolyline
 90
        6
 70
     0
 10
-97.024264
 20
32.910035
 10
-97.023719
 20
32.910491
 10
-97.023181
 20
32.910937
 10
-97.022335
 20
32.911648
 10
-97.022023
 20
32.911906
 10
-97.021598
 20
32.912265
  0
LWPOLYLINE
  5
5F
100
AcDbEntity
  8
DFW_TAXIWAY_GUIDANCE_LINE
 62
    91
100
AcDbPolyline
 90
       15
 70
     0
 10
-97.025774
 20
32.909005
 10
-97.025285
 20
32.909007
 10
-97.023459
 20
32.908998
 10
-97.023342
 20
32.908995
 10
-97.022083
 20
32.90899
 10
-97.021961
 20
32.908985
 10
-97.021818
 20
32.908975
 10
-97.021667
 20
32.908957
 10
-97.021524
 20
32.908938
 10
-97.021378
 20
32.90891
 10
-97.021193
 20
32.908873
 10
-97.01698
 20
32.907899
 10
-97.016704
 20
32.907816
 10
-97.016496
 20
32.90775
 10
-97.016139
 20
32.907616
  0
LWPOLYLINE
  5
60
100
AcDbEntity
  8
DFW_TAXIWAY_GUIDANCE_LINE
 62
    91
100
AcDbPolyline
 90
        5
 70
     0
 10
-97.02577
 20
32.909957
 10
-97.025717
 20
32.909978
 10
-97.02565
 20
32.910006
 10
-97.025589
 20
32.910024
 10
-97.025514
 20
32.910039
  0
LWPOLYLINE
  5
61
100
AcDbEntity
  8
DFW_TAXIWAY_GUIDANCE_LINE
 62
    91
100
AcDbPolyline
 90
        6
 70
     0
 10
-97.02577
 20
32.910038
 10
-97.025302
 20
32.910041
 10
-97.024945
 20
32.910038
 10
-97.023457
 20
32.910031
 10
-97.023219
 20
32.91003
 10
-97.022494
 20
32.910026
  0
LWPOLYLINE
  5
62
100
AcDbEntity
  8
DFW_TAXIWAY_GUIDANCE_LINE
 62
    91
100
AcDbPolyline
 90
        7
 70
     0
 10
-97.013838
 20
32.90425
 10
-97.012674
 20
32.903985
 10
-97.012249
 20
32.903887
 10
-97.012036
 20
32.903827
 10
-97.011867
 20
32.903772
 10
-97.011668
 20
32.903701
 10
-97.011422
 20
32.903602
  0
LWPOLYLINE
  5
63
100
AcDbEntity
  8
DFW_TAXIWAY_GUIDANCE_LINE
 62
    91
100
AcDbPolyline
 90
        5
 70
     0
 10
-97.006969
 20
32.897845
 10
-97.010171
 20
32.90058
 10
-97.011087
 20
32.901363
 10
-97.013317
 20
32.903264
 10
-97.014048
 20
32.90389
  0
LWPOLYLINE
  5
64
100
AcDbEntity
  8
DFW_TAXIWAY_GUIDANCE_LINE
 62
    91
100
AcDbPolyline
 90
       13
 70
     0
 10
-97.006044
 20
32.897795
 10
-97.006171
 20
32.897724
 10
-97.006263
 20
32.897692
 10
-97.006316
 20
32.897678
 10
-97.006384
 20
32.897667
 10
-97.006431
 20
32.897662
 10
-97.006479
 20
32.89766
 10
-97.006534
 20
32.897664
 10
-97.006587
 20
32.897669
 10
-97.006653
 20
32.897683
 10
-97.006758
 20
32.897714
 10
-97.006845
 20
32.897759
 10
-97.006919
 20
32.897803
  0
LWPOLYLINE
  5
65
100
AcDbEntity
  8
DFW_TAXIWAY_GUIDANCE_LINE
 62
    91
100
AcDbPolyline
 90
       14
 70
     0
 10
-97.006044
 20
32.897795
 10
-97.006084
 20
32.897745
 10
-97.006122
 20
32.897687
 10
-97.006158
 20
32.89763
 10
-97.006172
 20
32.897601
 10
-97.00619
 20
32.897534
 10
-97.0062
 20
32.897466
 10
-97.006201
 20
32.897415
 10
-97.0062
 20
32.897369
 10
-97.006187
 20
32.897315
 10
-97.006175
 20
32.897263
 10
-97.006141
 20
32.897189
 10
-97.006106
 20
32.897138
 10
-97.006047
 20
32.89706
  0
LWPOLYLINE
  5
66
100
AcDbEntity
  8
DFW_TAXIWAY_GUIDANCE_LINE
 62
    91
100
AcDbPolyline
 90
        4
 70
     0
 10
-97.005316
 20
32.8984
 10
-97.005541
 20
32.89821
 10
-97.006004
 20
32.897828
 10
-97.006482
 20
32.897431
  0
LWPOLYLINE
  5
67
100
AcDbEntity
  8
DFW_TAXIWAY_GUIDANCE_LINE
 62
    91
100
AcDbPolyline
 90
       14
 70
     0
 10
-97.00194
 20
32.894258
 10
-97.002
 20
32.894227
 10
-97.002066
 20
32.894196
 10
-97.002151
 20
32.89417
 10
-97.002232
 20
32.894151
 10
-97.002318
 20
32.894142
 10
-97.0024
 20
32.894141
 10
-97.002471
 20
32.894151
 10
-97.002551
 20
32.894167
 10
-97.002613
 20
32.894186
 10
-97.002679
 20
32.894217
 10
-97.002734
 20
32.894253
 10
-97.002849
 20
32.894354
 10
-97.006969
 20
32.897845
  0
LWPOLYLINE
  5
68
100
AcDbEntity
  8
DFW_TAXIWAY_GUIDANCE_LINE
 62
    91
100
AcDbPolyline
 90
        4
 70
     0
 10
-97.001189
 20
32.894885
 10
-97.001593
 20
32.894545
 10
-97.001871
 20
32.894315
 10
-97.002325
 20
32.893938
  0
LWPOLYLINE
  5
69
100
AcDbEntity
  8
DFW_TAXIWAY_GUIDANCE_LINE
 62
    91
100
AcDbPolyline
 90
        2
 70
     0
 10
-97.010714
 20
32.896216
 10
-97.010778
 20
32.896261
  0
LWPOLYLINE
  5
6A
100
AcDbEntity
  8
DFW_TAXIWAY_GUIDANCE_LINE
 62
    91
100
AcDbPolyline
 90
       10
 70
     0
 10
-97.010038
 20
32.894921
 10
-97.010078
 20
32.895039
 10
-97.010137
 20
32.895192
 10
-97.010192
 20
32.895319
 10
-97.010254
 20
32.895452
 10
-97.010316
 20
32.895573
 10
-97.010386
 20
32.895703
 10
-97.010453
 20
32.895816
 10
-97.01055
 20
32.895974
 10
-97.010785
 20
32.896321
  0
LWPOLYLINE
  5
6B
100
AcDbEntity
  8
DFW_TAXIWAY_GUIDANCE_LINE
 62
    91
100
AcDbPolyline
 90
        6
 70
     0
 10
-97.010273
 20
32.893863
 10
-97.010225
 20
32.893861
 10
-97.010181
 20
32.893852
 10
-97.010143
 20
32.893839
 10
-97.010102
 20
32.893826
 10
-97.010045
 20
32.893802
  0
LWPOLYLINE
  5
6C
100
AcDbEntity
  8
DFW_TAXIWAY_GUIDANCE_LINE
 62
    91
100
AcDbPolyline
 90
        3
 70
     0
 10
-97.010045
 20
32.893862
 10
-97.010571
 20
32.893864
 10
-97.010959
 20
32.893866
  0
LWPOLYLINE
  5
6D
100
AcDbEntity
  8
DFW_TAXIWAY_GUIDANCE_LINE
 62
    91
100
AcDbPolyline
 90
        5
 70
     0
 10
-97.010574
 20
32.892354
 10
-97.010388
 20
32.892053
 10
-97.010256
 20
32.891802
 10
-97.010157
 20
32.891575
 10
-97.010057
 20
32.891302
  0
LWPOLYLINE
  5
6E
100
AcDbEntity
  8
DFW_TAXIWAY_GUIDANCE_LINE
 62
    91
100
AcDbPolyline
 90
        2
 70
     0
 10
-97.010832
 20
32.885251
 10
-97.010768
 20
32.885301
  0
LWPOLYLINE
  5
6F
100
AcDbEntity
  8
DFW_TAXIWAY_GUIDANCE_LINE
 62
    91
100
AcDbPolyline
 90
        2
 70
     0
 10
-97.010886
 20
32.885218
 10
-97.01086
 20
32.885231
  0
LWPOLYLINE
  5
70
100
AcDbEntity
  8
DFW_TAXIWAY_GUIDANCE_LINE
 62
    91
100
AcDbPolyline
 90
        8
 70
     0
 10
-97.010082
 20
32.886579
 10
-97.010134
 20
32.886437
 10
-97.010186
 20
32.886307
 10
-97.010235
 20
32.886193
 10
-97.010354
 20
32.885955
 10
-97.010438
 20
32.885807
 10
-97.010582
 20
32.885569
 10
-97.010846
 20
32.885188
  0
LWPOLYLINE
  5
71
100
AcDbEntity
  8
DFW_TAXIWAY_GUIDANCE_LINE
 62
    91
100
AcDbPolyline
 90
        9
 70
     0
 10
-97.010082
 20
32.886712
 10
-97.010137
 20
32.886867
 10
-97.010223
 20
32.887064
 10
-97.010301
 20
32.887234
 10
-97.010384
 20
32.887395
 10
-97.01047
 20
32.887548
 10
-97.010544
 20
32.887673
 10
-97.010599
 20
32.887756
 10
-97.010825
 20
32.888084
  0
LWPOLYLINE
  5
72
100
AcDbEntity
  8
DFW_TAXIWAY_GUIDANCE_LINE
 62
    91
100
AcDbPolyline
 90
        2
 70
     0
 10
-97.010796
 20
32.879791
 10
-97.01087
 20
32.879739
  0
LWPOLYLINE
  5
73
100
AcDbEntity
  8
DFW_TAXIWAY_GUIDANCE_LINE
 62
    91
100
AcDbPolyline
 90
        8
 70
     0
 10
-97.01086
 20
32.879695
 10
-97.010522
 20
32.880201
 10
-97.010433
 20
32.88035
 10
-97.010354
 20
32.880498
 10
-97.010298
 20
32.880608
 10
-97.010249
 20
32.880716
 10
-97.010144
 20
32.880973
 10
-97.010112
 20
32.881071
  0
LWPOLYLINE
  5
74
100
AcDbEntity
  8
DFW_TAXIWAY_GUIDANCE_LINE
 62
    91
100
AcDbPolyline
 90
       18
 70
     0
 10
-97.01081
 20
32.877085
 10
-97.010865
 20
32.877037
 10
-97.010918
 20
32.877002
 10
-97.010988
 20
32.876968
 10
-97.011049
 20
32.876948
 10
-97.011107
 20
32.876934
 10
-97.011211
 20
32.876926
 10
-97.011268
 20
32.87693
 10
-97.011314
 20
32.876941
 10
-97.011371
 20
32.876955
 10
-97.011419
 20
32.876975
 10
-97.011467
 20
32.876997
 10
-97.011513
 20
32.877026
 10
-97.011547
 20
32.877054
 10
-97.011589
 20
32.877095
 10
-97.011627
 20
32.877144
 10
-97.011654
 20
32.87719
 10
-97.011683
 20
32.877268
  0
LWPOLYLINE
  5
75
100
AcDbEntity
  8
DFW_TAXIWAY_GUIDANCE_LINE
 62
    91
100
AcDbPolyline
 90
        8
 70
     0
 10
-97.011592
 20
32.875957
 10
-97.010885
 20
32.876974
 10
-97.010581
 20
32.877424
 10
-97.010487
 20
32.87758
 10
-97.010349
 20
32.877831
 10
-97.010275
 20
32.877991
 10
-97.010196
 20
32.878175
 10
-97.010129
 20
32.87835
  0
LWPOLYLINE
  5
76
100
AcDbEntity
  8
DFW_TAXIWAY_GUIDANCE_LINE
 62
    91
100
AcDbPolyline
 90
        8
 70
     0
 10
-97.011088
 20
32.875065
 10
-97.010512
 20
32.875063
 10
-97.010429
 20
32.875067
 10
-97.010368
 20
32.875065
 10
-97.0103
 20
32.875075
 10
-97.010245
 20
32.875088
 10
-97.010199
 20
32.875108
 10
-97.010147
 20
32.875132
  0
LWPOLYLINE
  5
77
100
AcDbEntity
  8
DFW_TAXIWAY_GUIDANCE_LINE
 62
    91
100
AcDbPolyline
 90
        8
 70
     0
 10
-97.010143
 20
32.875864
 10
-97.010184
 20
32.875844
 10
-97.010221
 20
32.87583
 10
-97.010264
 20
32.875815
 10
-97.010316
 20
32.875801
 10
-97.010357
 20
32.875794
 10
-97.01051
 20
32.875795
 10
-97.011079
 20
32.875793
  0
LWPOLYLINE
  5
78
100
AcDbEntity
  8
DFW_TAXIWAY_GUIDANCE_LINE
 62
    91
100
AcDbPolyline
 90
        2
 70
     0
 10
-97.010783
 20
32.896317
 10
-97.011324
 20
32.89711
  0
LWPOLYLINE
  5
79
100
AcDbEntity
  8
DFW_TAXIWAY_GUIDANCE_LINE
 62
    91
100
AcDbPolyline
 90
       15
 70
     0
 10
-97.011588
 20
32.895996
 10
-97.011569
 20
32.896058
 10
-97.011538
 20
32.896118
 10
-97.011505
 20
32.896173
 10
-97.011469
 20
32.896223
 10
-97.011426
 20
32.896258
 10
-97.011325
 20
32.896313
 10
-97.011274
 20
32.896334
 10
-97.011212
 20
32.896352
 10
-97.011139
 20
32.896363
 10
-97.011082
 20
32.896363
 10
-97.011011
 20
32.896356
 10
-97.01094
 20
32.896343
 10
-97.010888
 20
32.896323
 10
-97.010821
 20
32.896287
  0
LWPOLYLINE
  5
7A
100
AcDbEntity
  8
DFW_TAXIWAY_GUIDANCE_LINE
 62
    91
100
AcDbPolyline
 90
        2
 70
     0
 10
-97.011652
 20
32.884034
 10
-97.010846
 20
32.885188
  0
LWPOLYLINE
  5
7B
100
AcDbEntity
  8
DFW_TAXIWAY_GUIDANCE_LINE
 62
    91
100
AcDbPolyline
 90
       16
 70
     0
 10
-97.010886
 20
32.885218
 10
-97.01092
 20
32.885202
 10
-97.010993
 20
32.885175
 10
-97.011053
 20
32.885164
 10
-97.011128
 20
32.885154
 10
-97.011187
 20
32.885154
 10
-97.011242
 20
32.88516
 10
-97.011304
 20
32.885175
 10
-97.011369
 20
32.885195
 10
-97.011435
 20
32.885227
 10
-97.011489
 20
32.885261
 10
-97.011532
 20
32.885304
 10
-97.011563
 20
32.88534
 10
-97.011594
 20
32.885384
 10
-97.011621
 20
32.885437
 10
-97.011643
 20
32.885513
  0
LWPOLYLINE
  5
7C
100
AcDbEntity
  8
DFW_TAXIWAY_GUIDANCE_LINE
 62
    91
100
AcDbPolyline
 90
        2
 70
     0
 10
-97.010825
 20
32.888084
 10
-97.01162
 20
32.88926
  0
LWPOLYLINE
  5
7D
100
AcDbEntity
  8
DFW_TAXIWAY_GUIDANCE_LINE
 62
    91
100
AcDbPolyline
 90
       17
 70
     0
 10
-97.011607
 20
32.892372
 10
-97.011589
 20
32.892438
 10
-97.01156
 20
32.892511
 10
-97.011523
 20
32.892562
 10
-97.011482
 20
32.89261
 10
-97.011435
 20
32.892643
 10
-97.011379
 20
32.892675
 10
-97.011339
 20
32.892697
 10
-97.011286
 20
32.892717
 10
-97.011242
 20
32.892725
 10
-97.011186
 20
32.892734
 10
-97.011132
 20
32.892739
 10
-97.011066
 20
32.892736
 10
-97.010997
 20
32.892726
 10
-97.010939
 20
32.892712
 10
-97.010895
 20
32.892698
 10
-97.010834
 20
32.892666
  0
LWPOLYLINE
  5
7E
100
AcDbEntity
  8
DFW_TAXIWAY_GUIDANCE_LINE
 62
    91
100
AcDbPolyline
 90
        4
 70
     0
 10
-97.011591
 20
32.893865
 10
-97.011344
 20
32.893498
 10
-97.010803
 20
32.892691
 10
-97.010574
 20
32.892354
  0
LWPOLYLINE
  5
7F
100
AcDbEntity
  8
DFW_TAXIWAY_GUIDANCE_LINE
 62
    91
100
AcDbPolyline
 90
        2
 70
     0
 10
-97.025852
 20
32.893925
 10
-97.010959
 20
32.893866
  0
LWPOLYLINE
  5
80
100
AcDbEntity
  8
DFW_TAXIWAY_GUIDANCE_LINE
 62
    91
100
AcDbPolyline
 90
        3
 70
     0
 10
-97.022917
 20
32.893386
 10
-97.022914
 20
32.894422
 10
-97.022872
 20
32.901059
  0
LWPOLYLINE
  5
81
100
AcDbEntity
  8
DFW_TAXIWAY_GUIDANCE_LINE
 62
    91
100
AcDbPolyline
 90
        3
 70
     0
 10
-97.022958
 20
32.887089
 10
-97.022952
 20
32.887298
 10
-97.022917
 20
32.893386
  0
LWPOLYLINE
  5
82
100
AcDbEntity
  8
DFW_TAXIWAY_GUIDANCE_LINE
 62
    91
100
AcDbPolyline
 90
        3
 70
     0
 10
-97.022961
 20
32.886689
 10
-97.022439
 20
32.886684
 10
-97.022278
 20
32.886683
  0
LWPOLYLINE
  5
83
100
AcDbEntity
  8
DFW_TAXIWAY_GUIDANCE_LINE
 62
    91
100
AcDbPolyline
 90
        6
 70
     0
 10
-97.025894
 20
32.886088
 10
-97.025844
 20
32.886057
 10
-97.025788
 20
32.886038
 10
-97.025728
 20
32.886019
 10
-97.025678
 20
32.886005
 10
-97.025613
 20
32.885991
  0
LWPOLYLINE
  5
84
100
AcDbEntity
  8
DFW_TAXIWAY_GUIDANCE_LINE
 62
    91
100
AcDbPolyline
 90
        4
 70
     0
 10
-97.022973
 20
32.885982
 10
-97.023611
 20
32.885984
 10
-97.025541
 20
32.885991
 10
-97.025895
 20
32.885991
  0
LWPOLYLINE
  5
85
100
AcDbEntity
  8
DFW_TAXIWAY_GUIDANCE_LINE
 62
    91
100
AcDbPolyline
 90
        6
 70
     0
 10
-97.0259
 20
32.885057
 10
-97.025853
 20
32.88503
 10
-97.025804
 20
32.885009
 10
-97.025746
 20
32.884989
 10
-97.025703
 20
32.884975
 10
-97.02562
 20
32.88496
  0
LWPOLYLINE
  5
86
100
AcDbEntity
  8
DFW_TAXIWAY_GUIDANCE_LINE
 62
    91
100
AcDbPolyline
 90
        4
 70
     0
 10
-97.022968
 20
32.884946
 10
-97.02359
 20
32.88495
 10
-97.025556
 20
32.88496
 10
-97.0259
 20
32.884963
  0
LWPOLYLINE
  5
87
100
AcDbEntity
  8
DFW_TAXIWAY_GUIDANCE_LINE
 62
    91
100
AcDbPolyline
 90
        7
 70
     0
 10
-97.023006
 20
32.878765
 10
-97.022968
 20
32.884289
 10
-97.02297
 20
32.884544
 10
-97.022965
 20
32.885467
 10
-97.022973
 20
32.885981
 10
-97.022964
 20
32.886271
 10
-97.022958
 20
32.887089
  0
LWPOLYLINE
  5
88
100
AcDbEntity
  8
DFW_TAXIWAY_GUIDANCE_LINE
 62
    91
100
AcDbPolyline
 90
       17
 70
     0
 10
-97.010899
 20
32.879711
 10
-97.010948
 20
32.87969
 10
-97.01102
 20
32.879665
 10
-97.011081
 20
32.879649
 10
-97.011126
 20
32.879641
 10
-97.01117
 20
32.879637
 10
-97.011224
 20
32.879639
 10
-97.011285
 20
32.879646
 10
-97.011362
 20
32.879666
 10
-97.011423
 20
32.879692
 10
-97.011465
 20
32.879716
 10
-97.011517
 20
32.879747
 10
-97.011564
 20
32.879793
 10
-97.011597
 20
32.879839
 10
-97.011634
 20
32.879897
 10
-97.011655
 20
32.879941
 10
-97.01167
 20
32.879987
  0
LWPOLYLINE
  5
89
100
AcDbEntity
  8
DFW_TAXIWAY_GUIDANCE_LINE
 62
    91
100
AcDbPolyline
 90
        3
 70
     0
 10
-97.011681
 20
32.878517
 10
-97.011472
 20
32.878822
 10
-97.01086
 20
32.879695
  0
LWPOLYLINE
  5
8A
100
AcDbEntity
  8
DFW_TAXIWAY_GUIDANCE_LINE
 62
    91
100
AcDbPolyline
 90
        7
 70
     0
 10
-97.020236
 20
32.878549
 10
-97.016445
 20
32.878535
 10
-97.015967
 20
32.878533
 10
-97.015537
 20
32.878528
 10
-97.015009
 20
32.878529
 10
-97.013644
 20
32.878521
 10
-97.012315
 20
32.878517
  0
LWPOLYLINE
  5
8B
100
AcDbEntity
  8
DFW_TAXIWAY_GUIDANCE_LINE
 62
    91
100
AcDbPolyline
 90
       18
 70
     0
 10
-97.025931
 20
32.879016
 10
-97.025365
 20
32.879015
 10
-97.02495
 20
32.879005
 10
-97.024659
 20
32.878992
 10
-97.024158
 20
32.878949
 10
-97.023921
 20
32.87892
 10
-97.023715
 20
32.878892
 10
-97.023518
 20
32.878861
 10
-97.023337
 20
32.878828
 10
-97.022808
 20
32.878726
 10
-97.022488
 20
32.878674
 10
-97.022303
 20
32.878648
 10
-97.022027
 20
32.878614
 10
-97.021742
 20
32.878589
 10
-97.021254
 20
32.878561
 10
-97.021055
 20
32.878556
 10
-97.020801
 20
32.878552
 10
-97.020236
 20
32.878549
  0
LWPOLYLINE
  5
8C
100
AcDbEntity
  8
DFW_TAXIWAY_GUIDANCE_LINE
 62
    91
100
AcDbPolyline
 90
        2
 70
     0
 10
-97.011681
 20
32.878517
 10
-97.012315
 20
32.878517
  0
LWPOLYLINE
  5
8D
100
AcDbEntity
  8
DFW_TAXIWAY_GUIDANCE_LINE
 62
    91
100
AcDbPolyline
 90
        2
 70
     0
 10
-97.011692
 20
32.875816
 10
-97.011592
 20
32.875957
  0
LWPOLYLINE
  5
8E
100
AcDbEntity
  8
DFW_TAXIWAY_GUIDANCE_LINE
 62
    91
100
AcDbPolyline
 90
       12
 70
     0
 10
-97.011079
 20
32.875793
 10
-97.011266
 20
32.875803
 10
-97.01133
 20
32.875811
 10
-97.011373
 20
32.875825
 10
-97.011421
 20
32.875843
 10
-97.011465
 20
32.875865
 10
-97.01151
 20
32.875895
 10
-97.011551
 20
32.875924
 10
-97.011588
 20
32.875957
 10
-97.011631
 20
32.876008
 10
-97.01166
 20
32.876067
 10
-97.01169
 20
32.876161
  0
LWPOLYLINE
  5
8F
100
AcDbEntity
  8
DFW_TAXIWAY_GUIDANCE_LINE
 62
    91
100
AcDbPolyline
 90
       16
 70
     0
 10
-97.01158
 20
32.897027
 10
-97.011596
 20
32.894372
 10
-97.011591
 20
32.893864
 10
-97.011681
 20
32.878518
 10
-97.011679
 20
32.877819
 10
-97.011692
 20
32.875493
 10
-97.01167
 20
32.87535
 10
-97.011643
 20
32.87529
 10
-97.011615
 20
32.875248
 10
-97.011573
 20
32.875207
 10
-97.011526
 20
32.875165
 10
-97.011456
 20
32.875124
 10
-97.011386
 20
32.875091
 10
-97.011329
 20
32.875076
 10
-97.011265
 20
32.875067
 10
-97.011088
 20
32.875065
  0
LWPOLYLINE
  5
90
100
AcDbEntity
  8
DFW_TAXIWAY_GUIDANCE_LINE
 62
    91
100
AcDbPolyline
 90
        9
 70
     0
 10
-97.02847
 20
32.897506
 10
-97.028406
 20
32.897517
 10
-97.028336
 20
32.897535
 10
-97.028268
 20
32.897562
 10
-97.028212
 20
32.897596
 10
-97.028132
 20
32.897664
 10
-97.028092
 20
32.897715
 10
-97.028059
 20
32.89777
 10
-97.028027
 20
32.897842
  0
LWPOLYLINE
  5
91
100
AcDbEntity
  8
DFW_TAXIWAY_GUIDANCE_LINE
 62
    91
100
AcDbPolyline
 90
       10
 70
     0
 10
-97.02847
 20
32.897506
 10
-97.028386
 20
32.897491
 10
-97.028299
 20
32.897459
 10
-97.028235
 20
32.897428
 10
-97.028171
 20
32.897386
 10
-97.028121
 20
32.897339
 10
-97.028107
 20
32.897321
 10
-97.028063
 20
32.89726
 10
-97.028041
 20
32.89722
 10
-97.028022
 20
32.89715
  0
LWPOLYLINE
  5
92
100
AcDbEntity
  8
DFW_TAXIWAY_GUIDANCE_LINE
 62
    91
100
AcDbPolyline
 90
        5
 70
     0
 10
-97.028025
 20
32.897508
 10
-97.028474
 20
32.897506
 10
-97.028854
 20
32.897508
 10
-97.029289
 20
32.897511
 10
-97.029661
 20
32.89751
  0
LWPOLYLINE
  5
93
100
AcDbEntity
  8
DFW_TAXIWAY_GUIDANCE_LINE
 62
    91
100
AcDbPolyline
 90
       10
 70
     0
 10
-97.028044
 20
32.893946
 10
-97.027838
 20
32.894236
 10
-97.02759
 20
32.894601
 10
-97.027207
 20
32.895149
 10
-97.026749
 20
32.895827
 10
-97.026647
 20
32.895989
 10
-97.026582
 20
32.896114
 10
-97.026503
 20
32.896274
 10
-97.026441
 20
32.896405
 10
-97.026316
 20
32.896729
  0
LWPOLYLINE
  5
94
100
AcDbEntity
  8
DFW_TAXIWAY_GUIDANCE_LINE
 62
    91
100
AcDbPolyline
 90
       13
 70
     0
 10
-97.026346
 20
32.891153
 10
-97.026409
 20
32.89132
 10
-97.026468
 20
32.891461
 10
-97.026527
 20
32.891589
 10
-97.026593
 20
32.891718
 10
-97.026646
 20
32.891828
 10
-97.026693
 20
32.891912
 10
-97.026835
 20
32.892142
 10
-97.027116
 20
32.892557
 10
-97.027222
 20
32.892716
 10
-97.027594
 20
32.893262
 10
-97.027825
 20
32.893608
 10
-97.028044
 20
32.893923
  0
LWPOLYLINE
  5
95
100
AcDbEntity
  8
DFW_TAXIWAY_GUIDANCE_LINE
 62
    91
100
AcDbPolyline
 90
       12
 70
     0
 10
-97.029698
 20
32.890369
 10
-97.028066
 20
32.890365
 10
-97.027907
 20
32.890598
 10
-97.02762
 20
32.891008
 10
-97.026836
 20
32.892142
 10
-97.02671
 20
32.892338
 10
-97.026646
 20
32.892457
 10
-97.026581
 20
32.892581
 10
-97.026512
 20
32.892719
 10
-97.02645
 20
32.892857
 10
-97.026393
 20
32.89299
 10
-97.026336
 20
32.893145
  0
LWPOLYLINE
  5
96
100
AcDbEntity
  8
DFW_TAXIWAY_GUIDANCE_LINE
 62
    91
100
AcDbPolyline
 90
       15
 70
     0
 10
-97.028079
 20
32.887455
 10
-97.028064
 20
32.887401
 10
-97.028033
 20
32.887348
 10
-97.027996
 20
32.887296
 10
-97.027952
 20
32.887247
 10
-97.02791
 20
32.88721
 10
-97.027848
 20
32.887175
 10
-97.027776
 20
32.88715
 10
-97.027698
 20
32.88713
 10
-97.027636
 20
32.887123
 10
-97.027557
 20
32.887119
 10
-97.027496
 20
32.887122
 10
-97.027438
 20
32.887135
 10
-97.027369
 20
32.887161
 10
-97.02728
 20
32.887199
  0
LWPOLYLINE
  5
97
100
AcDbEntity
  8
DFW_TAXIWAY_GUIDANCE_LINE
 62
    91
100
AcDbPolyline
 90
       10
 70
     0
 10
-97.028089
 20
32.885998
 10
-97.0279
 20
32.886281
 10
-97.026894
 20
32.887731
 10
-97.026784
 20
32.887898
 10
-97.026662
 20
32.888102
 10
-97.026597
 20
32.888224
 10
-97.026535
 20
32.888346
 10
-97.026435
 20
32.888572
 10
-97.026392
 20
32.888681
 10
-97.02636
 20
32.88876
  0
LWPOLYLINE
  5
98
100
AcDbEntity
  8
DFW_TAXIWAY_GUIDANCE_LINE
 62
    91
100
AcDbPolyline
 90
        8
 70
     0
 10
-97.026373
 20
32.886089
 10
-97.026409
 20
32.886069
 10
-97.026454
 20
32.88605
 10
-97.026494
 20
32.886033
 10
-97.026556
 20
32.886015
 10
-97.026609
 20
32.886004
 10
-97.026647
 20
32.885999
 10
-97.02669
 20
32.885993
  0
LWPOLYLINE
  5
99
100
AcDbEntity
  8
DFW_TAXIWAY_GUIDANCE_LINE
 62
    91
100
AcDbPolyline
 90
        7
 70
     0
 10
-97.029722
 20
32.886008
 10
-97.029395
 20
32.886004
 10
-97.028783
 20
32.886004
 10
-97.028089
 20
32.885998
 10
-97.027496
 20
32.885997
 10
-97.026705
 20
32.885993
 10
-97.026374
 20
32.885995
  0
LWPOLYLINE
  5
9A
100
AcDbEntity
  8
DFW_TAXIWAY_GUIDANCE_LINE
 62
    91
100
AcDbPolyline
 90
       11
 70
     0
 10
-97.027564
 20
32.884962
 10
-97.027624
 20
32.884975
 10
-97.027698
 20
32.884994
 10
-97.027734
 20
32.885007
 10
-97.027798
 20
32.885037
 10
-97.027894
 20
32.885096
 10
-97.027942
 20
32.885138
 10
-97.027982
 20
32.885176
 10
-97.02802
 20
32.885228
 10
-97.028057
 20
32.885289
 10
-97.028091
 20
32.885365
  0
LWPOLYLINE
  5
9B
100
AcDbEntity
  8
DFW_TAXIWAY_GUIDANCE_LINE
 62
    91
100
AcDbPolyline
 90
        9
 70
     0
 10
-97.027556
 20
32.884964
 10
-97.027619
 20
32.884952
 10
-97.027695
 20
32.88493
 10
-97.027764
 20
32.884903
 10
-97.027818
 20
32.884875
 10
-97.027866
 20
32.884846
 10
-97.027905
 20
32.884812
 10
-97.027954
 20
32.88477
 10
-97.027989
 20
32.884734
  0
LWPOLYLINE
  5
9C
100
AcDbEntity
  8
DFW_TAXIWAY_GUIDANCE_LINE
 62
    91
100
AcDbPolyline
 90
        7
 70
     0
 10
-97.026379
 20
32.884961
 10
-97.026723
 20
32.884962
 10
-97.027452
 20
32.884963
 10
-97.028093
 20
32.884966
 10
-97.028706
 20
32.88497
 10
-97.029373
 20
32.884974
 10
-97.029726
 20
32.884975
  0
LWPOLYLINE
  5
9D
100
AcDbEntity
  8
DFW_TAXIWAY_GUIDANCE_LINE
 62
    91
100
AcDbPolyline
 90
        5
 70
     0
 10
-97.026681
 20
32.879021
 10
-97.026597
 20
32.879039
 10
-97.026528
 20
32.879058
 10
-97.026476
 20
32.879076
 10
-97.026411
 20
32.87911
  0
LWPOLYLINE
  5
9E
100
AcDbEntity
  8
DFW_TAXIWAY_GUIDANCE_LINE
 62
    91
100
AcDbPolyline
 90
       10
 70
     0
 10
-97.028124
 20
32.879332
 10
-97.028105
 20
32.879284
 10
-97.028078
 20
32.879232
 10
-97.028033
 20
32.879181
 10
-97.027965
 20
32.879131
 10
-97.027908
 20
32.879098
 10
-97.027862
 20
32.879077
 10
-97.02781
 20
32.879055
 10
-97.027763
 20
32.87904
 10
-97.027709
 20
32.879025
  0
LWPOLYLINE
  5
9F
100
AcDbEntity
  8
DFW_TAXIWAY_GUIDANCE_LINE
 62
    91
100
AcDbPolyline
 90
        9
 70
     0
 10
-97.028557
 20
32.879027
 10
-97.028467
 20
32.879037
 10
-97.028382
 20
32.879062
 10
-97.0283
 20
32.879105
 10
-97.028241
 20
32.879147
 10
-97.028196
 20
32.879191
 10
-97.028163
 20
32.879238
 10
-97.028143
 20
32.879273
 10
-97.028124
 20
32.879332
  0
LWPOLYLINE
  5
A0
100
AcDbEntity
  8
DFW_TAXIWAY_GUIDANCE_LINE
 62
    91
100
AcDbPolyline
 90
        2
 70
     0
 10
-97.028125
 20
32.879026
 10
-97.028122
 20
32.879553
  0
LWPOLYLINE
  5
A1
100
AcDbEntity
  8
DFW_TAXIWAY_GUIDANCE_LINE
 62
    91
100
AcDbPolyline
 90
        7
 70
     0
 10
-97.029759
 20
32.879033
 10
-97.029401
 20
32.879032
 10
-97.0287
 20
32.879028
 10
-97.027645
 20
32.879025
 10
-97.027387
 20
32.879024
 10
-97.026902
 20
32.879022
 10
-97.026411
 20
32.879018
  0
LWPOLYLINE
  5
A2
100
AcDbEntity
  8
DFW_TAXIWAY_GUIDANCE_LINE
 62
    91
100
AcDbPolyline
 90
        6
 70
     0
 10
-97.028053
 20
32.893182
 10
-97.02806
 20
32.890659
 10
-97.028066
 20
32.890362
 10
-97.028084
 20
32.886303
 10
-97.028089
 20
32.885998
 10
-97.028122
 20
32.879553
  0
LWPOLYLINE
  5
A3
100
AcDbEntity
  8
DFW_TAXIWAY_GUIDANCE_LINE
 62
    91
100
AcDbPolyline
 90
        6
 70
     0
 10
-97.028027
 20
32.89788
 10
-97.028022
 20
32.897092
 10
-97.028033
 20
32.896161
 10
-97.028035
 20
32.894697
 10
-97.028042
 20
32.894282
 10
-97.028053
 20
32.893182
  0
LWPOLYLINE
  5
A4
100
AcDbEntity
  8
DFW_TAXIWAY_GUIDANCE_LINE
 62
    91
100
AcDbPolyline
 90
        6
 70
     0
 10
-97.026332
 20
32.893927
 10
-97.026831
 20
32.89393
 10
-97.027472
 20
32.893932
 10
-97.028722
 20
32.893934
 10
-97.029321
 20
32.893939
 10
-97.029679
 20
32.893941
  0
LWPOLYLINE
  5
A5
100
AcDbEntity
  8
DFW_TAXIWAY_GUIDANCE_LINE
 62
    91
100
AcDbPolyline
 90
        2
 70
     0
 10
-97.033168
 20
32.895545
 10
-97.033752
 20
32.895552
  0
LWPOLYLINE
  5
A6
100
AcDbEntity
  8
DFW_TAXIWAY_GUIDANCE_LINE
 62
    91
100
AcDbPolyline
 90
        4
 70
     0
 10
-97.030363
 20
32.886065
 10
-97.030416
 20
32.886042
 10
-97.030466
 20
32.886031
 10
-97.030553
 20
32.88601
  0
LWPOLYLINE
  5
A7
100
AcDbEntity
  8
DFW_TAXIWAY_GUIDANCE_LINE
 62
    91
100
AcDbPolyline
 90
        5
 70
     0
 10
-97.030683
 20
32.880499
 10
-97.030555
 20
32.880516
 10
-97.030491
 20
32.880535
 10
-97.03044
 20
32.880553
 10
-97.030393
 20
32.880573
  0
LWPOLYLINE
  5
A8
100
AcDbEntity
  8
DFW_TAXIWAY_GUIDANCE_LINE
 62
    91
100
AcDbPolyline
 90
        3
 70
     0
 10
-97.030393
 20
32.880496
 10
-97.03081
 20
32.8805
 10
-97.031539
 20
32.880504
  0
LWPOLYLINE
  5
A9
100
AcDbEntity
  8
DFW_TAXIWAY_GUIDANCE_LINE
 62
    91
100
AcDbPolyline
 90
       10
 70
     0
 10
-97.032026
 20
32.880855
 10
-97.03201
 20
32.880809
 10
-97.031983
 20
32.880742
 10
-97.031943
 20
32.880683
 10
-97.031879
 20
32.880619
 10
-97.031795
 20
32.880568
 10
-97.031717
 20
32.880534
 10
-97.03165
 20
32.880511
 10
-97.031595
 20
32.880504
 10
-97.031539
 20
32.880504
  0
LWPOLYLINE
  5
AA
100
AcDbEntity
  8
DFW_TAXIWAY_GUIDANCE_LINE
 62
    91
100
AcDbPolyline
 90
        5
 70
     0
 10
-97.030677
 20
32.879768
 10
-97.030589
 20
32.879777
 10
-97.030522
 20
32.879792
 10
-97.030465
 20
32.879811
 10
-97.030397
 20
32.879845
  0
LWPOLYLINE
  5
AB
100
AcDbEntity
  8
DFW_TAXIWAY_GUIDANCE_LINE
 62
    91
100
AcDbPolyline
 90
       10
 70
     0
 10
-97.032029
 20
32.880143
 10
-97.032009
 20
32.880076
 10
-97.031992
 20
32.880026
 10
-97.031941
 20
32.879949
 10
-97.031881
 20
32.879893
 10
-97.031824
 20
32.879848
 10
-97.031758
 20
32.879817
 10
-97.031714
 20
32.879801
 10
-97.031645
 20
32.879783
 10
-97.031563
 20
32.879771
  0
LWPOLYLINE
  5
AC
100
AcDbEntity
  8
DFW_TAXIWAY_GUIDANCE_LINE
 62
    91
100
AcDbPolyline
 90
       11
 70
     0
 10
-97.030398
 20
32.879767
 10
-97.03242
 20
32.879774
 10
-97.032491
 20
32.879778
 10
-97.032566
 20
32.879799
 10
-97.032636
 20
32.879824
 10
-97.032714
 20
32.879866
 10
-97.032765
 20
32.879908
 10
-97.032817
 20
32.879964
 10
-97.032858
 20
32.880022
 10
-97.032878
 20
32.880073
 10
-97.032898
 20
32.880141
  0
LWPOLYLINE
  5
AD
100
AcDbEntity
  8
DFW_TAXIWAY_GUIDANCE_LINE
 62
    91
100
AcDbPolyline
 90
       11
 70
     0
 10
-97.032033
 20
32.879429
 10
-97.032021
 20
32.879369
 10
-97.032008
 20
32.879316
 10
-97.031979
 20
32.879258
 10
-97.031941
 20
32.879211
 10
-97.031894
 20
32.87916
 10
-97.031832
 20
32.879117
 10
-97.031779
 20
32.879091
 10
-97.031707
 20
32.879062
 10
-97.031645
 20
32.879048
 10
-97.031596
 20
32.879041
  0
LWPOLYLINE
  5
AE
100
AcDbEntity
  8
DFW_TAXIWAY_GUIDANCE_LINE
 62
    91
100
AcDbPolyline
 90
        8
 70
     0
 10
-97.032254
 20
32.879106
 10
-97.03221
 20
32.879135
 10
-97.032158
 20
32.879182
 10
-97.032114
 20
32.879227
 10
-97.032082
 20
32.879275
 10
-97.032058
 20
32.879323
 10
-97.032046
 20
32.879363
 10
-97.032033
 20
32.879429
  0
LWPOLYLINE
  5
AF
100
AcDbEntity
  8
DFW_TAXIWAY_GUIDANCE_LINE
 62
    91
100
AcDbPolyline
 90
       16
 70
     0
 10
-97.032902
 20
32.879419
 10
-97.032898
 20
32.879384
 10
-97.032887
 20
32.879339
 10
-97.032859
 20
32.879284
 10
-97.032826
 20
32.879231
 10
-97.032782
 20
32.879178
 10
-97.032719
 20
32.879128
 10
-97.032657
 20
32.879096
 10
-97.032598
 20
32.879074
 10
-97.032552
 20
32.879058
 10
-97.032516
 20
32.87905
 10
-97.032477
 20
32.879044
 10
-97.032435
 20
32.879048
 10
-97.032371
 20
32.879061
 10
-97.032304
 20
32.879085
 10
-97.032254
 20
32.879106
  0
LWPOLYLINE
  5
B0
100
AcDbEntity
  8
DFW_TAXIWAY_GUIDANCE_LINE
 62
    91
100
AcDbPolyline
 90
       12
 70
     0
 10
-97.032902
 20
32.879419
 10
-97.032912
 20
32.87937
 10
-97.03293
 20
32.879319
 10
-97.032952
 20
32.879273
 10
-97.032988
 20
32.879223
 10
-97.033021
 20
32.879184
 10
-97.033064
 20
32.879146
 10
-97.033101
 20
32.879121
 10
-97.033146
 20
32.879097
 10
-97.033203
 20
32.879074
 10
-97.033254
 20
32.87906
 10
-97.033314
 20
32.879048
  0
LWPOLYLINE
  5
B1
100
AcDbEntity
  8
DFW_TAXIWAY_GUIDANCE_LINE
 62
    91
100
AcDbPolyline
 90
       10
 70
     0
 10
-97.032462
 20
32.881994
 10
-97.032401
 20
32.882002
 10
-97.032337
 20
32.882017
 10
-97.03226
 20
32.882053
 10
-97.03219
 20
32.882092
 10
-97.032134
 20
32.882147
 10
-97.032096
 20
32.882191
 10
-97.032053
 20
32.88225
 10
-97.032031
 20
32.882312
 10
-97.032015
 20
32.882369
  0
LWPOLYLINE
  5
B2
100
AcDbEntity
  8
DFW_TAXIWAY_GUIDANCE_LINE
 62
    91
100
AcDbPolyline
 90
       11
 70
     0
 10
-97.032486
 20
32.881994
 10
-97.032442
 20
32.881993
 10
-97.032373
 20
32.881978
 10
-97.032285
 20
32.881948
 10
-97.03222
 20
32.881913
 10
-97.032159
 20
32.881864
 10
-97.032109
 20
32.881812
 10
-97.032075
 20
32.881766
 10
-97.032053
 20
32.881726
 10
-97.032037
 20
32.881686
 10
-97.032024
 20
32.881635
  0
LWPOLYLINE
  5
B3
100
AcDbEntity
  8
DFW_TAXIWAY_GUIDANCE_LINE
 62
    91
100
AcDbPolyline
 90
        4
 70
     0
 10
-97.033738
 20
32.898903
 10
-97.033152
 20
32.898896
 10
-97.032543
 20
32.898895
 10
-97.03193
 20
32.89889
  0
LWPOLYLINE
  5
B4
100
AcDbEntity
  8
DFW_TAXIWAY_GUIDANCE_LINE
 62
    91
100
AcDbPolyline
 90
        2
 70
     0
 10
-97.033152
 20
32.898211
 10
-97.033319
 20
32.898212
  0
LWPOLYLINE
  5
B5
100
AcDbEntity
  8
DFW_TAXIWAY_GUIDANCE_LINE
 62
    91
100
AcDbPolyline
 90
        3
 70
     0
 10
-97.033738
 20
32.897529
 10
-97.033159
 20
32.897521
 10
-97.032544
 20
32.897527
  0
LWPOLYLINE
  5
B6
100
AcDbEntity
  8
DFW_TAXIWAY_GUIDANCE_LINE
 62
    91
100
AcDbPolyline
 90
        2
 70
     0
 10
-97.033165
 20
32.896838
 10
-97.033324
 20
32.896841
  0
LWPOLYLINE
  5
B7
100
AcDbEntity
  8
DFW_TAXIWAY_GUIDANCE_LINE
 62
    91
100
AcDbPolyline
 90
        3
 70
     0
 10
-97.032563
 20
32.896149
 10
-97.033167
 20
32.89615
 10
-97.03375
 20
32.896157
  0
LWPOLYLINE
  5
B8
100
AcDbEntity
  8
DFW_TAXIWAY_GUIDANCE_LINE
 62
    91
100
AcDbPolyline
 90
       10
 70
     0
 10
-97.030325
 20
32.892945
 10
-97.030399
 20
32.89277
 10
-97.030455
 20
32.892652
 10
-97.030514
 20
32.892543
 10
-97.030662
 20
32.892287
 10
-97.031013
 20
32.891761
 10
-97.031505
 20
32.891051
 10
-97.031737
 20
32.890721
 10
-97.031835
 20
32.890585
 10
-97.031975
 20
32.890386
  0
LWPOLYLINE
  5
B9
100
AcDbEntity
  8
DFW_TAXIWAY_GUIDANCE_LINE
 62
    91
100
AcDbPolyline
 90
        5
 70
     0
 10
-97.031954
 20
32.893944
 10
-97.03075
 20
32.892155
 10
-97.030502
 20
32.891738
 10
-97.030435
 20
32.891588
 10
-97.030333
 20
32.891374
  0
LWPOLYLINE
  5
BA
100
AcDbEntity
  8
DFW_TAXIWAY_GUIDANCE_LINE
 62
    91
100
AcDbPolyline
 90
        7
 70
     0
 10
-97.031954
 20
32.893949
 10
-97.030787
 20
32.89564
 10
-97.030606
 20
32.895929
 10
-97.030534
 20
32.896064
 10
-97.030451
 20
32.896217
 10
-97.030371
 20
32.896379
 10
-97.030306
 20
32.896531
  0
LWPOLYLINE
  5
BB
100
AcDbEntity
  8
DFW_TAXIWAY_GUIDANCE_LINE
 62
    91
100
AcDbPolyline
 90
        2
 70
     0
 10
-97.033174
 20
32.894169
 10
-97.033708
 20
32.894176
  0
LWPOLYLINE
  5
BC
100
AcDbEntity
  8
DFW_TAXIWAY_GUIDANCE_LINE
 62
    91
100
AcDbPolyline
 90
        7
 70
     0
 10
-97.033708
 20
32.893957
 10
-97.033176
 20
32.893952
 10
-97.032552
 20
32.893952
 10
-97.031954
 20
32.893945
 10
-97.031195
 20
32.893944
 10
-97.030704
 20
32.89394
 10
-97.03032
 20
32.893946
  0
LWPOLYLINE
  5
BD
100
AcDbEntity
  8
DFW_TAXIWAY_GUIDANCE_LINE
 62
    91
100
AcDbPolyline
 90
        2
 70
     0
 10
-97.033709
 20
32.893787
 10
-97.033177
 20
32.893784
  0
LWPOLYLINE
  5
BE
100
AcDbEntity
  8
DFW_TAXIWAY_GUIDANCE_LINE
 62
    91
100
AcDbPolyline
 90
        5
 70
     0
 10
-97.033728
 20
32.891759
 10
-97.033351
 20
32.891756
 10
-97.033188
 20
32.891754
 10
-97.03259
 20
32.891751
 10
-97.031969
 20
32.89175
  0
LWPOLYLINE
  5
BF
100
AcDbEntity
  8
DFW_TAXIWAY_GUIDANCE_LINE
 62
    91
100
AcDbPolyline
 90
        3
 70
     0
 10
-97.033731
 20
32.891072
 10
-97.033352
 20
32.89107
 10
-97.033193
 20
32.891071
  0
LWPOLYLINE
  5
C0
100
AcDbEntity
  8
DFW_TAXIWAY_GUIDANCE_LINE
 62
    91
100
AcDbPolyline
 90
        4
 70
     0
 10
-97.030338
 20
32.890415
 10
-97.030387
 20
32.890393
 10
-97.030425
 20
32.890381
 10
-97.030488
 20
32.890369
  0
LWPOLYLINE
  5
C1
100
AcDbEntity
  8
DFW_TAXIWAY_GUIDANCE_LINE
 62
    91
100
AcDbPolyline
 90
        4
 70
     0
 10
-97.033731
 20
32.890384
 10
-97.032598
 20
32.890371
 10
-97.031975
 20
32.890376
 10
-97.030339
 20
32.890368
  0
LWPOLYLINE
  5
C2
100
AcDbEntity
  8
DFW_TAXIWAY_GUIDANCE_LINE
 62
    91
100
AcDbPolyline
 90
        3
 70
     0
 10
-97.033199
 20
32.889695
 10
-97.033359
 20
32.889698
 10
-97.033729
 20
32.889699
  0
LWPOLYLINE
  5
C3
100
AcDbEntity
  8
DFW_TAXIWAY_GUIDANCE_LINE
 62
    91
100
AcDbPolyline
 90
        5
 70
     0
 10
-97.03198
 20
32.889006
 10
-97.032582
 20
32.889008
 10
-97.033201
 20
32.889009
 10
-97.033361
 20
32.889009
 10
-97.033738
 20
32.889012
  0
LWPOLYLINE
  5
C4
100
AcDbEntity
  8
DFW_TAXIWAY_GUIDANCE_LINE
 62
    91
100
AcDbPolyline
 90
        9
 70
     0
 10
-97.032
 20
32.886022
 10
-97.031736
 20
32.886393
 10
-97.031515
 20
32.886722
 10
-97.030776
 20
32.887787
 10
-97.030597
 20
32.888077
 10
-97.030528
 20
32.888204
 10
-97.030471
 20
32.888323
 10
-97.030405
 20
32.888457
 10
-97.030348
 20
32.888596
  0
LWPOLYLINE
  5
C5
100
AcDbEntity
  8
DFW_TAXIWAY_GUIDANCE_LINE
 62
    91
100
AcDbPolyline
 90
       18
 70
     0
 10
-97.032876
 20
32.884605
 10
-97.032861
 20
32.884677
 10
-97.032825
 20
32.884744
 10
-97.032776
 20
32.884817
 10
-97.032732
 20
32.884861
 10
-97.03267
 20
32.884907
 10
-97.032603
 20
32.884943
 10
-97.032551
 20
32.884959
 10
-97.032498
 20
32.884972
 10
-97.03243
 20
32.884981
 10
-97.032373
 20
32.884975
 10
-97.032283
 20
32.884948
 10
-97.032209
 20
32.884911
 10
-97.032145
 20
32.884865
 10
-97.032094
 20
32.884818
 10
-97.032059
 20
32.884765
 10
-97.032031
 20
32.884711
 10
-97.032007
 20
32.884634
  0
LWPOLYLINE
  5
C6
100
AcDbEntity
  8
DFW_TAXIWAY_GUIDANCE_LINE
 62
    91
100
AcDbPolyline
 90
        9
 70
     0
 10
-97.032007
 20
32.884634
 10
-97.031986
 20
32.884701
 10
-97.031955
 20
32.884761
 10
-97.031904
 20
32.884824
 10
-97.031848
 20
32.884873
 10
-97.031778
 20
32.884916
 10
-97.031713
 20
32.884944
 10
-97.031667
 20
32.884962
 10
-97.031595
 20
32.884982
  0
LWPOLYLINE
  5
C7
100
AcDbEntity
  8
DFW_TAXIWAY_GUIDANCE_LINE
 62
    91
100
AcDbPolyline
 90
       12
 70
     0
 10
-97.033588
 20
32.884882
 10
-97.033526
 20
32.884919
 10
-97.033468
 20
32.884947
 10
-97.033405
 20
32.884969
 10
-97.033359
 20
32.884981
 10
-97.033308
 20
32.884985
 10
-97.033262
 20
32.884978
 10
-97.033201
 20
32.884965
 10
-97.033112
 20
32.88493
 10
-97.03305
 20
32.88489
 10
-97.033011
 20
32.88486
 10
-97.032939
 20
32.884781
  0
LWPOLYLINE
  5
C8
100
AcDbEntity
  8
DFW_TAXIWAY_GUIDANCE_LINE
 62
    91
100
AcDbPolyline
 90
       15
 70
     0
 10
-97.033054
 20
32.884991
 10
-97.033189
 20
32.885251
 10
-97.033206
 20
32.885302
 10
-97.03322
 20
32.885362
 10
-97.033232
 20
32.885323
 10
-97.033255
 20
32.885253
 10
-97.033284
 20
32.885196
 10
-97.033311
 20
32.885159
 10
-97.03349
 20
32.88499
 10
-97.03359
 20
32.884881
 10
-97.033632
 20
32.884841
 10
-97.033683
 20
32.884771
 10
-97.033712
 20
32.884721
 10
-97.033736
 20
32.884653
 10
-97.033745
 20
32.8846
  0
LWPOLYLINE
  5
C9
100
AcDbEntity
  8
DFW_TAXIWAY_GUIDANCE_LINE
 62
    91
100
AcDbPolyline
 90
        2
 70
     0
 10
-97.033222
 20
32.884991
 10
-97.03322
 20
32.885507
  0
LWPOLYLINE
  5
CA
100
AcDbEntity
  8
DFW_TAXIWAY_GUIDANCE_LINE
 62
    91
100
AcDbPolyline
 90
        5
 70
     0
 10
-97.032902
 20
32.879419
 10
-97.032873
 20
32.884564
 10
-97.03288
 20
32.884645
 10
-97.0329
 20
32.884712
 10
-97.033054
 20
32.884991
  0
LWPOLYLINE
  5
CB
100
AcDbEntity
  8
DFW_TAXIWAY_GUIDANCE_LINE
 62
    91
100
AcDbPolyline
 90
        2
 70
     0
 10
-97.032033
 20
32.879042
 10
-97.032033
 20
32.879429
  0
LWPOLYLINE
  5
CC
100
AcDbEntity
  8
DFW_TAXIWAY_GUIDANCE_LINE
 62
    91
100
AcDbPolyline
 90
       23
 70
     0
 10
-97.034204
 20
32.884993
 10
-97.034142
 20
32.884985
 10
-97.034077
 20
32.88497
 10
-97.03402
 20
32.88495
 10
-97.033949
 20
32.884914
 10
-97.033868
 20
32.884854
 10
-97.03383
 20
32.884814
 10
-97.033786
 20
32.884745
 10
-97.033758
 20
32.884685
 10
-97.033745
 20
32.884618
 10
-97.033744
 20
32.88456
 10
-97.033754
 20
32.882423
 10
-97.033763
 20
32.881574
 10
-97.033779
 20
32.879457
 10
-97.033764
 20
32.879363
 10
-97.033722
 20
32.879274
 10
-97.033682
 20
32.879217
 10
-97.033639
 20
32.879176
 10
-97.033579
 20
32.879131
 10
-97.033511
 20
32.879095
 10
-97.033431
 20
32.879062
 10
-97.033364
 20
32.879048
 10
-97.030402
 20
32.879036
  0
LWPOLYLINE
  5
CD
100
AcDbEntity
  8
DFW_TAXIWAY_GUIDANCE_LINE
 62
    91
100
AcDbPolyline
 90
        7
 70
     0
 10
-97.031947
 20
32.895578
 10
-97.032007
 20
32.884567
 10
-97.032013
 20
32.88436
 10
-97.032015
 20
32.882427
 10
-97.032024
 20
32.881593
 10
-97.032023
 20
32.881257
 10
-97.032033
 20
32.879429
  0
LWPOLYLINE
  5
CE
100
AcDbEntity
  8
DFW_TAXIWAY_GUIDANCE_LINE
 62
    91
100
AcDbPolyline
 90
        3
 70
     0
 10
-97.030367
 20
32.88498
 10
-97.030701
 20
32.884979
 10
-97.031339
 20
32.88498
  0
LWPOLYLINE
  5
CF
100
AcDbEntity
  8
DFW_TAXIWAY_GUIDANCE_LINE
 62
    91
100
AcDbPolyline
 90
        2
 70
     0
 10
-97.035474
 20
32.884997
 10
-97.031339
 20
32.88498
  0
LWPOLYLINE
  5
D0
100
AcDbEntity
  8
DFW_TAXIWAY_GUIDANCE_LINE
 62
    91
100
AcDbPolyline
 90
       19
 70
     0
 10
-97.034892
 20
32.886026
 10
-97.034891
 20
32.885743
 10
-97.034895
 20
32.884996
 10
-97.034894
 20
32.884859
 10
-97.034854
 20
32.884735
 10
-97.034857
 20
32.884571
 10
-97.034867
 20
32.882609
 10
-97.03485
 20
32.882499
 10
-97.034812
 20
32.882398
 10
-97.034755
 20
32.882296
 10
-97.034681
 20
32.882215
 10
-97.034613
 20
32.882161
 10
-97.034546
 20
32.882116
 10
-97.034479
 20
32.882081
 10
-97.034419
 20
32.882055
 10
-97.034363
 20
32.882039
 10
-97.034263
 20
32.882013
 10
-97.034188
 20
32.882002
 10
-97.032486
 20
32.881994
  0
LWPOLYLINE
  5
D1
100
AcDbEntity
  8
DFW_TAXIWAY_GUIDANCE_LINE
 62
    91
100
AcDbPolyline
 90
        3
 70
     0
 10
-97.034294
 20
32.886026
 10
-97.034298
 20
32.88616
 10
-97.034296
 20
32.886481
  0
LWPOLYLINE
  5
D2
100
AcDbEntity
  8
DFW_TAXIWAY_GUIDANCE_LINE
 62
    91
100
AcDbPolyline
 90
        3
 70
     0
 10
-97.034635
 20
32.886026
 10
-97.034638
 20
32.886162
 10
-97.034637
 20
32.886483
  0
LWPOLYLINE
  5
D3
100
AcDbEntity
  8
DFW_TAXIWAY_GUIDANCE_LINE
 62
    91
100
AcDbPolyline
 90
        3
 70
     0
 10
-97.034921
 20
32.886026
 10
-97.034921
 20
32.886164
 10
-97.034919
 20
32.886483
  0
LWPOLYLINE
  5
D4
100
AcDbEntity
  8
DFW_TAXIWAY_GUIDANCE_LINE
 62
    91
100
AcDbPolyline
 90
        3
 70
     0
 10
-97.035751
 20
32.886026
 10
-97.035751
 20
32.886168
 10
-97.035743
 20
32.886486
  0
LWPOLYLINE
  5
D5
100
AcDbEntity
  8
DFW_TAXIWAY_GUIDANCE_LINE
 62
    91
100
AcDbPolyline
 90
        2
 70
     0
 10
-97.036341
 20
32.886028
 10
-97.030363
 20
32.886008
  0
LWPOLYLINE
  5
D6
100
AcDbEntity
  8
DFW_TAXIWAY_GUIDANCE_LINE
 62
    91
100
AcDbPolyline
 90
        6
 70
     0
 10
-97.033152
 20
32.89801
 10
-97.033152
 20
32.89801
 10
-97.033168
 20
32.896637
 10
-97.03319
 20
32.891275
 10
-97.033197
 20
32.890885
 10
-97.03322
 20
32.885507
  0
LWPOLYLINE
  5
D7
100
AcDbEntity
  8
DFW_TAXIWAY_GUIDANCE_LINE
 62
    91
100
AcDbPolyline
 90
        5
 70
     0
 10
-97.03046
 20
32.904662
 10
-97.030397
 20
32.904653
 10
-97.030339
 20
32.90464
 10
-97.030309
 20
32.904627
 10
-97.030266
 20
32.904607
  0
LWPOLYLINE
  5
D8
100
AcDbEntity
  8
DFW_TAXIWAY_GUIDANCE_LINE
 62
    91
100
AcDbPolyline
 90
        4
 70
     0
 10
-97.030265
 20
32.904705
 10
-97.030331
 20
32.904681
 10
-97.030391
 20
32.904672
 10
-97.03046
 20
32.904662
  0
LWPOLYLINE
  5
D9
100
AcDbEntity
  8
DFW_TAXIWAY_GUIDANCE_LINE
 62
    91
100
AcDbPolyline
 90
        5
 70
     0
 10
-97.030217
 20
32.914793
 10
-97.030262
 20
32.91481
 10
-97.030309
 20
32.914823
 10
-97.030352
 20
32.914835
 10
-97.030422
 20
32.914852
  0
LWPOLYLINE
  5
DA
100
AcDbEntity
  8
DFW_TAXIWAY_GUIDANCE_LINE
 62
    91
100
AcDbPolyline
 90
        3
 70
     0
 10
-97.033582
 20
32.915316
 10
-97.033584
 20
32.915598
 10
-97.033188
 20
32.915597
  0
LWPOLYLINE
  5
DB
100
AcDbEntity
  8
DFW_TAXIWAY_GUIDANCE_LINE
 62
    91
100
AcDbPolyline
 90
        9
 70
     0
 10
-97.032713
 20
32.91526
 10
-97.032694
 20
32.915347
 10
-97.032658
 20
32.915408
 10
-97.032607
 20
32.915466
 10
-97.032548
 20
32.915514
 10
-97.032485
 20
32.915553
 10
-97.032428
 20
32.915574
 10
-97.032374
 20
32.915589
 10
-97.03233
 20
32.915595
  0
LWPOLYLINE
  5
DC
100
AcDbEntity
  8
DFW_TAXIWAY_GUIDANCE_LINE
 62
    91
100
AcDbPolyline
 90
        8
 70
     0
 10
-97.031843
 20
32.915269
 10
-97.031826
 20
32.91534
 10
-97.031796
 20
32.915398
 10
-97.031745
 20
32.915461
 10
-97.031693
 20
32.915503
 10
-97.031623
 20
32.915546
 10
-97.031557
 20
32.915572
 10
-97.03149
 20
32.915591
  0
LWPOLYLINE
  5
DD
100
AcDbEntity
  8
DFW_TAXIWAY_GUIDANCE_LINE
 62
    91
100
AcDbPolyline
 90
        9
 70
     0
 10
-97.031851
 20
32.914517
 10
-97.031823
 20
32.914604
 10
-97.031795
 20
32.914661
 10
-97.031753
 20
32.914716
 10
-97.03171
 20
32.914758
 10
-97.03164
 20
32.914803
 10
-97.031574
 20
32.91483
 10
-97.031517
 20
32.914845
 10
-97.031446
 20
32.914857
  0
LWPOLYLINE
  5
DE
100
AcDbEntity
  8
DFW_TAXIWAY_GUIDANCE_LINE
 62
    91
100
AcDbPolyline
 90
       10
 70
     0
 10
-97.03272
 20
32.914537
 10
-97.0327
 20
32.9146
 10
-97.032672
 20
32.914659
 10
-97.032633
 20
32.914711
 10
-97.032578
 20
32.914761
 10
-97.032532
 20
32.914793
 10
-97.032482
 20
32.914818
 10
-97.032423
 20
32.91484
 10
-97.032364
 20
32.914853
 10
-97.032321
 20
32.914861
  0
LWPOLYLINE
  5
DF
100
AcDbEntity
  8
DFW_TAXIWAY_GUIDANCE_LINE
 62
    91
100
AcDbPolyline
 90
        6
 70
     0
 10
-97.030217
 20
32.914851
 10
-97.030518
 20
32.914853
 10
-97.031391
 20
32.914856
 10
-97.031847
 20
32.914858
 10
-97.032279
 20
32.91486
 10
-97.032716
 20
32.914865
  0
LWPOLYLINE
  5
E0
100
AcDbEntity
  8
DFW_TAXIWAY_GUIDANCE_LINE
 62
    91
100
AcDbPolyline
 90
        4
 70
     0
 10
-97.030221
 20
32.914064
 10
-97.030279
 20
32.914083
 10
-97.030334
 20
32.914097
 10
-97.030426
 20
32.914121
  0
LWPOLYLINE
  5
E1
100
AcDbEntity
  8
DFW_TAXIWAY_GUIDANCE_LINE
 62
    91
100
AcDbPolyline
 90
        4
 70
     0
 10
-97.031852
 20
32.914123
 10
-97.031229
 20
32.914122
 10
-97.030696
 20
32.914121
 10
-97.030221
 20
32.91412
  0
LWPOLYLINE
  5
E2
100
AcDbEntity
  8
DFW_TAXIWAY_GUIDANCE_LINE
 62
    91
100
AcDbPolyline
 90
        7
 70
     0
 10
-97.03243
 20
32.909031
 10
-97.032325
 20
32.909045
 10
-97.032205
 20
32.909087
 10
-97.032113
 20
32.909133
 10
-97.032043
 20
32.909189
 10
-97.032
 20
32.909241
 10
-97.03187
 20
32.90938
  0
LWPOLYLINE
  5
E3
100
AcDbEntity
  8
DFW_TAXIWAY_GUIDANCE_LINE
 62
    91
100
AcDbPolyline
 90
        7
 70
     0
 10
-97.030279
 20
32.902083
 10
-97.03039
 20
32.902346
 10
-97.030493
 20
32.90254
 10
-97.030598
 20
32.902727
 10
-97.030691
 20
32.90288
 10
-97.031424
 20
32.903954
 10
-97.031895
 20
32.904662
  0
LWPOLYLINE
  5
E4
100
AcDbEntity
  8
DFW_TAXIWAY_GUIDANCE_LINE
 62
    91
100
AcDbPolyline
 90
        9
 70
     0
 10
-97.030297
 20
32.898505
 10
-97.030389
 20
32.898689
 10
-97.030459
 20
32.89884
 10
-97.030535
 20
32.898997
 10
-97.0306
 20
32.899119
 10
-97.030789
 20
32.899425
 10
-97.031399
 20
32.900327
 10
-97.031629
 20
32.900673
 10
-97.031914
 20
32.901092
  0
LWPOLYLINE
  5
E5
100
AcDbEntity
  8
DFW_TAXIWAY_GUIDANCE_LINE
 62
    91
100
AcDbPolyline
 90
        2
 70
     0
 10
-97.03315
 20
32.899504
 10
-97.033742
 20
32.899507
  0
LWPOLYLINE
  5
E6
100
AcDbEntity
  8
DFW_TAXIWAY_GUIDANCE_LINE
 62
    91
100
AcDbPolyline
 90
        2
 70
     0
 10
-97.031944
 20
32.896148
 10
-97.032563
 20
32.896149
  0
LWPOLYLINE
  5
E7
100
AcDbEntity
  8
DFW_TAXIWAY_GUIDANCE_LINE
 62
    91
100
AcDbPolyline
 90
        4
 70
     0
 10
-97.031942
 20
32.897019
 10
-97.031943
 20
32.896816
 10
-97.031942
 20
32.89663
 10
-97.031947
 20
32.895578
  0
LWPOLYLINE
  5
E8
100
AcDbEntity
  8
DFW_TAXIWAY_GUIDANCE_LINE
 62
    91
100
AcDbPolyline
 90
       20
 70
     0
 10
-97.03194
 20
32.897243
 10
-97.031906
 20
32.897296
 10
-97.031883
 20
32.897328
 10
-97.031837
 20
32.897379
 10
-97.031784
 20
32.897422
 10
-97.031784
 20
32.897422
 10
-97.031718
 20
32.897462
 10
-97.031659
 20
32.897485
 10
-97.031608
 20
32.8975
 10
-97.03156
 20
32.89751
 10
-97.03152
 20
32.897516
 10
-97.03152
 20
32.897516
 10
-97.031598
 20
32.897534
 10
-97.031665
 20
32.897555
 10
-97.031719
 20
32.897577
 10
-97.031779
 20
32.897615
 10
-97.031831
 20
32.897659
 10
-97.031867
 20
32.897699
 10
-97.031907
 20
32.897761
 10
-97.031936
 20
32.897813
  0
LWPOLYLINE
  5
E9
100
AcDbEntity
  8
DFW_TAXIWAY_GUIDANCE_LINE
 62
    91
100
AcDbPolyline
 90
        4
 70
     0
 10
-97.033147
 20
32.899865
 10
-97.033152
 20
32.899327
 10
-97.033152
 20
32.898393
 10
-97.033152
 20
32.89801
  0
LWPOLYLINE
  5
EA
100
AcDbEntity
  8
DFW_TAXIWAY_GUIDANCE_LINE
 62
    91
100
AcDbPolyline
 90
        2
 70
     0
 10
-97.033141
 20
32.900898
 10
-97.033696
 20
32.900898
  0
LWPOLYLINE
  5
EB
100
AcDbEntity
  8
DFW_TAXIWAY_GUIDANCE_LINE
 62
    91
100
AcDbPolyline
 90
        7
 70
     0
 10
-97.033696
 20
32.901101
 10
-97.03314
 20
32.901104
 10
-97.032521
 20
32.9011
 10
-97.031914
 20
32.901097
 10
-97.031172
 20
32.901095
 10
-97.030773
 20
32.901093
 10
-97.030284
 20
32.901094
  0
LWPOLYLINE
  5
EC
100
AcDbEntity
  8
DFW_TAXIWAY_GUIDANCE_LINE
 62
    91
100
AcDbPolyline
 90
        2
 70
     0
 10
-97.033138
 20
32.901308
 10
-97.033696
 20
32.901309
  0
LWPOLYLINE
  5
ED
100
AcDbEntity
  8
DFW_TAXIWAY_GUIDANCE_LINE
 62
    91
100
AcDbPolyline
 90
        4
 70
     0
 10
-97.031905
 20
32.903295
 10
-97.032519
 20
32.903295
 10
-97.033129
 20
32.903299
 10
-97.033719
 20
32.903301
  0
LWPOLYLINE
  5
EE
100
AcDbEntity
  8
DFW_TAXIWAY_GUIDANCE_LINE
 62
    91
100
AcDbPolyline
 90
        7
 70
     0
 10
-97.033708
 20
32.904675
 10
-97.033122
 20
32.904671
 10
-97.032525
 20
32.904665
 10
-97.031895
 20
32.904669
 10
-97.031167
 20
32.904664
 10
-97.030608
 20
32.904664
 10
-97.030265
 20
32.904661
  0
LWPOLYLINE
  5
EF
100
AcDbEntity
  8
DFW_TAXIWAY_GUIDANCE_LINE
 62
    91
100
AcDbPolyline
 90
        2
 70
     0
 10
-97.033117
 20
32.905359
 10
-97.033703
 20
32.905361
  0
LWPOLYLINE
  5
F0
100
AcDbEntity
  8
DFW_TAXIWAY_GUIDANCE_LINE
 62
    91
100
AcDbPolyline
 90
        4
 70
     0
 10
-97.033705
 20
32.90605
 10
-97.033115
 20
32.906047
 10
-97.032498
 20
32.906046
 10
-97.031897
 20
32.906044
  0
LWPOLYLINE
  5
F1
100
AcDbEntity
  8
DFW_TAXIWAY_GUIDANCE_LINE
 62
    91
100
AcDbPolyline
 90
        2
 70
     0
 10
-97.033112
 20
32.906652
 10
-97.033698
 20
32.906654
  0
LWPOLYLINE
  5
F2
100
AcDbEntity
  8
DFW_TAXIWAY_GUIDANCE_LINE
 62
    91
100
AcDbPolyline
 90
        3
 70
     0
 10
-97.033147
 20
32.899865
 10
-97.033091
 20
32.910066
 10
-97.032739
 20
32.910486
  0
LWPOLYLINE
  5
F3
100
AcDbEntity
  8
DFW_TAXIWAY_GUIDANCE_LINE
 62
    91
100
AcDbPolyline
 90
        7
 70
     0
 10
-97.033752
 20
32.909038
 10
-97.033097
 20
32.909034
 10
-97.032491
 20
32.909031
 10
-97.031873
 20
32.909033
 10
-97.031228
 20
32.909027
 10
-97.030748
 20
32.909024
 10
-97.030245
 20
32.909022
  0
LWPOLYLINE
  5
F4
100
AcDbEntity
  8
DFW_TAXIWAY_GUIDANCE_LINE
 62
    91
100
AcDbPolyline
 90
       22
 70
     0
 10
-97.032374
 20
32.910066
 10
-97.032347
 20
32.910059
 10
-97.032296
 20
32.910042
 10
-97.032216
 20
32.910012
 10
-97.032149
 20
32.909982
 10
-97.032102
 20
32.909953
 10
-97.032039
 20
32.909898
 10
-97.031995
 20
32.909854
 10
-97.031949
 20
32.909805
 10
-97.031906
 20
32.909755
 10
-97.0318
 20
32.909626
 10
-97.031756
 20
32.909594
 10
-97.031714
 20
32.90957
 10
-97.03166
 20
32.909552
 10
-97.031613
 20
32.909544
 10
-97.031612
 20
32.909544
 10
-97.031661
 20
32.909539
 10
-97.031706
 20
32.909523
 10
-97.03174
 20
32.909507
 10
-97.03177
 20
32.909487
 10
-97.031799
 20
32.909464
 10
-97.03187
 20
32.90938
  0
LWPOLYLINE
  5
F5
100
AcDbEntity
  8
DFW_TAXIWAY_GUIDANCE_LINE
 62
    91
100
AcDbPolyline
 90
       12
 70
     0
 10
-97.032331
 20
32.910066
 10
-97.032344
 20
32.91007
 10
-97.032437
 20
32.91009
 10
-97.032485
 20
32.910108
 10
-97.032542
 20
32.910139
 10
-97.032588
 20
32.91017
 10
-97.032629
 20
32.910206
 10
-97.032659
 20
32.91024
 10
-97.03269
 20
32.910281
 10
-97.032711
 20
32.910327
 10
-97.032726
 20
32.91037
 10
-97.032743
 20
32.910438
  0
LWPOLYLINE
  5
F6
100
AcDbEntity
  8
DFW_TAXIWAY_GUIDANCE_LINE
 62
    91
100
AcDbPolyline
 90
        2
 70
     0
 10
-97.033035
 20
32.910096
 10
-97.033035
 20
32.910096
  0
LWPOLYLINE
  5
F7
100
AcDbEntity
  8
DFW_TAXIWAY_GUIDANCE_LINE
 62
    91
100
AcDbPolyline
 90
        9
 70
     0
 10
-97.032823
 20
32.910242
 10
-97.032918
 20
32.910157
 10
-97.032948
 20
32.910133
 10
-97.032986
 20
32.910112
 10
-97.033035
 20
32.910096
 10
-97.033075
 20
32.910086
 10
-97.033158
 20
32.910073
 10
-97.033224
 20
32.910075
 10
-97.033316
 20
32.910099
  0
LWPOLYLINE
  5
F8
100
AcDbEntity
  8
DFW_TAXIWAY_GUIDANCE_LINE
 62
    91
100
AcDbPolyline
 90
        7
 70
     0
 10
-97.033091
 20
32.909745
 10
-97.033059
 20
32.909837
 10
-97.032928
 20
32.910066
 10
-97.032773
 20
32.910326
 10
-97.032756
 20
32.910371
 10
-97.032745
 20
32.910414
 10
-97.032739
 20
32.910486
  0
LWPOLYLINE
  5
F9
100
AcDbEntity
  8
DFW_TAXIWAY_GUIDANCE_LINE
 62
    91
100
AcDbPolyline
 90
        6
 70
     0
 10
-97.033334
 20
32.910067
 10
-97.033222
 20
32.909969
 10
-97.033175
 20
32.909913
 10
-97.033135
 20
32.909852
 10
-97.033111
 20
32.909804
 10
-97.033091
 20
32.909745
  0
LWPOLYLINE
  5
FA
100
AcDbEntity
  8
DFW_TAXIWAY_GUIDANCE_LINE
 62
    91
100
AcDbPolyline
 90
        4
 70
     0
 10
-97.030242
 20
32.909541
 10
-97.030444
 20
32.909542
 10
-97.031467
 20
32.909544
 10
-97.03187
 20
32.909545
  0
LWPOLYLINE
  5
FB
100
AcDbEntity
  8
DFW_TAXIWAY_GUIDANCE_LINE
 62
    91
100
AcDbPolyline
 90
        6
 70
     0
 10
-97.033334
 20
32.910066
 10
-97.032345
 20
32.910066
 10
-97.031868
 20
32.910063
 10
-97.03122
 20
32.91006
 10
-97.03077
 20
32.910058
 10
-97.030239
 20
32.910057
  0
LWPOLYLINE
  5
FC
100
AcDbEntity
  8
DFW_TAXIWAY_GUIDANCE_LINE
 62
    91
100
AcDbPolyline
 90
        4
 70
     0
 10
-97.032714
 20
32.915596
 10
-97.032713
 20
32.915244
 10
-97.03272
 20
32.914468
 10
-97.032739
 20
32.910486
  0
LWPOLYLINE
  5
FD
100
AcDbEntity
  8
DFW_TAXIWAY_GUIDANCE_LINE
 62
    91
100
AcDbPolyline
 90
        6
 70
     0
 10
-97.033127
 20
32.915597
 10
-97.032289
 20
32.915595
 10
-97.031843
 20
32.915593
 10
-97.031423
 20
32.91559
 10
-97.030529
 20
32.915588
 10
-97.030212
 20
32.915585
  0
LWPOLYLINE
  5
FE
100
AcDbEntity
  8
DFW_TAXIWAY_GUIDANCE_LINE
 62
    91
100
AcDbPolyline
 90
       12
 70
     0
 10
-97.031942
 20
32.897019
 10
-97.031928
 20
32.898391
 10
-97.031932
 20
32.899448
 10
-97.031918
 20
32.900192
 10
-97.031905
 20
32.903555
 10
-97.031898
 20
32.903854
 10
-97.031896
 20
32.905238
 10
-97.031892
 20
32.905513
 10
-97.031897
 20
32.906071
 10
-97.031866
 20
32.910461
 10
-97.031868
 20
32.9106
 10
-97.031843
 20
32.915593
  0
LWPOLYLINE
  5
FF
100
AcDbEntity
  8
DFW_TAXIWAY_GUIDANCE_LINE
 62
    91
100
AcDbPolyline
 90
        5
 70
     0
 10
-97.030301
 20
32.897511
 10
-97.030747
 20
32.897513
 10
-97.031036
 20
32.897516
 10
-97.031461
 20
32.897515
 10
-97.032544
 20
32.897527
  0
LWPOLYLINE
  5
100
100
AcDbEntity
  8
DFW_TAXIWAY_GUIDANCE_LINE
 62
    91
100
AcDbPolyline
 90
        2
 70
     0
 10
-97.034159
 20
32.911431
 10
-97.033606
 20
32.911424
  0
LWPOLYLINE
  5
101
100
AcDbEntity
  8
DFW_TAXIWAY_GUIDANCE_LINE
 62
    91
100
AcDbPolyline
 90
        2
 70
     0
 10
-97.033609
 20
32.911128
 10
-97.034159
 20
32.911136
  0
LWPOLYLINE
  5
102
100
AcDbEntity
  8
DFW_TAXIWAY_GUIDANCE_LINE
 62
    91
100
AcDbPolyline
 90
        9
 70
     0
 10
-97.034607
 20
32.908706
 10
-97.034624
 20
32.908645
 10
-97.03465
 20
32.908566
 10
-97.034686
 20
32.908498
 10
-97.034771
 20
32.908372
 10
-97.034771
 20
32.908372
 10
-97.034821
 20
32.90831
 10
-97.034903
 20
32.908229
 10
-97.035011
 20
32.90815
  0
LWPOLYLINE
  5
103
100
AcDbEntity
  8
DFW_TAXIWAY_GUIDANCE_LINE
 62
    91
100
AcDbPolyline
 90
        5
 70
     0
 10
-97.034582
 20
32.90904
 10
-97.034578
 20
32.908938
 10
-97.03458
 20
32.908855
 10
-97.034589
 20
32.908775
 10
-97.034607
 20
32.908706
  0
LWPOLYLINE
  5
104
100
AcDbEntity
  8
DFW_TAXIWAY_GUIDANCE_LINE
 62
    91
100
AcDbPolyline
 90
       12
 70
     0
 10
-97.035034
 20
32.909041
 10
-97.035036
 20
32.908931
 10
-97.03504
 20
32.908858
 10
-97.03505
 20
32.908797
 10
-97.035061
 20
32.908752
 10
-97.035078
 20
32.908712
 10
-97.035106
 20
32.908656
 10
-97.035145
 20
32.908597
 10
-97.035179
 20
32.908553
 10
-97.035231
 20
32.9085
 10
-97.035295
 20
32.908452
 10
-97.0357
 20
32.90819
  0
LWPOLYLINE
  5
105
100
AcDbEntity
  8
DFW_TAXIWAY_GUIDANCE_LINE
 62
    91
100
AcDbPolyline
 90
        4
 70
     0
 10
-97.033752
 20
32.909038
 10
-97.034082
 20
32.909039
 10
-97.034774
 20
32.90904
 10
-97.035911
 20
32.909045
  0
LWPOLYLINE
  5
106
100
AcDbEntity
  8
DFW_TAXIWAY_GUIDANCE_LINE
 62
    91
100
AcDbPolyline
 90
        4
 70
     0
 10
-97.034768
 20
32.910072
 10
-97.03477
 20
32.909623
 10
-97.034771
 20
32.909407
 10
-97.034774
 20
32.90904
  0
LWPOLYLINE
  5
107
100
AcDbEntity
  8
DFW_TAXIWAY_GUIDANCE_LINE
 62
    91
100
AcDbPolyline
 90
        2
 70
     0
 10
-97.033464
 20
32.910176
 10
-97.033334
 20
32.910067
  0
LWPOLYLINE
  5
108
100
AcDbEntity
  8
DFW_TAXIWAY_GUIDANCE_LINE
 62
    91
100
AcDbPolyline
 90
       10
 70
     0
 10
-97.034052
 20
32.91007
 10
-97.033975
 20
32.910081
 10
-97.033893
 20
32.910108
 10
-97.03384
 20
32.910135
 10
-97.033789
 20
32.910164
 10
-97.03373
 20
32.910216
 10
-97.033686
 20
32.910269
 10
-97.033649
 20
32.910329
 10
-97.033629
 20
32.910384
 10
-97.033615
 20
32.910452
  0
LWPOLYLINE
  5
109
100
AcDbEntity
  8
DFW_TAXIWAY_GUIDANCE_LINE
 62
    91
100
AcDbPolyline
 90
        3
 70
     0
 10
-97.034452
 20
32.910071
 10
-97.034452
 20
32.910397
 10
-97.034454
 20
32.910663
  0
LWPOLYLINE
  5
10A
100
AcDbEntity
  8
DFW_TAXIWAY_GUIDANCE_LINE
 62
    91
100
AcDbPolyline
 90
        3
 70
     0
 10
-97.034914
 20
32.910073
 10
-97.03491
 20
32.910401
 10
-97.034907
 20
32.910668
  0
LWPOLYLINE
  5
10B
100
AcDbEntity
  8
DFW_TAXIWAY_GUIDANCE_LINE
 62
    91
100
AcDbPolyline
 90
        5
 70
     0
 10
-97.033334
 20
32.910066
 10
-97.034052
 20
32.91007
 10
-97.034225
 20
32.910069
 10
-97.034915
 20
32.910073
 10
-97.035433
 20
32.910075
  0
LWPOLYLINE
  5
10C
100
AcDbEntity
  8
DFW_TAXIWAY_GUIDANCE_LINE
 62
    91
100
AcDbPolyline
 90
       19
 70
     0
 10
-97.033127
 20
32.915597
 10
-97.033191
 20
32.915597
 10
-97.033242
 20
32.915592
 10
-97.033309
 20
32.915574
 10
-97.033376
 20
32.915543
 10
-97.033424
 20
32.915516
 10
-97.033479
 20
32.91547
 10
-97.033518
 20
32.915429
 10
-97.033556
 20
32.915373
 10
-97.033582
 20
32.915316
 10
-97.033587
 20
32.915256
 10
-97.033615
 20
32.910452
 10
-97.033603
 20
32.910375
 10
-97.033567
 20
32.910299
 10
-97.033513
 20
32.910228
 10
-97.033464
 20
32.910176
 10
-97.033422
 20
32.910151
 10
-97.033373
 20
32.910126
 10
-97.033316
 20
32.910099
  0
LWPOLYLINE
  5
10D
100
AcDbEntity
  8
DFW_TAXIWAY_GUIDANCE_LINE
 62
    91
100
AcDbPolyline
 90
        7
 70
     0
 10
-97.045587
 20
32.908631
 10
-97.045612
 20
32.908672
 10
-97.045638
 20
32.908717
 10
-97.045664
 20
32.908784
 10
-97.045679
 20
32.908834
 10
-97.045686
 20
32.908882
 10
-97.045679
 20
32.909082
  0
LWPOLYLINE
  5
10E
100
AcDbEntity
  8
DFW_TAXIWAY_GUIDANCE_LINE
 62
    91
100
AcDbPolyline
 90
        5
 70
     0
 10
-97.046104
 20
32.908628
 10
-97.04612
 20
32.908666
 10
-97.046138
 20
32.908722
 10
-97.046163
 20
32.908855
 10
-97.046167
 20
32.909084
  0
LWPOLYLINE
  5
10F
100
AcDbEntity
  8
DFW_TAXIWAY_GUIDANCE_LINE
 62
    91
100
AcDbPolyline
 90
       11
 70
     0
 10
-97.047916
 20
32.915269
 10
-97.047904
 20
32.915326
 10
-97.047876
 20
32.915391
 10
-97.047842
 20
32.915456
 10
-97.04778
 20
32.91552
 10
-97.047709
 20
32.915571
 10
-97.04765
 20
32.915604
 10
-97.047583
 20
32.915627
 10
-97.047541
 20
32.915636
 10
-97.047506
 20
32.915641
 10
-97.04748
 20
32.915647
  0
LWPOLYLINE
  5
110
100
AcDbEntity
  8
DFW_TAXIWAY_GUIDANCE_LINE
 62
    91
100
AcDbPolyline
 90
       21
 70
     0
 10
-97.048784
 20
32.915268
 10
-97.048781
 20
32.915305
 10
-97.048762
 20
32.915361
 10
-97.048724
 20
32.915438
 10
-97.048702
 20
32.915473
 10
-97.048659
 20
32.915517
 10
-97.048597
 20
32.915562
 10
-97.048533
 20
32.915598
 10
-97.048466
 20
32.915628
 10
-97.048414
 20
32.915645
 10
-97.048358
 20
32.915653
 10
-97.048296
 20
32.915645
 10
-97.048233
 20
32.915631
 10
-97.048158
 20
32.915597
 10
-97.048099
 20
32.915563
 10
-97.048033
 20
32.915507
 10
-97.04798
 20
32.915449
 10
-97.047943
 20
32.915383
 10
-97.047923
 20
32.915323
 10
-97.047916
 20
32.915269
 10
-97.047917
 20
32.915252
  0
LWPOLYLINE
  5
111
100
AcDbEntity
  8
DFW_TAXIWAY_GUIDANCE_LINE
 62
    91
100
AcDbPolyline
 90
       11
 70
     0
 10
-97.049234
 20
32.915658
 10
-97.049151
 20
32.915643
 10
-97.049089
 20
32.915626
 10
-97.049021
 20
32.915598
 10
-97.048977
 20
32.915571
 10
-97.048922
 20
32.915526
 10
-97.048866
 20
32.915475
 10
-97.048828
 20
32.91542
 10
-97.048806
 20
32.915366
 10
-97.048791
 20
32.915315
 10
-97.048784
 20
32.915268
  0
LWPOLYLINE
  5
112
100
AcDbEntity
  8
DFW_TAXIWAY_GUIDANCE_LINE
 62
    91
100
AcDbPolyline
 90
       10
 70
     0
 10
-97.048786
 20
32.914538
 10
-97.04881
 20
32.914633
 10
-97.048837
 20
32.914691
 10
-97.048859
 20
32.914731
 10
-97.048903
 20
32.914778
 10
-97.048955
 20
32.91482
 10
-97.049016
 20
32.914858
 10
-97.04907
 20
32.914883
 10
-97.049158
 20
32.914908
 10
-97.04923
 20
32.914922
  0
LWPOLYLINE
  5
113
100
AcDbEntity
  8
DFW_TAXIWAY_GUIDANCE_LINE
 62
    91
100
AcDbPolyline
 90
       14
 70
     0
 10
-97.050423
 20
32.914899
 10
-97.050374
 20
32.914917
 10
-97.050317
 20
32.914925
 10
-97.050262
 20
32.914926
 10
-97.048385
 20
32.914917
 10
-97.048287
 20
32.914907
 10
-97.048218
 20
32.914885
 10
-97.048147
 20
32.914853
 10
-97.04808
 20
32.914811
 10
-97.048031
 20
32.914769
 10
-97.047992
 20
32.914727
 10
-97.047957
 20
32.914667
 10
-97.047935
 20
32.914622
 10
-97.047917
 20
32.914553
  0
LWPOLYLINE
  5
114
100
AcDbEntity
  8
DFW_TAXIWAY_GUIDANCE_LINE
 62
    91
100
AcDbPolyline
 90
       14
 70
     0
 10
-97.050427
 20
32.914163
 10
-97.050391
 20
32.914176
 10
-97.05033
 20
32.914187
 10
-97.050218
 20
32.914193
 10
-97.049287
 20
32.914189
 10
-97.049212
 20
32.914184
 10
-97.049124
 20
32.914166
 10
-97.049039
 20
32.914135
 10
-97.048979
 20
32.914093
 10
-97.048909
 20
32.914039
 10
-97.048867
 20
32.913989
 10
-97.048827
 20
32.913925
 10
-97.048809
 20
32.913884
 10
-97.04879
 20
32.91382
  0
LWPOLYLINE
  5
115
100
AcDbEntity
  8
DFW_TAXIWAY_GUIDANCE_LINE
 62
    91
100
AcDbPolyline
 90
        5
 70
     0
 10
-97.050453
 20
32.909053
 10
-97.050418
 20
32.909065
 10
-97.050371
 20
32.909078
 10
-97.050328
 20
32.909086
 10
-97.050264
 20
32.9091
  0
LWPOLYLINE
  5
116
100
AcDbEntity
  8
DFW_TAXIWAY_GUIDANCE_LINE
 62
    91
100
AcDbPolyline
 90
        9
 70
     0
 10
-97.04882
 20
32.909496
 10
-97.048773
 20
32.909418
 10
-97.048714
 20
32.909325
 10
-97.048656
 20
32.909255
 10
-97.048587
 20
32.909201
 10
-97.04853
 20
32.90917
 10
-97.04843
 20
32.909126
 10
-97.048335
 20
32.909103
 10
-97.048247
 20
32.909093
  0
LWPOLYLINE
  5
117
100
AcDbEntity
  8
DFW_TAXIWAY_GUIDANCE_LINE
 62
    91
100
AcDbPolyline
 90
        7
 70
     0
 10
-97.048818
 20
32.909497
 10
-97.048837
 20
32.909523
 10
-97.048861
 20
32.909547
 10
-97.048896
 20
32.909568
 10
-97.048933
 20
32.909588
 10
-97.048965
 20
32.909599
 10
-97.049003
 20
32.909612
  0
LWPOLYLINE
  5
118
100
AcDbEntity
  8
DFW_TAXIWAY_GUIDANCE_LINE
 62
    91
100
AcDbPolyline
 90
        6
 70
     0
 10
-97.05045
 20
32.909613
 10
-97.049009
 20
32.90961
 10
-97.048941
 20
32.909628
 10
-97.048882
 20
32.909654
 10
-97.048845
 20
32.909681
 10
-97.048813
 20
32.909714
  0
LWPOLYLINE
  5
119
100
AcDbEntity
  8
DFW_TAXIWAY_GUIDANCE_LINE
 62
    91
100
AcDbPolyline
 90
       22
 70
     0
 10
-97.047938
 20
32.9105
 10
-97.047948
 20
32.910446
 10
-97.047965
 20
32.910401
 10
-97.04799
 20
32.910352
 10
-97.048026
 20
32.910298
 10
-97.048073
 20
32.910253
 10
-97.048129
 20
32.910211
 10
-97.048169
 20
32.910188
 10
-97.048216
 20
32.910164
 10
-97.048267
 20
32.910147
 10
-97.048317
 20
32.910135
 10
-97.048356
 20
32.910126
 10
-97.048415
 20
32.910131
 10
-97.048481
 20
32.910144
 10
-97.048543
 20
32.910169
 10
-97.048607
 20
32.9102
 10
-97.048667
 20
32.910246
 10
-97.048712
 20
32.910292
 10
-97.048756
 20
32.910347
 10
-97.048781
 20
32.910403
 10
-97.048798
 20
32.910448
 10
-97.048812
 20
32.910499
  0
LWPOLYLINE
  5
11A
100
AcDbEntity
  8
DFW_TAXIWAY_GUIDANCE_LINE
 62
    91
100
AcDbPolyline
 90
       10
 70
     0
 10
-97.046532
 20
32.910118
 10
-97.046605
 20
32.910132
 10
-97.046684
 20
32.910158
 10
-97.046769
 20
32.910206
 10
-97.046834
 20
32.910263
 10
-97.046909
 20
32.910342
 10
-97.046964
 20
32.910411
 10
-97.04701
 20
32.910473
 10
-97.047035
 20
32.910515
 10
-97.047042
 20
32.910538
  0
LWPOLYLINE
  5
11B
100
AcDbEntity
  8
DFW_TAXIWAY_GUIDANCE_LINE
 62
    91
100
AcDbPolyline
 90
        9
 70
     0
 10
-97.045851
 20
32.908632
 10
-97.045889
 20
32.90872
 10
-97.045904
 20
32.908773
 10
-97.045914
 20
32.908813
 10
-97.045923
 20
32.908871
 10
-97.045925
 20
32.908914
 10
-97.045923
 20
32.909083
 10
-97.045923
 20
32.909517
 10
-97.045918
 20
32.910113
  0
LWPOLYLINE
  5
11C
100
AcDbEntity
  8
DFW_TAXIWAY_GUIDANCE_LINE
 62
    91
100
AcDbPolyline
 90
        3
 70
     0
 10
-97.050452
 20
32.909099
 10
-97.049939
 20
32.909101
 10
-97.035911
 20
32.909045
  0
LWPOLYLINE
  5
11D
100
AcDbEntity
  8
DFW_TAXIWAY_GUIDANCE_LINE
 62
    91
100
AcDbPolyline
 90
        4
 70
     0
 10
-97.048832
 20
32.906104
 10
-97.048232
 20
32.906104
 10
-97.047612
 20
32.906102
 10
-97.04697
 20
32.9061
  0
LWPOLYLINE
  5
11E
100
AcDbEntity
  8
DFW_TAXIWAY_GUIDANCE_LINE
 62
    91
100
AcDbPolyline
 90
       10
 70
     0
 10
-97.048153
 20
32.904731
 10
-97.048054
 20
32.904743
 10
-97.047993
 20
32.904763
 10
-97.047915
 20
32.904797
 10
-97.047854
 20
32.904832
 10
-97.047776
 20
32.904892
 10
-97.047714
 20
32.904955
 10
-97.04767
 20
32.905025
 10
-97.047629
 20
32.905094
 10
-97.047615
 20
32.905153
  0
LWPOLYLINE
  5
11F
100
AcDbEntity
  8
DFW_TAXIWAY_GUIDANCE_LINE
 62
    91
100
AcDbPolyline
 90
       12
 70
     0
 10
-97.04762
 20
32.904233
 10
-97.047631
 20
32.904331
 10
-97.047656
 20
32.904402
 10
-97.04769
 20
32.904456
 10
-97.047725
 20
32.904506
 10
-97.047768
 20
32.904552
 10
-97.047813
 20
32.904593
 10
-97.047871
 20
32.904631
 10
-97.047935
 20
32.904659
 10
-97.048001
 20
32.904688
 10
-97.048067
 20
32.904707
 10
-97.048153
 20
32.904731
  0
LWPOLYLINE
  5
120
100
AcDbEntity
  8
DFW_TAXIWAY_GUIDANCE_LINE
 62
    91
100
AcDbPolyline
 90
       12
 70
     0
 10
-97.048849
 20
32.902865
 10
-97.048837
 20
32.902937
 10
-97.048817
 20
32.90301
 10
-97.048783
 20
32.903082
 10
-97.048735
 20
32.903138
 10
-97.048686
 20
32.903194
 10
-97.048635
 20
32.903234
 10
-97.048581
 20
32.903264
 10
-97.04853
 20
32.903294
 10
-97.048469
 20
32.903316
 10
-97.048418
 20
32.90334
 10
-97.048335
 20
32.903358
  0
LWPOLYLINE
  5
121
100
AcDbEntity
  8
DFW_TAXIWAY_GUIDANCE_LINE
 62
    91
100
AcDbPolyline
 90
       12
 70
     0
 10
-97.048263
 20
32.904731
 10
-97.048374
 20
32.904748
 10
-97.048453
 20
32.904769
 10
-97.048527
 20
32.904791
 10
-97.048589
 20
32.904826
 10
-97.048644
 20
32.904866
 10
-97.048697
 20
32.904911
 10
-97.048745
 20
32.904966
 10
-97.048779
 20
32.905021
 10
-97.048807
 20
32.905081
 10
-97.048824
 20
32.905136
 10
-97.04884
 20
32.905201
  0
LWPOLYLINE
  5
122
100
AcDbEntity
  8
DFW_TAXIWAY_GUIDANCE_LINE
 62
    91
100
AcDbPolyline
 90
        7
 70
     0
 10
-97.048842
 20
32.90473
 10
-97.049318
 20
32.904026
 10
-97.049947
 20
32.903132
 10
-97.050107
 20
32.90289
 10
-97.050215
 20
32.9027
 10
-97.050397
 20
32.902356
 10
-97.050485
 20
32.90216
  0
LWPOLYLINE
  5
123
100
AcDbEntity
  8
DFW_TAXIWAY_GUIDANCE_LINE
 62
    91
100
AcDbPolyline
 90
        4
 70
     0
 10
-97.050474
 20
32.904737
 10
-97.047615
 20
32.904727
 10
-97.047456
 20
32.904728
 10
-97.046976
 20
32.904724
  0
LWPOLYLINE
  5
124
100
AcDbEntity
  8
DFW_TAXIWAY_GUIDANCE_LINE
 62
    91
100
AcDbPolyline
 90
        4
 70
     0
 10
-97.048844
 20
32.903358
 10
-97.048238
 20
32.903358
 10
-97.047624
 20
32.903356
 10
-97.046982
 20
32.903355
  0
LWPOLYLINE
  5
125
100
AcDbEntity
  8
DFW_TAXIWAY_GUIDANCE_LINE
 62
    91
100
AcDbPolyline
 90
        5
 70
     0
 10
-97.050291
 20
32.901163
 10
-97.050339
 20
32.901173
 10
-97.050386
 20
32.901181
 10
-97.050437
 20
32.901192
 10
-97.05049
 20
32.901212
  0
LWPOLYLINE
  5
126
100
AcDbEntity
  8
DFW_TAXIWAY_GUIDANCE_LINE
 62
    91
100
AcDbPolyline
 90
        5
 70
     0
 10
-97.05049
 20
32.901115
 10
-97.050447
 20
32.901131
 10
-97.050382
 20
32.901145
 10
-97.050343
 20
32.901155
 10
-97.050291
 20
32.901163
  0
LWPOLYLINE
  5
127
100
AcDbEntity
  8
DFW_TAXIWAY_GUIDANCE_LINE
 62
    91
100
AcDbPolyline
 90
        8
 70
     0
 10
-97.048856
 20
32.90116
 10
-97.049108
 20
32.900801
 10
-97.050032
 20
32.899452
 10
-97.050173
 20
32.899238
 10
-97.050255
 20
32.899098
 10
-97.050331
 20
32.898963
 10
-97.050397
 20
32.898829
 10
-97.050504
 20
32.898591
  0
LWPOLYLINE
  5
128
100
AcDbEntity
  8
DFW_TAXIWAY_GUIDANCE_LINE
 62
    91
100
AcDbPolyline
 90
        3
 70
     0
 10
-97.047637
 20
32.90136
 10
-97.047016
 20
32.90136
 10
-97.046923
 20
32.901355
  0
LWPOLYLINE
  5
129
100
AcDbEntity
  8
DFW_TAXIWAY_GUIDANCE_LINE
 62
    91
100
AcDbPolyline
 90
        3
 70
     0
 10
-97.04764
 20
32.900948
 10
-97.047013
 20
32.900949
 10
-97.046818
 20
32.900947
  0
LWPOLYLINE
  5
12A
100
AcDbEntity
  8
DFW_TAXIWAY_GUIDANCE_LINE
 62
    91
100
AcDbPolyline
 90
        2
 70
     0
 10
-97.05049
 20
32.901164
 10
-97.04687
 20
32.901151
  0
LWPOLYLINE
  5
12B
100
AcDbEntity
  8
DFW_TAXIWAY_GUIDANCE_LINE
 62
    91
100
AcDbPolyline
 90
        3
 70
     0
 10
-97.048873
 20
32.89896
 10
-97.048268
 20
32.898957
 10
-97.047647
 20
32.898959
  0
LWPOLYLINE
  5
12C
100
AcDbEntity
  8
DFW_TAXIWAY_GUIDANCE_LINE
 62
    91
100
AcDbPolyline
 90
       11
 70
     0
 10
-97.048784
 20
32.915268
 10
-97.048808
 20
32.910723
 10
-97.048812
 20
32.910541
 10
-97.048812
 20
32.90974
 10
-97.04882
 20
32.909496
 10
-97.048846
 20
32.903903
 10
-97.048842
 20
32.903618
 10
-97.048859
 20
32.900778
 10
-97.048866
 20
32.900342
 10
-97.048875
 20
32.898436
 10
-97.048873
 20
32.898146
  0
LWPOLYLINE
  5
12D
100
AcDbEntity
  8
DFW_TAXIWAY_GUIDANCE_LINE
 62
    91
100
AcDbPolyline
 90
        2
 70
     0
 10
-97.035433
 20
32.910075
 10
-97.050449
 20
32.910129
  0
LWPOLYLINE
  5
12E
100
AcDbEntity
  8
DFW_TAXIWAY_GUIDANCE_LINE
 62
    91
100
AcDbPolyline
 90
        3
 70
     0
 10
-97.047068
 20
32.910638
 10
-97.04705
 20
32.91056
 10
-97.047042
 20
32.910538
  0
LWPOLYLINE
  5
12F
100
AcDbEntity
  8
DFW_TAXIWAY_GUIDANCE_LINE
 62
    91
100
AcDbPolyline
 90
       13
 70
     0
 10
-97.047887
 20
32.910352
 10
-97.047852
 20
32.910301
 10
-97.047806
 20
32.910252
 10
-97.047768
 20
32.910221
 10
-97.047718
 20
32.910191
 10
-97.047641
 20
32.910153
 10
-97.047583
 20
32.910135
 10
-97.047525
 20
32.910126
 10
-97.047461
 20
32.910125
 10
-97.047407
 20
32.910142
 10
-97.047344
 20
32.910167
 10
-97.047272
 20
32.9102
 10
-97.047201
 20
32.910245
  0
LWPOLYLINE
  5
130
100
AcDbEntity
  8
DFW_TAXIWAY_GUIDANCE_LINE
 62
    91
100
AcDbPolyline
 90
       28
 70
     0
 10
-97.047594
 20
32.909705
 10
-97.047581
 20
32.909779
 10
-97.047569
 20
32.90983
 10
-97.047537
 20
32.909893
 10
-97.047499
 20
32.909949
 10
-97.047449
 20
32.909998
 10
-97.047317
 20
32.910122
 10
-97.047235
 20
32.910208
 10
-97.047186
 20
32.910261
 10
-97.047133
 20
32.910326
 10
-97.047101
 20
32.910388
 10
-97.047079
 20
32.91044
 10
-97.047071
 20
32.910483
 10
-97.047068
 20
32.910538
 10
-97.047042
 20
32.915212
 10
-97.047046
 20
32.915268
 10
-97.047053
 20
32.915321
 10
-97.047076
 20
32.915381
 10
-97.047106
 20
32.915439
 10
-97.047154
 20
32.915498
 10
-97.047198
 20
32.915539
 10
-97.04725
 20
32.915575
 10
-97.047296
 20
32.915596
 10
-97.04734
 20
32.915614
 10
-97.047384
 20
32.91563
 10
-97.047425
 20
32.915639
 10
-97.04748
 20
32.915647
 10
-97.050419
 20
32.915662
  0
LWPOLYLINE
  5
131
100
AcDbEntity
  8
DFW_TAXIWAY_GUIDANCE_LINE
 62
    91
100
AcDbPolyline
 90
       10
 70
     0
 10
-97.047593
 20
32.909609
 10
-97.047594
 20
32.909705
 10
-97.0476
 20
32.909788
 10
-97.047635
 20
32.909888
 10
-97.047772
 20
32.91013
 10
-97.047896
 20
32.91037
 10
-97.047916
 20
32.910418
 10
-97.047932
 20
32.91047
 10
-97.047938
 20
32.9105
 10
-97.047917
 20
32.915252
  0
LWPOLYLINE
  5
132
100
AcDbEntity
  8
DFW_TAXIWAY_GUIDANCE_LINE
 62
    91
100
AcDbPolyline
 90
        3
 70
     0
 10
-97.047655
 20
32.898121
 10
-97.047647
 20
32.898456
 10
-97.047593
 20
32.909609
  0
LWPOLYLINE
  5
133
100
AcDbEntity
  8
DFW_TAXIWAY_GUIDANCE_LINE
 62
    91
100
AcDbPolyline
 90
       10
 70
     0
 10
-97.052754
 20
32.904744
 10
-97.052978
 20
32.904418
 10
-97.05319
 20
32.9041
 10
-97.053841
 20
32.903179
 10
-97.054142
 20
32.90271
 10
-97.054203
 20
32.902595
 10
-97.054257
 20
32.902479
 10
-97.054367
 20
32.902235
 10
-97.054418
 20
32.902109
 10
-97.054481
 20
32.90196
  0
LWPOLYLINE
  5
134
100
AcDbEntity
  8
DFW_TAXIWAY_GUIDANCE_LINE
 62
    91
100
AcDbPolyline
 90
        4
 70
     0
 10
-97.051132
 20
32.901167
 10
-97.051507
 20
32.901168
 10
-97.052126
 20
32.90117
 10
-97.052766
 20
32.901177
  0
LWPOLYLINE
  5
135
100
AcDbEntity
  8
DFW_TAXIWAY_GUIDANCE_LINE
 62
    91
100
AcDbPolyline
 90
        6
 70
     0
 10
-97.052754
 20
32.904744
 10
-97.05275
 20
32.904359
 10
-97.052759
 20
32.903883
 10
-97.052766
 20
32.901177
 10
-97.052773
 20
32.90076
 10
-97.052783
 20
32.898206
  0
LWPOLYLINE
  5
136
100
AcDbEntity
  8
DFW_TAXIWAY_GUIDANCE_LINE
 62
    91
100
AcDbPolyline
 90
        9
 70
     0
 10
-97.054498
 20
32.898361
 10
-97.054419
 20
32.898574
 10
-97.054353
 20
32.898737
 10
-97.054255
 20
32.898957
 10
-97.054156
 20
32.899131
 10
-97.053992
 20
32.89939
 10
-97.053828
 20
32.899636
 10
-97.053008
 20
32.900814
 10
-97.052766
 20
32.901177
  0
LWPOLYLINE
  5
137
100
AcDbEntity
  8
DFW_TAXIWAY_GUIDANCE_LINE
 62
    91
100
AcDbPolyline
 90
        4
 70
     0
 10
-97.051116
 20
32.904739
 10
-97.051434
 20
32.904739
 10
-97.052083
 20
32.90474
 10
-97.052754
 20
32.904744
  0
LWPOLYLINE
  5
138
100
AcDbEntity
  8
DFW_TAXIWAY_GUIDANCE_LINE
 62
    91
100
AcDbPolyline
 90
        6
 70
     0
 10
-97.0579
 20
32.901196
 10
-97.057311
 20
32.901194
 10
-97.056678
 20
32.901188
 10
-97.056111
 20
32.901186
 10
-97.05545
 20
32.901182
 10
-97.054965
 20
32.901185
  0
LWPOLYLINE
  5
139
100
AcDbEntity
  8
DFW_TAXIWAY_GUIDANCE_LINE
 62
    91
100
AcDbPolyline
 90
        8
 70
     0
 10
-97.057844
 20
32.912112
 10
-97.057857
 20
32.912172
 10
-97.057879
 20
32.912214
 10
-97.057905
 20
32.912253
 10
-97.057945
 20
32.912289
 10
-97.057994
 20
32.912321
 10
-97.058043
 20
32.912343
 10
-97.058106
 20
32.912368
  0
LWPOLYLINE
  5
13A
100
AcDbEntity
  8
DFW_TAXIWAY_GUIDANCE_LINE
 62
    91
100
AcDbPolyline
 90
        3
 70
     0
 10
-97.057845
 20
32.912366
 10
-97.05822
 20
32.912369
 10
-97.058352
 20
32.912369
  0
LWPOLYLINE
  5
13B
100
AcDbEntity
  8
DFW_TAXIWAY_GUIDANCE_LINE
 62
    91
100
AcDbPolyline
 90
        2
 70
     0
 10
-97.057338
 20
32.910159
 10
-97.057857
 20
32.910157
  0
LWPOLYLINE
  5
13C
100
AcDbEntity
  8
DFW_TAXIWAY_GUIDANCE_LINE
 62
    91
100
AcDbPolyline
 90
        5
 70
     0
 10
-97.054221
 20
32.910147
 10
-97.054281
 20
32.910135
 10
-97.054343
 20
32.910115
 10
-97.054388
 20
32.910098
 10
-97.05444
 20
32.910075
  0
LWPOLYLINE
  5
13D
100
AcDbEntity
  8
DFW_TAXIWAY_GUIDANCE_LINE
 62
    91
100
AcDbPolyline
 90
        5
 70
     0
 10
-97.055114
 20
32.910148
 10
-97.055051
 20
32.910136
 10
-97.055008
 20
32.910122
 10
-97.054967
 20
32.910106
 10
-97.054918
 20
32.910071
  0
LWPOLYLINE
  5
13E
100
AcDbEntity
  8
DFW_TAXIWAY_GUIDANCE_LINE
 62
    91
100
AcDbPolyline
 90
        7
 70
     0
 10
-97.05519
 20
32.909119
 10
-97.055141
 20
32.909109
 10
-97.055093
 20
32.909099
 10
-97.055058
 20
32.909088
 10
-97.055015
 20
32.909071
 10
-97.054971
 20
32.909051
 10
-97.054925
 20
32.90902
  0
LWPOLYLINE
  5
13F
100
AcDbEntity
  8
DFW_TAXIWAY_GUIDANCE_LINE
 62
    91
100
AcDbPolyline
 90
        7
 70
     0
 10
-97.05416
 20
32.909115
 10
-97.05421
 20
32.909109
 10
-97.054262
 20
32.909098
 10
-97.054307
 20
32.909085
 10
-97.054351
 20
32.909069
 10
-97.054394
 20
32.909051
 10
-97.054446
 20
32.909022
  0
LWPOLYLINE
  5
140
100
AcDbEntity
  8
DFW_TAXIWAY_GUIDANCE_LINE
 62
    91
100
AcDbPolyline
 90
        6
 70
     0
 10
-97.052725
 20
32.910136
 10
-97.052726
 20
32.909641
 10
-97.052726
 20
32.909105
 10
-97.052733
 20
32.908502
 10
-97.052752
 20
32.905283
 10
-97.052754
 20
32.904744
  0
LWPOLYLINE
  5
141
100
AcDbEntity
  8
DFW_TAXIWAY_GUIDANCE_LINE
 62
    91
100
AcDbPolyline
 90
        5
 70
     0
 10
-97.051309
 20
32.909104
 10
-97.051251
 20
32.909097
 10
-97.051204
 20
32.90909
 10
-97.051153
 20
32.909076
 10
-97.051095
 20
32.909051
  0
LWPOLYLINE
  5
142
100
AcDbEntity
  8
DFW_TAXIWAY_GUIDANCE_LINE
 62
    91
100
AcDbPolyline
 90
        7
 70
     0
 10
-97.054445
 20
32.909115
 10
-97.053937
 20
32.909114
 10
-97.053385
 20
32.909112
 10
-97.05273
 20
32.909105
 10
-97.052081
 20
32.90911
 10
-97.051439
 20
32.909107
 10
-97.051095
 20
32.909099
  0
LWPOLYLINE
  5
143
100
AcDbEntity
  8
DFW_TAXIWAY_GUIDANCE_LINE
 62
    91
100
AcDbPolyline
 90
        8
 70
     0
 10
-97.058542
 20
32.909007
 10
-97.058469
 20
32.909007
 10
-97.057958
 20
32.909006
 10
-97.057862
 20
32.909015
 10
-97.057522
 20
32.909107
 10
-97.05746
 20
32.909123
 10
-97.057391
 20
32.909129
 10
-97.054924
 20
32.909118
  0
LWPOLYLINE
  5
144
100
AcDbEntity
  8
DFW_TAXIWAY_GUIDANCE_LINE
 62
    91
100
AcDbPolyline
 90
        2
 70
     0
 10
-97.058509
 20
32.905317
 10
-97.058568
 20
32.905298
  0
LWPOLYLINE
  5
145
100
AcDbEntity
  8
DFW_TAXIWAY_GUIDANCE_LINE
 62
    91
100
AcDbPolyline
 90
        4
 70
     0
 10
-97.057875
 20
32.905314
 10
-97.058302
 20
32.905317
 10
-97.058527
 20
32.905317
 10
-97.058568
 20
32.90532
  0
LWPOLYLINE
  5
146
100
AcDbEntity
  8
DFW_TAXIWAY_GUIDANCE_LINE
 62
    91
100
AcDbPolyline
 90
        3
 70
     0
 10
-97.0579
 20
32.901196
 10
-97.058342
 20
32.901196
 10
-97.058587
 20
32.901197
  0
LWPOLYLINE
  5
147
100
AcDbEntity
  8
DFW_TAXIWAY_GUIDANCE_LINE
 62
    91
100
AcDbPolyline
 90
        3
 70
     0
 10
-97.054918
 20
32.910147
 10
-97.055333
 20
32.910149
 10
-97.057338
 20
32.910159
  0
LWPOLYLINE
  5
148
100
AcDbEntity
  8
DFW_TAXIWAY_GUIDANCE_LINE
 62
    91
100
AcDbPolyline
 90
        6
 70
     0
 10
-97.051091
 20
32.910133
 10
-97.051561
 20
32.910133
 10
-97.052122
 20
32.910135
 10
-97.053372
 20
32.910138
 10
-97.053933
 20
32.910149
 10
-97.05444
 20
32.910146
  0
LWPOLYLINE
  5
149
100
AcDbEntity
  8
DFW_TAXIWAY_GUIDANCE_LINE
 62
    91
100
AcDbPolyline
 90
       10
 70
     0
 10
-97.048214
 20
32.889064
 10
-97.048119
 20
32.889036
 10
-97.048019
 20
32.888997
 10
-97.047936
 20
32.888953
 10
-97.047864
 20
32.888904
 10
-97.047815
 20
32.888846
 10
-97.047774
 20
32.888785
 10
-97.047741
 20
32.888723
 10
-97.047719
 20
32.888669
 10
-97.047704
 20
32.888619
  0
LWPOLYLINE
  5
14A
100
AcDbEntity
  8
DFW_TAXIWAY_GUIDANCE_LINE
 62
    91
100
AcDbPolyline
 90
        8
 70
     0
 10
-97.048216
 20
32.889064
 10
-97.048123
 20
32.889077
 10
-97.048045
 20
32.889108
 10
-97.047889
 20
32.889195
 10
-97.047805
 20
32.889279
 10
-97.04775
 20
32.889357
 10
-97.047715
 20
32.889439
 10
-97.047696
 20
32.889507
  0
LWPOLYLINE
  5
14B
100
AcDbEntity
  8
DFW_TAXIWAY_GUIDANCE_LINE
 62
    91
100
AcDbPolyline
 90
       12
 70
     0
 10
-97.04838
 20
32.889065
 10
-97.048447
 20
32.889077
 10
-97.048517
 20
32.889095
 10
-97.048579
 20
32.889113
 10
-97.048649
 20
32.889151
 10
-97.048713
 20
32.889192
 10
-97.048759
 20
32.889232
 10
-97.048809
 20
32.889278
 10
-97.048852
 20
32.889337
 10
-97.048885
 20
32.8894
 10
-97.048907
 20
32.88947
 10
-97.048921
 20
32.889555
  0
LWPOLYLINE
  5
14C
100
AcDbEntity
  8
DFW_TAXIWAY_GUIDANCE_LINE
 62
    91
100
AcDbPolyline
 90
       10
 70
     0
 10
-97.048927
 20
32.888607
 10
-97.048903
 20
32.888681
 10
-97.048878
 20
32.888753
 10
-97.048789
 20
32.888875
 10
-97.048733
 20
32.888923
 10
-97.048669
 20
32.888961
 10
-97.048597
 20
32.889001
 10
-97.048517
 20
32.889033
 10
-97.048449
 20
32.889054
 10
-97.048379
 20
32.889065
  0
LWPOLYLINE
  5
14D
100
AcDbEntity
  8
DFW_TAXIWAY_GUIDANCE_LINE
 62
    91
100
AcDbPolyline
 90
        6
 70
     0
 10
-97.046625
 20
32.889053
 10
-97.046655
 20
32.889057
 10
-97.047103
 20
32.88906
 10
-97.0477
 20
32.889061
 10
-97.048309
 20
32.889065
 10
-97.048928
 20
32.889067
  0
LWPOLYLINE
  5
14E
100
AcDbEntity
  8
DFW_TAXIWAY_GUIDANCE_LINE
 62
    91
100
AcDbPolyline
 90
        3
 70
     0
 10
-97.048909
 20
32.891813
 10
-97.048296
 20
32.891808
 10
-97.047687
 20
32.89181
  0
LWPOLYLINE
  5
14F
100
AcDbEntity
  8
DFW_TAXIWAY_GUIDANCE_LINE
 62
    91
100
AcDbPolyline
 90
        3
 70
     0
 10
-97.048883
 20
32.896208
 10
-97.048273
 20
32.896202
 10
-97.047662
 20
32.896201
  0
LWPOLYLINE
  5
150
100
AcDbEntity
  8
DFW_TAXIWAY_GUIDANCE_LINE
 62
    91
100
AcDbPolyline
 90
        6
 70
     0
 10
-97.050127
 20
32.892229
 10
-97.050211
 20
32.89237
 10
-97.050287
 20
32.892509
 10
-97.050355
 20
32.89263
 10
-97.050417
 20
32.892758
 10
-97.050533
 20
32.893032
  0
LWPOLYLINE
  5
151
100
AcDbEntity
  8
DFW_TAXIWAY_GUIDANCE_LINE
 62
    91
100
AcDbPolyline
 90
        7
 70
     0
 10
-97.048896
 20
32.894043
 10
-97.048913
 20
32.894011
 10
-97.049043
 20
32.893794
 10
-97.050127
 20
32.892229
 10
-97.050287
 20
32.891963
 10
-97.050465
 20
32.891615
 10
-97.050541
 20
32.891439
  0
LWPOLYLINE
  5
152
100
AcDbEntity
  8
DFW_TAXIWAY_GUIDANCE_LINE
 62
    91
100
AcDbPolyline
 90
        8
 70
     0
 10
-97.048897
 20
32.893985
 10
-97.048914
 20
32.894011
 10
-97.049175
 20
32.894424
 10
-97.050098
 20
32.895797
 10
-97.050232
 20
32.896001
 10
-97.050326
 20
32.896181
 10
-97.050429
 20
32.896388
 10
-97.050515
 20
32.896599
  0
LWPOLYLINE
  5
153
100
AcDbEntity
  8
DFW_TAXIWAY_GUIDANCE_LINE
 62
    91
100
AcDbPolyline
 90
        5
 70
     0
 10
-97.050342
 20
32.89402
 10
-97.050393
 20
32.894031
 10
-97.050447
 20
32.894046
 10
-97.050492
 20
32.894059
 10
-97.050528
 20
32.894075
  0
LWPOLYLINE
  5
154
100
AcDbEntity
  8
DFW_TAXIWAY_GUIDANCE_LINE
 62
    91
100
AcDbPolyline
 90
        5
 70
     0
 10
-97.050529
 20
32.893969
 10
-97.050488
 20
32.893986
 10
-97.050437
 20
32.894002
 10
-97.050398
 20
32.894011
 10
-97.050343
 20
32.89402
  0
LWPOLYLINE
  5
155
100
AcDbEntity
  8
DFW_TAXIWAY_GUIDANCE_LINE
 62
    91
100
AcDbPolyline
 90
        6
 70
     0
 10
-97.047677
 20
32.894006
 10
-97.048261
 20
32.894008
 10
-97.048897
 20
32.894011
 10
-97.049609
 20
32.894014
 10
-97.05011
 20
32.894018
 10
-97.050529
 20
32.894022
  0
LWPOLYLINE
  5
156
100
AcDbEntity
  8
DFW_TAXIWAY_GUIDANCE_LINE
 62
    91
100
AcDbPolyline
 90
        7
 70
     0
 10
-97.048914
 20
32.89038
 10
-97.048932
 20
32.890436
 10
-97.048964
 20
32.89051
 10
-97.049028
 20
32.890613
 10
-97.049376
 20
32.891131
 10
-97.049883
 20
32.89187
 10
-97.050127
 20
32.892229
  0
LWPOLYLINE
  5
157
100
AcDbEntity
  8
DFW_TAXIWAY_GUIDANCE_LINE
 62
    91
100
AcDbPolyline
 90
        9
 70
     0
 10
-97.048916
 20
32.890032
 10
-97.048889
 20
32.890101
 10
-97.048853
 20
32.890159
 10
-97.048808
 20
32.890222
 10
-97.048695
 20
32.890329
 10
-97.048644
 20
32.890357
 10
-97.048587
 20
32.890384
 10
-97.048507
 20
32.890405
 10
-97.048414
 20
32.890432
  0
LWPOLYLINE
  5
158
100
AcDbEntity
  8
DFW_TAXIWAY_GUIDANCE_LINE
 62
    91
100
AcDbPolyline
 90
        6
 70
     0
 10
-97.050546
 20
32.890449
 10
-97.050153
 20
32.890445
 10
-97.049619
 20
32.890441
 10
-97.048914
 20
32.890436
 10
-97.048302
 20
32.890431
 10
-97.047693
 20
32.890436
  0
LWPOLYLINE
  5
159
100
AcDbEntity
  8
DFW_TAXIWAY_GUIDANCE_LINE
 62
    91
100
AcDbPolyline
 90
       12
 70
     0
 10
-97.048932
 20
32.885918
 10
-97.048951
 20
32.886002
 10
-97.048965
 20
32.886045
 10
-97.048977
 20
32.886076
 10
-97.049065
 20
32.886257
 10
-97.049099
 20
32.886326
 10
-97.049134
 20
32.886377
 10
-97.049396
 20
32.886771
 10
-97.050116
 20
32.887822
 10
-97.05032
 20
32.888162
 10
-97.050387
 20
32.888297
 10
-97.050554
 20
32.888659
  0
LWPOLYLINE
  5
15A
100
AcDbEntity
  8
DFW_TAXIWAY_GUIDANCE_LINE
 62
    91
100
AcDbPolyline
 90
        2
 70
     0
 10
-97.047722
 20
32.88504
 10
-97.047722
 20
32.885022
  0
LWPOLYLINE
  5
15B
100
AcDbEntity
  8
DFW_TAXIWAY_GUIDANCE_LINE
 62
    91
100
AcDbPolyline
 90
        8
 70
     0
 10
-97.048016
 20
32.884823
 10
-97.047963
 20
32.884885
 10
-97.047904
 20
32.884933
 10
-97.047857
 20
32.884967
 10
-97.047795
 20
32.884999
 10
-97.047748
 20
32.885016
 10
-97.047709
 20
32.885026
 10
-97.047652
 20
32.88504
  0
LWPOLYLINE
  5
15C
100
AcDbEntity
  8
DFW_TAXIWAY_GUIDANCE_LINE
 62
    91
100
AcDbPolyline
 90
        8
 70
     0
 10
-97.04772
 20
32.88539
 10
-97.047732
 20
32.885323
 10
-97.047767
 20
32.885251
 10
-97.048023
 20
32.884809
 10
-97.048051
 20
32.884755
 10
-97.048068
 20
32.884711
 10
-97.048075
 20
32.884453
 10
-97.048101
 20
32.879101
  0
LWPOLYLINE
  5
15D
100
AcDbEntity
  8
DFW_TAXIWAY_GUIDANCE_LINE
 62
    91
100
AcDbPolyline
 90
        9
 70
     0
 10
-97.048521
 20
32.885043
 10
-97.048467
 20
32.885035
 10
-97.048419
 20
32.885025
 10
-97.048347
 20
32.885001
 10
-97.048257
 20
32.884957
 10
-97.048205
 20
32.884911
 10
-97.048158
 20
32.884863
 10
-97.048127
 20
32.88482
 10
-97.048065
 20
32.884662
  0
LWPOLYLINE
  5
15E
100
AcDbEntity
  8
DFW_TAXIWAY_GUIDANCE_LINE
 62
    91
100
AcDbPolyline
 90
        9
 70
     0
 10
-97.048943
 20
32.884687
 10
-97.048932
 20
32.884768
 10
-97.048918
 20
32.884817
 10
-97.048878
 20
32.884876
 10
-97.048827
 20
32.884924
 10
-97.048779
 20
32.884966
 10
-97.048668
 20
32.885021
 10
-97.04862
 20
32.885033
 10
-97.048559
 20
32.885042
  0
LWPOLYLINE
  5
15F
100
AcDbEntity
  8
DFW_TAXIWAY_GUIDANCE_LINE
 62
    91
100
AcDbPolyline
 90
        2
 70
     0
 10
-97.049341
 20
32.880572
 10
-97.048965
 20
32.880569
  0
LWPOLYLINE
  5
160
100
AcDbEntity
  8
DFW_TAXIWAY_GUIDANCE_LINE
 62
    91
100
AcDbPolyline
 90
       16
 70
     0
 10
-97.048967
 20
32.880249
 10
-97.04898
 20
32.880301
 10
-97.049012
 20
32.88036
 10
-97.049033
 20
32.880398
 10
-97.04906
 20
32.880433
 10
-97.049107
 20
32.880469
 10
-97.049148
 20
32.880503
 10
-97.049199
 20
32.880529
 10
-97.049246
 20
32.880547
 10
-97.049296
 20
32.880561
 10
-97.049341
 20
32.880572
 10
-97.050424
 20
32.880575
 10
-97.050474
 20
32.880576
 10
-97.050519
 20
32.88058
 10
-97.05056
 20
32.880588
 10
-97.050596
 20
32.880598
  0
LWPOLYLINE
  5
161
100
AcDbEntity
  8
DFW_TAXIWAY_GUIDANCE_LINE
 62
    91
100
AcDbPolyline
 90
       10
 70
     0
 10
-97.049346
 20
32.879837
 10
-97.049283
 20
32.879825
 10
-97.049224
 20
32.879805
 10
-97.049169
 20
32.879778
 10
-97.049116
 20
32.879745
 10
-97.049067
 20
32.879701
 10
-97.049029
 20
32.879652
 10
-97.049
 20
32.879608
 10
-97.048989
 20
32.879575
 10
-97.048968
 20
32.879499
  0
LWPOLYLINE
  5
162
100
AcDbEntity
  8
DFW_TAXIWAY_GUIDANCE_LINE
 62
    91
100
AcDbPolyline
 90
       13
 70
     0
 10
-97.048968
 20
32.880197
 10
-97.048976
 20
32.880153
 10
-97.048976
 20
32.880153
 10
-97.048987
 20
32.880103
 10
-97.049007
 20
32.880056
 10
-97.049034
 20
32.88001
 10
-97.049071
 20
32.879967
 10
-97.049107
 20
32.879934
 10
-97.049158
 20
32.879901
 10
-97.049204
 20
32.879878
 10
-97.049266
 20
32.879856
 10
-97.049327
 20
32.879841
 10
-97.049357
 20
32.879838
  0
LWPOLYLINE
  5
163
100
AcDbEntity
  8
DFW_TAXIWAY_GUIDANCE_LINE
 62
    91
100
AcDbPolyline
 90
       11
 70
     0
 10
-97.048595
 20
32.879836
 10
-97.048595
 20
32.879836
 10
-97.048653
 20
32.879846
 10
-97.048653
 20
32.879847
 10
-97.048742
 20
32.879877
 10
-97.048806
 20
32.879915
 10
-97.048866
 20
32.879961
 10
-97.048908
 20
32.880014
 10
-97.048938
 20
32.880076
 10
-97.048957
 20
32.880132
 10
-97.048968
 20
32.8802
  0
LWPOLYLINE
  5
164
100
AcDbEntity
  8
DFW_TAXIWAY_GUIDANCE_LINE
 62
    91
100
AcDbPolyline
 90
        9
 70
     0
 10
-97.048968
 20
32.879501
 10
-97.048947
 20
32.879583
 10
-97.048923
 20
32.879635
 10
-97.048879
 20
32.879691
 10
-97.048818
 20
32.879749
 10
-97.048751
 20
32.879791
 10
-97.048689
 20
32.879815
 10
-97.048638
 20
32.87983
 10
-97.048594
 20
32.879836
  0
LWPOLYLINE
  5
165
100
AcDbEntity
  8
DFW_TAXIWAY_GUIDANCE_LINE
 62
    91
100
AcDbPolyline
 90
       18
 70
     0
 10
-97.04855
 20
32.8791
 10
-97.048611
 20
32.879109
 10
-97.048672
 20
32.879121
 10
-97.048735
 20
32.879142
 10
-97.0488
 20
32.879179
 10
-97.048856
 20
32.879218
 10
-97.0489
 20
32.879266
 10
-97.048945
 20
32.879342
 10
-97.04897
 20
32.879423
 10
-97.04897
 20
32.879415
 10
-97.048994
 20
32.879345
 10
-97.049032
 20
32.879281
 10
-97.049066
 20
32.879238
 10
-97.04911
 20
32.879202
 10
-97.049155
 20
32.879166
 10
-97.049218
 20
32.879138
 10
-97.049346
 20
32.879105
 10
-97.049346
 20
32.879105
  0
LWPOLYLINE
  5
166
100
AcDbEntity
  8
DFW_TAXIWAY_GUIDANCE_LINE
 62
    91
100
AcDbPolyline
 90
        7
 70
     0
 10
-97.048101
 20
32.879426
 10
-97.048143
 20
32.879293
 10
-97.04819
 20
32.879228
 10
-97.048245
 20
32.879185
 10
-97.048317
 20
32.879149
 10
-97.048411
 20
32.879113
 10
-97.048481
 20
32.8791
  0
LWPOLYLINE
  5
167
100
AcDbEntity
  8
DFW_TAXIWAY_GUIDANCE_LINE
 62
    91
100
AcDbPolyline
 90
        8
 70
     0
 10
-97.047682
 20
32.879097
 10
-97.047758
 20
32.879106
 10
-97.047837
 20
32.879129
 10
-97.047906
 20
32.879156
 10
-97.04797
 20
32.879203
 10
-97.048031
 20
32.879268
 10
-97.048064
 20
32.879326
 10
-97.048101
 20
32.879426
  0
LWPOLYLINE
  5
168
100
AcDbEntity
  8
DFW_TAXIWAY_GUIDANCE_LINE
 62
    91
100
AcDbPolyline
 90
        6
 70
     0
 10
-97.048485
 20
32.879836
 10
-97.048387
 20
32.879857
 10
-97.048256
 20
32.879912
 10
-97.048155
 20
32.880013
 10
-97.048123
 20
32.880069
 10
-97.048097
 20
32.880147
  0
LWPOLYLINE
  5
169
100
AcDbEntity
  8
DFW_TAXIWAY_GUIDANCE_LINE
 62
    91
100
AcDbPolyline
 90
       10
 70
     0
 10
-97.048101
 20
32.879505
 10
-97.048117
 20
32.879564
 10
-97.048142
 20
32.87963
 10
-97.048173
 20
32.879679
 10
-97.048215
 20
32.879717
 10
-97.048255
 20
32.87975
 10
-97.048298
 20
32.879777
 10
-97.048351
 20
32.879798
 10
-97.048393
 20
32.879814
 10
-97.048485
 20
32.879836
  0
LWPOLYLINE
  5
16A
100
AcDbEntity
  8
DFW_TAXIWAY_GUIDANCE_LINE
 62
    91
100
AcDbPolyline
 90
        2
 70
     0
 10
-97.048099
 20
32.879836
 10
-97.048534
 20
32.879836
  0
LWPOLYLINE
  5
16B
100
AcDbEntity
  8
DFW_TAXIWAY_GUIDANCE_LINE
 62
    91
100
AcDbPolyline
 90
        6
 70
     0
 10
-97.0506
 20
32.879855
 10
-97.050458
 20
32.879845
 10
-97.050128
 20
32.879841
 10
-97.049405
 20
32.879838
 10
-97.048969
 20
32.879836
 10
-97.048534
 20
32.879836
  0
LWPOLYLINE
  5
16C
100
AcDbEntity
  8
DFW_TAXIWAY_GUIDANCE_LINE
 62
    91
100
AcDbPolyline
 90
       12
 70
     0
 10
-97.048873
 20
32.898146
 10
-97.048897
 20
32.894009
 10
-97.048893
 20
32.893214
 10
-97.048912
 20
32.891557
 10
-97.048909
 20
32.891271
 10
-97.048928
 20
32.889066
 10
-97.048935
 20
32.885564
 10
-97.048944
 20
32.885046
 10
-97.048943
 20
32.884487
 10
-97.048943
 20
32.884488
 10
-97.048968
 20
32.879481
 10
-97.048976
 20
32.879101
  0
LWPOLYLINE
  5
16D
100
AcDbEntity
  8
DFW_TAXIWAY_GUIDANCE_LINE
 62
    91
100
AcDbPolyline
 90
        5
 70
     0
 10
-97.047658
 20
32.897577
 10
-97.048288
 20
32.897584
 10
-97.049537
 20
32.897585
 10
-97.050087
 20
32.897588
 10
-97.05051
 20
32.897595
  0
LWPOLYLINE
  5
16E
100
AcDbEntity
  8
DFW_TAXIWAY_GUIDANCE_LINE
 62
    91
100
AcDbPolyline
 90
        2
 70
     0
 10
-97.047722
 20
32.88504
 10
-97.047655
 20
32.898121
  0
LWPOLYLINE
  5
16F
100
AcDbEntity
  8
DFW_TAXIWAY_GUIDANCE_LINE
 62
    91
100
AcDbPolyline
 90
        6
 70
     0
 10
-97.047364
 20
32.884943
 10
-97.047473
 20
32.885039
 10
-97.047598
 20
32.885157
 10
-97.04764
 20
32.885212
 10
-97.04768
 20
32.885276
 10
-97.047703
 20
32.885323
  0
LWPOLYLINE
  5
170
100
AcDbEntity
  8
DFW_TAXIWAY_GUIDANCE_LINE
 62
    91
100
AcDbPolyline
 90
       12
 70
     0
 10
-97.047206
 20
32.884653
 10
-97.047214
 20
32.884713
 10
-97.047239
 20
32.884779
 10
-97.047271
 20
32.884836
 10
-97.047322
 20
32.884901
 10
-97.047364
 20
32.884944
 10
-97.047417
 20
32.884974
 10
-97.047456
 20
32.884989
 10
-97.047489
 20
32.885004
 10
-97.04754
 20
32.88502
 10
-97.047599
 20
32.885032
 10
-97.047639
 20
32.88504
  0
LWPOLYLINE
  5
171
100
AcDbEntity
  8
DFW_TAXIWAY_GUIDANCE_LINE
 62
    91
100
AcDbPolyline
 90
       11
 70
     0
 10
-97.046673
 20
32.879092
 10
-97.046599
 20
32.879102
 10
-97.046519
 20
32.87912
 10
-97.046438
 20
32.879151
 10
-97.046352
 20
32.879204
 10
-97.046297
 20
32.879254
 10
-97.046239
 20
32.87932
 10
-97.046239
 20
32.87932
 10
-97.046202
 20
32.879384
 10
-97.046181
 20
32.879442
 10
-97.046167
 20
32.879487
  0
LWPOLYLINE
  5
172
100
AcDbEntity
  8
DFW_TAXIWAY_GUIDANCE_LINE
 62
    91
100
AcDbPolyline
 90
        9
 70
     0
 10
-97.04723
 20
32.87949
 10
-97.047217
 20
32.879426
 10
-97.047178
 20
32.879342
 10
-97.047137
 20
32.879284
 10
-97.04706
 20
32.87921
 10
-97.046991
 20
32.879164
 10
-97.046904
 20
32.879126
 10
-97.046824
 20
32.879108
 10
-97.046725
 20
32.879092
  0
LWPOLYLINE
  5
173
100
AcDbEntity
  8
DFW_TAXIWAY_GUIDANCE_LINE
 62
    91
100
AcDbPolyline
 90
        8
 70
     0
 10
-97.047659
 20
32.879097
 10
-97.047561
 20
32.879107
 10
-97.04748
 20
32.879132
 10
-97.047416
 20
32.879167
 10
-97.047335
 20
32.879232
 10
-97.047292
 20
32.879281
 10
-97.047263
 20
32.879333
 10
-97.047231
 20
32.879426
  0
LWPOLYLINE
  5
174
100
AcDbEntity
  8
DFW_TAXIWAY_GUIDANCE_LINE
 62
    91
100
AcDbPolyline
 90
       11
 70
     0
 10
-97.04674
 20
32.885036
 10
-97.046832
 20
32.885025
 10
-97.046927
 20
32.884997
 10
-97.047001
 20
32.88496
 10
-97.047072
 20
32.884908
 10
-97.047114
 20
32.88487
 10
-97.047158
 20
32.884808
 10
-97.047186
 20
32.884752
 10
-97.047199
 20
32.884708
 10
-97.047206
 20
32.884658
 10
-97.047234
 20
32.879095
  0
LWPOLYLINE
  5
175
100
AcDbEntity
  8
DFW_TAXIWAY_GUIDANCE_LINE
 62
    91
100
AcDbPolyline
 90
        4
 70
     0
 10
-97.050567
 20
32.886082
 10
-97.047092
 20
32.886067
 10
-97.046699
 20
32.886071
 10
-97.036341
 20
32.886028
  0
LWPOLYLINE
  5
176
100
AcDbEntity
  8
DFW_TAXIWAY_GUIDANCE_LINE
 62
    91
100
AcDbPolyline
 90
       11
 70
     0
 10
-97.046044
 20
32.885542
 10
-97.046042
 20
32.886241
 10
-97.046032
 20
32.886327
 10
-97.046004
 20
32.886418
 10
-97.045971
 20
32.886504
 10
-97.045971
 20
32.886504
 10
-97.04592
 20
32.886596
 10
-97.045862
 20
32.886677
 10
-97.045807
 20
32.886739
 10
-97.045749
 20
32.886791
 10
-97.045664
 20
32.886853
  0
LWPOLYLINE
  5
177
100
AcDbEntity
  8
DFW_TAXIWAY_GUIDANCE_LINE
 62
    91
100
AcDbPolyline
 90
        2
 70
     0
 10
-97.046046
 20
32.885034
 10
-97.046044
 20
32.885542
  0
LWPOLYLINE
  5
178
100
AcDbEntity
  8
DFW_TAXIWAY_GUIDANCE_LINE
 62
    91
100
AcDbPolyline
 90
        2
 70
     0
 10
-97.035474
 20
32.884997
 10
-97.050574
 20
32.885051
  0
LWPOLYLINE
  5
179
100
AcDbEntity
  8
DFW_TAXIWAY_GUIDANCE_LINE
 62
    91
100
AcDbPolyline
 90
        4
 70
     0
 10
-97.050604
 20
32.87911
 10
-97.046169
 20
32.879094
 10
-97.04614
 20
32.884473
 10
-97.04614
 20
32.885033
  0
LWPOLYLINE
  5
17A
100
AcDbEntity
  8
DFW_TAXIWAY_GUIDANCE_LINE
 62
    91
100
AcDbPolyline
 90
        6
 70
     0
 10
-97.051248
 20
32.879115
 10
-97.051624
 20
32.879114
 10
-97.052662
 20
32.879122
 10
-97.053603
 20
32.879123
 10
-97.054078
 20
32.879124
 10
-97.054594
 20
32.879125
  0
LWPOLYLINE
  5
17B
100
AcDbEntity
  8
DFW_TAXIWAY_GUIDANCE_LINE
 62
    91
100
AcDbPolyline
 90
       17
 70
     0
 10
-97.052832
 20
32.887673
 10
-97.052852
 20
32.887607
 10
-97.052883
 20
32.887549
 10
-97.052921
 20
32.887494
 10
-97.052961
 20
32.887448
 10
-97.053002
 20
32.887409
 10
-97.053057
 20
32.887374
 10
-97.053097
 20
32.887353
 10
-97.053139
 20
32.887337
 10
-97.053193
 20
32.88732
 10
-97.053274
 20
32.88731
 10
-97.053347
 20
32.887311
 10
-97.053424
 20
32.887323
 10
-97.053488
 20
32.887338
 10
-97.053561
 20
32.887363
 10
-97.053623
 20
32.887386
 10
-97.053673
 20
32.887419
  0
LWPOLYLINE
  5
17C
100
AcDbEntity
  8
DFW_TAXIWAY_GUIDANCE_LINE
 62
    91
100
AcDbPolyline
 90
        6
 70
     0
 10
-97.052846
 20
32.886196
 10
-97.054117
 20
32.888071
 10
-97.05423
 20
32.88827
 10
-97.054395
 20
32.888605
 10
-97.054471
 20
32.888779
 10
-97.054545
 20
32.888984
  0
LWPOLYLINE
  5
17D
100
AcDbEntity
  8
DFW_TAXIWAY_GUIDANCE_LINE
 62
    91
100
AcDbPolyline
 90
        5
 70
     0
 10
-97.054538
 20
32.89055
 10
-97.054474
 20
32.890515
 10
-97.054416
 20
32.890495
 10
-97.054366
 20
32.89048
 10
-97.054287
 20
32.890459
  0
LWPOLYLINE
  5
17E
100
AcDbEntity
  8
DFW_TAXIWAY_GUIDANCE_LINE
 62
    91
100
AcDbPolyline
 90
        5
 70
     0
 10
-97.054539
 20
32.890374
 10
-97.054473
 20
32.890404
 10
-97.054417
 20
32.890426
 10
-97.054368
 20
32.89044
 10
-97.054288
 20
32.890459
  0
LWPOLYLINE
  5
17F
100
AcDbEntity
  8
DFW_TAXIWAY_GUIDANCE_LINE
 62
    91
100
AcDbPolyline
 90
        7
 70
     0
 10
-97.051188
 20
32.890445
 10
-97.051527
 20
32.89045
 10
-97.052127
 20
32.890453
 10
-97.052822
 20
32.890453
 10
-97.053419
 20
32.890456
 10
-97.053976
 20
32.890457
 10
-97.054539
 20
32.890461
  0
LWPOLYLINE
  5
180
100
AcDbEntity
  8
DFW_TAXIWAY_GUIDANCE_LINE
 62
    91
100
AcDbPolyline
 90
        7
 70
     0
 10
-97.054526
 20
32.893283
 10
-97.054453
 20
32.893076
 10
-97.054386
 20
32.892906
 10
-97.054276
 20
32.892669
 10
-97.054163
 20
32.892456
 10
-97.054033
 20
32.892243
 10
-97.052822
 20
32.890454
  0
LWPOLYLINE
  5
181
100
AcDbEntity
  8
DFW_TAXIWAY_GUIDANCE_LINE
 62
    91
100
AcDbPolyline
 90
        7
 70
     0
 10
-97.052806
 20
32.894029
 10
-97.053786
 20
32.892587
 10
-97.054033
 20
32.892243
 10
-97.054181
 20
32.891996
 10
-97.054346
 20
32.89168
 10
-97.054443
 20
32.891466
 10
-97.054535
 20
32.891224
  0
LWPOLYLINE
  5
182
100
AcDbEntity
  8
DFW_TAXIWAY_GUIDANCE_LINE
 62
    91
100
AcDbPolyline
 90
        7
 70
     0
 10
-97.052806
 20
32.894026
 10
-97.053246
 20
32.894683
 10
-97.053681
 20
32.895332
 10
-97.054163
 20
32.896047
 10
-97.054309
 20
32.896338
 10
-97.05444
 20
32.896651
 10
-97.054506
 20
32.896837
  0
LWPOLYLINE
  5
183
100
AcDbEntity
  8
DFW_TAXIWAY_GUIDANCE_LINE
 62
    91
100
AcDbPolyline
 90
        6
 70
     0
 10
-97.05424
 20
32.894031
 10
-97.054302
 20
32.89402
 10
-97.054374
 20
32.894008
 10
-97.054426
 20
32.89399
 10
-97.054469
 20
32.89397
 10
-97.054523
 20
32.893946
  0
LWPOLYLINE
  5
184
100
AcDbEntity
  8
DFW_TAXIWAY_GUIDANCE_LINE
 62
    91
100
AcDbPolyline
 90
        5
 70
     0
 10
-97.054522
 20
32.894137
 10
-97.054455
 20
32.894098
 10
-97.054365
 20
32.894061
 10
-97.054285
 20
32.894039
 10
-97.05424
 20
32.894031
  0
LWPOLYLINE
  5
185
100
AcDbEntity
  8
DFW_TAXIWAY_GUIDANCE_LINE
 62
    91
100
AcDbPolyline
 90
        7
 70
     0
 10
-97.051171
 20
32.894022
 10
-97.051525
 20
32.894024
 10
-97.052121
 20
32.894028
 10
-97.052806
 20
32.894026
 10
-97.053423
 20
32.894032
 10
-97.053907
 20
32.894031
 10
-97.054523
 20
32.894032
  0
LWPOLYLINE
  5
186
100
AcDbEntity
  8
DFW_TAXIWAY_GUIDANCE_LINE
 62
    91
100
AcDbPolyline
 90
        4
 70
     0
 10
-97.052783
 20
32.897598
 10
-97.052115
 20
32.897594
 10
-97.051508
 20
32.897593
 10
-97.051152
 20
32.897595
  0
LWPOLYLINE
  5
187
100
AcDbEntity
  8
DFW_TAXIWAY_GUIDANCE_LINE
 62
    91
100
AcDbPolyline
 90
        4
 70
     0
 10
-97.052847
 20
32.885146
 10
-97.052846
 20
32.886763
 10
-97.052832
 20
32.887705
 10
-97.052783
 20
32.898206
  0
LWPOLYLINE
  5
188
100
AcDbEntity
  8
DFW_TAXIWAY_GUIDANCE_LINE
 62
    91
100
AcDbPolyline
 90
        2
 70
     0
 10
-97.054557
 20
32.886681
 10
-97.054503
 20
32.886645
  0
LWPOLYLINE
  5
189
100
AcDbEntity
  8
DFW_TAXIWAY_GUIDANCE_LINE
 62
    91
100
AcDbPolyline
 90
       12
 70
     0
 10
-97.051209
 20
32.886086
 10
-97.051814
 20
32.886087
 10
-97.052308
 20
32.886125
 10
-97.052616
 20
32.886159
 10
-97.052847
 20
32.886195
 10
-97.053073
 20
32.886236
 10
-97.053281
 20
32.886276
 10
-97.053511
 20
32.88633
 10
-97.053862
 20
32.886426
 10
-97.054068
 20
32.886487
 10
-97.054263
 20
32.886552
 10
-97.054557
 20
32.886666
  0
LWPOLYLINE
  5
18A
100
AcDbEntity
  8
DFW_TAXIWAY_GUIDANCE_LINE
 62
    91
100
AcDbPolyline
 90
        2
 70
     0
 10
-97.054564
 20
32.885566
 10
-97.054456
 20
32.885506
  0
LWPOLYLINE
  5
18B
100
AcDbEntity
  8
DFW_TAXIWAY_GUIDANCE_LINE
 62
    91
100
AcDbPolyline
 90
       12
 70
     0
 10
-97.051216
 20
32.885055
 10
-97.051539
 20
32.885054
 10
-97.051794
 20
32.885057
 10
-97.051907
 20
32.885062
 10
-97.052079
 20
32.885073
 10
-97.052697
 20
32.885126
 10
-97.052849
 20
32.885146
 10
-97.053211
 20
32.885202
 10
-97.053609
 20
32.885285
 10
-97.054073
 20
32.885393
 10
-97.054249
 20
32.88544
 10
-97.054564
 20
32.885541
  0
LWPOLYLINE
  5
18C
100
AcDbEntity
  8
DFW_TAXIWAY_GUIDANCE_LINE
 62
    91
100
AcDbPolyline
 90
        4
 70
     0
 10
-97.055322
 20
32.887021
 10
-97.055216
 20
32.886963
 10
-97.055144
 20
32.886925
 10
-97.055035
 20
32.886869
  0
LWPOLYLINE
  5
18D
100
AcDbEntity
  8
DFW_TAXIWAY_GUIDANCE_LINE
 62
    91
100
AcDbPolyline
 90
        2
 70
     0
 10
-97.057113
 20
32.88687
 10
-97.056773
 20
32.887189
  0
LWPOLYLINE
  5
18E
100
AcDbEntity
  8
DFW_TAXIWAY_GUIDANCE_LINE
 62
    91
100
AcDbPolyline
 90
        5
 70
     0
 10
-97.055299
 20
32.885829
 10
-97.055252
 20
32.88582
 10
-97.055208
 20
32.885826
 10
-97.055156
 20
32.885836
 10
-97.055042
 20
32.885869
  0
LWPOLYLINE
  5
18F
100
AcDbEntity
  8
DFW_TAXIWAY_GUIDANCE_LINE
 62
    91
100
AcDbPolyline
 90
       10
 70
     0
 10
-97.057604
 20
32.887275
 10
-97.057364
 20
32.88707
 10
-97.057108
 20
32.886867
 10
-97.056807
 20
32.886647
 10
-97.056658
 20
32.886544
 10
-97.056517
 20
32.886459
 10
-97.056165
 20
32.88625
 10
-97.055944
 20
32.886128
 10
-97.055596
 20
32.885957
 10
-97.055044
 20
32.885718
  0
LWPOLYLINE
  5
190
100
AcDbEntity
  8
DFW_TAXIWAY_GUIDANCE_LINE
 62
    91
100
AcDbPolyline
 90
        2
 70
     0
 10
-97.056295
 20
32.887638
 10
-97.056773
 20
32.887189
  0
LWPOLYLINE
  5
191
100
AcDbEntity
  8
DFW_TAXIWAY_GUIDANCE_LINE
 62
    91
100
AcDbPolyline
 90
       13
 70
     0
 10
-97.055033
 20
32.887077
 10
-97.05507
 20
32.887055
 10
-97.055116
 20
32.887035
 10
-97.055155
 20
32.887019
 10
-97.055187
 20
32.887011
 10
-97.055241
 20
32.887008
 10
-97.055287
 20
32.887011
 10
-97.055322
 20
32.887021
 10
-97.055542
 20
32.887139
 10
-97.055939
 20
32.887384
 10
-97.056295
 20
32.887638
 10
-97.05649
 20
32.887798
 10
-97.056768
 20
32.888033
  0
LWPOLYLINE
  5
192
100
AcDbEntity
  8
DFW_TAXIWAY_GUIDANCE_LINE
 62
    91
100
AcDbPolyline
 90
        7
 70
     0
 10
-97.082581
 20
32.9098
 10
-97.082628
 20
32.909753
 10
-97.082673
 20
32.909712
 10
-97.082702
 20
32.909673
 10
-97.082733
 20
32.90963
 10
-97.082754
 20
32.909582
 10
-97.082773
 20
32.909534
  0
LWPOLYLINE
  5
193
100
AcDbEntity
  8
DFW_TAXIWAY_GUIDANCE_LINE
 62
    91
100
AcDbPolyline
 90
        2
 70
     0
 10
-97.081969
 20
32.910243
 10
-97.081635
 20
32.910488
  0
LWPOLYLINE
  5
194
100
AcDbEntity
  8
DFW_TAXIWAY_GUIDANCE_LINE
 62
    91
100
AcDbPolyline
 90
       22
 70
     0
 10
-97.077766
 20
32.906876
 10
-97.078236
 20
32.907341
 10
-97.080168
 20
32.90921
 10
-97.081115
 20
32.910139
 10
-97.081172
 20
32.910181
 10
-97.081208
 20
32.910206
 10
-97.081262
 20
32.910238
 10
-97.08131
 20
32.910263
 10
-97.081349
 20
32.910278
 10
-97.081394
 20
32.910292
 10
-97.081454
 20
32.910311
 10
-97.081512
 20
32.91032
 10
-97.08158
 20
32.910325
 10
-97.081635
 20
32.910324
 10
-97.081696
 20
32.910321
 10
-97.08177
 20
32.910308
 10
-97.081829
 20
32.910293
 10
-97.081919
 20
32.910265
 10
-97.081969
 20
32.910243
 10
-97.082025
 20
32.910205
 10
-97.082488
 20
32.909869
 10
-97.082846
 20
32.909605
  0
LWPOLYLINE
  5
195
100
AcDbEntity
  8
DFW_TAXIWAY_GUIDANCE_LINE
 62
    91
100
AcDbPolyline
 90
       13
 70
     0
 10
-97.073889
 20
32.902338
 10
-97.073855
 20
32.902375
 10
-97.073807
 20
32.902435
 10
-97.073769
 20
32.902494
 10
-97.073738
 20
32.902556
 10
-97.073721
 20
32.90261
 10
-97.073708
 20
32.902667
 10
-97.073707
 20
32.902738
 10
-97.07372
 20
32.90281
 10
-97.073739
 20
32.902878
 10
-97.073766
 20
32.902944
 10
-97.073796
 20
32.903003
 10
-97.073833
 20
32.903053
  0
LWPOLYLINE
  5
196
100
AcDbEntity
  8
DFW_TAXIWAY_GUIDANCE_LINE
 62
    91
100
AcDbPolyline
 90
       10
 70
     0
 10
-97.073889
 20
32.902338
 10
-97.07376
 20
32.902395
 10
-97.07368
 20
32.902418
 10
-97.073624
 20
32.90243
 10
-97.07356
 20
32.902437
 10
-97.073488
 20
32.902439
 10
-97.073391
 20
32.902431
 10
-97.073308
 20
32.902413
 10
-97.07322
 20
32.90239
 10
-97.073093
 20
32.902335
  0
LWPOLYLINE
  5
197
100
AcDbEntity
  8
DFW_TAXIWAY_GUIDANCE_LINE
 62
    91
100
AcDbPolyline
 90
        5
 70
     0
 10
-97.074816
 20
32.901793
 10
-97.074747
 20
32.901797
 10
-97.07467
 20
32.901813
 10
-97.074608
 20
32.901833
 10
-97.07447
 20
32.901907
  0
LWPOLYLINE
  5
198
100
AcDbEntity
  8
DFW_TAXIWAY_GUIDANCE_LINE
 62
    91
100
AcDbPolyline
 90
        9
 70
     0
 10
-97.073435
 20
32.902667
 10
-97.073902
 20
32.902328
 10
-97.074466
 20
32.901911
 10
-97.074557
 20
32.901834
 10
-97.074587
 20
32.901796
 10
-97.074612
 20
32.901765
 10
-97.074634
 20
32.901722
 10
-97.074648
 20
32.901688
 10
-97.074661
 20
32.901642
  0
LWPOLYLINE
  5
199
100
AcDbEntity
  8
DFW_TAXIWAY_GUIDANCE_LINE
 62
    91
100
AcDbPolyline
 90
       15
 70
     0
 10
-97.077408
 20
32.905552
 10
-97.0774
 20
32.905611
 10
-97.077382
 20
32.905675
 10
-97.077355
 20
32.905737
 10
-97.07732
 20
32.905781
 10
-97.077271
 20
32.905824
 10
-97.077217
 20
32.905858
 10
-97.077166
 20
32.905882
 10
-97.077114
 20
32.905901
 10
-97.077055
 20
32.905913
 10
-97.076988
 20
32.905919
 10
-97.0769
 20
32.905913
 10
-97.076815
 20
32.905891
 10
-97.076735
 20
32.905853
 10
-97.07668
 20
32.905818
  0
LWPOLYLINE
  5
19A
100
AcDbEntity
  8
DFW_TAXIWAY_GUIDANCE_LINE
 62
    91
100
AcDbPolyline
 90
        9
 70
     0
 10
-97.077706
 20
32.906817
 10
-97.077387
 20
32.905463
 10
-97.077344
 20
32.905262
 10
-97.077198
 20
32.904617
 10
-97.07717
 20
32.904521
 10
-97.0771
 20
32.904335
 10
-97.077032
 20
32.904163
 10
-97.076914
 20
32.903911
 10
-97.07683
 20
32.903752
  0
LWPOLYLINE
  5
19B
100
AcDbEntity
  8
DFW_TAXIWAY_GUIDANCE_LINE
 62
    91
100
AcDbPolyline
 90
        3
 70
     0
 10
-97.073009
 20
32.902253
 10
-97.07771
 20
32.906821
 10
-97.077766
 20
32.906876
  0
LWPOLYLINE
  5
19C
100
AcDbEntity
  8
DFW_TAXIWAY_GUIDANCE_LINE
 62
    91
100
AcDbPolyline
 90
       13
 70
     0
 10
-97.070058
 20
32.898577
 10
-97.070019
 20
32.898621
 10
-97.06998
 20
32.898665
 10
-97.069946
 20
32.898716
 10
-97.069912
 20
32.898778
 10
-97.069889
 20
32.898838
 10
-97.069869
 20
32.898892
 10
-97.069865
 20
32.898942
 10
-97.069865
 20
32.899016
 10
-97.069877
 20
32.899115
 10
-97.069892
 20
32.899158
 10
-97.069916
 20
32.899213
 10
-97.06998
 20
32.899305
  0
LWPOLYLINE
  5
19D
100
AcDbEntity
  8
DFW_TAXIWAY_GUIDANCE_LINE
 62
    91
100
AcDbPolyline
 90
       12
 70
     0
 10
-97.061586
 20
32.891144
 10
-97.061616
 20
32.8912
 10
-97.061635
 20
32.891255
 10
-97.061643
 20
32.891301
 10
-97.06165
 20
32.891347
 10
-97.061655
 20
32.891391
 10
-97.061654
 20
32.891444
 10
-97.061647
 20
32.891508
 10
-97.061625
 20
32.891582
 10
-97.061603
 20
32.891627
 10
-97.061561
 20
32.891683
 10
-97.0615
 20
32.891755
  0
LWPOLYLINE
  5
19E
100
AcDbEntity
  8
DFW_TAXIWAY_GUIDANCE_LINE
 62
    91
100
AcDbPolyline
 90
       13
 70
     0
 10
-97.061501
 20
32.891754
 10
-97.061553
 20
32.891729
 10
-97.061605
 20
32.891709
 10
-97.06167
 20
32.891694
 10
-97.061729
 20
32.891681
 10
-97.061771
 20
32.891676
 10
-97.061826
 20
32.891672
 10
-97.061894
 20
32.891676
 10
-97.061966
 20
32.891687
 10
-97.062097
 20
32.89172
 10
-97.062146
 20
32.89174
 10
-97.062193
 20
32.891758
 10
-97.062253
 20
32.891789
  0
LWPOLYLINE
  5
19F
100
AcDbEntity
  8
DFW_TAXIWAY_GUIDANCE_LINE
 62
    91
100
AcDbPolyline
 90
        6
 70
     0
 10
-97.063569
 20
32.891149
 10
-97.063602
 20
32.891132
 10
-97.063654
 20
32.891113
 10
-97.063712
 20
32.891096
 10
-97.063759
 20
32.891087
 10
-97.063796
 20
32.891084
  0
LWPOLYLINE
  5
1A0
100
AcDbEntity
  8
DFW_TAXIWAY_GUIDANCE_LINE
 62
    91
100
AcDbPolyline
 90
        5
 70
     0
 10
-97.06244
 20
32.891972
 10
-97.062778
 20
32.891728
 10
-97.063214
 20
32.891407
 10
-97.063482
 20
32.891214
 10
-97.063736
 20
32.891026
  0
LWPOLYLINE
  5
1A1
100
AcDbEntity
  8
DFW_TAXIWAY_GUIDANCE_LINE
 62
    91
100
AcDbPolyline
 90
        7
 70
     0
 10
-97.060986
 20
32.89213
 10
-97.061453
 20
32.891789
 10
-97.061908
 20
32.891457
 10
-97.062282
 20
32.891187
 10
-97.062679
 20
32.89089
 10
-97.063005
 20
32.890655
 10
-97.063201
 20
32.890508
  0
LWPOLYLINE
  5
1A2
100
AcDbEntity
  8
DFW_TAXIWAY_GUIDANCE_LINE
 62
    91
100
AcDbPolyline
 90
        9
 70
     0
 10
-97.059282
 20
32.890477
 10
-97.059424
 20
32.890619
 10
-97.063447
 20
32.894524
 10
-97.064925
 20
32.894948
 10
-97.068387
 20
32.895971
 10
-97.0685
 20
32.896012
 10
-97.068771
 20
32.896128
 10
-97.068992
 20
32.896233
 10
-97.069215
 20
32.896351
  0
LWPOLYLINE
  5
1A3
100
AcDbEntity
  8
DFW_TAXIWAY_GUIDANCE_LINE
 62
    91
100
AcDbPolyline
 90
        7
 70
     0
 10
-97.070965
 20
32.898052
 10
-97.070924
 20
32.898055
 10
-97.070878
 20
32.898062
 10
-97.070834
 20
32.898068
 10
-97.070787
 20
32.89808
 10
-97.070735
 20
32.898096
 10
-97.070682
 20
32.898127
  0
LWPOLYLINE
  5
1A4
100
AcDbEntity
  8
DFW_TAXIWAY_GUIDANCE_LINE
 62
    91
100
AcDbPolyline
 90
        9
 70
     0
 10
-97.069589
 20
32.898928
 10
-97.070053
 20
32.89858
 10
-97.070629
 20
32.898172
 10
-97.070691
 20
32.898119
 10
-97.070722
 20
32.898087
 10
-97.070756
 20
32.898045
 10
-97.070779
 20
32.898014
 10
-97.070803
 20
32.897974
 10
-97.070827
 20
32.897918
  0
LWPOLYLINE
  5
1A5
100
AcDbEntity
  8
DFW_TAXIWAY_GUIDANCE_LINE
 62
    91
100
AcDbPolyline
 90
        4
 70
     0
 10
-97.061502
 20
32.891062
 10
-97.062257
 20
32.891793
 10
-97.062768
 20
32.892295
 10
-97.073009
 20
32.902253
  0
LWPOLYLINE
  5
1A6
100
AcDbEntity
  8
DFW_TAXIWAY_GUIDANCE_LINE
 62
    91
100
AcDbPolyline
 90
        3
 70
     0
 10
-97.057924
 20
32.896576
 10
-97.058427
 20
32.89658
 10
-97.058782
 20
32.896581
  0
LWPOLYLINE
  5
1A7
100
AcDbEntity
  8
DFW_TAXIWAY_GUIDANCE_LINE
 62
    91
100
AcDbPolyline
 90
        7
 70
     0
 10
-97.055003
 20
32.894034
 10
-97.05565
 20
32.894035
 10
-97.055752
 20
32.894037
 10
-97.056055
 20
32.894039
 10
-97.056712
 20
32.894045
 10
-97.057321
 20
32.894048
 10
-97.057936
 20
32.894046
  0
LWPOLYLINE
  5
1A8
100
AcDbEntity
  8
DFW_TAXIWAY_GUIDANCE_LINE
 62
    91
100
AcDbPolyline
 90
       14
 70
     0
 10
-97.058059
 20
32.888775
 10
-97.05808
 20
32.88874
 10
-97.058108
 20
32.888701
 10
-97.058142
 20
32.888666
 10
-97.058173
 20
32.888638
 10
-97.058216
 20
32.888605
 10
-97.058255
 20
32.888581
 10
-97.058298
 20
32.88856
 10
-97.058343
 20
32.888538
 10
-97.058398
 20
32.888517
 10
-97.058457
 20
32.888503
 10
-97.058513
 20
32.888494
 10
-97.058616
 20
32.888485
 10
-97.058687
 20
32.88849
  0
LWPOLYLINE
  5
1A9
100
AcDbEntity
  8
DFW_TAXIWAY_GUIDANCE_LINE
 62
    91
100
AcDbPolyline
 90
        6
 70
     0
 10
-97.057604
 20
32.887275
 10
-97.057972
 20
32.887637
 10
-97.058539
 20
32.888179
 10
-97.059071
 20
32.888703
 10
-97.059163
 20
32.88879
 10
-97.061502
 20
32.891062
  0
LWPOLYLINE
  5
1AA
100
AcDbEntity
  8
DFW_TAXIWAY_GUIDANCE_LINE
 62
    91
100
AcDbPolyline
 90
        3
 70
     0
 10
-97.057904
 20
32.900601
 10
-97.058007
 20
32.879136
 10
-97.055071
 20
32.879125
  0
LWPOLYLINE
  5
1AB
100
AcDbEntity
  8
DFW_TAXIWAY_GUIDANCE_LINE
 62
    91
100
AcDbPolyline
 90
        6
 70
     0
 10
-97.059282
 20
32.890477
 10
-97.058712
 20
32.889925
 10
-97.05796
 20
32.88919
 10
-97.057622
 20
32.888856
 10
-97.056961
 20
32.888217
 10
-97.056768
 20
32.888033
  0
LWPOLYLINE
  5
1AC
100
AcDbEntity
  8
DFW_TAXIWAY_GUIDANCE_LINE
 62
    91
100
AcDbPolyline
 90
        2
 70
     0
 10
-97.059278
 20
32.89048
 10
-97.058582
 20
32.890475
  0
LWPOLYLINE
  5
1AD
100
AcDbEntity
  8
DFW_TAXIWAY_GUIDANCE_LINE
 62
    91
100
AcDbPolyline
 90
        5
 70
     0
 10
-97.055017
 20
32.890462
 10
-97.055664
 20
32.890464
 10
-97.056106
 20
32.890465
 10
-97.057303
 20
32.89047
 10
-97.058582
 20
32.890475
  0
ENDSEC
  0
SECTION
  2
OBJECTS
  0
DICTIONARY
  5
19
100
AcDbDictionary
  3
ACAD_GROUP
350
1A
  3
ACAD_MLINESTYLE
350
1B
  0
DICTIONARY
  5
1A
102
{ACAD_REACTORS
330
19
102
}
100
AcDbDictionary
  0
DICTIONARY
  5
1B
102
{ACAD_REACTORS
330
19
102
}
100
AcDbDictionary
  3
STANDARD
350
1C
  0
MLINESTYLE
  5
1C
102
{ACAD_REACTORS
330
1B
102
}
100
AcDbMlineStyle
  2
STANDARD
 70
     0
  3

 62
     0
 51
90.0
 52
90.0
 71
     2
 49
0.5
 62
   256
  6
BYLAYER
 49
-0.5
 62
   256
  6
BYLAYER
  0
ENDSEC
  0
EOF
