  0
SECTION
  2
HEADER
  0
ENDSEC
  0
SECTION
  2
ENTITIES
  0
3DFACE
  8
mg_to_dxf
  62
0
  10
-2638.40
  20
-2774.79
  30
0.50
  11
-2639.20
  21
-2780.74
  31
0.50
  12
-2636.22
  22
-2781.13
  32
0.50
  13
-2635.43
  23
-2775.18
  33
0.50
  0
3DFACE
  8
mg_to_dxf
  62
0
  10
-2639.99
  20
-2786.68
  30
0.50
  11
-2640.78
  21
-2792.63
  31
0.50
  12
-2637.81
  22
-2793.03
  32
0.50
  13
-2637.02
  23
-2787.08
  33
0.50
  0
3DFACE
  8
mg_to_dxf
  62
0
  10
-2641.57
  20
-2798.58
  30
0.50
  11
-2642.37
  21
-2804.53
  31
0.50
  12
-2639.39
  22
-2804.92
  32
0.50
  13
-2638.60
  23
-2798.97
  33
0.50
  0
3DFACE
  8
mg_to_dxf
  62
0
  10
-2643.16
  20
-2810.47
  30
0.50
  11
-2643.95
  21
-2816.42
  31
0.50
  12
-2640.98
  22
-2816.82
  32
0.50
  13
-2640.19
  23
-2810.87
  33
0.50
  0
3DFACE
  8
mg_to_dxf
  62
0
  10
-2644.75
  20
-2822.37
  30
0.50
  11
-2645.54
  21
-2828.32
  31
0.50
  12
-2642.56
  22
-2828.71
  32
0.50
  13
-2641.77
  23
-2822.76
  33
0.50
  0
3DFACE
  8
mg_to_dxf
  62
0
  10
-2646.33
  20
-2834.26
  30
0.50
  11
-2647.12
  21
-2840.21
  31
0.50
  12
-2644.15
  22
-2840.61
  32
0.50
  13
-2643.36
  23
-2834.66
  33
0.50
  0
3DFACE
  8
mg_to_dxf
  62
0
  10
-2647.92
  20
-2846.16
  30
0.50
  11
-2648.71
  21
-2852.10
  31
0.50
  12
-2645.74
  22
-2852.50
  32
0.50
  13
-2644.94
  23
-2846.55
  33
0.50
  0
3DFACE
  8
mg_to_dxf
  62
0
  10
-2649.50
  20
-2858.05
  30
0.50
  11
-2650.29
  21
-2864.00
  31
0.50
  12
-2647.32
  22
-2864.40
  32
0.50
  13
-2646.53
  23
-2858.45
  33
0.50
  0
3DFACE
  8
mg_to_dxf
  62
0
  10
-2651.09
  20
-2869.95
  30
0.50
  11
-2651.88
  21
-2875.89
  31
0.50
  12
-2648.91
  22
-2876.29
  32
0.50
  13
-2648.11
  23
-2870.34
  33
0.50
  0
3DFACE
  8
mg_to_dxf
  62
0
  10
-2652.67
  20
-2881.84
  30
0.50
  11
-2653.47
  21
-2887.79
  31
0.50
  12
-2650.49
  22
-2888.19
  32
0.50
  13
-2649.70
  23
-2882.24
  33
0.50
  0
3DFACE
  8
mg_to_dxf
  62
0
  10
-2654.26
  20
-2893.74
  30
0.50
  11
-2655.05
  21
-2899.68
  31
0.50
  12
-2652.08
  22
-2900.08
  32
0.50
  13
-2651.28
  23
-2894.13
  33
0.50
  0
3DFACE
  8
mg_to_dxf
  62
0
  10
-2655.84
  20
-2905.63
  30
0.50
  11
-2656.64
  21
-2911.58
  31
0.50
  12
-2653.66
  22
-2911.98
  32
0.50
  13
-2652.87
  23
-2906.03
  33
0.50
  0
3DFACE
  8
mg_to_dxf
  62
0
  10
-2657.43
  20
-2917.53
  30
0.50
  11
-2658.22
  21
-2923.47
  31
0.50
  12
-2655.25
  22
-2923.87
  32
0.50
  13
-2654.46
  23
-2917.92
  33
0.50
  0
3DFACE
  8
mg_to_dxf
  62
0
  10
-2659.02
  20
-2929.42
  30
0.50
  11
-2659.81
  21
-2935.37
  31
0.50
  12
-2656.83
  22
-2935.76
  32
0.50
  13
-2656.04
  23
-2929.82
  33
0.50
  0
3DFACE
  8
mg_to_dxf
  62
0
  10
-2660.60
  20
-2941.32
  30
0.50
  11
-2661.39
  21
-2947.26
  31
0.50
  12
-2658.42
  22
-2947.66
  32
0.50
  13
-2657.63
  23
-2941.71
  33
0.50
  0
3DFACE
  8
mg_to_dxf
  62
0
  10
-2662.19
  20
-2953.21
  30
0.50
  11
-2662.98
  21
-2959.16
  31
0.50
  12
-2660.01
  22
-2959.55
  32
0.50
  13
-2659.21
  23
-2953.61
  33
0.50
  0
3DFACE
  8
mg_to_dxf
  62
0
  10
-2663.77
  20
-2965.11
  30
0.50
  11
-2664.56
  21
-2971.05
  31
0.50
  12
-2661.59
  22
-2971.45
  32
0.50
  13
-2660.80
  23
-2965.50
  33
0.50
  0
3DFACE
  8
mg_to_dxf
  62
0
  10
-2665.36
  20
-2977.00
  30
0.50
  11
-2666.15
  21
-2982.95
  31
0.50
  12
-2663.18
  22
-2983.34
  32
0.50
  13
-2662.38
  23
-2977.40
  33
0.50
  0
3DFACE
  8
mg_to_dxf
  62
0
  10
-2666.94
  20
-2988.89
  30
0.50
  11
-2667.74
  21
-2994.84
  31
0.50
  12
-2664.76
  22
-2995.24
  32
0.50
  13
-2663.97
  23
-2989.29
  33
0.50
  0
3DFACE
  8
mg_to_dxf
  62
0
  10
-2668.53
  20
-3000.79
  30
0.50
  11
-2669.32
  21
-3006.74
  31
0.50
  12
-2666.35
  22
-3007.13
  32
0.50
  13
-2665.55
  23
-3001.19
  33
0.50
  0
3DFACE
  8
mg_to_dxf
  62
0
  10
-2670.11
  20
-3012.68
  30
0.50
  11
-2670.91
  21
-3018.63
  31
0.50
  12
-2667.93
  22
-3019.03
  32
0.50
  13
-2667.14
  23
-3013.08
  33
0.50
  0
3DFACE
  8
mg_to_dxf
  62
0
  10
-2671.70
  20
-3024.58
  30
0.50
  11
-2672.49
  21
-3030.53
  31
0.50
  12
-2669.52
  22
-3030.92
  32
0.50
  13
-2668.73
  23
-3024.98
  33
0.50
  0
3DFACE
  8
mg_to_dxf
  62
0
  10
-2673.28
  20
-3036.47
  30
0.50
  11
-2674.08
  21
-3042.42
  31
0.50
  12
-2671.10
  22
-3042.82
  32
0.50
  13
-2670.31
  23
-3036.87
  33
0.50
  0
3DFACE
  8
mg_to_dxf
  62
0
  10
-2674.87
  20
-3048.37
  30
0.50
  11
-2675.66
  21
-3054.32
  31
0.50
  12
-2672.69
  22
-3054.71
  32
0.50
  13
-2671.90
  23
-3048.77
  33
0.50
  0
3DFACE
  8
mg_to_dxf
  62
0
  10
-2676.46
  20
-3060.26
  30
0.50
  11
-2677.25
  21
-3066.21
  31
0.50
  12
-2674.27
  22
-3066.61
  32
0.50
  13
-2673.48
  23
-3060.66
  33
0.50
  0
3DFACE
  8
mg_to_dxf
  62
0
  10
-2678.04
  20
-3072.16
  30
0.50
  11
-2678.83
  21
-3078.11
  31
0.50
  12
-2675.86
  22
-3078.50
  32
0.50
  13
-2675.07
  23
-3072.55
  33
0.50
  0
3DFACE
  8
mg_to_dxf
  62
0
  10
-2679.63
  20
-3084.05
  30
0.50
  11
-2680.42
  21
-3090.00
  31
0.50
  12
-2677.45
  22
-3090.40
  32
0.50
  13
-2676.65
  23
-3084.45
  33
0.50
  0
3DFACE
  8
mg_to_dxf
  62
0
  10
-2681.21
  20
-3095.95
  30
0.50
  11
-2682.01
  21
-3101.90
  31
0.50
  12
-2679.03
  22
-3102.29
  32
0.50
  13
-2678.24
  23
-3096.34
  33
0.50
  0
3DFACE
  8
mg_to_dxf
  62
0
  10
-2682.80
  20
-3107.84
  30
0.50
  11
-2683.59
  21
-3113.79
  31
0.50
  12
-2680.62
  22
-3114.19
  32
0.50
  13
-2679.82
  23
-3108.24
  33
0.50
  0
3DFACE
  8
mg_to_dxf
  62
0
  10
-2684.38
  20
-3119.74
  30
0.50
  11
-2685.18
  21
-3125.69
  31
0.50
  12
-2682.20
  22
-3126.08
  32
0.50
  13
-2681.41
  23
-3120.13
  33
0.50
  0
3DFACE
  8
mg_to_dxf
  62
0
  10
-2685.97
  20
-3131.63
  30
0.50
  11
-2686.76
  21
-3137.58
  31
0.50
  12
-2683.79
  22
-3137.98
  32
0.50
  13
-2683.00
  23
-3132.03
  33
0.50
  0
3DFACE
  8
mg_to_dxf
  62
0
  10
-2687.55
  20
-3143.53
  30
0.50
  11
-2688.35
  21
-3149.47
  31
0.50
  12
-2685.37
  22
-3149.87
  32
0.50
  13
-2684.58
  23
-3143.92
  33
0.50
  0
3DFACE
  8
mg_to_dxf
  62
0
  10
-2689.14
  20
-3155.42
  30
0.50
  11
-2689.93
  21
-3161.37
  31
0.50
  12
-2686.96
  22
-3161.77
  32
0.50
  13
-2686.17
  23
-3155.82
  33
0.50
  0
3DFACE
  8
mg_to_dxf
  62
0
  10
-2690.73
  20
-3167.32
  30
0.50
  11
-2691.52
  21
-3173.26
  31
0.50
  12
-2688.54
  22
-3173.66
  32
0.50
  13
-2687.75
  23
-3167.71
  33
0.50
  0
3DFACE
  8
mg_to_dxf
  62
0
  10
-2692.31
  20
-3179.21
  30
0.50
  11
-2693.10
  21
-3185.16
  31
0.50
  12
-2690.13
  22
-3185.56
  32
0.50
  13
-2689.34
  23
-3179.61
  33
0.50
  0
3DFACE
  8
mg_to_dxf
  62
0
  10
-2693.90
  20
-3191.11
  30
0.50
  11
-2694.69
  21
-3197.05
  31
0.50
  12
-2691.72
  22
-3197.45
  32
0.50
  13
-2690.92
  23
-3191.50
  33
0.50
  0
3DFACE
  8
mg_to_dxf
  62
0
  10
-2695.48
  20
-3203.00
  30
0.50
  11
-2696.27
  21
-3208.95
  31
0.50
  12
-2693.30
  22
-3209.34
  32
0.50
  13
-2692.51
  23
-3203.40
  33
0.50
  0
3DFACE
  8
mg_to_dxf
  62
0
  10
-2697.07
  20
-3214.90
  30
0.50
  11
-2697.86
  21
-3220.84
  31
0.50
  12
-2694.89
  22
-3221.24
  32
0.50
  13
-2694.09
  23
-3215.29
  33
0.50
  0
3DFACE
  8
mg_to_dxf
  62
0
  10
-2698.65
  20
-3226.79
  30
0.50
  11
-2699.45
  21
-3232.74
  31
0.50
  12
-2696.47
  22
-3233.13
  32
0.50
  13
-2695.68
  23
-3227.19
  33
0.50
  0
3DFACE
  8
mg_to_dxf
  62
0
  10
-2700.24
  20
-3238.69
  30
0.50
  11
-2701.03
  21
-3244.63
  31
0.50
  12
-2698.06
  22
-3245.03
  32
0.50
  13
-2697.26
  23
-3239.08
  33
0.50
  0
3DFACE
  8
mg_to_dxf
  62
0
  10
-2716.09
  20
-3357.63
  30
0.50
  11
-2716.89
  21
-3363.58
  31
0.50
  12
-2713.91
  22
-3363.98
  32
0.50
  13
-2713.12
  23
-3358.03
  33
0.50
  0
3DFACE
  8
mg_to_dxf
  62
0
  10
-2714.51
  20
-3345.74
  30
0.50
  11
-2715.30
  21
-3351.69
  31
0.50
  12
-2712.33
  22
-3352.08
  32
0.50
  13
-2711.53
  23
-3346.14
  33
0.50
  0
3DFACE
  8
mg_to_dxf
  62
0
  10
-2712.92
  20
-3333.84
  30
0.50
  11
-2713.72
  21
-3339.79
  31
0.50
  12
-2710.74
  22
-3340.19
  32
0.50
  13
-2709.95
  23
-3334.24
  33
0.50
  0
3DFACE
  8
mg_to_dxf
  62
0
  10
-2711.34
  20
-3321.95
  30
0.50
  11
-2712.13
  21
-3327.90
  31
0.50
  12
-2709.16
  22
-3328.29
  32
0.50
  13
-2708.36
  23
-3322.35
  33
0.50
  0
3DFACE
  8
mg_to_dxf
  62
0
  10
-2709.75
  20
-3310.05
  30
0.50
  11
-2710.54
  21
-3316.00
  31
0.50
  12
-2707.57
  22
-3316.40
  32
0.50
  13
-2706.78
  23
-3310.45
  33
0.50
  0
3DFACE
  8
mg_to_dxf
  62
0
  10
-2708.17
  20
-3298.16
  30
0.50
  11
-2708.96
  21
-3304.11
  31
0.50
  12
-2705.98
  22
-3304.50
  32
0.50
  13
-2705.19
  23
-3298.56
  33
0.50
  0
3DFACE
  8
mg_to_dxf
  62
0
  10
-2706.58
  20
-3286.26
  30
0.50
  11
-2707.37
  21
-3292.21
  31
0.50
  12
-2704.40
  22
-3292.61
  32
0.50
  13
-2703.61
  23
-3286.66
  33
0.50
  0
3DFACE
  8
mg_to_dxf
  62
0
  10
-2704.99
  20
-3274.37
  30
0.50
  11
-2705.79
  21
-3280.32
  31
0.50
  12
-2702.81
  22
-3280.71
  32
0.50
  13
-2702.02
  23
-3274.77
  33
0.50
  0
3DFACE
  8
mg_to_dxf
  62
0
  10
-2703.41
  20
-3262.48
  30
0.50
  11
-2704.20
  21
-3268.42
  31
0.50
  12
-2701.23
  22
-3268.82
  32
0.50
  13
-2700.44
  23
-3262.87
  33
0.50
  0
3DFACE
  8
mg_to_dxf
  62
0
  10
-2701.82
  20
-3250.58
  30
0.50
  11
-2702.62
  21
-3256.53
  31
0.50
  12
-2699.64
  22
-3256.92
  32
0.50
  13
-2698.85
  23
-3250.98
  33
0.50
  0
3DFACE
  8
mg_to_dxf
  62
59
  10
-1543.76
  20
-2534.01
  30
0.00
  11
-1537.89
  21
-2535.21
  31
0.00
  12
-1537.28
  22
-2532.27
  32
0.00
  13
-1543.16
  23
-2531.07
  33
0.00
  0
3DFACE
  8
mg_to_dxf
  62
59
  10
-1532.01
  20
-2536.42
  30
0.00
  11
-1526.13
  21
-2537.62
  31
0.00
  12
-1525.53
  22
-2534.68
  32
0.00
  13
-1531.41
  23
-2533.48
  33
0.00
  0
3DFACE
  8
mg_to_dxf
  62
59
  10
-1520.25
  20
-2538.83
  30
0.00
  11
-1514.38
  21
-2540.03
  31
0.00
  12
-1513.77
  22
-2537.09
  32
0.00
  13
-1519.65
  23
-2535.89
  33
0.00
  0
3DFACE
  8
mg_to_dxf
  62
59
  10
-1508.50
  20
-2541.24
  30
0.00
  11
-1502.62
  21
-2542.45
  31
0.00
  12
-1502.02
  22
-2539.51
  32
0.00
  13
-1507.90
  23
-2538.30
  33
0.00
  0
3DFACE
  8
mg_to_dxf
  62
59
  10
-1496.74
  20
-2543.65
  30
0.00
  11
-1490.87
  21
-2544.86
  31
0.00
  12
-1490.26
  22
-2541.92
  32
0.00
  13
-1496.14
  23
-2540.71
  33
0.00
  0
3DFACE
  8
mg_to_dxf
  62
59
  10
-1484.99
  20
-2546.06
  30
0.00
  11
-1479.11
  21
-2547.27
  31
0.00
  12
-1478.51
  22
-2544.33
  32
0.00
  13
-1484.38
  23
-2543.12
  33
0.00
  0
3DFACE
  8
mg_to_dxf
  62
59
  10
-1473.23
  20
-2548.47
  30
0.00
  11
-1467.35
  21
-2549.68
  31
0.00
  12
-1466.75
  22
-2546.74
  32
0.00
  13
-1472.63
  23
-2545.53
  33
0.00
  0
3DFACE
  8
mg_to_dxf
  62
59
  10
-1461.48
  20
-2550.88
  30
0.00
  11
-1455.60
  21
-2552.09
  31
0.00
  12
-1455.00
  22
-2549.15
  32
0.00
  13
-1460.87
  23
-2547.95
  33
0.00
  0
3DFACE
  8
mg_to_dxf
  62
59
  10
-1449.72
  20
-2553.30
  30
0.00
  11
-1443.84
  21
-2554.50
  31
0.00
  12
-1443.24
  22
-2551.56
  32
0.00
  13
-1449.12
  23
-2550.36
  33
0.00
  0
3DFACE
  8
mg_to_dxf
  62
59
  10
-1437.97
  20
-2555.71
  30
0.00
  11
-1432.09
  21
-2556.91
  31
0.00
  12
-1431.49
  22
-2553.97
  32
0.00
  13
-1437.36
  23
-2552.77
  33
0.00
  0
3DFACE
  8
mg_to_dxf
  62
59
  10
-1426.21
  20
-2558.12
  30
0.00
  11
-1420.33
  21
-2559.32
  31
0.00
  12
-1419.73
  22
-2556.39
  32
0.00
  13
-1425.61
  23
-2555.18
  33
0.00
  0
3DFACE
  8
mg_to_dxf
  62
59
  10
-1414.46
  20
-2560.53
  30
0.00
  11
-1408.58
  21
-2561.74
  31
0.00
  12
-1407.98
  22
-2558.80
  32
0.00
  13
-1413.85
  23
-2557.59
  33
0.00
  0
3DFACE
  8
mg_to_dxf
  62
59
  10
-1402.70
  20
-2562.94
  30
0.00
  11
-1396.82
  21
-2564.15
  31
0.00
  12
-1396.22
  22
-2561.21
  32
0.00
  13
-1402.10
  23
-2560.00
  33
0.00
  0
3DFACE
  8
mg_to_dxf
  62
59
  10
-1390.95
  20
-2565.35
  30
0.00
  11
-1385.07
  21
-2566.56
  31
0.00
  12
-1384.47
  22
-2563.62
  32
0.00
  13
-1390.34
  23
-2562.41
  33
0.00
  0
3DFACE
  8
mg_to_dxf
  62
59
  10
-1379.19
  20
-2567.76
  30
0.00
  11
-1373.31
  21
-2568.97
  31
0.00
  12
-1372.71
  22
-2566.03
  32
0.00
  13
-1378.59
  23
-2564.83
  33
0.00
  0
3DFACE
  8
mg_to_dxf
  62
59
  10
-1367.44
  20
-2570.18
  30
0.00
  11
-1361.56
  21
-2571.38
  31
0.00
  12
-1360.96
  22
-2568.44
  32
0.00
  13
-1366.83
  23
-2567.24
  33
0.00
  0
3DFACE
  8
mg_to_dxf
  62
59
  10
-1355.68
  20
-2572.59
  30
0.00
  11
-1349.80
  21
-2573.79
  31
0.00
  12
-1349.20
  22
-2570.85
  32
0.00
  13
-1355.08
  23
-2569.65
  33
0.00
  0
3DFACE
  8
mg_to_dxf
  62
59
  10
-1343.93
  20
-2575.00
  30
0.00
  11
-1338.05
  21
-2576.20
  31
0.00
  12
-1337.44
  22
-2573.27
  32
0.00
  13
-1343.32
  23
-2572.06
  33
0.00
  0
3DFACE
  8
mg_to_dxf
  62
59
  10
-1332.17
  20
-2577.41
  30
0.00
  11
-1326.29
  21
-2578.62
  31
0.00
  12
-1325.69
  22
-2575.68
  32
0.00
  13
-1331.57
  23
-2574.47
  33
0.00
  0
3DFACE
  8
mg_to_dxf
  62
59
  10
-1320.41
  20
-2579.82
  30
0.00
  11
-1314.54
  21
-2581.03
  31
0.00
  12
-1313.93
  22
-2578.09
  32
0.00
  13
-1319.81
  23
-2576.88
  33
0.00
  0
3DFACE
  8
mg_to_dxf
  62
59
  10
-1308.66
  20
-2582.23
  30
0.00
  11
-1302.78
  21
-2583.44
  31
0.00
  12
-1302.18
  22
-2580.50
  32
0.00
  13
-1308.06
  23
-2579.29
  33
0.00
  0
3DFACE
  8
mg_to_dxf
  62
59
  10
-1296.90
  20
-2584.64
  30
0.00
  11
-1291.03
  21
-2585.85
  31
0.00
  12
-1290.42
  22
-2582.91
  32
0.00
  13
-1296.30
  23
-2581.71
  33
0.00
  0
3DFACE
  8
mg_to_dxf
  62
59
  10
-1285.15
  20
-2587.06
  30
0.00
  11
-1279.27
  21
-2588.26
  31
0.00
  12
-1278.67
  22
-2585.32
  32
0.00
  13
-1284.55
  23
-2584.12
  33
0.00
  0
3DFACE
  8
mg_to_dxf
  62
59
  10
-1273.39
  20
-2589.47
  30
0.00
  11
-1267.52
  21
-2590.67
  31
0.00
  12
-1266.91
  22
-2587.73
  32
0.00
  13
-1272.79
  23
-2586.53
  33
0.00
  0
3DFACE
  8
mg_to_dxf
  62
59
  10
-1261.64
  20
-2591.88
  30
0.00
  11
-1255.76
  21
-2593.08
  31
0.00
  12
-1255.16
  22
-2590.15
  32
0.00
  13
-1261.04
  23
-2588.94
  33
0.00
  0
3DFACE
  8
mg_to_dxf
  62
59
  10
-1249.88
  20
-2594.29
  30
0.00
  11
-1244.01
  21
-2595.50
  31
0.00
  12
-1243.40
  22
-2592.56
  32
0.00
  13
-1249.28
  23
-2591.35
  33
0.00
  0
3DFACE
  8
mg_to_dxf
  62
59
  10
-1238.13
  20
-2596.70
  30
0.00
  11
-1232.25
  21
-2597.91
  31
0.00
  12
-1231.65
  22
-2594.97
  32
0.00
  13
-1237.53
  23
-2593.76
  33
0.00
  0
3DFACE
  8
mg_to_dxf
  62
59
  10
-1226.37
  20
-2599.11
  30
0.00
  11
-1220.50
  21
-2600.32
  31
0.00
  12
-1219.89
  22
-2597.38
  32
0.00
  13
-1225.77
  23
-2596.17
  33
0.00
  0
3DFACE
  8
mg_to_dxf
  62
59
  10
-1214.62
  20
-2601.52
  30
0.00
  11
-1208.74
  21
-2602.73
  31
0.00
  12
-1208.14
  22
-2599.79
  32
0.00
  13
-1214.01
  23
-2598.59
  33
0.00
  0
3DFACE
  8
mg_to_dxf
  62
59
  10
-1202.86
  20
-2603.94
  30
0.00
  11
-1196.98
  21
-2605.14
  31
0.00
  12
-1196.38
  22
-2602.20
  32
0.00
  13
-1202.26
  23
-2601.00
  33
0.00
  0
3DFACE
  8
mg_to_dxf
  62
59
  10
-1191.11
  20
-2606.35
  30
0.00
  11
-1185.23
  21
-2607.55
  31
0.00
  12
-1184.63
  22
-2604.61
  32
0.00
  13
-1190.50
  23
-2603.41
  33
0.00
  0
3DFACE
  8
mg_to_dxf
  62
59
  10
-1179.35
  20
-2608.76
  30
0.00
  11
-1173.47
  21
-2609.96
  31
0.00
  12
-1172.87
  22
-2607.03
  32
0.00
  13
-1178.75
  23
-2605.82
  33
0.00
  0
3DFACE
  8
mg_to_dxf
  62
59
  10
-1167.60
  20
-2611.17
  30
0.00
  11
-1161.72
  21
-2612.38
  31
0.00
  12
-1161.12
  22
-2609.44
  32
0.00
  13
-1166.99
  23
-2608.23
  33
0.00
  0
3DFACE
  8
mg_to_dxf
  62
59
  10
-1155.84
  20
-2613.58
  30
0.00
  11
-1149.96
  21
-2614.79
  31
0.00
  12
-1149.36
  22
-2611.85
  32
0.00
  13
-1155.24
  23
-2610.64
  33
0.00
  0
3DFACE
  8
mg_to_dxf
  62
59
  10
-1144.09
  20
-2615.99
  30
0.00
  11
-1138.21
  21
-2617.20
  31
0.00
  12
-1137.61
  22
-2614.26
  32
0.00
  13
-1143.48
  23
-2613.05
  33
0.00
  0
3DFACE
  8
mg_to_dxf
  62
59
  10
-1132.33
  20
-2618.40
  30
0.00
  11
-1126.45
  21
-2619.61
  31
0.00
  12
-1125.85
  22
-2616.67
  32
0.00
  13
-1131.73
  23
-2615.46
  33
0.00
  0
3DFACE
  8
mg_to_dxf
  62
59
  10
-1120.58
  20
-2620.82
  30
0.00
  11
-1114.70
  21
-2622.02
  31
0.00
  12
-1114.10
  22
-2619.08
  32
0.00
  13
-1119.97
  23
-2617.88
  33
0.00
  0
3DFACE
  8
mg_to_dxf
  62
59
  10
-1108.82
  20
-2623.23
  30
0.00
  11
-1102.94
  21
-2624.43
  31
0.00
  12
-1102.34
  22
-2621.49
  32
0.00
  13
-1108.22
  23
-2620.29
  33
0.00
  0
3DFACE
  8
mg_to_dxf
  62
59
  10
-1097.07
  20
-2625.64
  30
0.00
  11
-1091.19
  21
-2626.84
  31
0.00
  12
-1090.59
  22
-2623.90
  32
0.00
  13
-1096.46
  23
-2622.70
  33
0.00
  0
3DFACE
  8
mg_to_dxf
  62
59
  10
-1085.31
  20
-2628.05
  30
0.00
  11
-1079.43
  21
-2629.25
  31
0.00
  12
-1078.83
  22
-2626.32
  32
0.00
  13
-1084.71
  23
-2625.11
  33
0.00
  0
3DFACE
  8
mg_to_dxf
  62
59
  10
-1073.56
  20
-2630.46
  30
0.00
  11
-1071.23
  21
-2630.94
  31
0.00
  12
-1070.63
  22
-2628.00
  32
0.00
  13
-1072.95
  23
-2627.52
  33
0.00
  0
3DFACE
  8
mg_to_dxf
  62
59
  10
-821.47
  20
-667.49
  30
0.00
  11
-816.81
  21
-671.27
  31
0.00
  12
-814.92
  22
-668.94
  32
0.00
  13
-819.57
  23
-665.16
  33
0.00
  0
3DFACE
  8
mg_to_dxf
  62
59
  10
-812.15
  20
-675.05
  30
0.00
  11
-807.49
  21
-678.84
  31
0.00
  12
-805.60
  22
-676.51
  32
0.00
  13
-810.26
  23
-672.72
  33
0.00
  0
3DFACE
  8
mg_to_dxf
  62
59
  10
-802.84
  20
-682.62
  30
0.00
  11
-798.18
  21
-686.40
  31
0.00
  12
-796.29
  22
-684.07
  32
0.00
  13
-800.95
  23
-680.29
  33
0.00
  0
3DFACE
  8
mg_to_dxf
  62
59
  10
-793.52
  20
-690.19
  30
0.00
  11
-788.87
  21
-693.97
  31
0.00
  12
-786.98
  22
-691.64
  32
0.00
  13
-791.63
  23
-687.86
  33
0.00
  0
3DFACE
  8
mg_to_dxf
  62
59
  10
-784.21
  20
-697.75
  30
0.00
  11
-779.55
  21
-701.54
  31
0.00
  12
-777.66
  22
-699.21
  32
0.00
  13
-782.32
  23
-695.42
  33
0.00
  0
3DFACE
  8
mg_to_dxf
  62
59
  10
-774.90
  20
-705.32
  30
0.00
  11
-770.24
  21
-709.10
  31
0.00
  12
-768.35
  22
-706.77
  32
0.00
  13
-773.01
  23
-702.99
  33
0.00
  0
3DFACE
  8
mg_to_dxf
  62
59
  10
-765.58
  20
-712.89
  30
0.00
  11
-760.93
  21
-716.67
  31
0.00
  12
-759.04
  22
-714.34
  32
0.00
  13
-763.69
  23
-710.56
  33
0.00
  0
3DFACE
  8
mg_to_dxf
  62
59
  10
-756.27
  20
-720.45
  30
0.00
  11
-751.61
  21
-724.24
  31
0.00
  12
-749.72
  22
-721.91
  32
0.00
  13
-754.38
  23
-718.13
  33
0.00
  0
3DFACE
  8
mg_to_dxf
  62
59
  10
-746.96
  20
-728.02
  30
0.00
  11
-742.30
  21
-731.80
  31
0.00
  12
-740.41
  22
-729.48
  32
0.00
  13
-745.07
  23
-725.69
  33
0.00
  0
3DFACE
  8
mg_to_dxf
  62
59
  10
-737.64
  20
-735.59
  30
0.00
  11
-732.99
  21
-739.37
  31
0.00
  12
-731.09
  22
-737.04
  32
0.00
  13
-735.75
  23
-733.26
  33
0.00
  0
3DFACE
  8
mg_to_dxf
  62
59
  10
-728.33
  20
-743.15
  30
0.00
  11
-723.67
  21
-746.94
  31
0.00
  12
-721.78
  22
-744.61
  32
0.00
  13
-726.44
  23
-740.83
  33
0.00
  0
3DFACE
  8
mg_to_dxf
  62
59
  10
-719.02
  20
-750.72
  30
0.00
  11
-714.36
  21
-754.50
  31
0.00
  12
-712.47
  22
-752.18
  32
0.00
  13
-717.12
  23
-748.39
  33
0.00
  0
3DFACE
  8
mg_to_dxf
  62
59
  10
-709.70
  20
-758.29
  30
0.00
  11
-705.05
  21
-762.07
  31
0.00
  12
-703.15
  22
-759.74
  32
0.00
  13
-707.81
  23
-755.96
  33
0.00
  0
3DFACE
  8
mg_to_dxf
  62
59
  10
-700.39
  20
-765.85
  30
0.00
  11
-695.73
  21
-769.64
  31
0.00
  12
-693.84
  22
-767.31
  32
0.00
  13
-698.50
  23
-763.53
  33
0.00
  0
3DFACE
  8
mg_to_dxf
  62
59
  10
-691.08
  20
-773.42
  30
0.00
  11
-686.42
  21
-777.21
  31
0.00
  12
-684.53
  22
-774.88
  32
0.00
  13
-689.18
  23
-771.09
  33
0.00
  0
3DFACE
  8
mg_to_dxf
  62
59
  10
-681.76
  20
-780.99
  30
0.00
  11
-677.11
  21
-784.77
  31
0.00
  12
-675.21
  22
-782.44
  32
0.00
  13
-679.87
  23
-778.66
  33
0.00
  0
3DFACE
  8
mg_to_dxf
  62
59
  10
-672.45
  20
-788.56
  30
0.00
  11
-667.79
  21
-792.34
  31
0.00
  12
-665.90
  22
-790.01
  32
0.00
  13
-670.56
  23
-786.23
  33
0.00
  0
3DFACE
  8
mg_to_dxf
  62
59
  10
-663.13
  20
-796.12
  30
0.00
  11
-658.48
  21
-799.91
  31
0.00
  12
-656.59
  22
-797.58
  32
0.00
  13
-661.24
  23
-793.79
  33
0.00
  0
3DFACE
  8
mg_to_dxf
  62
59
  10
-653.82
  20
-803.69
  30
0.00
  11
-649.16
  21
-807.47
  31
0.00
  12
-647.27
  22
-805.14
  32
0.00
  13
-651.93
  23
-801.36
  33
0.00
  0
3DFACE
  8
mg_to_dxf
  62
59
  10
-644.51
  20
-811.26
  30
0.00
  11
-639.85
  21
-815.04
  31
0.00
  12
-637.96
  22
-812.71
  32
0.00
  13
-642.62
  23
-808.93
  33
0.00
  0
3DFACE
  8
mg_to_dxf
  62
59
  10
-635.19
  20
-818.82
  30
0.00
  11
-630.54
  21
-822.61
  31
0.00
  12
-628.65
  22
-820.28
  32
0.00
  13
-633.30
  23
-816.49
  33
0.00
  0
3DFACE
  8
mg_to_dxf
  62
59
  10
-625.88
  20
-826.39
  30
0.00
  11
-621.22
  21
-830.17
  31
0.00
  12
-619.33
  22
-827.85
  32
0.00
  13
-623.99
  23
-824.06
  33
0.00
  0
3DFACE
  8
mg_to_dxf
  62
59
  10
-616.57
  20
-833.96
  30
0.00
  11
-611.91
  21
-837.74
  31
0.00
  12
-610.02
  22
-835.41
  32
0.00
  13
-614.68
  23
-831.63
  33
0.00
  0
3DFACE
  8
mg_to_dxf
  62
59
  10
-607.25
  20
-841.52
  30
0.00
  11
-602.60
  21
-845.31
  31
0.00
  12
-600.71
  22
-842.98
  32
0.00
  13
-605.36
  23
-839.20
  33
0.00
  0
3DFACE
  8
mg_to_dxf
  62
59
  10
-597.94
  20
-849.09
  30
0.00
  11
-593.28
  21
-852.87
  31
0.00
  12
-591.39
  22
-850.55
  32
0.00
  13
-596.05
  23
-846.76
  33
0.00
  0
3DFACE
  8
mg_to_dxf
  62
59
  10
-588.63
  20
-856.66
  30
0.00
  11
-583.97
  21
-860.44
  31
0.00
  12
-582.08
  22
-858.11
  32
0.00
  13
-586.73
  23
-854.33
  33
0.00
  0
3DFACE
  8
mg_to_dxf
  62
59
  10
-579.31
  20
-864.22
  30
0.00
  11
-574.66
  21
-868.01
  31
0.00
  12
-572.76
  22
-865.68
  32
0.00
  13
-577.42
  23
-861.90
  33
0.00
  0
3DFACE
  8
mg_to_dxf
  62
59
  10
-570.00
  20
-871.79
  30
0.00
  11
-565.34
  21
-875.57
  31
0.00
  12
-563.45
  22
-873.25
  32
0.00
  13
-568.11
  23
-869.46
  33
0.00
  0
3DFACE
  8
mg_to_dxf
  62
59
  10
-560.69
  20
-879.36
  30
0.00
  11
-556.03
  21
-883.14
  31
0.00
  12
-554.14
  22
-880.81
  32
0.00
  13
-558.79
  23
-877.03
  33
0.00
  0
3DFACE
  8
mg_to_dxf
  62
59
  10
-551.37
  20
-886.93
  30
0.00
  11
-546.72
  21
-890.71
  31
0.00
  12
-544.82
  22
-888.38
  32
0.00
  13
-549.48
  23
-884.60
  33
0.00
  0
3DFACE
  8
mg_to_dxf
  62
59
  10
-542.06
  20
-894.49
  30
0.00
  11
-537.40
  21
-898.28
  31
0.00
  12
-535.51
  22
-895.95
  32
0.00
  13
-540.17
  23
-892.16
  33
0.00
  0
3DFACE
  8
mg_to_dxf
  62
59
  10
-532.75
  20
-902.06
  30
0.00
  11
-530.90
  21
-903.55
  31
0.00
  12
-529.01
  22
-901.23
  32
0.00
  13
-530.85
  23
-899.73
  33
0.00
  0
ENDSEC
  0
EOF
