0
SECTION
2
HEADER
9
$ACADVER
1
AC1008
9
$UCSORG
10
0.0
20
0.0
30
0.0
9
$UCSXDIR
10
1
20
0.0
30
0.0
9
$TILEMODE
70
1
9
$UCSYDIR
10
0.0
20
0.0
30
1
9
$EXTMIN
10
-3.541746830671974E7
20
1.1905586256043928E7
30
0.0
9
$EXTMAX
10
-3.532038764670903E7
20
1.1999663493731853E7
30
0.0138811
0
ENDSEC
0
SECTION
2
TABLES
0
TABLE
2
LTYPE
70
1
0
LTYPE
2
SOLIDLINE
70
64
3
Solid line
72
65
73
0
40
0.0
0
ENDTAB
0
TABLE
2
LAYER
70
8
0
LAYER
2
outermarker
70
0
62
252
6
SOLIDLINE
0
ENDTAB
0
ENDSEC
0
SECTION
2
ENTITIES
0
3DFACE
8
outermarker
62
252
10
-3.537224699218951E7
20
1.1981494523733528E7
30
0.0138811
11
-3.537235306774071E7
21
1.1981459884111479E7
31
0.0138811
12
-3.5372210521941416E7
22
1.198140070819363E7
32
0.0
13
-3.5372210521941416E7
23
1.198140070819363E7
33
0.0
0
3DFACE
8
outermarker
62
252
10
-3.537189629388616E7
20
1.1981539150195174E7
30
0.0
11
-3.537199727110596E7
21
1.1981605877640055E7
31
0.0138811
12
-3.537205834409527E7
22
1.1981462649800561E7
32
0.0
13
-3.537205834409527E7
23
1.1981462649800561E7
33
0.0
0
3DFACE
8
outermarker
62
252
10
-3.537199727110596E7
20
1.1981605877640055E7
30
0.0138811
11
-3.537212783899003E7
21
1.198154342065218E7
31
0.0138811
12
-3.537205834409527E7
22
1.1981462649800561E7
32
0.0
13
-3.537205834409527E7
23
1.1981462649800561E7
33
0.0
0
3DFACE
8
outermarker
62
252
10
-3.537172710345974E7
20
1.1981629014124608E7
30
0.0
11
-3.537185754543447E7
21
1.198168099839467E7
31
0.0138811
12
-3.537189629388616E7
22
1.1981539150195174E7
32
0.0
13
-3.537189629388616E7
23
1.1981539150195174E7
33
0.0
0
3DFACE
8
outermarker
62
252
10
-3.537155326784172E7
20
1.198173074686409E7
30
0.0
11
-3.5371710681950524E7
21
1.198176738757993E7
31
0.0138811
12
-3.537172710345974E7
22
1.1981629014124608E7
32
0.0
13
-3.537172710345974E7
23
1.1981629014124608E7
33
0.0
0
3DFACE
8
outermarker
62
252
10
-3.537137763834186E7
20
1.1981842854006104E7
30
0.0
11
-3.537155917541456E7
21
1.1981863849802477E7
31
0.0138811
12
-3.537155326784172E7
22
1.198173074686409E7
32
0.0
13
-3.537155326784172E7
23
1.198173074686409E7
33
0.0
0
3DFACE
8
outermarker
62
252
10
-3.537120294804029E7
20
1.1981963441997023E7
30
0.0
11
-3.537140528358516E7
21
1.198196879041744E7
31
0.0138811
12
-3.537137763834186E7
22
1.1981842854006104E7
32
0.0
13
-3.537137763834186E7
23
1.1981842854006104E7
33
0.0
0
3DFACE
8
outermarker
62
252
10
-3.537103193009839E7
20
1.1982090617324846E7
30
0.0
11
-3.537125138302032E7
21
1.198208061490371E7
31
0.0138811
12
-3.537120294804029E7
22
1.1981963441997023E7
32
0.0
13
-3.537120294804029E7
23
1.1981963441997023E7
33
0.0
0
3DFACE
8
outermarker
62
252
10
-3.537110008816927E7
20
1.1982197429639867E7
30
0.0138811
11
-3.537125138302032E7
21
1.198208061490371E7
31
0.0138811
12
-3.537103193009839E7
22
1.1982090617324846E7
32
0.0
13
-3.537103193009839E7
23
1.1982090617324846E7
33
0.0
0
3DFACE
8
outermarker
62
252
10
-3.537086719901794E7
20
1.1982222486422643E7
30
0.0
11
-3.537110008816927E7
21
1.1982197429639867E7
31
0.0138811
12
-3.537103193009839E7
22
1.1982090617324846E7
32
0.0
13
-3.537103193009839E7
23
1.1982090617324846E7
33
0.0
0
3DFACE
8
outermarker
62
252
10
-3.537086719901794E7
20
1.1982222486422643E7
30
0.0
11
-3.537071148847471E7
21
1.1982356856533438E7
31
0.0
12
-3.5370953775837205E7
22
1.1982317540396394E7
32
0.0138811
13
-3.5370953775837205E7
23
1.1982317540396394E7
33
0.0138811
0
3DFACE
8
outermarker
62
252
10
-3.537056729462849E7
20
1.1982491634514956E7
30
0.0
11
-3.537068477620193E7
21
1.198255987478842E7
31
0.0138811
12
-3.537071148847471E7
22
1.1982356856533438E7
32
0.0
13
-3.537071148847471E7
23
1.1982356856533438E7
33
0.0
0
3DFACE
8
outermarker
62
252
10
-3.537043675736316E7
20
1.1982624826733794E7
30
0.0
11
-3.537056636831214E7
21
1.198267831061374E7
31
0.0138811
12
-3.537056729462849E7
22
1.1982491634514956E7
32
0.0
13
-3.537056729462849E7
23
1.1982491634514956E7
33
0.0
0
3DFACE
8
outermarker
62
252
10
-3.537032201697263E7
20
1.19827541402487E7
30
0.0
11
-3.537046138312079E7
21
1.1982792366959773E7
31
0.0138811
12
-3.537043675736316E7
22
1.1982624826733794E7
32
0.0
13
-3.537043675736316E7
23
1.1982624826733794E7
33
0.0
0
3DFACE
8
outermarker
62
252
10
-3.537022485721779E7
20
1.1982877581155758E7
30
0.0
11
-3.537037136660857E7
21
1.1982900249245059E7
31
0.0138811
12
-3.537032201697263E7
22
1.19827541402487E7
32
0.0
13
-3.537032201697263E7
23
1.19827541402487E7
33
0.0
0
3DFACE
8
outermarker
62
252
10
-3.537014670541692E7
20
1.1982993354803704E7
30
0.0
11
-3.537029762705406E7
21
1.1983000362240821E7
31
0.0138811
12
-3.537022485721779E7
22
1.1982877581155758E7
32
0.0
13
-3.537022485721779E7
23
1.1982877581155758E7
33
0.0
0
3DFACE
8
outermarker
62
252
10
-3.537008898913331E7
20
1.1983099466981025E7
30
0.0
11
-3.537024159160958E7
21
1.198309101103329E7
31
0.0138811
12
-3.537014670541692E7
22
1.1982993354803704E7
32
0.0
13
-3.537014670541692E7
23
1.1982993354803704E7
33
0.0
0
3DFACE
8
outermarker
62
252
10
-3.53702038558352E7
20
1.198317079933941E7
30
0.0138811
11
-3.537024159160958E7
21
1.198309101103329E7
31
0.0138811
12
-3.537008898913331E7
22
1.1983099466981025E7
32
0.0
13
-3.537008898913331E7
23
1.1983099466981025E7
33
0.0
0
3DFACE
8
outermarker
62
252
10
-3.5370052541835114E7
20
1.1983194222292254E7
30
0.0
11
-3.53702038558352E7
21
1.198317079933941E7
31
0.0138811
12
-3.537008898913331E7
22
1.1983099466981025E7
32
0.0
13
-3.537008898913331E7
23
1.1983099466981025E7
33
0.0
0
3DFACE
8
outermarker
62
252
10
-3.5370052541835114E7
20
1.1983194222292254E7
30
0.0
11
-3.537003784025317E7
21
1.1983276324118774E7
31
0.0
12
-3.537018525253674E7
22
1.1983238530597925E7
32
0.0138811
13
-3.537018525253674E7
23
1.1983238530597925E7
33
0.0138811
0
3DFACE
8
outermarker
62
252
10
-3.537004536130849E7
20
1.1983344276264567E7
30
0.0
11
-3.5370205923965685E7
21
1.1983333432384271E7
31
0.0138811
12
-3.5370185901990354E7
22
1.198329300764417E7
32
0.0138811
13
-3.5370185901990354E7
23
1.198329300764417E7
33
0.0138811
0
3DFACE
8
outermarker
62
252
10
-3.537004536130849E7
20
1.1983344276264567E7
30
0.0
11
-3.5370185901990354E7
21
1.198329300764417E7
31
0.0138811
12
-3.537003784025317E7
22
1.1983276324118774E7
32
0.0
13
-3.537003784025317E7
23
1.1983276324118774E7
33
0.0
0
3DFACE
8
outermarker
62
252
10
-3.537012553243428E7
20
1.1983433938773975E7
30
0.0
11
-3.5370196996683486E7
21
1.1983454251222407E7
31
0.0
12
-3.5370205923965685E7
22
1.1983333432384271E7
32
0.0138811
13
-3.5370205923965685E7
23
1.1983333432384271E7
33
0.0138811
0
3DFACE
8
outermarker
62
252
10
-3.537007463128869E7
20
1.1983397080592526E7
30
0.0
11
-3.537012553243428E7
21
1.1983433938773975E7
31
0.0
12
-3.5370205923965685E7
22
1.1983333432384271E7
32
0.0138811
13
-3.5370205923965685E7
23
1.1983333432384271E7
33
0.0138811
0
3DFACE
8
outermarker
62
252
10
-3.5370288074423425E7
20
1.1983457617973413E7
30
0.0
11
-3.53703023068989E7
21
1.19833699283484E7
31
0.0138811
12
-3.537024496295097E7
22
1.19833592058601E7
32
0.0138811
13
-3.537024496295097E7
23
1.19833592058601E7
33
0.0138811
0
3DFACE
8
outermarker
62
252
10
-3.5370397221648484E7
20
1.1983444137430986E7
30
0.0
11
-3.537037724347747E7
21
1.1983365399654422E7
31
0.0138811
12
-3.53703023068989E7
22
1.19833699283484E7
32
0.0138811
13
-3.53703023068989E7
23
1.19833699283484E7
33
0.0138811
0
3DFACE
8
outermarker
62
252
10
-3.5370288074423425E7
20
1.1983457617973413E7
30
0.0
11
-3.5370397221648484E7
21
1.1983444137430986E7
31
0.0
12
-3.53703023068989E7
22
1.19833699283484E7
32
0.0138811
13
-3.53703023068989E7
23
1.19833699283484E7
33
0.0138811
0
3DFACE
8
outermarker
62
252
10
-3.537052277554862E7
20
1.1983413907895112E7
30
0.0
11
-3.5370468347459406E7
21
1.1983345718311416E7
31
0.0138811
12
-3.5370397221648484E7
22
1.1983444137430986E7
32
0.0
13
-3.5370397221648484E7
23
1.1983444137430986E7
33
0.0
0
3DFACE
8
outermarker
62
252
10
-3.5370662835312635E7
20
1.1983367426568747E7
30
0.0
11
-3.537057443096066E7
21
1.198331108281131E7
31
0.0138811
12
-3.537052277554862E7
22
1.1983413907895112E7
32
0.0
13
-3.537052277554862E7
23
1.1983413907895112E7
33
0.0
0
3DFACE
8
outermarker
62
252
10
-3.5370468347459406E7
20
1.1983345718311416E7
30
0.0138811
11
-3.537037724347747E7
21
1.1983365399654422E7
31
0.0138811
12
-3.5370397221648484E7
22
1.1983444137430986E7
32
0.0
13
-3.5370397221648484E7
23
1.1983444137430986E7
33
0.0
0
3DFACE
8
outermarker
62
252
10
-3.5370196996683486E7
20
1.1983454251222407E7
30
0.0
11
-3.537024496295097E7
21
1.19833592058601E7
31
0.0138811
12
-3.5370205923965685E7
22
1.1983333432384271E7
32
0.0138811
13
-3.5370205923965685E7
23
1.1983333432384271E7
33
0.0138811
0
3DFACE
8
outermarker
62
252
10
-3.5370196996683486E7
20
1.1983454251222407E7
30
0.0
11
-3.5370288074423425E7
21
1.1983457617973413E7
31
0.0
12
-3.537024496295097E7
22
1.19833592058601E7
32
0.0138811
13
-3.537024496295097E7
23
1.19833592058601E7
33
0.0138811
0
3DFACE
8
outermarker
62
252
10
-3.53708150247627E7
20
1.198330548960315E7
30
0.0
11
-3.537069371174415E7
21
1.1983262190032326E7
31
0.0138811
12
-3.5370662835312635E7
22
1.1983367426568747E7
32
0.0
13
-3.5370662835312635E7
23
1.1983367426568747E7
33
0.0
0
3DFACE
8
outermarker
62
252
10
-3.537069371174415E7
20
1.1983262190032326E7
30
0.0138811
11
-3.537057443096066E7
21
1.198331108281131E7
31
0.0138811
12
-3.5370662835312635E7
22
1.1983367426568747E7
32
0.0
13
-3.5370662835312635E7
23
1.1983367426568747E7
33
0.0
0
3DFACE
8
outermarker
62
252
10
-3.5370976967716366E7
20
1.1983228893170139E7
30
0.0
11
-3.537082417005781E7
21
1.1983199736668207E7
31
0.0138811
12
-3.53708150247627E7
22
1.198330548960315E7
32
0.0
13
-3.53708150247627E7
23
1.198330548960315E7
33
0.0
0
3DFACE
8
outermarker
62
252
10
-3.53711461684634E7
20
1.198313913178961E7
30
0.0
11
-3.537096402341818E7
21
1.1983124619163742E7
31
0.0138811
12
-3.5370976967716366E7
22
1.1983228893170139E7
32
0.0
13
-3.5370976967716366E7
23
1.1983228893170139E7
33
0.0
0
3DFACE
8
outermarker
62
252
10
-3.5371320013030715E7
20
1.1983037300824996E7
30
0.0
11
-3.5371110776293434E7
21
1.19830382322806E7
31
0.0138811
12
-3.53711461684634E7
22
1.198313913178961E7
32
0.0
13
-3.53711461684634E7
23
1.198313913178961E7
33
0.0
0
3DFACE
8
outermarker
62
252
10
-3.5371262408404954E7
20
1.1982941771637423E7
30
0.0138811
11
-3.5371110776293434E7
21
1.19830382322806E7
31
0.0138811
12
-3.5371320013030715E7
22
1.1983037300824996E7
32
0.0
13
-3.5371320013030715E7
23
1.1983037300824996E7
33
0.0
0
3DFACE
8
outermarker
62
252
10
-3.537149564910031E7
20
1.1982925293680346E7
30
0.0
11
-3.5371262408404954E7
21
1.1982941771637423E7
31
0.0138811
12
-3.5371320013030715E7
22
1.1983037300824996E7
32
0.0
13
-3.5371320013030715E7
23
1.1983037300824996E7
33
0.0
0
3DFACE
8
outermarker
62
252
10
-3.537167046225751E7
20
1.1982804704667736E7
30
0.0
11
-3.5371570090168856E7
21
1.1982725006370941E7
31
0.0138811
12
-3.537149564910031E7
22
1.1982925293680346E7
32
0.0
13
-3.537149564910031E7
23
1.1982925293680346E7
33
0.0
0
3DFACE
8
outermarker
62
252
10
-3.537184148147652E7
20
1.1982677526956253E7
30
0.0
11
-3.537172138579817E7
21
1.1982608190082323E7
31
0.0138811
12
-3.537167046225751E7
22
1.1982804704667736E7
32
0.0
13
-3.537167046225751E7
23
1.1982804704667736E7
33
0.0
0
3DFACE
8
outermarker
62
252
10
-3.537200609217477E7
20
1.1982545654261567E7
30
0.0
11
-3.537186781535522E7
21
1.1982488076965626E7
31
0.0138811
12
-3.537184148147652E7
22
1.1982677526956253E7
32
0.0
13
-3.537184148147652E7
23
1.1982677526956253E7
33
0.0
0
3DFACE
8
outermarker
62
252
10
-3.537216179827436E7
20
1.1982411279747926E7
30
0.0
11
-3.537200700183388E7
21
1.198236656092513E7
31
0.0138811
12
-3.537200609217477E7
22
1.1982545654261567E7
32
0.0
13
-3.537200609217477E7
23
1.1982545654261567E7
33
0.0
0
3DFACE
8
outermarker
62
252
10
-3.5372305985257275E7
20
1.1982276396970237E7
30
0.0
11
-3.5372136686825514E7
21
1.19822457355306E7
31
0.0138811
12
-3.537216179827436E7
22
1.1982411279747926E7
32
0.0
13
-3.537216179827436E7
23
1.1982411279747926E7
33
0.0
0
3DFACE
8
outermarker
62
252
10
-3.537243651334347E7
20
1.1982143299194427E7
30
0.0
11
-3.5372255087407015E7
21
1.1982127295643456E7
31
0.0138811
12
-3.5372305985257275E7
22
1.1982276396970237E7
32
0.0
13
-3.5372305985257275E7
23
1.1982276396970237E7
33
0.0
0
3DFACE
8
outermarker
62
252
10
-3.537255124314687E7
20
1.1982013980378497E7
30
0.0
11
-3.537236006414072E7
21
1.1982013235183483E7
31
0.0138811
12
-3.537243651334347E7
22
1.1982143299194427E7
32
0.0
13
-3.537243651334347E7
23
1.1982143299194427E7
33
0.0
0
3DFACE
8
outermarker
62
252
10
-3.537245007168514E7
20
1.1981905249213366E7
30
0.0138811
11
-3.537236006414072E7
21
1.1982013235183483E7
31
0.0138811
12
-3.537255124314687E7
22
1.1982013980378497E7
32
0.0
13
-3.537255124314687E7
23
1.1982013980378497E7
33
0.0
0
3DFACE
8
outermarker
62
252
10
-3.537264851031366E7
20
1.1981890434849052E7
30
0.0
11
-3.537245007168514E7
21
1.1981905249213366E7
31
0.0138811
12
-3.537255124314687E7
22
1.1982013980378497E7
32
0.0
13
-3.537255124314687E7
23
1.1982013980378497E7
33
0.0
0
3DFACE
8
outermarker
62
252
10
-3.537264851031366E7
20
1.1981890434849052E7
30
0.0
11
-3.537272653167144E7
21
1.1981774756611466E7
31
0.0
12
-3.537252380199563E7
22
1.198180523252343E7
32
0.0138811
13
-3.537252380199563E7
23
1.198180523252343E7
33
0.0138811
0
3DFACE
8
outermarker
62
252
10
-3.537278423696162E7
20
1.1981668641106484E7
30
0.0
11
-3.5372617557064384E7
21
1.1981634790670792E7
31
0.0138811
12
-3.537272653167144E7
22
1.1981774756611466E7
32
0.0
13
-3.537272653167144E7
23
1.1981774756611466E7
33
0.0
0
3DFACE
8
outermarker
62
252
10
-3.537282067466198E7
20
1.1981573783844184E7
30
0.0
11
-3.537263615435544E7
21
1.1981567058422793E7
31
0.0138811
12
-3.537278423696162E7
22
1.1981668641106484E7
32
0.0
13
-3.537278423696162E7
23
1.1981668641106484E7
33
0.0
0
3DFACE
8
outermarker
62
252
10
-3.5372635500811525E7
20
1.1981512581410293E7
30
0.0138811
11
-3.537263615435544E7
21
1.1981567058422793E7
31
0.0138811
12
-3.537282067466198E7
22
1.1981573783844184E7
32
0.0
13
-3.537282067466198E7
23
1.1981573783844184E7
33
0.0
0
3DFACE
8
outermarker
62
252
10
-3.537283536830781E7
20
1.1981491780895313E7
30
0.0
11
-3.5372635500811525E7
21
1.1981512581410293E7
31
0.0138811
12
-3.537282067466198E7
22
1.1981573783844184E7
32
0.0
13
-3.537282067466198E7
23
1.1981573783844184E7
33
0.0
0
3DFACE
8
outermarker
62
252
10
-3.537282796056514E7
20
1.1981423829295723E7
30
0.0
11
-3.537279856923236E7
21
1.1981370926862385E7
31
0.0
12
-3.537261547692217E7
22
1.1981472157731893E7
32
0.0138811
13
-3.537261547692217E7
23
1.1981472157731893E7
33
0.0138811
0
3DFACE
8
outermarker
62
252
10
-3.537282796056514E7
20
1.1981423829295723E7
30
0.0
11
-3.537261547692217E7
21
1.1981472157731893E7
31
0.0138811
12
-3.5372635500811525E7
22
1.1981512581410293E7
32
0.0138811
13
-3.5372635500811525E7
23
1.1981512581410293E7
33
0.0138811
0
3DFACE
8
outermarker
62
252
10
-3.537274778690651E7
20
1.1981334171515627E7
30
0.0
11
-3.5372676206974305E7
21
1.1981313862957807E7
31
0.0
12
-3.537261547692217E7
22
1.1981472157731893E7
32
0.0138811
13
-3.537261547692217E7
23
1.1981472157731893E7
33
0.0138811
0
3DFACE
8
outermarker
62
252
10
-3.5372676206974305E7
20
1.1981313862957807E7
30
0.0
11
-3.537258513510206E7
21
1.1981310401183976E7
31
0.0
12
-3.537257643842271E7
22
1.1981446286503077E7
32
0.0138811
13
-3.537257643842271E7
23
1.1981446286503077E7
33
0.0138811
0
3DFACE
8
outermarker
62
252
10
-3.537258513510206E7
20
1.1981310401183976E7
30
0.0
11
-3.537251909700652E7
21
1.1981435666636644E7
31
0.0138811
12
-3.537257643842271E7
22
1.1981446286503077E7
32
0.0138811
13
-3.537257643842271E7
23
1.1981446286503077E7
33
0.0138811
0
3DFACE
8
outermarker
62
252
10
-3.537258513510206E7
20
1.1981310401183976E7
30
0.0
11
-3.53724759958488E7
21
1.1981323986716988E7
31
0.0
12
-3.537251909700652E7
22
1.1981435666636644E7
32
0.0138811
13
-3.537251909700652E7
23
1.1981435666636644E7
33
0.0138811
0
3DFACE
8
outermarker
62
252
10
-3.5372350451853E7
20
1.1981354221610792E7
30
0.0
11
-3.537244416517753E7
21
1.1981440198836407E7
31
0.0138811
12
-3.53724759958488E7
22
1.1981323986716988E7
32
0.0
13
-3.53724759958488E7
23
1.1981323986716988E7
33
0.0
0
3DFACE
8
outermarker
62
252
10
-3.5372210521941416E7
20
1.198140070819363E7
30
0.0
11
-3.537235306774071E7
21
1.1981459884111479E7
31
0.0138811
12
-3.5372350451853E7
22
1.1981354221610792E7
32
0.0
13
-3.5372350451853E7
23
1.1981354221610792E7
33
0.0
0
3DFACE
8
outermarker
62
252
10
-3.537244416517753E7
20
1.1981440198836407E7
30
0.0138811
11
-3.537251909700652E7
21
1.1981435666636644E7
31
0.0138811
12
-3.53724759958488E7
22
1.1981323986716988E7
32
0.0
13
-3.53724759958488E7
23
1.1981323986716988E7
33
0.0
0
3DFACE
8
outermarker
62
252
10
-3.5372676206974305E7
20
1.1981313862957807E7
30
0.0
11
-3.537257643842271E7
21
1.1981446286503077E7
31
0.0138811
12
-3.537261547692217E7
22
1.1981472157731893E7
32
0.0138811
13
-3.537261547692217E7
23
1.1981472157731893E7
33
0.0138811
0
3DFACE
8
outermarker
62
252
10
-3.537205834409527E7
20
1.1981462649800561E7
30
0.0
11
-3.537212783899003E7
21
1.198154342065218E7
31
0.0138811
12
-3.5372210521941416E7
22
1.198140070819363E7
32
0.0
13
-3.5372210521941416E7
23
1.198140070819363E7
33
0.0
0
3DFACE
8
outermarker
62
252
10
-3.537185754543447E7
20
1.198168099839467E7
30
0.0138811
11
-3.537199727110596E7
21
1.1981605877640055E7
31
0.0138811
12
-3.537189629388616E7
22
1.1981539150195174E7
32
0.0
13
-3.537189629388616E7
23
1.1981539150195174E7
33
0.0
0
3DFACE
8
outermarker
62
252
10
-3.5371710681950524E7
20
1.198176738757993E7
30
0.0138811
11
-3.537185754543447E7
21
1.198168099839467E7
31
0.0138811
12
-3.537172710345974E7
22
1.1981629014124608E7
32
0.0
13
-3.537172710345974E7
23
1.1981629014124608E7
33
0.0
0
3DFACE
8
outermarker
62
252
10
-3.537155917541456E7
20
1.1981863849802477E7
30
0.0138811
11
-3.5371710681950524E7
21
1.198176738757993E7
31
0.0138811
12
-3.537155326784172E7
22
1.198173074686409E7
32
0.0
13
-3.537155326784172E7
23
1.198173074686409E7
33
0.0
0
3DFACE
8
outermarker
62
252
10
-3.537140528358516E7
20
1.198196879041744E7
30
0.0138811
11
-3.537155917541456E7
21
1.1981863849802477E7
31
0.0138811
12
-3.537137763834186E7
22
1.1981842854006104E7
32
0.0
13
-3.537137763834186E7
23
1.1981842854006104E7
33
0.0
0
3DFACE
8
outermarker
62
252
10
-3.537125138302032E7
20
1.198208061490371E7
30
0.0138811
11
-3.537140528358516E7
21
1.198196879041744E7
31
0.0138811
12
-3.537120294804029E7
22
1.1981963441997023E7
32
0.0
13
-3.537120294804029E7
23
1.1981963441997023E7
33
0.0
0
3DFACE
8
outermarker
62
252
10
-3.537086719901794E7
20
1.1982222486422643E7
30
0.0
11
-3.5370953775837205E7
21
1.1982317540396394E7
31
0.0138811
12
-3.537110008816927E7
22
1.1982197429639867E7
32
0.0138811
13
-3.537110008816927E7
23
1.1982197429639867E7
33
0.0138811
0
3DFACE
8
outermarker
62
252
10
-3.537071148847471E7
20
1.1982356856533438E7
30
0.0
11
-3.537081458563165E7
21
1.1982439053234914E7
31
0.0138811
12
-3.5370953775837205E7
22
1.1982317540396394E7
32
0.0138811
13
-3.5370953775837205E7
23
1.1982317540396394E7
33
0.0138811
0
3DFACE
8
outermarker
62
252
10
-3.537068477620193E7
20
1.198255987478842E7
30
0.0138811
11
-3.537081458563165E7
21
1.1982439053234914E7
31
0.0138811
12
-3.537071148847471E7
22
1.1982356856533438E7
32
0.0
13
-3.537071148847471E7
23
1.1982356856533438E7
33
0.0
0
3DFACE
8
outermarker
62
252
10
-3.537056636831214E7
20
1.198267831061374E7
30
0.0138811
11
-3.537068477620193E7
21
1.198255987478842E7
31
0.0138811
12
-3.537056729462849E7
22
1.1982491634514956E7
32
0.0
13
-3.537056729462849E7
23
1.1982491634514956E7
33
0.0
0
3DFACE
8
outermarker
62
252
10
-3.537046138312079E7
20
1.1982792366959773E7
30
0.0138811
11
-3.537056636831214E7
21
1.198267831061374E7
31
0.0138811
12
-3.537043675736316E7
22
1.1982624826733794E7
32
0.0
13
-3.537043675736316E7
23
1.1982624826733794E7
33
0.0
0
3DFACE
8
outermarker
62
252
10
-3.537037136660857E7
20
1.1982900249245059E7
30
0.0138811
11
-3.537046138312079E7
21
1.1982792366959773E7
31
0.0138811
12
-3.537032201697263E7
22
1.19827541402487E7
32
0.0
13
-3.537032201697263E7
23
1.19827541402487E7
33
0.0
0
3DFACE
8
outermarker
62
252
10
-3.537029762705406E7
20
1.1983000362240821E7
30
0.0138811
11
-3.537037136660857E7
21
1.1982900249245059E7
31
0.0138811
12
-3.537022485721779E7
22
1.1982877581155758E7
32
0.0
13
-3.537022485721779E7
23
1.1982877581155758E7
33
0.0
0
3DFACE
8
outermarker
62
252
10
-3.537024159160958E7
20
1.198309101103329E7
30
0.0138811
11
-3.537029762705406E7
21
1.1983000362240821E7
31
0.0138811
12
-3.537014670541692E7
22
1.1982993354803704E7
32
0.0
13
-3.537014670541692E7
23
1.1982993354803704E7
33
0.0
0
3DFACE
8
outermarker
62
252
10
-3.5370052541835114E7
20
1.1983194222292254E7
30
0.0
11
-3.537018525253674E7
21
1.1983238530597925E7
31
0.0138811
12
-3.53702038558352E7
22
1.198317079933941E7
32
0.0138811
13
-3.53702038558352E7
23
1.198317079933941E7
33
0.0138811
0
3DFACE
8
outermarker
62
252
10
-3.5370185901990354E7
20
1.198329300764417E7
30
0.0138811
11
-3.5370205923965685E7
21
1.1983333432384271E7
31
0.0138811
12
-3.537024496295097E7
22
1.19833592058601E7
32
0.0138811
13
-3.537024496295097E7
23
1.19833592058601E7
33
0.0138811
0
3DFACE
8
outermarker
62
252
10
-3.537003784025317E7
20
1.1983276324118774E7
30
0.0
11
-3.5370185901990354E7
21
1.198329300764417E7
31
0.0138811
12
-3.537018525253674E7
22
1.1983238530597925E7
32
0.0138811
13
-3.537018525253674E7
23
1.1983238530597925E7
33
0.0138811
0
3DFACE
8
outermarker
62
252
10
-3.537004536130849E7
20
1.1983344276264567E7
30
0.0
11
-3.537007463128869E7
21
1.1983397080592526E7
31
0.0
12
-3.5370205923965685E7
22
1.1983333432384271E7
32
0.0138811
13
-3.5370205923965685E7
23
1.1983333432384271E7
33
0.0138811
0
3DFACE
8
outermarker
62
252
10
-3.537057443096066E7
20
1.198331108281131E7
30
0.0138811
11
-3.5370468347459406E7
21
1.1983345718311416E7
31
0.0138811
12
-3.537052277554862E7
22
1.1983413907895112E7
32
0.0
13
-3.537052277554862E7
23
1.1983413907895112E7
33
0.0
0
3DFACE
8
outermarker
62
252
10
-3.537082417005781E7
20
1.1983199736668207E7
30
0.0138811
11
-3.537069371174415E7
21
1.1983262190032326E7
31
0.0138811
12
-3.53708150247627E7
22
1.198330548960315E7
32
0.0
13
-3.53708150247627E7
23
1.198330548960315E7
33
0.0
0
3DFACE
8
outermarker
62
252
10
-3.537096402341818E7
20
1.1983124619163742E7
30
0.0138811
11
-3.537082417005781E7
21
1.1983199736668207E7
31
0.0138811
12
-3.5370976967716366E7
22
1.1983228893170139E7
32
0.0
13
-3.5370976967716366E7
23
1.1983228893170139E7
33
0.0
0
3DFACE
8
outermarker
62
252
10
-3.5371110776293434E7
20
1.19830382322806E7
30
0.0138811
11
-3.537096402341818E7
21
1.1983124619163742E7
31
0.0138811
12
-3.53711461684634E7
22
1.198313913178961E7
32
0.0
13
-3.53711461684634E7
23
1.198313913178961E7
33
0.0
0
3DFACE
8
outermarker
62
252
10
-3.537149564910031E7
20
1.1982925293680346E7
30
0.0
11
-3.5371416305322215E7
21
1.1982836831503935E7
31
0.0138811
12
-3.5371262408404954E7
22
1.1982941771637423E7
32
0.0138811
13
-3.5371262408404954E7
23
1.1982941771637423E7
33
0.0138811
0
3DFACE
8
outermarker
62
252
10
-3.5371570090168856E7
20
1.1982725006370941E7
30
0.0138811
11
-3.5371416305322215E7
21
1.1982836831503935E7
31
0.0138811
12
-3.537149564910031E7
22
1.1982925293680346E7
32
0.0
13
-3.537149564910031E7
23
1.1982925293680346E7
33
0.0
0
3DFACE
8
outermarker
62
252
10
-3.537172138579817E7
20
1.1982608190082323E7
30
0.0138811
11
-3.5371570090168856E7
21
1.1982725006370941E7
31
0.0138811
12
-3.537167046225751E7
22
1.1982804704667736E7
32
0.0
13
-3.537167046225751E7
23
1.1982804704667736E7
33
0.0
0
3DFACE
8
outermarker
62
252
10
-3.537186781535522E7
20
1.1982488076965626E7
30
0.0138811
11
-3.537172138579817E7
21
1.1982608190082323E7
31
0.0138811
12
-3.537184148147652E7
22
1.1982677526956253E7
32
0.0
13
-3.537184148147652E7
23
1.1982677526956253E7
33
0.0
0
3DFACE
8
outermarker
62
252
10
-3.537200700183388E7
20
1.198236656092513E7
30
0.0138811
11
-3.537186781535522E7
21
1.1982488076965626E7
31
0.0138811
12
-3.537200609217477E7
22
1.1982545654261567E7
32
0.0
13
-3.537200609217477E7
23
1.1982545654261567E7
33
0.0
0
3DFACE
8
outermarker
62
252
10
-3.5372136686825514E7
20
1.19822457355306E7
30
0.0138811
11
-3.537200700183388E7
21
1.198236656092513E7
31
0.0138811
12
-3.537216179827436E7
22
1.1982411279747926E7
32
0.0
13
-3.537216179827436E7
23
1.1982411279747926E7
33
0.0
0
3DFACE
8
outermarker
62
252
10
-3.5372255087407015E7
20
1.1982127295643456E7
30
0.0138811
11
-3.5372136686825514E7
21
1.19822457355306E7
31
0.0138811
12
-3.5372305985257275E7
22
1.1982276396970237E7
32
0.0
13
-3.5372305985257275E7
23
1.1982276396970237E7
33
0.0
0
3DFACE
8
outermarker
62
252
10
-3.537236006414072E7
20
1.1982013235183483E7
30
0.0138811
11
-3.5372255087407015E7
21
1.1982127295643456E7
31
0.0138811
12
-3.537243651334347E7
22
1.1982143299194427E7
32
0.0
13
-3.537243651334347E7
23
1.1982143299194427E7
33
0.0
0
3DFACE
8
outermarker
62
252
10
-3.537264851031366E7
20
1.1981890434849052E7
30
0.0
11
-3.537252380199563E7
21
1.198180523252343E7
31
0.0138811
12
-3.537245007168514E7
22
1.1981905249213366E7
32
0.0138811
13
-3.537245007168514E7
23
1.1981905249213366E7
33
0.0138811
0
3DFACE
8
outermarker
62
252
10
-3.537272653167144E7
20
1.1981774756611466E7
30
0.0
11
-3.537257982883571E7
21
1.1981714580936471E7
31
0.0138811
12
-3.537252380199563E7
22
1.198180523252343E7
32
0.0138811
13
-3.537252380199563E7
23
1.198180523252343E7
33
0.0138811
0
3DFACE
8
outermarker
62
252
10
-3.5372617557064384E7
20
1.1981634790670792E7
30
0.0138811
11
-3.537257982883571E7
21
1.1981714580936471E7
31
0.0138811
12
-3.537272653167144E7
22
1.1981774756611466E7
32
0.0
13
-3.537272653167144E7
23
1.1981774756611466E7
33
0.0
0
3DFACE
8
outermarker
62
252
10
-3.537263615435544E7
20
1.1981567058422793E7
30
0.0138811
11
-3.5372617557064384E7
21
1.1981634790670792E7
31
0.0138811
12
-3.537278423696162E7
22
1.1981668641106484E7
32
0.0
13
-3.537278423696162E7
23
1.1981668641106484E7
33
0.0
0
3DFACE
8
outermarker
62
252
10
-3.537261547692217E7
20
1.1981472157731893E7
30
0.0138811
11
-3.537257643842271E7
21
1.1981446286503077E7
31
0.0138811
12
-3.5372635500811525E7
22
1.1981512581410293E7
32
0.0138811
13
-3.5372635500811525E7
23
1.1981512581410293E7
33
0.0138811
0
3DFACE
8
outermarker
62
252
10
-3.537283536830781E7
20
1.1981491780895313E7
30
0.0
11
-3.537282796056514E7
21
1.1981423829295723E7
31
0.0
12
-3.5372635500811525E7
22
1.1981512581410293E7
32
0.0138811
13
-3.5372635500811525E7
23
1.1981512581410293E7
33
0.0138811
0
3DFACE
8
outermarker
62
252
10
-3.537279856923236E7
20
1.1981370926862385E7
30
0.0
11
-3.537274778690651E7
21
1.1981334171515627E7
31
0.0
12
-3.537261547692217E7
22
1.1981472157731893E7
32
0.0138811
13
-3.537261547692217E7
23
1.1981472157731893E7
33
0.0138811
0
3DFACE
8
outermarker
62
252
10
-3.537235306774071E7
20
1.1981459884111479E7
30
0.0138811
11
-3.537244416517753E7
21
1.1981440198836407E7
31
0.0138811
12
-3.5372350451853E7
22
1.1981354221610792E7
32
0.0
13
-3.5372350451853E7
23
1.1981354221610792E7
33
0.0
0
3DFACE
8
outermarker
62
252
10
-3.537212783899003E7
20
1.198154342065218E7
30
0.0138811
11
-3.537224699218951E7
21
1.1981494523733528E7
31
0.0138811
12
-3.5372210521941416E7
22
1.198140070819363E7
32
0.0
13
-3.5372210521941416E7
23
1.198140070819363E7
33
0.0
0
3DFACE
8
outermarker
62
252
10
-3.5320474486215845E7
20
1.1939569226519974E7
30
0.0
11
-3.5320679140216425E7
21
1.193940369184613E7
31
0.0
12
-3.532059230066828E7
22
1.1939327700185921E7
32
0.0
13
-3.532038764670903E7
23
1.193949323447001E7
33
0.0
0
3DFACE
8
outermarker
62
252
10
-3.532555877152841E7
20
1.1943865327299498E7
30
0.0
11
-3.53257634269716E7
21
1.194369976981354E7
31
0.0
12
-3.532567656411596E7
22
1.1943623687797923E7
32
0.0
13
-3.532547179011045E7
23
1.194378924468219E7
33
0.0
0
3DFACE
8
outermarker
62
252
10
-3.5330644293535404E7
20
1.1948160875750948E7
30
0.0
11
-3.5330849069246925E7
21
1.1947995195882076E7
31
0.0
12
-3.5330762063961E7
22
1.1947919222877339E7
32
0.0
13
-3.533055740714624E7
23
1.1948084802782035E7
33
0.0
0
3DFACE
8
outermarker
62
252
10
-3.53357312896223E7
20
1.195245577138296E7
30
0.0
11
-3.533593594785849E7
21
1.1952290168282917E7
31
0.0
12
-3.5335849037633635E7
22
1.195221420493278E7
32
0.0
13
-3.5335644260801636E7
23
1.195237980745737E7
33
0.0
0
3DFACE
8
outermarker
62
252
10
-3.534081952201398E7
20
1.1956750212227967E7
30
0.0
11
-3.534102430025229E7
21
1.1956584586497996E7
31
0.0
12
-3.5340937248024605E7
22
1.195650853267863E7
32
0.0
13
-3.5340732588477306E7
23
1.1956674158191102E7
33
0.0
0
3DFACE
8
outermarker
62
252
10
-3.53459092281738E7
20
1.1961044097742727E7
30
0.0
11
-3.5346113889270104E7
21
1.196087834926827E7
31
0.0
12
-3.534602693193176E7
22
1.196080240488972E7
32
0.0
13
-3.534582227106434E7
23
1.1960968053201504E7
33
0.0
0
3DFACE
8
outermarker
62
252
10
-3.53510002895784E7
20
1.1965337326839618E7
30
0.0
11
-3.535120495177327E7
21
1.1965171655342352E7
31
0.0
12
-3.535111797105332E7
22
1.196509562070584E7
32
0.0
13
-3.535091319003924E7
23
1.1965261391440455E7
33
0.0
0
3DFACE
8
outermarker
62
252
10
-3.535609258710095E7
20
1.196963009780344E7
30
0.0
11
-3.535629736925312E7
21
1.1969464403646654E7
31
0.0
12
-3.535621024626411E7
22
1.1969388378412116E7
32
0.0
13
-3.5356005582848996E7
23
1.1969554072312266E7
33
0.0
0
3DFACE
8
outermarker
62
252
10
-3.536118635839432E7
20
1.1973922210238623E7
30
0.0
11
-3.5361391023074135E7
21
1.1973756493159613E7
31
0.0
12
-3.536130399507164E7
22
1.197368057738594E7
32
0.0
13
-3.536109933042895E7
23
1.1973846294075659E7
33
0.0
0
3DFACE
8
outermarker
62
252
10
-3.536628148440887E7
20
1.1978213862417562E7
30
0.0
11
-3.536648615028484E7
21
1.1978048122552311E7
31
0.0
12
-3.536639898012613E7
22
1.197797211647263E7
32
0.0
13
-3.536619431428679E7
23
1.1978137855948118E7
33
0.0
0
3DFACE
8
outermarker
62
252
10
-3.537647568215174E7
20
1.1986795382319247E7
30
0.0
11
-3.53766803503272E7
21
1.198662959689189E7
31
0.0
12
-3.537659325166852E7
22
1.1986553709899912E7
32
0.0
13
-3.537638846476615E7
23
1.1986719494857276E7
33
0.0
0
3DFACE
8
outermarker
62
252
10
-3.538667529847046E7
20
1.1995374698504984E7
30
0.0
11
-3.5386879968834646E7
21
1.1995208847573921E7
31
0.0
12
-3.538679282310865E7
22
1.1995132929980924E7
32
0.0
13
-3.5386588152779214E7
23
1.1995298780522984E7
33
0.0
0
3DFACE
8
outermarker
62
252
10
-3.53917771978647E7
20
1.1999663493731853E7
30
0.0
11
-3.5391981869266786E7
21
1.1999497620031029E7
31
0.0
12
-3.5391894699984476E7
22
1.1999421712110547E7
32
0.0
13
-3.539168990980673E7
23
1.1999587585381122E7
33
0.0
0
3DFACE
8
outermarker
62
252
10
-3.538157475361313E7
20
1.1991085337608716E7
30
0.0
11
-3.538177954168634E7
21
1.1990919509517683E7
31
0.0
12
-3.538169230074765E7
22
1.1990843572227474E7
32
0.0
13
-3.538148763147966E7
23
1.1991009409973782E7
33
0.0
0
3DFACE
8
outermarker
62
252
10
-3.5400076424163595E7
20
1.1990556111496879E7
30
0.0
11
-3.54003608113522E7
21
1.1990556157471307E7
31
0.0
12
-3.540036083506804E7
22
1.1990450676466512E7
32
0.0
13
-3.540007644880663E7
23
1.1990450630492598E7
33
0.0
0
3DFACE
8
outermarker
62
252
10
-3.5400089019246854E7
20
1.1935994839404823E7
30
0.0
11
-3.540037317664335E7
21
1.1935994885156186E7
31
0.0
12
-3.5400373200274535E7
22
1.1935889425020874E7
32
0.0
13
-3.540008904380275E7
23
1.1935889379270013E7
33
0.0
0
3DFACE
8
outermarker
62
252
10
-3.540008760739687E7
20
1.1942057156031447E7
30
0.0
11
-3.5400371817960545E7
21
1.194205720181207E7
31
0.0
12
-3.540037184160057E7
22
1.1941951741504196E7
32
0.0
13
-3.540008763196198E7
23
1.1941951695724083E7
33
0.0
0
3DFACE
8
outermarker
62
252
10
-3.540008619499523E7
20
1.1948119581832556E7
30
0.0
11
-3.5400370458746836E7
21
1.1948119627642432E7
31
0.0
12
-3.540037048241809E7
22
1.1948014067406347E7
32
0.0
13
-3.5400086219592765E7
23
1.1948014021596977E7
33
0.0
0
3DFACE
8
outermarker
62
252
10
-3.540008478208809E7
20
1.195418191624218E7
30
0.0
11
-3.540036909904668E7
21
1.1954181962081328E7
31
0.0
12
-3.540036912270441E7
22
1.1954076501481518E7
32
0.0
13
-3.540008480667159E7
23
1.1954076455642886E7
33
0.0
0
3DFACE
8
outermarker
62
252
10
-3.540008349918408E7
20
1.196024425803569E7
30
0.0
11
-3.540036762017185E7
21
1.1960244303863864E7
31
0.0
12
-3.540036764383882E7
22
1.1960138843144696E7
32
0.0
13
-3.540008352377635E7
23
1.1960138797317024E7
33
0.0
0
3DFACE
8
outermarker
62
252
10
-3.540007784021784E7
20
1.198449377813511E7
30
0.0
11
-3.5400362174126774E7
21
1.1984493824080281E7
31
0.0
12
-3.5400362197851665E7
22
1.1984388263287073E7
32
0.0
13
-3.540007786487029E7
23
1.1984388217342414E7
33
0.0
0
3DFACE
8
outermarker
62
252
10
-3.5400079255771875E7
20
1.1978431317332942E7
30
0.0
11
-3.540036353641996E7
21
1.1978431363248859E7
31
0.0
12
-3.540036356011354E7
22
1.1978325902277987E7
32
0.0
13
-3.54000792803918E7
23
1.1978325856362581E7
33
0.0
0
3DFACE
8
outermarker
62
252
10
-3.540008067077242E7
20
1.1972368959589697E7
30
0.0
11
-3.5400364898180455E7
21
1.1972369005476365E7
31
0.0
12
-3.5400364921865165E7
22
1.197226354457166E7
32
0.0
13
-3.540008069538312E7
23
1.1972263498685503E7
33
0.0
0
3DFACE
8
outermarker
62
252
10
-3.5400610755449556E7
20
1.196581819792352E7
30
0.0
11
-3.5400572013652E7
21
1.196593931727414E7
31
0.0
12
-3.5400769659806915E7
22
1.196595062167575E7
32
0.0
13
-3.5400769659806915E7
23
1.196595062167575E7
33
0.0
0
3DFACE
8
outermarker
62
252
10
-3.5400610755449556E7
20
1.196581819792352E7
30
0.0
11
-3.54003849809379E7
21
1.1965809781844296E7
31
0.0
12
-3.5400572013652E7
22
1.196593931727414E7
32
0.0
13
-3.5400572013652E7
23
1.196593931727414E7
33
0.0
0
3DFACE
8
outermarker
62
252
10
-3.54003849809379E7
20
1.1965809781844296E7
30
0.0
11
-3.540036888318202E7
21
1.1965933099614168E7
31
0.0
12
-3.5400572013652E7
22
1.196593931727414E7
32
0.0
13
-3.5400572013652E7
23
1.196593931727414E7
33
0.0
0
3DFACE
8
outermarker
62
252
10
-3.54003849809379E7
20
1.1965809781844296E7
30
0.0
11
-3.540015667694415E7
21
1.1965808248629702E7
31
0.0
12
-3.540036888318202E7
22
1.1965933099614168E7
32
0.0
13
-3.540036888318202E7
23
1.1965933099614168E7
33
0.0
0
3DFACE
8
outermarker
62
252
10
-3.539928951725957E7
20
1.1965871255998842E7
30
0.0
11
-3.539938326393866E7
21
1.1965978330137009E7
31
0.0
12
-3.539949241778565E7
22
1.1965845550802989E7
32
0.0
13
-3.539949241778565E7
23
1.1965845550802989E7
33
0.0
0
3DFACE
8
outermarker
62
252
10
-3.539910136754036E7
20
1.1965902949464561E7
30
0.0
11
-3.5399213975185595E7
21
1.1966001646457197E7
31
0.0
12
-3.539928951725957E7
22
1.1965871255998842E7
32
0.0
13
-3.539928951725957E7
23
1.1965871255998842E7
33
0.0
0
3DFACE
8
outermarker
62
252
10
-3.539949241778565E7
20
1.1965845550802989E7
30
0.0
11
-3.539956580863707E7
21
1.19659594055674E7
31
0.0
12
-3.539970685268268E7
22
1.1965826331994865E7
32
0.0
13
-3.539970685268268E7
23
1.1965826331994865E7
33
0.0
0
3DFACE
8
outermarker
62
252
10
-3.539970685268268E7
20
1.1965826331994865E7
30
0.0
11
-3.539975874889105E7
21
1.1965945271194663E7
31
0.0
12
-3.539992943943732E7
22
1.1965813898166608E7
32
0.0
13
-3.539992943943732E7
23
1.1965813898166608E7
33
0.0
0
3DFACE
8
outermarker
62
252
10
-3.539992943943732E7
20
1.1965813898166608E7
30
0.0
11
-3.5399959022639096E7
21
1.1965936026149787E7
31
0.0
12
-3.540015667694415E7
22
1.1965808248629702E7
32
0.0
13
-3.540015667694415E7
23
1.1965808248629702E7
33
0.0
0
3DFACE
8
outermarker
62
252
10
-3.540015667694415E7
20
1.1965808248629702E7
30
0.0
11
-3.540016347283789E7
21
1.1965931969144458E7
31
0.0
12
-3.540036888318202E7
22
1.1965933099614168E7
32
0.0
13
-3.540036888318202E7
23
1.1965933099614168E7
33
0.0
0
3DFACE
8
outermarker
62
252
10
-3.5399959022639096E7
20
1.1965936026149787E7
30
0.0
11
-3.540016347283789E7
21
1.1965931969144458E7
31
0.0
12
-3.540015667694415E7
22
1.1965808248629702E7
32
0.0
13
-3.540015667694415E7
23
1.1965808248629702E7
33
0.0
0
3DFACE
8
outermarker
62
252
10
-3.540083042814961E7
20
1.1965833596149286E7
30
0.0
11
-3.5400610755449556E7
21
1.196581819792352E7
31
0.0
12
-3.5400769659806915E7
22
1.196595062167575E7
32
0.0
13
-3.5400769659806915E7
23
1.196595062167575E7
33
0.0
0
3DFACE
8
outermarker
62
252
10
-3.53989309239666E7
20
1.196594023284685E7
30
0.0
11
-3.5399060624737784E7
21
1.196602905585433E7
31
0.0
12
-3.539910136754036E7
22
1.1965902949464561E7
32
0.0
13
-3.539910136754036E7
23
1.1965902949464561E7
33
0.0
0
3DFACE
8
outermarker
62
252
10
-3.539938326393866E7
20
1.1965978330137009E7
30
0.0
11
-3.539956580863707E7
21
1.19659594055674E7
31
0.0
12
-3.539949241778565E7
22
1.1965845550802989E7
32
0.0
13
-3.539949241778565E7
23
1.1965845550802989E7
33
0.0
0
3DFACE
8
outermarker
62
252
10
-3.539956580863707E7
20
1.19659594055674E7
30
0.0
11
-3.539975874889105E7
21
1.1965945271194663E7
31
0.0
12
-3.539970685268268E7
22
1.1965826331994865E7
32
0.0
13
-3.539970685268268E7
23
1.1965826331994865E7
33
0.0
0
3DFACE
8
outermarker
62
252
10
-3.539878086901917E7
20
1.1965982408444183E7
30
0.0
11
-3.539892562202857E7
21
1.1966060159850234E7
31
0.0
12
-3.53989309239666E7
22
1.196594023284685E7
32
0.0
13
-3.53989309239666E7
23
1.196594023284685E7
33
0.0
0
3DFACE
8
outermarker
62
252
10
-3.5398653576611005E7
20
1.1966028878278514E7
30
0.0
11
-3.539881109172509E7
21
1.1966094360372754E7
31
0.0
12
-3.539878086901917E7
22
1.1965982408444183E7
32
0.0
13
-3.539878086901917E7
23
1.1965982408444183E7
33
0.0
0
3DFACE
8
outermarker
62
252
10
-3.539892562202857E7
20
1.1966060159850234E7
30
0.0
11
-3.5399060624737784E7
21
1.196602905585433E7
31
0.0
12
-3.53989309239666E7
22
1.196594023284685E7
32
0.0
13
-3.53989309239666E7
23
1.196594023284685E7
33
0.0
0
3DFACE
8
outermarker
62
252
10
-3.539855106469141E7
20
1.1966078844748687E7
30
0.0
11
-3.5398650356628776E7
21
1.196617005746081E7
31
0.0
12
-3.5398653576611005E7
22
1.1966028878278514E7
32
0.0
13
-3.5398653576611005E7
23
1.1966028878278514E7
33
0.0
0
3DFACE
8
outermarker
62
252
10
-3.539871884990992E7
20
1.1966131159059135E7
30
0.0
11
-3.539881109172509E7
21
1.1966094360372754E7
31
0.0
12
-3.5398653576611005E7
22
1.1966028878278514E7
32
0.0
13
-3.5398653576611005E7
23
1.1966028878278514E7
33
0.0
0
3DFACE
8
outermarker
62
252
10
-3.539847492394709E7
20
1.1966131609922018E7
30
0.0
11
-3.539860668033549E7
21
1.1966210357478106E7
31
0.0
12
-3.539855106469141E7
22
1.1966078844748687E7
32
0.0
13
-3.539855106469141E7
23
1.1966078844748687E7
33
0.0
0
3DFACE
8
outermarker
62
252
10
-3.5398426377193786E7
20
1.196618637598521E7
30
0.0
11
-3.539860668033549E7
21
1.1966210357478106E7
31
0.0
12
-3.539847492394709E7
22
1.1966131609922018E7
32
0.0
13
-3.539847492394709E7
23
1.1966131609922018E7
33
0.0
0
3DFACE
8
outermarker
62
252
10
-3.539840617257839E7
20
1.1966242145439021E7
30
0.0
11
-3.539858850970012E7
21
1.1966251360901518E7
31
0.0
12
-3.5398426377193786E7
22
1.196618637598521E7
32
0.0
13
-3.5398426377193786E7
23
1.196618637598521E7
33
0.0
0
3DFACE
8
outermarker
62
252
10
-3.5398414654667236E7
20
1.1966298120200315E7
30
0.0
11
-3.53985961298082E7
21
1.1966292568948843E7
31
0.0
12
-3.539858850970012E7
22
1.1966251360901518E7
32
0.0
13
-3.539858850970012E7
23
1.1966251360901518E7
33
0.0
0
3DFACE
8
outermarker
62
252
10
-3.5398414654667236E7
20
1.1966298120200315E7
30
0.0
11
-3.539858850970012E7
21
1.1966251360901518E7
31
0.0
12
-3.539840617257839E7
22
1.1966242145439021E7
32
0.0
13
-3.539840617257839E7
23
1.1966242145439021E7
33
0.0
0
3DFACE
8
outermarker
62
252
10
-3.539845165770085E7
20
1.1966353402256608E7
30
0.0
11
-3.53985166242416E7
21
1.1966407093464786E7
31
0.0
12
-3.53985961298082E7
22
1.1966292568948843E7
32
0.0
13
-3.53985961298082E7
23
1.1966292568948843E7
33
0.0
0
3DFACE
8
outermarker
62
252
10
-3.53985166242416E7
20
1.1966407093464786E7
30
0.0
11
-3.539860852208087E7
21
1.1966458295539787E7
31
0.0
12
-3.5398629434133515E7
22
1.1966333283170333E7
32
0.0
13
-3.5398629434133515E7
23
1.1966333283170333E7
33
0.0
0
3DFACE
8
outermarker
62
252
10
-3.539872589162136E7
20
1.196650640939441E7
30
0.0
11
-3.539877058033618E7
21
1.1966410635267055E7
31
0.0
12
-3.539868788886838E7
22
1.1966372804990072E7
32
0.0
13
-3.539868788886838E7
23
1.1966372804990072E7
33
0.0
0
3DFACE
8
outermarker
62
252
10
-3.539860852208087E7
20
1.1966458295539787E7
30
0.0
11
-3.539872589162136E7
21
1.196650640939441E7
31
0.0
12
-3.539868788886838E7
22
1.1966372804990072E7
32
0.0
13
-3.539868788886838E7
23
1.1966372804990072E7
33
0.0
0
3DFACE
8
outermarker
62
252
10
-3.539872589162136E7
20
1.196650640939441E7
30
0.0
11
-3.53988669054077E7
21
1.1966550436747177E7
31
0.0
12
-3.539887617951604E7
22
1.196644597542709E7
32
0.0
13
-3.539887617951604E7
23
1.196644597542709E7
33
0.0
0
3DFACE
8
outermarker
62
252
10
-3.539902930852802E7
20
1.1966589878089081E7
30
0.0
11
-3.539914918210782E7
21
1.1966507487298531E7
31
0.0
12
-3.539900304866499E7
22
1.1966478425909419E7
32
0.0
13
-3.539900304866499E7
23
1.1966478425909419E7
33
0.0
0
3DFACE
8
outermarker
62
252
10
-3.53988669054077E7
20
1.1966550436747177E7
30
0.0
11
-3.539902930852802E7
21
1.1966589878089081E7
31
0.0
12
-3.539900304866499E7
22
1.1966478425909419E7
32
0.0
13
-3.539900304866499E7
23
1.1966478425909419E7
33
0.0
0
3DFACE
8
outermarker
62
252
10
-3.539961792493109E7
20
1.1966674193644578E7
30
0.0
11
-3.539967876694165E7
21
1.1966569641359683E7
31
0.0
12
-3.539948972355583E7
22
1.1966553444875298E7
32
0.0
13
-3.539948972355583E7
23
1.1966553444875298E7
33
0.0
0
3DFACE
8
outermarker
62
252
10
-3.539921056125579E7
20
1.196662393453747E7
30
0.0
11
-3.5399312253707655E7
21
1.1966532560346613E7
31
0.0
12
-3.539914918210782E7
22
1.1966507487298531E7
32
0.0
13
-3.539914918210782E7
23
1.1966507487298531E7
33
0.0
0
3DFACE
8
outermarker
62
252
10
-3.539940780325534E7
20
1.1966652206261802E7
30
0.0
11
-3.539961792493109E7
21
1.1966674193644578E7
31
0.0
12
-3.539948972355583E7
22
1.1966553444875298E7
32
0.0
13
-3.539948972355583E7
23
1.1966553444875298E7
33
0.0
0
3DFACE
8
outermarker
62
252
10
-3.539921056125579E7
20
1.196662393453747E7
30
0.0
11
-3.539940780325534E7
21
1.1966652206261802E7
31
0.0
12
-3.5399312253707655E7
22
1.1966532560346613E7
32
0.0
13
-3.5399312253707655E7
23
1.1966532560346613E7
33
0.0
0
3DFACE
8
outermarker
62
252
10
-3.539940780325534E7
20
1.1966652206261802E7
30
0.0
11
-3.539948972355583E7
21
1.1966553444875298E7
31
0.0
12
-3.5399312253707655E7
22
1.1966532560346613E7
32
0.0
13
-3.5399312253707655E7
23
1.1966532560346613E7
33
0.0
0
3DFACE
8
outermarker
62
252
10
-3.539983760298564E7
20
1.1966689496849846E7
30
0.0
11
-3.539987641662833E7
21
1.196658094960813E7
31
0.0
12
-3.539967876694165E7
22
1.1966569641359683E7
32
0.0
13
-3.539967876694165E7
23
1.1966569641359683E7
33
0.0
0
3DFACE
8
outermarker
62
252
10
-3.539983760298564E7
20
1.1966689496849846E7
30
0.0
11
-3.5400063371594444E7
21
1.1966698015395364E7
31
0.0
12
-3.539987641662833E7
22
1.196658094960813E7
32
0.0
13
-3.539987641662833E7
23
1.196658094960813E7
33
0.0
0
3DFACE
8
outermarker
62
252
10
-3.5400063371594444E7
20
1.1966698015395364E7
30
0.0
11
-3.540007955106596E7
21
1.1966587169448556E7
31
0.0
12
-3.539987641662833E7
22
1.196658094960813E7
32
0.0
13
-3.539987641662833E7
23
1.196658094960813E7
33
0.0
0
3DFACE
8
outermarker
62
252
10
-3.5400063371594444E7
20
1.1966698015395364E7
30
0.0
11
-3.540029168188016E7
21
1.1966699449302714E7
31
0.0
12
-3.540007955106596E7
22
1.1966587169448556E7
32
0.0
13
-3.540007955106596E7
23
1.1966587169448556E7
33
0.0
0
3DFACE
8
outermarker
62
252
10
-3.540029168188016E7
20
1.1966699449302714E7
30
0.0
11
-3.540028496556365E7
21
1.196658830029535E7
31
0.0
12
-3.540007955106596E7
22
1.1966587169448556E7
32
0.0
13
-3.540007955106596E7
23
1.1966587169448556E7
33
0.0
0
3DFACE
8
outermarker
62
252
10
-3.540051892551919E7
20
1.1966693897748694E7
30
0.0
11
-3.5400489431733064E7
21
1.196658414206822E7
31
0.0
12
-3.540029168188016E7
22
1.1966699449302714E7
32
0.0
13
-3.540029168188016E7
23
1.1966699449302714E7
33
0.0
0
3DFACE
8
outermarker
62
252
10
-3.5400741529799655E7
20
1.1966681459986705E7
30
0.0
11
-3.5400689709206454E7
21
1.1966574993611054E7
31
0.0
12
-3.540051892551919E7
22
1.1966693897748694E7
32
0.0
13
-3.540051892551919E7
23
1.1966693897748694E7
33
0.0
0
3DFACE
8
outermarker
62
252
10
-3.540095595762899E7
20
1.1966662235343652E7
30
0.0
11
-3.540088264077447E7
21
1.1966560854514562E7
31
0.0
12
-3.5400741529799655E7
22
1.1966681459986705E7
32
0.0
13
-3.5400741529799655E7
23
1.1966681459986705E7
33
0.0
0
3DFACE
8
outermarker
62
252
10
-3.540115886179691E7
20
1.1966636522783395E7
30
0.0
11
-3.540106518788725E7
21
1.1966541923984194E7
31
0.0
12
-3.540095595762899E7
22
1.1966662235343652E7
32
0.0
13
-3.540095595762899E7
23
1.1966662235343652E7
33
0.0
0
3DFACE
8
outermarker
62
252
10
-3.540134701377403E7
20
1.1966604820885438E7
30
0.0
11
-3.540123447813942E7
21
1.1966518600838494E7
31
0.0
12
-3.540115886179691E7
22
1.1966636522783395E7
32
0.0
13
-3.540115886179691E7
23
1.1966636522783395E7
33
0.0
0
3DFACE
8
outermarker
62
252
10
-3.5400689709206454E7
20
1.1966574993611054E7
30
0.0
11
-3.5400489431733064E7
21
1.196658414206822E7
31
0.0
12
-3.540051892551919E7
22
1.1966693897748694E7
32
0.0
13
-3.540051892551919E7
23
1.1966693897748694E7
33
0.0
0
3DFACE
8
outermarker
62
252
10
-3.539961792493109E7
20
1.1966674193644578E7
30
0.0
11
-3.539983760298564E7
21
1.1966689496849846E7
31
0.0
12
-3.539967876694165E7
22
1.1966569641359683E7
32
0.0
13
-3.539967876694165E7
23
1.1966569641359683E7
33
0.0
0
3DFACE
8
outermarker
62
252
10
-3.5400489431733064E7
20
1.196658414206822E7
30
0.0
11
-3.540028496556365E7
21
1.196658830029535E7
31
0.0
12
-3.540029168188016E7
22
1.1966699449302714E7
32
0.0
13
-3.540029168188016E7
23
1.1966699449302714E7
33
0.0
0
3DFACE
8
outermarker
62
252
10
-3.5401517458073705E7
20
1.1966567528532477E7
30
0.0
11
-3.540138782907332E7
21
1.196649118418046E7
31
0.0
12
-3.540134701377403E7
22
1.1966604820885438E7
32
0.0
13
-3.540134701377403E7
23
1.1966604820885438E7
33
0.0
0
3DFACE
8
outermarker
62
252
10
-3.540106518788725E7
20
1.1966541923984194E7
30
0.0
11
-3.540088264077447E7
21
1.1966560854514562E7
31
0.0
12
-3.540095595762899E7
22
1.1966662235343652E7
32
0.0
13
-3.540095595762899E7
23
1.1966662235343652E7
33
0.0
0
3DFACE
8
outermarker
62
252
10
-3.540166751217756E7
20
1.1966525343989376E7
30
0.0
11
-3.540152283122204E7
21
1.1966460072944108E7
31
0.0
12
-3.5401517458073705E7
22
1.1966567528532477E7
32
0.0
13
-3.5401517458073705E7
23
1.1966567528532477E7
33
0.0
0
3DFACE
8
outermarker
62
252
10
-3.540138782907332E7
20
1.196649118418046E7
30
0.0
11
-3.540123447813942E7
21
1.1966518600838494E7
31
0.0
12
-3.540134701377403E7
22
1.1966604820885438E7
32
0.0
13
-3.540134701377403E7
23
1.1966604820885438E7
33
0.0
0
3DFACE
8
outermarker
62
252
10
-3.540179480222053E7
20
1.1966478865796637E7
30
0.0
11
-3.540163735996184E7
21
1.1966425865656236E7
31
0.0
12
-3.540166751217756E7
22
1.1966525343989376E7
32
0.0
13
-3.540166751217756E7
23
1.1966525343989376E7
33
0.0
0
3DFACE
8
outermarker
62
252
10
-3.5401897322277054E7
20
1.1966428892082885E7
30
0.0
11
-3.540179808935543E7
21
1.1966350158108551E7
31
0.0
12
-3.540179480222053E7
22
1.1966478865796637E7
32
0.0
13
-3.540179480222053E7
23
1.1966478865796637E7
33
0.0
0
3DFACE
8
outermarker
62
252
10
-3.540172959932386E7
20
1.196638896133151E7
30
0.0
11
-3.540163735996184E7
21
1.1966425865656236E7
31
0.0
12
-3.540179480222053E7
22
1.1966478865796637E7
32
0.0
13
-3.540179480222053E7
23
1.1966478865796637E7
33
0.0
0
3DFACE
8
outermarker
62
252
10
-3.540197344628002E7
20
1.1966376121229755E7
30
0.0
11
-3.540184176186806E7
21
1.1966309855053829E7
31
0.0
12
-3.5401897322277054E7
22
1.1966428892082885E7
32
0.0
13
-3.5401897322277054E7
23
1.1966428892082885E7
33
0.0
0
3DFACE
8
outermarker
62
252
10
-3.540202199919056E7
20
1.196632135141479E7
30
0.0
11
-3.540185992843531E7
21
1.1966268750567686E7
31
0.0
12
-3.540197344628002E7
22
1.1966376121229755E7
32
0.0
13
-3.540197344628002E7
23
1.1966376121229755E7
33
0.0
0
3DFACE
8
outermarker
62
252
10
-3.540185992843531E7
20
1.1966268750567686E7
30
0.0
11
-3.540184176186806E7
21
1.1966309855053829E7
31
0.0
12
-3.540197344628002E7
22
1.1966376121229755E7
32
0.0
13
-3.540197344628002E7
23
1.1966376121229755E7
33
0.0
0
3DFACE
8
outermarker
62
252
10
-3.540204218575994E7
20
1.1966265580365904E7
30
0.0
11
-3.540185992843531E7
21
1.1966268750567686E7
31
0.0
12
-3.540202199919056E7
22
1.196632135141479E7
32
0.0
13
-3.540202199919056E7
23
1.196632135141479E7
33
0.0
0
3DFACE
8
outermarker
62
252
10
-3.540203370927617E7
20
1.1966209606274152E7
30
0.0
11
-3.5401852304178216E7
21
1.1966227543060608E7
31
0.0
12
-3.540185992843531E7
22
1.1966268750567686E7
32
0.0
13
-3.540185992843531E7
23
1.1966268750567686E7
33
0.0
0
3DFACE
8
outermarker
62
252
10
-3.540199668841894E7
20
1.196615432710176E7
30
0.0
11
-3.540193171660917E7
21
1.196610064081689E7
31
0.0
12
-3.5401852304178216E7
22
1.1966227543060608E7
32
0.0
13
-3.5401852304178216E7
23
1.1966227543060608E7
33
0.0
0
3DFACE
8
outermarker
62
252
10
-3.5401839826391324E7
20
1.1966049445394687E7
30
0.0
11
-3.5401760537681036E7
21
1.196614731334127E7
31
0.0
12
-3.5401818995906405E7
22
1.1966186831175638E7
32
0.0
13
-3.5401818995906405E7
23
1.1966186831175638E7
33
0.0
0
3DFACE
8
outermarker
62
252
10
-3.540193171660917E7
20
1.196610064081689E7
30
0.0
11
-3.5401839826391324E7
21
1.1966049445394687E7
31
0.0
12
-3.5401818995906405E7
22
1.1966186831175638E7
32
0.0
13
-3.5401818995906405E7
23
1.1966186831175638E7
33
0.0
0
3DFACE
8
outermarker
62
252
10
-3.5401839826391324E7
20
1.1966049445394687E7
30
0.0
11
-3.5401722442002855E7
21
1.1966001339499226E7
31
0.0
12
-3.540167785523685E7
22
1.196610958822386E7
32
0.0
13
-3.540167785523685E7
23
1.196610958822386E7
33
0.0
0
3DFACE
8
outermarker
62
252
10
-3.5401581438584365E7
20
1.196595732091936E7
30
0.0
11
-3.540144537209184E7
21
1.1966041711348958E7
31
0.0
12
-3.540157224223921E7
22
1.1966074154731967E7
32
0.0
13
-3.540157224223921E7
23
1.1966074154731967E7
33
0.0
0
3DFACE
8
outermarker
62
252
10
-3.5401722442002855E7
20
1.1966001339499226E7
30
0.0
11
-3.5401581438584365E7
21
1.196595732091936E7
31
0.0
12
-3.540157224223921E7
22
1.1966074154731967E7
32
0.0
13
-3.540157224223921E7
23
1.1966074154731967E7
33
0.0
0
3DFACE
8
outermarker
62
252
10
-3.540141902364973E7
20
1.196591788860489E7
30
0.0
11
-3.540123777254222E7
21
1.196588384087712E7
31
0.0
12
-3.540129925053159E7
22
1.1966012757043974E7
32
0.0
13
-3.540129925053159E7
23
1.1966012757043974E7
33
0.0
0
3DFACE
8
outermarker
62
252
10
-3.540141902364973E7
20
1.196591788860489E7
30
0.0
11
-3.540129925053159E7
21
1.1966012757043974E7
31
0.0
12
-3.540144537209184E7
22
1.1966041711348958E7
32
0.0
13
-3.540144537209184E7
23
1.1966041711348958E7
33
0.0
0
3DFACE
8
outermarker
62
252
10
-3.540083042814961E7
20
1.1965833596149286E7
30
0.0
11
-3.5400769659806915E7
21
1.196595062167575E7
31
0.0
12
-3.540095870031892E7
22
1.1965966812888758E7
32
0.0
13
-3.540095870031892E7
23
1.1965966812888758E7
33
0.0
0
3DFACE
8
outermarker
62
252
10
-3.540123777254222E7
20
1.196588384087712E7
30
0.0
11
-3.540104053361719E7
21
1.1965855577016894E7
31
0.0
12
-3.540113616815489E7
22
1.196598759127856E7
32
0.0
13
-3.540113616815489E7
23
1.196598759127856E7
33
0.0
0
3DFACE
8
outermarker
62
252
10
-3.540104053361719E7
20
1.1965855577016894E7
30
0.0
11
-3.540083042814961E7
21
1.1965833596149286E7
31
0.0
12
-3.540095870031892E7
22
1.1965966812888758E7
32
0.0
13
-3.540095870031892E7
23
1.1965966812888758E7
33
0.0
0
3DFACE
8
outermarker
62
252
10
-3.540104053361719E7
20
1.1965855577016894E7
30
0.0
11
-3.540095870031892E7
21
1.1965966812888758E7
31
0.0
12
-3.540113616815489E7
22
1.196598759127856E7
32
0.0
13
-3.540113616815489E7
23
1.196598759127856E7
33
0.0
0
3DFACE
8
outermarker
62
252
10
-3.5401581438584365E7
20
1.196595732091936E7
30
0.0
11
-3.540141902364973E7
21
1.196591788860489E7
31
0.0
12
-3.540144537209184E7
22
1.1966041711348958E7
32
0.0
13
-3.540144537209184E7
23
1.1966041711348958E7
33
0.0
0
3DFACE
8
outermarker
62
252
10
-3.540123777254222E7
20
1.196588384087712E7
30
0.0
11
-3.540113616815489E7
21
1.196598759127856E7
31
0.0
12
-3.540129925053159E7
22
1.1966012757043974E7
32
0.0
13
-3.540129925053159E7
23
1.1966012757043974E7
33
0.0
0
3DFACE
8
outermarker
62
252
10
-3.539975874889105E7
20
1.1965945271194663E7
30
0.0
11
-3.5399959022639096E7
21
1.1965936026149787E7
31
0.0
12
-3.539992943943732E7
22
1.1965813898166608E7
32
0.0
13
-3.539992943943732E7
23
1.1965813898166608E7
33
0.0
0
3DFACE
8
outermarker
62
252
10
-3.5399213975185595E7
20
1.1966001646457197E7
30
0.0
11
-3.539938326393866E7
21
1.1965978330137009E7
31
0.0
12
-3.539928951725957E7
22
1.1965871255998842E7
32
0.0
13
-3.539928951725957E7
23
1.1965871255998842E7
33
0.0
0
3DFACE
8
outermarker
62
252
10
-3.5399060624737784E7
20
1.196602905585433E7
30
0.0
11
-3.5399213975185595E7
21
1.1966001646457197E7
31
0.0
12
-3.539910136754036E7
22
1.1965902949464561E7
32
0.0
13
-3.539910136754036E7
23
1.1965902949464561E7
33
0.0
0
3DFACE
8
outermarker
62
252
10
-3.539881109172509E7
20
1.1966094360372754E7
30
0.0
11
-3.539892562202857E7
21
1.1966060159850234E7
31
0.0
12
-3.539878086901917E7
22
1.1965982408444183E7
32
0.0
13
-3.539878086901917E7
23
1.1965982408444183E7
33
0.0
0
3DFACE
8
outermarker
62
252
10
-3.5398650356628776E7
20
1.196617005746081E7
30
0.0
11
-3.539871884990992E7
21
1.1966131159059135E7
31
0.0
12
-3.5398653576611005E7
22
1.1966028878278514E7
32
0.0
13
-3.5398653576611005E7
23
1.1966028878278514E7
33
0.0
0
3DFACE
8
outermarker
62
252
10
-3.539860668033549E7
20
1.1966210357478106E7
30
0.0
11
-3.5398650356628776E7
21
1.196617005746081E7
31
0.0
12
-3.539855106469141E7
22
1.1966078844748687E7
32
0.0
13
-3.539855106469141E7
23
1.1966078844748687E7
33
0.0
0
3DFACE
8
outermarker
62
252
10
-3.539858850970012E7
20
1.1966251360901518E7
30
0.0
11
-3.539860668033549E7
21
1.1966210357478106E7
31
0.0
12
-3.5398426377193786E7
22
1.196618637598521E7
32
0.0
13
-3.5398426377193786E7
23
1.196618637598521E7
33
0.0
0
3DFACE
8
outermarker
62
252
10
-3.5398414654667236E7
20
1.1966298120200315E7
30
0.0
11
-3.539845165770085E7
21
1.1966353402256608E7
31
0.0
12
-3.53985961298082E7
22
1.1966292568948843E7
32
0.0
13
-3.53985961298082E7
23
1.1966292568948843E7
33
0.0
0
3DFACE
8
outermarker
62
252
10
-3.53985166242416E7
20
1.1966407093464786E7
30
0.0
11
-3.5398629434133515E7
21
1.1966333283170333E7
31
0.0
12
-3.53985961298082E7
22
1.1966292568948843E7
32
0.0
13
-3.53985961298082E7
23
1.1966292568948843E7
33
0.0
0
3DFACE
8
outermarker
62
252
10
-3.539860852208087E7
20
1.1966458295539787E7
30
0.0
11
-3.539868788886838E7
21
1.1966372804990072E7
31
0.0
12
-3.5398629434133515E7
22
1.1966333283170333E7
32
0.0
13
-3.5398629434133515E7
23
1.1966333283170333E7
33
0.0
0
3DFACE
8
outermarker
62
252
10
-3.539872589162136E7
20
1.196650640939441E7
30
0.0
11
-3.539887617951604E7
21
1.196644597542709E7
31
0.0
12
-3.539877058033618E7
22
1.1966410635267055E7
32
0.0
13
-3.539877058033618E7
23
1.1966410635267055E7
33
0.0
0
3DFACE
8
outermarker
62
252
10
-3.53988669054077E7
20
1.1966550436747177E7
30
0.0
11
-3.539900304866499E7
21
1.1966478425909419E7
31
0.0
12
-3.539887617951604E7
22
1.196644597542709E7
32
0.0
13
-3.539887617951604E7
23
1.196644597542709E7
33
0.0
0
3DFACE
8
outermarker
62
252
10
-3.539902930852802E7
20
1.1966589878089081E7
30
0.0
11
-3.539921056125579E7
21
1.196662393453747E7
31
0.0
12
-3.539914918210782E7
22
1.1966507487298531E7
32
0.0
13
-3.539914918210782E7
23
1.1966507487298531E7
33
0.0
0
3DFACE
8
outermarker
62
252
10
-3.540088264077447E7
20
1.1966560854514562E7
30
0.0
11
-3.5400689709206454E7
21
1.1966574993611054E7
31
0.0
12
-3.5400741529799655E7
22
1.1966681459986705E7
32
0.0
13
-3.5400741529799655E7
23
1.1966681459986705E7
33
0.0
0
3DFACE
8
outermarker
62
252
10
-3.540123447813942E7
20
1.1966518600838494E7
30
0.0
11
-3.540106518788725E7
21
1.1966541923984194E7
31
0.0
12
-3.540115886179691E7
22
1.1966636522783395E7
32
0.0
13
-3.540115886179691E7
23
1.1966636522783395E7
33
0.0
0
3DFACE
8
outermarker
62
252
10
-3.540152283122204E7
20
1.1966460072944108E7
30
0.0
11
-3.540138782907332E7
21
1.196649118418046E7
31
0.0
12
-3.5401517458073705E7
22
1.1966567528532477E7
32
0.0
13
-3.5401517458073705E7
23
1.1966567528532477E7
33
0.0
0
3DFACE
8
outermarker
62
252
10
-3.540163735996184E7
20
1.1966425865656236E7
30
0.0
11
-3.540152283122204E7
21
1.1966460072944108E7
31
0.0
12
-3.540166751217756E7
22
1.1966525343989376E7
32
0.0
13
-3.540166751217756E7
23
1.1966525343989376E7
33
0.0
0
3DFACE
8
outermarker
62
252
10
-3.540179808935543E7
20
1.1966350158108551E7
30
0.0
11
-3.540172959932386E7
21
1.196638896133151E7
31
0.0
12
-3.540179480222053E7
22
1.1966478865796637E7
32
0.0
13
-3.540179480222053E7
23
1.1966478865796637E7
33
0.0
0
3DFACE
8
outermarker
62
252
10
-3.540184176186806E7
20
1.1966309855053829E7
30
0.0
11
-3.540179808935543E7
21
1.1966350158108551E7
31
0.0
12
-3.5401897322277054E7
22
1.1966428892082885E7
32
0.0
13
-3.5401897322277054E7
23
1.1966428892082885E7
33
0.0
0
3DFACE
8
outermarker
62
252
10
-3.540204218575994E7
20
1.1966265580365904E7
30
0.0
11
-3.540203370927617E7
21
1.1966209606274152E7
31
0.0
12
-3.540185992843531E7
22
1.1966268750567686E7
32
0.0
13
-3.540185992843531E7
23
1.1966268750567686E7
33
0.0
0
3DFACE
8
outermarker
62
252
10
-3.540203370927617E7
20
1.1966209606274152E7
30
0.0
11
-3.540199668841894E7
21
1.196615432710176E7
31
0.0
12
-3.5401852304178216E7
22
1.1966227543060608E7
32
0.0
13
-3.5401852304178216E7
23
1.1966227543060608E7
33
0.0
0
3DFACE
8
outermarker
62
252
10
-3.540193171660917E7
20
1.196610064081689E7
30
0.0
11
-3.5401818995906405E7
21
1.1966186831175638E7
31
0.0
12
-3.5401852304178216E7
22
1.1966227543060608E7
32
0.0
13
-3.5401852304178216E7
23
1.1966227543060608E7
33
0.0
0
3DFACE
8
outermarker
62
252
10
-3.5401839826391324E7
20
1.1966049445394687E7
30
0.0
11
-3.540167785523685E7
21
1.196610958822386E7
31
0.0
12
-3.5401760537681036E7
22
1.196614731334127E7
32
0.0
13
-3.5401760537681036E7
23
1.196614731334127E7
33
0.0
0
3DFACE
8
outermarker
62
252
10
-3.5401722442002855E7
20
1.1966001339499226E7
30
0.0
11
-3.540157224223921E7
21
1.1966074154731967E7
31
0.0
12
-3.540167785523685E7
22
1.196610958822386E7
32
0.0
13
-3.540167785523685E7
23
1.196610958822386E7
33
0.0
0
3DFACE
8
outermarker
62
252
10
-3.540010224073482E7
20
1.1905691715050329E7
30
0.0
11
-3.5400385883887514E7
21
1.1905691760578282E7
31
0.0
12
-3.54003859074553E7
22
1.1905586301571378E7
32
0.0
13
-3.54001022652248E7
23
1.1905586256043928E7
33
0.0
0
3DFACE
8
outermarker
62
252
10
-3.540010083267556E7
20
1.1911753969403083E7
30
0.0
11
-3.540038452884961E7
21
1.1911754014960231E7
31
0.0
12
-3.540038455242622E7
22
1.1911648555692127E7
32
0.0
13
-3.5400100857174695E7
23
1.1911648510135487E7
33
0.0
0
3DFACE
8
outermarker
62
252
10
-3.540009942408978E7
20
1.1917816238252014E7
30
0.0
11
-3.540038317330502E7
21
1.1917816283838352E7
31
0.0
12
-3.540038319689045E7
22
1.1917710824326787E7
32
0.0
13
-3.540009944859809E7
23
1.1917710778740956E7
33
0.0
0
3DFACE
8
outermarker
62
252
10
-3.54000980149772E7
20
1.192387852057785E7
30
0.0
11
-3.540038181725346E7
21
1.1923878566193387E7
31
0.0
12
-3.540038184084771E7
22
1.1923773106456088E7
32
0.0
13
-3.540009803949466E7
23
1.192377306084106E7
33
0.0
0
3DFACE
8
outermarker
62
252
10
-3.540009660531431E7
20
1.1929940915134206E7
30
0.0
11
-3.540038046067231E7
21
1.1929940960778939E7
31
0.0
12
-3.540038048429772E7
22
1.1929835401060747E7
32
0.0
13
-3.540009662986415E7
23
1.192983535541652E7
33
0.0
0
3DFACE
8
outermarker
62
252
10
-3.5406215524130344E7
20
1.1973677194709733E7
30
0.0
11
-3.54059312852061E7
21
1.1973677185042456E7
31
0.0
12
-3.5405931279655956E7
22
1.1973782645970196E7
32
0.0
13
-3.540621551950626E7
23
1.1973782655637585E7
33
0.0
0
3DFACE
8
outermarker
62
252
10
-3.540621525826882E7
20
1.1979739553629955E7
30
0.0
11
-3.540593096610022E7
21
1.1979739543956513E7
31
0.0
12
-3.540593096054799E7
22
1.1979845004946286E7
32
0.0
13
-3.5406215253643E7
23
1.1979845014619835E7
33
0.0
0
3DFACE
8
outermarker
62
252
10
-3.540621499230766E7
20
1.1985801915615356E7
30
0.0
11
-3.540593064687476E7
21
1.1985801905935755E7
31
0.0
12
-3.540593064132045E7
22
1.1985907366969833E7
32
0.0
13
-3.540621498768012E7
23
1.1985907376649542E7
33
0.0
0
3DFACE
8
outermarker
62
252
10
-3.5406214726245955E7
20
1.1991864299601372E7
30
0.0
11
-3.540593032752861E7
21
1.1991864289915608E7
31
0.0
12
-3.540593032197116E7
22
1.1991969770931046E7
32
0.0
13
-3.54062147216158E7
23
1.1991969780616919E7
33
0.0
0
3DFACE
8
outermarker
62
252
10
-3.54062652299827E7
20
1.1961613453336323E7
30
0.0
11
-3.540598109695235E7
21
1.1961613443985509E7
31
0.0
12
-3.5405981091566496E7
22
1.1961718904737066E7
32
0.0
13
-3.540626522552223E7
23
1.1961718914087987E7
33
0.0
0
3DFACE
8
outermarker
62
252
10
-3.5406265486341596E7
20
1.1955551109660199E7
30
0.0
11
-3.540598140649602E7
21
1.1955551100315347E7
31
0.0
12
-3.540598140111218E7
22
1.195565656095186E7
32
0.0
13
-3.5406265481882796E7
23
1.1955656570296813E7
33
0.0
0
3DFACE
8
outermarker
62
252
10
-3.5406265742604546E7
20
1.1949488773116421E7
30
0.0
11
-3.540598171592382E7
21
1.194948876377754E7
31
0.0
12
-3.5405981710542E7
22
1.1949594224281263E7
32
0.0
13
-3.54062657381474E7
23
1.1949594233620252E7
33
0.0
0
3DFACE
8
outermarker
62
252
10
-3.540626599877158E7
20
1.1943426444724327E7
30
0.0
11
-3.540598202523584E7
21
1.194342643539141E7
31
0.0
12
-3.540598201985602E7
22
1.1943531895744616E7
32
0.0
13
-3.5406265994316116E7
23
1.194353190507764E7
33
0.0
0
3DFACE
8
outermarker
62
252
10
-3.540626625484278E7
20
1.1937364125503248E7
30
0.0
11
-3.540598233443211E7
21
1.1937364116176287E7
31
0.0
12
-3.540598232905432E7
22
1.193746957636124E7
32
0.0
13
-3.540626625038898E7
23
1.1937469585688304E7
33
0.0
0
3DFACE
8
outermarker
62
252
10
-3.54062665108224E7
20
1.1931301716699548E7
30
0.0
11
-3.5405982643517815E7
21
1.193130170737855E7
31
0.0
12
-3.5405982638136946E7
22
1.1931407267150465E7
32
0.0
13
-3.540626650636605E7
23
1.193140727647156E7
33
0.0
0
3DFACE
8
outermarker
62
252
10
-3.540626676670207E7
20
1.1925239418878622E7
30
0.0
11
-3.5405982952482834E7
21
1.1925239409563592E7
31
0.0
12
-3.540598294710905E7
22
1.192534486935884E7
32
0.0
13
-3.540626676225159E7
23
1.1925344878673978E7
33
0.0
0
3DFACE
8
outermarker
62
252
10
-3.5406267022486046E7
20
1.191917713328665E7
30
0.0
11
-3.54059832613323E7
21
1.1919177123977575E7
31
0.0
12
-3.540598325596054E7
22
1.1919282583551379E7
32
0.0
13
-3.5406267018037245E7
23
1.1919282592860553E7
33
0.0
0
3DFACE
8
outermarker
62
252
10
-3.540626727817439E7
20
1.1913114860942908E7
30
0.0
11
-3.540598357006631E7
21
1.1913114851639794E7
31
0.0
12
-3.540598356469655E7
22
1.1913220310974421E7
32
0.0
13
-3.5406267273727246E7
23
1.1913220320277639E7
33
0.0
0
3DFACE
8
outermarker
62
252
10
-3.5406267533767164E7
20
1.1907052602866678E7
30
0.0
11
-3.54059838786849E7
21
1.1907052593569526E7
31
0.0
12
-3.540598387331715E7
22
1.1907158052647246E7
32
0.0
13
-3.5406267529321685E7
23
1.19071580619445E7
33
0.0
0
3DFACE
8
outermarker
62
252
10
-3.5406205000542454E7
20
1.196815671076355E7
30
0.0
11
-3.5406218548649415E7
21
1.1968041173180094E7
31
0.0
12
-3.54060208878164E7
22
1.1968029892224701E7
32
0.0
13
-3.54060208878164E7
23
1.1968029892224701E7
33
0.0
0
3DFACE
8
outermarker
62
252
10
-3.5406205000542454E7
20
1.196815671076355E7
30
0.0
11
-3.5406421693483435E7
21
1.1968047364968624E7
31
0.0
12
-3.5406218548649415E7
22
1.1968041173180094E7
32
0.0
13
-3.5406218548649415E7
23
1.1968041173180094E7
33
0.0
0
3DFACE
8
outermarker
62
252
10
-3.5406205000542454E7
20
1.196815671076355E7
30
0.0
11
-3.540643078107614E7
21
1.1968165198007522E7
31
0.0
12
-3.5406421693483435E7
22
1.1968047364968624E7
32
0.0
13
-3.5406421693483435E7
23
1.1968047364968624E7
33
0.0
0
3DFACE
8
outermarker
62
252
10
-3.540643078107614E7
20
1.1968165198007522E7
30
0.0
11
-3.540662712104648E7
21
1.1968048367673611E7
31
0.0
12
-3.5406421693483435E7
22
1.1968047364968624E7
32
0.0
13
-3.5406421693483435E7
23
1.1968047364968624E7
33
0.0
0
3DFACE
8
outermarker
62
252
10
-3.540752631032385E7
20
1.1968103553485872E7
30
0.0
11
-3.540740736595931E7
21
1.1968001983373154E7
31
0.0
12
-3.5407323408891454E7
22
1.1968129294186005E7
32
0.0
13
-3.5407323408891454E7
23
1.1968129294186005E7
33
0.0
0
3DFACE
8
outermarker
62
252
10
-3.5407714468399726E7
20
1.1968071825492201E7
30
0.0
11
-3.540757665703139E7
21
1.1967978537068466E7
31
0.0
12
-3.540752631032385E7
22
1.1968103553485872E7
32
0.0
13
-3.540752631032385E7
23
1.1968103553485872E7
33
0.0
0
3DFACE
8
outermarker
62
252
10
-3.5407323408891454E7
20
1.1968129294186005E7
30
0.0
11
-3.5407224810752176E7
21
1.1968020839344792E7
31
0.0
12
-3.540710896561782E7
22
1.1968148548565106E7
32
0.0
13
-3.540710896561782E7
23
1.1968148548565106E7
33
0.0
0
3DFACE
8
outermarker
62
252
10
-3.540710896561782E7
20
1.1968148548565106E7
30
0.0
11
-3.540703187086574E7
21
1.1968035104863048E7
31
0.0
12
-3.540688636080321E7
22
1.1968161017195396E7
32
0.0
13
-3.540688636080321E7
23
1.1968161017195396E7
33
0.0
0
3DFACE
8
outermarker
62
252
10
-3.540688636080321E7
20
1.1968161017195396E7
30
0.0
11
-3.540683158732565E7
21
1.196804428098153E7
31
0.0
12
-3.54066591055683E7
22
1.1968166600259125E7
32
0.0
13
-3.54066591055683E7
23
1.1968166600259125E7
33
0.0
0
3DFACE
8
outermarker
62
252
10
-3.540643078107614E7
20
1.1968165198007522E7
30
0.0
11
-3.54066591055683E7
21
1.1968166600259125E7
31
0.0
12
-3.540662712104648E7
22
1.1968048367673611E7
32
0.0
13
-3.540662712104648E7
23
1.1968048367673611E7
33
0.0
0
3DFACE
8
outermarker
62
252
10
-3.540703187086574E7
20
1.1968035104863048E7
30
0.0
11
-3.540683158732565E7
21
1.196804428098153E7
31
0.0
12
-3.540688636080321E7
22
1.1968161017195396E7
32
0.0
13
-3.540688636080321E7
23
1.1968161017195396E7
33
0.0
0
3DFACE
8
outermarker
62
252
10
-3.540598530950391E7
20
1.1968141438013505E7
30
0.0
11
-3.5406205000542454E7
21
1.196815671076355E7
31
0.0
12
-3.54060208878164E7
22
1.1968029892224701E7
32
0.0
13
-3.54060208878164E7
23
1.1968029892224701E7
33
0.0
0
3DFACE
8
outermarker
62
252
10
-3.540683158732565E7
20
1.196804428098153E7
30
0.0
11
-3.540662712104648E7
21
1.1968048367673611E7
31
0.0
12
-3.54066591055683E7
22
1.1968166600259125E7
32
0.0
13
-3.54066591055683E7
23
1.1968166600259125E7
33
0.0
0
3DFACE
8
outermarker
62
252
10
-3.540788491618237E7
20
1.1968034509497564E7
30
0.0
11
-3.540773001367179E7
21
1.1967951099225584E7
31
0.0
12
-3.5407714468399726E7
22
1.1968071825492201E7
32
0.0
13
-3.5407714468399726E7
23
1.1968071825492201E7
33
0.0
0
3DFACE
8
outermarker
62
252
10
-3.540740736595931E7
20
1.1968001983373154E7
30
0.0
11
-3.5407224810752176E7
21
1.1968020839344792E7
31
0.0
12
-3.5407323408891454E7
22
1.1968129294186005E7
32
0.0
13
-3.5407323408891454E7
23
1.1968129294186005E7
33
0.0
0
3DFACE
8
outermarker
62
252
10
-3.540803496642157E7
20
1.1967992304139001E7
30
0.0
11
-3.540786501748254E7
21
1.196792006911139E7
31
0.0
12
-3.540788491618237E7
22
1.1968034509497564E7
32
0.0
13
-3.540788491618237E7
23
1.1968034509497564E7
33
0.0
0
3DFACE
8
outermarker
62
252
10
-3.540773001367179E7
20
1.1967951099225584E7
30
0.0
11
-3.540757665703139E7
21
1.1967978537068466E7
31
0.0
12
-3.5407714468399726E7
22
1.1968071825492201E7
32
0.0
13
-3.5407714468399726E7
23
1.1968071825492201E7
33
0.0
0
3DFACE
8
outermarker
62
252
10
-3.5408162250722475E7
20
1.1967945808286324E7
30
0.0
11
-3.5408071772678874E7
21
1.1967848928927127E7
31
0.0
12
-3.540803496642157E7
22
1.1967992304139001E7
32
0.0
13
-3.540803496642157E7
23
1.1967992304139001E7
33
0.0
0
3DFACE
8
outermarker
62
252
10
-3.540826476322575E7
20
1.1967895820346473E7
30
0.0
11
-3.5408140265322044E7
21
1.1967810116236648E7
31
0.0
12
-3.5408162250722475E7
22
1.1967945808286324E7
32
0.0
13
-3.5408162250722475E7
23
1.1967945808286324E7
33
0.0
0
3DFACE
8
outermarker
62
252
10
-3.5408071772678874E7
20
1.1967848928927127E7
30
0.0
11
-3.540797953875656E7
21
1.1967885845998822E7
31
0.0
12
-3.540803496642157E7
22
1.1967992304139001E7
32
0.0
13
-3.540803496642157E7
23
1.1967992304139001E7
33
0.0
0
3DFACE
8
outermarker
62
252
10
-3.5408340887421414E7
20
1.19678429391528E7
30
0.0
11
-3.54081839342845E7
21
1.1967769807141587E7
31
0.0
12
-3.540826476322575E7
22
1.1967895820346473E7
32
0.0
13
-3.540826476322575E7
23
1.1967895820346473E7
33
0.0
0
3DFACE
8
outermarker
62
252
10
-3.540838942345536E7
20
1.1967788262367534E7
30
0.0
11
-3.540820209124563E7
21
1.196772870013752E7
31
0.0
12
-3.5408340887421414E7
22
1.19678429391528E7
32
0.0
13
-3.5408340887421414E7
23
1.19678429391528E7
33
0.0
0
3DFACE
8
outermarker
62
252
10
-3.5408409604719006E7
20
1.1967732488507366E7
30
0.0
11
-3.540820209124563E7
21
1.196772870013752E7
31
0.0
12
-3.540838942345536E7
22
1.1967788262367534E7
32
0.0
13
-3.540838942345536E7
23
1.1967788262367534E7
33
0.0
0
3DFACE
8
outermarker
62
252
10
-3.540840111328133E7
20
1.1967676515578717E7
30
0.0
11
-3.54081944526374E7
21
1.1967687493674396E7
31
0.0
12
-3.540820209124563E7
22
1.196772870013752E7
32
0.0
13
-3.540820209124563E7
23
1.196772870013752E7
33
0.0
0
3DFACE
8
outermarker
62
252
10
-3.540840111328133E7
20
1.1967676515578717E7
30
0.0
11
-3.540820209124563E7
21
1.196772870013752E7
31
0.0
12
-3.5408409604719006E7
22
1.1967732488507366E7
32
0.0
13
-3.5408409604719006E7
23
1.1967732488507366E7
33
0.0
0
3DFACE
8
outermarker
62
252
10
-3.540836408343411E7
20
1.1967621241527239E7
30
0.0
11
-3.540829909930626E7
21
1.1967567564239128E7
31
0.0
12
-3.54081944526374E7
22
1.1967687493674396E7
32
0.0
13
-3.54081944526374E7
23
1.1967687493674396E7
33
0.0
0
3DFACE
8
outermarker
62
252
10
-3.5408207185357116E7
20
1.1967516381546587E7
30
0.0
11
-3.5408102668655545E7
21
1.1967607276610658E7
31
0.0
12
-3.5408161136073895E7
22
1.1967646786380464E7
32
0.0
13
-3.5408161136073895E7
23
1.1967646786380464E7
33
0.0
0
3DFACE
8
outermarker
62
252
10
-3.540829909930626E7
20
1.1967567564239128E7
30
0.0
11
-3.5408207185357116E7
21
1.1967516381546587E7
31
0.0
12
-3.5408161136073895E7
22
1.1967646786380464E7
32
0.0
13
-3.5408161136073895E7
23
1.1967646786380464E7
33
0.0
0
3DFACE
8
outermarker
62
252
10
-3.540808979330549E7
20
1.1967468291915955E7
30
0.0
11
-3.5408019971528366E7
21
1.1967569562903635E7
31
0.0
12
-3.5408102668655545E7
22
1.1967607276610658E7
32
0.0
13
-3.5408102668655545E7
23
1.1967607276610658E7
33
0.0
0
3DFACE
8
outermarker
62
252
10
-3.5407948772460744E7
20
1.1967424292876573E7
30
0.0
11
-3.540778746933978E7
21
1.1967501718119975E7
31
0.0
12
-3.540791435038294E7
22
1.1967534143989248E7
32
0.0
13
-3.540791435038294E7
23
1.1967534143989248E7
33
0.0
0
3DFACE
8
outermarker
62
252
10
-3.5407948772460744E7
20
1.1967424292876573E7
30
0.0
11
-3.540791435038294E7
21
1.1967534143989248E7
31
0.0
12
-3.5408019971528366E7
22
1.1967569562903635E7
32
0.0
13
-3.5408019971528366E7
23
1.1967569562903635E7
33
0.0
0
3DFACE
8
outermarker
62
252
10
-3.5407786347151674E7
20
1.1967384883072097E7
30
0.0
11
-3.5407605078633405E7
21
1.1967350860466987E7
31
0.0
12
-3.5407641330525704E7
22
1.1967472783988023E7
32
0.0
13
-3.5407641330525704E7
23
1.1967472783988023E7
33
0.0
0
3DFACE
8
outermarker
62
252
10
-3.5407786347151674E7
20
1.1967384883072097E7
30
0.0
11
-3.5407641330525704E7
21
1.1967472783988023E7
31
0.0
12
-3.540778746933978E7
22
1.1967501718119975E7
32
0.0
13
-3.540778746933978E7
23
1.1967501718119975E7
33
0.0
0
3DFACE
8
outermarker
62
252
10
-3.540719770124898E7
20
1.1967300672205104E7
30
0.0
11
-3.5407111708700895E7
21
1.1967410721741868E7
31
0.0
12
-3.540730076448219E7
22
1.1967426886852356E7
32
0.0
13
-3.540730076448219E7
23
1.1967426886852356E7
33
0.0
0
3DFACE
8
outermarker
62
252
10
-3.5407605078633405E7
20
1.1967350860466987E7
30
0.0
11
-3.5407407826507114E7
21
1.1967322623947198E7
31
0.0
12
-3.54074782384673E7
22
1.196744764073863E7
32
0.0
13
-3.54074782384673E7
23
1.196744764073863E7
33
0.0
0
3DFACE
8
outermarker
62
252
10
-3.5407407826507114E7
20
1.1967322623947198E7
30
0.0
11
-3.540719770124898E7
21
1.1967300672205104E7
31
0.0
12
-3.540730076448219E7
22
1.1967426886852356E7
32
0.0
13
-3.540730076448219E7
23
1.1967426886852356E7
33
0.0
0
3DFACE
8
outermarker
62
252
10
-3.5407407826507114E7
20
1.1967322623947198E7
30
0.0
11
-3.540730076448219E7
21
1.1967426886852356E7
31
0.0
12
-3.54074782384673E7
22
1.196744764073863E7
32
0.0
13
-3.54074782384673E7
23
1.196744764073863E7
33
0.0
0
3DFACE
8
outermarker
62
252
10
-3.540697801673923E7
20
1.1967285304432673E7
30
0.0
11
-3.5406914051405154E7
21
1.1967399444632193E7
31
0.0
12
-3.5407111708700895E7
22
1.1967410721741868E7
32
0.0
13
-3.5407111708700895E7
23
1.1967410721741868E7
33
0.0
0
3DFACE
8
outermarker
62
252
10
-3.540697801673923E7
20
1.1967285304432673E7
30
0.0
11
-3.540675223626057E7
21
1.1967276919654319E7
31
0.0
12
-3.5406914051405154E7
22
1.1967399444632193E7
32
0.0
13
-3.5406914051405154E7
23
1.1967399444632193E7
33
0.0
0
3DFACE
8
outermarker
62
252
10
-3.540675223626057E7
20
1.1967276919654319E7
30
0.0
11
-3.540671090935519E7
21
1.196739325502253E7
31
0.0
12
-3.5406914051405154E7
22
1.1967399444632193E7
32
0.0
13
-3.5406914051405154E7
23
1.1967399444632193E7
33
0.0
0
3DFACE
8
outermarker
62
252
10
-3.540675223626057E7
20
1.1967276919654319E7
30
0.0
11
-3.540652392160282E7
21
1.196727541809265E7
31
0.0
12
-3.540671090935519E7
22
1.196739325502253E7
32
0.0
13
-3.540671090935519E7
23
1.196739325502253E7
33
0.0
0
3DFACE
8
outermarker
62
252
10
-3.540652392160282E7
20
1.196727541809265E7
30
0.0
11
-3.540650548713668E7
21
1.1967392152918994E7
31
0.0
12
-3.540671090935519E7
22
1.196739325502253E7
32
0.0
13
-3.540671090935519E7
23
1.196739325502253E7
33
0.0
0
3DFACE
8
outermarker
62
252
10
-3.540652392160282E7
20
1.196727541809265E7
30
0.0
11
-3.5406296668961264E7
21
1.196728099936228E7
31
0.0
12
-3.540650548713668E7
22
1.1967392152918994E7
32
0.0
13
-3.540650548713668E7
23
1.1967392152918994E7
33
0.0
0
3DFACE
8
outermarker
62
252
10
-3.540607407454235E7
20
1.1967293563827613E7
30
0.0
11
-3.540610075107046E7
21
1.1967405510863177E7
31
0.0
12
-3.5406296668961264E7
22
1.196728099936228E7
32
0.0
13
-3.5406296668961264E7
23
1.196728099936228E7
33
0.0
0
3DFACE
8
outermarker
62
252
10
-3.540585963368846E7
20
1.1967312812370446E7
30
0.0
11
-3.540590780486657E7
21
1.1967419671883445E7
31
0.0
12
-3.540607407454235E7
22
1.1967293563827613E7
32
0.0
13
-3.540607407454235E7
23
1.1967293563827613E7
33
0.0
0
3DFACE
8
outermarker
62
252
10
-3.540565674087301E7
20
1.1967338545703916E7
30
0.0
11
-3.540572525562551E7
21
1.1967438621666139E7
31
0.0
12
-3.540585963368846E7
22
1.1967312812370446E7
32
0.0
13
-3.540585963368846E7
23
1.1967312812370446E7
33
0.0
0
3DFACE
8
outermarker
62
252
10
-3.540546857697275E7
20
1.1967370265262613E7
30
0.0
11
-3.540555596378841E7
21
1.1967461961369889E7
31
0.0
12
-3.540565674087301E7
22
1.1967338545703916E7
32
0.0
13
-3.540565674087301E7
23
1.1967338545703916E7
33
0.0
0
3DFACE
8
outermarker
62
252
10
-3.540610075107046E7
20
1.1967405510863177E7
30
0.0
11
-3.5406301020187415E7
21
1.196739623815881E7
31
0.0
12
-3.5406296668961264E7
22
1.196728099936228E7
32
0.0
13
-3.5406296668961264E7
23
1.196728099936228E7
33
0.0
0
3DFACE
8
outermarker
62
252
10
-3.540719770124898E7
20
1.1967300672205104E7
30
0.0
11
-3.540697801673923E7
21
1.1967285304432673E7
31
0.0
12
-3.5407111708700895E7
22
1.1967410721741868E7
32
0.0
13
-3.5407111708700895E7
23
1.1967410721741868E7
33
0.0
0
3DFACE
8
outermarker
62
252
10
-3.5406301020187415E7
20
1.196739623815881E7
30
0.0
11
-3.540650548713668E7
21
1.1967392152918994E7
31
0.0
12
-3.5406296668961264E7
22
1.196728099936228E7
32
0.0
13
-3.5406296668961264E7
23
1.196728099936228E7
33
0.0
0
3DFACE
8
outermarker
62
252
10
-3.5405298132989824E7
20
1.196740757228499E7
30
0.0
11
-3.5405402611778125E7
21
1.1967489391950615E7
31
0.0
12
-3.540546857697275E7
22
1.1967370265262613E7
32
0.0
13
-3.540546857697275E7
23
1.1967370265262613E7
33
0.0
0
3DFACE
8
outermarker
62
252
10
-3.540572525562551E7
20
1.1967438621666139E7
30
0.0
11
-3.540590780486657E7
21
1.1967419671883445E7
31
0.0
12
-3.540585963368846E7
22
1.1967312812370446E7
32
0.0
13
-3.540585963368846E7
23
1.1967312812370446E7
33
0.0
0
3DFACE
8
outermarker
62
252
10
-3.540514807952083E7
20
1.1967449768696962E7
30
0.0
11
-3.540526760905901E7
21
1.1967520514597345E7
31
0.0
12
-3.5405298132989824E7
22
1.196740757228499E7
32
0.0
13
-3.5405298132989824E7
23
1.196740757228499E7
33
0.0
0
3DFACE
8
outermarker
62
252
10
-3.5405402611778125E7
20
1.1967489391950615E7
30
0.0
11
-3.540555596378841E7
21
1.1967461961369889E7
31
0.0
12
-3.540546857697275E7
22
1.1967370265262613E7
32
0.0
13
-3.540546857697275E7
23
1.1967370265262613E7
33
0.0
0
3DFACE
8
outermarker
62
252
10
-3.5405020802338384E7
20
1.196749625619191E7
30
0.0
11
-3.540515308027733E7
21
1.1967554730944376E7
31
0.0
12
-3.540514807952083E7
22
1.1967449768696962E7
32
0.0
13
-3.540514807952083E7
23
1.1967449768696962E7
33
0.0
0
3DFACE
8
outermarker
62
252
10
-3.540491828371922E7
20
1.1967546236886665E7
30
0.0
11
-3.54050608415003E7
21
1.1967591542378062E7
31
0.0
12
-3.5405020802338384E7
22
1.196749625619191E7
32
0.0
13
-3.5405020802338384E7
23
1.196749625619191E7
33
0.0
0
3DFACE
8
outermarker
62
252
10
-3.54050608415003E7
20
1.1967591542378062E7
30
0.0
11
-3.540515308027733E7
21
1.1967554730944376E7
31
0.0
12
-3.5405020802338384E7
22
1.196749625619191E7
32
0.0
13
-3.5405020802338384E7
23
1.196749625619191E7
33
0.0
0
3DFACE
8
outermarker
62
252
10
-3.540484214989286E7
20
1.1967599012629857E7
30
0.0
11
-3.540494868236848E7
21
1.1967670756307045E7
31
0.0
12
-3.540491828371922E7
22
1.1967546236886665E7
32
0.0
13
-3.540491828371922E7
23
1.1967546236886665E7
33
0.0
0
3DFACE
8
outermarker
62
252
10
-3.540479361170466E7
20
1.1967653785437768E7
30
0.0
11
-3.540494868236848E7
21
1.1967670756307045E7
31
0.0
12
-3.540484214989286E7
22
1.1967599012629857E7
32
0.0
13
-3.540484214989286E7
23
1.1967599012629857E7
33
0.0
0
3DFACE
8
outermarker
62
252
10
-3.540477342900874E7
20
1.1967709557707863E7
30
0.0
11
-3.540493051894372E7
21
1.1967711762250114E7
31
0.0
12
-3.540479361170466E7
22
1.1967653785437768E7
32
0.0
13
-3.540479361170466E7
23
1.1967653785437768E7
33
0.0
0
3DFACE
8
outermarker
62
252
10
-3.5404781910622284E7
20
1.1967765531306785E7
30
0.0
11
-3.5404938147468634E7
21
1.1967752969255589E7
31
0.0
12
-3.540493051894372E7
22
1.1967711762250114E7
32
0.0
13
-3.540493051894372E7
23
1.1967711762250114E7
33
0.0
0
3DFACE
8
outermarker
62
252
10
-3.5404781910622284E7
20
1.1967765531306785E7
30
0.0
11
-3.540493051894372E7
21
1.1967711762250114E7
31
0.0
12
-3.540477342900874E7
22
1.1967709557707863E7
32
0.0
13
-3.540477342900874E7
23
1.1967709557707863E7
33
0.0
0
3DFACE
8
outermarker
62
252
10
-3.5404818926218234E7
20
1.196782070847321E7
30
0.0
11
-3.540497146127539E7
21
1.1967793678888218E7
31
0.0
12
-3.5404938147468634E7
22
1.1967752969255589E7
32
0.0
13
-3.5404938147468634E7
23
1.1967752969255589E7
33
0.0
0
3DFACE
8
outermarker
62
252
10
-3.5404883906270035E7
20
1.1967874390687775E7
30
0.0
11
-3.540497581834603E7
21
1.1967925679808242E7
31
0.0
12
-3.540502992639523E7
22
1.1967833192645585E7
32
0.0
13
-3.540502992639523E7
23
1.1967833192645585E7
33
0.0
0
3DFACE
8
outermarker
62
252
10
-3.5404883906270035E7
20
1.1967874390687775E7
30
0.0
11
-3.540502992639523E7
21
1.1967833192645585E7
31
0.0
12
-3.540497146127539E7
22
1.1967793678888218E7
32
0.0
13
-3.540497146127539E7
23
1.1967793678888218E7
33
0.0
0
3DFACE
8
outermarker
62
252
10
-3.540497581834603E7
20
1.1967925679808242E7
30
0.0
11
-3.5405093214550704E7
21
1.196797377740275E7
31
0.0
12
-3.540511261714303E7
22
1.1967871011512036E7
32
0.0
13
-3.540511261714303E7
23
1.1967871011512036E7
33
0.0
0
3DFACE
8
outermarker
62
252
10
-3.540523423153248E7
20
1.1968017785214655E7
30
0.0
11
-3.540534512113046E7
21
1.1967938770068679E7
31
0.0
12
-3.540521823988928E7
22
1.1967906337098623E7
32
0.0
13
-3.540521823988928E7
23
1.1967906337098623E7
33
0.0
0
3DFACE
8
outermarker
62
252
10
-3.5405093214550704E7
20
1.196797377740275E7
30
0.0
11
-3.540523423153248E7
21
1.1968017785214655E7
31
0.0
12
-3.540521823988928E7
22
1.1967906337098623E7
32
0.0
13
-3.540521823988928E7
23
1.1967906337098623E7
33
0.0
0
3DFACE
8
outermarker
62
252
10
-3.540539664978676E7
20
1.1968057204049395E7
30
0.0
11
-3.54055779293143E7
21
1.1968091235376094E7
31
0.0
12
-3.5405491255002655E7
22
1.1967967811283603E7
32
0.0
13
-3.5405491255002655E7
23
1.1967967811283603E7
33
0.0
0
3DFACE
8
outermarker
62
252
10
-3.540539664978676E7
20
1.1968057204049395E7
30
0.0
11
-3.5405491255002655E7
21
1.1967967811283603E7
31
0.0
12
-3.540534512113046E7
22
1.1967938770068679E7
32
0.0
13
-3.540534512113046E7
23
1.1967938770068679E7
33
0.0
0
3DFACE
8
outermarker
62
252
10
-3.540598530950391E7
20
1.1968141438013505E7
30
0.0
11
-3.54060208878164E7
21
1.1968029892224701E7
31
0.0
12
-3.540583183271465E7
22
1.1968013721843472E7
32
0.0
13
-3.540583183271465E7
23
1.1968013721843472E7
33
0.0
0
3DFACE
8
outermarker
62
252
10
-3.54055779293143E7
20
1.1968091235376094E7
30
0.0
11
-3.540577517396235E7
21
1.1968119479759095E7
31
0.0
12
-3.540565435075439E7
22
1.196799286181831E7
32
0.0
13
-3.540565435075439E7
23
1.196799286181831E7
33
0.0
0
3DFACE
8
outermarker
62
252
10
-3.540577517396235E7
20
1.1968119479759095E7
30
0.0
11
-3.540598530950391E7
21
1.1968141438013505E7
31
0.0
12
-3.540583183271465E7
22
1.1968013721843472E7
32
0.0
13
-3.540583183271465E7
23
1.1968013721843472E7
33
0.0
0
3DFACE
8
outermarker
62
252
10
-3.540577517396235E7
20
1.1968119479759095E7
30
0.0
11
-3.540583183271465E7
21
1.1968013721843472E7
31
0.0
12
-3.540565435075439E7
22
1.196799286181831E7
32
0.0
13
-3.540565435075439E7
23
1.196799286181831E7
33
0.0
0
3DFACE
8
outermarker
62
252
10
-3.540523423153248E7
20
1.1968017785214655E7
30
0.0
11
-3.540539664978676E7
21
1.1968057204049395E7
31
0.0
12
-3.540534512113046E7
22
1.1967938770068679E7
32
0.0
13
-3.540534512113046E7
23
1.1967938770068679E7
33
0.0
0
3DFACE
8
outermarker
62
252
10
-3.54055779293143E7
20
1.1968091235376094E7
30
0.0
11
-3.540565435075439E7
21
1.196799286181831E7
31
0.0
12
-3.5405491255002655E7
22
1.1967967811283603E7
32
0.0
13
-3.5405491255002655E7
23
1.1967967811283603E7
33
0.0
0
3DFACE
8
outermarker
62
252
10
-3.5407224810752176E7
20
1.1968020839344792E7
30
0.0
11
-3.540703187086574E7
21
1.1968035104863048E7
31
0.0
12
-3.540710896561782E7
22
1.1968148548565106E7
32
0.0
13
-3.540710896561782E7
23
1.1968148548565106E7
33
0.0
0
3DFACE
8
outermarker
62
252
10
-3.540757665703139E7
20
1.1967978537068466E7
30
0.0
11
-3.540740736595931E7
21
1.1968001983373154E7
31
0.0
12
-3.540752631032385E7
22
1.1968103553485872E7
32
0.0
13
-3.540752631032385E7
23
1.1968103553485872E7
33
0.0
0
3DFACE
8
outermarker
62
252
10
-3.540786501748254E7
20
1.196792006911139E7
30
0.0
11
-3.540773001367179E7
21
1.1967951099225584E7
31
0.0
12
-3.540788491618237E7
22
1.1968034509497564E7
32
0.0
13
-3.540788491618237E7
23
1.1968034509497564E7
33
0.0
0
3DFACE
8
outermarker
62
252
10
-3.540797953875656E7
20
1.1967885845998822E7
30
0.0
11
-3.540786501748254E7
21
1.196792006911139E7
31
0.0
12
-3.540803496642157E7
22
1.1967992304139001E7
32
0.0
13
-3.540803496642157E7
23
1.1967992304139001E7
33
0.0
0
3DFACE
8
outermarker
62
252
10
-3.5408140265322044E7
20
1.1967810116236648E7
30
0.0
11
-3.5408071772678874E7
21
1.1967848928927127E7
31
0.0
12
-3.5408162250722475E7
22
1.1967945808286324E7
32
0.0
13
-3.5408162250722475E7
23
1.1967945808286324E7
33
0.0
0
3DFACE
8
outermarker
62
252
10
-3.54081839342845E7
20
1.1967769807141587E7
30
0.0
11
-3.5408140265322044E7
21
1.1967810116236648E7
31
0.0
12
-3.540826476322575E7
22
1.1967895820346473E7
32
0.0
13
-3.540826476322575E7
23
1.1967895820346473E7
33
0.0
0
3DFACE
8
outermarker
62
252
10
-3.540820209124563E7
20
1.196772870013752E7
30
0.0
11
-3.54081839342845E7
21
1.1967769807141587E7
31
0.0
12
-3.5408340887421414E7
22
1.19678429391528E7
32
0.0
13
-3.5408340887421414E7
23
1.19678429391528E7
33
0.0
0
3DFACE
8
outermarker
62
252
10
-3.540840111328133E7
20
1.1967676515578717E7
30
0.0
11
-3.540836408343411E7
21
1.1967621241527239E7
31
0.0
12
-3.54081944526374E7
22
1.1967687493674396E7
32
0.0
13
-3.54081944526374E7
23
1.1967687493674396E7
33
0.0
0
3DFACE
8
outermarker
62
252
10
-3.540829909930626E7
20
1.1967567564239128E7
30
0.0
11
-3.5408161136073895E7
21
1.1967646786380464E7
31
0.0
12
-3.54081944526374E7
22
1.1967687493674396E7
32
0.0
13
-3.54081944526374E7
23
1.1967687493674396E7
33
0.0
0
3DFACE
8
outermarker
62
252
10
-3.5408207185357116E7
20
1.1967516381546587E7
30
0.0
11
-3.540808979330549E7
21
1.1967468291915955E7
31
0.0
12
-3.5408102668655545E7
22
1.1967607276610658E7
32
0.0
13
-3.5408102668655545E7
23
1.1967607276610658E7
33
0.0
0
3DFACE
8
outermarker
62
252
10
-3.540808979330549E7
20
1.1967468291915955E7
30
0.0
11
-3.5407948772460744E7
21
1.1967424292876573E7
31
0.0
12
-3.5408019971528366E7
22
1.1967569562903635E7
32
0.0
13
-3.5408019971528366E7
23
1.1967569562903635E7
33
0.0
0
3DFACE
8
outermarker
62
252
10
-3.5407948772460744E7
20
1.1967424292876573E7
30
0.0
11
-3.5407786347151674E7
21
1.1967384883072097E7
31
0.0
12
-3.540778746933978E7
22
1.1967501718119975E7
32
0.0
13
-3.540778746933978E7
23
1.1967501718119975E7
33
0.0
0
3DFACE
8
outermarker
62
252
10
-3.5407605078633405E7
20
1.1967350860466987E7
30
0.0
11
-3.54074782384673E7
21
1.196744764073863E7
31
0.0
12
-3.5407641330525704E7
22
1.1967472783988023E7
32
0.0
13
-3.5407641330525704E7
23
1.1967472783988023E7
33
0.0
0
3DFACE
8
outermarker
62
252
10
-3.540590780486657E7
20
1.1967419671883445E7
30
0.0
11
-3.540610075107046E7
21
1.1967405510863177E7
31
0.0
12
-3.540607407454235E7
22
1.1967293563827613E7
32
0.0
13
-3.540607407454235E7
23
1.1967293563827613E7
33
0.0
0
3DFACE
8
outermarker
62
252
10
-3.540555596378841E7
20
1.1967461961369889E7
30
0.0
11
-3.540572525562551E7
21
1.1967438621666139E7
31
0.0
12
-3.540565674087301E7
22
1.1967338545703916E7
32
0.0
13
-3.540565674087301E7
23
1.1967338545703916E7
33
0.0
0
3DFACE
8
outermarker
62
252
10
-3.540526760905901E7
20
1.1967520514597345E7
30
0.0
11
-3.5405402611778125E7
21
1.1967489391950615E7
31
0.0
12
-3.5405298132989824E7
22
1.196740757228499E7
32
0.0
13
-3.5405298132989824E7
23
1.196740757228499E7
33
0.0
0
3DFACE
8
outermarker
62
252
10
-3.540515308027733E7
20
1.1967554730944376E7
30
0.0
11
-3.540526760905901E7
21
1.1967520514597345E7
31
0.0
12
-3.540514807952083E7
22
1.1967449768696962E7
32
0.0
13
-3.540514807952083E7
23
1.1967449768696962E7
33
0.0
0
3DFACE
8
outermarker
62
252
10
-3.540499235274218E7
20
1.1967630450248087E7
30
0.0
11
-3.54050608415003E7
21
1.1967591542378062E7
31
0.0
12
-3.540491828371922E7
22
1.1967546236886665E7
32
0.0
13
-3.540491828371922E7
23
1.1967546236886665E7
33
0.0
0
3DFACE
8
outermarker
62
252
10
-3.540494868236848E7
20
1.1967670756307045E7
30
0.0
11
-3.540499235274218E7
21
1.1967630450248087E7
31
0.0
12
-3.540491828371922E7
22
1.1967546236886665E7
32
0.0
13
-3.540491828371922E7
23
1.1967546236886665E7
33
0.0
0
3DFACE
8
outermarker
62
252
10
-3.540493051894372E7
20
1.1967711762250114E7
30
0.0
11
-3.540494868236848E7
21
1.1967670756307045E7
31
0.0
12
-3.540479361170466E7
22
1.1967653785437768E7
32
0.0
13
-3.540479361170466E7
23
1.1967653785437768E7
33
0.0
0
3DFACE
8
outermarker
62
252
10
-3.5404781910622284E7
20
1.1967765531306785E7
30
0.0
11
-3.5404818926218234E7
21
1.196782070847321E7
31
0.0
12
-3.5404938147468634E7
22
1.1967752969255589E7
32
0.0
13
-3.5404938147468634E7
23
1.1967752969255589E7
33
0.0
0
3DFACE
8
outermarker
62
252
10
-3.5404818926218234E7
20
1.196782070847321E7
30
0.0
11
-3.5404883906270035E7
21
1.1967874390687775E7
31
0.0
12
-3.540497146127539E7
22
1.1967793678888218E7
32
0.0
13
-3.540497146127539E7
23
1.1967793678888218E7
33
0.0
0
3DFACE
8
outermarker
62
252
10
-3.540497581834603E7
20
1.1967925679808242E7
30
0.0
11
-3.540511261714303E7
21
1.1967871011512036E7
31
0.0
12
-3.540502992639523E7
22
1.1967833192645585E7
32
0.0
13
-3.540502992639523E7
23
1.1967833192645585E7
33
0.0
0
3DFACE
8
outermarker
62
252
10
-3.5405093214550704E7
20
1.196797377740275E7
30
0.0
11
-3.540521823988928E7
21
1.1967906337098623E7
31
0.0
12
-3.540511261714303E7
22
1.1967871011512036E7
32
0.0
13
-3.540511261714303E7
23
1.1967871011512036E7
33
0.0
0
3DFACE
8
outermarker
62
252
10
-3.540767446132198E7
20
1.1907052623150606E7
30
0.0
11
-3.540739080694907E7
21
1.1907052622521212E7
31
0.0
12
-3.540739080615578E7
22
1.1907158081599254E7
32
0.0
13
-3.540767446145095E7
23
1.1907158082228653E7
33
0.0
0
3DFACE
8
outermarker
62
252
10
-3.5407674468737006E7
20
1.1913114881239839E7
30
0.0
11
-3.54073907613384E7
21
1.1913114880610043E7
31
0.0
12
-3.540739076054481E7
22
1.1913220339944994E7
32
0.0
13
-3.540767446886601E7
23
1.1913220340574797E7
33
0.0
0
3DFACE
8
outermarker
62
252
10
-3.54076744761548E7
20
1.1919177153596584E7
30
0.0
11
-3.540739071571068E7
21
1.1919177152966384E7
31
0.0
12
-3.540739071491678E7
22
1.1919282612540515E7
32
0.0
13
-3.5407674476283856E7
23
1.1919282613170717E7
33
0.0
0
3DFACE
8
outermarker
62
252
10
-3.540767448357537E7
20
1.1925239439201564E7
30
0.0
11
-3.540739067006588E7
21
1.192523943857096E7
31
0.0
12
-3.540739066927169E7
22
1.1925344898366535E7
32
0.0
13
-3.5407674483704485E7
23
1.1925344898997147E7
33
0.0
0
3DFACE
8
outermarker
62
252
10
-3.5407674490998715E7
20
1.19313017370355E7
30
0.0
11
-3.540739062440401E7
21
1.1931301736404493E7
31
0.0
12
-3.5407390623608775E7
22
1.1931407296176726E7
32
0.0
13
-3.5407674491128E7
23
1.193140729680774E7
33
0.0
0
3DFACE
8
outermarker
62
252
10
-3.540767449842496E7
20
1.19373641458522E7
30
0.0
11
-3.540739057872431E7
21
1.1937364145220792E7
31
0.0
12
-3.5407390577929534E7
22
1.1937469605406072E7
32
0.0
13
-3.540767449855417E7
23
1.193746960603749E7
33
0.0
0
3DFACE
8
outermarker
62
252
10
-3.540767450585386E7
20
1.19434264650863E7
30
0.0
11
-3.540739053302826E7
21
1.1943426464454485E7
31
0.0
12
-3.540739053223318E7
22
1.1943531924808014E7
32
0.0
13
-3.540767450598312E7
23
1.1943531925439835E7
33
0.0
0
3DFACE
8
outermarker
62
252
10
-3.540767451328555E7
20
1.1949488793491405E7
30
0.0
11
-3.540739048731511E7
21
1.1949488792859191E7
31
0.0
12
-3.540739048651973E7
22
1.1949594253363235E7
32
0.0
13
-3.540767451341485E7
23
1.194959425399546E7
33
0.0
0
3DFACE
8
outermarker
62
252
10
-3.540767452072001E7
20
1.1955551130048197E7
30
0.0
11
-3.540739044158485E7
21
1.1955551129415575E7
31
0.0
12
-3.540739044078917E7
22
1.195565659005241E7
32
0.0
13
-3.540767452084937E7
23
1.1955656590685038E7
33
0.0
0
3DFACE
8
outermarker
62
252
10
-3.5407674528157264E7
20
1.196161347373733E7
30
0.0
11
-3.540739039583746E7
21
1.1961613473104306E7
31
0.0
12
-3.540739039504148E7
22
1.1961718933856193E7
32
0.0
13
-3.5407674528286666E7
23
1.1961718934489224E7
33
0.0
0
3DFACE
8
outermarker
62
252
10
-3.540762534494687E7
20
1.1991864321581014E7
30
0.0
11
-3.5407340946596175E7
21
1.1991864320640814E7
31
0.0
12
-3.540734094563807E7
22
1.1991969801656593E7
32
0.0
13
-3.540762534491606E7
23
1.1991969802596798E7
33
0.0
0
3DFACE
8
outermarker
62
252
10
-3.540762534671753E7
20
1.198580193758101E7
30
0.0
11
-3.5407341001651205E7
21
1.198580193664141E7
31
0.0
12
-3.540734100069364E7
22
1.1985907397675829E7
32
0.0
13
-3.540762534668673E7
23
1.1985907398615438E7
33
0.0
0
3DFACE
8
outermarker
62
252
10
-3.540762534848751E7
20
1.1979739575581623E7
30
0.0
11
-3.540734105668543E7
21
1.1979739574642617E7
31
0.0
12
-3.540734105572823E7
22
1.1979845035632733E7
32
0.0
13
-3.5407625348456725E7
23
1.1979845036571745E7
33
0.0
0
3DFACE
8
outermarker
62
252
10
-3.540762535025683E7
20
1.1973677216647422E7
30
0.0
11
-3.540734111169904E7
21
1.1973677215709018E7
31
0.0
12
-3.54073411107422E7
22
1.1973782676637098E7
32
0.0
13
-3.540762535022605E7
23
1.1973782677575516E7
33
0.0
0
3DFACE
8
outermarker
62
252
10
-3.541668571773415E7
20
1.197362304522561E7
30
0.0
11
-3.541640147932778E7
21
1.1973623100383827E7
31
0.0
12
-3.541640150789018E7
22
1.1973728561302016E7
32
0.0
13
-3.541668574722262E7
23
1.1973728506143186E7
33
0.0
0
3DFACE
8
outermarker
62
252
10
-3.5416687413172856E7
20
1.1979685403559688E7
30
0.0
11
-3.541640312152234E7
21
1.197968545875306E7
31
0.0
12
-3.541640315009543E7
22
1.1979790919733444E7
32
0.0
13
-3.5416687442672364E7
23
1.1979790864539456E7
33
0.0
0
3DFACE
8
outermarker
62
252
10
-3.5416689109246865E7
20
1.1985747764967855E7
30
0.0
11
-3.541640476433225E7
21
1.1985747820196388E7
31
0.0
12
-3.541640479291606E7
22
1.1985853281221224E7
32
0.0
13
-3.541668913875744E7
23
1.1985853225992078E7
33
0.0
0
3DFACE
8
outermarker
62
252
10
-3.541669080595654E7
20
1.1991810128430739E7
30
0.0
11
-3.5416406407757856E7
21
1.1991810183694435E7
31
0.0
12
-3.541640643636049E7
22
1.1991915674678175E7
32
0.0
13
-3.541669083548656E7
23
1.1991915619413866E7
33
0.0
0
3DFACE
8
outermarker
62
252
10
-3.541673152280321E7
20
1.1961559293839423E7
30
0.0
11
-3.5416447390291E7
21
1.1961559349231897E7
31
0.0
12
-3.541644741899229E7
22
1.1961664809973476E7
32
0.0
13
-3.541673155242987E7
23
1.196166475458039E7
33
0.0
0
3DFACE
8
outermarker
62
252
10
-3.541672982005684E7
20
1.1955496950783195E7
30
0.0
11
-3.541644574072919E7
21
1.1955497006140329E7
31
0.0
12
-3.541644576941974E7
22
1.1955602466766696E7
32
0.0
13
-3.5416729849672414E7
23
1.1955602411408944E7
33
0.0
0
3DFACE
8
outermarker
62
252
10
-3.54167281179478E7
20
1.19494346148682E7
30
0.0
11
-3.5416444091784805E7
21
1.1949434670189999E7
31
0.0
12
-3.5416444120464616E7
22
1.1949540130683428E7
32
0.0
13
-3.541672814755229E7
23
1.1949540075361006E7
33
0.0
0
3DFACE
8
outermarker
62
252
10
-3.541672641647572E7
20
1.1943372287113776E7
30
0.0
11
-3.541644244345751E7
21
1.1943372342400245E7
31
0.0
12
-3.541644247212657E7
22
1.1943477802743003E7
32
0.0
13
-3.5416726446069136E7
23
1.1943477747455921E7
33
0.0
0
3DFACE
8
outermarker
62
252
10
-3.5416724715612285E7
20
1.1937309868766157E7
30
0.0
11
-3.541644079571981E7
21
1.1937309924017303E7
31
0.0
12
-3.541644082440527E7
22
1.1937415483964754E7
32
0.0
13
-3.5416724745222606E7
23
1.1937415428713E7
33
0.0
0
3DFACE
8
outermarker
62
252
10
-3.541672301541309E7
20
1.1931247560391046E7
30
0.0
11
-3.541643914862563E7
21
1.1931247615606867E7
31
0.0
12
-3.5416439177300364E7
22
1.1931353175368007E7
32
0.0
13
-3.541672304501233E7
23
1.193135312015157E7
33
0.0
0
3DFACE
8
outermarker
62
252
10
-3.5416721315849796E7
20
1.192518526323448E7
30
0.0
11
-3.541643750214747E7
21
1.1925185318414984E7
31
0.0
12
-3.54164375307844E7
22
1.192529077819932E7
32
0.0
13
-3.541672134541001E7
23
1.1925290723018205E7
33
0.0
0
3DFACE
8
outermarker
62
252
10
-3.541671961692205E7
20
1.191912297831576E7
30
0.0
11
-3.541643585628502E7
21
1.1919123033460949E7
31
0.0
12
-3.541643588491123E7
22
1.1919228493023682E7
32
0.0
13
-3.541671964647121E7
23
1.1919228437877882E7
33
0.0
0
3DFACE
8
outermarker
62
252
10
-3.541671791862948E7
20
1.191306070665417E7
30
0.0
11
-3.541643421103791E7
21
1.1913060761764048E7
31
0.0
12
-3.5416434239653416E7
22
1.1913166221087446E7
32
0.0
13
-3.54167179481676E7
23
1.1913166165976956E7
33
0.0
0
3DFACE
8
outermarker
62
252
10
-3.541671622097175E7
20
1.190699844926898E7
30
0.0
11
-3.5416432566405796E7
21
1.1906998504343553E7
31
0.0
12
-3.541643259501061E7
22
1.190710396340989E7
32
0.0
13
-3.541671625049883E7
23
1.1907103908334702E7
33
0.0
0
3DFACE
8
outermarker
62
252
10
-3.541415199478987E7
20
1.1967920106077556E7
30
0.0
11
-3.541427700103989E7
21
1.1967852641113611E7
31
0.0
12
-3.5414171368593745E7
22
1.1967817336365817E7
32
0.0
13
-3.5414171368593745E7
23
1.1967817336365817E7
33
0.0
0
3DFACE
8
outermarker
62
252
10
-3.541403458533157E7
20
1.196787203164528E7
30
0.0
11
-3.5414171368593745E7
21
1.1967817336365817E7
31
0.0
12
-3.5414088667408116E7
22
1.1967779533814382E7
32
0.0
13
-3.5414088667408116E7
23
1.1967779533814382E7
33
0.0
0
3DFACE
8
outermarker
62
252
10
-3.541387766410461E7
20
1.1967767091267198E7
30
0.0
11
-3.541394265906426E7
21
1.1967820760659754E7
31
0.0
12
-3.541403019133387E7
22
1.1967740031593015E7
32
0.0
13
-3.541403019133387E7
23
1.1967740031593015E7
33
0.0
0
3DFACE
8
outermarker
62
252
10
-3.541384063311486E7
20
1.1967711821632458E7
30
0.0
11
-3.541387766410461E7
21
1.1967767091267198E7
31
0.0
12
-3.54139968661943E7
22
1.1967699328534765E7
32
0.0
13
-3.54139968661943E7
23
1.1967699328534765E7
33
0.0
0
3DFACE
8
outermarker
62
252
10
-3.541398922615277E7
20
1.1967658123036716E7
30
0.0
11
-3.541400737805274E7
21
1.196761701373935E7
31
0.0
12
-3.541385230292922E7
22
1.1967600173235575E7
32
0.0
13
-3.541385230292922E7
23
1.1967600173235575E7
33
0.0
0
3DFACE
8
outermarker
62
252
10
-3.541400737805274E7
20
1.196761701373935E7
30
0.0
11
-3.5414051037092395E7
21
1.1967576798841817E7
31
0.0
12
-3.5413976944635205E7
22
1.1967492600097109E7
32
0.0
13
-3.5413976944635205E7
23
1.1967492600097109E7
33
0.0
0
3DFACE
8
outermarker
62
252
10
-3.5414051037092395E7
20
1.1967576798841817E7
30
0.0
11
-3.541411951484478E7
21
1.1967537877463553E7
31
0.0
12
-3.5413976944635205E7
22
1.1967492600097109E7
32
0.0
13
-3.5413976944635205E7
23
1.1967492600097109E7
33
0.0
0
3DFACE
8
outermarker
62
252
10
-3.541421174316107E7
20
1.1967501047836453E7
30
0.0
11
-3.5414326262148224E7
21
1.1967466709125103E7
31
0.0
12
-3.541420671304488E7
22
1.1967396086582344E7
32
0.0
13
-3.541420671304488E7
23
1.1967396086582344E7
33
0.0
0
3DFACE
8
outermarker
62
252
10
-3.5414326262148224E7
20
1.1967466709125103E7
30
0.0
11
-3.5414461255943306E7
21
1.1967435659622608E7
31
0.0
12
-3.5414356754424356E7
22
1.1967353760798965E7
32
0.0
13
-3.5414356754424356E7
23
1.1967353760798965E7
33
0.0
0
3DFACE
8
outermarker
62
252
10
-3.541461460000907E7
20
1.1967408198792543E7
30
0.0
11
-3.5414783885017306E7
21
1.1967384825694883E7
31
0.0
12
-3.541471534238469E7
22
1.1967284763255559E7
32
0.0
13
-3.541471534238469E7
23
1.1967284763255559E7
33
0.0
0
3DFACE
8
outermarker
62
252
10
-3.54149664286333E7
20
1.1967365839902842E7
30
0.0
11
-3.541515935866318E7
21
1.1967351640823934E7
31
0.0
12
-3.5415132662729226E7
22
1.1967239699057586E7
32
0.0
13
-3.5415132662729226E7
23
1.1967239699057586E7
33
0.0
0
3DFACE
8
outermarker
62
252
10
-3.541666367664578E7
20
1.196729669367997E7
30
0.0
11
-3.541653686960659E7
21
1.1967393498961966E7
31
0.0
12
-3.541669995911557E7
22
1.1967418510264358E7
32
0.0
13
-3.541669995911557E7
23
1.1967418510264358E7
33
0.0
0
3DFACE
8
outermarker
62
252
10
-3.541700739264262E7
20
1.1967370058282694E7
30
0.0
11
-3.541684495185824E7
21
1.1967330680524196E7
31
0.0
12
-3.5416846112669125E7
22
1.19674475153374E7
32
0.0
13
-3.5416846112669125E7
23
1.19674475153374E7
33
0.0
0
3DFACE
8
outermarker
62
252
10
-3.541714842316392E7
20
1.196741402949924E7
30
0.0
11
-3.541700739264262E7
21
1.1967370058282694E7
31
0.0
12
-3.541707863815991E7
22
1.1967515314247848E7
32
0.0
13
-3.541707863815991E7
23
1.1967515314247848E7
33
0.0
0
3DFACE
8
outermarker
62
252
10
-3.5417265835545495E7
20
1.196746199619188E7
30
0.0
11
-3.541714842316392E7
21
1.196741402949924E7
31
0.0
12
-3.5417161342125796E7
22
1.196755301163804E7
32
0.0
13
-3.5417161342125796E7
23
1.196755301163804E7
33
0.0
0
3DFACE
8
outermarker
62
252
10
-3.5417357754179366E7
20
1.1967513260522878E7
30
0.0
11
-3.541721982167775E7
21
1.1967592509869512E7
31
0.0
12
-3.541725315075646E7
22
1.1967633210586417E7
32
0.0
13
-3.541725315075646E7
23
1.1967633210586417E7
33
0.0
0
3DFACE
8
outermarker
62
252
10
-3.5417459803197265E7
20
1.1967622191725124E7
30
0.0
11
-3.541742275439234E7
21
1.1967566924985457E7
31
0.0
12
-3.541725315075646E7
22
1.1967633210586417E7
32
0.0
13
-3.541725315075646E7
23
1.1967633210586417E7
33
0.0
0
3DFACE
8
outermarker
62
252
10
-3.541726079494559E7
20
1.19676744155394E7
30
0.0
11
-3.541724264714615E7
21
1.196771552612129E7
31
0.0
12
-3.541739962876303E7
22
1.1967788627160324E7
32
0.0
13
-3.541739962876303E7
23
1.1967788627160324E7
33
0.0
0
3DFACE
8
outermarker
62
252
10
-3.541724264714615E7
20
1.196771552612129E7
30
0.0
11
-3.5417198991887614E7
21
1.1967755744052341E7
31
0.0
12
-3.541732351472761E7
22
1.1967841423592577E7
32
0.0
13
-3.541732351472761E7
23
1.1967841423592577E7
33
0.0
0
3DFACE
8
outermarker
62
252
10
-3.5417198991887614E7
20
1.1967755744052341E7
30
0.0
11
-3.541713051738222E7
21
1.1967794670022527E7
31
0.0
12
-3.541722101405732E7
22
1.196789153152411E7
32
0.0
13
-3.541722101405732E7
23
1.196789153152411E7
33
0.0
0
3DFACE
8
outermarker
62
252
10
-3.541703829155706E7
20
1.1967831505512217E7
30
0.0
11
-3.541692377416433E7
21
1.196786585098804E7
31
0.0
12
-3.541709374062788E7
22
1.196793805248208E7
32
0.0
13
-3.541709374062788E7
23
1.196793805248208E7
33
0.0
0
3DFACE
8
outermarker
62
252
10
-3.541692377416433E7
20
1.196786585098804E7
30
0.0
11
-3.541678878094602E7
21
1.1967896907731311E7
31
0.0
12
-3.541694371197043E7
22
1.1967980287435282E7
32
0.0
13
-3.541694371197043E7
23
1.1967980287435282E7
33
0.0
0
3DFACE
8
outermarker
62
252
10
-3.541663543641848E7
20
1.196792437582381E7
30
0.0
11
-3.541646614996121E7
21
1.1967947855523346E7
31
0.0
12
-3.5416585121104285E7
22
1.196804940216156E7
32
0.0
13
-3.5416585121104285E7
23
1.196804940216156E7
33
0.0
0
3DFACE
8
outermarker
62
252
10
-3.541628360392359E7
20
1.196796674750596E7
30
0.0
11
-3.541609065888354E7
21
1.1967981051086785E7
31
0.0
12
-3.541616779236011E7
22
1.1968094479568077E7
32
0.0
13
-3.541616779236011E7
23
1.1968094479568077E7
33
0.0
0
3DFACE
8
outermarker
62
252
10
-3.5414636741569966E7
20
1.1968037468420874E7
30
0.0
11
-3.541471313534959E7
21
1.1967939079794101E7
31
0.0
12
-3.541455003287564E7
22
1.196791406143575E7
32
0.0
13
-3.541455003287564E7
23
1.196791406143575E7
33
0.0
0
3DFACE
8
outermarker
62
252
10
-3.541429302383917E7
20
1.196796408606755E7
30
0.0
11
-3.5414455452838734E7
21
1.1968003472858569E7
31
0.0
12
-3.541440389113397E7
22
1.1967885049051207E7
32
0.0
13
-3.541440389113397E7
23
1.1967885049051207E7
33
0.0
0
3DFACE
8
outermarker
62
252
10
-3.54148339937731E7
20
1.1968065673890194E7
30
0.0
11
-3.541489062281075E7
21
1.1967959805031324E7
31
0.0
12
-3.541471313534959E7
22
1.1967939079794101E7
32
0.0
13
-3.541471313534959E7
23
1.1967939079794101E7
33
0.0
0
3DFACE
8
outermarker
62
252
10
-3.54148339937731E7
20
1.1968065673890194E7
30
0.0
11
-3.541504413508659E7
21
1.1968087590688178E7
31
0.0
12
-3.541489062281075E7
22
1.1967959805031324E7
32
0.0
13
-3.541489062281075E7
23
1.1967959805031324E7
33
0.0
0
3DFACE
8
outermarker
62
252
10
-3.5414636741569966E7
20
1.1968037468420874E7
30
0.0
11
-3.54148339937731E7
21
1.1968065673890194E7
31
0.0
12
-3.541471313534959E7
22
1.1967939079794101E7
32
0.0
13
-3.541471313534959E7
23
1.1967939079794101E7
33
0.0
0
3DFACE
8
outermarker
62
252
10
-3.541504413508659E7
20
1.1968087590688178E7
30
0.0
11
-3.541507968210135E7
21
1.1967975938115526E7
31
0.0
12
-3.541489062281075E7
22
1.1967959805031324E7
32
0.0
13
-3.541489062281075E7
23
1.1967959805031324E7
33
0.0
0
3DFACE
8
outermarker
62
252
10
-3.5414455452838734E7
20
1.1968003472858569E7
30
0.0
11
-3.541455003287564E7
21
1.196791406143575E7
31
0.0
12
-3.541440389113397E7
22
1.1967885049051207E7
32
0.0
13
-3.541440389113397E7
23
1.1967885049051207E7
33
0.0
0
3DFACE
8
outermarker
62
252
10
-3.5414455452838734E7
20
1.1968003472858569E7
30
0.0
11
-3.5414636741569966E7
21
1.1968037468420874E7
31
0.0
12
-3.541455003287564E7
22
1.196791406143575E7
32
0.0
13
-3.541455003287564E7
23
1.196791406143575E7
33
0.0
0
3DFACE
8
outermarker
62
252
10
-3.541415199478987E7
20
1.1967920106077556E7
30
0.0
11
-3.541429302383917E7
21
1.196796408606755E7
31
0.0
12
-3.541427700103989E7
22
1.1967852641113611E7
32
0.0
13
-3.541427700103989E7
23
1.1967852641113611E7
33
0.0
0
3DFACE
8
outermarker
62
252
10
-3.541429302383917E7
20
1.196796408606755E7
30
0.0
11
-3.541440389113397E7
21
1.1967885049051207E7
31
0.0
12
-3.541427700103989E7
22
1.1967852641113611E7
32
0.0
13
-3.541427700103989E7
23
1.1967852641113611E7
33
0.0
0
3DFACE
8
outermarker
62
252
10
-3.541403458533157E7
20
1.196787203164528E7
30
0.0
11
-3.541415199478987E7
21
1.1967920106077556E7
31
0.0
12
-3.5414171368593745E7
22
1.1967817336365817E7
32
0.0
13
-3.5414171368593745E7
23
1.1967817336365817E7
33
0.0
0
3DFACE
8
outermarker
62
252
10
-3.541394265906426E7
20
1.1967820760659754E7
30
0.0
11
-3.5414088667408116E7
21
1.1967779533814382E7
31
0.0
12
-3.541403019133387E7
22
1.1967740031593015E7
32
0.0
13
-3.541403019133387E7
23
1.1967740031593015E7
33
0.0
0
3DFACE
8
outermarker
62
252
10
-3.541394265906426E7
20
1.1967820760659754E7
30
0.0
11
-3.541403458533157E7
21
1.196787203164528E7
31
0.0
12
-3.5414088667408116E7
22
1.1967779533814382E7
32
0.0
13
-3.5414088667408116E7
23
1.1967779533814382E7
33
0.0
0
3DFACE
8
outermarker
62
252
10
-3.541387766410461E7
20
1.1967767091267198E7
30
0.0
11
-3.541403019133387E7
21
1.1967740031593015E7
31
0.0
12
-3.54139968661943E7
22
1.1967699328534765E7
32
0.0
13
-3.54139968661943E7
23
1.1967699328534765E7
33
0.0
0
3DFACE
8
outermarker
62
252
10
-3.541384063311486E7
20
1.1967711821632458E7
30
0.0
11
-3.541398922615277E7
21
1.1967658123036716E7
31
0.0
12
-3.541383212400423E7
22
1.1967655949485384E7
32
0.0
13
-3.541383212400423E7
23
1.1967655949485384E7
33
0.0
0
3DFACE
8
outermarker
62
252
10
-3.541384063311486E7
20
1.1967711821632458E7
30
0.0
11
-3.54139968661943E7
21
1.1967699328534765E7
31
0.0
12
-3.541398922615277E7
22
1.1967658123036716E7
32
0.0
13
-3.541398922615277E7
23
1.1967658123036716E7
33
0.0
0
3DFACE
8
outermarker
62
252
10
-3.541383212400423E7
20
1.1967655949485384E7
30
0.0
11
-3.541398922615277E7
21
1.1967658123036716E7
31
0.0
12
-3.541385230292922E7
22
1.1967600173235575E7
32
0.0
13
-3.541385230292922E7
23
1.1967600173235575E7
33
0.0
0
3DFACE
8
outermarker
62
252
10
-3.541385230292922E7
20
1.1967600173235575E7
30
0.0
11
-3.541400737805274E7
21
1.196761701373935E7
31
0.0
12
-3.5413900825707726E7
22
1.1967545390855873E7
32
0.0
13
-3.5413900825707726E7
23
1.1967545390855873E7
33
0.0
0
3DFACE
8
outermarker
62
252
10
-3.5413900825707726E7
20
1.1967545390855873E7
30
0.0
11
-3.541400737805274E7
21
1.196761701373935E7
31
0.0
12
-3.5413976944635205E7
22
1.1967492600097109E7
32
0.0
13
-3.5413976944635205E7
23
1.1967492600097109E7
33
0.0
0
3DFACE
8
outermarker
62
252
10
-3.541411951484478E7
20
1.1967537877463553E7
30
0.0
11
-3.541421174316107E7
21
1.1967501047836453E7
31
0.0
12
-3.541407944909148E7
22
1.1967442599181876E7
32
0.0
13
-3.541407944909148E7
23
1.1967442599181876E7
33
0.0
0
3DFACE
8
outermarker
62
252
10
-3.5413976944635205E7
20
1.1967492600097109E7
30
0.0
11
-3.541411951484478E7
21
1.1967537877463553E7
31
0.0
12
-3.541407944909148E7
22
1.1967442599181876E7
32
0.0
13
-3.541407944909148E7
23
1.1967442599181876E7
33
0.0
0
3DFACE
8
outermarker
62
252
10
-3.541407944909148E7
20
1.1967442599181876E7
30
0.0
11
-3.541421174316107E7
21
1.1967501047836453E7
31
0.0
12
-3.541420671304488E7
22
1.1967396086582344E7
32
0.0
13
-3.541420671304488E7
23
1.1967396086582344E7
33
0.0
0
3DFACE
8
outermarker
62
252
10
-3.5414461255943306E7
20
1.1967435659622608E7
30
0.0
11
-3.541461460000907E7
21
1.1967408198792543E7
31
0.0
12
-3.541452718769065E7
22
1.1967316519930148E7
32
0.0
13
-3.541452718769065E7
23
1.1967316519930148E7
33
0.0
0
3DFACE
8
outermarker
62
252
10
-3.541420671304488E7
20
1.1967396086582344E7
30
0.0
11
-3.5414326262148224E7
21
1.1967466709125103E7
31
0.0
12
-3.5414356754424356E7
22
1.1967353760798965E7
32
0.0
13
-3.5414356754424356E7
23
1.1967353760798965E7
33
0.0
0
3DFACE
8
outermarker
62
252
10
-3.5414783885017306E7
20
1.1967384825694883E7
30
0.0
11
-3.54149664286333E7
21
1.1967365839902842E7
31
0.0
12
-3.5414918227641515E7
22
1.1967258989900438E7
32
0.0
13
-3.5414918227641515E7
23
1.1967258989900438E7
33
0.0
0
3DFACE
8
outermarker
62
252
10
-3.5414356754424356E7
20
1.1967353760798965E7
30
0.0
11
-3.5414461255943306E7
21
1.1967435659622608E7
31
0.0
12
-3.541452718769065E7
22
1.1967316519930148E7
32
0.0
13
-3.541452718769065E7
23
1.1967316519930148E7
33
0.0
0
3DFACE
8
outermarker
62
252
10
-3.54153596366978E7
20
1.1967342328612162E7
30
0.0
11
-3.54155641056988E7
21
1.1967338203037806E7
31
0.0
12
-3.541535525323596E7
22
1.1967227090683414E7
32
0.0
13
-3.541535525323596E7
23
1.1967227090683414E7
33
0.0
0
3DFACE
8
outermarker
62
252
10
-3.541625629059132E7
20
1.1967246585783133E7
30
0.0
11
-3.541603660099333E7
21
1.1967231261348179E7
31
0.0
12
-3.5416170327804066E7
22
1.196735665227303E7
32
0.0
13
-3.5416170327804066E7
23
1.196735665227303E7
33
0.0
0
3DFACE
8
outermarker
62
252
10
-3.541515935866318E7
20
1.1967351640823934E7
30
0.0
11
-3.54153596366978E7
21
1.1967342328612162E7
31
0.0
12
-3.541535525323596E7
22
1.1967227090683414E7
32
0.0
13
-3.541535525323596E7
23
1.1967227090683414E7
33
0.0
0
3DFACE
8
outermarker
62
252
10
-3.541452718769065E7
20
1.1967316519930148E7
30
0.0
11
-3.541461460000907E7
21
1.1967408198792543E7
31
0.0
12
-3.541471534238469E7
22
1.1967284763255559E7
32
0.0
13
-3.541471534238469E7
23
1.1967284763255559E7
33
0.0
0
3DFACE
8
outermarker
62
252
10
-3.541471534238469E7
20
1.1967284763255559E7
30
0.0
11
-3.5414783885017306E7
21
1.1967384825694883E7
31
0.0
12
-3.5414918227641515E7
22
1.1967258989900438E7
32
0.0
13
-3.5414918227641515E7
23
1.1967258989900438E7
33
0.0
0
3DFACE
8
outermarker
62
252
10
-3.5414918227641515E7
20
1.1967258989900438E7
30
0.0
11
-3.54149664286333E7
21
1.1967365839902842E7
31
0.0
12
-3.5415132662729226E7
22
1.1967239699057586E7
32
0.0
13
-3.5415132662729226E7
23
1.1967239699057586E7
33
0.0
0
3DFACE
8
outermarker
62
252
10
-3.5415132662729226E7
20
1.1967239699057586E7
30
0.0
11
-3.541515935866318E7
21
1.1967351640823934E7
31
0.0
12
-3.541535525323596E7
22
1.1967227090683414E7
32
0.0
13
-3.541535525323596E7
23
1.1967227090683414E7
33
0.0
0
3DFACE
8
outermarker
62
252
10
-3.541558249797454E7
20
1.1967221464586565E7
30
0.0
11
-3.541535525323596E7
21
1.1967227090683414E7
31
0.0
12
-3.54155641056988E7
22
1.1967338203037806E7
32
0.0
13
-3.54155641056988E7
23
1.1967338203037806E7
33
0.0
0
3DFACE
8
outermarker
62
252
10
-3.541558249797454E7
20
1.1967221464586565E7
30
0.0
11
-3.54155641056988E7
21
1.1967338203037806E7
31
0.0
12
-3.541576952545763E7
22
1.1967339164845223E7
32
0.0
13
-3.541576952545763E7
23
1.1967339164845223E7
33
0.0
0
3DFACE
8
outermarker
62
252
10
-3.541581081264189E7
20
1.1967222921109933E7
30
0.0
11
-3.541558249797454E7
21
1.1967221464586565E7
31
0.0
12
-3.541576952545763E7
22
1.1967339164845223E7
32
0.0
13
-3.541576952545763E7
23
1.1967339164845223E7
33
0.0
0
3DFACE
8
outermarker
62
252
10
-3.541581081264189E7
20
1.1967222921109933E7
30
0.0
11
-3.541576952545763E7
21
1.1967339164845223E7
31
0.0
12
-3.541597266771106E7
22
1.1967345414155368E7
32
0.0
13
-3.541597266771106E7
23
1.1967345414155368E7
33
0.0
0
3DFACE
8
outermarker
62
252
10
-3.541603660099333E7
20
1.1967231261348179E7
30
0.0
11
-3.541581081264189E7
21
1.1967222921109933E7
31
0.0
12
-3.541597266771106E7
22
1.1967345414155368E7
32
0.0
13
-3.541597266771106E7
23
1.1967345414155368E7
33
0.0
0
3DFACE
8
outermarker
62
252
10
-3.541603660099333E7
20
1.1967231261348179E7
30
0.0
11
-3.541597266771106E7
21
1.1967345414155368E7
31
0.0
12
-3.5416170327804066E7
22
1.196735665227303E7
32
0.0
13
-3.5416170327804066E7
23
1.196735665227303E7
33
0.0
0
3DFACE
8
outermarker
62
252
10
-3.5416466415674135E7
20
1.1967268496074062E7
30
0.0
11
-3.541635938420383E7
21
1.1967372780088428E7
31
0.0
12
-3.541653686960659E7
22
1.1967393498961966E7
32
0.0
13
-3.541653686960659E7
23
1.1967393498961966E7
33
0.0
0
3DFACE
8
outermarker
62
252
10
-3.5416466415674135E7
20
1.1967268496074062E7
30
0.0
11
-3.541625629059132E7
21
1.1967246585783133E7
31
0.0
12
-3.541635938420383E7
22
1.1967372780088428E7
32
0.0
13
-3.541635938420383E7
23
1.1967372780088428E7
33
0.0
0
3DFACE
8
outermarker
62
252
10
-3.541666367664578E7
20
1.196729669367997E7
30
0.0
11
-3.5416466415674135E7
21
1.1967268496074062E7
31
0.0
12
-3.541653686960659E7
22
1.1967393498961966E7
32
0.0
13
-3.541653686960659E7
23
1.1967393498961966E7
33
0.0
0
3DFACE
8
outermarker
62
252
10
-3.541625629059132E7
20
1.1967246585783133E7
30
0.0
11
-3.5416170327804066E7
21
1.196735665227303E7
31
0.0
12
-3.541635938420383E7
22
1.1967372780088428E7
32
0.0
13
-3.541635938420383E7
23
1.1967372780088428E7
33
0.0
0
3DFACE
8
outermarker
62
252
10
-3.541684495185824E7
20
1.1967330680524196E7
30
0.0
11
-3.541669995911557E7
21
1.1967418510264358E7
31
0.0
12
-3.5416846112669125E7
22
1.19674475153374E7
32
0.0
13
-3.5416846112669125E7
23
1.19674475153374E7
33
0.0
0
3DFACE
8
outermarker
62
252
10
-3.541684495185824E7
20
1.1967330680524196E7
30
0.0
11
-3.541666367664578E7
21
1.196729669367997E7
31
0.0
12
-3.541669995911557E7
22
1.1967418510264358E7
32
0.0
13
-3.541669995911557E7
23
1.1967418510264358E7
33
0.0
0
3DFACE
8
outermarker
62
252
10
-3.541700739264262E7
20
1.1967370058282694E7
30
0.0
11
-3.541697300373837E7
21
1.1967479916173587E7
31
0.0
12
-3.541707863815991E7
22
1.1967515314247848E7
32
0.0
13
-3.541707863815991E7
23
1.1967515314247848E7
33
0.0
0
3DFACE
8
outermarker
62
252
10
-3.541700739264262E7
20
1.1967370058282694E7
30
0.0
11
-3.5416846112669125E7
21
1.19674475153374E7
31
0.0
12
-3.541697300373837E7
22
1.1967479916173587E7
32
0.0
13
-3.541697300373837E7
23
1.1967479916173587E7
33
0.0
0
3DFACE
8
outermarker
62
252
10
-3.541714842316392E7
20
1.196741402949924E7
30
0.0
11
-3.541707863815991E7
21
1.1967515314247848E7
31
0.0
12
-3.5417161342125796E7
22
1.196755301163804E7
32
0.0
13
-3.5417161342125796E7
23
1.196755301163804E7
33
0.0
0
3DFACE
8
outermarker
62
252
10
-3.5417357754179366E7
20
1.1967513260522878E7
30
0.0
11
-3.5417265835545495E7
21
1.196746199619188E7
31
0.0
12
-3.541721982167775E7
22
1.1967592509869512E7
32
0.0
13
-3.541721982167775E7
23
1.1967592509869512E7
33
0.0
0
3DFACE
8
outermarker
62
252
10
-3.5417265835545495E7
20
1.196746199619188E7
30
0.0
11
-3.5417161342125796E7
21
1.196755301163804E7
31
0.0
12
-3.541721982167775E7
22
1.1967592509869512E7
32
0.0
13
-3.541721982167775E7
23
1.1967592509869512E7
33
0.0
0
3DFACE
8
outermarker
62
252
10
-3.541742275439234E7
20
1.1967566924985457E7
30
0.0
11
-3.5417357754179366E7
21
1.1967513260522878E7
31
0.0
12
-3.541725315075646E7
22
1.1967633210586417E7
32
0.0
13
-3.541725315075646E7
23
1.1967633210586417E7
33
0.0
0
3DFACE
8
outermarker
62
252
10
-3.5417459803197265E7
20
1.1967622191725124E7
30
0.0
11
-3.541726079494559E7
21
1.19676744155394E7
31
0.0
12
-3.541746830671974E7
22
1.196767816297313E7
32
0.0
13
-3.541746830671974E7
23
1.196767816297313E7
33
0.0
0
3DFACE
8
outermarker
62
252
10
-3.5417459803197265E7
20
1.1967622191725124E7
30
0.0
11
-3.541725315075646E7
21
1.1967633210586417E7
31
0.0
12
-3.541726079494559E7
22
1.19676744155394E7
32
0.0
13
-3.541726079494559E7
23
1.19676744155394E7
33
0.0
0
3DFACE
8
outermarker
62
252
10
-3.541746830671974E7
20
1.196767816297313E7
30
0.0
11
-3.541726079494559E7
21
1.19676744155394E7
31
0.0
12
-3.54174481458471E7
22
1.196773394080717E7
32
0.0
13
-3.54174481458471E7
23
1.196773394080717E7
33
0.0
0
3DFACE
8
outermarker
62
252
10
-3.54174481458471E7
20
1.196773394080717E7
30
0.0
11
-3.541726079494559E7
21
1.19676744155394E7
31
0.0
12
-3.541739962876303E7
22
1.1967788627160324E7
32
0.0
13
-3.541739962876303E7
23
1.1967788627160324E7
33
0.0
0
3DFACE
8
outermarker
62
252
10
-3.541739962876303E7
20
1.1967788627160324E7
30
0.0
11
-3.541724264714615E7
21
1.196771552612129E7
31
0.0
12
-3.541732351472761E7
22
1.1967841423592577E7
32
0.0
13
-3.541732351472761E7
23
1.1967841423592577E7
33
0.0
0
3DFACE
8
outermarker
62
252
10
-3.541713051738222E7
20
1.1967794670022527E7
30
0.0
11
-3.541703829155706E7
21
1.1967831505512217E7
31
0.0
12
-3.541709374062788E7
22
1.196793805248208E7
32
0.0
13
-3.541709374062788E7
23
1.196793805248208E7
33
0.0
0
3DFACE
8
outermarker
62
252
10
-3.541732351472761E7
20
1.1967841423592577E7
30
0.0
11
-3.5417198991887614E7
21
1.1967755744052341E7
31
0.0
12
-3.541722101405732E7
22
1.196789153152411E7
32
0.0
13
-3.541722101405732E7
23
1.196789153152411E7
33
0.0
0
3DFACE
8
outermarker
62
252
10
-3.541722101405732E7
20
1.196789153152411E7
30
0.0
11
-3.541713051738222E7
21
1.1967794670022527E7
31
0.0
12
-3.541709374062788E7
22
1.196793805248208E7
32
0.0
13
-3.541709374062788E7
23
1.196793805248208E7
33
0.0
0
3DFACE
8
outermarker
62
252
10
-3.541678878094602E7
20
1.1967896907731311E7
30
0.0
11
-3.541663543641848E7
21
1.196792437582381E7
31
0.0
12
-3.541677326615928E7
22
1.1968017637052886E7
32
0.0
13
-3.541677326615928E7
23
1.1968017637052886E7
33
0.0
0
3DFACE
8
outermarker
62
252
10
-3.541709374062788E7
20
1.196793805248208E7
30
0.0
11
-3.541692377416433E7
21
1.196786585098804E7
31
0.0
12
-3.541694371197043E7
22
1.1967980287435282E7
32
0.0
13
-3.541694371197043E7
23
1.1967980287435282E7
33
0.0
0
3DFACE
8
outermarker
62
252
10
-3.541646614996121E7
20
1.1967947855523346E7
30
0.0
11
-3.541628360392359E7
21
1.196796674750596E7
31
0.0
12
-3.54163822322031E7
22
1.1968075083112035E7
32
0.0
13
-3.54163822322031E7
23
1.1968075083112035E7
33
0.0
0
3DFACE
8
outermarker
62
252
10
-3.541694371197043E7
20
1.1967980287435282E7
30
0.0
11
-3.541678878094602E7
21
1.1967896907731311E7
31
0.0
12
-3.541677326615928E7
22
1.1968017637052886E7
32
0.0
13
-3.541677326615928E7
23
1.1968017637052886E7
33
0.0
0
3DFACE
8
outermarker
62
252
10
-3.541589038895569E7
20
1.1967990266713396E7
30
0.0
11
-3.541568591587977E7
21
1.1967994393742673E7
31
0.0
12
-3.5415717933426715E7
22
1.1968112620008161E7
32
0.0
13
-3.5415717933426715E7
23
1.1968112620008161E7
33
0.0
0
3DFACE
8
outermarker
62
252
10
-3.541504413508659E7
20
1.1968087590688178E7
30
0.0
11
-3.541526383000778E7
21
1.1968102820097124E7
31
0.0
12
-3.541507968210135E7
22
1.1967975938115526E7
32
0.0
13
-3.541507968210135E7
23
1.1967975938115526E7
33
0.0
0
3DFACE
8
outermarker
62
252
10
-3.541609065888354E7
20
1.1967981051086785E7
30
0.0
11
-3.541589038895569E7
21
1.1967990266713396E7
31
0.0
12
-3.541594518431582E7
22
1.1968106992113214E7
32
0.0
13
-3.541594518431582E7
23
1.1968106992113214E7
33
0.0
0
3DFACE
8
outermarker
62
252
10
-3.541548961251285E7
20
1.196811126279917E7
30
0.0
11
-3.5415717933426715E7
21
1.1968112620008161E7
31
0.0
12
-3.541568591587977E7
22
1.1967994393742673E7
32
0.0
13
-3.541568591587977E7
23
1.1967994393742673E7
33
0.0
0
3DFACE
8
outermarker
62
252
10
-3.541594518431582E7
20
1.1968106992113214E7
30
0.0
11
-3.541589038895569E7
21
1.1967990266713396E7
31
0.0
12
-3.5415717933426715E7
22
1.1968112620008161E7
32
0.0
13
-3.5415717933426715E7
23
1.1968112620008161E7
33
0.0
0
3DFACE
8
outermarker
62
252
10
-3.541616779236011E7
20
1.1968094479568077E7
30
0.0
11
-3.541609065888354E7
21
1.1967981051086785E7
31
0.0
12
-3.541594518431582E7
22
1.1968106992113214E7
32
0.0
13
-3.541594518431582E7
23
1.1968106992113214E7
33
0.0
0
3DFACE
8
outermarker
62
252
10
-3.54163822322031E7
20
1.1968075083112035E7
30
0.0
11
-3.541628360392359E7
21
1.196796674750596E7
31
0.0
12
-3.541616779236011E7
22
1.1968094479568077E7
32
0.0
13
-3.541616779236011E7
23
1.1968094479568077E7
33
0.0
0
3DFACE
8
outermarker
62
252
10
-3.541677326615928E7
20
1.1968017637052886E7
30
0.0
11
-3.541663543641848E7
21
1.196792437582381E7
31
0.0
12
-3.5416585121104285E7
22
1.196804940216156E7
32
0.0
13
-3.5416585121104285E7
23
1.196804940216156E7
33
0.0
0
3DFACE
8
outermarker
62
252
10
-3.5416585121104285E7
20
1.196804940216156E7
30
0.0
11
-3.541646614996121E7
21
1.1967947855523346E7
31
0.0
12
-3.54163822322031E7
22
1.1968075083112035E7
32
0.0
13
-3.54163822322031E7
23
1.1968075083112035E7
33
0.0
0
3DFACE
8
outermarker
62
252
10
-3.541548961251285E7
20
1.196811126279917E7
30
0.0
11
-3.541568591587977E7
21
1.1967994393742673E7
31
0.0
12
-3.541548049196554E7
22
1.1967993431562878E7
32
0.0
13
-3.541548049196554E7
23
1.1967993431562878E7
33
0.0
0
3DFACE
8
outermarker
62
252
10
-3.541526383000778E7
20
1.1968102820097124E7
30
0.0
11
-3.541548961251285E7
21
1.196811126279917E7
31
0.0
12
-3.541548049196554E7
22
1.1967993431562878E7
32
0.0
13
-3.541548049196554E7
23
1.1967993431562878E7
33
0.0
0
3DFACE
8
outermarker
62
252
10
-3.541526383000778E7
20
1.1968102820097124E7
30
0.0
11
-3.541548049196554E7
21
1.1967993431562878E7
31
0.0
12
-3.541527734573846E7
22
1.1967987180076502E7
32
0.0
13
-3.541527734573846E7
23
1.1967987180076502E7
33
0.0
0
3DFACE
8
outermarker
62
252
10
-3.541526383000778E7
20
1.1968102820097124E7
30
0.0
11
-3.541527734573846E7
21
1.1967987180076502E7
31
0.0
12
-3.541507968210135E7
22
1.1967975938115526E7
32
0.0
13
-3.541507968210135E7
23
1.1967975938115526E7
33
0.0
0
3DFACE
8
outermarker
62
252
10
-3.541530929761103E7
20
1.190699870527623E7
30
0.0
11
-3.541502564303004E7
21
1.190699875168311E7
31
0.0
12
-3.541502566706043E7
22
1.1907104210752204E7
32
0.0
13
-3.541530932256368E7
23
1.190710416434481E7
33
0.0
0
3DFACE
8
outermarker
62
252
10
-3.541531073226227E7
20
1.1913060962825539E7
30
0.0
11
-3.5415027024655655E7
21
1.1913061009262167E7
31
0.0
12
-3.541502704869502E7
22
1.1913166468588326E7
32
0.0
13
-3.541531075722425E7
23
1.1913166422151174E7
33
0.0
0
3DFACE
8
outermarker
62
252
10
-3.541531216744998E7
20
1.191912323465126E7
30
0.0
11
-3.541502840679791E7
21
1.1919123281117646E7
31
0.0
12
-3.541502843084627E7
22
1.1919228740683138E7
32
0.0
13
-3.54153121924213E7
23
1.1919228694216242E7
33
0.0
0
3DFACE
8
outermarker
62
252
10
-3.5415313603174485E7
20
1.1925185519734137E7
30
0.0
11
-3.5415029789457105E7
21
1.1925185566230277E7
31
0.0
12
-3.5415029813514456E7
22
1.1925291026017375E7
32
0.0
13
-3.541531362815514E7
23
1.1925290979520714E7
33
0.0
0
3DFACE
8
outermarker
62
252
10
-3.541531503943607E7
20
1.1931247817054875E7
30
0.0
11
-3.5415031172633536E7
21
1.1931247863580776E7
31
0.0
12
-3.541503119672266E7
22
1.193135342334468E7
32
0.0
13
-3.541531506444971E7
23
1.193135337681826E7
33
0.0
0
3DFACE
8
outermarker
62
252
10
-3.541531647623503E7
20
1.1937310125594182E7
30
0.0
11
-3.541503255632749E7
21
1.1937310172149848E7
31
0.0
12
-3.541503258042563E7
22
1.1937415732100058E7
32
0.0
13
-3.541531650125804E7
23
1.1937415685543882E7
33
0.0
0
3DFACE
8
outermarker
62
252
10
-3.541531791359535E7
20
1.1943372544106016E7
30
0.0
11
-3.541503394056204E7
21
1.1943372590691444E7
31
0.0
12
-3.5415033964646414E7
22
1.1943478051036958E7
32
0.0
13
-3.541531793860406E7
23
1.1943478004451012E7
33
0.0
0
3DFACE
8
outermarker
62
252
10
-3.541531935147E7
20
1.1949434872024667E7
30
0.0
11
-3.541503532529191E7
21
1.1949434918639867E7
31
0.0
12
-3.5415035349385306E7
22
1.194954037913605E7
32
0.0
13
-3.541531937648807E7
23
1.1949540332520334E7
33
0.0
0
3DFACE
8
outermarker
62
252
10
-3.5415320789882936E7
20
1.1955497208103905E7
30
0.0
11
-3.541503671054018E7
21
1.1955497254748883E7
31
0.0
12
-3.541503673464259E7
22
1.1955602715378007E7
32
0.0
13
-3.541532081491037E7
23
1.1955602668732518E7
33
0.0
0
3DFACE
8
outermarker
62
252
10
-3.5415322228834465E7
20
1.196155955132441E7
30
0.0
11
-3.5415038096307136E7
21
1.196155959799916E7
31
0.0
12
-3.541503812041858E7
22
1.1961665058743495E7
32
0.0
13
-3.541532225387127E7
23
1.1961665012068227E7
33
0.0
0
3DFACE
8
outermarker
62
252
10
-3.541528019418607E7
20
1.1991810385222027E7
30
0.0
11
-3.54149957959723E7
21
1.1991810431740241E7
31
0.0
12
-3.5414995819975205E7
22
1.1991915922726726E7
32
0.0
13
-3.541528021911633E7
23
1.1991915876207996E7
33
0.0
0
3DFACE
8
outermarker
62
252
10
-3.541527876176476E7
20
1.198574802159575E7
30
0.0
11
-3.541499441683507E7
21
1.1985748068084361E7
31
0.0
12
-3.541499444082216E7
22
1.198585352911194E7
32
0.0
13
-3.5415278786678605E7
23
1.1985853482622812E7
33
0.0
0
3DFACE
8
outermarker
62
252
10
-3.541527732988009E7
20
1.1979685660024209E7
30
0.0
11
-3.541499303821452E7
21
1.1979685706483224E7
31
0.0
12
-3.5414993062192634E7
22
1.1979791167466346E7
32
0.0
13
-3.541527735478461E7
23
1.1979791121006815E7
33
0.0
0
3DFACE
8
outermarker
62
252
10
-3.541527589853178E7
20
1.1973623301526766E7
30
0.0
11
-3.541499166011037E7
21
1.1973623347956194E7
31
0.0
12
-3.54149916840795E7
22
1.1973728808877131E7
32
0.0
13
-3.541527592342696E7
23
1.1973728762447186E7
33
0.0
0
ENDSEC
0
EOF
