  0
SECTION
  2
HEADER
  0
ENDSEC
  0
SECTION
  2
ENTITIES
  0
3DFACE
  8
mg_to_dxf
  62
52
  10
-35426921.01
  20
12009205.59
  30
0.00
  11
-35426921.01
  21
12009205.59
  31
0.00
  12
-35426929.37
  22
12009212.55
  32
0.00
  13
-35426985.05
  23
12009156.86
  33
0.00
  0
3DFACE
  8
mg_to_dxf
  62
52
  10
-35426993.40
  20
12009165.22
  30
0.00
  11
-35426993.40
  21
12009165.22
  31
0.00
  12
-35427051.87
  22
12009109.54
  32
0.00
  13
-35426985.05
  23
12009156.86
  33
0.00
  0
3DFACE
  8
mg_to_dxf
  62
52
  10
-35426993.40
  20
12009165.22
  30
0.00
  11
-35426993.40
  21
12009165.22
  31
0.00
  12
-35427060.22
  22
12009116.50
  32
0.00
  13
-35427051.87
  23
12009109.54
  33
0.00
  0
3DFACE
  8
mg_to_dxf
  62
52
  10
-35426993.40
  20
12009165.22
  30
0.00
  11
-35426993.40
  21
12009165.22
  31
0.00
  12
-35426985.05
  22
12009156.86
  32
0.00
  13
-35426929.37
  23
12009212.55
  33
0.00
  0
3DFACE
  8
mg_to_dxf
  62
52
  10
-35426856.98
  20
12009039.93
  30
0.00
  11
-35426851.41
  21
12009044.11
  31
0.00
  12
-35426968.34
  22
12009158.26
  32
0.00
  13
-35426973.91
  23
12009154.08
  33
0.00
  0
3DFACE
  8
mg_to_dxf
  62
52
  10
-35426845.84
  20
12009046.89
  30
0.00
  11
-35426840.28
  21
12009051.07
  31
0.00
  12
-35426957.21
  22
12009165.22
  32
0.00
  13
-35426962.78
  23
12009161.04
  33
0.00
  0
3DFACE
  8
mg_to_dxf
  62
52
  10
-35426834.71
  20
12009053.85
  30
0.00
  11
-35426829.14
  21
12009059.42
  31
0.00
  12
-35426948.86
  22
12009173.57
  32
0.00
  13
-35426954.42
  23
12009169.39
  33
0.00
  0
3DFACE
  8
mg_to_dxf
  62
52
  10
-35426823.57
  20
12009062.21
  30
0.00
  11
-35426818.00
  21
12009066.38
  31
0.00
  12
-35426937.72
  22
12009180.53
  32
0.00
  13
-35426943.29
  23
12009176.35
  33
0.00
  0
3DFACE
  8
mg_to_dxf
  62
52
  10
-35426815.22
  20
12009070.56
  30
0.00
  11
-35426806.87
  21
12009074.73
  31
0.00
  12
-35426926.58
  22
12009188.88
  32
0.00
  13
-35426932.15
  23
12009184.70
  33
0.00
  0
3DFACE
  8
mg_to_dxf
  62
52
  10
-35426804.08
  20
12009077.52
  30
0.00
  11
-35426798.52
  21
12009081.69
  31
0.00
  12
-35426915.45
  22
12009195.84
  32
0.00
  13
-35426921.01
  23
12009191.67
  33
0.00
  0
3DFACE
  8
mg_to_dxf
  62
52
  10
-35426870.90
  20
12009028.80
  30
0.00
  11
-35426865.33
  21
12009032.97
  31
0.00
  12
-35426982.26
  22
12009147.12
  32
0.00
  13
-35426990.62
  23
12009141.55
  33
0.00
  0
3DFACE
  8
mg_to_dxf
  62
52
  10
-35426882.04
  20
12009020.44
  30
0.00
  11
-35426876.47
  21
12009024.62
  31
0.00
  12
-35426993.40
  22
12009138.77
  32
0.00
  13
-35426998.97
  23
12009134.59
  33
0.00
  0
3DFACE
  8
mg_to_dxf
  62
52
  10
-35426893.17
  20
12009013.48
  30
0.00
  11
-35426884.82
  21
12009017.66
  31
0.00
  12
-35427004.54
  22
12009131.81
  32
0.00
  13
-35427010.10
  23
12009127.63
  33
0.00
  0
3DFACE
  8
mg_to_dxf
  62
52
  10
-35426901.53
  20
12009005.13
  30
0.00
  11
-35426895.96
  21
12009009.31
  31
0.00
  12
-35427015.67
  22
12009123.46
  32
0.00
  13
-35427021.24
  23
12009119.28
  33
0.00
  0
3DFACE
  8
mg_to_dxf
  62
52
  10
-35426912.66
  20
12008998.17
  30
0.00
  11
-35426907.09
  21
12009002.35
  31
0.00
  12
-35427024.03
  22
12009116.50
  32
0.00
  13
-35427029.59
  23
12009112.32
  33
0.00
  0
3DFACE
  8
mg_to_dxf
  62
52
  10
-35426923.80
  20
12008989.82
  30
0.00
  11
-35426918.23
  21
12008994.00
  31
0.00
  12
-35427035.16
  22
12009108.14
  32
0.00
  13
-35427040.73
  23
12009103.97
  33
0.00
  0
3DFACE
  8
mg_to_dxf
  62
52
  10
-35426776.24
  20
12008967.55
  30
0.00
  11
-35426776.24
  21
12008967.55
  31
0.00
  12
-35426823.57
  22
12009012.09
  32
0.00
  13
-35426806.87
  23
12008989.82
  33
0.00
  0
3DFACE
  8
mg_to_dxf
  62
52
  10
-35426806.87
  20
12008989.82
  30
0.00
  11
-35426806.87
  21
12008989.82
  31
0.00
  12
-35426823.57
  22
12009012.09
  32
0.00
  13
-35426826.36
  23
12009009.31
  33
0.00
  0
3DFACE
  8
mg_to_dxf
  62
52
  10
-35426812.44
  20
12008987.04
  30
0.00
  11
-35426812.44
  21
12008987.04
  31
0.00
  12
-35426840.28
  22
12008999.56
  32
0.00
  13
-35426815.22
  23
12008984.25
  33
0.00
  0
3DFACE
  8
mg_to_dxf
  62
52
  10
-35426812.44
  20
12008987.04
  30
0.00
  11
-35426812.44
  21
12008987.04
  31
0.00
  12
-35426834.71
  22
12009002.35
  32
0.00
  13
-35426840.28
  23
12008999.56
  33
0.00
  0
3DFACE
  8
mg_to_dxf
  62
52
  10
-35426815.22
  20
12008984.25
  30
0.00
  11
-35426815.22
  21
12008984.25
  31
0.00
  12
-35426792.95
  22
12008955.02
  32
0.00
  13
-35426776.24
  23
12008967.55
  33
0.00
  0
3DFACE
  8
mg_to_dxf
  62
52
  10
-35426815.22
  20
12008984.25
  30
0.00
  11
-35426815.22
  21
12008984.25
  31
0.00
  12
-35426820.79
  22
12008981.47
  32
0.00
  13
-35426792.95
  23
12008955.02
  33
0.00
  0
3DFACE
  8
mg_to_dxf
  62
52
  10
-35426815.22
  20
12008984.25
  30
0.00
  11
-35426815.22
  21
12008984.25
  31
0.00
  12
-35426806.87
  22
12008989.82
  32
0.00
  13
-35426812.44
  23
12008987.04
  33
0.00
  0
3DFACE
  8
mg_to_dxf
  62
52
  10
-35426815.22
  20
12008984.25
  30
0.00
  11
-35426815.22
  21
12008984.25
  31
0.00
  12
-35426776.24
  22
12008967.55
  32
0.00
  13
-35426806.87
  23
12008989.82
  33
0.00
  0
3DFACE
  8
mg_to_dxf
  62
52
  10
-35426795.73
  20
12008966.16
  30
0.00
  11
-35426790.16
  21
12008971.72
  31
0.00
  12
-35426798.52
  22
12008982.86
  32
0.00
  13
-35426806.87
  23
12008975.90
  33
0.00
  0
3DFACE
  8
mg_to_dxf
  62
52
  10
-35426756.75
  20
12008953.63
  30
0.00
  11
-35426756.75
  21
12008953.63
  31
0.00
  12
-35426717.78
  22
12008916.04
  32
0.00
  13
-35426717.78
  23
12008916.04
  33
0.00
  0
3DFACE
  8
mg_to_dxf
  62
52
  10
-35426762.32
  20
12008950.84
  30
0.00
  11
-35426762.32
  21
12008950.84
  31
0.00
  12
-35426717.78
  22
12008916.04
  32
0.00
  13
-35426756.75
  23
12008953.63
  33
0.00
  0
3DFACE
  8
mg_to_dxf
  62
52
  10
-35426714.99
  20
12008906.30
  30
0.00
  11
-35426714.99
  21
12008906.30
  31
0.00
  12
-35426717.78
  22
12008916.04
  32
0.00
  13
-35426762.32
  23
12008950.84
  33
0.00
  0
3DFACE
  8
mg_to_dxf
  62
52
  10
-35426714.99
  20
12008906.30
  30
0.00
  11
-35426714.99
  21
12008906.30
  31
0.00
  12
-35426709.42
  22
12008910.47
  32
0.00
  13
-35426717.78
  23
12008916.04
  33
0.00
  0
3DFACE
  8
mg_to_dxf
  62
52
  10
-35426751.19
  20
12008892.38
  30
0.00
  11
-35426751.19
  21
12008892.38
  31
0.00
  12
-35426759.54
  22
12008895.16
  32
0.00
  13
-35426748.40
  23
12008884.03
  33
0.00
  0
3DFACE
  8
mg_to_dxf
  62
52
  10
-35426748.40
  20
12008884.03
  30
0.00
  11
-35426748.40
  21
12008884.03
  31
0.00
  12
-35426737.27
  22
12008902.12
  32
0.00
  13
-35426751.19
  23
12008892.38
  33
0.00
  0
3DFACE
  8
mg_to_dxf
  62
52
  10
-35426748.40
  20
12008884.03
  30
0.00
  11
-35426748.40
  21
12008884.03
  31
0.00
  12
-35426731.70
  22
12008895.16
  32
0.00
  13
-35426737.27
  23
12008902.12
  33
0.00
  0
3DFACE
  8
mg_to_dxf
  62
52
  10
-35426759.54
  20
12008895.16
  30
0.00
  11
-35426759.54
  21
12008895.16
  31
0.00
  12
-35426751.19
  22
12008892.38
  32
0.00
  13
-35426753.97
  23
12008896.55
  33
0.00
  0
3DFACE
  8
mg_to_dxf
  62
52
  10
-35426759.54
  20
12008906.30
  30
0.00
  11
-35426759.54
  21
12008906.30
  31
0.00
  12
-35426759.54
  22
12008895.16
  32
0.00
  13
-35426753.97
  23
12008896.55
  33
0.00
  0
3DFACE
  8
mg_to_dxf
  62
52
  10
-35426784.59
  20
12008927.18
  30
0.00
  11
-35426784.59
  21
12008927.18
  31
0.00
  12
-35426776.24
  22
12008941.10
  32
0.00
  13
-35426792.95
  23
12008928.57
  33
0.00
  0
3DFACE
  8
mg_to_dxf
  62
52
  10
-35426784.59
  20
12008927.18
  30
0.00
  11
-35426784.59
  21
12008927.18
  31
0.00
  12
-35426773.46
  22
12008936.92
  32
0.00
  13
-35426776.24
  23
12008941.10
  33
0.00
  0
3DFACE
  8
mg_to_dxf
  62
52
  10
-35426759.54
  20
12008906.30
  30
0.00
  11
-35426759.54
  21
12008906.30
  31
0.00
  12
-35426753.97
  22
12008896.55
  32
0.00
  13
-35426753.97
  23
12008909.08
  33
0.00
  0
3DFACE
  8
mg_to_dxf
  62
52
  10
-35426767.89
  20
12008910.47
  30
0.00
  11
-35426767.89
  21
12008910.47
  31
0.00
  12
-35426792.95
  22
12008928.57
  32
0.00
  13
-35426770.67
  23
12008907.69
  33
0.00
  0
3DFACE
  8
mg_to_dxf
  62
52
  10
-35426767.89
  20
12008910.47
  30
0.00
  11
-35426767.89
  21
12008910.47
  31
0.00
  12
-35426784.59
  22
12008927.18
  32
0.00
  13
-35426792.95
  23
12008928.57
  33
0.00
  0
3DFACE
  8
mg_to_dxf
  62
52
  10
-35426767.89
  20
12008910.47
  30
0.00
  11
-35426767.89
  21
12008910.47
  31
0.00
  12
-35426759.54
  22
12008906.30
  32
0.00
  13
-35426753.97
  23
12008909.08
  33
0.00
  0
3DFACE
  8
mg_to_dxf
  62
52
  10
-35426767.89
  20
12008910.47
  30
0.00
  11
-35426767.89
  21
12008910.47
  31
0.00
  12
-35426770.67
  22
12008907.69
  32
0.00
  13
-35426759.54
  23
12008906.30
  33
0.00
  0
3DFACE
  8
mg_to_dxf
  62
52
  10
-35426478.35
  20
12008751.78
  30
0.00
  11
-35426472.78
  21
12008755.96
  31
0.00
  12
-35426531.24
  22
12008813.03
  32
0.00
  13
-35426536.81
  23
12008808.86
  33
0.00
  0
3DFACE
  8
mg_to_dxf
  62
52
  10
-35426486.70
  20
12008744.82
  30
0.00
  11
-35426483.91
  21
12008749.00
  31
0.00
  12
-35426542.38
  22
12008806.07
  32
0.00
  13
-35426547.95
  23
12008801.89
  33
0.00
  0
3DFACE
  8
mg_to_dxf
  62
52
  10
-35426497.84
  20
12008737.86
  30
0.00
  11
-35426492.27
  21
12008742.04
  31
0.00
  12
-35426550.73
  22
12008799.11
  32
0.00
  13
-35426556.30
  23
12008794.93
  33
0.00
  0
3DFACE
  8
mg_to_dxf
  62
52
  10
-35426567.44
  20
12008686.36
  30
0.00
  11
-35426561.87
  21
12008690.53
  31
0.00
  12
-35426620.33
  22
12008747.61
  32
0.00
  13
-35426625.90
  23
12008743.43
  33
0.00
  0
3DFACE
  8
mg_to_dxf
  62
52
  10
-35426578.57
  20
12008678.00
  30
0.00
  11
-35426573.01
  21
12008682.18
  31
0.00
  12
-35426631.47
  22
12008739.25
  32
0.00
  13
-35426637.04
  23
12008735.08
  33
0.00
  0
3DFACE
  8
mg_to_dxf
  62
52
  10
-35426586.93
  20
12008671.04
  30
0.00
  11
-35426581.36
  21
12008675.22
  31
0.00
  12
-35426639.82
  22
12008732.29
  32
0.00
  13
-35426645.39
  23
12008728.12
  33
0.00
  0
3DFACE
  8
mg_to_dxf
  62
52
  10
-35426169.31
  20
12008414.91
  30
0.00
  11
-35426049.60
  21
12008302.15
  31
0.00
  12
-35426021.76
  22
12008321.64
  32
0.00
  13
-35426141.47
  23
12008435.79
  33
0.00
  0
3DFACE
  8
mg_to_dxf
  62
52
  10
-35426113.63
  20
12008256.22
  30
0.00
  11
-35426233.35
  21
12008368.97
  31
0.00
  12
-35426258.41
  22
12008348.09
  32
0.00
  13
-35426141.47
  23
12008235.34
  33
0.00
  0
3DFACE
  8
mg_to_dxf
  62
52
  10
-35425704.37
  20
12007991.73
  30
0.00
  11
-35425762.84
  21
12008048.80
  31
0.00
  12
-35425768.41
  22
12008044.63
  32
0.00
  13
-35425709.94
  23
12007987.55
  33
0.00
  0
3DFACE
  8
mg_to_dxf
  62
52
  10
-35425712.73
  20
12007984.77
  30
0.00
  11
-35425771.19
  21
12008041.84
  31
0.00
  12
-35425776.76
  22
12008037.67
  32
0.00
  13
-35425718.29
  23
12007980.59
  33
0.00
  0
3DFACE
  8
mg_to_dxf
  62
52
  10
-35425782.33
  20
12007933.26
  30
0.00
  11
-35425843.58
  21
12007990.34
  31
0.00
  12
-35425849.15
  22
12007986.16
  32
0.00
  13
-35425787.90
  23
12007929.09
  33
0.00
  0
3DFACE
  8
mg_to_dxf
  62
52
  10
-35425793.46
  20
12007924.91
  30
0.00
  11
-35425851.93
  21
12007983.38
  31
0.00
  12
-35425857.50
  22
12007979.20
  32
0.00
  13
-35425799.03
  23
12007922.13
  33
0.00
  0
3DFACE
  8
mg_to_dxf
  62
52
  10
-35425311.82
  20
12007611.70
  30
0.00
  11
-35425373.07
  21
12007670.17
  31
0.00
  12
-35425378.64
  22
12007665.99
  32
0.00
  13
-35425320.17
  23
12007607.53
  33
0.00
  0
3DFACE
  8
mg_to_dxf
  62
52
  10
-35425322.96
  20
12007604.74
  30
0.00
  11
-35425381.42
  21
12007663.21
  31
0.00
  12
-35425389.77
  22
12007657.64
  32
0.00
  13
-35425328.52
  23
12007600.57
  33
0.00
  0
3DFACE
  8
mg_to_dxf
  62
52
  10
-35425392.56
  20
12007553.24
  30
0.00
  11
-35425453.81
  21
12007611.70
  31
0.00
  12
-35425459.38
  22
12007607.53
  32
0.00
  13
-35425398.13
  23
12007549.06
  33
0.00
  0
3DFACE
  8
mg_to_dxf
  62
52
  10
-35425403.69
  20
12007546.28
  30
0.00
  11
-35425462.16
  21
12007603.35
  31
0.00
  12
-35425470.51
  22
12007599.18
  32
0.00
  13
-35425409.26
  23
12007542.10
  33
0.00
  0
3DFACE
  8
mg_to_dxf
  62
52
  10
-35424935.97
  20
12007227.50
  30
0.00
  11
-35424994.44
  21
12007284.58
  31
0.00
  12
-35425000.00
  22
12007280.40
  32
0.00
  13
-35424941.54
  23
12007223.33
  33
0.00
  0
3DFACE
  8
mg_to_dxf
  62
52
  10
-35425064.04
  20
12007233.07
  30
0.00
  11
-35425069.61
  21
12007228.89
  31
0.00
  12
-35425011.14
  22
12007171.82
  32
0.00
  13
-35425005.57
  23
12007176.00
  33
0.00
  0
3DFACE
  8
mg_to_dxf
  62
52
  10
-35424546.20
  20
12006848.87
  30
0.00
  11
-35424601.88
  21
12006905.94
  31
0.00
  12
-35424607.45
  22
12006901.77
  32
0.00
  13
-35424548.98
  23
12006844.69
  33
0.00
  0
3DFACE
  8
mg_to_dxf
  62
52
  10
-35424674.27
  20
12006854.44
  30
0.00
  11
-35424679.84
  21
12006850.26
  31
0.00
  12
-35424621.37
  22
12006793.19
  32
0.00
  13
-35424615.80
  23
12006797.36
  33
0.00
  0
3DFACE
  8
mg_to_dxf
  62
52
  10
-35420512.08
  20
12002916.36
  30
0.00
  11
-35420484.24
  21
12002937.25
  31
0.00
  12
-35420601.17
  22
12003050.00
  32
0.00
  13
-35420629.01
  23
12003029.12
  33
0.00
  0
3DFACE
  8
mg_to_dxf
  62
52
  10
-35420690.26
  20
12002983.18
  30
0.00
  11
-35420718.10
  21
12002963.69
  31
0.00
  12
-35420603.95
  22
12002849.55
  32
0.00
  13
-35420576.11
  23
12002869.04
  33
0.00
  0
3DFACE
  8
mg_to_dxf
  62
52
  10
-35419921.86
  20
12002274.64
  30
0.00
  11
-35419921.86
  21
12002274.64
  31
0.00
  12
-35419924.64
  22
12002284.38
  32
0.00
  13
-35419966.40
  23
12002319.18
  33
0.00
  0
3DFACE
  8
mg_to_dxf
  62
52
  10
-35419966.40
  20
12002319.18
  30
0.00
  11
-35419966.40
  21
12002319.18
  31
0.00
  12
-35419924.64
  22
12002284.38
  32
0.00
  13
-35419963.62
  23
12002321.97
  33
0.00
  0
3DFACE
  8
mg_to_dxf
  62
52
  10
-35419924.64
  20
12002284.38
  30
0.00
  11
-35419924.64
  21
12002284.38
  31
0.00
  12
-35419905.15
  22
12002285.77
  32
0.00
  13
-35419913.50
  23
12002294.12
  33
0.00
  0
3DFACE
  8
mg_to_dxf
  62
52
  10
-35419924.64
  20
12002284.38
  30
0.00
  11
-35419924.64
  21
12002284.38
  31
0.00
  12
-35419921.86
  22
12002274.64
  32
0.00
  13
-35419905.15
  23
12002285.77
  33
0.00
  0
3DFACE
  8
mg_to_dxf
  62
52
  10
-35420027.65
  20
12002380.43
  30
0.00
  11
-35420027.65
  21
12002380.43
  31
0.00
  12
-35420038.79
  22
12002360.94
  32
0.00
  13
-35420024.87
  23
12002372.08
  33
0.00
  0
3DFACE
  8
mg_to_dxf
  62
52
  10
-35420027.65
  20
12002380.43
  30
0.00
  11
-35420027.65
  21
12002380.43
  31
0.00
  12
-35420044.35
  22
12002367.90
  32
0.00
  13
-35420038.79
  23
12002360.94
  33
0.00
  0
3DFACE
  8
mg_to_dxf
  62
52
  10
-35420016.51
  20
12002367.90
  30
0.00
  11
-35420016.51
  21
12002367.90
  31
0.00
  12
-35420024.87
  22
12002372.08
  32
0.00
  13
-35420019.30
  23
12002367.90
  33
0.00
  0
3DFACE
  8
mg_to_dxf
  62
52
  10
-35420016.51
  20
12002367.90
  30
0.00
  11
-35420016.51
  21
12002367.90
  31
0.00
  12
-35420027.65
  22
12002380.43
  32
0.00
  13
-35420024.87
  23
12002372.08
  33
0.00
  0
3DFACE
  8
mg_to_dxf
  62
52
  10
-35419994.24
  20
12002340.06
  30
0.00
  11
-35419994.24
  21
12002340.06
  31
0.00
  12
-35419999.81
  22
12002323.36
  32
0.00
  13
-35419983.10
  23
12002335.89
  33
0.00
  0
3DFACE
  8
mg_to_dxf
  62
52
  10
-35419994.24
  20
12002340.06
  30
0.00
  11
-35419994.24
  21
12002340.06
  31
0.00
  12
-35420008.16
  22
12002330.32
  32
0.00
  13
-35419999.81
  23
12002323.36
  33
0.00
  0
3DFACE
  8
mg_to_dxf
  62
52
  10
-35420016.51
  20
12002358.16
  30
0.00
  11
-35420016.51
  21
12002358.16
  31
0.00
  12
-35420019.30
  22
12002367.90
  32
0.00
  13
-35420022.08
  23
12002353.98
  33
0.00
  0
3DFACE
  8
mg_to_dxf
  62
52
  10
-35420016.51
  20
12002358.16
  30
0.00
  11
-35420016.51
  21
12002358.16
  31
0.00
  12
-35420016.51
  22
12002367.90
  32
0.00
  13
-35420019.30
  23
12002367.90
  33
0.00
  0
3DFACE
  8
mg_to_dxf
  62
52
  10
-35420008.16
  20
12002353.98
  30
0.00
  11
-35420008.16
  21
12002353.98
  31
0.00
  12
-35419983.10
  22
12002335.89
  32
0.00
  13
-35420005.38
  23
12002358.16
  33
0.00
  0
3DFACE
  8
mg_to_dxf
  62
52
  10
-35420008.16
  20
12002353.98
  30
0.00
  11
-35420008.16
  21
12002353.98
  31
0.00
  12
-35419994.24
  22
12002340.06
  32
0.00
  13
-35419983.10
  23
12002335.89
  33
0.00
  0
3DFACE
  8
mg_to_dxf
  62
52
  10
-35420008.16
  20
12002353.98
  30
0.00
  11
-35420008.16
  21
12002353.98
  31
0.00
  12
-35420016.51
  22
12002358.16
  32
0.00
  13
-35420022.08
  23
12002353.98
  33
0.00
  0
3DFACE
  8
mg_to_dxf
  62
52
  10
-35420008.16
  20
12002353.98
  30
0.00
  11
-35420008.16
  21
12002353.98
  31
0.00
  12
-35420005.38
  22
12002358.16
  32
0.00
  13
-35420016.51
  23
12002358.16
  33
0.00
  0
3DFACE
  8
mg_to_dxf
  62
52
  10
-35420002.59
  20
12002384.61
  30
0.00
  11
-35420002.59
  21
12002384.61
  31
0.00
  12
-35419966.40
  22
12002347.02
  32
0.00
  13
-35420008.16
  23
12002394.35
  33
0.00
  0
3DFACE
  8
mg_to_dxf
  62
52
  10
-35420008.16
  20
12002394.35
  30
0.00
  11
-35420008.16
  21
12002394.35
  31
0.00
  12
-35419966.40
  22
12002347.02
  32
0.00
  13
-35419963.62
  23
12002349.81
  33
0.00
  0
3DFACE
  8
mg_to_dxf
  62
52
  10
-35420002.59
  20
12002384.61
  30
0.00
  11
-35420002.59
  21
12002384.61
  31
0.00
  12
-35420010.95
  22
12002390.18
  32
0.00
  13
-35420005.38
  23
12002384.61
  33
0.00
  0
3DFACE
  8
mg_to_dxf
  62
52
  10
-35420002.59
  20
12002384.61
  30
0.00
  11
-35420002.59
  21
12002384.61
  31
0.00
  12
-35420008.16
  22
12002394.35
  32
0.00
  13
-35420010.95
  23
12002390.18
  33
0.00
  0
3DFACE
  8
mg_to_dxf
  62
52
  10
-35419682.42
  20
12002168.84
  30
0.00
  11
-35419682.42
  21
12002168.84
  31
0.00
  12
-35419690.78
  22
12002175.80
  32
0.00
  13
-35419749.24
  23
12002120.12
  33
0.00
  0
3DFACE
  8
mg_to_dxf
  62
52
  10
-35419757.59
  20
12002127.08
  30
0.00
  11
-35419757.59
  21
12002127.08
  31
0.00
  12
-35419816.06
  22
12002072.79
  32
0.00
  13
-35419749.24
  23
12002120.12
  33
0.00
  0
3DFACE
  8
mg_to_dxf
  62
52
  10
-35419757.59
  20
12002127.08
  30
0.00
  11
-35419757.59
  21
12002127.08
  31
0.00
  12
-35419824.41
  22
12002081.14
  32
0.00
  13
-35419816.06
  23
12002072.79
  33
0.00
  0
3DFACE
  8
mg_to_dxf
  62
52
  10
-35419757.59
  20
12002127.08
  30
0.00
  11
-35419757.59
  21
12002127.08
  31
0.00
  12
-35419749.24
  22
12002120.12
  32
0.00
  13
-35419690.78
  23
12002175.80
  33
0.00
  0
3DFACE
  8
mg_to_dxf
  62
52
  10
-35419707.48
  20
12002177.19
  30
0.00
  11
-35419701.91
  21
12002181.37
  31
0.00
  12
-35419818.84
  22
12002294.12
  32
0.00
  13
-35419824.41
  23
12002291.34
  33
0.00
  0
3DFACE
  8
mg_to_dxf
  62
52
  10
-35419718.62
  20
12002168.84
  30
0.00
  11
-35419713.05
  21
12002173.02
  31
0.00
  12
-35419829.98
  22
12002285.77
  32
0.00
  13
-35419835.55
  23
12002282.99
  33
0.00
  0
3DFACE
  8
mg_to_dxf
  62
52
  10
-35419729.75
  20
12002161.88
  30
0.00
  11
-35419724.19
  21
12002166.06
  31
0.00
  12
-35419841.12
  22
12002278.81
  32
0.00
  13
-35419846.69
  23
12002276.03
  33
0.00
  0
3DFACE
  8
mg_to_dxf
  62
52
  10
-35419738.11
  20
12002154.92
  30
0.00
  11
-35419732.54
  21
12002159.10
  31
0.00
  12
-35419852.25
  22
12002271.85
  32
0.00
  13
-35419855.04
  23
12002269.07
  33
0.00
  0
3DFACE
  8
mg_to_dxf
  62
52
  10
-35419749.24
  20
12002147.96
  30
0.00
  11
-35419743.67
  21
12002150.74
  31
0.00
  12
-35419860.61
  22
12002264.89
  32
0.00
  13
-35419866.17
  23
12002260.72
  33
0.00
  0
3DFACE
  8
mg_to_dxf
  62
52
  10
-35419760.38
  20
12002139.61
  30
0.00
  11
-35419754.81
  21
12002143.78
  31
0.00
  12
-35419871.74
  22
12002256.54
  32
0.00
  13
-35419877.31
  23
12002253.76
  33
0.00
  0
3DFACE
  8
mg_to_dxf
  62
52
  10
-35419777.08
  20
12002128.47
  30
0.00
  11
-35419771.52
  21
12002132.65
  31
0.00
  12
-35419888.45
  22
12002245.40
  32
0.00
  13
-35419894.01
  23
12002241.23
  33
0.00
  0
3DFACE
  8
mg_to_dxf
  62
52
  10
-35419785.44
  20
12002121.51
  30
0.00
  11
-35419779.87
  21
12002125.69
  31
0.00
  12
-35419899.58
  22
12002238.44
  32
0.00
  13
-35419902.37
  23
12002235.66
  33
0.00
  0
3DFACE
  8
mg_to_dxf
  62
52
  10
-35419796.57
  20
12002113.16
  30
0.00
  11
-35419791.00
  21
12002117.34
  31
0.00
  12
-35419907.93
  22
12002231.48
  32
0.00
  13
-35419913.50
  23
12002227.31
  33
0.00
  0
3DFACE
  8
mg_to_dxf
  62
52
  10
-35419807.71
  20
12002106.20
  30
0.00
  11
-35419802.14
  21
12002110.38
  31
0.00
  12
-35419919.07
  22
12002223.13
  32
0.00
  13
-35419924.64
  23
12002220.35
  33
0.00
  0
3DFACE
  8
mg_to_dxf
  62
52
  10
-35419816.06
  20
12002099.24
  30
0.00
  11
-35419810.49
  21
12002103.42
  31
0.00
  12
-35419930.21
  22
12002216.17
  32
0.00
  13
-35419932.99
  23
12002213.39
  33
0.00
  0
3DFACE
  8
mg_to_dxf
  62
52
  10
-35419827.20
  20
12002090.89
  30
0.00
  11
-35419821.63
  21
12002095.06
  31
0.00
  12
-35419938.56
  22
12002209.21
  32
0.00
  13
-35419944.13
  23
12002205.03
  33
0.00
  0
3DFACE
  8
mg_to_dxf
  62
52
  10
-35416753.58
  20
11998013.61
  30
0.00
  11
-35416753.58
  21
11998013.61
  31
0.00
  12
-35416753.58
  22
11998002.48
  32
0.00
  13
-35416667.27
  23
11998013.61
  33
0.00
  0
3DFACE
  8
mg_to_dxf
  62
52
  10
-35416664.49
  20
11998001.08
  30
0.00
  11
-35416664.49
  21
11998001.08
  31
0.00
  12
-35416580.97
  22
11998012.22
  32
0.00
  13
-35416667.27
  23
11998013.61
  33
0.00
  0
3DFACE
  8
mg_to_dxf
  62
52
  10
-35416664.49
  20
11998001.08
  30
0.00
  11
-35416664.49
  21
11998001.08
  31
0.00
  12
-35416580.97
  22
11997999.69
  32
0.00
  13
-35416580.97
  23
11998012.22
  33
0.00
  0
3DFACE
  8
mg_to_dxf
  62
52
  10
-35416664.49
  20
11998001.08
  30
0.00
  11
-35416664.49
  21
11998001.08
  31
0.00
  12
-35416667.27
  22
11998013.61
  32
0.00
  13
-35416753.58
  23
11998002.48
  33
0.00
  0
3DFACE
  8
mg_to_dxf
  62
52
  10
-35416661.71
  20
11998023.36
  30
0.00
  11
-35416653.35
  21
11998023.36
  31
0.00
  12
-35416653.35
  22
11998173.70
  32
0.00
  13
-35416661.71
  23
11998173.70
  33
0.00
  0
3DFACE
  8
mg_to_dxf
  62
52
  10
-35416647.79
  20
11998023.36
  30
0.00
  11
-35416639.43
  21
11998023.36
  31
0.00
  12
-35416639.43
  22
11998173.70
  32
0.00
  13
-35416647.79
  23
11998173.70
  33
0.00
  0
3DFACE
  8
mg_to_dxf
  62
52
  10
-35416633.87
  20
11998023.36
  30
0.00
  11
-35416628.30
  21
11998023.36
  31
0.00
  12
-35416625.51
  22
11998173.70
  32
0.00
  13
-35416633.87
  23
11998173.70
  33
0.00
  0
3DFACE
  8
mg_to_dxf
  62
52
  10
-35416619.94
  20
11998023.36
  30
0.00
  11
-35416614.38
  21
11998023.36
  31
0.00
  12
-35416611.59
  22
11998173.70
  32
0.00
  13
-35416619.94
  23
11998173.70
  33
0.00
  0
3DFACE
  8
mg_to_dxf
  62
52
  10
-35416606.02
  20
11998023.36
  30
0.00
  11
-35416597.67
  21
11998021.96
  31
0.00
  12
-35416597.67
  22
11998173.70
  32
0.00
  13
-35416606.02
  23
11998173.70
  33
0.00
  0
3DFACE
  8
mg_to_dxf
  62
52
  10
-35416592.10
  20
11998021.96
  30
0.00
  11
-35416586.54
  21
11998021.96
  31
0.00
  12
-35416583.75
  22
11998173.70
  32
0.00
  13
-35416592.10
  23
11998173.70
  33
0.00
  0
3DFACE
  8
mg_to_dxf
  62
52
  10
-35416681.19
  20
11998023.36
  30
0.00
  11
-35416675.63
  21
11998023.36
  31
0.00
  12
-35416672.84
  22
11998173.70
  32
0.00
  13
-35416681.19
  23
11998173.70
  33
0.00
  0
3DFACE
  8
mg_to_dxf
  62
52
  10
-35416695.11
  20
11998023.36
  30
0.00
  11
-35416686.76
  21
11998023.36
  31
0.00
  12
-35416686.76
  22
11998173.70
  32
0.00
  13
-35416695.11
  23
11998173.70
  33
0.00
  0
3DFACE
  8
mg_to_dxf
  62
52
  10
-35416709.04
  20
11998023.36
  30
0.00
  11
-35416700.68
  21
11998023.36
  31
0.00
  12
-35416700.68
  22
11998173.70
  32
0.00
  13
-35416709.04
  23
11998173.70
  33
0.00
  0
3DFACE
  8
mg_to_dxf
  62
52
  10
-35416722.96
  20
11998023.36
  30
0.00
  11
-35416714.60
  21
11998023.36
  31
0.00
  12
-35416714.60
  22
11998173.70
  32
0.00
  13
-35416722.96
  23
11998173.70
  33
0.00
  0
3DFACE
  8
mg_to_dxf
  62
52
  10
-35416736.88
  20
11998023.36
  30
0.00
  11
-35416728.52
  21
11998023.36
  31
0.00
  12
-35416728.52
  22
11998173.70
  32
0.00
  13
-35416736.88
  23
11998173.70
  33
0.00
  0
3DFACE
  8
mg_to_dxf
  62
52
  10
-35416748.01
  20
11998023.36
  30
0.00
  11
-35416742.44
  21
11998023.36
  31
0.00
  12
-35416742.44
  22
11998173.70
  32
0.00
  13
-35416748.01
  23
11998173.70
  33
0.00
  0
3DFACE
  8
mg_to_dxf
  62
52
  10
-35416675.63
  20
11998214.07
  30
0.00
  11
-35416675.63
  21
11998214.07
  31
0.00
  12
-35416672.84
  22
11998222.42
  32
0.00
  13
-35416675.63
  23
11998273.92
  33
0.00
  0
3DFACE
  8
mg_to_dxf
  62
52
  10
-35416675.63
  20
11998273.92
  30
0.00
  11
-35416675.63
  21
11998273.92
  31
0.00
  12
-35416672.84
  22
11998222.42
  32
0.00
  13
-35416672.84
  23
11998273.92
  33
0.00
  0
3DFACE
  8
mg_to_dxf
  62
52
  10
-35416672.84
  20
11998222.42
  30
0.00
  11
-35416672.84
  21
11998222.42
  31
0.00
  12
-35416653.35
  22
11998214.07
  32
0.00
  13
-35416653.35
  23
11998222.42
  33
0.00
  0
3DFACE
  8
mg_to_dxf
  62
52
  10
-35416672.84
  20
11998222.42
  30
0.00
  11
-35416672.84
  21
11998222.42
  31
0.00
  12
-35416675.63
  22
11998214.07
  32
0.00
  13
-35416653.35
  23
11998214.07
  33
0.00
  0
3DFACE
  8
mg_to_dxf
  62
52
  10
-35416656.14
  20
11998294.80
  30
0.00
  11
-35416656.14
  21
11998294.80
  31
0.00
  12
-35416633.87
  22
11998331.00
  32
0.00
  13
-35416650.57
  23
11998331.00
  33
0.00
  0
3DFACE
  8
mg_to_dxf
  62
52
  10
-35416656.14
  20
11998294.80
  30
0.00
  11
-35416656.14
  21
11998294.80
  31
0.00
  12
-35416633.87
  22
11998294.80
  32
0.00
  13
-35416633.87
  23
11998331.00
  33
0.00
  0
3DFACE
  8
mg_to_dxf
  62
52
  10
-35416650.57
  20
11998342.13
  30
0.00
  11
-35416650.57
  21
11998342.13
  31
0.00
  12
-35416642.22
  22
11998354.66
  32
0.00
  13
-35416656.14
  23
11998343.53
  33
0.00
  0
3DFACE
  8
mg_to_dxf
  62
52
  10
-35416650.57
  20
11998342.13
  30
0.00
  11
-35416650.57
  21
11998342.13
  31
0.00
  12
-35416642.22
  22
11998349.09
  32
0.00
  13
-35416642.22
  23
11998354.66
  33
0.00
  0
3DFACE
  8
mg_to_dxf
  62
52
  10
-35416650.57
  20
11998342.13
  30
0.00
  11
-35416650.57
  21
11998342.13
  31
0.00
  12
-35416656.14
  22
11998343.53
  32
0.00
  13
-35416650.57
  23
11998331.00
  33
0.00
  0
3DFACE
  8
mg_to_dxf
  62
52
  10
-35416650.57
  20
11998331.00
  30
0.00
  11
-35416650.57
  21
11998331.00
  31
0.00
  12
-35416656.14
  22
11998343.53
  32
0.00
  13
-35416656.14
  23
11998294.80
  33
0.00
  0
3DFACE
  8
mg_to_dxf
  62
52
  10
-35416639.43
  20
11998303.16
  30
0.00
  11
-35416639.43
  21
11998321.25
  31
0.00
  12
-35416650.57
  22
11998321.25
  32
0.00
  13
-35416650.57
  23
11998303.16
  33
0.00
  0
3DFACE
  8
mg_to_dxf
  62
52
  10
-35416675.63
  20
11998353.27
  30
0.00
  11
-35416675.63
  21
11998353.27
  31
0.00
  12
-35416697.90
  22
11998344.92
  32
0.00
  13
-35416678.41
  23
11998344.92
  33
0.00
  0
3DFACE
  8
mg_to_dxf
  62
52
  10
-35416675.63
  20
11998353.27
  30
0.00
  11
-35416675.63
  21
11998353.27
  31
0.00
  12
-35416697.90
  22
11998353.27
  32
0.00
  13
-35416697.90
  23
11998344.92
  33
0.00
  0
3DFACE
  8
mg_to_dxf
  62
52
  10
-35416672.84
  20
11998336.56
  30
0.00
  11
-35416672.84
  21
11998336.56
  31
0.00
  12
-35416675.63
  22
11998353.27
  32
0.00
  13
-35416678.41
  23
11998344.92
  33
0.00
  0
3DFACE
  8
mg_to_dxf
  62
52
  10
-35416683.98
  20
11998329.60
  30
0.00
  11
-35416683.98
  21
11998329.60
  31
0.00
  12
-35416672.84
  22
11998336.56
  32
0.00
  13
-35416681.19
  23
11998337.96
  33
0.00
  0
3DFACE
  8
mg_to_dxf
  62
52
  10
-35416681.19
  20
11998337.96
  30
0.00
  11
-35416681.19
  21
11998337.96
  31
0.00
  12
-35416672.84
  22
11998336.56
  32
0.00
  13
-35416678.41
  23
11998344.92
  33
0.00
  0
3DFACE
  8
mg_to_dxf
  62
52
  10
-35416681.19
  20
11998303.16
  30
0.00
  11
-35416681.19
  21
11998303.16
  31
0.00
  12
-35416697.90
  22
11998294.80
  32
0.00
  13
-35416675.63
  23
11998294.80
  33
0.00
  0
3DFACE
  8
mg_to_dxf
  62
52
  10
-35416681.19
  20
11998303.16
  30
0.00
  11
-35416681.19
  21
11998303.16
  31
0.00
  12
-35416697.90
  22
11998303.16
  32
0.00
  13
-35416697.90
  23
11998294.80
  33
0.00
  0
3DFACE
  8
mg_to_dxf
  62
52
  10
-35416683.98
  20
11998329.60
  30
0.00
  11
-35416683.98
  21
11998329.60
  31
0.00
  12
-35416681.19
  22
11998337.96
  32
0.00
  13
-35416689.55
  23
11998329.60
  33
0.00
  0
3DFACE
  8
mg_to_dxf
  62
52
  10
-35416681.19
  20
11998319.86
  30
0.00
  11
-35416681.19
  21
11998319.86
  31
0.00
  12
-35416675.63
  22
11998294.80
  32
0.00
  13
-35416675.63
  23
11998319.86
  33
0.00
  0
3DFACE
  8
mg_to_dxf
  62
52
  10
-35416681.19
  20
11998319.86
  30
0.00
  11
-35416681.19
  21
11998319.86
  31
0.00
  12
-35416681.19
  22
11998303.16
  32
0.00
  13
-35416675.63
  23
11998294.80
  33
0.00
  0
3DFACE
  8
mg_to_dxf
  62
52
  10
-35416681.19
  20
11998319.86
  30
0.00
  11
-35416681.19
  21
11998319.86
  31
0.00
  12
-35416683.98
  22
11998329.60
  32
0.00
  13
-35416689.55
  23
11998329.60
  33
0.00
  0
3DFACE
  8
mg_to_dxf
  62
52
  10
-35416681.19
  20
11998319.86
  30
0.00
  11
-35416681.19
  21
11998319.86
  31
0.00
  12
-35416675.63
  22
11998319.86
  32
0.00
  13
-35416683.98
  23
11998329.60
  33
0.00
  0
3DFACE
  8
mg_to_dxf
  62
52
  10
-35416622.73
  20
11998524.49
  30
0.00
  11
-35416614.38
  21
11998524.49
  31
0.00
  12
-35416614.38
  22
11998599.66
  32
0.00
  13
-35416622.73
  23
11998599.66
  33
0.00
  0
3DFACE
  8
mg_to_dxf
  62
52
  10
-35416608.81
  20
11998524.49
  30
0.00
  11
-35416600.46
  21
11998524.49
  31
0.00
  12
-35416600.46
  22
11998599.66
  32
0.00
  13
-35416608.81
  23
11998599.66
  33
0.00
  0
3DFACE
  8
mg_to_dxf
  62
52
  10
-35416594.89
  20
11998524.49
  30
0.00
  11
-35416586.54
  21
11998524.49
  31
0.00
  12
-35416586.54
  22
11998599.66
  32
0.00
  13
-35416594.89
  23
11998599.66
  33
0.00
  0
3DFACE
  8
mg_to_dxf
  62
52
  10
-35416714.60
  20
11998524.49
  30
0.00
  11
-35416706.25
  21
11998524.49
  31
0.00
  12
-35416706.25
  22
11998599.66
  32
0.00
  13
-35416714.60
  23
11998599.66
  33
0.00
  0
3DFACE
  8
mg_to_dxf
  62
52
  10
-35416728.52
  20
11998524.49
  30
0.00
  11
-35416720.17
  21
11998524.49
  31
0.00
  12
-35416720.17
  22
11998599.66
  32
0.00
  13
-35416728.52
  23
11998599.66
  33
0.00
  0
3DFACE
  8
mg_to_dxf
  62
52
  10
-35416742.44
  20
11998524.49
  30
0.00
  11
-35416734.09
  21
11998524.49
  31
0.00
  12
-35416731.31
  22
11998599.66
  32
0.00
  13
-35416739.66
  23
11998599.66
  33
0.00
  0
3DFACE
  8
mg_to_dxf
  62
52
  10
-35416619.94
  20
11999025.62
  30
0.00
  11
-35416583.75
  21
11999025.62
  31
0.00
  12
-35416583.75
  22
11999175.96
  32
0.00
  13
-35416619.94
  23
11999175.96
  33
0.00
  0
3DFACE
  8
mg_to_dxf
  62
52
  10
-35416703.47
  20
11999025.62
  30
0.00
  11
-35416703.47
  21
11999175.96
  31
0.00
  12
-35416742.44
  22
11999175.96
  32
0.00
  13
-35416739.66
  23
11999025.62
  33
0.00
  0
3DFACE
  8
mg_to_dxf
  62
52
  10
-35416617.16
  20
11999526.76
  30
0.00
  11
-35416608.81
  21
11999526.76
  31
0.00
  12
-35416608.81
  22
11999601.93
  32
0.00
  13
-35416617.16
  23
11999601.93
  33
0.00
  0
3DFACE
  8
mg_to_dxf
  62
52
  10
-35416603.24
  20
11999526.76
  30
0.00
  11
-35416594.89
  21
11999526.76
  31
0.00
  12
-35416594.89
  22
11999601.93
  32
0.00
  13
-35416603.24
  23
11999601.93
  33
0.00
  0
3DFACE
  8
mg_to_dxf
  62
52
  10
-35416709.04
  20
11999525.36
  30
0.00
  11
-35416700.68
  21
11999525.36
  31
0.00
  12
-35416700.68
  22
11999601.93
  32
0.00
  13
-35416711.82
  23
11999601.93
  33
0.00
  0
3DFACE
  8
mg_to_dxf
  62
52
  10
-35416722.96
  20
11999525.36
  30
0.00
  11
-35416714.60
  21
11999525.36
  31
0.00
  12
-35416714.60
  22
11999601.93
  32
0.00
  13
-35416722.96
  23
11999601.93
  33
0.00
  0
3DFACE
  8
mg_to_dxf
  62
52
  10
-35416614.38
  20
12000027.89
  30
0.00
  11
-35416606.02
  21
12000027.89
  31
0.00
  12
-35416606.02
  22
12000103.06
  32
0.00
  13
-35416614.38
  23
12000103.06
  33
0.00
  0
3DFACE
  8
mg_to_dxf
  62
52
  10
-35416600.46
  20
12000027.89
  30
0.00
  11
-35416594.89
  21
12000027.89
  31
0.00
  12
-35416594.89
  22
12000103.06
  32
0.00
  13
-35416600.46
  23
12000103.06
  33
0.00
  0
3DFACE
  8
mg_to_dxf
  62
52
  10
-35416706.25
  20
12000029.28
  30
0.00
  11
-35416700.68
  21
12000029.28
  31
0.00
  12
-35416700.68
  22
12000103.06
  32
0.00
  13
-35416706.25
  23
12000103.06
  33
0.00
  0
3DFACE
  8
mg_to_dxf
  62
52
  10
-35416720.17
  20
12000029.28
  30
0.00
  11
-35416711.82
  21
12000029.28
  31
0.00
  12
-35416711.82
  22
12000103.06
  32
0.00
  13
-35416720.17
  23
12000103.06
  33
0.00
  0
3DFACE
  8
mg_to_dxf
  62
52
  10
-35416703.47
  20
12000530.41
  30
0.00
  11
-35416697.90
  21
12000530.41
  31
0.00
  12
-35416697.90
  22
12000604.19
  32
0.00
  13
-35416703.47
  23
12000604.19
  33
0.00
  0
3DFACE
  8
mg_to_dxf
  62
52
  10
-35416611.59
  20
12000530.41
  30
0.00
  11
-35416603.24
  21
12000530.41
  31
0.00
  12
-35416606.02
  22
12000604.19
  32
0.00
  13
-35416611.59
  23
12000604.19
  33
0.00
  0
3DFACE
  8
mg_to_dxf
  62
52
  10
-35416703.47
  20
12001030.16
  30
0.00
  11
-35416695.11
  21
12001030.16
  31
0.00
  12
-35416695.11
  22
12001106.72
  32
0.00
  13
-35416700.68
  23
12001106.72
  33
0.00
  0
3DFACE
  8
mg_to_dxf
  62
52
  10
-35416608.81
  20
12001031.55
  30
0.00
  11
-35416603.24
  21
12001031.55
  31
0.00
  12
-35416603.24
  22
12001105.33
  32
0.00
  13
-35416611.59
  23
12001105.33
  33
0.00
  0
3DFACE
  8
mg_to_dxf
  62
52
  10
-35416700.68
  20
12007242.81
  30
0.00
  11
-35416667.27
  21
12007242.81
  31
0.00
  12
-35416664.49
  22
12007394.55
  32
0.00
  13
-35416700.68
  23
12007394.55
  33
0.00
  0
3DFACE
  8
mg_to_dxf
  62
52
  10
-35416544.77
  20
12007394.55
  30
0.00
  11
-35416578.18
  21
12007394.55
  31
0.00
  12
-35416578.18
  22
12007242.81
  32
0.00
  13
-35416544.77
  23
12007242.81
  33
0.00
  0
3DFACE
  8
mg_to_dxf
  62
52
  10
-35416600.46
  20
12008047.41
  30
0.00
  11
-35416600.46
  21
12008047.41
  31
0.00
  12
-35416594.89
  22
12008055.76
  32
0.00
  13
-35416600.46
  23
12008107.27
  33
0.00
  0
3DFACE
  8
mg_to_dxf
  62
52
  10
-35416600.46
  20
12008107.27
  30
0.00
  11
-35416600.46
  21
12008107.27
  31
0.00
  12
-35416594.89
  22
12008055.76
  32
0.00
  13
-35416594.89
  23
12008107.27
  33
0.00
  0
3DFACE
  8
mg_to_dxf
  62
52
  10
-35416594.89
  20
12008055.76
  30
0.00
  11
-35416594.89
  21
12008055.76
  31
0.00
  12
-35416592.10
  22
12008047.41
  32
0.00
  13
-35416592.10
  23
12008055.76
  33
0.00
  0
3DFACE
  8
mg_to_dxf
  62
52
  10
-35416594.89
  20
12008055.76
  30
0.00
  11
-35416594.89
  21
12008055.76
  31
0.00
  12
-35416600.46
  22
12008047.41
  32
0.00
  13
-35416592.10
  23
12008047.41
  33
0.00
  0
3DFACE
  8
mg_to_dxf
  62
52
  10
-35416622.73
  20
12008073.86
  30
0.00
  11
-35416622.73
  21
12008073.86
  31
0.00
  12
-35416617.16
  22
12008047.41
  32
0.00
  13
-35416619.94
  23
12008069.68
  33
0.00
  0
3DFACE
  8
mg_to_dxf
  62
52
  10
-35416622.73
  20
12008073.86
  30
0.00
  11
-35416622.73
  21
12008073.86
  31
0.00
  12
-35416645.00
  22
12008047.41
  32
0.00
  13
-35416617.16
  23
12008047.41
  33
0.00
  0
3DFACE
  8
mg_to_dxf
  62
52
  10
-35416639.43
  20
12008073.86
  30
0.00
  11
-35416639.43
  21
12008073.86
  31
0.00
  12
-35416645.00
  22
12008047.41
  32
0.00
  13
-35416622.73
  23
12008073.86
  33
0.00
  0
3DFACE
  8
mg_to_dxf
  62
52
  10
-35416639.43
  20
12008073.86
  30
0.00
  11
-35416639.43
  21
12008073.86
  31
0.00
  12
-35416645.00
  22
12008071.08
  32
0.00
  13
-35416645.00
  23
12008047.41
  33
0.00
  0
3DFACE
  8
mg_to_dxf
  62
52
  10
-35416642.22
  20
12008076.64
  30
0.00
  11
-35416642.22
  21
12008076.64
  31
0.00
  12
-35416617.16
  22
12008107.27
  32
0.00
  13
-35416642.22
  23
12008107.27
  33
0.00
  0
3DFACE
  8
mg_to_dxf
  62
52
  10
-35416642.22
  20
12008076.64
  30
0.00
  11
-35416642.22
  21
12008076.64
  31
0.00
  12
-35416617.16
  22
12008078.04
  32
0.00
  13
-35416617.16
  23
12008107.27
  33
0.00
  0
3DFACE
  8
mg_to_dxf
  62
52
  10
-35416639.43
  20
12008073.86
  30
0.00
  11
-35416639.43
  21
12008073.86
  31
0.00
  12
-35416617.16
  22
12008078.04
  32
0.00
  13
-35416642.22
  23
12008076.64
  33
0.00
  0
3DFACE
  8
mg_to_dxf
  62
52
  10
-35416639.43
  20
12008073.86
  30
0.00
  11
-35416639.43
  21
12008073.86
  31
0.00
  12
-35416622.73
  22
12008073.86
  32
0.00
  13
-35416617.16
  23
12008078.04
  33
0.00
  0
3DFACE
  8
mg_to_dxf
  62
52
  10
-35416636.65
  20
12008079.43
  30
0.00
  11
-35416622.73
  21
12008079.43
  31
0.00
  12
-35416625.51
  22
12008097.52
  32
0.00
  13
-35416636.65
  23
12008097.52
  33
0.00
  0
3DFACE
  8
mg_to_dxf
  62
52
  10
-35416636.65
  20
12008057.16
  30
0.00
  11
-35416625.51
  21
12008057.16
  31
0.00
  12
-35416625.51
  22
12008068.29
  32
0.00
  13
-35416636.65
  23
12008068.29
  33
0.00
  0
3DFACE
  8
mg_to_dxf
  62
52
  10
-35416606.02
  20
12008147.64
  30
0.00
  11
-35416606.02
  21
12008147.64
  31
0.00
  12
-35416606.02
  22
12008207.50
  32
0.00
  13
-35416611.59
  23
12008183.83
  33
0.00
  0
3DFACE
  8
mg_to_dxf
  62
52
  10
-35416611.59
  20
12008183.83
  30
0.00
  11
-35416611.59
  21
12008183.83
  31
0.00
  12
-35416606.02
  22
12008207.50
  32
0.00
  13
-35416611.59
  23
12008207.50
  33
0.00
  0
3DFACE
  8
mg_to_dxf
  62
52
  10
-35416617.16
  20
12008182.44
  30
0.00
  11
-35416617.16
  21
12008182.44
  31
0.00
  12
-35416631.08
  22
12008207.50
  32
0.00
  13
-35416622.73
  23
12008183.83
  33
0.00
  0
3DFACE
  8
mg_to_dxf
  62
52
  10
-35416617.16
  20
12008182.44
  30
0.00
  11
-35416617.16
  21
12008182.44
  31
0.00
  12
-35416622.73
  22
12008207.50
  32
0.00
  13
-35416631.08
  23
12008207.50
  33
0.00
  0
3DFACE
  8
mg_to_dxf
  62
52
  10
-35416606.02
  20
12008147.64
  30
0.00
  11
-35416606.02
  21
12008147.64
  31
0.00
  12
-35416631.08
  22
12008183.83
  32
0.00
  13
-35416631.08
  23
12008147.64
  33
0.00
  0
3DFACE
  8
mg_to_dxf
  62
52
  10
-35416617.16
  20
12008182.44
  30
0.00
  11
-35416617.16
  21
12008182.44
  31
0.00
  12
-35416631.08
  22
12008183.83
  32
0.00
  13
-35416606.02
  23
12008147.64
  33
0.00
  0
3DFACE
  8
mg_to_dxf
  62
52
  10
-35416617.16
  20
12008182.44
  30
0.00
  11
-35416617.16
  21
12008182.44
  31
0.00
  12
-35416622.73
  22
12008183.83
  32
0.00
  13
-35416631.08
  23
12008183.83
  33
0.00
  0
3DFACE
  8
mg_to_dxf
  62
52
  10
-35416617.16
  20
12008182.44
  30
0.00
  11
-35416617.16
  21
12008182.44
  31
0.00
  12
-35416606.02
  22
12008147.64
  32
0.00
  13
-35416611.59
  23
12008183.83
  33
0.00
  0
3DFACE
  8
mg_to_dxf
  62
52
  10
-35416622.73
  20
12008158.77
  30
0.00
  11
-35416611.59
  21
12008158.77
  31
0.00
  12
-35416611.59
  22
12008172.69
  32
0.00
  13
-35416622.73
  23
12008172.69
  33
0.00
  0
3DFACE
  8
mg_to_dxf
  62
52
  10
-35416692.33
  20
12008247.86
  30
0.00
  11
-35416692.33
  21
12008399.60
  31
0.00
  12
-35416697.90
  22
12008399.60
  32
0.00
  13
-35416697.90
  23
12008247.86
  33
0.00
  0
3DFACE
  8
mg_to_dxf
  62
52
  10
-35416678.41
  20
12008247.86
  30
0.00
  11
-35416678.41
  21
12008399.60
  31
0.00
  12
-35416683.98
  22
12008399.60
  32
0.00
  13
-35416683.98
  23
12008247.86
  33
0.00
  0
3DFACE
  8
mg_to_dxf
  62
52
  10
-35416667.27
  20
12008247.86
  30
0.00
  11
-35416667.27
  21
12008399.60
  31
0.00
  12
-35416672.84
  22
12008399.60
  32
0.00
  13
-35416672.84
  23
12008247.86
  33
0.00
  0
3DFACE
  8
mg_to_dxf
  62
52
  10
-35416650.57
  20
12008247.86
  30
0.00
  11
-35416650.57
  21
12008399.60
  31
0.00
  12
-35416658.92
  22
12008399.60
  32
0.00
  13
-35416658.92
  23
12008247.86
  33
0.00
  0
3DFACE
  8
mg_to_dxf
  62
52
  10
-35416639.43
  20
12008247.86
  30
0.00
  11
-35416639.43
  21
12008399.60
  31
0.00
  12
-35416645.00
  22
12008399.60
  32
0.00
  13
-35416645.00
  23
12008247.86
  33
0.00
  0
3DFACE
  8
mg_to_dxf
  62
52
  10
-35416625.51
  20
12008247.86
  30
0.00
  11
-35416625.51
  21
12008399.60
  31
0.00
  12
-35416631.08
  22
12008399.60
  32
0.00
  13
-35416631.08
  23
12008247.86
  33
0.00
  0
3DFACE
  8
mg_to_dxf
  62
52
  10
-35416603.24
  20
12008247.86
  30
0.00
  11
-35416603.24
  21
12008399.60
  31
0.00
  12
-35416611.59
  22
12008399.60
  32
0.00
  13
-35416611.59
  23
12008247.86
  33
0.00
  0
3DFACE
  8
mg_to_dxf
  62
52
  10
-35416589.32
  20
12008247.86
  30
0.00
  11
-35416589.32
  21
12008399.60
  31
0.00
  12
-35416597.67
  22
12008399.60
  32
0.00
  13
-35416597.67
  23
12008247.86
  33
0.00
  0
3DFACE
  8
mg_to_dxf
  62
52
  10
-35416575.40
  20
12008247.86
  30
0.00
  11
-35416575.40
  21
12008399.60
  31
0.00
  12
-35416583.75
  22
12008399.60
  32
0.00
  13
-35416583.75
  23
12008247.86
  33
0.00
  0
3DFACE
  8
mg_to_dxf
  62
52
  10
-35416564.26
  20
12008247.86
  30
0.00
  11
-35416564.26
  21
12008398.20
  31
0.00
  12
-35416569.83
  22
12008398.20
  32
0.00
  13
-35416569.83
  23
12008247.86
  33
0.00
  0
3DFACE
  8
mg_to_dxf
  62
52
  10
-35416547.56
  20
12008247.86
  30
0.00
  11
-35416547.56
  21
12008398.20
  31
0.00
  12
-35416555.91
  22
12008398.20
  32
0.00
  13
-35416555.91
  23
12008247.86
  33
0.00
  0
3DFACE
  8
mg_to_dxf
  62
52
  10
-35416533.64
  20
12008246.47
  30
0.00
  11
-35416533.64
  21
12008398.20
  31
0.00
  12
-35416541.99
  22
12008398.20
  32
0.00
  13
-35416541.99
  23
12008246.47
  33
0.00
  0
3DFACE
  8
mg_to_dxf
  62
52
  10
-35416614.38
  20
12008410.73
  30
0.00
  11
-35416614.38
  21
12008410.73
  31
0.00
  12
-35416528.07
  22
12008409.34
  32
0.00
  13
-35416614.38
  23
12008419.08
  33
0.00
  0
3DFACE
  8
mg_to_dxf
  62
52
  10
-35416614.38
  20
12008419.08
  30
0.00
  11
-35416614.38
  21
12008419.08
  31
0.00
  12
-35416528.07
  22
12008409.34
  32
0.00
  13
-35416528.07
  23
12008419.08
  33
0.00
  0
3DFACE
  8
mg_to_dxf
  62
52
  10
-35416614.38
  20
12008410.73
  30
0.00
  11
-35416614.38
  21
12008410.73
  31
0.00
  12
-35416703.47
  22
12008420.48
  32
0.00
  13
-35416703.47
  23
12008410.73
  33
0.00
  0
3DFACE
  8
mg_to_dxf
  62
52
  10
-35416614.38
  20
12008410.73
  30
0.00
  11
-35416614.38
  21
12008410.73
  31
0.00
  12
-35416614.38
  22
12008419.08
  32
0.00
  13
-35416703.47
  23
12008420.48
  33
0.00
  0
3DFACE
  8
mg_to_dxf
  62
52
  10
-35415175.01
  20
12011435.63
  30
0.00
  11
-35415175.01
  21
12011435.63
  31
0.00
  12
-35415172.23
  22
12011425.88
  32
0.00
  13
-35415055.30
  23
12011434.24
  33
0.00
  0
3DFACE
  8
mg_to_dxf
  62
52
  10
-35415055.30
  20
12011434.24
  30
0.00
  11
-35415055.30
  21
12011434.24
  31
0.00
  12
-35415172.23
  22
12011425.88
  32
0.00
  13
-35415055.30
  23
12011424.49
  33
0.00
  0
3DFACE
  8
mg_to_dxf
  62
52
  10
-35415172.23
  20
12011425.88
  30
0.00
  11
-35415172.23
  21
12011425.88
  31
0.00
  12
-35415175.01
  22
12011435.63
  32
0.00
  13
-35415291.94
  23
12011427.28
  33
0.00
  0
3DFACE
  8
mg_to_dxf
  62
52
  10
-35415291.94
  20
12011427.28
  30
0.00
  11
-35415291.94
  21
12011427.28
  31
0.00
  12
-35415175.01
  22
12011435.63
  32
0.00
  13
-35415291.94
  23
12011437.02
  33
0.00
  0
3DFACE
  8
mg_to_dxf
  62
52
  10
-35415278.02
  20
12011265.80
  30
0.00
  11
-35415275.24
  21
12011417.53
  31
0.00
  12
-35415283.59
  22
12011417.53
  32
0.00
  13
-35415283.59
  23
12011265.80
  33
0.00
  0
3DFACE
  8
mg_to_dxf
  62
52
  10
-35415264.10
  20
12011265.80
  30
0.00
  11
-35415264.10
  21
12011416.14
  31
0.00
  12
-35415269.67
  22
12011416.14
  32
0.00
  13
-35415272.45
  23
12011265.80
  33
0.00
  0
3DFACE
  8
mg_to_dxf
  62
52
  10
-35415250.18
  20
12011265.80
  30
0.00
  11
-35415250.18
  21
12011416.14
  31
0.00
  12
-35415255.75
  22
12011416.14
  32
0.00
  13
-35415258.53
  23
12011265.80
  33
0.00
  0
3DFACE
  8
mg_to_dxf
  62
52
  10
-35415236.26
  20
12011265.80
  30
0.00
  11
-35415236.26
  21
12011416.14
  31
0.00
  12
-35415244.61
  22
12011416.14
  32
0.00
  13
-35415244.61
  23
12011265.80
  33
0.00
  0
3DFACE
  8
mg_to_dxf
  62
52
  10
-35415222.34
  20
12011265.80
  30
0.00
  11
-35415222.34
  21
12011416.14
  31
0.00
  12
-35415227.91
  22
12011416.14
  32
0.00
  13
-35415230.69
  23
12011265.80
  33
0.00
  0
3DFACE
  8
mg_to_dxf
  62
52
  10
-35415208.42
  20
12011264.41
  30
0.00
  11
-35415208.42
  21
12011416.14
  31
0.00
  12
-35415216.77
  22
12011416.14
  32
0.00
  13
-35415216.77
  23
12011264.41
  33
0.00
  0
3DFACE
  8
mg_to_dxf
  62
52
  10
-35415194.50
  20
12011264.41
  30
0.00
  11
-35415194.50
  21
12011416.14
  31
0.00
  12
-35415202.85
  22
12011416.14
  32
0.00
  13
-35415202.85
  23
12011264.41
  33
0.00
  0
3DFACE
  8
mg_to_dxf
  62
52
  10
-35415180.58
  20
12011264.41
  30
0.00
  11
-35415180.58
  21
12011414.75
  31
0.00
  12
-35415188.93
  22
12011414.75
  32
0.00
  13
-35415188.93
  23
12011264.41
  33
0.00
  0
3DFACE
  8
mg_to_dxf
  62
52
  10
-35415161.09
  20
12011264.41
  30
0.00
  11
-35415161.09
  21
12011414.75
  31
0.00
  12
-35415169.44
  22
12011414.75
  32
0.00
  13
-35415169.44
  23
12011264.41
  33
0.00
  0
3DFACE
  8
mg_to_dxf
  62
52
  10
-35415147.17
  20
12011264.41
  30
0.00
  11
-35415147.17
  21
12011414.75
  31
0.00
  12
-35415155.52
  22
12011414.75
  32
0.00
  13
-35415155.52
  23
12011264.41
  33
0.00
  0
3DFACE
  8
mg_to_dxf
  62
52
  10
-35415133.25
  20
12011264.41
  30
0.00
  11
-35415133.25
  21
12011414.75
  31
0.00
  12
-35415141.60
  22
12011414.75
  32
0.00
  13
-35415141.60
  23
12011264.41
  33
0.00
  0
3DFACE
  8
mg_to_dxf
  62
52
  10
-35415119.33
  20
12011264.41
  30
0.00
  11
-35415119.33
  21
12011414.75
  31
0.00
  12
-35415124.90
  22
12011414.75
  32
0.00
  13
-35415127.68
  23
12011264.41
  33
0.00
  0
3DFACE
  8
mg_to_dxf
  62
52
  10
-35415105.41
  20
12011264.41
  30
0.00
  11
-35415105.41
  21
12011414.75
  31
0.00
  12
-35415113.76
  22
12011414.75
  32
0.00
  13
-35415113.76
  23
12011264.41
  33
0.00
  0
3DFACE
  8
mg_to_dxf
  62
52
  10
-35415091.49
  20
12011264.41
  30
0.00
  11
-35415091.49
  21
12011414.75
  31
0.00
  12
-35415099.84
  22
12011414.75
  32
0.00
  13
-35415099.84
  23
12011264.41
  33
0.00
  0
3DFACE
  8
mg_to_dxf
  62
52
  10
-35415080.35
  20
12011264.41
  30
0.00
  11
-35415077.57
  21
12011414.75
  31
0.00
  12
-35415085.92
  22
12011414.75
  32
0.00
  13
-35415088.70
  23
12011264.41
  33
0.00
  0
3DFACE
  8
mg_to_dxf
  62
52
  10
-35415063.65
  20
12011264.41
  30
0.00
  11
-35415063.65
  21
12011414.75
  31
0.00
  12
-35415072.00
  22
12011414.75
  32
0.00
  13
-35415072.00
  23
12011264.41
  33
0.00
  0
3DFACE
  8
mg_to_dxf
  62
52
  10
-35415163.87
  20
12011225.43
  30
0.00
  11
-35415163.87
  21
12011225.43
  31
0.00
  12
-35415169.44
  22
12011215.69
  32
0.00
  13
-35415163.87
  23
12011164.18
  33
0.00
  0
3DFACE
  8
mg_to_dxf
  62
52
  10
-35415163.87
  20
12011164.18
  30
0.00
  11
-35415163.87
  21
12011164.18
  31
0.00
  12
-35415169.44
  22
12011215.69
  32
0.00
  13
-35415169.44
  23
12011164.18
  33
0.00
  0
3DFACE
  8
mg_to_dxf
  62
52
  10
-35415169.44
  20
12011215.69
  30
0.00
  11
-35415169.44
  21
12011215.69
  31
0.00
  12
-35415186.15
  22
12011225.43
  32
0.00
  13
-35415186.15
  23
12011215.69
  33
0.00
  0
3DFACE
  8
mg_to_dxf
  62
52
  10
-35415169.44
  20
12011215.69
  30
0.00
  11
-35415169.44
  21
12011215.69
  31
0.00
  12
-35415163.87
  22
12011225.43
  32
0.00
  13
-35415186.15
  23
12011225.43
  33
0.00
  0
3DFACE
  8
mg_to_dxf
  62
52
  10
-35415180.58
  20
12011109.89
  30
0.00
  11
-35415180.58
  21
12011109.89
  31
0.00
  12
-35415175.01
  22
12011083.44
  32
0.00
  13
-35415175.01
  23
12011108.50
  33
0.00
  0
3DFACE
  8
mg_to_dxf
  62
52
  10
-35415180.58
  20
12011109.89
  30
0.00
  11
-35415180.58
  21
12011109.89
  31
0.00
  12
-35415200.07
  22
12011084.83
  32
0.00
  13
-35415175.01
  23
12011083.44
  33
0.00
  0
3DFACE
  8
mg_to_dxf
  62
52
  10
-35415197.28
  20
12011111.28
  30
0.00
  11
-35415197.28
  21
12011111.28
  31
0.00
  12
-35415200.07
  22
12011084.83
  32
0.00
  13
-35415180.58
  23
12011109.89
  33
0.00
  0
3DFACE
  8
mg_to_dxf
  62
52
  10
-35415197.28
  20
12011111.28
  30
0.00
  11
-35415197.28
  21
12011111.28
  31
0.00
  12
-35415200.07
  22
12011107.11
  32
0.00
  13
-35415200.07
  23
12011084.83
  33
0.00
  0
3DFACE
  8
mg_to_dxf
  62
52
  10
-35415200.07
  20
12011114.07
  30
0.00
  11
-35415200.07
  21
12011114.07
  31
0.00
  12
-35415175.01
  22
12011144.69
  32
0.00
  13
-35415200.07
  23
12011144.69
  33
0.00
  0
3DFACE
  8
mg_to_dxf
  62
52
  10
-35415200.07
  20
12011114.07
  30
0.00
  11
-35415200.07
  21
12011114.07
  31
0.00
  12
-35415175.01
  22
12011115.46
  32
0.00
  13
-35415175.01
  23
12011144.69
  33
0.00
  0
3DFACE
  8
mg_to_dxf
  62
52
  10
-35415197.28
  20
12011111.28
  30
0.00
  11
-35415197.28
  21
12011111.28
  31
0.00
  12
-35415175.01
  22
12011115.46
  32
0.00
  13
-35415200.07
  23
12011114.07
  33
0.00
  0
3DFACE
  8
mg_to_dxf
  62
52
  10
-35415197.28
  20
12011111.28
  30
0.00
  11
-35415197.28
  21
12011111.28
  31
0.00
  12
-35415180.58
  22
12011109.89
  32
0.00
  13
-35415175.01
  23
12011115.46
  33
0.00
  0
3DFACE
  8
mg_to_dxf
  62
52
  10
-35415194.50
  20
12011115.46
  30
0.00
  11
-35415180.58
  21
12011115.46
  31
0.00
  12
-35415180.58
  22
12011134.95
  32
0.00
  13
-35415194.50
  23
12011134.95
  33
0.00
  0
3DFACE
  8
mg_to_dxf
  62
52
  10
-35415194.50
  20
12011094.58
  30
0.00
  11
-35415180.58
  21
12011094.58
  31
0.00
  12
-35415180.58
  22
12011105.72
  32
0.00
  13
-35415194.50
  23
12011105.72
  33
0.00
  0
3DFACE
  8
mg_to_dxf
  62
52
  10
-35415152.74
  20
12011094.58
  30
0.00
  11
-35415152.74
  21
12011094.58
  31
0.00
  12
-35415161.09
  22
12011143.30
  32
0.00
  13
-35415158.31
  23
12011084.83
  33
0.00
  0
3DFACE
  8
mg_to_dxf
  62
52
  10
-35415152.74
  20
12011094.58
  30
0.00
  11
-35415152.74
  21
12011094.58
  31
0.00
  12
-35415152.74
  22
12011143.30
  32
0.00
  13
-35415161.09
  23
12011143.30
  33
0.00
  0
3DFACE
  8
mg_to_dxf
  62
52
  10
-35415152.74
  20
12011094.58
  30
0.00
  11
-35415152.74
  21
12011094.58
  31
0.00
  12
-35415149.95
  22
12011084.83
  32
0.00
  13
-35415149.95
  23
12011094.58
  33
0.00
  0
3DFACE
  8
mg_to_dxf
  62
52
  10
-35415152.74
  20
12011094.58
  30
0.00
  11
-35415152.74
  21
12011094.58
  31
0.00
  12
-35415158.31
  22
12011084.83
  32
0.00
  13
-35415149.95
  23
12011084.83
  33
0.00
  0
3DFACE
  8
mg_to_dxf
  62
52
  10
-35415247.40
  20
12010839.84
  30
0.00
  11
-35415244.61
  21
12010915.01
  31
0.00
  12
-35415252.96
  22
12010915.01
  32
0.00
  13
-35415252.96
  23
12010839.84
  33
0.00
  0
3DFACE
  8
mg_to_dxf
  62
52
  10
-35415233.48
  20
12010839.84
  30
0.00
  11
-35415233.48
  21
12010915.01
  31
0.00
  12
-35415239.04
  22
12010915.01
  32
0.00
  13
-35415239.04
  23
12010839.84
  33
0.00
  0
3DFACE
  8
mg_to_dxf
  62
52
  10
-35415222.34
  20
12010839.84
  30
0.00
  11
-35415219.56
  21
12010915.01
  31
0.00
  12
-35415227.91
  22
12010915.01
  32
0.00
  13
-35415227.91
  23
12010839.84
  33
0.00
  0
3DFACE
  8
mg_to_dxf
  62
52
  10
-35415127.68
  20
12010838.44
  30
0.00
  11
-35415124.90
  21
12010913.61
  31
0.00
  12
-35415133.25
  22
12010913.61
  32
0.00
  13
-35415133.25
  23
12010838.44
  33
0.00
  0
3DFACE
  8
mg_to_dxf
  62
52
  10
-35415113.76
  20
12010838.44
  30
0.00
  11
-35415113.76
  21
12010913.61
  31
0.00
  12
-35415119.33
  22
12010913.61
  32
0.00
  13
-35415122.11
  23
12010838.44
  33
0.00
  0
3DFACE
  8
mg_to_dxf
  62
52
  10
-35415099.84
  20
12010838.44
  30
0.00
  11
-35415099.84
  21
12010913.61
  31
0.00
  12
-35415105.41
  22
12010913.61
  32
0.00
  13
-35415105.41
  23
12010838.44
  33
0.00
  0
3DFACE
  8
mg_to_dxf
  62
52
  10
-35415258.53
  20
12010262.14
  30
0.00
  11
-35415222.34
  21
12010262.14
  31
0.00
  12
-35415219.56
  22
12010412.48
  32
0.00
  13
-35415258.53
  23
12010412.48
  33
0.00
  0
3DFACE
  8
mg_to_dxf
  62
52
  10
-35415102.62
  20
12010412.48
  30
0.00
  11
-35415136.03
  21
12010412.48
  31
0.00
  12
-35415136.03
  22
12010262.14
  32
0.00
  13
-35415102.62
  23
12010262.14
  33
0.00
  0
3DFACE
  8
mg_to_dxf
  62
52
  10
-35415236.26
  20
12009836.18
  30
0.00
  11
-35415236.26
  21
12009911.35
  31
0.00
  12
-35415241.83
  22
12009911.35
  32
0.00
  13
-35415244.61
  23
12009836.18
  33
0.00
  0
3DFACE
  8
mg_to_dxf
  62
52
  10
-35415225.12
  20
12009836.18
  30
0.00
  11
-35415225.12
  21
12009911.35
  31
0.00
  12
-35415230.69
  22
12009911.35
  32
0.00
  13
-35415233.48
  23
12009836.18
  33
0.00
  0
3DFACE
  8
mg_to_dxf
  62
52
  10
-35415133.25
  20
12009836.18
  30
0.00
  11
-35415133.25
  21
12009909.96
  31
0.00
  12
-35415138.82
  22
12009909.96
  32
0.00
  13
-35415138.82
  23
12009836.18
  33
0.00
  0
3DFACE
  8
mg_to_dxf
  62
52
  10
-35415119.33
  20
12009836.18
  30
0.00
  11
-35415119.33
  21
12009909.96
  31
0.00
  12
-35415124.90
  22
12009909.96
  32
0.00
  13
-35415124.90
  23
12009836.18
  33
0.00
  0
3DFACE
  8
mg_to_dxf
  62
52
  10
-35415239.04
  20
12009335.04
  30
0.00
  11
-35415239.04
  21
12009410.21
  31
0.00
  12
-35415247.40
  22
12009410.21
  32
0.00
  13
-35415247.40
  23
12009335.04
  33
0.00
  0
3DFACE
  8
mg_to_dxf
  62
52
  10
-35415227.91
  20
12009335.04
  30
0.00
  11
-35415227.91
  21
12009410.21
  31
0.00
  12
-35415233.48
  22
12009410.21
  32
0.00
  13
-35415236.26
  23
12009335.04
  33
0.00
  0
3DFACE
  8
mg_to_dxf
  62
52
  10
-35415133.25
  20
12009333.65
  30
0.00
  11
-35415133.25
  21
12009410.21
  31
0.00
  12
-35415141.60
  22
12009410.21
  32
0.00
  13
-35415141.60
  23
12009333.65
  33
0.00
  0
3DFACE
  8
mg_to_dxf
  62
52
  10
-35415122.11
  20
12009333.65
  30
0.00
  11
-35415122.11
  21
12009410.21
  31
0.00
  12
-35415127.68
  22
12009410.21
  32
0.00
  13
-35415127.68
  23
12009333.65
  33
0.00
  0
3DFACE
  8
mg_to_dxf
  62
52
  10
-35415236.26
  20
12008907.69
  30
0.00
  11
-35415236.26
  21
12008833.91
  31
0.00
  12
-35415230.69
  22
12008833.91
  32
0.00
  13
-35415230.69
  23
12008907.69
  33
0.00
  0
3DFACE
  8
mg_to_dxf
  62
52
  10
-35415138.82
  20
12008833.91
  30
0.00
  11
-35415136.03
  21
12008907.69
  31
0.00
  12
-35415144.39
  22
12008907.69
  32
0.00
  13
-35415144.39
  23
12008833.91
  33
0.00
  0
3DFACE
  8
mg_to_dxf
  62
52
  10
-35415138.82
  20
12008332.78
  30
0.00
  11
-35415138.82
  21
12008407.95
  31
0.00
  12
-35415144.39
  22
12008407.95
  32
0.00
  13
-35415147.17
  23
12008332.78
  33
0.00
  0
3DFACE
  8
mg_to_dxf
  62
52
  10
-35415233.48
  20
12008405.16
  30
0.00
  11
-35415239.04
  21
12008405.16
  31
0.00
  12
-35415239.04
  22
12008332.78
  32
0.00
  13
-35415233.48
  23
12008332.78
  33
0.00
  0
3DFACE
  8
mg_to_dxf
  62
52
  10
-35415124.90
  20
11997996.91
  30
0.00
  11
-35415124.90
  21
11997996.91
  31
0.00
  12
-35415124.90
  22
11998006.65
  32
0.00
  13
-35415241.83
  23
11997996.91
  33
0.00
  0
3DFACE
  8
mg_to_dxf
  62
52
  10
-35415241.83
  20
11997996.91
  30
0.00
  11
-35415241.83
  21
11997996.91
  31
0.00
  12
-35415241.83
  22
11998006.65
  32
0.00
  13
-35415358.76
  23
11997998.30
  33
0.00
  0
3DFACE
  8
mg_to_dxf
  62
52
  10
-35415358.76
  20
11997998.30
  30
0.00
  11
-35415358.76
  21
11997998.30
  31
0.00
  12
-35415241.83
  22
11998006.65
  32
0.00
  13
-35415358.76
  23
11998008.04
  33
0.00
  0
3DFACE
  8
mg_to_dxf
  62
52
  10
-35415241.83
  20
11998006.65
  30
0.00
  11
-35415241.83
  21
11998006.65
  31
0.00
  12
-35415241.83
  22
11997996.91
  32
0.00
  13
-35415124.90
  23
11998006.65
  33
0.00
  0
3DFACE
  8
mg_to_dxf
  62
52
  10
-35415138.82
  20
11998015.00
  30
0.00
  11
-35415133.25
  21
11998015.00
  31
0.00
  12
-35415133.25
  22
11998168.13
  32
0.00
  13
-35415138.82
  23
11998168.13
  33
0.00
  0
3DFACE
  8
mg_to_dxf
  62
52
  10
-35415152.74
  20
11998015.00
  30
0.00
  11
-35415147.17
  21
11998015.00
  31
0.00
  12
-35415147.17
  22
11998168.13
  32
0.00
  13
-35415152.74
  23
11998168.13
  33
0.00
  0
3DFACE
  8
mg_to_dxf
  62
52
  10
-35415166.66
  20
11998015.00
  30
0.00
  11
-35415161.09
  21
11998015.00
  31
0.00
  12
-35415158.31
  22
11998168.13
  32
0.00
  13
-35415166.66
  23
11998168.13
  33
0.00
  0
3DFACE
  8
mg_to_dxf
  62
52
  10
-35415180.58
  20
11998015.00
  30
0.00
  11
-35415172.23
  21
11998015.00
  31
0.00
  12
-35415172.23
  22
11998168.13
  32
0.00
  13
-35415177.79
  23
11998168.13
  33
0.00
  0
3DFACE
  8
mg_to_dxf
  62
52
  10
-35415194.50
  20
11998015.00
  30
0.00
  11
-35415188.93
  21
11998015.00
  31
0.00
  12
-35415186.15
  22
11998168.13
  32
0.00
  13
-35415194.50
  23
11998168.13
  33
0.00
  0
3DFACE
  8
mg_to_dxf
  62
52
  10
-35415208.42
  20
11998015.00
  30
0.00
  11
-35415202.85
  21
11998015.00
  31
0.00
  12
-35415200.07
  22
11998168.13
  32
0.00
  13
-35415208.42
  23
11998168.13
  33
0.00
  0
3DFACE
  8
mg_to_dxf
  62
52
  10
-35415222.34
  20
11998015.00
  30
0.00
  11
-35415216.77
  21
11998015.00
  31
0.00
  12
-35415213.99
  22
11998168.13
  32
0.00
  13
-35415222.34
  23
11998168.13
  33
0.00
  0
3DFACE
  8
mg_to_dxf
  62
52
  10
-35415233.48
  20
11998015.00
  30
0.00
  11
-35415227.91
  21
11998015.00
  31
0.00
  12
-35415227.91
  22
11998168.13
  32
0.00
  13
-35415233.48
  23
11998168.13
  33
0.00
  0
3DFACE
  8
mg_to_dxf
  62
52
  10
-35415255.75
  20
11998015.00
  30
0.00
  11
-35415250.18
  21
11998015.00
  31
0.00
  12
-35415250.18
  22
11998168.13
  32
0.00
  13
-35415255.75
  23
11998168.13
  33
0.00
  0
3DFACE
  8
mg_to_dxf
  62
52
  10
-35415269.67
  20
11998015.00
  30
0.00
  11
-35415261.32
  21
11998015.00
  31
0.00
  12
-35415261.32
  22
11998168.13
  32
0.00
  13
-35415269.67
  23
11998168.13
  33
0.00
  0
3DFACE
  8
mg_to_dxf
  62
52
  10
-35415283.59
  20
11998015.00
  30
0.00
  11
-35415275.24
  21
11998015.00
  31
0.00
  12
-35415275.24
  22
11998168.13
  32
0.00
  13
-35415280.81
  23
11998168.13
  33
0.00
  0
3DFACE
  8
mg_to_dxf
  62
52
  10
-35415297.51
  20
11998016.40
  30
0.00
  11
-35415289.16
  21
11998016.40
  31
0.00
  12
-35415289.16
  22
11998168.13
  32
0.00
  13
-35415297.51
  23
11998168.13
  33
0.00
  0
3DFACE
  8
mg_to_dxf
  62
52
  10
-35415308.65
  20
11998016.40
  30
0.00
  11
-35415303.08
  21
11998016.40
  31
0.00
  12
-35415303.08
  22
11998168.13
  32
0.00
  13
-35415308.65
  23
11998168.13
  33
0.00
  0
3DFACE
  8
mg_to_dxf
  62
52
  10
-35415322.57
  20
11998016.40
  30
0.00
  11
-35415317.00
  21
11998016.40
  31
0.00
  12
-35415317.00
  22
11998168.13
  32
0.00
  13
-35415322.57
  23
11998168.13
  33
0.00
  0
3DFACE
  8
mg_to_dxf
  62
52
  10
-35415336.49
  20
11998016.40
  30
0.00
  11
-35415330.92
  21
11998016.40
  31
0.00
  12
-35415330.92
  22
11998168.13
  32
0.00
  13
-35415336.49
  23
11998168.13
  33
0.00
  0
3DFACE
  8
mg_to_dxf
  62
52
  10
-35415350.41
  20
11998016.40
  30
0.00
  11
-35415344.84
  21
11998016.40
  31
0.00
  12
-35415344.84
  22
11998168.13
  32
0.00
  13
-35415350.41
  23
11998168.13
  33
0.00
  0
3DFACE
  8
mg_to_dxf
  62
52
  10
-35415252.96
  20
11998266.96
  30
0.00
  11
-35415252.96
  21
11998266.96
  31
0.00
  12
-35415252.96
  22
11998208.50
  32
0.00
  13
-35415247.40
  23
11998233.55
  33
0.00
  0
3DFACE
  8
mg_to_dxf
  62
52
  10
-35415247.40
  20
11998233.55
  30
0.00
  11
-35415247.40
  21
11998233.55
  31
0.00
  12
-35415252.96
  22
11998208.50
  32
0.00
  13
-35415247.40
  23
11998208.50
  33
0.00
  0
3DFACE
  8
mg_to_dxf
  62
52
  10
-35415241.83
  20
11998233.55
  30
0.00
  11
-35415241.83
  21
11998233.55
  31
0.00
  12
-35415227.91
  22
11998208.50
  32
0.00
  13
-35415236.26
  23
11998234.95
  33
0.00
  0
3DFACE
  8
mg_to_dxf
  62
52
  10
-35415241.83
  20
11998233.55
  30
0.00
  11
-35415241.83
  21
11998233.55
  31
0.00
  12
-35415236.26
  22
11998208.50
  32
0.00
  13
-35415227.91
  23
11998208.50
  33
0.00
  0
3DFACE
  8
mg_to_dxf
  62
52
  10
-35415236.26
  20
11998234.95
  30
0.00
  11
-35415236.26
  21
11998234.95
  31
0.00
  12
-35415227.91
  22
11998266.96
  32
0.00
  13
-35415252.96
  23
11998266.96
  33
0.00
  0
3DFACE
  8
mg_to_dxf
  62
52
  10
-35415236.26
  20
11998234.95
  30
0.00
  11
-35415236.26
  21
11998234.95
  31
0.00
  12
-35415227.91
  22
11998234.95
  32
0.00
  13
-35415227.91
  23
11998266.96
  33
0.00
  0
3DFACE
  8
mg_to_dxf
  62
52
  10
-35415236.26
  20
11998234.95
  30
0.00
  11
-35415236.26
  21
11998234.95
  31
0.00
  12
-35415252.96
  22
11998266.96
  32
0.00
  13
-35415241.83
  23
11998233.55
  33
0.00
  0
3DFACE
  8
mg_to_dxf
  62
52
  10
-35415241.83
  20
11998233.55
  30
0.00
  11
-35415241.83
  21
11998233.55
  31
0.00
  12
-35415252.96
  22
11998266.96
  32
0.00
  13
-35415247.40
  23
11998233.55
  33
0.00
  0
3DFACE
  8
mg_to_dxf
  62
52
  10
-35415233.48
  20
11998241.91
  30
0.00
  11
-35415233.48
  21
11998257.22
  31
0.00
  12
-35415247.40
  22
11998257.22
  32
0.00
  13
-35415247.40
  23
11998241.91
  33
0.00
  0
3DFACE
  8
mg_to_dxf
  62
52
  10
-35415230.69
  20
11998289.24
  30
0.00
  11
-35415230.69
  21
11998289.24
  31
0.00
  12
-35415208.42
  22
11998324.04
  32
0.00
  13
-35415227.91
  23
11998324.04
  33
0.00
  0
3DFACE
  8
mg_to_dxf
  62
52
  10
-35415230.69
  20
11998289.24
  30
0.00
  11
-35415230.69
  21
11998289.24
  31
0.00
  12
-35415208.42
  22
11998287.84
  32
0.00
  13
-35415208.42
  23
11998324.04
  33
0.00
  0
3DFACE
  8
mg_to_dxf
  62
52
  10
-35415227.91
  20
11998335.17
  30
0.00
  11
-35415227.91
  21
11998335.17
  31
0.00
  12
-35415216.77
  22
11998349.09
  32
0.00
  13
-35415230.69
  23
11998336.56
  33
0.00
  0
3DFACE
  8
mg_to_dxf
  62
52
  10
-35415227.91
  20
11998335.17
  30
0.00
  11
-35415227.91
  21
11998335.17
  31
0.00
  12
-35415216.77
  22
11998342.13
  32
0.00
  13
-35415216.77
  23
11998349.09
  33
0.00
  0
3DFACE
  8
mg_to_dxf
  62
52
  10
-35415227.91
  20
11998335.17
  30
0.00
  11
-35415227.91
  21
11998335.17
  31
0.00
  12
-35415230.69
  22
11998336.56
  32
0.00
  13
-35415227.91
  23
11998324.04
  33
0.00
  0
3DFACE
  8
mg_to_dxf
  62
52
  10
-35415227.91
  20
11998324.04
  30
0.00
  11
-35415227.91
  21
11998324.04
  31
0.00
  12
-35415230.69
  22
11998336.56
  32
0.00
  13
-35415230.69
  23
11998289.24
  33
0.00
  0
3DFACE
  8
mg_to_dxf
  62
52
  10
-35415213.99
  20
11998297.59
  30
0.00
  11
-35415213.99
  21
11998317.08
  31
0.00
  12
-35415227.91
  22
11998315.68
  32
0.00
  13
-35415227.91
  23
11998297.59
  33
0.00
  0
3DFACE
  8
mg_to_dxf
  62
52
  10
-35415252.96
  20
11998333.78
  30
0.00
  11
-35415252.96
  21
11998333.78
  31
0.00
  12
-35415247.40
  22
11998331.00
  32
0.00
  13
-35415247.40
  23
11998349.09
  33
0.00
  0
3DFACE
  8
mg_to_dxf
  62
52
  10
-35415250.18
  20
11998287.84
  30
0.00
  11
-35415250.18
  21
11998287.84
  31
0.00
  12
-35415250.18
  22
11998317.08
  32
0.00
  13
-35415255.75
  23
11998324.04
  33
0.00
  0
3DFACE
  8
mg_to_dxf
  62
52
  10
-35415247.40
  20
11998349.09
  30
0.00
  11
-35415247.40
  21
11998349.09
  31
0.00
  12
-35415272.45
  22
11998339.35
  32
0.00
  13
-35415255.75
  23
11998339.35
  33
0.00
  0
3DFACE
  8
mg_to_dxf
  62
52
  10
-35415247.40
  20
11998349.09
  30
0.00
  11
-35415247.40
  21
11998349.09
  31
0.00
  12
-35415272.45
  22
11998349.09
  32
0.00
  13
-35415272.45
  23
11998339.35
  33
0.00
  0
3DFACE
  8
mg_to_dxf
  62
52
  10
-35415247.40
  20
11998349.09
  30
0.00
  11
-35415247.40
  21
11998349.09
  31
0.00
  12
-35415255.75
  22
11998339.35
  32
0.00
  13
-35415252.96
  23
11998333.78
  33
0.00
  0
3DFACE
  8
mg_to_dxf
  62
52
  10
-35415255.75
  20
11998324.04
  30
0.00
  11
-35415255.75
  21
11998324.04
  31
0.00
  12
-35415247.40
  22
11998331.00
  32
0.00
  13
-35415252.96
  23
11998333.78
  33
0.00
  0
3DFACE
  8
mg_to_dxf
  62
52
  10
-35415255.75
  20
11998298.98
  30
0.00
  11
-35415255.75
  21
11998298.98
  31
0.00
  12
-35415275.24
  22
11998287.84
  32
0.00
  13
-35415250.18
  23
11998287.84
  33
0.00
  0
3DFACE
  8
mg_to_dxf
  62
52
  10
-35415255.75
  20
11998298.98
  30
0.00
  11
-35415255.75
  21
11998298.98
  31
0.00
  12
-35415275.24
  22
11998298.98
  32
0.00
  13
-35415275.24
  23
11998287.84
  33
0.00
  0
3DFACE
  8
mg_to_dxf
  62
52
  10
-35415255.75
  20
11998324.04
  30
0.00
  11
-35415255.75
  21
11998324.04
  31
0.00
  12
-35415252.96
  22
11998333.78
  32
0.00
  13
-35415264.10
  23
11998324.04
  33
0.00
  0
3DFACE
  8
mg_to_dxf
  62
52
  10
-35415255.75
  20
11998314.29
  30
0.00
  11
-35415255.75
  21
11998314.29
  31
0.00
  12
-35415255.75
  22
11998298.98
  32
0.00
  13
-35415250.18
  23
11998287.84
  33
0.00
  0
3DFACE
  8
mg_to_dxf
  62
52
  10
-35415255.75
  20
11998314.29
  30
0.00
  11
-35415255.75
  21
11998314.29
  31
0.00
  12
-35415250.18
  22
11998287.84
  32
0.00
  13
-35415255.75
  23
11998324.04
  33
0.00
  0
3DFACE
  8
mg_to_dxf
  62
52
  10
-35415255.75
  20
11998314.29
  30
0.00
  11
-35415255.75
  21
11998314.29
  31
0.00
  12
-35415255.75
  22
11998324.04
  32
0.00
  13
-35415264.10
  23
11998324.04
  33
0.00
  0
3DFACE
  8
mg_to_dxf
  62
52
  10
-35415308.65
  20
11998517.53
  30
0.00
  11
-35415308.65
  21
11998594.09
  31
0.00
  12
-35415317.00
  22
11998594.09
  32
0.00
  13
-35415317.00
  23
11998517.53
  33
0.00
  0
3DFACE
  8
mg_to_dxf
  62
52
  10
-35415294.73
  20
11998517.53
  30
0.00
  11
-35415294.73
  21
11998594.09
  31
0.00
  12
-35415303.08
  22
11998594.09
  32
0.00
  13
-35415303.08
  23
11998517.53
  33
0.00
  0
3DFACE
  8
mg_to_dxf
  62
52
  10
-35415280.81
  20
11998517.53
  30
0.00
  11
-35415283.59
  21
11998594.09
  31
0.00
  12
-35415289.16
  22
11998594.09
  32
0.00
  13
-35415289.16
  23
11998517.53
  33
0.00
  0
3DFACE
  8
mg_to_dxf
  62
52
  10
-35415188.93
  20
11998517.53
  30
0.00
  11
-35415188.93
  21
11998592.70
  31
0.00
  12
-35415197.28
  22
11998592.70
  32
0.00
  13
-35415197.28
  23
11998517.53
  33
0.00
  0
3DFACE
  8
mg_to_dxf
  62
52
  10
-35415175.01
  20
11998517.53
  30
0.00
  11
-35415175.01
  21
11998592.70
  31
0.00
  12
-35415183.36
  22
11998592.70
  32
0.00
  13
-35415183.36
  23
11998517.53
  33
0.00
  0
3DFACE
  8
mg_to_dxf
  62
52
  10
-35415163.87
  20
11998517.53
  30
0.00
  11
-35415163.87
  21
11998592.70
  31
0.00
  12
-35415169.44
  22
11998592.70
  32
0.00
  13
-35415169.44
  23
11998516.14
  33
0.00
  0
3DFACE
  8
mg_to_dxf
  62
52
  10
-35415278.02
  20
11999167.61
  30
0.00
  11
-35415314.21
  21
11999167.61
  31
0.00
  12
-35415314.21
  22
11999018.66
  32
0.00
  13
-35415278.02
  23
11999018.66
  33
0.00
  0
3DFACE
  8
mg_to_dxf
  62
52
  10
-35415194.50
  20
11999017.27
  30
0.00
  11
-35415155.52
  21
11999017.27
  31
0.00
  12
-35415155.52
  22
11999167.61
  32
0.00
  13
-35415194.50
  23
11999167.61
  33
0.00
  0
3DFACE
  8
mg_to_dxf
  62
52
  10
-35415289.16
  20
11999518.40
  30
0.00
  11
-35415289.16
  21
11999593.57
  31
0.00
  12
-35415297.51
  22
11999593.57
  32
0.00
  13
-35415297.51
  23
11999518.40
  33
0.00
  0
3DFACE
  8
mg_to_dxf
  62
52
  10
-35415278.02
  20
11999518.40
  30
0.00
  11
-35415275.24
  21
11999593.57
  31
0.00
  12
-35415283.59
  22
11999593.57
  32
0.00
  13
-35415283.59
  23
11999518.40
  33
0.00
  0
3DFACE
  8
mg_to_dxf
  62
52
  10
-35415183.36
  20
11999518.40
  30
0.00
  11
-35415183.36
  21
11999592.18
  31
0.00
  12
-35415188.93
  22
11999592.18
  32
0.00
  13
-35415191.72
  23
11999518.40
  33
0.00
  0
3DFACE
  8
mg_to_dxf
  62
52
  10
-35415172.23
  20
11999518.40
  30
0.00
  11
-35415169.44
  21
11999592.18
  31
0.00
  12
-35415177.79
  22
11999592.18
  32
0.00
  13
-35415177.79
  23
11999518.40
  33
0.00
  0
3DFACE
  8
mg_to_dxf
  62
52
  10
-35415286.37
  20
12000018.15
  30
0.00
  11
-35415286.37
  21
12000093.31
  31
0.00
  12
-35415294.73
  22
12000093.31
  32
0.00
  13
-35415294.73
  23
12000018.15
  33
0.00
  0
3DFACE
  8
mg_to_dxf
  62
52
  10
-35415275.24
  20
12000018.15
  30
0.00
  11
-35415272.45
  21
12000093.31
  31
0.00
  12
-35415280.81
  22
12000093.31
  32
0.00
  13
-35415280.81
  23
12000018.15
  33
0.00
  0
3DFACE
  8
mg_to_dxf
  62
52
  10
-35415180.58
  20
12000016.75
  30
0.00
  11
-35415180.58
  21
12000091.92
  31
0.00
  12
-35415188.93
  22
12000091.92
  32
0.00
  13
-35415188.93
  23
12000016.75
  33
0.00
  0
3DFACE
  8
mg_to_dxf
  62
52
  10
-35415166.66
  20
12000016.75
  30
0.00
  11
-35415166.66
  21
12000091.92
  31
0.00
  12
-35415175.01
  22
12000091.92
  32
0.00
  13
-35415175.01
  23
12000016.75
  33
0.00
  0
3DFACE
  8
mg_to_dxf
  62
52
  10
-35415278.02
  20
12000517.89
  30
0.00
  11
-35415272.45
  21
12000517.89
  31
0.00
  12
-35415272.45
  22
12000593.06
  32
0.00
  13
-35415278.02
  23
12000593.06
  33
0.00
  0
3DFACE
  8
mg_to_dxf
  62
52
  10
-35415186.15
  20
12000517.89
  30
0.00
  11
-35415180.58
  21
12000517.89
  31
0.00
  12
-35415180.58
  22
12000591.66
  32
0.00
  13
-35415186.15
  23
12000591.66
  33
0.00
  0
3DFACE
  8
mg_to_dxf
  62
52
  10
-35415269.67
  20
12001020.41
  30
0.00
  11
-35415269.67
  21
12001094.19
  31
0.00
  12
-35415275.24
  22
12001094.19
  32
0.00
  13
-35415278.02
  23
12001020.41
  33
0.00
  0
3DFACE
  8
mg_to_dxf
  62
52
  10
-35415175.01
  20
12001019.02
  30
0.00
  11
-35415175.01
  21
12001092.80
  31
0.00
  12
-35415183.36
  22
12001092.80
  32
0.00
  13
-35415183.36
  23
12001019.02
  33
0.00
  0
3DFACE
  8
mg_to_dxf
  62
52
  10
-35407449.21
  20
12011396.65
  30
0.00
  11
-35407449.21
  21
12011396.65
  31
0.00
  12
-35407563.36
  22
12011407.79
  32
0.00
  13
-35407563.36
  23
12011396.65
  33
0.00
  0
3DFACE
  8
mg_to_dxf
  62
52
  10
-35407563.36
  20
12011396.65
  30
0.00
  11
-35407563.36
  21
12011396.65
  31
0.00
  12
-35407563.36
  22
12011407.79
  32
0.00
  13
-35407683.07
  23
12011398.04
  33
0.00
  0
3DFACE
  8
mg_to_dxf
  62
52
  10
-35407683.07
  20
12011398.04
  30
0.00
  11
-35407683.07
  21
12011398.04
  31
0.00
  12
-35407563.36
  22
12011407.79
  32
0.00
  13
-35407683.07
  23
12011407.79
  33
0.00
  0
3DFACE
  8
mg_to_dxf
  62
52
  10
-35407563.36
  20
12011407.79
  30
0.00
  11
-35407563.36
  21
12011407.79
  31
0.00
  12
-35407449.21
  22
12011396.65
  32
0.00
  13
-35407446.42
  23
12011407.79
  33
0.00
  0
3DFACE
  8
mg_to_dxf
  62
52
  10
-35407669.15
  20
12011237.96
  30
0.00
  11
-35407666.37
  21
12011388.30
  31
0.00
  12
-35407674.72
  22
12011388.30
  32
0.00
  13
-35407674.72
  23
12011237.96
  33
0.00
  0
3DFACE
  8
mg_to_dxf
  62
52
  10
-35407655.23
  20
12011237.96
  30
0.00
  11
-35407652.45
  21
12011388.30
  31
0.00
  12
-35407660.80
  22
12011388.30
  32
0.00
  13
-35407660.80
  23
12011237.96
  33
0.00
  0
3DFACE
  8
mg_to_dxf
  62
52
  10
-35407641.31
  20
12011236.57
  30
0.00
  11
-35407638.53
  21
12011388.30
  31
0.00
  12
-35407646.88
  22
12011388.30
  32
0.00
  13
-35407646.88
  23
12011236.57
  33
0.00
  0
3DFACE
  8
mg_to_dxf
  62
52
  10
-35407627.39
  20
12011236.57
  30
0.00
  11
-35407627.39
  21
12011386.91
  31
0.00
  12
-35407632.96
  22
12011386.91
  32
0.00
  13
-35407632.96
  23
12011236.57
  33
0.00
  0
3DFACE
  8
mg_to_dxf
  62
52
  10
-35407613.47
  20
12011236.57
  30
0.00
  11
-35407610.68
  21
12011386.91
  31
0.00
  12
-35407616.25
  22
12011386.91
  32
0.00
  13
-35407619.04
  23
12011236.57
  33
0.00
  0
3DFACE
  8
mg_to_dxf
  62
52
  10
-35407599.55
  20
12011236.57
  30
0.00
  11
-35407596.76
  21
12011386.91
  31
0.00
  12
-35407605.12
  22
12011386.91
  32
0.00
  13
-35407605.12
  23
12011236.57
  33
0.00
  0
3DFACE
  8
mg_to_dxf
  62
52
  10
-35407585.63
  20
12011236.57
  30
0.00
  11
-35407582.84
  21
12011386.91
  31
0.00
  12
-35407591.20
  22
12011386.91
  32
0.00
  13
-35407591.20
  23
12011236.57
  33
0.00
  0
3DFACE
  8
mg_to_dxf
  62
52
  10
-35407571.71
  20
12011236.57
  30
0.00
  11
-35407571.71
  21
12011386.91
  31
0.00
  12
-35407577.28
  22
12011386.91
  32
0.00
  13
-35407580.06
  23
12011236.57
  33
0.00
  0
3DFACE
  8
mg_to_dxf
  62
52
  10
-35407552.22
  20
12011236.57
  30
0.00
  11
-35407552.22
  21
12011386.91
  31
0.00
  12
-35407557.79
  22
12011386.91
  32
0.00
  13
-35407560.57
  23
12011236.57
  33
0.00
  0
3DFACE
  8
mg_to_dxf
  62
52
  10
-35407538.30
  20
12011236.57
  30
0.00
  11
-35407538.30
  21
12011386.91
  31
0.00
  12
-35407543.87
  22
12011386.91
  32
0.00
  13
-35407543.87
  23
12011236.57
  33
0.00
  0
3DFACE
  8
mg_to_dxf
  62
52
  10
-35407524.38
  20
12011236.57
  30
0.00
  11
-35407524.38
  21
12011386.91
  31
0.00
  12
-35407529.95
  22
12011386.91
  32
0.00
  13
-35407532.73
  23
12011236.57
  33
0.00
  0
3DFACE
  8
mg_to_dxf
  62
52
  10
-35407510.46
  20
12011236.57
  30
0.00
  11
-35407510.46
  21
12011386.91
  31
0.00
  12
-35407516.03
  22
12011386.91
  32
0.00
  13
-35407518.81
  23
12011236.57
  33
0.00
  0
3DFACE
  8
mg_to_dxf
  62
52
  10
-35407496.54
  20
12011236.57
  30
0.00
  11
-35407496.54
  21
12011386.91
  31
0.00
  12
-35407502.11
  22
12011386.91
  32
0.00
  13
-35407504.89
  23
12011236.57
  33
0.00
  0
3DFACE
  8
mg_to_dxf
  62
52
  10
-35407485.40
  20
12011236.57
  30
0.00
  11
-35407482.62
  21
12011386.91
  31
0.00
  12
-35407488.19
  22
12011386.91
  32
0.00
  13
-35407490.97
  23
12011236.57
  33
0.00
  0
3DFACE
  8
mg_to_dxf
  62
52
  10
-35407471.48
  20
12011236.57
  30
0.00
  11
-35407468.70
  21
12011386.91
  31
0.00
  12
-35407477.05
  22
12011386.91
  32
0.00
  13
-35407477.05
  23
12011236.57
  33
0.00
  0
3DFACE
  8
mg_to_dxf
  62
52
  10
-35407454.78
  20
12011236.57
  30
0.00
  11
-35407454.78
  21
12011386.91
  31
0.00
  12
-35407460.34
  22
12011386.91
  32
0.00
  13
-35407463.13
  23
12011236.57
  33
0.00
  0
3DFACE
  8
mg_to_dxf
  62
52
  10
-35407555.00
  20
12011137.73
  30
0.00
  11
-35407555.00
  21
12011137.73
  31
0.00
  12
-35407555.00
  22
12011196.20
  32
0.00
  13
-35407560.57
  23
12011172.53
  33
0.00
  0
3DFACE
  8
mg_to_dxf
  62
52
  10
-35407560.57
  20
12011172.53
  30
0.00
  11
-35407560.57
  21
12011172.53
  31
0.00
  12
-35407555.00
  22
12011196.20
  32
0.00
  13
-35407560.57
  23
12011196.20
  33
0.00
  0
3DFACE
  8
mg_to_dxf
  62
52
  10
-35407577.28
  20
12011137.73
  30
0.00
  11
-35407577.28
  21
12011137.73
  31
0.00
  12
-35407555.00
  22
12011137.73
  32
0.00
  13
-35407563.36
  23
12011172.53
  33
0.00
  0
3DFACE
  8
mg_to_dxf
  62
52
  10
-35407563.36
  20
12011172.53
  30
0.00
  11
-35407563.36
  21
12011172.53
  31
0.00
  12
-35407555.00
  22
12011137.73
  32
0.00
  13
-35407560.57
  23
12011172.53
  33
0.00
  0
3DFACE
  8
mg_to_dxf
  62
52
  10
-35407566.14
  20
12011172.53
  30
0.00
  11
-35407566.14
  21
12011172.53
  31
0.00
  12
-35407577.28
  22
12011196.20
  32
0.00
  13
-35407571.71
  23
12011171.14
  33
0.00
  0
3DFACE
  8
mg_to_dxf
  62
52
  10
-35407566.14
  20
12011172.53
  30
0.00
  11
-35407566.14
  21
12011172.53
  31
0.00
  12
-35407571.71
  22
12011196.20
  32
0.00
  13
-35407577.28
  23
12011196.20
  33
0.00
  0
3DFACE
  8
mg_to_dxf
  62
52
  10
-35407571.71
  20
12011171.14
  30
0.00
  11
-35407571.71
  21
12011171.14
  31
0.00
  12
-35407577.28
  22
12011171.14
  32
0.00
  13
-35407577.28
  23
12011137.73
  33
0.00
  0
3DFACE
  8
mg_to_dxf
  62
52
  10
-35407571.71
  20
12011171.14
  30
0.00
  11
-35407571.71
  21
12011171.14
  31
0.00
  12
-35407563.36
  22
12011172.53
  32
0.00
  13
-35407566.14
  23
12011172.53
  33
0.00
  0
3DFACE
  8
mg_to_dxf
  62
52
  10
-35407571.71
  20
12011171.14
  30
0.00
  11
-35407571.71
  21
12011171.14
  31
0.00
  12
-35407577.28
  22
12011137.73
  32
0.00
  13
-35407563.36
  23
12011172.53
  33
0.00
  0
3DFACE
  8
mg_to_dxf
  62
52
  10
-35407560.57
  20
12011161.40
  30
0.00
  11
-35407571.71
  21
12011161.40
  31
0.00
  12
-35407571.71
  22
12011146.08
  32
0.00
  13
-35407560.57
  23
12011146.08
  33
0.00
  0
3DFACE
  8
mg_to_dxf
  62
52
  10
-35407555.00
  20
12011069.52
  30
0.00
  11
-35407555.00
  21
12011069.52
  31
0.00
  12
-35407557.79
  22
12011115.46
  32
0.00
  13
-35407557.79
  23
12011058.39
  33
0.00
  0
3DFACE
  8
mg_to_dxf
  62
52
  10
-35407555.00
  20
12011069.52
  30
0.00
  11
-35407555.00
  21
12011069.52
  31
0.00
  12
-35407552.22
  22
12011115.46
  32
0.00
  13
-35407557.79
  23
12011115.46
  33
0.00
  0
3DFACE
  8
mg_to_dxf
  62
52
  10
-35407555.00
  20
12011069.52
  30
0.00
  11
-35407555.00
  21
12011069.52
  31
0.00
  12
-35407549.44
  22
12011059.78
  32
0.00
  13
-35407549.44
  23
12011068.13
  33
0.00
  0
3DFACE
  8
mg_to_dxf
  62
52
  10
-35407555.00
  20
12011069.52
  30
0.00
  11
-35407555.00
  21
12011069.52
  31
0.00
  12
-35407557.79
  22
12011058.39
  32
0.00
  13
-35407549.44
  23
12011059.78
  33
0.00
  0
3DFACE
  8
mg_to_dxf
  62
52
  10
-35407593.98
  20
12011066.74
  30
0.00
  11
-35407593.98
  21
12011066.74
  31
0.00
  12
-35407582.84
  22
12011116.85
  32
0.00
  13
-35407602.33
  23
12011056.99
  33
0.00
  0
3DFACE
  8
mg_to_dxf
  62
52
  10
-35407593.98
  20
12011066.74
  30
0.00
  11
-35407593.98
  21
12011066.74
  31
0.00
  12
-35407577.28
  22
12011116.85
  32
0.00
  13
-35407582.84
  23
12011116.85
  33
0.00
  0
3DFACE
  8
mg_to_dxf
  62
52
  10
-35407593.98
  20
12011066.74
  30
0.00
  11
-35407593.98
  21
12011066.74
  31
0.00
  12
-35407574.49
  22
12011056.99
  32
0.00
  13
-35407574.49
  23
12011065.35
  33
0.00
  0
3DFACE
  8
mg_to_dxf
  62
52
  10
-35407593.98
  20
12011066.74
  30
0.00
  11
-35407593.98
  21
12011066.74
  31
0.00
  12
-35407602.33
  22
12011056.99
  32
0.00
  13
-35407574.49
  23
12011056.99
  33
0.00
  0
3DFACE
  8
mg_to_dxf
  62
52
  10
-35407635.74
  20
12010810.60
  30
0.00
  11
-35407635.74
  21
12010885.77
  31
0.00
  12
-35407644.09
  22
12010885.77
  32
0.00
  13
-35407644.09
  23
12010810.60
  33
0.00
  0
3DFACE
  8
mg_to_dxf
  62
52
  10
-35407621.82
  20
12010810.60
  30
0.00
  11
-35407621.82
  21
12010885.77
  31
0.00
  12
-35407630.17
  22
12010885.77
  32
0.00
  13
-35407630.17
  23
12010810.60
  33
0.00
  0
3DFACE
  8
mg_to_dxf
  62
52
  10
-35407610.68
  20
12010810.60
  30
0.00
  11
-35407610.68
  21
12010885.77
  31
0.00
  12
-35407619.04
  22
12010885.77
  32
0.00
  13
-35407619.04
  23
12010810.60
  33
0.00
  0
3DFACE
  8
mg_to_dxf
  62
52
  10
-35407516.03
  20
12010809.21
  30
0.00
  11
-35407516.03
  21
12010884.38
  31
0.00
  12
-35407524.38
  22
12010884.38
  32
0.00
  13
-35407524.38
  23
12010809.21
  33
0.00
  0
3DFACE
  8
mg_to_dxf
  62
52
  10
-35407504.89
  20
12010810.60
  30
0.00
  11
-35407504.89
  21
12010884.38
  31
0.00
  12
-35407513.24
  22
12010884.38
  32
0.00
  13
-35407513.24
  23
12010810.60
  33
0.00
  0
3DFACE
  8
mg_to_dxf
  62
52
  10
-35407490.97
  20
12010810.60
  30
0.00
  11
-35407490.97
  21
12010884.38
  31
0.00
  12
-35407499.32
  22
12010884.38
  32
0.00
  13
-35407499.32
  23
12010810.60
  33
0.00
  0
3DFACE
  8
mg_to_dxf
  62
52
  10
-35407490.97
  20
12010232.91
  30
0.00
  11
-35407490.97
  21
12010383.25
  31
0.00
  12
-35407527.16
  22
12010383.25
  32
0.00
  13
-35407529.95
  23
12010232.91
  33
0.00
  0
3DFACE
  8
mg_to_dxf
  62
52
  10
-35407610.68
  20
12010383.25
  30
0.00
  11
-35407649.66
  21
12010383.25
  31
0.00
  12
-35407649.66
  22
12010234.30
  32
0.00
  13
-35407613.47
  23
12010234.30
  33
0.00
  0
3DFACE
  8
mg_to_dxf
  62
52
  10
-35407630.17
  20
12009808.34
  30
0.00
  11
-35407627.39
  21
12009883.51
  31
0.00
  12
-35407635.74
  22
12009883.51
  32
0.00
  13
-35407635.74
  23
12009808.34
  33
0.00
  0
3DFACE
  8
mg_to_dxf
  62
52
  10
-35407616.25
  20
12009808.34
  30
0.00
  11
-35407616.25
  21
12009883.51
  31
0.00
  12
-35407621.82
  22
12009883.51
  32
0.00
  13
-35407621.82
  23
12009808.34
  33
0.00
  0
3DFACE
  8
mg_to_dxf
  62
52
  10
-35407524.38
  20
12009806.95
  30
0.00
  11
-35407521.59
  21
12009882.12
  31
0.00
  12
-35407529.95
  22
12009882.12
  32
0.00
  13
-35407529.95
  23
12009806.95
  33
0.00
  0
3DFACE
  8
mg_to_dxf
  62
52
  10
-35407510.46
  20
12009806.95
  30
0.00
  11
-35407510.46
  21
12009882.12
  31
0.00
  12
-35407516.03
  22
12009882.12
  32
0.00
  13
-35407516.03
  23
12009806.95
  33
0.00
  0
3DFACE
  8
mg_to_dxf
  62
52
  10
-35407632.96
  20
12009307.20
  30
0.00
  11
-35407630.17
  21
12009380.98
  31
0.00
  12
-35407638.53
  22
12009380.98
  32
0.00
  13
-35407638.53
  23
12009307.20
  33
0.00
  0
3DFACE
  8
mg_to_dxf
  62
52
  10
-35407619.04
  20
12009307.20
  30
0.00
  11
-35407619.04
  21
12009380.98
  31
0.00
  12
-35407624.61
  22
12009380.98
  32
0.00
  13
-35407627.39
  23
12009307.20
  33
0.00
  0
3DFACE
  8
mg_to_dxf
  62
52
  10
-35407527.16
  20
12009305.81
  30
0.00
  11
-35407524.38
  21
12009379.59
  31
0.00
  12
-35407532.73
  22
12009380.98
  32
0.00
  13
-35407532.73
  23
12009305.81
  33
0.00
  0
3DFACE
  8
mg_to_dxf
  62
52
  10
-35407513.24
  20
12009305.81
  30
0.00
  11
-35407513.24
  21
12009379.59
  31
0.00
  12
-35407518.81
  22
12009379.59
  32
0.00
  13
-35407518.81
  23
12009305.81
  33
0.00
  0
3DFACE
  8
mg_to_dxf
  62
52
  10
-35407627.39
  20
12008804.68
  30
0.00
  11
-35407621.82
  21
12008804.68
  31
0.00
  12
-35407621.82
  22
12008879.85
  32
0.00
  13
-35407627.39
  23
12008879.85
  33
0.00
  0
3DFACE
  8
mg_to_dxf
  62
52
  10
-35407527.16
  20
12008806.07
  30
0.00
  11
-35407529.95
  21
12008879.85
  31
0.00
  12
-35407535.51
  22
12008879.85
  32
0.00
  13
-35407535.51
  23
12008806.07
  33
0.00
  0
3DFACE
  8
mg_to_dxf
  62
52
  10
-35407630.17
  20
12008304.94
  30
0.00
  11
-35407624.61
  21
12008303.55
  31
0.00
  12
-35407621.82
  22
12008378.72
  32
0.00
  13
-35407630.17
  23
12008378.72
  33
0.00
  0
3DFACE
  8
mg_to_dxf
  62
52
  10
-35407532.73
  20
12008303.55
  30
0.00
  11
-35407532.73
  21
12008377.32
  31
0.00
  12
-35407538.30
  22
12008377.32
  32
0.00
  13
-35407538.30
  23
12008303.55
  33
0.00
  0
3DFACE
  8
mg_to_dxf
  62
52
  10
-35407660.80
  20
12000998.14
  30
0.00
  11
-35407660.80
  21
12001073.31
  31
0.00
  12
-35407669.15
  22
12001073.31
  32
0.00
  13
-35407669.15
  23
12000998.14
  33
0.00
  0
3DFACE
  8
mg_to_dxf
  62
52
  10
-35407568.92
  20
12000996.75
  30
0.00
  11
-35407566.14
  21
12001071.92
  31
0.00
  12
-35407577.28
  22
12001071.92
  32
0.00
  13
-35407577.28
  23
12000996.75
  33
0.00
  0
3DFACE
  8
mg_to_dxf
  62
52
  10
-35407663.58
  20
12000497.01
  30
0.00
  11
-35407663.58
  21
12000573.57
  31
0.00
  12
-35407671.93
  22
12000573.57
  32
0.00
  13
-35407671.93
  23
12000497.01
  33
0.00
  0
3DFACE
  8
mg_to_dxf
  62
52
  10
-35407571.71
  20
12000570.78
  30
0.00
  11
-35407577.28
  21
12000570.78
  31
0.00
  12
-35407577.28
  22
12000495.61
  32
0.00
  13
-35407571.71
  23
12000495.61
  33
0.00
  0
3DFACE
  8
mg_to_dxf
  62
52
  10
-35407680.29
  20
11999995.87
  30
0.00
  11
-35407680.29
  21
12000071.04
  31
0.00
  12
-35407688.64
  22
12000071.04
  32
0.00
  13
-35407688.64
  23
11999995.87
  33
0.00
  0
3DFACE
  8
mg_to_dxf
  62
52
  10
-35407666.37
  20
11999995.87
  30
0.00
  11
-35407666.37
  21
12000071.04
  31
0.00
  12
-35407674.72
  22
12000071.04
  32
0.00
  13
-35407674.72
  23
11999995.87
  33
0.00
  0
3DFACE
  8
mg_to_dxf
  62
52
  10
-35407571.71
  20
11999995.87
  30
0.00
  11
-35407571.71
  21
12000071.04
  31
0.00
  12
-35407580.06
  22
12000071.04
  32
0.00
  13
-35407580.06
  23
11999995.87
  33
0.00
  0
3DFACE
  8
mg_to_dxf
  62
52
  10
-35407560.57
  20
11999994.48
  30
0.00
  11
-35407560.57
  21
12000069.65
  31
0.00
  12
-35407568.92
  22
12000069.65
  32
0.00
  13
-35407568.92
  23
11999994.48
  33
0.00
  0
3DFACE
  8
mg_to_dxf
  62
52
  10
-35407683.07
  20
11999493.35
  30
0.00
  11
-35407683.07
  21
11999569.91
  31
0.00
  12
-35407688.64
  22
11999569.91
  32
0.00
  13
-35407688.64
  23
11999493.35
  33
0.00
  0
3DFACE
  8
mg_to_dxf
  62
52
  10
-35407669.15
  20
11999493.35
  30
0.00
  11
-35407669.15
  21
11999569.91
  31
0.00
  12
-35407677.50
  22
11999569.91
  32
0.00
  13
-35407677.50
  23
11999493.35
  33
0.00
  0
3DFACE
  8
mg_to_dxf
  62
52
  10
-35407577.28
  20
11999493.35
  30
0.00
  11
-35407577.28
  21
11999569.91
  31
0.00
  12
-35407582.84
  22
11999569.91
  32
0.00
  13
-35407582.84
  23
11999493.35
  33
0.00
  0
3DFACE
  8
mg_to_dxf
  62
52
  10
-35407563.36
  20
11999493.35
  30
0.00
  11
-35407563.36
  21
11999569.91
  31
0.00
  12
-35407571.71
  22
11999569.91
  32
0.00
  13
-35407571.71
  23
11999493.35
  33
0.00
  0
3DFACE
  8
mg_to_dxf
  62
52
  10
-35407671.93
  20
11999142.55
  30
0.00
  11
-35407708.13
  21
11999142.55
  31
0.00
  12
-35407710.91
  22
11998992.21
  32
0.00
  13
-35407671.93
  23
11998992.21
  33
0.00
  0
3DFACE
  8
mg_to_dxf
  62
52
  10
-35407549.44
  20
11998992.21
  30
0.00
  11
-35407549.44
  21
11999142.55
  31
0.00
  12
-35407585.63
  22
11999142.55
  32
0.00
  13
-35407588.41
  23
11998992.21
  33
0.00
  0
3DFACE
  8
mg_to_dxf
  62
52
  10
-35407708.13
  20
11998491.08
  30
0.00
  11
-35407702.56
  21
11998491.08
  31
0.00
  12
-35407699.78
  22
11998566.25
  32
0.00
  13
-35407708.13
  23
11998566.25
  33
0.00
  0
3DFACE
  8
mg_to_dxf
  62
52
  10
-35407696.99
  20
11998491.08
  30
0.00
  11
-35407688.64
  21
11998491.08
  31
0.00
  12
-35407688.64
  22
11998566.25
  32
0.00
  13
-35407696.99
  23
11998566.25
  33
0.00
  0
3DFACE
  8
mg_to_dxf
  62
52
  10
-35407683.07
  20
11998491.08
  30
0.00
  11
-35407674.72
  21
11998491.08
  31
0.00
  12
-35407674.72
  22
11998566.25
  32
0.00
  13
-35407683.07
  23
11998566.25
  33
0.00
  0
3DFACE
  8
mg_to_dxf
  62
52
  10
-35407591.20
  20
11998489.69
  30
0.00
  11
-35407582.84
  21
11998489.69
  31
0.00
  12
-35407582.84
  22
11998566.25
  32
0.00
  13
-35407591.20
  23
11998566.25
  33
0.00
  0
3DFACE
  8
mg_to_dxf
  62
52
  10
-35407577.28
  20
11998489.69
  30
0.00
  11
-35407568.92
  21
11998489.69
  31
0.00
  12
-35407568.92
  22
11998566.25
  32
0.00
  13
-35407577.28
  23
11998566.25
  33
0.00
  0
3DFACE
  8
mg_to_dxf
  62
52
  10
-35407563.36
  20
11998489.69
  30
0.00
  11
-35407555.00
  21
11998489.69
  31
0.00
  12
-35407555.00
  22
11998566.25
  32
0.00
  13
-35407563.36
  23
11998566.25
  33
0.00
  0
3DFACE
  8
mg_to_dxf
  62
52
  10
-35407607.90
  20
11998269.75
  30
0.00
  11
-35407607.90
  21
11998269.75
  31
0.00
  12
-35407624.61
  22
11998260.00
  32
0.00
  13
-35407599.55
  23
11998260.00
  33
0.00
  0
3DFACE
  8
mg_to_dxf
  62
52
  10
-35407607.90
  20
11998269.75
  30
0.00
  11
-35407607.90
  21
11998269.75
  31
0.00
  12
-35407624.61
  22
11998269.75
  32
0.00
  13
-35407624.61
  23
11998260.00
  33
0.00
  0
3DFACE
  8
mg_to_dxf
  62
52
  10
-35407619.04
  20
11998311.51
  30
0.00
  11
-35407619.04
  21
11998311.51
  31
0.00
  12
-35407599.55
  22
11998319.86
  32
0.00
  13
-35407624.61
  23
11998319.86
  33
0.00
  0
3DFACE
  8
mg_to_dxf
  62
52
  10
-35407619.04
  20
11998311.51
  30
0.00
  11
-35407619.04
  21
11998311.51
  31
0.00
  12
-35407599.55
  22
11998310.12
  32
0.00
  13
-35407599.55
  23
11998319.86
  33
0.00
  0
3DFACE
  8
mg_to_dxf
  62
52
  10
-35407605.12
  20
11998292.02
  30
0.00
  11
-35407605.12
  21
11998292.02
  31
0.00
  12
-35407599.55
  22
11998260.00
  32
0.00
  13
-35407599.55
  23
11998303.16
  33
0.00
  0
3DFACE
  8
mg_to_dxf
  62
52
  10
-35407605.12
  20
11998292.02
  30
0.00
  11
-35407605.12
  21
11998292.02
  31
0.00
  12
-35407607.90
  22
11998269.75
  32
0.00
  13
-35407599.55
  23
11998260.00
  33
0.00
  0
3DFACE
  8
mg_to_dxf
  62
52
  10
-35407619.04
  20
11998303.16
  30
0.00
  11
-35407619.04
  21
11998303.16
  31
0.00
  12
-35407624.61
  22
11998319.86
  32
0.00
  13
-35407624.61
  23
11998292.02
  33
0.00
  0
3DFACE
  8
mg_to_dxf
  62
52
  10
-35407619.04
  20
11998303.16
  30
0.00
  11
-35407619.04
  21
11998303.16
  31
0.00
  12
-35407619.04
  22
11998311.51
  32
0.00
  13
-35407624.61
  23
11998319.86
  33
0.00
  0
3DFACE
  8
mg_to_dxf
  62
52
  10
-35407619.04
  20
11998303.16
  30
0.00
  11
-35407619.04
  21
11998303.16
  31
0.00
  12
-35407605.12
  22
11998292.02
  32
0.00
  13
-35407599.55
  23
11998303.16
  33
0.00
  0
3DFACE
  8
mg_to_dxf
  62
52
  10
-35407619.04
  20
11998303.16
  30
0.00
  11
-35407619.04
  21
11998303.16
  31
0.00
  12
-35407624.61
  22
11998292.02
  32
0.00
  13
-35407605.12
  23
11998292.02
  33
0.00
  0
3DFACE
  8
mg_to_dxf
  62
52
  10
-35407644.09
  20
11998319.86
  30
0.00
  11
-35407644.09
  21
11998319.86
  31
0.00
  12
-35407666.37
  22
11998310.12
  32
0.00
  13
-35407646.88
  23
11998310.12
  33
0.00
  0
3DFACE
  8
mg_to_dxf
  62
52
  10
-35407644.09
  20
11998319.86
  30
0.00
  11
-35407644.09
  21
11998319.86
  31
0.00
  12
-35407666.37
  22
11998319.86
  32
0.00
  13
-35407666.37
  23
11998310.12
  33
0.00
  0
3DFACE
  8
mg_to_dxf
  62
52
  10
-35407644.09
  20
11998301.76
  30
0.00
  11
-35407644.09
  21
11998301.76
  31
0.00
  12
-35407646.88
  22
11998310.12
  32
0.00
  13
-35407646.88
  23
11998304.55
  33
0.00
  0
3DFACE
  8
mg_to_dxf
  62
52
  10
-35407644.09
  20
11998301.76
  30
0.00
  11
-35407644.09
  21
11998301.76
  31
0.00
  12
-35407644.09
  22
11998319.86
  32
0.00
  13
-35407646.88
  23
11998310.12
  33
0.00
  0
3DFACE
  8
mg_to_dxf
  62
52
  10
-35407646.88
  20
11998269.75
  30
0.00
  11
-35407646.88
  21
11998269.75
  31
0.00
  12
-35407666.37
  22
11998261.40
  32
0.00
  13
-35407641.31
  23
11998261.40
  33
0.00
  0
3DFACE
  8
mg_to_dxf
  62
52
  10
-35407646.88
  20
11998269.75
  30
0.00
  11
-35407646.88
  21
11998269.75
  31
0.00
  12
-35407666.37
  22
11998269.75
  32
0.00
  13
-35407666.37
  23
11998261.40
  33
0.00
  0
3DFACE
  8
mg_to_dxf
  62
52
  10
-35407649.66
  20
11998297.59
  30
0.00
  11
-35407649.66
  21
11998297.59
  31
0.00
  12
-35407646.88
  22
11998304.55
  32
0.00
  13
-35407658.01
  23
11998296.20
  33
0.00
  0
3DFACE
  8
mg_to_dxf
  62
52
  10
-35407649.66
  20
11998297.59
  30
0.00
  11
-35407649.66
  21
11998297.59
  31
0.00
  12
-35407644.09
  22
11998301.76
  32
0.00
  13
-35407646.88
  23
11998304.55
  33
0.00
  0
3DFACE
  8
mg_to_dxf
  62
52
  10
-35407646.88
  20
11998285.06
  30
0.00
  11
-35407646.88
  21
11998285.06
  31
0.00
  12
-35407641.31
  22
11998261.40
  32
0.00
  13
-35407641.31
  23
11998289.24
  33
0.00
  0
3DFACE
  8
mg_to_dxf
  62
52
  10
-35407646.88
  20
11998285.06
  30
0.00
  11
-35407646.88
  21
11998285.06
  31
0.00
  12
-35407646.88
  22
11998269.75
  32
0.00
  13
-35407641.31
  23
11998261.40
  33
0.00
  0
3DFACE
  8
mg_to_dxf
  62
52
  10
-35407646.88
  20
11998285.06
  30
0.00
  11
-35407646.88
  21
11998285.06
  31
0.00
  12
-35407649.66
  22
11998297.59
  32
0.00
  13
-35407658.01
  23
11998296.20
  33
0.00
  0
3DFACE
  8
mg_to_dxf
  62
52
  10
-35407646.88
  20
11998285.06
  30
0.00
  11
-35407646.88
  21
11998285.06
  31
0.00
  12
-35407641.31
  22
11998289.24
  32
0.00
  13
-35407649.66
  23
11998297.59
  33
0.00
  0
3DFACE
  8
mg_to_dxf
  62
52
  10
-35407646.88
  20
11998179.26
  30
0.00
  11
-35407646.88
  21
11998179.26
  31
0.00
  12
-35407641.31
  22
11998189.01
  32
0.00
  13
-35407646.88
  23
11998239.12
  33
0.00
  0
3DFACE
  8
mg_to_dxf
  62
52
  10
-35407646.88
  20
11998239.12
  30
0.00
  11
-35407646.88
  21
11998239.12
  31
0.00
  12
-35407641.31
  22
11998189.01
  32
0.00
  13
-35407641.31
  23
11998239.12
  33
0.00
  0
3DFACE
  8
mg_to_dxf
  62
52
  10
-35407641.31
  20
11998189.01
  30
0.00
  11
-35407641.31
  21
11998189.01
  31
0.00
  12
-35407621.82
  22
11998179.26
  32
0.00
  13
-35407621.82
  23
11998189.01
  33
0.00
  0
3DFACE
  8
mg_to_dxf
  62
52
  10
-35407641.31
  20
11998189.01
  30
0.00
  11
-35407641.31
  21
11998189.01
  31
0.00
  12
-35407646.88
  22
11998179.26
  32
0.00
  13
-35407621.82
  23
11998179.26
  33
0.00
  0
3DFACE
  8
mg_to_dxf
  62
52
  10
-35407532.73
  20
11997988.56
  30
0.00
  11
-35407524.38
  21
11997988.56
  31
0.00
  12
-35407524.38
  22
11998138.90
  32
0.00
  13
-35407532.73
  23
11998138.90
  33
0.00
  0
3DFACE
  8
mg_to_dxf
  62
52
  10
-35407546.65
  20
11997988.56
  30
0.00
  11
-35407541.08
  21
11997988.56
  31
0.00
  12
-35407538.30
  22
11998138.90
  32
0.00
  13
-35407546.65
  23
11998138.90
  33
0.00
  0
3DFACE
  8
mg_to_dxf
  62
52
  10
-35407560.57
  20
11997988.56
  30
0.00
  11
-35407552.22
  21
11997988.56
  31
0.00
  12
-35407552.22
  22
11998138.90
  32
0.00
  13
-35407560.57
  23
11998138.90
  33
0.00
  0
3DFACE
  8
mg_to_dxf
  62
52
  10
-35407574.49
  20
11997988.56
  30
0.00
  11
-35407566.14
  21
11997988.56
  31
0.00
  12
-35407566.14
  22
11998138.90
  32
0.00
  13
-35407571.71
  23
11998138.90
  33
0.00
  0
3DFACE
  8
mg_to_dxf
  62
52
  10
-35407588.41
  20
11997988.56
  30
0.00
  11
-35407580.06
  21
11997988.56
  31
0.00
  12
-35407580.06
  22
11998138.90
  32
0.00
  13
-35407585.63
  23
11998138.90
  33
0.00
  0
3DFACE
  8
mg_to_dxf
  62
52
  10
-35407602.33
  20
11997988.56
  30
0.00
  11
-35407593.98
  21
11997988.56
  31
0.00
  12
-35407591.20
  22
11998138.90
  32
0.00
  13
-35407599.55
  23
11998138.90
  33
0.00
  0
3DFACE
  8
mg_to_dxf
  62
52
  10
-35407613.47
  20
11997988.56
  30
0.00
  11
-35407605.12
  21
11997988.56
  31
0.00
  12
-35407605.12
  22
11998138.90
  32
0.00
  13
-35407613.47
  23
11998138.90
  33
0.00
  0
3DFACE
  8
mg_to_dxf
  62
52
  10
-35407627.39
  20
11997988.56
  30
0.00
  11
-35407619.04
  21
11997988.56
  31
0.00
  12
-35407619.04
  22
11998138.90
  32
0.00
  13
-35407627.39
  23
11998138.90
  33
0.00
  0
3DFACE
  8
mg_to_dxf
  62
52
  10
-35407649.66
  20
11997988.56
  30
0.00
  11
-35407641.31
  21
11997988.56
  31
0.00
  12
-35407638.53
  22
11998138.90
  32
0.00
  13
-35407646.88
  23
11998138.90
  33
0.00
  0
3DFACE
  8
mg_to_dxf
  62
52
  10
-35407663.58
  20
11997988.56
  30
0.00
  11
-35407655.23
  21
11997988.56
  31
0.00
  12
-35407652.45
  22
11998138.90
  32
0.00
  13
-35407660.80
  23
11998138.90
  33
0.00
  0
3DFACE
  8
mg_to_dxf
  62
52
  10
-35407677.50
  20
11997988.56
  30
0.00
  11
-35407669.15
  21
11997988.56
  31
0.00
  12
-35407669.15
  22
11998138.90
  32
0.00
  13
-35407677.50
  23
11998138.90
  33
0.00
  0
3DFACE
  8
mg_to_dxf
  62
52
  10
-35407691.42
  20
11997988.56
  30
0.00
  11
-35407683.07
  21
11997988.56
  31
0.00
  12
-35407683.07
  22
11998138.90
  32
0.00
  13
-35407691.42
  23
11998138.90
  33
0.00
  0
3DFACE
  8
mg_to_dxf
  62
52
  10
-35407705.34
  20
11997988.56
  30
0.00
  11
-35407696.99
  21
11997988.56
  31
0.00
  12
-35407694.21
  22
11998138.90
  32
0.00
  13
-35407702.56
  23
11998140.29
  33
0.00
  0
3DFACE
  8
mg_to_dxf
  62
52
  10
-35407719.26
  20
11997988.56
  30
0.00
  11
-35407710.91
  21
11997988.56
  31
0.00
  12
-35407708.13
  22
11998140.29
  32
0.00
  13
-35407716.48
  23
11998140.29
  33
0.00
  0
3DFACE
  8
mg_to_dxf
  62
52
  10
-35407730.40
  20
11997988.56
  30
0.00
  11
-35407722.05
  21
11997988.56
  31
0.00
  12
-35407722.05
  22
11998140.29
  32
0.00
  13
-35407730.40
  23
11998140.29
  33
0.00
  0
3DFACE
  8
mg_to_dxf
  62
52
  10
-35407744.32
  20
11997988.56
  30
0.00
  11
-35407735.97
  21
11997988.56
  31
0.00
  12
-35407735.97
  22
11998140.29
  32
0.00
  13
-35407744.32
  23
11998140.29
  33
0.00
  0
3DFACE
  8
mg_to_dxf
  62
52
  10
-35407635.74
  20
11997978.81
  30
0.00
  11
-35407635.74
  21
11997978.81
  31
0.00
  12
-35407635.74
  22
11997969.07
  32
0.00
  13
-35407518.81
  23
11997978.81
  33
0.00
  0
3DFACE
  8
mg_to_dxf
  62
52
  10
-35407518.81
  20
11997978.81
  30
0.00
  11
-35407518.81
  21
11997978.81
  31
0.00
  12
-35407635.74
  22
11997969.07
  32
0.00
  13
-35407518.81
  23
11997969.07
  33
0.00
  0
3DFACE
  8
mg_to_dxf
  62
52
  10
-35407635.74
  20
11997969.07
  30
0.00
  11
-35407635.74
  21
11997969.07
  31
0.00
  12
-35407752.67
  22
11997980.20
  32
0.00
  13
-35407752.67
  23
11997969.07
  33
0.00
  0
3DFACE
  8
mg_to_dxf
  62
52
  10
-35407635.74
  20
11997969.07
  30
0.00
  11
-35407635.74
  21
11997969.07
  31
0.00
  12
-35407635.74
  22
11997978.81
  32
0.00
  13
-35407752.67
  23
11997980.20
  33
0.00
  0
3DFACE
  8
mg_to_dxf
  62
52
  10
-35406207.51
  20
11997973.24
  30
0.00
  11
-35406207.51
  21
11997973.24
  31
0.00
  12
-35406207.51
  22
11997963.50
  32
0.00
  13
-35406121.21
  23
11997973.24
  33
0.00
  0
3DFACE
  8
mg_to_dxf
  62
52
  10
-35406121.21
  20
11997973.24
  30
0.00
  11
-35406121.21
  21
11997973.24
  31
0.00
  12
-35406207.51
  22
11997963.50
  32
0.00
  13
-35406121.21
  23
11997963.50
  33
0.00
  0
3DFACE
  8
mg_to_dxf
  62
52
  10
-35406207.51
  20
11997963.50
  30
0.00
  11
-35406207.51
  21
11997963.50
  31
0.00
  12
-35406207.51
  22
11997973.24
  32
0.00
  13
-35406296.60
  23
11997963.50
  33
0.00
  0
3DFACE
  8
mg_to_dxf
  62
52
  10
-35406296.60
  20
11997963.50
  30
0.00
  11
-35406296.60
  21
11997963.50
  31
0.00
  12
-35406207.51
  22
11997973.24
  32
0.00
  13
-35406296.60
  23
11997973.24
  33
0.00
  0
3DFACE
  8
mg_to_dxf
  62
52
  10
-35406291.03
  20
11997982.99
  30
0.00
  11
-35406282.68
  21
11997982.99
  31
0.00
  12
-35406282.68
  22
11998133.33
  32
0.00
  13
-35406288.25
  23
11998133.33
  33
0.00
  0
3DFACE
  8
mg_to_dxf
  62
52
  10
-35406277.11
  20
11997984.38
  30
0.00
  11
-35406271.55
  21
11997982.99
  31
0.00
  12
-35406271.55
  22
11998133.33
  32
0.00
  13
-35406277.11
  23
11998133.33
  33
0.00
  0
3DFACE
  8
mg_to_dxf
  62
52
  10
-35406263.19
  20
11997984.38
  30
0.00
  11
-35406257.63
  21
11997984.38
  31
0.00
  12
-35406254.84
  22
11998133.33
  32
0.00
  13
-35406263.19
  23
11998134.72
  33
0.00
  0
3DFACE
  8
mg_to_dxf
  62
52
  10
-35406249.27
  20
11997984.38
  30
0.00
  11
-35406243.71
  21
11997984.38
  31
0.00
  12
-35406240.92
  22
11998134.72
  32
0.00
  13
-35406249.27
  23
11998134.72
  33
0.00
  0
3DFACE
  8
mg_to_dxf
  62
52
  10
-35406235.35
  20
11997984.38
  30
0.00
  11
-35406229.78
  21
11997984.38
  31
0.00
  12
-35406229.78
  22
11998134.72
  32
0.00
  13
-35406235.35
  23
11998134.72
  33
0.00
  0
3DFACE
  8
mg_to_dxf
  62
52
  10
-35406221.43
  20
11997984.38
  30
0.00
  11
-35406215.86
  21
11997984.38
  31
0.00
  12
-35406215.86
  22
11998134.72
  32
0.00
  13
-35406221.43
  23
11998134.72
  33
0.00
  0
3DFACE
  8
mg_to_dxf
  62
52
  10
-35406201.94
  20
11997982.99
  30
0.00
  11
-35406196.38
  21
11997982.99
  31
0.00
  12
-35406193.59
  22
11998133.33
  32
0.00
  13
-35406201.94
  23
11998133.33
  33
0.00
  0
3DFACE
  8
mg_to_dxf
  62
52
  10
-35406188.02
  20
11997982.99
  30
0.00
  11
-35406182.46
  21
11997982.99
  31
0.00
  12
-35406182.46
  22
11998133.33
  32
0.00
  13
-35406188.02
  23
11998133.33
  33
0.00
  0
3DFACE
  8
mg_to_dxf
  62
52
  10
-35406174.10
  20
11997982.99
  30
0.00
  11
-35406168.54
  21
11997982.99
  31
0.00
  12
-35406168.54
  22
11998133.33
  32
0.00
  13
-35406174.10
  23
11998133.33
  33
0.00
  0
3DFACE
  8
mg_to_dxf
  62
52
  10
-35406160.18
  20
11997982.99
  30
0.00
  11
-35406154.61
  21
11997982.99
  31
0.00
  12
-35406154.61
  22
11998133.33
  32
0.00
  13
-35406160.18
  23
11998133.33
  33
0.00
  0
3DFACE
  8
mg_to_dxf
  62
52
  10
-35406146.26
  20
11997982.99
  30
0.00
  11
-35406140.69
  21
11997982.99
  31
0.00
  12
-35406140.69
  22
11998133.33
  32
0.00
  13
-35406146.26
  23
11998133.33
  33
0.00
  0
3DFACE
  8
mg_to_dxf
  62
52
  10
-35406135.13
  20
11997981.60
  30
0.00
  11
-35406129.56
  21
11997981.60
  31
0.00
  12
-35406126.77
  22
11998131.94
  32
0.00
  13
-35406135.13
  23
11998131.94
  33
0.00
  0
3DFACE
  8
mg_to_dxf
  62
52
  10
-35406196.38
  20
11998173.70
  30
0.00
  11
-35406196.38
  21
11998173.70
  31
0.00
  12
-35406196.38
  22
11998187.62
  32
0.00
  13
-35406201.94
  23
11998183.44
  33
0.00
  0
3DFACE
  8
mg_to_dxf
  62
52
  10
-35406201.94
  20
11998183.44
  30
0.00
  11
-35406201.94
  21
11998183.44
  31
0.00
  12
-35406196.38
  22
11998187.62
  32
0.00
  13
-35406201.94
  23
11998187.62
  33
0.00
  0
3DFACE
  8
mg_to_dxf
  62
52
  10
-35406218.65
  20
11998173.70
  30
0.00
  11
-35406218.65
  21
11998173.70
  31
0.00
  12
-35406201.94
  22
11998183.44
  32
0.00
  13
-35406213.08
  23
11998183.44
  33
0.00
  0
3DFACE
  8
mg_to_dxf
  62
52
  10
-35406218.65
  20
11998173.70
  30
0.00
  11
-35406218.65
  21
11998173.70
  31
0.00
  12
-35406196.38
  22
11998173.70
  32
0.00
  13
-35406201.94
  23
11998183.44
  33
0.00
  0
3DFACE
  8
mg_to_dxf
  62
52
  10
-35406218.65
  20
11998233.55
  30
0.00
  11
-35406218.65
  21
11998233.55
  31
0.00
  12
-35406213.08
  22
11998183.44
  32
0.00
  13
-35406213.08
  23
11998223.81
  33
0.00
  0
3DFACE
  8
mg_to_dxf
  62
52
  10
-35406218.65
  20
11998233.55
  30
0.00
  11
-35406218.65
  21
11998233.55
  31
0.00
  12
-35406218.65
  22
11998173.70
  32
0.00
  13
-35406213.08
  23
11998183.44
  33
0.00
  0
3DFACE
  8
mg_to_dxf
  62
52
  10
-35406201.94
  20
11998223.81
  30
0.00
  11
-35406201.94
  21
11998223.81
  31
0.00
  12
-35406196.38
  22
11998219.63
  32
0.00
  13
-35406196.38
  23
11998233.55
  33
0.00
  0
3DFACE
  8
mg_to_dxf
  62
52
  10
-35406201.94
  20
11998223.81
  30
0.00
  11
-35406201.94
  21
11998223.81
  31
0.00
  12
-35406201.94
  22
11998219.63
  32
0.00
  13
-35406196.38
  23
11998219.63
  33
0.00
  0
3DFACE
  8
mg_to_dxf
  62
52
  10
-35406201.94
  20
11998223.81
  30
0.00
  11
-35406201.94
  21
11998223.81
  31
0.00
  12
-35406218.65
  22
11998233.55
  32
0.00
  13
-35406213.08
  23
11998223.81
  33
0.00
  0
3DFACE
  8
mg_to_dxf
  62
52
  10
-35406201.94
  20
11998223.81
  30
0.00
  11
-35406201.94
  21
11998223.81
  31
0.00
  12
-35406196.38
  22
11998233.55
  32
0.00
  13
-35406218.65
  23
11998233.55
  33
0.00
  0
3DFACE
  8
mg_to_dxf
  62
52
  10
-35406215.86
  20
11998315.68
  30
0.00
  11
-35406215.86
  21
11998315.68
  31
0.00
  12
-35406240.92
  22
11998305.94
  32
0.00
  13
-35406221.43
  23
11998305.94
  33
0.00
  0
3DFACE
  8
mg_to_dxf
  62
52
  10
-35406215.86
  20
11998315.68
  30
0.00
  11
-35406215.86
  21
11998315.68
  31
0.00
  12
-35406240.92
  22
11998315.68
  32
0.00
  13
-35406240.92
  23
11998305.94
  33
0.00
  0
3DFACE
  8
mg_to_dxf
  62
52
  10
-35406213.08
  20
11998298.98
  30
0.00
  11
-35406213.08
  21
11998298.98
  31
0.00
  12
-35406221.43
  22
11998305.94
  32
0.00
  13
-35406221.43
  23
11998301.76
  33
0.00
  0
3DFACE
  8
mg_to_dxf
  62
52
  10
-35406213.08
  20
11998298.98
  30
0.00
  11
-35406213.08
  21
11998298.98
  31
0.00
  12
-35406215.86
  22
11998315.68
  32
0.00
  13
-35406221.43
  23
11998305.94
  33
0.00
  0
3DFACE
  8
mg_to_dxf
  62
52
  10
-35406221.43
  20
11998262.79
  30
0.00
  11
-35406221.43
  21
11998262.79
  31
0.00
  12
-35406240.92
  22
11998254.43
  32
0.00
  13
-35406215.86
  23
11998254.43
  33
0.00
  0
3DFACE
  8
mg_to_dxf
  62
52
  10
-35406221.43
  20
11998262.79
  30
0.00
  11
-35406221.43
  21
11998262.79
  31
0.00
  12
-35406240.92
  22
11998262.79
  32
0.00
  13
-35406240.92
  23
11998254.43
  33
0.00
  0
3DFACE
  8
mg_to_dxf
  62
52
  10
-35406224.22
  20
11998290.63
  30
0.00
  11
-35406224.22
  21
11998290.63
  31
0.00
  12
-35406221.43
  22
11998301.76
  32
0.00
  13
-35406232.57
  23
11998290.63
  33
0.00
  0
3DFACE
  8
mg_to_dxf
  62
52
  10
-35406224.22
  20
11998290.63
  30
0.00
  11
-35406224.22
  21
11998290.63
  31
0.00
  12
-35406213.08
  22
11998298.98
  32
0.00
  13
-35406221.43
  23
11998301.76
  33
0.00
  0
3DFACE
  8
mg_to_dxf
  62
52
  10
-35406221.43
  20
11998279.49
  30
0.00
  11
-35406221.43
  21
11998279.49
  31
0.00
  12
-35406215.86
  22
11998254.43
  32
0.00
  13
-35406215.86
  23
11998285.06
  33
0.00
  0
3DFACE
  8
mg_to_dxf
  62
52
  10
-35406221.43
  20
11998279.49
  30
0.00
  11
-35406221.43
  21
11998279.49
  31
0.00
  12
-35406221.43
  22
11998262.79
  32
0.00
  13
-35406215.86
  23
11998254.43
  33
0.00
  0
3DFACE
  8
mg_to_dxf
  62
52
  10
-35406221.43
  20
11998279.49
  30
0.00
  11
-35406221.43
  21
11998279.49
  31
0.00
  12
-35406224.22
  22
11998290.63
  32
0.00
  13
-35406232.57
  23
11998290.63
  33
0.00
  0
3DFACE
  8
mg_to_dxf
  62
52
  10
-35406221.43
  20
11998279.49
  30
0.00
  11
-35406221.43
  21
11998279.49
  31
0.00
  12
-35406215.86
  22
11998285.06
  32
0.00
  13
-35406224.22
  23
11998290.63
  33
0.00
  0
3DFACE
  8
mg_to_dxf
  62
52
  10
-35406179.67
  20
11998262.79
  30
0.00
  11
-35406179.67
  21
11998262.79
  31
0.00
  12
-35406199.16
  22
11998254.43
  32
0.00
  13
-35406174.10
  23
11998254.43
  33
0.00
  0
3DFACE
  8
mg_to_dxf
  62
52
  10
-35406179.67
  20
11998262.79
  30
0.00
  11
-35406179.67
  21
11998262.79
  31
0.00
  12
-35406199.16
  22
11998262.79
  32
0.00
  13
-35406199.16
  23
11998254.43
  33
0.00
  0
3DFACE
  8
mg_to_dxf
  62
52
  10
-35406193.59
  20
11998304.55
  30
0.00
  11
-35406193.59
  21
11998304.55
  31
0.00
  12
-35406174.10
  22
11998314.29
  32
0.00
  13
-35406196.38
  23
11998314.29
  33
0.00
  0
3DFACE
  8
mg_to_dxf
  62
52
  10
-35406193.59
  20
11998304.55
  30
0.00
  11
-35406193.59
  21
11998304.55
  31
0.00
  12
-35406176.89
  22
11998305.94
  32
0.00
  13
-35406174.10
  23
11998314.29
  33
0.00
  0
3DFACE
  8
mg_to_dxf
  62
52
  10
-35406193.59
  20
11998304.55
  30
0.00
  11
-35406193.59
  21
11998304.55
  31
0.00
  12
-35406196.38
  22
11998314.29
  32
0.00
  13
-35406196.38
  23
11998286.45
  33
0.00
  0
3DFACE
  8
mg_to_dxf
  62
52
  10
-35406179.67
  20
11998286.45
  30
0.00
  11
-35406179.67
  21
11998286.45
  31
0.00
  12
-35406174.10
  22
11998254.43
  32
0.00
  13
-35406174.10
  23
11998296.20
  33
0.00
  0
3DFACE
  8
mg_to_dxf
  62
52
  10
-35406179.67
  20
11998286.45
  30
0.00
  11
-35406179.67
  21
11998286.45
  31
0.00
  12
-35406179.67
  22
11998262.79
  32
0.00
  13
-35406174.10
  23
11998254.43
  33
0.00
  0
3DFACE
  8
mg_to_dxf
  62
52
  10
-35406190.81
  20
11998296.20
  30
0.00
  11
-35406190.81
  21
11998296.20
  31
0.00
  12
-35406193.59
  22
11998304.55
  32
0.00
  13
-35406196.38
  23
11998286.45
  33
0.00
  0
3DFACE
  8
mg_to_dxf
  62
52
  10
-35406190.81
  20
11998296.20
  30
0.00
  11
-35406190.81
  21
11998296.20
  31
0.00
  12
-35406179.67
  22
11998286.45
  32
0.00
  13
-35406174.10
  23
11998296.20
  33
0.00
  0
3DFACE
  8
mg_to_dxf
  62
52
  10
-35406190.81
  20
11998296.20
  30
0.00
  11
-35406190.81
  21
11998296.20
  31
0.00
  12
-35406196.38
  22
11998286.45
  32
0.00
  13
-35406179.67
  23
11998286.45
  33
0.00
  0
3DFACE
  8
mg_to_dxf
  62
52
  10
-35406282.68
  20
11998484.12
  30
0.00
  11
-35406274.33
  21
11998484.12
  31
0.00
  12
-35406274.33
  22
11998559.29
  32
0.00
  13
-35406282.68
  23
11998559.29
  33
0.00
  0
3DFACE
  8
mg_to_dxf
  62
52
  10
-35406268.76
  20
11998484.12
  30
0.00
  11
-35406260.41
  21
11998484.12
  31
0.00
  12
-35406260.41
  22
11998559.29
  32
0.00
  13
-35406268.76
  23
11998559.29
  33
0.00
  0
3DFACE
  8
mg_to_dxf
  62
52
  10
-35406257.63
  20
11998484.12
  30
0.00
  11
-35406249.27
  21
11998484.12
  31
0.00
  12
-35406249.27
  22
11998559.29
  32
0.00
  13
-35406257.63
  23
11998559.29
  33
0.00
  0
3DFACE
  8
mg_to_dxf
  62
52
  10
-35406165.75
  20
11998482.73
  30
0.00
  11
-35406157.40
  21
11998482.73
  31
0.00
  12
-35406154.61
  22
11998559.29
  32
0.00
  13
-35406162.97
  23
11998559.29
  33
0.00
  0
3DFACE
  8
mg_to_dxf
  62
52
  10
-35406151.83
  20
11998482.73
  30
0.00
  11
-35406143.48
  21
11998482.73
  31
0.00
  12
-35406140.69
  22
11998559.29
  32
0.00
  13
-35406149.05
  23
11998559.29
  33
0.00
  0
3DFACE
  8
mg_to_dxf
  62
52
  10
-35406140.69
  20
11998484.12
  30
0.00
  11
-35406129.56
  21
11998482.73
  31
0.00
  12
-35406129.56
  22
11998559.29
  32
0.00
  13
-35406137.91
  23
11998559.29
  33
0.00
  0
3DFACE
  8
mg_to_dxf
  62
52
  10
-35406246.49
  20
11998985.25
  30
0.00
  11
-35406243.71
  21
11999135.59
  31
0.00
  12
-35406282.68
  22
11999135.59
  32
0.00
  13
-35406282.68
  23
11998986.65
  33
0.00
  0
3DFACE
  8
mg_to_dxf
  62
52
  10
-35406123.99
  20
11999135.59
  30
0.00
  11
-35406160.18
  21
11999135.59
  31
0.00
  12
-35406160.18
  22
11998985.25
  32
0.00
  13
-35406123.99
  23
11998985.25
  33
0.00
  0
3DFACE
  8
mg_to_dxf
  62
52
  10
-35406257.63
  20
11999487.78
  30
0.00
  11
-35406254.84
  21
11999562.95
  31
0.00
  12
-35406263.19
  22
11999562.95
  32
0.00
  13
-35406263.19
  23
11999487.78
  33
0.00
  0
3DFACE
  8
mg_to_dxf
  62
52
  10
-35406243.71
  20
11999486.39
  30
0.00
  11
-35406243.71
  21
11999562.95
  31
0.00
  12
-35406249.27
  22
11999562.95
  32
0.00
  13
-35406252.06
  23
11999487.78
  33
0.00
  0
3DFACE
  8
mg_to_dxf
  62
52
  10
-35406149.05
  20
11999486.39
  30
0.00
  11
-35406149.05
  21
11999562.95
  31
0.00
  12
-35406157.40
  22
11999562.95
  32
0.00
  13
-35406157.40
  23
11999486.39
  33
0.00
  0
3DFACE
  8
mg_to_dxf
  62
52
  10
-35406137.91
  20
11999486.39
  30
0.00
  11
-35406137.91
  21
11999562.95
  31
0.00
  12
-35406143.48
  22
11999562.95
  32
0.00
  13
-35406146.26
  23
11999486.39
  33
0.00
  0
3DFACE
  8
mg_to_dxf
  62
52
  10
-35406254.84
  20
11999987.52
  30
0.00
  11
-35406252.06
  21
12000065.47
  31
0.00
  12
-35406260.41
  22
12000065.47
  32
0.00
  13
-35406260.41
  23
11999988.91
  33
0.00
  0
3DFACE
  8
mg_to_dxf
  62
52
  10
-35406240.92
  20
11999987.52
  30
0.00
  11
-35406240.92
  21
12000065.47
  31
0.00
  12
-35406249.27
  22
12000065.47
  32
0.00
  13
-35406249.27
  23
11999988.91
  33
0.00
  0
3DFACE
  8
mg_to_dxf
  62
52
  10
-35406149.05
  20
11999987.52
  30
0.00
  11
-35406146.26
  21
12000065.47
  31
0.00
  12
-35406154.61
  22
12000065.47
  32
0.00
  13
-35406154.61
  23
11999987.52
  33
0.00
  0
3DFACE
  8
mg_to_dxf
  62
52
  10
-35406135.13
  20
11999987.52
  30
0.00
  11
-35406135.13
  21
12000065.47
  31
0.00
  12
-35406140.69
  22
12000065.47
  32
0.00
  13
-35406143.48
  23
11999987.52
  33
0.00
  0
3DFACE
  8
mg_to_dxf
  62
52
  10
-35406238.14
  20
12000565.22
  30
0.00
  11
-35406246.49
  21
12000565.22
  31
0.00
  12
-35406246.49
  22
12000491.44
  32
0.00
  13
-35406238.14
  23
12000491.44
  33
0.00
  0
3DFACE
  8
mg_to_dxf
  62
52
  10
-35406146.26
  20
12000563.82
  30
0.00
  11
-35406151.83
  21
12000563.82
  31
0.00
  12
-35406151.83
  22
12000490.05
  32
0.00
  13
-35406146.26
  23
12000490.05
  33
0.00
  0
3DFACE
  8
mg_to_dxf
  62
52
  10
-35406235.35
  20
12000992.57
  30
0.00
  11
-35406235.35
  21
12001067.74
  31
0.00
  12
-35406240.92
  22
12001067.74
  32
0.00
  13
-35406240.92
  23
12000992.57
  33
0.00
  0
3DFACE
  8
mg_to_dxf
  62
52
  10
-35406143.48
  20
12000991.18
  30
0.00
  11
-35406143.48
  21
12001067.74
  31
0.00
  12
-35406149.05
  22
12001067.74
  32
0.00
  13
-35406149.05
  23
12000991.18
  33
0.00
  0
3DFACE
  8
mg_to_dxf
  62
52
  10
-35406207.51
  20
12006282.31
  30
0.00
  11
-35406207.51
  21
12006357.48
  31
0.00
  12
-35406215.86
  22
12006357.48
  32
0.00
  13
-35406215.86
  23
12006282.31
  33
0.00
  0
3DFACE
  8
mg_to_dxf
  62
52
  10
-35406115.64
  20
12006280.92
  30
0.00
  11
-35406112.85
  21
12006356.09
  31
0.00
  12
-35406121.21
  22
12006357.48
  32
0.00
  13
-35406123.99
  23
12006280.92
  33
0.00
  0
3DFACE
  8
mg_to_dxf
  62
52
  10
-35406204.73
  20
12006782.05
  30
0.00
  11
-35406204.73
  21
12006857.22
  31
0.00
  12
-35406213.08
  22
12006857.22
  32
0.00
  13
-35406213.08
  23
12006783.44
  33
0.00
  0
3DFACE
  8
mg_to_dxf
  62
52
  10
-35406112.85
  20
12006782.05
  30
0.00
  11
-35406112.85
  21
12006857.22
  31
0.00
  12
-35406121.21
  22
12006857.22
  32
0.00
  13
-35406121.21
  23
12006783.44
  33
0.00
  0
3DFACE
  8
mg_to_dxf
  62
52
  10
-35406215.86
  20
12007283.18
  30
0.00
  11
-35406215.86
  21
12007359.75
  31
0.00
  12
-35406221.43
  22
12007359.75
  32
0.00
  13
-35406224.22
  23
12007283.18
  33
0.00
  0
3DFACE
  8
mg_to_dxf
  62
52
  10
-35406204.73
  20
12007283.18
  30
0.00
  11
-35406201.94
  21
12007359.75
  31
0.00
  12
-35406210.30
  22
12007359.75
  32
0.00
  13
-35406210.30
  23
12007283.18
  33
0.00
  0
3DFACE
  8
mg_to_dxf
  62
52
  10
-35406110.07
  20
12007283.18
  30
0.00
  11
-35406110.07
  21
12007359.75
  31
0.00
  12
-35406115.64
  22
12007359.75
  32
0.00
  13
-35406118.42
  23
12007283.18
  33
0.00
  0
3DFACE
  8
mg_to_dxf
  62
52
  10
-35406096.15
  20
12007283.18
  30
0.00
  11
-35406096.15
  21
12007359.75
  31
0.00
  12
-35406104.50
  22
12007359.75
  32
0.00
  13
-35406104.50
  23
12007283.18
  33
0.00
  0
3DFACE
  8
mg_to_dxf
  62
52
  10
-35406221.43
  20
12007784.32
  30
0.00
  11
-35406213.08
  21
12007784.32
  31
0.00
  12
-35406210.30
  22
12007860.88
  32
0.00
  13
-35406221.43
  23
12007860.88
  33
0.00
  0
3DFACE
  8
mg_to_dxf
  62
52
  10
-35406210.30
  20
12007784.32
  30
0.00
  11
-35406201.94
  21
12007784.32
  31
0.00
  12
-35406199.16
  22
12007860.88
  32
0.00
  13
-35406207.51
  23
12007860.88
  33
0.00
  0
3DFACE
  8
mg_to_dxf
  62
52
  10
-35406115.64
  20
12007784.32
  30
0.00
  11
-35406107.29
  21
12007784.32
  31
0.00
  12
-35406104.50
  22
12007859.49
  32
0.00
  13
-35406112.85
  23
12007859.49
  33
0.00
  0
3DFACE
  8
mg_to_dxf
  62
52
  10
-35406104.50
  20
12007784.32
  30
0.00
  11
-35406093.37
  21
12007784.32
  31
0.00
  12
-35406093.37
  22
12007859.49
  32
0.00
  13
-35406101.72
  23
12007859.49
  33
0.00
  0
3DFACE
  8
mg_to_dxf
  62
52
  10
-35406199.16
  20
12008210.28
  30
0.00
  11
-35406196.38
  21
12008360.62
  31
0.00
  12
-35406232.57
  22
12008362.01
  32
0.00
  13
-35406232.57
  23
12008210.28
  33
0.00
  0
3DFACE
  8
mg_to_dxf
  62
52
  10
-35406076.66
  20
12008360.62
  30
0.00
  11
-35406112.85
  21
12008360.62
  31
0.00
  12
-35406115.64
  22
12008210.28
  32
0.00
  13
-35406076.66
  23
12008210.28
  33
0.00
  0
3DFACE
  8
mg_to_dxf
  62
52
  10
-35406218.65
  20
12008787.97
  30
0.00
  11
-35406218.65
  21
12008861.75
  31
0.00
  12
-35406227.00
  22
12008861.75
  32
0.00
  13
-35406227.00
  23
12008787.97
  33
0.00
  0
3DFACE
  8
mg_to_dxf
  62
52
  10
-35406207.51
  20
12008787.97
  30
0.00
  11
-35406207.51
  21
12008861.75
  31
0.00
  12
-35406215.86
  22
12008861.75
  32
0.00
  13
-35406215.86
  23
12008787.97
  33
0.00
  0
3DFACE
  8
mg_to_dxf
  62
52
  10
-35406196.38
  20
12008786.58
  30
0.00
  11
-35406196.38
  21
12008861.75
  31
0.00
  12
-35406204.73
  22
12008861.75
  32
0.00
  13
-35406204.73
  23
12008786.58
  33
0.00
  0
3DFACE
  8
mg_to_dxf
  62
52
  10
-35406101.72
  20
12008786.58
  30
0.00
  11
-35406101.72
  21
12008861.75
  31
0.00
  12
-35406110.07
  22
12008861.75
  32
0.00
  13
-35406110.07
  23
12008786.58
  33
0.00
  0
3DFACE
  8
mg_to_dxf
  62
52
  10
-35406087.80
  20
12008786.58
  30
0.00
  11
-35406087.80
  21
12008861.75
  31
0.00
  12
-35406096.15
  22
12008861.75
  32
0.00
  13
-35406096.15
  23
12008786.58
  33
0.00
  0
3DFACE
  8
mg_to_dxf
  62
52
  10
-35406076.66
  20
12008786.58
  30
0.00
  11
-35406076.66
  21
12008861.75
  31
0.00
  12
-35406085.01
  22
12008861.75
  32
0.00
  13
-35406085.01
  23
12008786.58
  33
0.00
  0
3DFACE
  8
mg_to_dxf
  62
52
  10
-35406168.54
  20
12009044.11
  30
0.00
  11
-35406168.54
  21
12009044.11
  31
0.00
  12
-35406151.83
  22
12009091.44
  32
0.00
  13
-35406179.67
  23
12009032.97
  33
0.00
  0
3DFACE
  8
mg_to_dxf
  62
52
  10
-35406179.67
  20
12009032.97
  30
0.00
  11
-35406179.67
  21
12009032.97
  31
0.00
  12
-35406151.83
  22
12009091.44
  32
0.00
  13
-35406157.40
  23
12009094.22
  33
0.00
  0
3DFACE
  8
mg_to_dxf
  62
52
  10
-35406168.54
  20
12009044.11
  30
0.00
  11
-35406168.54
  21
12009044.11
  31
0.00
  12
-35406151.83
  22
12009032.97
  32
0.00
  13
-35406151.83
  23
12009042.72
  33
0.00
  0
3DFACE
  8
mg_to_dxf
  62
52
  10
-35406168.54
  20
12009044.11
  30
0.00
  11
-35406168.54
  21
12009044.11
  31
0.00
  12
-35406179.67
  22
12009032.97
  32
0.00
  13
-35406151.83
  23
12009032.97
  33
0.00
  0
3DFACE
  8
mg_to_dxf
  62
52
  10
-35406126.77
  20
12009042.72
  30
0.00
  11
-35406126.77
  21
12009042.72
  31
0.00
  12
-35406135.13
  22
12009091.44
  32
0.00
  13
-35406132.34
  23
12009034.37
  33
0.00
  0
3DFACE
  8
mg_to_dxf
  62
52
  10
-35406126.77
  20
12009042.72
  30
0.00
  11
-35406126.77
  21
12009042.72
  31
0.00
  12
-35406126.77
  22
12009091.44
  32
0.00
  13
-35406135.13
  23
12009091.44
  33
0.00
  0
3DFACE
  8
mg_to_dxf
  62
52
  10
-35406123.99
  20
12009042.72
  30
0.00
  11
-35406123.99
  21
12009042.72
  31
0.00
  12
-35406126.77
  22
12009032.97
  32
0.00
  13
-35406123.99
  23
12009035.76
  33
0.00
  0
3DFACE
  8
mg_to_dxf
  62
52
  10
-35406126.77
  20
12009042.72
  30
0.00
  11
-35406126.77
  21
12009042.72
  31
0.00
  12
-35406126.77
  22
12009032.97
  32
0.00
  13
-35406123.99
  23
12009042.72
  33
0.00
  0
3DFACE
  8
mg_to_dxf
  62
52
  10
-35406126.77
  20
12009042.72
  30
0.00
  11
-35406126.77
  21
12009042.72
  31
0.00
  12
-35406132.34
  22
12009034.37
  32
0.00
  13
-35406126.77
  23
12009032.97
  33
0.00
  0
3DFACE
  8
mg_to_dxf
  62
52
  10
-35406160.18
  20
12009173.57
  30
0.00
  11
-35406160.18
  21
12009173.57
  31
0.00
  12
-35406160.18
  22
12009159.65
  32
0.00
  13
-35406154.61
  23
12009163.82
  33
0.00
  0
3DFACE
  8
mg_to_dxf
  62
52
  10
-35406154.61
  20
12009163.82
  30
0.00
  11
-35406154.61
  21
12009163.82
  31
0.00
  12
-35406160.18
  22
12009159.65
  32
0.00
  13
-35406154.61
  23
12009159.65
  33
0.00
  0
3DFACE
  8
mg_to_dxf
  62
52
  10
-35406137.91
  20
12009173.57
  30
0.00
  11
-35406137.91
  21
12009173.57
  31
0.00
  12
-35406154.61
  22
12009163.82
  32
0.00
  13
-35406143.48
  23
12009163.82
  33
0.00
  0
3DFACE
  8
mg_to_dxf
  62
52
  10
-35406137.91
  20
12009173.57
  30
0.00
  11
-35406137.91
  21
12009173.57
  31
0.00
  12
-35406160.18
  22
12009173.57
  32
0.00
  13
-35406154.61
  23
12009163.82
  33
0.00
  0
3DFACE
  8
mg_to_dxf
  62
52
  10
-35406137.91
  20
12009112.32
  30
0.00
  11
-35406137.91
  21
12009112.32
  31
0.00
  12
-35406143.48
  22
12009163.82
  32
0.00
  13
-35406143.48
  23
12009122.06
  33
0.00
  0
3DFACE
  8
mg_to_dxf
  62
52
  10
-35406137.91
  20
12009112.32
  30
0.00
  11
-35406137.91
  21
12009112.32
  31
0.00
  12
-35406137.91
  22
12009173.57
  32
0.00
  13
-35406143.48
  23
12009163.82
  33
0.00
  0
3DFACE
  8
mg_to_dxf
  62
52
  10
-35406157.40
  20
12009122.06
  30
0.00
  11
-35406157.40
  21
12009122.06
  31
0.00
  12
-35406162.97
  22
12009126.24
  32
0.00
  13
-35406162.97
  23
12009112.32
  33
0.00
  0
3DFACE
  8
mg_to_dxf
  62
52
  10
-35406157.40
  20
12009122.06
  30
0.00
  11
-35406157.40
  21
12009122.06
  31
0.00
  12
-35406157.40
  22
12009126.24
  32
0.00
  13
-35406162.97
  23
12009126.24
  33
0.00
  0
3DFACE
  8
mg_to_dxf
  62
52
  10
-35406157.40
  20
12009122.06
  30
0.00
  11
-35406157.40
  21
12009122.06
  31
0.00
  12
-35406137.91
  22
12009112.32
  32
0.00
  13
-35406143.48
  23
12009122.06
  33
0.00
  0
3DFACE
  8
mg_to_dxf
  62
52
  10
-35406157.40
  20
12009122.06
  30
0.00
  11
-35406157.40
  21
12009122.06
  31
0.00
  12
-35406162.97
  22
12009112.32
  32
0.00
  13
-35406137.91
  23
12009112.32
  33
0.00
  0
3DFACE
  8
mg_to_dxf
  62
52
  10
-35406213.08
  20
12009213.94
  30
0.00
  11
-35406213.08
  21
12009364.28
  31
0.00
  12
-35406227.00
  22
12009364.28
  32
0.00
  13
-35406227.00
  23
12009213.94
  33
0.00
  0
3DFACE
  8
mg_to_dxf
  62
52
  10
-35406196.38
  20
12009213.94
  30
0.00
  11
-35406193.59
  21
12009364.28
  31
0.00
  12
-35406207.51
  22
12009364.28
  32
0.00
  13
-35406207.51
  23
12009213.94
  33
0.00
  0
3DFACE
  8
mg_to_dxf
  62
52
  10
-35406176.89
  20
12009213.94
  30
0.00
  11
-35406176.89
  21
12009364.28
  31
0.00
  12
-35406190.81
  22
12009364.28
  32
0.00
  13
-35406190.81
  23
12009213.94
  33
0.00
  0
3DFACE
  8
mg_to_dxf
  62
52
  10
-35406160.18
  20
12009213.94
  30
0.00
  11
-35406157.40
  21
12009364.28
  31
0.00
  12
-35406171.32
  22
12009364.28
  32
0.00
  13
-35406171.32
  23
12009213.94
  33
0.00
  0
3DFACE
  8
mg_to_dxf
  62
52
  10
-35406126.77
  20
12009213.94
  30
0.00
  11
-35406126.77
  21
12009364.28
  31
0.00
  12
-35406137.91
  22
12009364.28
  32
0.00
  13
-35406140.69
  23
12009213.94
  33
0.00
  0
3DFACE
  8
mg_to_dxf
  62
52
  10
-35406110.07
  20
12009212.55
  30
0.00
  11
-35406107.29
  21
12009364.28
  31
0.00
  12
-35406121.21
  22
12009364.28
  32
0.00
  13
-35406121.21
  23
12009212.55
  33
0.00
  0
3DFACE
  8
mg_to_dxf
  62
52
  10
-35406090.58
  20
12009212.55
  30
0.00
  11
-35406090.58
  21
12009362.89
  31
0.00
  12
-35406104.50
  22
12009362.89
  32
0.00
  13
-35406104.50
  23
12009212.55
  33
0.00
  0
3DFACE
  8
mg_to_dxf
  62
52
  10
-35406073.88
  20
12009212.55
  30
0.00
  11
-35406071.09
  21
12009362.89
  31
0.00
  12
-35406085.01
  22
12009362.89
  32
0.00
  13
-35406085.01
  23
12009212.55
  33
0.00
  0
3DFACE
  8
mg_to_dxf
  62
52
  10
-35406149.05
  20
12009382.37
  30
0.00
  11
-35406149.05
  21
12009382.37
  31
0.00
  12
-35406235.35
  22
12009383.77
  32
0.00
  13
-35406149.05
  23
12009374.02
  33
0.00
  0
3DFACE
  8
mg_to_dxf
  62
52
  10
-35406149.05
  20
12009374.02
  30
0.00
  11
-35406149.05
  21
12009374.02
  31
0.00
  12
-35406235.35
  22
12009383.77
  32
0.00
  13
-35406235.35
  23
12009374.02
  33
0.00
  0
3DFACE
  8
mg_to_dxf
  62
52
  10
-35406149.05
  20
12009382.37
  30
0.00
  11
-35406149.05
  21
12009382.37
  31
0.00
  12
-35406149.05
  22
12009374.02
  32
0.00
  13
-35406062.74
  23
12009382.37
  33
0.00
  0
3DFACE
  8
mg_to_dxf
  62
52
  10
-35406062.74
  20
12009382.37
  30
0.00
  11
-35406062.74
  21
12009382.37
  31
0.00
  12
-35406149.05
  22
12009374.02
  32
0.00
  13
-35406062.74
  23
12009374.02
  33
0.00
  0
3DFACE
  8
mg_to_dxf
  62
52
  10
-35400141.02
  20
12005046.18
  30
0.00
  11
-35400141.02
  21
12005046.18
  31
0.00
  12
-35400141.02
  22
12005055.92
  32
0.00
  13
-35400227.32
  23
12005046.18
  33
0.00
  0
3DFACE
  8
mg_to_dxf
  62
52
  10
-35400227.32
  20
12005046.18
  30
0.00
  11
-35400227.32
  21
12005046.18
  31
0.00
  12
-35400227.32
  22
12005055.92
  32
0.00
  13
-35400313.63
  23
12005047.57
  33
0.00
  0
3DFACE
  8
mg_to_dxf
  62
52
  10
-35400313.63
  20
12005047.57
  30
0.00
  11
-35400313.63
  21
12005047.57
  31
0.00
  12
-35400227.32
  22
12005055.92
  32
0.00
  13
-35400313.63
  23
12005057.32
  33
0.00
  0
3DFACE
  8
mg_to_dxf
  62
52
  10
-35400227.32
  20
12005055.92
  30
0.00
  11
-35400227.32
  21
12005055.92
  31
0.00
  12
-35400227.32
  22
12005046.18
  32
0.00
  13
-35400141.02
  23
12005055.92
  33
0.00
  0
3DFACE
  8
mg_to_dxf
  62
52
  10
-35400305.28
  20
12004886.10
  30
0.00
  11
-35400302.49
  21
12005037.83
  31
0.00
  12
-35400310.85
  22
12005037.83
  32
0.00
  13
-35400310.85
  23
12004886.10
  33
0.00
  0
3DFACE
  8
mg_to_dxf
  62
52
  10
-35400291.36
  20
12004886.10
  30
0.00
  11
-35400291.36
  21
12005037.83
  31
0.00
  12
-35400296.93
  22
12005037.83
  32
0.00
  13
-35400296.93
  23
12004886.10
  33
0.00
  0
3DFACE
  8
mg_to_dxf
  62
52
  10
-35400277.44
  20
12004886.10
  30
0.00
  11
-35400277.44
  21
12005037.83
  31
0.00
  12
-35400283.00
  22
12005037.83
  32
0.00
  13
-35400283.00
  23
12004886.10
  33
0.00
  0
3DFACE
  8
mg_to_dxf
  62
52
  10
-35400263.52
  20
12004886.10
  30
0.00
  11
-35400263.52
  21
12005037.83
  31
0.00
  12
-35400269.08
  22
12005037.83
  32
0.00
  13
-35400269.08
  23
12004886.10
  33
0.00
  0
3DFACE
  8
mg_to_dxf
  62
52
  10
-35400249.60
  20
12004886.10
  30
0.00
  11
-35400249.60
  21
12005037.83
  31
0.00
  12
-35400255.16
  22
12005037.83
  32
0.00
  13
-35400255.16
  23
12004886.10
  33
0.00
  0
3DFACE
  8
mg_to_dxf
  62
52
  10
-35400235.68
  20
12004886.10
  30
0.00
  11
-35400235.68
  21
12005037.83
  31
0.00
  12
-35400241.24
  22
12005037.83
  32
0.00
  13
-35400244.03
  23
12004886.10
  33
0.00
  0
3DFACE
  8
mg_to_dxf
  62
52
  10
-35400216.19
  20
12004886.10
  30
0.00
  11
-35400213.40
  21
12005037.83
  31
0.00
  12
-35400221.76
  22
12005037.83
  32
0.00
  13
-35400221.76
  23
12004886.10
  33
0.00
  0
3DFACE
  8
mg_to_dxf
  62
52
  10
-35400202.27
  20
12004886.10
  30
0.00
  11
-35400202.27
  21
12005036.44
  31
0.00
  12
-35400207.84
  22
12005037.83
  32
0.00
  13
-35400207.84
  23
12004886.10
  33
0.00
  0
3DFACE
  8
mg_to_dxf
  62
52
  10
-35400188.35
  20
12004886.10
  30
0.00
  11
-35400185.56
  21
12005036.44
  31
0.00
  12
-35400193.91
  22
12005036.44
  32
0.00
  13
-35400193.91
  23
12004886.10
  33
0.00
  0
3DFACE
  8
mg_to_dxf
  62
52
  10
-35400174.43
  20
12004884.70
  30
0.00
  11
-35400174.43
  21
12005036.44
  31
0.00
  12
-35400179.99
  22
12005036.44
  32
0.00
  13
-35400179.99
  23
12004884.70
  33
0.00
  0
3DFACE
  8
mg_to_dxf
  62
52
  10
-35400160.51
  20
12004884.70
  30
0.00
  11
-35400160.51
  21
12005036.44
  31
0.00
  12
-35400166.07
  22
12005036.44
  32
0.00
  13
-35400168.86
  23
12004884.70
  33
0.00
  0
3DFACE
  8
mg_to_dxf
  62
52
  10
-35400146.59
  20
12004884.70
  30
0.00
  11
-35400146.59
  21
12005036.44
  31
0.00
  12
-35400152.15
  22
12005036.44
  32
0.00
  13
-35400154.94
  23
12004884.70
  33
0.00
  0
3DFACE
  8
mg_to_dxf
  62
52
  10
-35400224.54
  20
12004835.98
  30
0.00
  11
-35400224.54
  21
12004835.98
  31
0.00
  12
-35400216.19
  22
12004787.26
  32
0.00
  13
-35400216.19
  23
12004847.12
  33
0.00
  0
3DFACE
  8
mg_to_dxf
  62
52
  10
-35400224.54
  20
12004835.98
  30
0.00
  11
-35400224.54
  21
12004835.98
  31
0.00
  12
-35400224.54
  22
12004787.26
  32
0.00
  13
-35400216.19
  23
12004787.26
  33
0.00
  0
3DFACE
  8
mg_to_dxf
  62
52
  10
-35400224.54
  20
12004835.98
  30
0.00
  11
-35400224.54
  21
12004835.98
  31
0.00
  12
-35400241.24
  22
12004845.73
  32
0.00
  13
-35400241.24
  23
12004835.98
  33
0.00
  0
3DFACE
  8
mg_to_dxf
  62
52
  10
-35400224.54
  20
12004835.98
  30
0.00
  11
-35400224.54
  21
12004835.98
  31
0.00
  12
-35400216.19
  22
12004847.12
  32
0.00
  13
-35400241.24
  23
12004845.73
  33
0.00
  0
3DFACE
  8
mg_to_dxf
  62
52
  10
-35400246.81
  20
12004716.27
  30
0.00
  11
-35400246.81
  21
12004716.27
  31
0.00
  12
-35400235.68
  22
12004764.99
  32
0.00
  13
-35400257.95
  23
12004707.92
  33
0.00
  0
3DFACE
  8
mg_to_dxf
  62
52
  10
-35400246.81
  20
12004716.27
  30
0.00
  11
-35400246.81
  21
12004716.27
  31
0.00
  12
-35400230.11
  22
12004764.99
  32
0.00
  13
-35400235.68
  23
12004764.99
  33
0.00
  0
3DFACE
  8
mg_to_dxf
  62
52
  10
-35400246.81
  20
12004716.27
  30
0.00
  11
-35400246.81
  21
12004716.27
  31
0.00
  12
-35400230.11
  22
12004707.92
  32
0.00
  13
-35400230.11
  23
12004716.27
  33
0.00
  0
3DFACE
  8
mg_to_dxf
  62
52
  10
-35400246.81
  20
12004716.27
  30
0.00
  11
-35400246.81
  21
12004716.27
  31
0.00
  12
-35400257.95
  22
12004707.92
  32
0.00
  13
-35400230.11
  23
12004707.92
  33
0.00
  0
3DFACE
  8
mg_to_dxf
  62
52
  10
-35400205.05
  20
12004716.27
  30
0.00
  11
-35400205.05
  21
12004716.27
  31
0.00
  12
-35400210.62
  22
12004764.99
  32
0.00
  13
-35400210.62
  23
12004707.92
  33
0.00
  0
3DFACE
  8
mg_to_dxf
  62
52
  10
-35400205.05
  20
12004716.27
  30
0.00
  11
-35400205.05
  21
12004716.27
  31
0.00
  12
-35400205.05
  22
12004766.38
  32
0.00
  13
-35400210.62
  23
12004764.99
  33
0.00
  0
3DFACE
  8
mg_to_dxf
  62
52
  10
-35400205.05
  20
12004716.27
  30
0.00
  11
-35400205.05
  21
12004716.27
  31
0.00
  12
-35400205.05
  22
12004707.92
  32
0.00
  13
-35400199.48
  23
12004716.27
  33
0.00
  0
3DFACE
  8
mg_to_dxf
  62
52
  10
-35400205.05
  20
12004716.27
  30
0.00
  11
-35400205.05
  21
12004716.27
  31
0.00
  12
-35400210.62
  22
12004707.92
  32
0.00
  13
-35400205.05
  23
12004707.92
  33
0.00
  0
3DFACE
  8
mg_to_dxf
  62
52
  10
-35400299.71
  20
12004461.53
  30
0.00
  11
-35400299.71
  21
12004536.70
  31
0.00
  12
-35400305.28
  22
12004536.70
  32
0.00
  13
-35400308.06
  23
12004462.92
  33
0.00
  0
3DFACE
  8
mg_to_dxf
  62
52
  10
-35400285.79
  20
12004461.53
  30
0.00
  11
-35400285.79
  21
12004536.70
  31
0.00
  12
-35400294.14
  22
12004536.70
  32
0.00
  13
-35400294.14
  23
12004461.53
  33
0.00
  0
3DFACE
  8
mg_to_dxf
  62
52
  10
-35400274.65
  20
12004461.53
  30
0.00
  11
-35400274.65
  21
12004535.30
  31
0.00
  12
-35400280.22
  22
12004535.30
  32
0.00
  13
-35400280.22
  23
12004461.53
  33
0.00
  0
3DFACE
  8
mg_to_dxf
  62
52
  10
-35400182.78
  20
12004460.13
  30
0.00
  11
-35400179.99
  21
12004535.30
  31
0.00
  12
-35400188.35
  22
12004535.30
  32
0.00
  13
-35400188.35
  23
12004460.13
  33
0.00
  0
3DFACE
  8
mg_to_dxf
  62
52
  10
-35400168.86
  20
12004460.13
  30
0.00
  11
-35400168.86
  21
12004535.30
  31
0.00
  12
-35400174.43
  22
12004535.30
  32
0.00
  13
-35400174.43
  23
12004460.13
  33
0.00
  0
3DFACE
  8
mg_to_dxf
  62
52
  10
-35400154.94
  20
12004460.13
  30
0.00
  11
-35400154.94
  21
12004535.30
  31
0.00
  12
-35400160.51
  22
12004535.30
  32
0.00
  13
-35400163.29
  23
12004460.13
  33
0.00
  0
3DFACE
  8
mg_to_dxf
  62
52
  10
-35400313.63
  20
12003885.22
  30
0.00
  11
-35400277.44
  21
12003885.22
  31
0.00
  12
-35400277.44
  22
12004034.17
  32
0.00
  13
-35400313.63
  23
12004034.17
  33
0.00
  0
3DFACE
  8
mg_to_dxf
  62
52
  10
-35400154.94
  20
12004034.17
  30
0.00
  11
-35400191.13
  21
12004034.17
  31
0.00
  12
-35400191.13
  22
12003883.83
  32
0.00
  13
-35400154.94
  23
12003883.83
  33
0.00
  0
3DFACE
  8
mg_to_dxf
  62
52
  10
-35400291.36
  20
12003459.26
  30
0.00
  11
-35400291.36
  21
12003533.04
  31
0.00
  12
-35400299.71
  22
12003533.04
  32
0.00
  13
-35400299.71
  23
12003459.26
  33
0.00
  0
3DFACE
  8
mg_to_dxf
  62
52
  10
-35400280.22
  20
12003457.87
  30
0.00
  11
-35400280.22
  21
12003531.64
  31
0.00
  12
-35400285.79
  22
12003531.64
  32
0.00
  13
-35400285.79
  23
12003457.87
  33
0.00
  0
3DFACE
  8
mg_to_dxf
  62
52
  10
-35400185.56
  20
12003457.87
  30
0.00
  11
-35400185.56
  21
12003531.64
  31
0.00
  12
-35400193.91
  22
12003531.64
  32
0.00
  13
-35400193.91
  23
12003457.87
  33
0.00
  0
3DFACE
  8
mg_to_dxf
  62
52
  10
-35400171.64
  20
12003457.87
  30
0.00
  11
-35400171.64
  21
12003531.64
  31
0.00
  12
-35400179.99
  22
12003531.64
  32
0.00
  13
-35400179.99
  23
12003457.87
  33
0.00
  0
3DFACE
  8
mg_to_dxf
  62
52
  10
-35400294.14
  20
12002956.73
  30
0.00
  11
-35400294.14
  21
12003031.90
  31
0.00
  12
-35400302.49
  22
12003031.90
  32
0.00
  13
-35400302.49
  23
12002956.73
  33
0.00
  0
3DFACE
  8
mg_to_dxf
  62
52
  10
-35400283.00
  20
12002958.13
  30
0.00
  11
-35400283.00
  21
12003031.90
  31
0.00
  12
-35400291.36
  22
12003031.90
  32
0.00
  13
-35400288.57
  23
12002956.73
  33
0.00
  0
3DFACE
  8
mg_to_dxf
  62
52
  10
-35400191.13
  20
12002956.73
  30
0.00
  11
-35400191.13
  21
12003031.90
  31
0.00
  12
-35400196.70
  22
12003031.90
  32
0.00
  13
-35400196.70
  23
12002956.73
  33
0.00
  0
3DFACE
  8
mg_to_dxf
  62
52
  10
-35400177.21
  20
12002956.73
  30
0.00
  11
-35400177.21
  21
12003031.90
  31
0.00
  12
-35400182.78
  22
12003031.90
  32
0.00
  13
-35400182.78
  23
12002956.73
  33
0.00
  0
3DFACE
  8
mg_to_dxf
  62
52
  10
-35400285.79
  20
12002456.99
  30
0.00
  11
-35400283.00
  21
12002530.77
  31
0.00
  12
-35400291.36
  22
12002530.77
  32
0.00
  13
-35400291.36
  23
12002456.99
  33
0.00
  0
3DFACE
  8
mg_to_dxf
  62
52
  10
-35400191.13
  20
12002529.38
  30
0.00
  11
-35400199.48
  21
12002529.38
  31
0.00
  12
-35400199.48
  22
12002455.60
  32
0.00
  13
-35400191.13
  23
12002455.60
  33
0.00
  0
3DFACE
  8
mg_to_dxf
  62
52
  10
-35400285.79
  20
12001954.47
  30
0.00
  11
-35400288.57
  21
12002028.25
  31
0.00
  12
-35400294.14
  22
12002028.25
  32
0.00
  13
-35400294.14
  23
12001954.47
  33
0.00
  0
3DFACE
  8
mg_to_dxf
  62
52
  10
-35400193.91
  20
12001954.47
  30
0.00
  11
-35400193.91
  21
12002029.64
  31
0.00
  12
-35400202.27
  22
12002029.64
  32
0.00
  13
-35400202.27
  23
12001954.47
  33
0.00
  0
3DFACE
  8
mg_to_dxf
  62
52
  10
-35400299.71
  20
11999562.95
  30
0.00
  11
-35400299.71
  21
11999636.73
  31
0.00
  12
-35400308.06
  22
11999636.73
  32
0.00
  13
-35400308.06
  23
11999562.95
  33
0.00
  0
3DFACE
  8
mg_to_dxf
  62
52
  10
-35400207.84
  20
11999636.73
  30
0.00
  11
-35400213.40
  21
11999636.73
  31
0.00
  12
-35400213.40
  22
11999561.56
  32
0.00
  13
-35400207.84
  23
11999561.56
  33
0.00
  0
3DFACE
  8
mg_to_dxf
  62
52
  10
-35400299.71
  20
11999061.82
  30
0.00
  11
-35400299.71
  21
11999135.59
  31
0.00
  12
-35400308.06
  22
11999135.59
  32
0.00
  13
-35400308.06
  23
11999061.82
  33
0.00
  0
3DFACE
  8
mg_to_dxf
  62
52
  10
-35400210.62
  20
11999134.20
  30
0.00
  11
-35400218.97
  21
11999134.20
  31
0.00
  12
-35400218.97
  22
11999060.42
  32
0.00
  13
-35400210.62
  23
11999060.42
  33
0.00
  0
3DFACE
  8
mg_to_dxf
  62
52
  10
-35400319.20
  20
11998559.29
  30
0.00
  11
-35400319.20
  21
11998633.07
  31
0.00
  12
-35400324.77
  22
11998633.07
  32
0.00
  13
-35400324.77
  23
11998559.29
  33
0.00
  0
3DFACE
  8
mg_to_dxf
  62
52
  10
-35400305.28
  20
11998557.90
  30
0.00
  11
-35400305.28
  21
11998633.07
  31
0.00
  12
-35400310.85
  22
11998633.07
  32
0.00
  13
-35400313.63
  23
11998557.90
  33
0.00
  0
3DFACE
  8
mg_to_dxf
  62
52
  10
-35400213.40
  20
11998557.90
  30
0.00
  11
-35400213.40
  21
11998633.07
  31
0.00
  12
-35400218.97
  22
11998633.07
  32
0.00
  13
-35400218.97
  23
11998557.90
  33
0.00
  0
3DFACE
  8
mg_to_dxf
  62
52
  10
-35400199.48
  20
11998557.90
  30
0.00
  11
-35400199.48
  21
11998633.07
  31
0.00
  12
-35400207.84
  22
11998633.07
  32
0.00
  13
-35400207.84
  23
11998557.90
  33
0.00
  0
3DFACE
  8
mg_to_dxf
  62
52
  10
-35400321.98
  20
11998056.77
  30
0.00
  11
-35400321.98
  21
11998131.94
  31
0.00
  12
-35400327.55
  22
11998131.94
  32
0.00
  13
-35400327.55
  23
11998056.77
  33
0.00
  0
3DFACE
  8
mg_to_dxf
  62
52
  10
-35400308.06
  20
11998056.77
  30
0.00
  11
-35400308.06
  21
11998131.94
  31
0.00
  12
-35400313.63
  22
11998131.94
  32
0.00
  13
-35400313.63
  23
11998056.77
  33
0.00
  0
3DFACE
  8
mg_to_dxf
  62
52
  10
-35400216.19
  20
11998056.77
  30
0.00
  11
-35400216.19
  21
11998130.54
  31
0.00
  12
-35400221.76
  22
11998130.54
  32
0.00
  13
-35400221.76
  23
11998056.77
  33
0.00
  0
3DFACE
  8
mg_to_dxf
  62
52
  10
-35400202.27
  20
11998055.37
  30
0.00
  11
-35400202.27
  21
11998130.54
  31
0.00
  12
-35400207.84
  22
11998130.54
  32
0.00
  13
-35400207.84
  23
11998055.37
  33
0.00
  0
3DFACE
  8
mg_to_dxf
  62
52
  10
-35400308.06
  20
11997555.63
  30
0.00
  11
-35400310.85
  21
11997680.92
  31
0.00
  12
-35400347.04
  22
11997680.92
  32
0.00
  13
-35400347.04
  23
11997555.63
  33
0.00
  0
3DFACE
  8
mg_to_dxf
  62
52
  10
-35400188.35
  20
11997680.92
  30
0.00
  11
-35400224.54
  21
11997680.92
  31
0.00
  12
-35400224.54
  22
11997555.63
  32
0.00
  13
-35400188.35
  23
11997555.63
  33
0.00
  0
3DFACE
  8
mg_to_dxf
  62
52
  10
-35400338.69
  20
11997054.50
  30
0.00
  11
-35400338.69
  21
11997131.06
  31
0.00
  12
-35400344.25
  22
11997131.06
  32
0.00
  13
-35400347.04
  23
11997054.50
  33
0.00
  0
3DFACE
  8
mg_to_dxf
  62
52
  10
-35400327.55
  20
11997054.50
  30
0.00
  11
-35400327.55
  21
11997131.06
  31
0.00
  12
-35400333.12
  22
11997131.06
  32
0.00
  13
-35400333.12
  23
11997054.50
  33
0.00
  0
3DFACE
  8
mg_to_dxf
  62
52
  10
-35400313.63
  20
11997054.50
  30
0.00
  11
-35400313.63
  21
11997129.67
  31
0.00
  12
-35400321.98
  22
11997129.67
  32
0.00
  13
-35400321.98
  23
11997054.50
  33
0.00
  0
3DFACE
  8
mg_to_dxf
  62
52
  10
-35400221.76
  20
11997053.11
  30
0.00
  11
-35400221.76
  21
11997129.67
  31
0.00
  12
-35400230.11
  22
11997129.67
  32
0.00
  13
-35400230.11
  23
11997053.11
  33
0.00
  0
3DFACE
  8
mg_to_dxf
  62
52
  10
-35400210.62
  20
11997053.11
  30
0.00
  11
-35400210.62
  21
11997129.67
  31
0.00
  12
-35400216.19
  22
11997129.67
  32
0.00
  13
-35400216.19
  23
11997053.11
  33
0.00
  0
3DFACE
  8
mg_to_dxf
  62
52
  10
-35400196.70
  20
11997054.50
  30
0.00
  11
-35400196.70
  21
11997129.67
  31
0.00
  12
-35400202.27
  22
11997129.67
  32
0.00
  13
-35400202.27
  23
11997054.50
  33
0.00
  0
3DFACE
  8
mg_to_dxf
  62
52
  10
-35400280.22
  20
11996884.67
  30
0.00
  11
-35400280.22
  21
11996884.67
  31
0.00
  12
-35400305.28
  22
11996874.93
  32
0.00
  13
-35400285.79
  23
11996874.93
  33
0.00
  0
3DFACE
  8
mg_to_dxf
  62
52
  10
-35400280.22
  20
11996884.67
  30
0.00
  11
-35400280.22
  21
11996884.67
  31
0.00
  12
-35400305.28
  22
11996884.67
  32
0.00
  13
-35400305.28
  23
11996874.93
  33
0.00
  0
3DFACE
  8
mg_to_dxf
  62
52
  10
-35400288.57
  20
11996869.36
  30
0.00
  11
-35400288.57
  21
11996869.36
  31
0.00
  12
-35400288.57
  22
11996859.61
  32
0.00
  13
-35400285.79
  23
11996874.93
  33
0.00
  0
3DFACE
  8
mg_to_dxf
  62
52
  10
-35400288.57
  20
11996859.61
  30
0.00
  11
-35400288.57
  21
11996859.61
  31
0.00
  12
-35400280.22
  22
11996884.67
  32
0.00
  13
-35400285.79
  23
11996874.93
  33
0.00
  0
3DFACE
  8
mg_to_dxf
  62
52
  10
-35400288.57
  20
11996859.61
  30
0.00
  11
-35400288.57
  21
11996859.61
  31
0.00
  12
-35400280.22
  22
11996866.57
  32
0.00
  13
-35400280.22
  23
11996884.67
  33
0.00
  0
3DFACE
  8
mg_to_dxf
  62
52
  10
-35400288.57
  20
11996834.56
  30
0.00
  11
-35400288.57
  21
11996834.56
  31
0.00
  12
-35400305.28
  22
11996824.81
  32
0.00
  13
-35400280.22
  23
11996824.81
  33
0.00
  0
3DFACE
  8
mg_to_dxf
  62
52
  10
-35400288.57
  20
11996834.56
  30
0.00
  11
-35400288.57
  21
11996834.56
  31
0.00
  12
-35400305.28
  22
11996834.56
  32
0.00
  13
-35400305.28
  23
11996824.81
  33
0.00
  0
3DFACE
  8
mg_to_dxf
  62
52
  10
-35400288.57
  20
11996859.61
  30
0.00
  11
-35400288.57
  21
11996859.61
  31
0.00
  12
-35400288.57
  22
11996869.36
  32
0.00
  13
-35400299.71
  23
11996859.61
  33
0.00
  0
3DFACE
  8
mg_to_dxf
  62
52
  10
-35400288.57
  20
11996849.87
  30
0.00
  11
-35400288.57
  21
11996849.87
  31
0.00
  12
-35400280.22
  22
11996824.81
  32
0.00
  13
-35400280.22
  23
11996852.65
  33
0.00
  0
3DFACE
  8
mg_to_dxf
  62
52
  10
-35400288.57
  20
11996849.87
  30
0.00
  11
-35400288.57
  21
11996849.87
  31
0.00
  12
-35400288.57
  22
11996834.56
  32
0.00
  13
-35400280.22
  23
11996824.81
  33
0.00
  0
3DFACE
  8
mg_to_dxf
  62
52
  10
-35400288.57
  20
11996849.87
  30
0.00
  11
-35400288.57
  21
11996849.87
  31
0.00
  12
-35400288.57
  22
11996859.61
  32
0.00
  13
-35400299.71
  23
11996859.61
  33
0.00
  0
3DFACE
  8
mg_to_dxf
  62
52
  10
-35400288.57
  20
11996849.87
  30
0.00
  11
-35400288.57
  21
11996849.87
  31
0.00
  12
-35400280.22
  22
11996852.65
  32
0.00
  13
-35400288.57
  23
11996859.61
  33
0.00
  0
3DFACE
  8
mg_to_dxf
  62
52
  10
-35400244.03
  20
11996834.56
  30
0.00
  11
-35400244.03
  21
11996834.56
  31
0.00
  12
-35400263.52
  22
11996824.81
  32
0.00
  13
-35400238.46
  23
11996824.81
  33
0.00
  0
3DFACE
  8
mg_to_dxf
  62
52
  10
-35400244.03
  20
11996834.56
  30
0.00
  11
-35400244.03
  21
11996834.56
  31
0.00
  12
-35400263.52
  22
11996834.56
  32
0.00
  13
-35400263.52
  23
11996824.81
  33
0.00
  0
3DFACE
  8
mg_to_dxf
  62
52
  10
-35400257.95
  20
11996874.93
  30
0.00
  11
-35400257.95
  21
11996874.93
  31
0.00
  12
-35400238.46
  22
11996883.28
  32
0.00
  13
-35400263.52
  23
11996883.28
  33
0.00
  0
3DFACE
  8
mg_to_dxf
  62
52
  10
-35400257.95
  20
11996874.93
  30
0.00
  11
-35400257.95
  21
11996874.93
  31
0.00
  12
-35400238.46
  22
11996874.93
  32
0.00
  13
-35400238.46
  23
11996883.28
  33
0.00
  0
3DFACE
  8
mg_to_dxf
  62
52
  10
-35400244.03
  20
11996856.83
  30
0.00
  11
-35400244.03
  21
11996856.83
  31
0.00
  12
-35400238.46
  22
11996824.81
  32
0.00
  13
-35400241.24
  23
11996865.18
  33
0.00
  0
3DFACE
  8
mg_to_dxf
  62
52
  10
-35400244.03
  20
11996856.83
  30
0.00
  11
-35400244.03
  21
11996856.83
  31
0.00
  12
-35400244.03
  22
11996834.56
  32
0.00
  13
-35400238.46
  23
11996824.81
  33
0.00
  0
3DFACE
  8
mg_to_dxf
  62
52
  10
-35400257.95
  20
11996865.18
  30
0.00
  11
-35400257.95
  21
11996865.18
  31
0.00
  12
-35400263.52
  22
11996883.28
  32
0.00
  13
-35400263.52
  23
11996856.83
  33
0.00
  0
3DFACE
  8
mg_to_dxf
  62
52
  10
-35400257.95
  20
11996865.18
  30
0.00
  11
-35400257.95
  21
11996865.18
  31
0.00
  12
-35400257.95
  22
11996874.93
  32
0.00
  13
-35400263.52
  23
11996883.28
  33
0.00
  0
3DFACE
  8
mg_to_dxf
  62
52
  10
-35400257.95
  20
11996865.18
  30
0.00
  11
-35400257.95
  21
11996865.18
  31
0.00
  12
-35400244.03
  22
11996856.83
  32
0.00
  13
-35400241.24
  23
11996865.18
  33
0.00
  0
3DFACE
  8
mg_to_dxf
  62
52
  10
-35400257.95
  20
11996865.18
  30
0.00
  11
-35400257.95
  21
11996865.18
  31
0.00
  12
-35400263.52
  22
11996856.83
  32
0.00
  13
-35400244.03
  23
11996856.83
  33
0.00
  0
3DFACE
  8
mg_to_dxf
  62
52
  10
-35400283.00
  20
11996803.93
  30
0.00
  11
-35400283.00
  21
11996803.93
  31
0.00
  12
-35400283.00
  22
11996744.08
  32
0.00
  13
-35400277.44
  23
11996769.13
  33
0.00
  0
3DFACE
  8
mg_to_dxf
  62
52
  10
-35400277.44
  20
11996769.13
  30
0.00
  11
-35400277.44
  21
11996769.13
  31
0.00
  12
-35400283.00
  22
11996744.08
  32
0.00
  13
-35400277.44
  23
11996744.08
  33
0.00
  0
3DFACE
  8
mg_to_dxf
  62
52
  10
-35400274.65
  20
11996769.13
  30
0.00
  11
-35400274.65
  21
11996769.13
  31
0.00
  12
-35400260.73
  22
11996744.08
  32
0.00
  13
-35400266.30
  23
11996769.13
  33
0.00
  0
3DFACE
  8
mg_to_dxf
  62
52
  10
-35400274.65
  20
11996769.13
  30
0.00
  11
-35400274.65
  21
11996769.13
  31
0.00
  12
-35400266.30
  22
11996744.08
  32
0.00
  13
-35400260.73
  23
11996744.08
  33
0.00
  0
3DFACE
  8
mg_to_dxf
  62
52
  10
-35400260.73
  20
11996803.93
  30
0.00
  11
-35400260.73
  21
11996803.93
  31
0.00
  12
-35400283.00
  22
11996803.93
  32
0.00
  13
-35400274.65
  23
11996769.13
  33
0.00
  0
3DFACE
  8
mg_to_dxf
  62
52
  10
-35400274.65
  20
11996769.13
  30
0.00
  11
-35400274.65
  21
11996769.13
  31
0.00
  12
-35400283.00
  22
11996803.93
  32
0.00
  13
-35400277.44
  23
11996769.13
  33
0.00
  0
3DFACE
  8
mg_to_dxf
  62
52
  10
-35400266.30
  20
11996769.13
  30
0.00
  11
-35400266.30
  21
11996769.13
  31
0.00
  12
-35400260.73
  22
11996769.13
  32
0.00
  13
-35400260.73
  23
11996803.93
  33
0.00
  0
3DFACE
  8
mg_to_dxf
  62
52
  10
-35400266.30
  20
11996769.13
  30
0.00
  11
-35400266.30
  21
11996769.13
  31
0.00
  12
-35400260.73
  22
11996803.93
  32
0.00
  13
-35400274.65
  23
11996769.13
  33
0.00
  0
3DFACE
  8
mg_to_dxf
  62
52
  10
-35400280.22
  20
11996778.88
  30
0.00
  11
-35400266.30
  21
11996778.88
  31
0.00
  12
-35400266.30
  22
11996794.19
  32
0.00
  13
-35400277.44
  23
11996794.19
  33
0.00
  0
3DFACE
  8
mg_to_dxf
  62
52
  10
-35400355.39
  20
11996554.76
  30
0.00
  11
-35400347.04
  21
11996554.76
  31
0.00
  12
-35400347.04
  22
11996703.71
  32
0.00
  13
-35400355.39
  23
11996703.71
  33
0.00
  0
3DFACE
  8
mg_to_dxf
  62
52
  10
-35400341.47
  20
11996554.76
  30
0.00
  11
-35400333.12
  21
11996554.76
  31
0.00
  12
-35400333.12
  22
11996703.71
  32
0.00
  13
-35400341.47
  23
11996703.71
  33
0.00
  0
3DFACE
  8
mg_to_dxf
  62
52
  10
-35400330.33
  20
11996554.76
  30
0.00
  11
-35400321.98
  21
11996554.76
  31
0.00
  12
-35400319.20
  22
11996703.71
  32
0.00
  13
-35400327.55
  23
11996703.71
  33
0.00
  0
3DFACE
  8
mg_to_dxf
  62
52
  10
-35400313.63
  20
11996554.76
  30
0.00
  11
-35400308.06
  21
11996554.76
  31
0.00
  12
-35400305.28
  22
11996703.71
  32
0.00
  13
-35400313.63
  23
11996703.71
  33
0.00
  0
3DFACE
  8
mg_to_dxf
  62
52
  10
-35400302.49
  20
11996554.76
  30
0.00
  11
-35400294.14
  21
11996554.76
  31
0.00
  12
-35400294.14
  22
11996702.31
  32
0.00
  13
-35400299.71
  23
11996703.71
  33
0.00
  0
3DFACE
  8
mg_to_dxf
  62
52
  10
-35400288.57
  20
11996554.76
  30
0.00
  11
-35400280.22
  21
11996554.76
  31
0.00
  12
-35400280.22
  22
11996702.31
  32
0.00
  13
-35400288.57
  23
11996702.31
  33
0.00
  0
3DFACE
  8
mg_to_dxf
  62
52
  10
-35400266.30
  20
11996554.76
  30
0.00
  11
-35400260.73
  21
11996554.76
  31
0.00
  12
-35400257.95
  22
11996702.31
  32
0.00
  13
-35400266.30
  23
11996702.31
  33
0.00
  0
3DFACE
  8
mg_to_dxf
  62
52
  10
-35400255.16
  20
11996554.76
  30
0.00
  11
-35400246.81
  21
11996554.76
  31
0.00
  12
-35400246.81
  22
11996702.31
  32
0.00
  13
-35400252.38
  23
11996702.31
  33
0.00
  0
3DFACE
  8
mg_to_dxf
  62
52
  10
-35400241.24
  20
11996554.76
  30
0.00
  11
-35400232.89
  21
11996554.76
  31
0.00
  12
-35400232.89
  22
11996702.31
  32
0.00
  13
-35400238.46
  23
11996702.31
  33
0.00
  0
3DFACE
  8
mg_to_dxf
  62
52
  10
-35400227.32
  20
11996554.76
  30
0.00
  11
-35400218.97
  21
11996554.76
  31
0.00
  12
-35400218.97
  22
11996702.31
  32
0.00
  13
-35400227.32
  23
11996702.31
  33
0.00
  0
3DFACE
  8
mg_to_dxf
  62
52
  10
-35400213.40
  20
11996554.76
  30
0.00
  11
-35400205.05
  21
11996554.76
  31
0.00
  12
-35400202.27
  22
11996702.31
  32
0.00
  13
-35400210.62
  23
11996702.31
  33
0.00
  0
3DFACE
  8
mg_to_dxf
  62
52
  10
-35400199.48
  20
11996554.76
  30
0.00
  11
-35400191.13
  21
11996554.76
  31
0.00
  12
-35400191.13
  22
11996702.31
  32
0.00
  13
-35400199.48
  23
11996702.31
  33
0.00
  0
3DFACE
  8
mg_to_dxf
  62
52
  10
-35400274.65
  20
11996533.88
  30
0.00
  11
-35400274.65
  21
11996533.88
  31
0.00
  12
-35400185.56
  22
11996532.49
  32
0.00
  13
-35400274.65
  23
11996542.23
  33
0.00
  0
3DFACE
  8
mg_to_dxf
  62
52
  10
-35400274.65
  20
11996542.23
  30
0.00
  11
-35400274.65
  21
11996542.23
  31
0.00
  12
-35400185.56
  22
11996532.49
  32
0.00
  13
-35400185.56
  23
11996542.23
  33
0.00
  0
3DFACE
  8
mg_to_dxf
  62
52
  10
-35400274.65
  20
11996533.88
  30
0.00
  11
-35400274.65
  21
11996533.88
  31
0.00
  12
-35400360.96
  22
11996543.62
  32
0.00
  13
-35400360.96
  23
11996533.88
  33
0.00
  0
3DFACE
  8
mg_to_dxf
  62
52
  10
-35400274.65
  20
11996533.88
  30
0.00
  11
-35400274.65
  21
11996533.88
  31
0.00
  12
-35400274.65
  22
11996542.23
  32
0.00
  13
-35400360.96
  23
11996543.62
  33
0.00
  0
3DFACE
  8
mg_to_dxf
  62
52
  10
-35403971.90
  20
12009805.55
  30
0.00
  11
-35403971.90
  21
12009805.55
  31
0.00
  12
-35403963.55
  22
12009797.20
  32
0.00
  13
-35403891.16
  23
12009873.76
  33
0.00
  0
3DFACE
  8
mg_to_dxf
  62
52
  10
-35404055.42
  20
12009734.56
  30
0.00
  11
-35404055.42
  21
12009734.56
  31
0.00
  12
-35403963.55
  22
12009797.20
  32
0.00
  13
-35403971.90
  23
12009805.55
  33
0.00
  0
3DFACE
  8
mg_to_dxf
  62
52
  10
-35404047.07
  20
12009727.60
  30
0.00
  11
-35404047.07
  21
12009727.60
  31
0.00
  12
-35403963.55
  22
12009797.20
  32
0.00
  13
-35404055.42
  23
12009734.56
  33
0.00
  0
3DFACE
  8
mg_to_dxf
  62
52
  10
-35403891.16
  20
12009873.76
  30
0.00
  11
-35403891.16
  21
12009873.76
  31
0.00
  12
-35403963.55
  22
12009797.20
  32
0.00
  13
-35403882.81
  23
12009866.80
  33
0.00
  0
3DFACE
  8
mg_to_dxf
  62
52
  10
-35404019.23
  20
12009723.42
  30
0.00
  11
-35404024.80
  21
12009719.25
  31
0.00
  12
-35403899.52
  22
12009610.67
  32
0.00
  13
-35403893.95
  23
12009616.24
  33
0.00
  0
3DFACE
  8
mg_to_dxf
  62
52
  10
-35404010.88
  20
12009730.38
  30
0.00
  11
-35404016.45
  21
12009726.21
  31
0.00
  12
-35403891.16
  22
12009619.02
  32
0.00
  13
-35403885.60
  23
12009623.20
  33
0.00
  0
3DFACE
  8
mg_to_dxf
  62
52
  10
-35403999.74
  20
12009740.13
  30
0.00
  11
-35404005.31
  21
12009734.56
  31
0.00
  12
-35403880.03
  22
12009627.37
  32
0.00
  13
-35403874.46
  23
12009631.55
  33
0.00
  0
3DFACE
  8
mg_to_dxf
  62
52
  10
-35403991.39
  20
12009747.09
  30
0.00
  11
-35403996.96
  21
12009742.91
  31
0.00
  12
-35403871.67
  22
12009635.72
  32
0.00
  13
-35403866.11
  23
12009639.90
  33
0.00
  0
3DFACE
  8
mg_to_dxf
  62
52
  10
-35403980.25
  20
12009755.44
  30
0.00
  11
-35403985.82
  21
12009751.26
  31
0.00
  12
-35403860.54
  22
12009644.08
  32
0.00
  13
-35403854.97
  23
12009648.25
  33
0.00
  0
3DFACE
  8
mg_to_dxf
  62
52
  10
-35403971.90
  20
12009763.79
  30
0.00
  11
-35403977.47
  21
12009758.22
  31
0.00
  12
-35403852.19
  22
12009651.04
  32
0.00
  13
-35403846.62
  23
12009655.21
  33
0.00
  0
3DFACE
  8
mg_to_dxf
  62
52
  10
-35403960.77
  20
12009772.14
  30
0.00
  11
-35403966.33
  21
12009767.97
  31
0.00
  12
-35403841.05
  22
12009659.39
  32
0.00
  13
-35403835.48
  23
12009664.96
  33
0.00
  0
3DFACE
  8
mg_to_dxf
  62
52
  10
-35403952.41
  20
12009779.10
  30
0.00
  11
-35403957.98
  21
12009774.93
  31
0.00
  12
-35403829.91
  22
12009667.74
  32
0.00
  13
-35403827.13
  23
12009671.92
  33
0.00
  0
3DFACE
  8
mg_to_dxf
  62
52
  10
-35403938.49
  20
12009791.63
  30
0.00
  11
-35403944.06
  21
12009787.46
  31
0.00
  12
-35403815.99
  22
12009678.88
  32
0.00
  13
-35403810.43
  23
12009684.45
  33
0.00
  0
3DFACE
  8
mg_to_dxf
  62
52
  10
-35403927.36
  20
12009799.99
  30
0.00
  11
-35403932.92
  21
12009795.81
  31
0.00
  12
-35403807.64
  22
12009687.23
  32
0.00
  13
-35403802.07
  23
12009692.80
  33
0.00
  0
3DFACE
  8
mg_to_dxf
  62
52
  10
-35403919.00
  20
12009808.34
  30
0.00
  11
-35403924.57
  21
12009802.77
  31
0.00
  12
-35403796.50
  22
12009695.58
  32
0.00
  13
-35403790.94
  23
12009699.76
  33
0.00
  0
3DFACE
  8
mg_to_dxf
  62
52
  10
-35403907.87
  20
12009815.30
  30
0.00
  11
-35403913.44
  21
12009811.12
  31
0.00
  12
-35403788.15
  22
12009703.93
  32
0.00
  13
-35403782.58
  23
12009708.11
  33
0.00
  0
3DFACE
  8
mg_to_dxf
  62
52
  10
-35403896.73
  20
12009825.04
  30
0.00
  11
-35403902.30
  21
12009819.47
  31
0.00
  12
-35403777.02
  22
12009712.29
  32
0.00
  13
-35403771.45
  23
12009716.46
  33
0.00
  0
3DFACE
  8
mg_to_dxf
  62
52
  10
-35403888.38
  20
12009832.00
  30
0.00
  11
-35403893.95
  21
12009827.83
  31
0.00
  12
-35403768.66
  22
12009720.64
  32
0.00
  13
-35403763.10
  23
12009724.82
  33
0.00
  0
3DFACE
  8
mg_to_dxf
  62
52
  10
-35403877.24
  20
12009840.35
  30
0.00
  11
-35403882.81
  21
12009836.18
  31
0.00
  12
-35403757.53
  22
12009728.99
  32
0.00
  13
-35403751.96
  23
12009733.17
  33
0.00
  0
3DFACE
  8
mg_to_dxf
  62
52
  10
-35403868.89
  20
12009848.71
  30
0.00
  11
-35403874.46
  21
12009844.53
  31
0.00
  12
-35403746.39
  22
12009737.34
  32
0.00
  13
-35403743.61
  23
12009741.52
  33
0.00
  0
3DFACE
  8
mg_to_dxf
  62
52
  10
-35403777.02
  20
12009644.08
  30
0.00
  11
-35403777.02
  21
12009644.08
  31
0.00
  12
-35403735.26
  22
12009610.67
  32
0.00
  13
-35403782.58
  23
12009655.21
  33
0.00
  0
3DFACE
  8
mg_to_dxf
  62
52
  10
-35403782.58
  20
12009655.21
  30
0.00
  11
-35403782.58
  21
12009655.21
  31
0.00
  12
-35403735.26
  22
12009610.67
  32
0.00
  13
-35403729.69
  23
12009613.45
  33
0.00
  0
3DFACE
  8
mg_to_dxf
  62
52
  10
-35403777.02
  20
12009644.08
  30
0.00
  11
-35403777.02
  21
12009644.08
  31
0.00
  12
-35403796.50
  22
12009641.29
  32
0.00
  13
-35403788.15
  23
12009634.33
  33
0.00
  0
3DFACE
  8
mg_to_dxf
  62
52
  10
-35403777.02
  20
12009644.08
  30
0.00
  11
-35403777.02
  21
12009644.08
  31
0.00
  12
-35403782.58
  22
12009655.21
  32
0.00
  13
-35403796.50
  23
12009641.29
  33
0.00
  0
3DFACE
  8
mg_to_dxf
  62
52
  10
-35403699.06
  20
12009548.03
  30
0.00
  11
-35403699.06
  21
12009548.03
  31
0.00
  12
-35403704.63
  22
12009546.63
  32
0.00
  13
-35403690.71
  23
12009534.11
  33
0.00
  0
3DFACE
  8
mg_to_dxf
  62
52
  10
-35403712.98
  20
12009561.95
  30
0.00
  11
-35403712.98
  21
12009561.95
  31
0.00
  12
-35403715.77
  22
12009554.99
  32
0.00
  13
-35403704.63
  23
12009556.38
  33
0.00
  0
3DFACE
  8
mg_to_dxf
  62
52
  10
-35403690.71
  20
12009534.11
  30
0.00
  11
-35403690.71
  21
12009534.11
  31
0.00
  12
-35403682.36
  22
12009554.99
  32
0.00
  13
-35403693.49
  23
12009545.24
  33
0.00
  0
3DFACE
  8
mg_to_dxf
  62
52
  10
-35403690.71
  20
12009534.11
  30
0.00
  11
-35403690.71
  21
12009534.11
  31
0.00
  12
-35403674.01
  22
12009548.03
  32
0.00
  13
-35403682.36
  23
12009554.99
  33
0.00
  0
3DFACE
  8
mg_to_dxf
  62
52
  10
-35403690.71
  20
12009534.11
  30
0.00
  11
-35403690.71
  21
12009534.11
  31
0.00
  12
-35403693.49
  22
12009545.24
  32
0.00
  13
-35403699.06
  23
12009548.03
  33
0.00
  0
3DFACE
  8
mg_to_dxf
  62
52
  10
-35403704.63
  20
12009556.38
  30
0.00
  11
-35403704.63
  21
12009556.38
  31
0.00
  12
-35403704.63
  22
12009546.63
  32
0.00
  13
-35403699.06
  23
12009548.03
  33
0.00
  0
3DFACE
  8
mg_to_dxf
  62
52
  10
-35403726.90
  20
12009573.08
  30
0.00
  11
-35403726.90
  21
12009573.08
  31
0.00
  12
-35403724.12
  22
12009591.18
  32
0.00
  13
-35403738.04
  23
12009575.87
  33
0.00
  0
3DFACE
  8
mg_to_dxf
  62
52
  10
-35403726.90
  20
12009573.08
  30
0.00
  11
-35403726.90
  21
12009573.08
  31
0.00
  12
-35403715.77
  22
12009584.22
  32
0.00
  13
-35403724.12
  23
12009591.18
  33
0.00
  0
3DFACE
  8
mg_to_dxf
  62
52
  10
-35403704.63
  20
12009556.38
  30
0.00
  11
-35403704.63
  21
12009556.38
  31
0.00
  12
-35403699.06
  22
12009548.03
  32
0.00
  13
-35403699.06
  23
12009561.95
  33
0.00
  0
3DFACE
  8
mg_to_dxf
  62
52
  10
-35403712.98
  20
12009561.95
  30
0.00
  11
-35403712.98
  21
12009561.95
  31
0.00
  12
-35403726.90
  22
12009573.08
  32
0.00
  13
-35403738.04
  23
12009575.87
  33
0.00
  0
3DFACE
  8
mg_to_dxf
  62
52
  10
-35403712.98
  20
12009561.95
  30
0.00
  11
-35403712.98
  21
12009561.95
  31
0.00
  12
-35403738.04
  22
12009575.87
  32
0.00
  13
-35403715.77
  23
12009554.99
  33
0.00
  0
3DFACE
  8
mg_to_dxf
  62
52
  10
-35403712.98
  20
12009561.95
  30
0.00
  11
-35403712.98
  21
12009561.95
  31
0.00
  12
-35403704.63
  22
12009556.38
  32
0.00
  13
-35403699.06
  23
12009561.95
  33
0.00
  0
3DFACE
  8
mg_to_dxf
  62
52
  10
-35403662.87
  20
12009568.91
  30
0.00
  11
-35403662.87
  21
12009568.91
  31
0.00
  12
-35403657.30
  22
12009564.73
  32
0.00
  13
-35403662.87
  23
12009568.91
  33
0.00
  0
3DFACE
  8
mg_to_dxf
  62
52
  10
-35403707.41
  20
12009603.71
  30
0.00
  11
-35403707.41
  21
12009603.71
  31
0.00
  12
-35403657.30
  22
12009564.73
  32
0.00
  13
-35403662.87
  23
12009568.91
  33
0.00
  0
3DFACE
  8
mg_to_dxf
  62
52
  10
-35403710.20
  20
12009600.92
  30
0.00
  11
-35403710.20
  21
12009600.92
  31
0.00
  12
-35403657.30
  22
12009564.73
  32
0.00
  13
-35403707.41
  23
12009603.71
  33
0.00
  0
3DFACE
  8
mg_to_dxf
  62
52
  10
-35403710.20
  20
12009600.92
  30
0.00
  11
-35403710.20
  21
12009600.92
  31
0.00
  12
-35403660.09
  22
12009560.55
  32
0.00
  13
-35403657.30
  23
12009564.73
  33
0.00
  0
3DFACE
  8
mg_to_dxf
  62
52
  10
-35403081.00
  20
12009095.61
  30
0.00
  11
-35402955.71
  21
12008989.82
  31
0.00
  12
-35402927.87
  22
12009010.70
  32
0.00
  13
-35403055.94
  23
12009116.50
  33
0.00
  0
3DFACE
  8
mg_to_dxf
  62
52
  10
-35403014.18
  20
12008939.71
  30
0.00
  11
-35403142.25
  21
12009046.89
  31
0.00
  12
-35403167.30
  22
12009024.62
  32
0.00
  13
-35403042.02
  23
12008917.43
  33
0.00
  0
3DFACE
  8
mg_to_dxf
  62
52
  10
-35399464.49
  20
12006017.82
  30
0.00
  11
-35399458.92
  21
12006022.00
  31
0.00
  12
-35399522.95
  22
12006074.90
  32
0.00
  13
-35399528.52
  23
12006070.72
  33
0.00
  0
3DFACE
  8
mg_to_dxf
  62
52
  10
-35399531.31
  20
12005962.14
  30
0.00
  11
-35399525.74
  21
12005966.32
  31
0.00
  12
-35399589.77
  22
12006020.61
  32
0.00
  13
-35399595.34
  23
12006016.43
  33
0.00
  0
3DFACE
  8
mg_to_dxf
  62
52
  10
-35399108.13
  20
12005712.97
  30
0.00
  11
-35399046.88
  21
12005661.46
  31
0.00
  12
-35399041.31
  22
12005665.64
  32
0.00
  13
-35399102.56
  23
12005717.14
  33
0.00
  0
3DFACE
  8
mg_to_dxf
  62
52
  10
-35399174.94
  20
12005657.28
  30
0.00
  11
-35399110.91
  21
12005605.78
  31
0.00
  12
-35399108.13
  22
12005609.96
  32
0.00
  13
-35399169.38
  23
12005661.46
  33
0.00
  0
3DFACE
  8
mg_to_dxf
  62
52
  10
-35398682.16
  20
12005363.56
  30
0.00
  11
-35398618.13
  21
12005310.67
  31
0.00
  12
-35398612.56
  22
12005314.84
  32
0.00
  13
-35398676.59
  23
12005369.13
  33
0.00
  0
3DFACE
  8
mg_to_dxf
  62
52
  10
-35398690.52
  20
12005358.00
  30
0.00
  11
-35398626.48
  21
12005303.71
  31
0.00
  12
-35398620.91
  22
12005309.28
  32
0.00
  13
-35398684.95
  23
12005362.17
  33
0.00
  0
3DFACE
  8
mg_to_dxf
  62
52
  10
-35398757.33
  20
12005300.92
  30
0.00
  11
-35398690.52
  21
12005248.03
  31
0.00
  12
-35398684.95
  22
12005252.20
  32
0.00
  13
-35398751.76
  23
12005306.49
  33
0.00
  0
3DFACE
  8
mg_to_dxf
  62
52
  10
-35398765.69
  20
12005293.96
  30
0.00
  11
-35398701.65
  21
12005241.07
  31
0.00
  12
-35398696.08
  22
12005245.24
  32
0.00
  13
-35398760.12
  23
12005299.53
  33
0.00
  0
3DFACE
  8
mg_to_dxf
  62
52
  10
-35398261.77
  20
12005007.20
  30
0.00
  11
-35398194.95
  21
12004952.91
  31
0.00
  12
-35398192.17
  22
12004958.48
  32
0.00
  13
-35398256.20
  23
12005011.38
  33
0.00
  0
3DFACE
  8
mg_to_dxf
  62
52
  10
-35398270.12
  20
12004998.85
  30
0.00
  11
-35398206.09
  21
12004944.56
  31
0.00
  12
-35398200.52
  22
12004950.13
  32
0.00
  13
-35398264.55
  23
12005003.03
  33
0.00
  0
3DFACE
  8
mg_to_dxf
  62
52
  10
-35398334.15
  20
12004943.17
  30
0.00
  11
-35398270.12
  21
12004890.27
  31
0.00
  12
-35398264.55
  22
12004894.45
  32
0.00
  13
-35398328.59
  23
12004948.74
  33
0.00
  0
3DFACE
  8
mg_to_dxf
  62
52
  10
-35398345.29
  20
12004934.82
  30
0.00
  11
-35398281.26
  21
12004881.92
  31
0.00
  12
-35398275.69
  22
12004886.10
  32
0.00
  13
-35398339.72
  23
12004940.39
  33
0.00
  0
3DFACE
  8
mg_to_dxf
  62
52
  10
-35397913.76
  20
12004694.00
  30
0.00
  11
-35397782.91
  21
12004585.42
  31
0.00
  12
-35397757.85
  22
12004607.69
  32
0.00
  13
-35397888.70
  23
12004716.27
  33
0.00
  0
3DFACE
  8
mg_to_dxf
  62
52
  10
-35397846.94
  20
12004535.30
  30
0.00
  11
-35397975.01
  21
12004643.88
  31
0.00
  12
-35398000.07
  22
12004624.39
  32
0.00
  13
-35397872.00
  23
12004514.42
  33
0.00
  0
3DFACE
  8
mg_to_dxf
  62
52
  10
-35397412.63
  20
12004298.66
  30
0.00
  11
-35397348.59
  21
12004244.37
  31
0.00
  12
-35397340.24
  22
12004249.94
  32
0.00
  13
-35397404.27
  23
12004304.23
  33
0.00
  0
3DFACE
  8
mg_to_dxf
  62
52
  10
-35397420.98
  20
12004291.70
  30
0.00
  11
-35397356.94
  21
12004237.41
  31
0.00
  12
-35397351.38
  22
12004242.98
  32
0.00
  13
-35397415.41
  23
12004295.87
  33
0.00
  0
3DFACE
  8
mg_to_dxf
  62
52
  10
-35397429.33
  20
12004283.34
  30
0.00
  11
-35397365.30
  21
12004230.45
  31
0.00
  12
-35397359.73
  22
12004236.02
  32
0.00
  13
-35397423.76
  23
12004288.91
  33
0.00
  0
3DFACE
  8
mg_to_dxf
  62
52
  10
-35397496.15
  20
12004229.06
  30
0.00
  11
-35397432.11
  21
12004176.16
  31
0.00
  12
-35397426.55
  22
12004180.33
  32
0.00
  13
-35397490.58
  23
12004234.62
  33
0.00
  0
3DFACE
  8
mg_to_dxf
  62
52
  10
-35397504.50
  20
12004220.70
  30
0.00
  11
-35397443.25
  21
12004167.81
  31
0.00
  12
-35397434.90
  22
12004171.98
  32
0.00
  13
-35397498.93
  23
12004226.27
  33
0.00
  0
3DFACE
  8
mg_to_dxf
  62
52
  10
-35397515.64
  20
12004212.35
  30
0.00
  11
-35397451.60
  21
12004159.45
  31
0.00
  12
-35397446.03
  22
12004163.63
  32
0.00
  13
-35397510.07
  23
12004217.92
  33
0.00
  0
3DFACE
  8
mg_to_dxf
  62
52
  10
-35397201.04
  20
12004023.03
  30
0.00
  11
-35397201.04
  21
12004023.03
  31
0.00
  12
-35397150.92
  22
12003981.27
  32
0.00
  13
-35397167.63
  23
12004003.55
  33
0.00
  0
3DFACE
  8
mg_to_dxf
  62
52
  10
-35397167.63
  20
12004003.55
  30
0.00
  11
-35397167.63
  21
12004003.55
  31
0.00
  12
-35397150.92
  22
12003981.27
  32
0.00
  13
-35397148.14
  23
12003984.06
  33
0.00
  0
3DFACE
  8
mg_to_dxf
  62
52
  10
-35397164.84
  20
12004006.33
  30
0.00
  11
-35397164.84
  21
12004006.33
  31
0.00
  12
-35397134.22
  22
12003995.19
  32
0.00
  13
-35397159.28
  23
12004010.51
  33
0.00
  0
3DFACE
  8
mg_to_dxf
  62
52
  10
-35397164.84
  20
12004006.33
  30
0.00
  11
-35397164.84
  21
12004006.33
  31
0.00
  12
-35397137.00
  22
12003991.02
  32
0.00
  13
-35397134.22
  23
12003995.19
  33
0.00
  0
3DFACE
  8
mg_to_dxf
  62
52
  10
-35397201.04
  20
12004023.03
  30
0.00
  11
-35397201.04
  21
12004023.03
  31
0.00
  12
-35397159.28
  22
12004010.51
  32
0.00
  13
-35397184.33
  23
12004038.35
  33
0.00
  0
3DFACE
  8
mg_to_dxf
  62
52
  10
-35397164.84
  20
12004006.33
  30
0.00
  11
-35397164.84
  21
12004006.33
  31
0.00
  12
-35397159.28
  22
12004010.51
  32
0.00
  13
-35397201.04
  23
12004023.03
  33
0.00
  0
3DFACE
  8
mg_to_dxf
  62
52
  10
-35397184.33
  20
12004038.35
  30
0.00
  11
-35397184.33
  21
12004038.35
  31
0.00
  12
-35397159.28
  22
12004010.51
  32
0.00
  13
-35397156.49
  23
12004013.29
  33
0.00
  0
3DFACE
  8
mg_to_dxf
  62
52
  10
-35397164.84
  20
12004006.33
  30
0.00
  11
-35397164.84
  21
12004006.33
  31
0.00
  12
-35397201.04
  22
12004023.03
  32
0.00
  13
-35397167.63
  23
12004003.55
  33
0.00
  0
3DFACE
  8
mg_to_dxf
  62
52
  10
-35397175.98
  20
12004010.51
  30
0.00
  11
-35397167.63
  21
12004016.07
  31
0.00
  12
-35397181.55
  22
12004027.21
  32
0.00
  13
-35397187.12
  23
12004020.25
  33
0.00
  0
3DFACE
  8
mg_to_dxf
  62
52
  10
-35397245.58
  20
12004085.68
  30
0.00
  11
-35397245.58
  21
12004085.68
  31
0.00
  12
-35397203.82
  22
12004050.87
  32
0.00
  13
-35397248.37
  23
12004095.42
  33
0.00
  0
3DFACE
  8
mg_to_dxf
  62
52
  10
-35397248.37
  20
12004095.42
  30
0.00
  11
-35397248.37
  21
12004095.42
  31
0.00
  12
-35397203.82
  22
12004050.87
  32
0.00
  13
-35397198.25
  23
12004055.05
  33
0.00
  0
3DFACE
  8
mg_to_dxf
  62
52
  10
-35397245.58
  20
12004085.68
  30
0.00
  11
-35397245.58
  21
12004085.68
  31
0.00
  12
-35397253.93
  22
12004091.24
  32
0.00
  13
-35397248.37
  23
12004084.28
  33
0.00
  0
3DFACE
  8
mg_to_dxf
  62
52
  10
-35397245.58
  20
12004085.68
  30
0.00
  11
-35397245.58
  21
12004085.68
  31
0.00
  12
-35397248.37
  22
12004095.42
  32
0.00
  13
-35397253.93
  23
12004091.24
  33
0.00
  0
3DFACE
  8
mg_to_dxf
  62
52
  10
-35397267.85
  20
12004081.50
  30
0.00
  11
-35397267.85
  21
12004081.50
  31
0.00
  12
-35397276.21
  22
12004062.01
  32
0.00
  13
-35397262.29
  23
12004071.76
  33
0.00
  0
3DFACE
  8
mg_to_dxf
  62
52
  10
-35397267.85
  20
12004081.50
  30
0.00
  11
-35397267.85
  21
12004081.50
  31
0.00
  12
-35397281.77
  22
12004067.58
  32
0.00
  13
-35397276.21
  23
12004062.01
  33
0.00
  0
3DFACE
  8
mg_to_dxf
  62
52
  10
-35397253.93
  20
12004070.36
  30
0.00
  11
-35397253.93
  21
12004070.36
  31
0.00
  12
-35397262.29
  22
12004071.76
  32
0.00
  13
-35397259.50
  23
12004068.97
  33
0.00
  0
3DFACE
  8
mg_to_dxf
  62
52
  10
-35397253.93
  20
12004070.36
  30
0.00
  11
-35397253.93
  21
12004070.36
  31
0.00
  12
-35397267.85
  22
12004081.50
  32
0.00
  13
-35397262.29
  23
12004071.76
  33
0.00
  0
3DFACE
  8
mg_to_dxf
  62
52
  10
-35397228.88
  20
12004042.52
  30
0.00
  11
-35397228.88
  21
12004042.52
  31
0.00
  12
-35397231.66
  22
12004027.21
  32
0.00
  13
-35397217.74
  23
12004041.13
  33
0.00
  0
3DFACE
  8
mg_to_dxf
  62
52
  10
-35397228.88
  20
12004042.52
  30
0.00
  11
-35397228.88
  21
12004042.52
  31
0.00
  12
-35397240.01
  22
12004032.78
  32
0.00
  13
-35397231.66
  23
12004027.21
  33
0.00
  0
3DFACE
  8
mg_to_dxf
  62
52
  10
-35397253.93
  20
12004060.62
  30
0.00
  11
-35397253.93
  21
12004060.62
  31
0.00
  12
-35397259.50
  22
12004068.97
  32
0.00
  13
-35397259.50
  23
12004055.05
  33
0.00
  0
3DFACE
  8
mg_to_dxf
  62
52
  10
-35397253.93
  20
12004060.62
  30
0.00
  11
-35397253.93
  21
12004060.62
  31
0.00
  12
-35397253.93
  22
12004070.36
  32
0.00
  13
-35397259.50
  23
12004068.97
  33
0.00
  0
3DFACE
  8
mg_to_dxf
  62
52
  10
-35397245.58
  20
12004055.05
  30
0.00
  11
-35397245.58
  21
12004055.05
  31
0.00
  12
-35397217.74
  22
12004041.13
  32
0.00
  13
-35397240.01
  23
12004060.62
  33
0.00
  0
3DFACE
  8
mg_to_dxf
  62
52
  10
-35397245.58
  20
12004055.05
  30
0.00
  11
-35397245.58
  21
12004055.05
  31
0.00
  12
-35397228.88
  22
12004042.52
  32
0.00
  13
-35397217.74
  23
12004041.13
  33
0.00
  0
3DFACE
  8
mg_to_dxf
  62
52
  10
-35397245.58
  20
12004055.05
  30
0.00
  11
-35397245.58
  21
12004055.05
  31
0.00
  12
-35397253.93
  22
12004060.62
  32
0.00
  13
-35397259.50
  23
12004055.05
  33
0.00
  0
3DFACE
  8
mg_to_dxf
  62
52
  10
-35397245.58
  20
12004055.05
  30
0.00
  11
-35397245.58
  21
12004055.05
  31
0.00
  12
-35397240.01
  22
12004060.62
  32
0.00
  13
-35397253.93
  23
12004060.62
  33
0.00
  0
3DFACE
  8
mg_to_dxf
  62
52
  10
-35397061.83
  20
12003786.39
  30
0.00
  11
-35397056.26
  21
12003791.96
  31
0.00
  12
-35397181.55
  22
12003899.14
  32
0.00
  13
-35397187.12
  23
12003894.97
  33
0.00
  0
3DFACE
  8
mg_to_dxf
  62
52
  10
-35397050.70
  20
12003794.74
  30
0.00
  11
-35397045.13
  21
12003798.92
  31
0.00
  12
-35397173.20
  22
12003907.49
  32
0.00
  13
-35397178.76
  23
12003903.32
  33
0.00
  0
3DFACE
  8
mg_to_dxf
  62
52
  10
-35397042.34
  20
12003803.09
  30
0.00
  11
-35397036.78
  21
12003807.27
  31
0.00
  12
-35397164.84
  22
12003915.85
  32
0.00
  13
-35397170.41
  23
12003910.28
  33
0.00
  0
3DFACE
  8
mg_to_dxf
  62
52
  10
-35397033.99
  20
12003811.44
  30
0.00
  11
-35397028.42
  21
12003815.62
  31
0.00
  12
-35397153.71
  22
12003924.20
  32
0.00
  13
-35397159.28
  23
12003918.63
  33
0.00
  0
3DFACE
  8
mg_to_dxf
  62
52
  10
-35397022.86
  20
12003819.80
  30
0.00
  11
-35397017.29
  21
12003823.97
  31
0.00
  12
-35397145.35
  22
12003931.16
  32
0.00
  13
-35397150.92
  23
12003926.98
  33
0.00
  0
3DFACE
  8
mg_to_dxf
  62
52
  10
-35397014.50
  20
12003828.15
  30
0.00
  11
-35397008.94
  21
12003832.32
  31
0.00
  12
-35397134.22
  22
12003939.51
  32
0.00
  13
-35397139.79
  23
12003935.34
  33
0.00
  0
3DFACE
  8
mg_to_dxf
  62
52
  10
-35397003.37
  20
12003836.50
  30
0.00
  11
-35396997.80
  21
12003840.68
  31
0.00
  12
-35397125.87
  22
12003949.26
  32
0.00
  13
-35397128.65
  23
12003945.08
  33
0.00
  0
3DFACE
  8
mg_to_dxf
  62
52
  10
-35396995.01
  20
12003844.85
  30
0.00
  11
-35396989.45
  21
12003849.03
  31
0.00
  12
-35397114.73
  22
12003956.22
  32
0.00
  13
-35397120.30
  23
12003952.04
  33
0.00
  0
3DFACE
  8
mg_to_dxf
  62
52
  10
-35396978.31
  20
12003857.38
  30
0.00
  11
-35396972.74
  21
12003861.56
  31
0.00
  12
-35397100.81
  22
12003968.74
  32
0.00
  13
-35397106.38
  23
12003964.57
  33
0.00
  0
3DFACE
  8
mg_to_dxf
  62
52
  10
-35396969.96
  20
12003864.34
  30
0.00
  11
-35396964.39
  21
12003868.52
  31
0.00
  12
-35397092.46
  22
12003977.10
  32
0.00
  13
-35397098.03
  23
12003972.92
  33
0.00
  0
3DFACE
  8
mg_to_dxf
  62
52
  10
-35396961.61
  20
12003872.69
  30
0.00
  11
-35396956.04
  21
12003876.87
  31
0.00
  12
-35397081.32
  22
12003985.45
  32
0.00
  13
-35397086.89
  23
12003979.88
  33
0.00
  0
3DFACE
  8
mg_to_dxf
  62
52
  10
-35396950.47
  20
12003881.05
  30
0.00
  11
-35396944.90
  21
12003885.22
  31
0.00
  12
-35397072.97
  22
12003993.80
  32
0.00
  13
-35397075.75
  23
12003988.23
  33
0.00
  0
3DFACE
  8
mg_to_dxf
  62
52
  10
-35396939.33
  20
12003889.40
  30
0.00
  11
-35396933.77
  21
12003893.57
  31
0.00
  12
-35397061.83
  22
12004002.15
  32
0.00
  13
-35397067.40
  23
12003996.59
  33
0.00
  0
3DFACE
  8
mg_to_dxf
  62
52
  10
-35396930.98
  20
12003896.36
  30
0.00
  11
-35396925.41
  21
12003900.53
  31
0.00
  12
-35397053.48
  22
12004009.11
  32
0.00
  13
-35397059.05
  23
12004003.55
  33
0.00
  0
3DFACE
  8
mg_to_dxf
  62
52
  10
-35396922.63
  20
12003904.71
  30
0.00
  11
-35396917.06
  21
12003908.89
  31
0.00
  12
-35397042.34
  22
12004017.47
  32
0.00
  13
-35397047.91
  23
12004011.90
  33
0.00
  0
3DFACE
  8
mg_to_dxf
  62
52
  10
-35396911.49
  20
12003913.06
  30
0.00
  11
-35396905.92
  21
12003917.24
  31
0.00
  12
-35397033.99
  22
12004025.82
  32
0.00
  13
-35397039.56
  23
12004020.25
  33
0.00
  0
3DFACE
  8
mg_to_dxf
  62
52
  10
-35396883.65
  20
12003908.89
  30
0.00
  11
-35396883.65
  21
12003908.89
  31
0.00
  12
-35396892.00
  22
12003915.85
  32
0.00
  13
-35396967.17
  23
12003837.89
  33
0.00
  0
3DFACE
  8
mg_to_dxf
  62
52
  10
-35396975.53
  20
12003846.25
  30
0.00
  11
-35396975.53
  21
12003846.25
  31
0.00
  12
-35397050.70
  22
12003768.29
  32
0.00
  13
-35396967.17
  23
12003837.89
  33
0.00
  0
3DFACE
  8
mg_to_dxf
  62
52
  10
-35396975.53
  20
12003846.25
  30
0.00
  11
-35396975.53
  21
12003846.25
  31
0.00
  12
-35397059.05
  22
12003776.64
  32
0.00
  13
-35397050.70
  23
12003768.29
  33
0.00
  0
3DFACE
  8
mg_to_dxf
  62
52
  10
-35396975.53
  20
12003846.25
  30
0.00
  11
-35396975.53
  21
12003846.25
  31
0.00
  12
-35396967.17
  22
12003837.89
  32
0.00
  13
-35396892.00
  23
12003915.85
  33
0.00
  0
ENDSEC
  0
EOF
