<?xml version="1.0" encoding="iso-8859-1"?>
<!-- Generator: Adobe Illustrator 19.0.0, SVG Export Plug-In . SVG Version: 6.00 Build 0)  -->
<svg version="1.1" id="Capa_1" xmlns="http://www.w3.org/2000/svg" xmlns:xlink="http://www.w3.org/1999/xlink" x="0px" y="0px"
	 viewBox="0 0 469.333 469.333" style="enable-background:new 0 0 469.333 469.333;" xml:space="preserve"
   width="18"
   height="18">
<path style="fill:#303C42;" d="M426.667,0h-384C19.135,0,0,19.135,0,42.667v384c0,23.531,19.135,42.667,42.667,42.667h384
	c23.531,0,42.667-19.135,42.667-42.667v-384C469.333,19.135,450.198,0,426.667,0z"/>
<path style="fill:#FAFAFA;" d="M448,426.667c0,11.76-9.573,21.333-21.333,21.333h-384c-11.76,0-21.333-9.573-21.333-21.333v-384
	c0-11.76,9.573-21.333,21.333-21.333h384c11.76,0,21.333,9.573,21.333,21.333V426.667z"/>
<path style="fill:#303C42;" d="M388.969,175.073c-0.854-0.448-1.76-0.781-2.708-0.99l-109.167-23.698
	c-2.177-38.719-19.01-65.052-42.427-65.052s-40.25,26.323-42.427,65.031L82.333,174.083c-0.948,0.208-1.865,0.542-2.719,0.99
	c-9.49,5-15.615,15.781-15.615,27.469V224c0,5.896,4.771,10.667,10.667,10.667h118.167c2.542,30.229,5.094,53.156,8.813,79.146
	l-24.969,12.104c-3.677,1.781-6.01,5.51-6.01,9.594v37.823c0,3.542,1.76,6.844,4.688,8.833c2.917,1.969,6.677,2.375,9.938,1.073
	l49.375-19.75l49.375,19.75c1.271,0.51,2.615,0.76,3.958,0.76c2.104,0,4.188-0.625,5.979-1.833c2.927-1.99,4.688-5.292,4.688-8.833
	V335.51c0-4.083-2.333-7.813-6.01-9.594l-24.969-12.104c3.719-25.99,6.271-48.917,8.813-79.146h118.167
	c2.896,0,5.667-1.177,7.677-3.26c2.01-2.083,3.083-4.885,2.979-7.781l-0.74-21.083C404.583,190.854,398.458,180.073,388.969,175.073
	z"/>
<path style="fill:#1E88E5;" d="M266.667,213.333c-5.563,0-10.188,4.271-10.635,9.823c-3.021,37.854-5.885,63.677-10.583,95.271
	c-0.688,4.615,1.708,9.135,5.896,11.167l25.99,12.604v15.385l-38.708-15.49c-1.271-0.51-2.615-0.76-3.958-0.76
	s-2.688,0.25-3.958,0.76L192,357.583v-15.385l25.99-12.604c4.188-2.031,6.583-6.552,5.896-11.167
	c-4.698-31.594-7.563-57.417-10.583-95.271c-0.448-5.552-5.073-9.823-10.635-9.823H85.333v-10.792c0-3.281,1.323-6.396,3.323-8
	l116.26-25.083c4.906-1.063,8.417-5.406,8.417-10.427c0-34.167,12.385-52.365,21.333-52.365S256,124.865,256,159.031
	c0,5.021,3.5,9.354,8.406,10.427l115.521,25.083c1.99,1.604,3.323,4.76,3.333,8.375l0.365,10.417H266.667z"/>
<linearGradient id="SVGID_1_" gradientUnits="userSpaceOnUse" x1="-68.6888" y1="619.0512" x2="-43.3842" y2="607.2509" gradientTransform="matrix(21.3333 0 0 -21.3333 1430.1112 13315.2227)">
	<stop  offset="0" style="stop-color:#FFFFFF;stop-opacity:0.2"/>
	<stop  offset="1" style="stop-color:#FFFFFF;stop-opacity:0"/>
</linearGradient>
<path style="fill:url(#SVGID_1_);" d="M426.667,0h-384C19.135,0,0,19.135,0,42.667v384c0,23.531,19.135,42.667,42.667,42.667h384
	c23.531,0,42.667-19.135,42.667-42.667v-384C469.333,19.135,450.198,0,426.667,0z"/>
<g>
</g>
<g>
</g>
<g>
</g>
<g>
</g>
<g>
</g>
<g>
</g>
<g>
</g>
<g>
</g>
<g>
</g>
<g>
</g>
<g>
</g>
<g>
</g>
<g>
</g>
<g>
</g>
<g>
</g>
</svg>
