<?xml version="1.0" encoding="iso-8859-1"?>
<!-- Generator: Adobe Illustrator 19.0.0, SVG Export Plug-In . SVG Version: 6.00 Build 0)  -->
<svg version="1.1" id="Layer_1" xmlns="http://www.w3.org/2000/svg" xmlns:xlink="http://www.w3.org/1999/xlink" x="0px" y="0px"
	 viewBox="0 0 511.999 511.999" style="enable-background:new 0 0 511.999 511.999;" xml:space="preserve"
height="18" width="18">
<path style="fill:#FF5959;" d="M142.255,481.953c-9.191,0-20.47-6.512-25.065-14.471L3.446,270.471
	c-4.595-7.96-4.595-20.983,0-28.942L117.19,44.517c4.595-7.96,15.875-14.471,25.065-14.471h227.488
	c9.191,0,20.47,6.512,25.065,14.471l113.745,197.011c4.595,7.96,4.595,20.983,0,28.942L394.808,467.482
	c-4.595,7.96-15.875,14.471-25.065,14.471H142.255z"/>
<g>
	<path style="fill:#FFFFFF;" d="M365.615,454.216H146.384c-2.986,0-5.743-1.593-7.235-4.178L29.532,260.178
		c-1.493-2.585-1.493-5.771,0-8.355l109.616-189.86c1.493-2.584,4.25-4.178,7.235-4.178h219.231c2.986,0,5.743,1.593,7.235,4.178
		l109.616,189.86c1.493,2.585,1.493,5.771,0,8.355L372.85,450.038C371.357,452.623,368.6,454.216,365.615,454.216z M151.207,437.505
		h209.584L465.583,256L360.791,74.495H151.207L46.415,256L151.207,437.505z"/>
	<path style="fill:#FFFFFF;" d="M114.311,282.523c-1.521-1.086-2.607-2.932-2.607-5.105c0-3.476,2.824-6.192,6.299-6.192
		c1.847,0,3.041,0.543,3.912,1.194c6.299,4.996,13.033,7.82,21.288,7.82c8.255,0,13.471-3.91,13.471-9.558v-0.217
		c0-5.431-3.041-8.364-17.162-11.622c-16.183-3.91-25.309-8.689-25.309-22.701v-0.217c0-13.034,10.862-22.05,25.962-22.05
		c9.558,0,17.269,2.499,24.113,7.061c1.521,0.869,2.933,2.716,2.933,5.322c0,3.476-2.824,6.192-6.299,6.192
		c-1.303,0-2.391-0.325-3.477-0.978c-5.866-3.802-11.514-5.756-17.487-5.756c-7.821,0-12.382,4.018-12.382,9.016v0.217
		c0,5.865,3.475,8.472,18.139,11.949c16.075,3.91,24.33,9.667,24.33,22.267v0.217c0,14.229-11.188,22.701-27.154,22.701
		C132.56,292.081,122.785,288.822,114.311,282.523z"/>
	<path style="fill:#FFFFFF;" d="M202.836,227.344H184.37c-3.475,0-6.191-2.824-6.191-6.192c0-3.367,2.716-6.192,6.191-6.192h50.509
		c3.365,0,6.081,2.824,6.081,6.192c0,3.367-2.716,6.192-6.081,6.192h-18.575v57.569c0,3.693-3.041,6.625-6.734,6.625
		c-3.692,0-6.734-2.932-6.734-6.625V227.344z"/>
	<path style="fill:#FFFFFF;" d="M247.042,253.195v-0.217c0-21.398,16.51-39.32,39.863-39.32c23.355,0,39.648,17.706,39.648,39.104
		v0.217c0,21.399-16.51,39.32-39.863,39.32C263.334,292.298,247.042,274.593,247.042,253.195z M312.54,253.195v-0.217
		c0-14.772-10.752-27.046-25.851-27.046c-15.1,0-25.636,12.057-25.636,26.829v0.217c0,14.773,10.752,26.938,25.851,26.938
		C302.005,279.916,312.54,267.967,312.54,253.195z"/>
	<path style="fill:#FFFFFF;" d="M342.733,221.696c0-3.802,2.933-6.734,6.734-6.734h23.246c17.813,0,28.893,10.102,28.893,25.417
		v0.217c0,17.053-13.686,25.96-30.414,25.96h-15.098v18.358c0,3.693-2.933,6.625-6.627,6.625c-3.801,0-6.734-2.932-6.734-6.625
		V221.696z M371.626,254.499c10.102,0,16.404-5.648,16.404-13.578v-0.217c0-8.908-6.41-13.578-16.404-13.578h-15.53v27.372
		L371.626,254.499L371.626,254.499z"/>
</g>
<g>
</g>
<g>
</g>
<g>
</g>
<g>
</g>
<g>
</g>
<g>
</g>
<g>
</g>
<g>
</g>
<g>
</g>
<g>
</g>
<g>
</g>
<g>
</g>
<g>
</g>
<g>
</g>
<g>
</g>
</svg>
