  0
SECTION
  2
HEADER
  0
ENDSEC
  0
SECTION
  2
ENTITIES
  0
3DFACE
  8
mg_to_dxf
  62
59
  10
1444.46
  20
-721.20
  30
0.00
  11
1303.50
  21
-846.16
  31
0.00
  12
1404.00
  22
-957.16
  32
0.00
  13
1544.09
  23
-833.21
  33
0.00
  0
3DFACE
  8
mg_to_dxf
  62
59
  10
1220.25
  20
-920.16
  30
0.00
  11
1320.00
  21
-1032.16
  31
0.00
  12
1404.00
  22
-957.16
  32
0.00
  13
1303.50
  23
-846.16
  33
0.00
  0
3DFACE
  8
mg_to_dxf
  62
59
  10
1133.13
  20
-1198.16
  30
0.00
  11
1320.00
  21
-1032.16
  31
0.00
  12
1220.25
  22
-920.16
  32
0.00
  13
1033.50
  23
-1086.16
  33
0.00
  0
3DFACE
  8
mg_to_dxf
  62
59
  10
1133.13
  20
-1198.16
  30
0.00
  11
1033.50
  21
-1086.16
  31
0.00
  12
756.75
  22
-1332.16
  32
0.00
  13
856.88
  23
-1444.16
  33
0.00
  0
3DFACE
  8
mg_to_dxf
  62
59
  10
856.88
  20
-1444.16
  30
0.00
  11
756.75
  21
-1332.16
  31
0.00
  12
612.63
  22
-1460.16
  32
0.00
  13
717.75
  23
-1568.16
  33
0.00
  0
3DFACE
  8
mg_to_dxf
  62
59
  10
513.13
  20
-1750.16
  30
0.00
  11
717.75
  21
-1568.16
  31
0.00
  12
612.63
  22
-1460.16
  32
0.00
  13
414.88
  23
-1636.16
  33
0.00
  0
3DFACE
  8
mg_to_dxf
  62
59
  10
414.88
  20
-1636.16
  30
0.00
  11
227.37
  21
-1812.17
  31
0.00
  12
240.62
  22
-2001.11
  32
0.00
  13
513.13
  23
-1750.16
  33
0.00
  0
3DFACE
  8
mg_to_dxf
  62
59
  10
227.37
  20
-1812.17
  30
0.00
  11
203.75
  21
-1832.66
  31
0.00
  12
217.08
  22
-2022.79
  32
0.00
  13
240.62
  23
-2001.11
  33
0.00
  0
3DFACE
  8
mg_to_dxf
  62
59
  10
203.75
  20
-1832.66
  30
0.00
  11
140.90
  21
-1989.81
  31
0.00
  12
217.08
  22
-2022.79
  32
0.00
  13
217.08
  23
-2022.79
  33
0.00
  0
3DFACE
  8
mg_to_dxf
  62
59
  10
-621.24
  20
-2758.37
  30
0.00
  11
-416.38
  21
-2576.16
  31
0.00
  12
-515.75
  22
-2464.16
  32
0.00
  13
-706.25
  23
-2633.16
  33
0.00
  0
3DFACE
  8
mg_to_dxf
  62
59
  10
-161.38
  20
-2354.16
  30
0.00
  11
-310.25
  21
-2281.16
  31
0.00
  12
-515.75
  22
-2464.16
  32
0.00
  13
-416.38
  23
-2576.16
  33
0.00
  0
3DFACE
  8
mg_to_dxf
  62
59
  10
22.88
  20
-2201.16
  30
0.00
  11
-90.00
  21
-2085.16
  31
0.00
  12
-310.25
  22
-2281.16
  32
0.00
  13
-161.38
  23
-2354.16
  33
0.00
  0
3DFACE
  8
mg_to_dxf
  62
59
  10
22.88
  20
-2201.16
  30
0.00
  11
52.83
  21
-2173.65
  31
0.00
  12
38.38
  22
-1976.16
  32
0.00
  13
-90.00
  23
-2085.16
  33
0.00
  0
3DFACE
  8
mg_to_dxf
  62
59
  10
62.01
  20
-1955.66
  30
0.00
  11
38.38
  21
-1976.16
  31
0.00
  12
52.83
  22
-2173.65
  32
0.00
  13
75.81
  23
-2152.54
  33
0.00
  0
3DFACE
  8
mg_to_dxf
  62
59
  10
140.90
  20
-1989.81
  30
0.00
  11
62.01
  21
-1955.66
  31
0.00
  12
75.81
  22
-2152.54
  32
0.00
  13
75.81
  23
-2152.54
  33
0.00
  0
3DFACE
  8
mg_to_dxf
  62
59
  10
-706.25
  20
-2633.16
  30
0.00
  11
-726.25
  21
-2651.16
  31
0.00
  12
-621.24
  22
-2758.37
  32
0.00
  13
-621.24
  23
-2758.37
  33
0.00
  0
3DFACE
  8
mg_to_dxf
  62
59
  10
-845.65
  20
-2957.97
  30
0.00
  11
-621.24
  21
-2758.37
  31
0.00
  12
-726.25
  22
-2651.16
  32
0.00
  13
-950.14
  23
-2850.42
  33
0.00
  0
3DFACE
  8
mg_to_dxf
  62
59
  10
-1074.77
  20
-3161.76
  30
0.00
  11
-845.65
  21
-2957.97
  31
0.00
  12
-950.14
  22
-2850.42
  32
0.00
  13
-1177.23
  23
-3052.52
  33
0.00
  0
3DFACE
  8
mg_to_dxf
  62
59
  10
-1177.23
  20
-3052.52
  30
0.00
  11
-1547.63
  21
-3382.16
  31
0.00
  12
-1453.00
  22
-3498.16
  32
0.00
  13
-1074.77
  23
-3161.76
  33
0.00
  0
3DFACE
  8
mg_to_dxf
  62
59
  10
-2386.38
  20
-4128.16
  30
0.00
  11
-2630.13
  21
-4344.16
  31
0.00
  12
-2530.13
  22
-4456.16
  32
0.00
  13
-2284.49
  23
-4238.18
  33
0.00
  0
3DFACE
  8
mg_to_dxf
  62
59
  10
-2284.49
  20
-4238.18
  30
0.00
  11
-2224.75
  21
-4185.16
  31
0.00
  12
-2329.25
  22
-4077.16
  32
0.00
  13
-2386.38
  23
-4128.16
  33
0.00
  0
3DFACE
  8
mg_to_dxf
  62
59
  10
-2004.13
  20
-3989.16
  30
0.00
  11
-2073.13
  21
-3849.16
  31
0.00
  12
-2329.25
  22
-4077.16
  32
0.00
  13
-2224.75
  23
-4185.16
  33
0.00
  0
3DFACE
  8
mg_to_dxf
  62
59
  10
-1453.00
  20
-3498.16
  30
0.00
  11
-1547.63
  21
-3382.16
  31
0.00
  12
-2051.63
  22
-3830.16
  32
0.00
  13
-1942.88
  23
-3934.16
  33
0.00
  0
3DFACE
  8
mg_to_dxf
  62
59
  10
-2051.63
  20
-3830.16
  30
0.00
  11
-2073.13
  21
-3849.16
  31
0.00
  12
-2004.13
  22
-3989.16
  32
0.00
  13
-1942.88
  23
-3934.16
  33
0.00
  0
3DFACE
  8
mg_to_dxf
  62
59
  10
-3649.25
  20
-5452.16
  30
0.00
  11
-3748.88
  21
-5341.16
  31
0.00
  12
-4051.00
  22
-5608.16
  32
0.00
  13
-3897.38
  23
-5672.16
  33
0.00
  0
3DFACE
  8
mg_to_dxf
  62
59
  10
-3669.78
  20
-5270.39
  30
0.00
  11
-3748.88
  21
-5341.16
  31
0.00
  12
-3649.25
  22
-5452.16
  32
0.00
  13
-3602.00
  23
-5409.16
  33
0.00
  0
3DFACE
  8
mg_to_dxf
  62
59
  10
-3602.00
  20
-5409.16
  30
0.00
  11
-3342.75
  21
-5179.16
  31
0.00
  12
-3446.00
  22
-5070.16
  32
0.00
  13
-3669.78
  23
-5270.39
  33
0.00
  0
3DFACE
  8
mg_to_dxf
  62
59
  10
-2630.13
  20
-4344.16
  30
0.00
  11
-3446.00
  21
-5070.16
  31
0.00
  12
-3342.75
  22
-5179.16
  32
0.00
  13
-2530.13
  23
-4456.16
  33
0.00
  0
3DFACE
  8
mg_to_dxf
  62
59
  10
-4159.87
  20
-5735.27
  30
0.00
  11
-4075.25
  21
-5831.16
  31
0.00
  12
-4160.00
  22
-5705.16
  32
0.00
  13
-4160.00
  23
-5705.16
  33
0.00
  0
3DFACE
  8
mg_to_dxf
  62
59
  10
-4159.87
  20
-5735.27
  30
0.00
  11
-4160.00
  21
-5705.16
  31
0.00
  12
-4174.51
  22
-5718.68
  32
0.00
  13
-4174.51
  23
-5718.68
  33
0.00
  0
3DFACE
  8
mg_to_dxf
  62
59
  10
-4060.25
  20
-5817.16
  30
0.00
  11
-4160.00
  21
-5705.16
  31
0.00
  12
-4075.25
  22
-5831.16
  32
0.00
  13
-4075.25
  23
-5831.16
  33
0.00
  0
3DFACE
  8
mg_to_dxf
  62
59
  10
-4160.00
  20
-5705.16
  30
0.00
  11
-4060.25
  21
-5817.16
  31
0.00
  12
-4073.75
  22
-5628.16
  32
0.00
  13
-4073.75
  23
-5628.16
  33
0.00
  0
3DFACE
  8
mg_to_dxf
  62
59
  10
-4050.13
  20
-5818.16
  30
0.00
  11
-4050.13
  21
-5818.16
  31
0.00
  12
-4051.00
  22
-5608.16
  32
0.00
  13
-4060.25
  23
-5817.16
  33
0.00
  0
3DFACE
  8
mg_to_dxf
  62
59
  10
-3916.75
  20
-5690.16
  30
0.00
  11
-3916.75
  21
-5690.16
  31
0.00
  12
-4051.00
  22
-5608.16
  32
0.00
  13
-4050.13
  23
-5818.16
  33
0.00
  0
3DFACE
  8
mg_to_dxf
  62
59
  10
-4051.00
  20
-5608.16
  30
0.00
  11
-4051.00
  21
-5608.16
  31
0.00
  12
-4073.75
  22
-5628.16
  32
0.00
  13
-4060.25
  23
-5817.16
  33
0.00
  0
3DFACE
  8
mg_to_dxf
  62
59
  10
-3916.75
  20
-5690.16
  30
0.00
  11
-3897.38
  21
-5672.16
  31
0.00
  12
-4051.00
  22
-5608.16
  32
0.00
  13
-4051.00
  23
-5608.16
  33
0.00
  0
3DFACE
  8
mg_to_dxf
  62
59
  10
1652.45
  20
-736.90
  30
0.00
  11
1652.45
  21
-736.90
  31
0.00
  12
1552.77
  22
-624.82
  32
0.00
  13
1553.54
  23
-824.87
  33
0.00
  0
3DFACE
  8
mg_to_dxf
  62
59
  10
1552.77
  20
-624.82
  30
0.00
  11
1552.77
  21
-624.82
  31
0.00
  12
1444.46
  22
-721.20
  32
0.00
  13
1553.54
  23
-824.87
  33
0.00
  0
3DFACE
  8
mg_to_dxf
  62
59
  10
1553.54
  20
-824.87
  30
0.00
  11
1553.54
  21
-824.87
  31
0.00
  12
1444.46
  22
-721.20
  32
0.00
  13
1544.09
  23
-833.21
  33
0.00
  0
3DFACE
  8
mg_to_dxf
  62
59
  10
-4172.36
  20
-5917.51
  30
0.00
  11
-4075.25
  21
-5831.16
  31
0.00
  12
-4174.51
  22
-5718.68
  32
0.00
  13
-4272.05
  23
-5805.43
  33
0.00
  0
3DFACE
  8
mg_to_dxf
  62
59
  10
-66.23
  20
-127.16
  30
0.00
  11
-48.06
  21
-386.19
  31
0.00
  12
86.25
  22
-157.16
  32
0.00
  13
86.25
  23
-157.16
  33
0.00
  0
3DFACE
  8
mg_to_dxf
  62
59
  10
86.25
  20
-157.16
  30
0.00
  11
74.82
  21
5.83
  31
0.00
  12
-74.79
  22
-5.02
  32
0.00
  13
-66.23
  23
-127.16
  33
0.00
  0
3DFACE
  8
mg_to_dxf
  62
59
  10
168.44
  20
-1329.16
  30
0.00
  11
86.25
  21
-157.16
  31
0.00
  12
-48.06
  22
-386.19
  32
0.00
  13
27.12
  23
-1458.16
  33
0.00
  0
3DFACE
  8
mg_to_dxf
  62
59
  10
182.55
  20
-1530.35
  30
0.00
  11
168.44
  21
-1329.16
  31
0.00
  12
27.12
  22
-1458.16
  32
0.00
  13
48.58
  23
-1764.19
  33
0.00
  0
3DFACE
  8
mg_to_dxf
  62
59
  10
48.58
  20
-1764.19
  30
0.00
  11
62.01
  21
-1955.66
  31
0.00
  12
203.75
  22
-1832.66
  32
0.00
  13
182.55
  23
-1530.35
  33
0.00
  0
3DFACE
  8
mg_to_dxf
  62
59
  10
74.82
  20
5.83
  30
0.00
  11
62.96
  21
174.88
  31
0.00
  12
-86.67
  22
164.38
  32
0.00
  13
-74.79
  23
-5.02
  33
0.00
  0
3DFACE
  8
mg_to_dxf
  62
59
  10
217.08
  20
-2022.79
  30
0.00
  11
140.90
  21
-1989.81
  31
0.00
  12
75.81
  22
-2152.54
  32
0.00
  13
75.81
  23
-2152.54
  33
0.00
  0
3DFACE
  8
mg_to_dxf
  62
59
  10
203.75
  20
-1832.66
  30
0.00
  11
62.01
  21
-1955.66
  31
0.00
  12
140.90
  22
-1989.81
  32
0.00
  13
140.90
  23
-1989.81
  33
0.00
  0
3DFACE
  8
mg_to_dxf
  62
59
  10
240.46
  20
-2356.15
  30
0.00
  11
217.08
  21
-2022.79
  31
0.00
  12
75.81
  22
-2152.54
  32
0.00
  13
102.37
  23
-2531.17
  33
0.00
  0
3DFACE
  8
mg_to_dxf
  62
59
  10
255.18
  20
-2566.10
  30
0.00
  11
240.46
  21
-2356.15
  31
0.00
  12
102.37
  22
-2531.17
  32
0.00
  13
126.77
  23
-2879.18
  33
0.00
  0
3DFACE
  8
mg_to_dxf
  62
59
  10
299.02
  20
-3191.18
  30
0.00
  11
255.18
  21
-2566.10
  31
0.00
  12
126.77
  22
-2879.18
  32
0.00
  13
149.98
  23
-3210.18
  33
0.00
  0
3DFACE
  8
mg_to_dxf
  62
59
  10
310.31
  20
-3352.20
  30
0.00
  11
299.02
  21
-3191.18
  31
0.00
  12
149.98
  22
-3210.18
  32
0.00
  13
162.04
  23
-3382.12
  33
0.00
  0
3DFACE
  8
mg_to_dxf
  62
59
  10
321.67
  20
-3514.20
  30
0.00
  11
310.31
  21
-3352.20
  31
0.00
  12
162.04
  22
-3382.12
  32
0.00
  13
170.67
  23
-3505.14
  33
0.00
  0
3DFACE
  8
mg_to_dxf
  62
59
  10
353.02
  20
-3961.14
  30
0.00
  11
321.67
  21
-3514.20
  31
0.00
  12
170.67
  22
-3505.14
  32
0.00
  13
189.95
  23
-3780.10
  33
0.00
  0
3DFACE
  8
mg_to_dxf
  62
59
  10
519.14
  20
-8474.17
  30
0.00
  11
533.84
  21
-8683.77
  31
0.00
  12
683.47
  22
-8673.28
  32
0.00
  13
668.77
  23
-8463.68
  33
0.00
  0
3DFACE
  8
mg_to_dxf
  62
59
  10
668.77
  20
-8463.68
  30
0.00
  11
645.77
  21
-8135.66
  31
0.00
  12
496.14
  22
-8146.15
  32
0.00
  13
510.23
  23
-8347.15
  33
0.00
  0
3DFACE
  8
mg_to_dxf
  62
59
  10
510.23
  20
-8347.15
  30
0.00
  11
519.14
  21
-8474.17
  31
0.00
  12
668.77
  22
-8463.68
  32
0.00
  13
668.77
  23
-8463.68
  33
0.00
  0
3DFACE
  8
mg_to_dxf
  62
59
  10
467.03
  20
-7731.14
  30
0.00
  11
496.14
  21
-8146.15
  31
0.00
  12
645.77
  22
-8135.66
  32
0.00
  13
616.67
  23
-7720.65
  33
0.00
  0
3DFACE
  8
mg_to_dxf
  62
59
  10
391.52
  20
-4510.20
  30
0.00
  11
353.02
  21
-3961.14
  31
0.00
  12
189.95
  22
-3780.10
  32
0.00
  13
240.03
  23
-4494.21
  33
0.00
  0
3DFACE
  8
mg_to_dxf
  62
59
  10
408.35
  20
-4750.17
  30
0.00
  11
391.52
  21
-4510.20
  31
0.00
  12
240.03
  22
-4494.21
  32
0.00
  13
252.58
  23
-4673.15
  33
0.00
  0
3DFACE
  8
mg_to_dxf
  62
59
  10
252.58
  20
-4673.15
  30
0.00
  11
277.55
  21
-5029.16
  31
0.00
  12
440.19
  22
-5204.16
  32
0.00
  13
408.35
  23
-4750.17
  33
0.00
  0
3DFACE
  8
mg_to_dxf
  62
59
  10
461.79
  20
-5512.23
  30
0.00
  11
440.19
  21
-5204.16
  31
0.00
  12
277.55
  22
-5029.16
  32
0.00
  13
306.37
  23
-5440.16
  33
0.00
  0
3DFACE
  8
mg_to_dxf
  62
59
  10
327.34
  20
-5739.15
  30
0.00
  11
352.65
  21
-6100.14
  31
0.00
  12
500.92
  22
-6070.19
  32
0.00
  13
461.79
  23
-5512.23
  33
0.00
  0
3DFACE
  8
mg_to_dxf
  62
59
  10
461.79
  20
-5512.23
  30
0.00
  11
306.37
  21
-5440.16
  31
0.00
  12
327.34
  22
-5739.15
  32
0.00
  13
327.34
  23
-5739.15
  33
0.00
  0
3DFACE
  8
mg_to_dxf
  62
59
  10
516.28
  20
-6289.14
  30
0.00
  11
500.92
  21
-6070.19
  31
0.00
  12
352.65
  22
-6100.14
  32
0.00
  13
366.75
  23
-6301.16
  33
0.00
  0
3DFACE
  8
mg_to_dxf
  62
59
  10
366.75
  20
-6301.16
  30
0.00
  11
454.62
  21
-7554.16
  31
0.00
  12
616.67
  22
-7720.65
  32
0.00
  13
516.28
  23
-6289.14
  33
0.00
  0
3DFACE
  8
mg_to_dxf
  62
59
  10
454.62
  20
-7554.16
  30
0.00
  11
467.03
  21
-7731.14
  31
0.00
  12
616.67
  22
-7720.65
  32
0.00
  13
616.67
  23
-7720.65
  33
0.00
  0
3DFACE
  8
mg_to_dxf
  62
59
  10
-125.25
  20
357.15
  30
0.00
  11
-86.67
  21
164.38
  31
0.00
  12
62.96
  22
174.88
  32
0.00
  13
74.26
  23
371.15
  33
0.00
  0
3DFACE
  8
mg_to_dxf
  62
59
  10
62.96
  20
174.88
  30
0.00
  11
87.90
  21
176.62
  31
0.00
  12
74.26
  22
371.15
  32
0.00
  13
74.26
  23
371.15
  33
0.00
  0
3DFACE
  8
mg_to_dxf
  62
59
  10
-125.25
  20
357.15
  30
0.00
  11
-111.61
  21
162.63
  31
0.00
  12
-86.67
  22
164.38
  32
0.00
  13
-86.67
  23
164.38
  33
0.00
  0
3DFACE
  8
mg_to_dxf
  62
59
  10
533.84
  20
-8683.77
  30
0.00
  11
508.90
  21
-8685.52
  31
0.00
  12
510.67
  22
-8710.66
  32
0.00
  13
510.67
  23
-8710.66
  33
0.00
  0
3DFACE
  8
mg_to_dxf
  62
59
  10
510.67
  20
-8710.66
  30
0.00
  11
522.89
  21
-8885.03
  31
0.00
  12
533.84
  22
-8683.77
  32
0.00
  13
533.84
  23
-8683.77
  33
0.00
  0
3DFACE
  8
mg_to_dxf
  62
59
  10
522.89
  20
-8885.03
  30
0.00
  11
722.40
  21
-8871.04
  31
0.00
  12
683.47
  22
-8673.28
  32
0.00
  13
533.84
  23
-8683.77
  33
0.00
  0
3DFACE
  8
mg_to_dxf
  62
59
  10
722.40
  20
-8871.04
  30
0.00
  11
708.41
  21
-8671.53
  31
0.00
  12
683.47
  22
-8673.28
  32
0.00
  13
683.47
  23
-8673.28
  33
0.00
  0
3DFACE
  8
mg_to_dxf
  62
59
  10
-4958.50
  20
458.84
  30
0.00
  11
-4973.63
  21
673.84
  31
0.00
  12
-5123.25
  22
662.84
  32
0.00
  13
-5108.13
  23
446.84
  33
0.00
  0
3DFACE
  8
mg_to_dxf
  62
59
  10
-5123.25
  20
662.84
  30
0.00
  11
-4973.63
  21
673.84
  31
0.00
  12
-4980.50
  22
771.84
  32
0.00
  13
-5130.25
  23
762.84
  33
0.00
  0
3DFACE
  8
mg_to_dxf
  62
59
  10
-4992.91
  20
948.83
  30
0.00
  11
-4994.59
  21
972.75
  31
0.00
  12
-5143.84
  22
962.46
  32
0.00
  13
-5142.38
  23
936.84
  33
0.00
  0
3DFACE
  8
mg_to_dxf
  62
59
  10
-5142.38
  20
936.84
  30
0.00
  11
-5130.25
  21
762.84
  31
0.00
  12
-4980.50
  22
771.84
  32
0.00
  13
-4992.91
  23
948.83
  33
0.00
  0
3DFACE
  8
mg_to_dxf
  62
59
  10
-5105.75
  20
413.84
  30
0.00
  11
-4956.13
  21
423.84
  31
0.00
  12
-4958.50
  22
458.84
  32
0.00
  13
-5108.13
  23
446.84
  33
0.00
  0
3DFACE
  8
mg_to_dxf
  62
59
  10
-4906.25
  20
-287.16
  30
0.00
  11
-5056.75
  21
-284.16
  31
0.00
  12
-5050.13
  22
-379.16
  32
0.00
  13
-4900.50
  23
-369.16
  33
0.00
  0
3DFACE
  8
mg_to_dxf
  62
59
  10
-5056.75
  20
-284.16
  30
0.00
  11
-4906.25
  21
-287.16
  31
0.00
  12
-4956.13
  22
423.84
  32
0.00
  13
-5105.75
  23
413.84
  33
0.00
  0
3DFACE
  8
mg_to_dxf
  62
59
  10
-4900.50
  20
-369.16
  30
0.00
  11
-5050.13
  21
-379.16
  31
0.00
  12
-5027.63
  22
-700.16
  32
0.00
  13
-4878.13
  23
-688.16
  33
0.00
  0
3DFACE
  8
mg_to_dxf
  62
59
  10
-4990.00
  20
-1236.17
  30
0.00
  11
-4841.50
  21
-1209.16
  31
0.00
  12
-4872.25
  22
-770.16
  32
0.00
  13
-5022.50
  23
-773.16
  33
0.00
  0
3DFACE
  8
mg_to_dxf
  62
59
  10
-4872.25
  20
-770.16
  30
0.00
  11
-4878.13
  21
-688.16
  31
0.00
  12
-5027.63
  22
-700.16
  32
0.00
  13
-5022.50
  23
-773.16
  33
0.00
  0
3DFACE
  8
mg_to_dxf
  62
59
  10
-4990.00
  20
-1236.17
  30
0.00
  11
-4975.00
  21
-1450.16
  31
0.00
  12
-4823.00
  22
-1473.16
  32
0.00
  13
-4841.50
  23
-1209.16
  33
0.00
  0
3DFACE
  8
mg_to_dxf
  62
59
  10
-4975.00
  20
-1450.16
  30
0.00
  11
-4941.88
  21
-1922.16
  31
0.00
  12
-4791.50
  22
-1922.16
  32
0.00
  13
-4823.00
  23
-1473.16
  33
0.00
  0
3DFACE
  8
mg_to_dxf
  62
59
  10
-4925.00
  20
-2163.16
  30
0.00
  11
-4770.48
  21
-2221.16
  31
0.00
  12
-4791.50
  22
-1922.16
  32
0.00
  13
-4791.50
  23
-1922.16
  33
0.00
  0
3DFACE
  8
mg_to_dxf
  62
59
  10
-4791.50
  20
-1922.16
  30
0.00
  11
-4941.88
  21
-1922.16
  31
0.00
  12
-4925.00
  22
-2163.16
  32
0.00
  13
-4925.00
  23
-2163.16
  33
0.00
  0
3DFACE
  8
mg_to_dxf
  62
59
  10
-4767.90
  20
-2258.16
  30
0.00
  11
-4767.90
  21
-2258.16
  31
0.00
  12
-4911.00
  22
-2362.16
  32
0.00
  13
-4896.75
  23
-2565.16
  33
0.00
  0
3DFACE
  8
mg_to_dxf
  62
59
  10
-4767.90
  20
-2258.16
  30
0.00
  11
-4767.90
  21
-2258.16
  31
0.00
  12
-4770.48
  22
-2221.16
  32
0.00
  13
-4911.00
  23
-2362.16
  33
0.00
  0
3DFACE
  8
mg_to_dxf
  62
59
  10
-4767.90
  20
-2258.16
  30
0.00
  11
-4767.90
  21
-2258.16
  31
0.00
  12
-4896.75
  22
-2565.16
  32
0.00
  13
-4747.00
  23
-2556.16
  33
0.00
  0
3DFACE
  8
mg_to_dxf
  62
59
  10
-4911.00
  20
-2362.16
  30
0.00
  11
-4770.48
  21
-2221.16
  31
0.00
  12
-4925.00
  22
-2163.16
  32
0.00
  13
-4925.00
  23
-2163.16
  33
0.00
  0
3DFACE
  8
mg_to_dxf
  62
59
  10
-4823.13
  20
-3614.16
  30
0.00
  11
-4673.50
  21
-3604.16
  31
0.00
  12
-4744.50
  22
-2589.16
  32
0.00
  13
-4894.75
  23
-2594.16
  33
0.00
  0
3DFACE
  8
mg_to_dxf
  62
59
  10
-4894.75
  20
-2594.16
  30
0.00
  11
-4744.50
  21
-2589.16
  31
0.00
  12
-4747.00
  22
-2556.16
  32
0.00
  13
-4896.75
  23
-2565.16
  33
0.00
  0
3DFACE
  8
mg_to_dxf
  62
59
  10
-4800.75
  20
-3934.16
  30
0.00
  11
-4800.75
  21
-3934.16
  31
0.00
  12
-4671.75
  22
-3629.16
  32
0.00
  13
-4823.13
  23
-3614.16
  33
0.00
  0
3DFACE
  8
mg_to_dxf
  62
59
  10
-4823.13
  20
-3614.16
  30
0.00
  11
-4823.13
  21
-3614.16
  31
0.00
  12
-4671.75
  22
-3629.16
  32
0.00
  13
-4673.50
  23
-3604.16
  33
0.00
  0
3DFACE
  8
mg_to_dxf
  62
59
  10
-4656.98
  20
-3840.16
  30
0.00
  11
-4656.98
  21
-3840.16
  31
0.00
  12
-4671.75
  22
-3629.16
  32
0.00
  13
-4800.75
  23
-3934.16
  33
0.00
  0
3DFACE
  8
mg_to_dxf
  62
59
  10
-4656.98
  20
-3840.16
  30
0.00
  11
-4656.98
  21
-3840.16
  31
0.00
  12
-4800.75
  22
-3934.16
  32
0.00
  13
-4650.82
  23
-3928.17
  33
0.00
  0
3DFACE
  8
mg_to_dxf
  62
59
  10
-4629.82
  20
-4227.17
  30
0.00
  11
-4785.00
  21
-4159.16
  31
0.00
  12
-4764.63
  22
-4449.16
  32
0.00
  13
-4615.00
  23
-4438.16
  33
0.00
  0
3DFACE
  8
mg_to_dxf
  62
59
  10
-4635.93
  20
-4139.16
  30
0.00
  11
-4650.82
  21
-3928.17
  31
0.00
  12
-4800.75
  22
-3934.16
  32
0.00
  13
-4785.00
  23
-4159.16
  33
0.00
  0
3DFACE
  8
mg_to_dxf
  62
59
  10
-4785.00
  20
-4159.16
  30
0.00
  11
-4629.82
  21
-4227.17
  31
0.00
  12
-4635.93
  22
-4139.16
  32
0.00
  13
-4635.93
  23
-4139.16
  33
0.00
  0
3DFACE
  8
mg_to_dxf
  62
59
  10
-4578.50
  20
-4958.16
  30
0.00
  11
-4594.50
  21
-4730.16
  31
0.00
  12
-4744.12
  22
-4741.16
  32
0.00
  13
-4728.25
  23
-4967.16
  33
0.00
  0
3DFACE
  8
mg_to_dxf
  62
59
  10
-4597.00
  20
-4696.16
  30
0.00
  11
-4746.62
  21
-4706.16
  31
0.00
  12
-4744.12
  22
-4741.16
  32
0.00
  13
-4594.50
  23
-4730.16
  33
0.00
  0
3DFACE
  8
mg_to_dxf
  62
59
  10
-4764.63
  20
-4449.16
  30
0.00
  11
-4746.62
  21
-4706.16
  31
0.00
  12
-4597.00
  22
-4696.16
  32
0.00
  13
-4615.00
  23
-4438.16
  33
0.00
  0
3DFACE
  8
mg_to_dxf
  62
59
  10
-4578.50
  20
-4958.16
  30
0.00
  11
-4728.25
  21
-4967.16
  31
0.00
  12
-4655.75
  22
-6001.16
  32
0.00
  13
-4505.88
  23
-5993.16
  33
0.00
  0
3DFACE
  8
mg_to_dxf
  62
59
  10
-4479.21
  20
-6375.16
  30
0.00
  11
-4494.88
  21
-6152.16
  31
0.00
  12
-4644.38
  22
-6163.16
  32
0.00
  13
-4623.38
  23
-6462.16
  33
0.00
  0
3DFACE
  8
mg_to_dxf
  62
59
  10
-4623.38
  20
-6462.16
  30
0.00
  11
-4473.89
  21
-6451.06
  31
0.00
  12
-4479.21
  22
-6375.16
  32
0.00
  13
-4479.21
  23
-6375.16
  33
0.00
  0
3DFACE
  8
mg_to_dxf
  62
59
  10
-4655.75
  20
-6001.16
  30
0.00
  11
-4644.38
  21
-6163.16
  31
0.00
  12
-4494.88
  22
-6152.16
  32
0.00
  13
-4505.88
  23
-5993.16
  33
0.00
  0
3DFACE
  8
mg_to_dxf
  62
59
  10
-4610.13
  20
-6651.16
  30
0.00
  11
-4460.50
  21
-6641.16
  31
0.00
  12
-4473.89
  22
-6451.06
  32
0.00
  13
-4623.38
  23
-6462.16
  33
0.00
  0
3DFACE
  8
mg_to_dxf
  62
59
  10
-4564.88
  20
-7297.16
  30
0.00
  11
-4414.75
  21
-7293.16
  31
0.00
  12
-4460.50
  22
-6641.16
  32
0.00
  13
-4610.13
  23
-6651.16
  33
0.00
  0
3DFACE
  8
mg_to_dxf
  62
59
  10
-4563.13
  20
-7321.16
  30
0.00
  11
-4548.56
  21
-7529.16
  31
0.00
  12
-4398.74
  22
-7522.16
  32
0.00
  13
-4413.38
  23
-7313.16
  33
0.00
  0
3DFACE
  8
mg_to_dxf
  62
59
  10
-4563.13
  20
-7321.16
  30
0.00
  11
-4413.38
  21
-7313.16
  31
0.00
  12
-4414.75
  22
-7293.16
  32
0.00
  13
-4564.88
  23
-7297.16
  33
0.00
  0
3DFACE
  8
mg_to_dxf
  62
59
  10
-4531.88
  20
-7768.16
  30
0.00
  11
-4382.00
  21
-7760.16
  31
0.00
  12
-4384.38
  22
-7727.16
  32
0.00
  13
-4534.00
  23
-7737.16
  33
0.00
  0
3DFACE
  8
mg_to_dxf
  62
59
  10
-4548.56
  20
-7529.16
  30
0.00
  11
-4534.00
  21
-7737.16
  31
0.00
  12
-4384.38
  22
-7727.16
  32
0.00
  13
-4398.74
  23
-7522.16
  33
0.00
  0
3DFACE
  8
mg_to_dxf
  62
59
  10
-4482.75
  20
-8468.16
  30
0.00
  11
-4332.88
  21
-8459.16
  31
0.00
  12
-4382.00
  22
-7760.16
  32
0.00
  13
-4531.88
  23
-7768.16
  33
0.00
  0
3DFACE
  8
mg_to_dxf
  62
59
  10
-4331.75
  20
-8476.16
  30
0.00
  11
-4481.38
  21
-8487.16
  31
0.00
  12
-4478.75
  22
-8524.16
  32
0.00
  13
-4329.00
  23
-8515.16
  33
0.00
  0
3DFACE
  8
mg_to_dxf
  62
59
  10
-4481.38
  20
-8487.16
  30
0.00
  11
-4331.75
  21
-8476.16
  31
0.00
  12
-4332.88
  22
-8459.16
  32
0.00
  13
-4482.75
  23
-8468.16
  33
0.00
  0
3DFACE
  8
mg_to_dxf
  62
59
  10
-4329.00
  20
-8515.16
  30
0.00
  11
-4478.75
  21
-8524.16
  31
0.00
  12
-4443.88
  22
-9021.16
  32
0.00
  13
-4294.25
  23
-9010.16
  33
0.00
  0
3DFACE
  8
mg_to_dxf
  62
59
  10
-4442.90
  20
-9036.18
  30
0.00
  11
-4442.27
  21
-9045.49
  31
0.00
  12
-4292.79
  22
-9035.60
  32
0.00
  13
-4292.79
  23
-9035.60
  33
0.00
  0
3DFACE
  8
mg_to_dxf
  62
59
  10
-4293.27
  20
-9025.41
  30
0.00
  11
-4294.25
  21
-9010.16
  31
0.00
  12
-4443.88
  22
-9021.16
  32
0.00
  13
-4442.90
  23
-9036.18
  33
0.00
  0
3DFACE
  8
mg_to_dxf
  62
59
  10
-4442.90
  20
-9036.18
  30
0.00
  11
-4292.79
  21
-9035.60
  31
0.00
  12
-4293.27
  22
-9025.41
  32
0.00
  13
-4293.27
  23
-9025.41
  33
0.00
  0
3DFACE
  8
mg_to_dxf
  62
59
  10
-5157.89
  20
1156.47
  30
0.00
  11
-5143.84
  21
962.46
  31
0.00
  12
-4994.59
  22
972.75
  32
0.00
  13
-5008.26
  23
1166.97
  33
0.00
  0
3DFACE
  8
mg_to_dxf
  62
59
  10
-4429.28
  20
-9230.68
  30
0.00
  11
-4279.65
  21
-9220.18
  31
0.00
  12
-4292.79
  22
-9035.60
  32
0.00
  13
-4442.27
  23
-9045.49
  33
0.00
  0
3DFACE
  8
mg_to_dxf
  62
59
  10
-9371.72
  20
-107.08
  30
0.00
  11
-9354.16
  21
-356.18
  31
0.00
  12
-9204.53
  22
-346.25
  32
0.00
  13
-9222.12
  23
-96.17
  33
0.00
  0
3DFACE
  8
mg_to_dxf
  62
59
  10
-9225.37
  20
-50.17
  30
0.00
  11
-9375.09
  21
-58.09
  31
0.00
  12
-9371.72
  22
-107.08
  32
0.00
  13
-9222.12
  23
-96.17
  33
0.00
  0
3DFACE
  8
mg_to_dxf
  62
59
  10
-9225.37
  20
-50.17
  30
0.00
  11
-9241.93
  21
187.94
  31
0.00
  12
-9391.60
  22
177.83
  32
0.00
  13
-9375.09
  23
-58.09
  33
0.00
  0
3DFACE
  8
mg_to_dxf
  62
59
  10
-9243.11
  20
202.61
  30
0.00
  11
-9392.74
  21
191.89
  31
0.00
  12
-9391.60
  22
177.83
  32
0.00
  13
-9241.93
  23
187.94
  33
0.00
  0
3DFACE
  8
mg_to_dxf
  62
59
  10
-9296.70
  20
-1176.21
  30
0.00
  11
-9146.25
  21
-1175.20
  31
0.00
  12
-9204.53
  22
-346.25
  32
0.00
  13
-9354.16
  23
-356.18
  33
0.00
  0
3DFACE
  8
mg_to_dxf
  62
59
  10
-9146.25
  20
-1175.20
  30
0.00
  11
-9296.70
  21
-1176.21
  31
0.00
  12
-9250.63
  22
-1831.05
  32
0.00
  13
-9100.23
  23
-1833.10
  33
0.00
  0
3DFACE
  8
mg_to_dxf
  62
59
  10
-9211.77
  20
-2391.21
  30
0.00
  11
-9061.45
  21
-2392.20
  31
0.00
  12
-9100.23
  22
-1833.10
  32
0.00
  13
-9250.63
  23
-1831.05
  33
0.00
  0
3DFACE
  8
mg_to_dxf
  62
59
  10
-9061.45
  20
-2392.20
  30
0.00
  11
-9211.77
  21
-2391.21
  31
0.00
  12
-9190.50
  22
-2690.15
  32
0.00
  13
-9040.34
  23
-2691.15
  33
0.00
  0
3DFACE
  8
mg_to_dxf
  62
59
  10
-9040.34
  20
-2691.15
  30
0.00
  11
-9190.50
  21
-2690.15
  31
0.00
  12
-9167.59
  22
-3009.25
  32
0.00
  13
-9018.25
  23
-3005.14
  33
0.00
  0
3DFACE
  8
mg_to_dxf
  62
59
  10
-8820.09
  20
-5834.16
  30
0.00
  11
-8849.19
  21
-5418.15
  31
0.00
  12
-8998.60
  22
-5432.15
  32
0.00
  13
-8998.60
  23
-5432.15
  33
0.00
  0
3DFACE
  8
mg_to_dxf
  62
59
  10
-8998.60
  20
-5432.15
  30
0.00
  11
-8948.64
  21
-6145.18
  31
0.00
  12
-8799.18
  22
-6133.14
  32
0.00
  13
-8820.09
  23
-5834.16
  33
0.00
  0
3DFACE
  8
mg_to_dxf
  62
59
  10
-9018.25
  20
-3005.14
  30
0.00
  11
-9167.59
  21
-3009.25
  31
0.00
  12
-8998.60
  22
-5432.15
  32
0.00
  13
-8849.19
  23
-5418.15
  33
0.00
  0
3DFACE
  8
mg_to_dxf
  62
59
  10
-8733.98
  20
-7062.20
  30
0.00
  11
-8754.96
  21
-6763.16
  31
0.00
  12
-8904.55
  22
-6774.07
  32
0.00
  13
-8904.55
  23
-6774.07
  33
0.00
  0
3DFACE
  8
mg_to_dxf
  62
59
  10
-8731.00
  20
-7104.74
  30
0.00
  11
-8733.98
  21
-7062.20
  31
0.00
  12
-8904.55
  22
-6774.07
  32
0.00
  13
-8860.00
  23
-7410.33
  33
0.00
  0
3DFACE
  8
mg_to_dxf
  62
59
  10
-8904.55
  20
-6774.07
  30
0.00
  11
-8754.96
  21
-6763.16
  31
0.00
  12
-8799.18
  22
-6133.14
  32
0.00
  13
-8948.64
  23
-6145.18
  33
0.00
  0
3DFACE
  8
mg_to_dxf
  62
59
  10
-8709.98
  20
-7404.27
  30
0.00
  11
-8860.00
  21
-7410.33
  31
0.00
  12
-8795.73
  22
-8326.16
  32
0.00
  13
-8645.89
  23
-8317.19
  33
0.00
  0
3DFACE
  8
mg_to_dxf
  62
59
  10
-8860.00
  20
-7410.33
  30
0.00
  11
-8709.98
  21
-7404.27
  31
0.00
  12
-8731.00
  22
-7104.74
  32
0.00
  13
-8731.00
  23
-7104.74
  33
0.00
  0
3DFACE
  8
mg_to_dxf
  62
59
  10
-8628.03
  20
-8573.15
  30
0.00
  11
-8629.53
  21
-8554.15
  31
0.00
  12
-8778.97
  22
-8566.16
  32
0.00
  13
-8777.46
  23
-8586.17
  33
0.00
  0
3DFACE
  8
mg_to_dxf
  62
59
  10
-8629.53
  20
-8554.15
  30
0.00
  11
-8633.36
  21
-8497.16
  31
0.00
  12
-8783.00
  22
-8507.16
  32
0.00
  13
-8778.97
  23
-8566.16
  33
0.00
  0
3DFACE
  8
mg_to_dxf
  62
59
  10
-8633.36
  20
-8497.16
  30
0.00
  11
-8645.89
  21
-8317.19
  31
0.00
  12
-8795.73
  22
-8326.16
  32
0.00
  13
-8783.00
  23
-8507.16
  33
0.00
  0
3DFACE
  8
mg_to_dxf
  62
59
  10
-8777.46
  20
-8586.17
  30
0.00
  11
-8762.09
  21
-8807.18
  31
0.00
  12
-8612.48
  22
-8796.16
  32
0.00
  13
-8628.03
  23
-8573.15
  33
0.00
  0
3DFACE
  8
mg_to_dxf
  62
59
  10
-9406.38
  20
386.33
  30
0.00
  11
-9392.74
  21
191.89
  31
0.00
  12
-9243.11
  22
202.61
  32
0.00
  13
-9256.75
  23
396.81
  33
0.00
  0
3DFACE
  8
mg_to_dxf
  62
59
  10
-8612.48
  20
-8796.16
  30
0.00
  11
-8762.09
  21
-8807.18
  31
0.00
  12
-8748.48
  22
-9001.71
  32
0.00
  13
-8598.84
  23
-8991.23
  33
0.00
  0
ENDSEC
  0
EOF
