  0
SECTION
  2
HEADER
  0
ENDSEC
  0
SECTION
  2
ENTITIES
  0
3DFACE
  8
mg_to_dxf
  62
250
  10
127.25
  20
-44.16
  30
0.00
  11
102.88
  21
-36.16
  31
0.00
  12
108.63
  22
-119.15
  32
0.00
  13
122.88
  23
-103.16
  33
0.00
  0
3DFACE
  8
mg_to_dxf
  62
250
  10
281.13
  20
-57.16
  30
0.00
  11
127.25
  21
-44.16
  31
0.00
  12
141.13
  22
-101.16
  32
0.00
  13
176.50
  23
-105.16
  33
0.00
  0
3DFACE
  8
mg_to_dxf
  62
250
  10
402.63
  20
-118.16
  30
0.00
  11
438.00
  21
-138.16
  31
0.00
  12
527.50
  22
-133.16
  32
0.00
  13
611.75
  23
37.84
  33
0.00
  0
3DFACE
  8
mg_to_dxf
  62
250
  10
611.75
  20
37.84
  30
0.00
  11
309.50
  21
11.84
  31
0.00
  12
281.13
  22
-57.16
  32
0.00
  13
402.63
  23
-118.16
  33
0.00
  0
3DFACE
  8
mg_to_dxf
  62
250
  10
814.38
  20
-39.16
  30
0.00
  11
814.38
  21
-39.16
  31
0.00
  12
714.75
  22
-277.16
  32
0.00
  13
808.63
  23
-107.16
  33
0.00
  0
3DFACE
  8
mg_to_dxf
  62
250
  10
814.38
  20
-39.16
  30
0.00
  11
814.38
  21
-39.16
  31
0.00
  12
519.38
  22
-209.16
  32
0.00
  13
714.75
  23
-277.16
  33
0.00
  0
3DFACE
  8
mg_to_dxf
  62
250
  10
611.75
  20
37.84
  30
0.00
  11
611.75
  21
37.84
  31
0.00
  12
527.50
  22
-133.16
  32
0.00
  13
814.38
  23
-39.16
  33
0.00
  0
3DFACE
  8
mg_to_dxf
  62
250
  10
814.38
  20
-39.16
  30
0.00
  11
814.38
  21
-39.16
  31
0.00
  12
527.50
  22
-133.16
  32
0.00
  13
519.38
  23
-209.16
  33
0.00
  0
3DFACE
  8
mg_to_dxf
  62
250
  10
611.75
  20
37.84
  30
0.00
  11
611.75
  21
37.84
  31
0.00
  12
754.63
  22
37.84
  32
0.00
  13
633.00
  23
64.84
  33
0.00
  0
3DFACE
  8
mg_to_dxf
  62
250
  10
814.38
  20
-39.16
  30
0.00
  11
814.38
  21
-39.16
  31
0.00
  12
754.63
  22
37.84
  32
0.00
  13
611.75
  23
37.84
  33
0.00
  0
3DFACE
  8
mg_to_dxf
  62
250
  10
814.38
  20
-39.16
  30
0.00
  11
814.38
  21
-39.16
  31
0.00
  12
834.63
  22
-0.16
  32
0.00
  13
754.63
  23
37.84
  33
0.00
  0
3DFACE
  8
mg_to_dxf
  62
250
  10
281.13
  20
-57.16
  30
0.00
  11
176.50
  21
-105.16
  31
0.00
  12
402.63
  22
-118.16
  32
0.00
  13
402.63
  23
-118.16
  33
0.00
  0
3DFACE
  8
mg_to_dxf
  62
250
  10
127.25
  20
-44.16
  30
0.00
  11
122.88
  21
-103.16
  31
0.00
  12
141.13
  22
-101.16
  32
0.00
  13
141.13
  23
-101.16
  33
0.00
  0
3DFACE
  8
mg_to_dxf
  62
250
  10
102.88
  20
-36.16
  30
0.00
  11
74.82
  21
5.83
  31
0.00
  12
86.25
  22
-157.16
  32
0.00
  13
108.63
  23
-119.15
  33
0.00
  0
3DFACE
  8
mg_to_dxf
  62
250
  10
74.82
  20
5.83
  30
0.00
  11
102.88
  21
-36.16
  31
0.00
  12
99.74
  22
7.84
  32
0.00
  13
99.74
  23
7.84
  33
0.00
  0
3DFACE
  8
mg_to_dxf
  62
250
  10
-176.00
  20
-4465.16
  30
0.00
  11
-200.38
  21
-4218.16
  31
0.00
  12
-232.50
  22
-4424.16
  32
0.00
  13
-232.50
  23
-4424.16
  33
0.00
  0
3DFACE
  8
mg_to_dxf
  62
250
  10
-96.77
  20
-4566.10
  30
0.00
  11
-122.38
  21
-4490.16
  31
0.00
  12
-151.38
  22
-4493.16
  32
0.00
  13
-96.77
  23
-4566.14
  33
0.00
  0
3DFACE
  8
mg_to_dxf
  62
250
  10
-75.75
  20
-4865.16
  30
0.00
  11
-82.41
  21
-4770.40
  31
0.00
  12
-130.38
  22
-4933.16
  32
0.00
  13
-130.38
  23
-4933.16
  33
0.00
  0
3DFACE
  8
mg_to_dxf
  62
250
  10
-130.38
  20
-4933.16
  30
0.00
  11
-110.75
  21
-4949.16
  31
0.00
  12
-96.25
  22
-4931.16
  32
0.00
  13
-75.75
  23
-4865.16
  33
0.00
  0
3DFACE
  8
mg_to_dxf
  62
250
  10
-260.25
  20
-5025.16
  30
0.00
  11
-243.88
  21
-5065.16
  31
0.00
  12
-235.50
  22
-5068.16
  32
0.00
  13
-235.50
  23
-5068.16
  33
0.00
  0
3DFACE
  8
mg_to_dxf
  62
250
  10
-243.88
  20
-5065.16
  30
0.00
  11
-227.25
  21
-5113.16
  31
0.00
  12
-235.50
  22
-5068.16
  32
0.00
  13
-235.50
  23
-5068.16
  33
0.00
  0
3DFACE
  8
mg_to_dxf
  62
250
  10
-1584.88
  20
-4898.16
  30
0.00
  11
-1584.88
  21
-4898.16
  31
0.00
  12
-1472.38
  22
-4355.16
  32
0.00
  13
-1724.50
  23
-4791.16
  33
0.00
  0
3DFACE
  8
mg_to_dxf
  62
250
  10
-1472.38
  20
-4355.16
  30
0.00
  11
-1472.38
  21
-4355.16
  31
0.00
  12
-1776.75
  22
-4710.16
  32
0.00
  13
-1724.50
  23
-4791.16
  33
0.00
  0
3DFACE
  8
mg_to_dxf
  62
250
  10
-1472.38
  20
-4355.16
  30
0.00
  11
-1472.38
  21
-4355.16
  31
0.00
  12
-1640.88
  22
-4426.16
  32
0.00
  13
-1776.75
  23
-4710.16
  33
0.00
  0
3DFACE
  8
mg_to_dxf
  62
250
  10
-1440.88
  20
-4339.16
  30
0.00
  11
-1253.38
  21
-5029.16
  31
0.00
  12
-1011.38
  22
-4867.16
  32
0.00
  13
-1011.38
  23
-4867.16
  33
0.00
  0
3DFACE
  8
mg_to_dxf
  62
250
  10
-636.25
  20
-4638.16
  30
0.00
  11
-636.25
  21
-4638.16
  31
0.00
  12
-1175.88
  22
-4121.16
  32
0.00
  13
-846.50
  23
-4806.16
  33
0.00
  0
3DFACE
  8
mg_to_dxf
  62
250
  10
-1175.88
  20
-4121.16
  30
0.00
  11
-1175.88
  21
-4121.16
  31
0.00
  12
-1011.38
  22
-4867.16
  32
0.00
  13
-846.50
  23
-4806.16
  33
0.00
  0
3DFACE
  8
mg_to_dxf
  62
250
  10
-1175.88
  20
-4121.16
  30
0.00
  11
-1175.88
  21
-4121.16
  31
0.00
  12
-1440.88
  22
-4339.16
  32
0.00
  13
-1011.38
  23
-4867.16
  33
0.00
  0
3DFACE
  8
mg_to_dxf
  62
250
  10
-1403.50
  20
-4993.16
  30
0.00
  11
-1403.50
  21
-4993.16
  31
0.00
  12
-1440.88
  22
-4339.16
  32
0.00
  13
-1466.75
  23
-4958.16
  33
0.00
  0
3DFACE
  8
mg_to_dxf
  62
250
  10
-1253.38
  20
-5029.16
  30
0.00
  11
-1253.38
  21
-5029.16
  31
0.00
  12
-1440.88
  22
-4339.16
  32
0.00
  13
-1403.50
  23
-4993.16
  33
0.00
  0
3DFACE
  8
mg_to_dxf
  62
250
  10
-1440.88
  20
-4339.16
  30
0.00
  11
-1440.88
  21
-4339.16
  31
0.00
  12
-1472.38
  22
-4355.16
  32
0.00
  13
-1466.75
  23
-4958.16
  33
0.00
  0
3DFACE
  8
mg_to_dxf
  62
250
  10
-1472.38
  20
-4355.16
  30
0.00
  11
-1584.88
  21
-4898.16
  31
0.00
  12
-1466.75
  22
-4958.16
  32
0.00
  13
-1466.75
  23
-4958.16
  33
0.00
  0
3DFACE
  8
mg_to_dxf
  62
250
  10
-1253.38
  20
-5029.16
  30
0.00
  11
-1265.88
  21
-5072.16
  31
0.00
  12
-1096.75
  22
-5112.16
  32
0.00
  13
-1011.38
  23
-4867.16
  33
0.00
  0
3DFACE
  8
mg_to_dxf
  62
250
  10
-1253.38
  20
-5029.16
  30
0.00
  11
-1403.50
  21
-4993.16
  31
0.00
  12
-1390.25
  22
-5007.16
  32
0.00
  13
-1265.88
  23
-5072.16
  33
0.00
  0
3DFACE
  8
mg_to_dxf
  62
250
  10
-1916.25
  20
-4606.16
  30
0.00
  11
-1916.25
  21
-4606.16
  31
0.00
  12
-1870.00
  22
-4512.16
  32
0.00
  13
-1928.25
  23
-4593.16
  33
0.00
  0
3DFACE
  8
mg_to_dxf
  62
250
  10
-1640.88
  20
-4426.16
  30
0.00
  11
-1640.88
  21
-4426.16
  31
0.00
  12
-1820.75
  22
-4486.16
  32
0.00
  13
-1916.25
  23
-4606.16
  33
0.00
  0
3DFACE
  8
mg_to_dxf
  62
250
  10
-1916.25
  20
-4606.16
  30
0.00
  11
-1916.25
  21
-4606.16
  31
0.00
  12
-1820.75
  22
-4486.16
  32
0.00
  13
-1870.00
  23
-4512.16
  33
0.00
  0
3DFACE
  8
mg_to_dxf
  62
250
  10
-1640.88
  20
-4426.16
  30
0.00
  11
-1916.25
  21
-4606.16
  31
0.00
  12
-1810.63
  22
-4721.16
  32
0.00
  13
-1776.75
  23
-4710.16
  33
0.00
  0
3DFACE
  8
mg_to_dxf
  62
250
  10
-1602.25
  20
-4940.16
  30
0.00
  11
-1567.63
  21
-4940.16
  31
0.00
  12
-1584.88
  22
-4898.16
  32
0.00
  13
-1584.88
  23
-4898.16
  33
0.00
  0
3DFACE
  8
mg_to_dxf
  62
250
  10
-1584.88
  20
-4898.16
  30
0.00
  11
-1724.50
  21
-4791.16
  31
0.00
  12
-1602.25
  22
-4940.16
  32
0.00
  13
-1602.25
  23
-4940.16
  33
0.00
  0
3DFACE
  8
mg_to_dxf
  62
250
  10
-1508.50
  20
-5017.16
  30
0.00
  11
-1403.50
  21
-4993.16
  31
0.00
  12
-1466.75
  22
-4958.16
  32
0.00
  13
-1466.75
  23
-4958.16
  33
0.00
  0
3DFACE
  8
mg_to_dxf
  62
250
  10
-1546.56
  20
-4967.16
  30
0.00
  11
-1508.50
  21
-5017.16
  31
0.00
  12
-1466.75
  22
-4958.16
  32
0.00
  13
-1466.75
  23
-4958.16
  33
0.00
  0
3DFACE
  8
mg_to_dxf
  62
250
  10
-1466.75
  20
-4958.16
  30
0.00
  11
-1567.63
  21
-4940.16
  31
0.00
  12
-1546.56
  22
-4967.16
  32
0.00
  13
-1546.56
  23
-4967.16
  33
0.00
  0
3DFACE
  8
mg_to_dxf
  62
250
  10
-837.13
  20
-4907.16
  30
0.00
  11
-820.38
  21
-4912.16
  31
0.00
  12
-783.50
  22
-4891.16
  32
0.00
  13
-808.38
  23
-4882.16
  33
0.00
  0
3DFACE
  8
mg_to_dxf
  62
250
  10
-902.50
  20
-4936.16
  30
0.00
  11
-892.13
  21
-4927.16
  31
0.00
  12
-1011.38
  22
-4867.16
  32
0.00
  13
-1011.38
  23
-4867.16
  33
0.00
  0
3DFACE
  8
mg_to_dxf
  62
250
  10
-1011.38
  20
-4867.16
  30
0.00
  11
-1096.75
  21
-5112.16
  31
0.00
  12
-1070.13
  22
-5120.16
  32
0.00
  13
-1061.38
  23
-5119.16
  33
0.00
  0
3DFACE
  8
mg_to_dxf
  62
250
  10
-1011.38
  20
-4867.16
  30
0.00
  11
-1011.38
  21
-4867.16
  31
0.00
  12
-1061.38
  22
-5119.16
  32
0.00
  13
-973.00
  23
-4998.16
  33
0.00
  0
3DFACE
  8
mg_to_dxf
  62
250
  10
-973.00
  20
-4998.16
  30
0.00
  11
-973.00
  21
-4998.16
  31
0.00
  12
-1061.38
  22
-5119.16
  32
0.00
  13
-970.88
  23
-5027.16
  33
0.00
  0
3DFACE
  8
mg_to_dxf
  62
250
  10
-1061.38
  20
-5119.16
  30
0.00
  11
-1061.38
  21
-5119.16
  31
0.00
  12
-983.37
  22
-5089.16
  32
0.00
  13
-970.88
  23
-5027.16
  33
0.00
  0
3DFACE
  8
mg_to_dxf
  62
250
  10
-1061.38
  20
-5119.16
  30
0.00
  11
-1061.38
  21
-5119.16
  31
0.00
  12
-1054.38
  22
-5122.16
  32
0.00
  13
-983.37
  23
-5089.16
  33
0.00
  0
3DFACE
  8
mg_to_dxf
  62
250
  10
-983.37
  20
-5089.16
  30
0.00
  11
-983.37
  21
-5089.16
  31
0.00
  12
-1013.75
  22
-5136.16
  32
0.00
  13
-985.13
  23
-5130.16
  33
0.00
  0
3DFACE
  8
mg_to_dxf
  62
250
  10
-1054.38
  20
-5122.16
  30
0.00
  11
-1054.38
  21
-5122.16
  31
0.00
  12
-1013.75
  22
-5136.16
  32
0.00
  13
-983.37
  23
-5089.16
  33
0.00
  0
3DFACE
  8
mg_to_dxf
  62
250
  10
-1054.38
  20
-5122.16
  30
0.00
  11
-1054.38
  21
-5122.16
  31
0.00
  12
-1051.25
  22
-5128.16
  32
0.00
  13
-1013.75
  23
-5136.16
  33
0.00
  0
3DFACE
  8
mg_to_dxf
  62
250
  10
-1011.38
  20
-4867.16
  30
0.00
  11
-1011.38
  21
-4867.16
  31
0.00
  12
-921.75
  22
-4975.16
  32
0.00
  13
-902.50
  23
-4936.16
  33
0.00
  0
3DFACE
  8
mg_to_dxf
  62
250
  10
-973.00
  20
-4998.16
  30
0.00
  11
-973.00
  21
-4998.16
  31
0.00
  12
-921.75
  22
-4975.16
  32
0.00
  13
-1011.38
  23
-4867.16
  33
0.00
  0
3DFACE
  8
mg_to_dxf
  62
250
  10
-973.00
  20
-4998.16
  30
0.00
  11
-973.00
  21
-4998.16
  31
0.00
  12
-966.38
  22
-5000.16
  32
0.00
  13
-921.75
  23
-4975.16
  33
0.00
  0
3DFACE
  8
mg_to_dxf
  62
250
  10
-1011.38
  20
-4867.16
  30
0.00
  11
-1011.38
  21
-4867.16
  31
0.00
  12
-843.25
  22
-4865.16
  32
0.00
  13
-846.50
  23
-4806.16
  33
0.00
  0
3DFACE
  8
mg_to_dxf
  62
250
  10
-892.13
  20
-4927.16
  30
0.00
  11
-892.13
  21
-4927.16
  31
0.00
  12
-843.25
  22
-4865.16
  32
0.00
  13
-1011.38
  23
-4867.16
  33
0.00
  0
3DFACE
  8
mg_to_dxf
  62
250
  10
-892.13
  20
-4927.16
  30
0.00
  11
-892.13
  21
-4927.16
  31
0.00
  12
-855.13
  22
-4905.16
  32
0.00
  13
-843.25
  23
-4865.16
  33
0.00
  0
3DFACE
  8
mg_to_dxf
  62
250
  10
-855.13
  20
-4905.16
  30
0.00
  11
-837.13
  21
-4907.16
  31
0.00
  12
-808.38
  22
-4882.16
  32
0.00
  13
-843.25
  23
-4865.16
  33
0.00
  0
3DFACE
  8
mg_to_dxf
  62
250
  10
-846.50
  20
-4806.16
  30
0.00
  11
-701.00
  21
-4813.16
  31
0.00
  12
-630.75
  22
-4692.16
  32
0.00
  13
-636.25
  23
-4638.16
  33
0.00
  0
3DFACE
  8
mg_to_dxf
  62
250
  10
-1090.63
  20
-5201.16
  30
0.00
  11
-1070.13
  21
-5120.16
  31
0.00
  12
-1096.75
  22
-5112.16
  32
0.00
  13
-1096.75
  23
-5112.16
  33
0.00
  0
3DFACE
  8
mg_to_dxf
  62
250
  10
-207.13
  20
-4105.16
  30
0.00
  11
-207.13
  21
-4105.16
  31
0.00
  12
-910.13
  22
-3894.16
  32
0.00
  13
-200.38
  23
-4218.16
  33
0.00
  0
3DFACE
  8
mg_to_dxf
  62
250
  10
-910.13
  20
-3894.16
  30
0.00
  11
-910.13
  21
-3894.16
  31
0.00
  12
-232.50
  22
-4424.16
  32
0.00
  13
-200.38
  23
-4218.16
  33
0.00
  0
3DFACE
  8
mg_to_dxf
  62
250
  10
-910.13
  20
-3894.16
  30
0.00
  11
-910.13
  21
-3894.16
  31
0.00
  12
-434.13
  22
-4623.16
  32
0.00
  13
-232.50
  23
-4424.16
  33
0.00
  0
3DFACE
  8
mg_to_dxf
  62
250
  10
-910.13
  20
-3894.16
  30
0.00
  11
-910.13
  21
-3894.16
  31
0.00
  12
-224.88
  22
-3997.16
  32
0.00
  13
-561.88
  23
-3614.16
  33
0.00
  0
3DFACE
  8
mg_to_dxf
  62
250
  10
-910.13
  20
-3894.16
  30
0.00
  11
-910.13
  21
-3894.16
  31
0.00
  12
-207.13
  22
-4105.16
  32
0.00
  13
-224.88
  23
-3997.16
  33
0.00
  0
3DFACE
  8
mg_to_dxf
  62
250
  10
-224.88
  20
-3997.16
  30
0.00
  11
-224.88
  21
-3997.16
  31
0.00
  12
-207.13
  22
-4105.16
  32
0.00
  13
-216.00
  23
-4015.16
  33
0.00
  0
3DFACE
  8
mg_to_dxf
  62
250
  10
-910.13
  20
-3894.16
  30
0.00
  11
-1175.88
  21
-4121.16
  31
0.00
  12
-636.25
  22
-4638.16
  32
0.00
  13
-434.13
  23
-4623.16
  33
0.00
  0
3DFACE
  8
mg_to_dxf
  62
250
  10
-415.00
  20
-4854.16
  30
0.00
  11
-415.00
  21
-4854.16
  31
0.00
  12
-151.38
  22
-4493.16
  32
0.00
  13
-434.13
  23
-4623.16
  33
0.00
  0
3DFACE
  8
mg_to_dxf
  62
250
  10
-296.63
  20
-4960.16
  30
0.00
  11
-296.63
  21
-4960.16
  31
0.00
  12
-151.38
  22
-4493.16
  32
0.00
  13
-415.00
  23
-4854.16
  33
0.00
  0
3DFACE
  8
mg_to_dxf
  62
250
  10
-434.13
  20
-4623.16
  30
0.00
  11
-434.13
  21
-4623.16
  31
0.00
  12
-151.38
  22
-4493.16
  32
0.00
  13
-171.75
  23
-4478.16
  33
0.00
  0
3DFACE
  8
mg_to_dxf
  62
250
  10
-251.88
  20
-4966.16
  30
0.00
  11
-251.88
  21
-4966.16
  31
0.00
  12
-151.38
  22
-4493.16
  32
0.00
  13
-296.63
  23
-4960.16
  33
0.00
  0
3DFACE
  8
mg_to_dxf
  62
250
  10
-251.88
  20
-4966.16
  30
0.00
  11
-251.88
  21
-4966.16
  31
0.00
  12
-96.77
  22
-4566.14
  32
0.00
  13
-151.38
  23
-4493.16
  33
0.00
  0
3DFACE
  8
mg_to_dxf
  62
250
  10
-130.38
  20
-4933.16
  30
0.00
  11
-130.38
  21
-4933.16
  31
0.00
  12
-96.77
  22
-4566.14
  32
0.00
  13
-251.88
  23
-4966.16
  33
0.00
  0
3DFACE
  8
mg_to_dxf
  62
250
  10
-130.38
  20
-4933.16
  30
0.00
  11
-130.38
  21
-4933.16
  31
0.00
  12
-82.41
  22
-4770.40
  32
0.00
  13
-96.77
  23
-4566.14
  33
0.00
  0
3DFACE
  8
mg_to_dxf
  62
250
  10
-171.75
  20
-4478.16
  30
0.00
  11
-176.00
  21
-4465.16
  31
0.00
  12
-232.50
  22
-4424.16
  32
0.00
  13
-434.13
  23
-4623.16
  33
0.00
  0
3DFACE
  8
mg_to_dxf
  62
250
  10
-159.50
  20
-4979.16
  30
0.00
  11
-146.75
  21
-4980.16
  31
0.00
  12
-130.38
  22
-4933.16
  32
0.00
  13
-130.38
  23
-4933.16
  33
0.00
  0
3DFACE
  8
mg_to_dxf
  62
250
  10
-251.88
  20
-4966.16
  30
0.00
  11
-159.50
  21
-4979.16
  31
0.00
  12
-130.38
  22
-4933.16
  32
0.00
  13
-130.38
  23
-4933.16
  33
0.00
  0
3DFACE
  8
mg_to_dxf
  62
250
  10
-2162.00
  20
-6424.16
  30
0.00
  11
-2108.00
  21
-6381.16
  31
0.00
  12
-2153.50
  22
-6322.16
  32
0.00
  13
-2153.50
  23
-6322.16
  33
0.00
  0
3DFACE
  8
mg_to_dxf
  62
250
  10
-2569.63
  20
-5573.16
  30
0.00
  11
-2605.50
  21
-5534.16
  31
0.00
  12
-2826.13
  22
-5623.16
  32
0.00
  13
-2826.13
  23
-5623.16
  33
0.00
  0
3DFACE
  8
mg_to_dxf
  62
250
  10
-2826.13
  20
-5623.16
  30
0.00
  11
-3335.00
  21
-6062.16
  31
0.00
  12
-3333.75
  22
-6228.16
  32
0.00
  13
-3234.75
  23
-6349.03
  33
0.00
  0
3DFACE
  8
mg_to_dxf
  62
250
  10
-2045.63
  20
-6229.16
  30
0.00
  11
-1706.88
  21
-5764.16
  31
0.00
  12
-2329.25
  22
-5430.16
  32
0.00
  13
-2472.00
  23
-5547.16
  33
0.00
  0
3DFACE
  8
mg_to_dxf
  62
250
  10
-2472.00
  20
-5547.16
  30
0.00
  11
-2499.75
  21
-5567.16
  31
0.00
  12
-2045.63
  22
-6229.16
  32
0.00
  13
-2045.63
  23
-6229.16
  33
0.00
  0
3DFACE
  8
mg_to_dxf
  62
250
  10
-2499.75
  20
-5567.16
  30
0.00
  11
-2523.75
  21
-5581.16
  31
0.00
  12
-2153.50
  22
-6322.16
  32
0.00
  13
-2045.63
  23
-6229.16
  33
0.00
  0
3DFACE
  8
mg_to_dxf
  62
250
  10
-2523.75
  20
-5581.16
  30
0.00
  11
-2546.13
  21
-5585.16
  31
0.00
  12
-2153.50
  22
-6322.16
  32
0.00
  13
-2153.50
  23
-6322.16
  33
0.00
  0
3DFACE
  8
mg_to_dxf
  62
250
  10
-2546.13
  20
-5585.16
  30
0.00
  11
-2569.63
  21
-5573.16
  31
0.00
  12
-2826.13
  22
-5623.16
  32
0.00
  13
-2153.50
  23
-6322.16
  33
0.00
  0
3DFACE
  8
mg_to_dxf
  62
250
  10
-2329.13
  20
-6956.16
  30
0.00
  11
-2329.13
  21
-6956.16
  31
0.00
  12
-2443.00
  22
-6958.16
  32
0.00
  13
-2378.75
  23
-6966.16
  33
0.00
  0
3DFACE
  8
mg_to_dxf
  62
250
  10
-1965.75
  20
-6651.16
  30
0.00
  11
-1965.75
  21
-6651.16
  31
0.00
  12
-2556.00
  22
-6873.16
  32
0.00
  13
-2329.13
  23
-6956.16
  33
0.00
  0
3DFACE
  8
mg_to_dxf
  62
250
  10
-2329.13
  20
-6956.16
  30
0.00
  11
-2329.13
  21
-6956.16
  31
0.00
  12
-2556.00
  22
-6873.16
  32
0.00
  13
-2443.00
  23
-6958.16
  33
0.00
  0
3DFACE
  8
mg_to_dxf
  62
250
  10
-2162.00
  20
-6424.16
  30
0.00
  11
-2162.00
  21
-6424.16
  31
0.00
  12
-2556.00
  22
-6873.16
  32
0.00
  13
-1965.75
  23
-6651.16
  33
0.00
  0
3DFACE
  8
mg_to_dxf
  62
250
  10
-2443.00
  20
-6958.16
  30
0.00
  11
-2443.00
  21
-6958.16
  31
0.00
  12
-2556.00
  22
-6873.16
  32
0.00
  13
-2497.25
  23
-6934.16
  33
0.00
  0
3DFACE
  8
mg_to_dxf
  62
250
  10
-2580.75
  20
-6799.16
  30
0.00
  11
-2580.75
  21
-6799.16
  31
0.00
  12
-2556.00
  22
-6873.16
  32
0.00
  13
-2162.00
  23
-6424.16
  33
0.00
  0
3DFACE
  8
mg_to_dxf
  62
250
  10
-2580.75
  20
-6799.16
  30
0.00
  11
-2580.75
  21
-6799.16
  31
0.00
  12
-2577.38
  22
-6837.16
  32
0.00
  13
-2556.00
  23
-6873.16
  33
0.00
  0
3DFACE
  8
mg_to_dxf
  62
250
  10
-2939.13
  20
-6573.16
  30
0.00
  11
-2669.88
  21
-6873.16
  31
0.00
  12
-2580.75
  22
-6799.16
  32
0.00
  13
-2580.75
  23
-6799.16
  33
0.00
  0
3DFACE
  8
mg_to_dxf
  62
250
  10
-3122.49
  20
-6486.10
  30
0.00
  11
-3006.13
  21
-6628.16
  31
0.00
  12
-2939.13
  22
-6573.16
  32
0.00
  13
-2939.13
  23
-6573.16
  33
0.00
  0
3DFACE
  8
mg_to_dxf
  62
250
  10
-2939.13
  20
-6573.16
  30
0.00
  11
-2939.13
  21
-6573.16
  31
0.00
  12
-3234.75
  22
-6349.03
  32
0.00
  13
-3122.49
  23
-6486.10
  33
0.00
  0
3DFACE
  8
mg_to_dxf
  62
250
  10
-2153.50
  20
-6322.16
  30
0.00
  11
-2153.50
  21
-6322.16
  31
0.00
  12
-3234.75
  22
-6349.03
  32
0.00
  13
-2939.13
  23
-6573.16
  33
0.00
  0
3DFACE
  8
mg_to_dxf
  62
250
  10
-2153.50
  20
-6322.16
  30
0.00
  11
-2153.50
  21
-6322.16
  31
0.00
  12
-2826.13
  22
-5623.16
  32
0.00
  13
-3234.75
  23
-6349.03
  33
0.00
  0
3DFACE
  8
mg_to_dxf
  62
250
  10
-2939.13
  20
-6573.16
  30
0.00
  11
-2580.75
  21
-6799.16
  31
0.00
  12
-2162.00
  22
-6424.16
  32
0.00
  13
-2153.50
  23
-6322.16
  33
0.00
  0
3DFACE
  8
mg_to_dxf
  62
250
  10
-3228.63
  20
-6388.16
  30
0.00
  11
-3156.25
  21
-6482.16
  31
0.00
  12
-3122.49
  22
-6486.10
  32
0.00
  13
-3234.75
  23
-6349.03
  33
0.00
  0
3DFACE
  8
mg_to_dxf
  62
250
  10
-3156.25
  20
-6482.16
  30
0.00
  11
-3228.63
  21
-6388.16
  31
0.00
  12
-3229.38
  22
-6425.16
  32
0.00
  13
-3183.88
  23
-6486.16
  33
0.00
  0
3DFACE
  8
mg_to_dxf
  62
250
  10
-2045.63
  20
-6229.16
  30
0.00
  11
-1618.00
  21
-6082.16
  31
0.00
  12
-1513.88
  22
-5987.16
  32
0.00
  13
-1706.88
  23
-5764.16
  33
0.00
  0
3DFACE
  8
mg_to_dxf
  62
250
  10
-2045.63
  20
-6229.16
  30
0.00
  11
-1848.25
  21
-6453.16
  31
0.00
  12
-1538.00
  22
-6174.16
  32
0.00
  13
-1618.00
  23
-6082.16
  33
0.00
  0
3DFACE
  8
mg_to_dxf
  62
250
  10
-1901.13
  20
-5118.16
  30
0.00
  11
-1901.13
  21
-5118.16
  31
0.00
  12
-2048.75
  22
-5172.16
  32
0.00
  13
-1770.63
  23
-5270.16
  33
0.00
  0
3DFACE
  8
mg_to_dxf
  62
250
  10
-1770.63
  20
-5270.16
  30
0.00
  11
-1770.63
  21
-5270.16
  31
0.00
  12
-2048.75
  22
-5172.16
  32
0.00
  13
-1738.38
  23
-5357.16
  33
0.00
  0
3DFACE
  8
mg_to_dxf
  62
250
  10
-2048.75
  20
-5172.16
  30
0.00
  11
-2048.75
  21
-5172.16
  31
0.00
  12
-1843.63
  22
-5412.16
  32
0.00
  13
-1738.38
  23
-5357.16
  33
0.00
  0
3DFACE
  8
mg_to_dxf
  62
250
  10
-1738.38
  20
-5357.16
  30
0.00
  11
-1738.38
  21
-5357.16
  31
0.00
  12
-1843.63
  22
-5412.16
  32
0.00
  13
-1739.38
  23
-5374.16
  33
0.00
  0
3DFACE
  8
mg_to_dxf
  62
250
  10
-1647.75
  20
-5701.16
  30
0.00
  11
-1647.75
  21
-5701.16
  31
0.00
  12
-1731.50
  22
-5454.16
  32
0.00
  13
-1850.63
  23
-5480.16
  33
0.00
  0
3DFACE
  8
mg_to_dxf
  62
250
  10
-1611.88
  20
-5527.16
  30
0.00
  11
-1611.88
  21
-5527.16
  31
0.00
  12
-1731.50
  22
-5454.16
  32
0.00
  13
-1647.75
  23
-5701.16
  33
0.00
  0
3DFACE
  8
mg_to_dxf
  62
250
  10
-1611.88
  20
-5527.16
  30
0.00
  11
-1611.88
  21
-5527.16
  31
0.00
  12
-1650.00
  22
-5458.16
  32
0.00
  13
-1731.50
  23
-5454.16
  33
0.00
  0
3DFACE
  8
mg_to_dxf
  62
250
  10
-1863.13
  20
-5434.16
  30
0.00
  11
-1843.63
  21
-5412.16
  31
0.00
  12
-2048.75
  22
-5172.16
  32
0.00
  13
-2108.88
  23
-5235.16
  33
0.00
  0
3DFACE
  8
mg_to_dxf
  62
250
  10
-1706.88
  20
-5764.16
  30
0.00
  11
-1647.75
  21
-5701.16
  31
0.00
  12
-1850.63
  22
-5480.16
  32
0.00
  13
-1850.63
  23
-5480.16
  33
0.00
  0
3DFACE
  8
mg_to_dxf
  62
250
  10
-1706.88
  20
-5764.16
  30
0.00
  11
-1706.88
  21
-5764.16
  31
0.00
  12
-2155.88
  22
-5277.16
  32
0.00
  13
-2329.25
  23
-5430.16
  33
0.00
  0
3DFACE
  8
mg_to_dxf
  62
250
  10
-1850.63
  20
-5480.16
  30
0.00
  11
-1850.63
  21
-5480.16
  31
0.00
  12
-2155.88
  22
-5277.16
  32
0.00
  13
-1706.88
  23
-5764.16
  33
0.00
  0
3DFACE
  8
mg_to_dxf
  62
250
  10
-1850.63
  20
-5480.16
  30
0.00
  11
-1850.63
  21
-5480.16
  31
0.00
  12
-1861.75
  22
-5468.16
  32
0.00
  13
-2155.88
  23
-5277.16
  33
0.00
  0
3DFACE
  8
mg_to_dxf
  62
250
  10
-1861.75
  20
-5468.16
  30
0.00
  11
-1863.13
  21
-5434.16
  31
0.00
  12
-2108.88
  22
-5235.16
  32
0.00
  13
-2155.88
  23
-5277.16
  33
0.00
  0
3DFACE
  8
mg_to_dxf
  62
250
  10
-1759.25
  20
-5425.16
  30
0.00
  11
-1724.88
  21
-5390.16
  31
0.00
  12
-1739.38
  22
-5374.16
  32
0.00
  13
-1843.63
  23
-5412.16
  33
0.00
  0
3DFACE
  8
mg_to_dxf
  62
250
  10
-1759.25
  20
-5425.16
  30
0.00
  11
-1759.25
  21
-5425.16
  31
0.00
  12
-1850.63
  22
-5480.16
  32
0.00
  13
-1731.50
  23
-5454.16
  33
0.00
  0
3DFACE
  8
mg_to_dxf
  62
250
  10
-1759.25
  20
-5425.16
  30
0.00
  11
-1759.25
  21
-5425.16
  31
0.00
  12
-1861.75
  22
-5468.16
  32
0.00
  13
-1850.63
  23
-5480.16
  33
0.00
  0
3DFACE
  8
mg_to_dxf
  62
250
  10
-1843.63
  20
-5412.16
  30
0.00
  11
-1843.63
  21
-5412.16
  31
0.00
  12
-1861.75
  22
-5468.16
  32
0.00
  13
-1759.25
  23
-5425.16
  33
0.00
  0
3DFACE
  8
mg_to_dxf
  62
250
  10
-1843.63
  20
-5412.16
  30
0.00
  11
-1843.63
  21
-5412.16
  31
0.00
  12
-1863.13
  22
-5434.16
  32
0.00
  13
-1861.75
  23
-5468.16
  33
0.00
  0
3DFACE
  8
mg_to_dxf
  62
250
  10
-1594.88
  20
-5497.16
  30
0.00
  11
-1513.25
  21
-5427.16
  31
0.00
  12
-1542.88
  22
-5392.16
  32
0.00
  13
-1618.13
  23
-5466.16
  33
0.00
  0
3DFACE
  8
mg_to_dxf
  62
250
  10
-1608.13
  20
-5509.16
  30
0.00
  11
-1594.88
  21
-5497.16
  31
0.00
  12
-1618.13
  22
-5466.16
  32
0.00
  13
-1633.88
  23
-5468.16
  33
0.00
  0
3DFACE
  8
mg_to_dxf
  62
250
  10
-1650.00
  20
-5458.16
  30
0.00
  11
-1686.38
  21
-5417.16
  31
0.00
  12
-1731.50
  22
-5454.16
  32
0.00
  13
-1731.50
  23
-5454.16
  33
0.00
  0
3DFACE
  8
mg_to_dxf
  62
250
  10
-1611.88
  20
-5527.16
  30
0.00
  11
-1608.13
  21
-5509.16
  31
0.00
  12
-1633.88
  22
-5468.16
  32
0.00
  13
-1650.00
  23
-5458.16
  33
0.00
  0
3DFACE
  8
mg_to_dxf
  62
250
  10
-1647.75
  20
-5701.16
  30
0.00
  11
-1560.00
  21
-5598.16
  31
0.00
  12
-1611.88
  22
-5527.16
  32
0.00
  13
-1611.88
  23
-5527.16
  33
0.00
  0
3DFACE
  8
mg_to_dxf
  62
250
  10
-1995.63
  20
-5062.16
  30
0.00
  11
-1995.63
  21
-5062.16
  31
0.00
  12
-2007.00
  22
-4940.16
  32
0.00
  13
-2060.00
  23
-4988.16
  33
0.00
  0
3DFACE
  8
mg_to_dxf
  62
250
  10
-1920.38
  20
-5065.16
  30
0.00
  11
-1920.38
  21
-5065.16
  31
0.00
  12
-2007.00
  22
-4940.16
  32
0.00
  13
-1995.63
  23
-5062.16
  33
0.00
  0
3DFACE
  8
mg_to_dxf
  62
250
  10
-1920.38
  20
-5065.16
  30
0.00
  11
-1920.38
  21
-5065.16
  31
0.00
  12
-1909.50
  22
-5053.16
  32
0.00
  13
-2007.00
  23
-4940.16
  33
0.00
  0
3DFACE
  8
mg_to_dxf
  62
250
  10
-2048.75
  20
-5172.16
  30
0.00
  11
-2048.75
  21
-5172.16
  31
0.00
  12
-2069.13
  22
-5127.16
  32
0.00
  13
-2070.13
  23
-5146.16
  33
0.00
  0
3DFACE
  8
mg_to_dxf
  62
250
  10
-2048.75
  20
-5172.16
  30
0.00
  11
-2048.75
  21
-5172.16
  31
0.00
  12
-1995.63
  22
-5062.16
  32
0.00
  13
-2069.13
  23
-5127.16
  33
0.00
  0
3DFACE
  8
mg_to_dxf
  62
250
  10
-1901.13
  20
-5118.16
  30
0.00
  11
-1901.13
  21
-5118.16
  31
0.00
  12
-1995.63
  22
-5062.16
  32
0.00
  13
-2048.75
  23
-5172.16
  33
0.00
  0
3DFACE
  8
mg_to_dxf
  62
250
  10
-1901.13
  20
-5118.16
  30
0.00
  11
-1901.13
  21
-5118.16
  31
0.00
  12
-1920.38
  22
-5065.16
  32
0.00
  13
-1995.63
  23
-5062.16
  33
0.00
  0
3DFACE
  8
mg_to_dxf
  62
250
  10
-1706.13
  20
-5249.16
  30
0.00
  11
-1720.38
  21
-5272.16
  31
0.00
  12
-1684.75
  22
-5312.16
  32
0.00
  13
-1653.50
  23
-5306.16
  33
0.00
  0
3DFACE
  8
mg_to_dxf
  62
250
  10
-1712.00
  20
-5328.16
  30
0.00
  11
-1684.75
  21
-5312.16
  31
0.00
  12
-1720.38
  22
-5272.16
  32
0.00
  13
-1747.88
  23
-5280.16
  33
0.00
  0
3DFACE
  8
mg_to_dxf
  62
250
  10
-1738.38
  20
-5357.16
  30
0.00
  11
-1712.00
  21
-5328.16
  31
0.00
  12
-1747.88
  22
-5280.16
  32
0.00
  13
-1770.63
  23
-5270.16
  33
0.00
  0
3DFACE
  8
mg_to_dxf
  62
250
  10
-1584.88
  20
-4898.16
  30
0.00
  11
-1567.63
  21
-4940.16
  31
0.00
  12
-1466.75
  22
-4958.16
  32
0.00
  13
-1466.75
  23
-4958.16
  33
0.00
  0
3DFACE
  8
mg_to_dxf
  62
250
  10
-582.63
  20
-5577.16
  30
0.00
  11
-612.38
  21
-5721.16
  31
0.00
  12
-596.38
  22
-5727.16
  32
0.00
  13
-596.38
  23
-5727.16
  33
0.00
  0
3DFACE
  8
mg_to_dxf
  62
250
  10
-582.63
  20
-5577.16
  30
0.00
  11
-582.63
  21
-5577.16
  31
0.00
  12
-536.25
  22
-5575.16
  32
0.00
  13
-560.63
  23
-5570.16
  33
0.00
  0
3DFACE
  8
mg_to_dxf
  62
250
  10
-582.63
  20
-5577.16
  30
0.00
  11
-582.63
  21
-5577.16
  31
0.00
  12
-516.63
  22
-5587.16
  32
0.00
  13
-536.25
  23
-5575.16
  33
0.00
  0
3DFACE
  8
mg_to_dxf
  62
250
  10
-596.38
  20
-5727.16
  30
0.00
  11
-596.38
  21
-5727.16
  31
0.00
  12
-516.63
  22
-5587.16
  32
0.00
  13
-582.63
  23
-5577.16
  33
0.00
  0
3DFACE
  8
mg_to_dxf
  62
250
  10
-596.38
  20
-5727.16
  30
0.00
  11
-596.38
  21
-5727.16
  31
0.00
  12
-572.25
  22
-5738.16
  32
0.00
  13
-516.63
  23
-5587.16
  33
0.00
  0
3DFACE
  8
mg_to_dxf
  62
250
  10
-572.25
  20
-5738.16
  30
0.00
  11
-553.88
  21
-5744.16
  31
0.00
  12
-516.63
  22
-5587.16
  32
0.00
  13
-516.63
  23
-5587.16
  33
0.00
  0
3DFACE
  8
mg_to_dxf
  62
250
  10
-538.00
  20
-6274.16
  30
0.00
  11
-510.84
  21
-5594.07
  31
0.00
  12
-541.63
  22
-5719.16
  32
0.00
  13
-547.12
  23
-5762.16
  33
0.00
  0
3DFACE
  8
mg_to_dxf
  62
250
  10
-682.00
  20
-6023.16
  30
0.00
  11
-690.75
  21
-6013.16
  31
0.00
  12
-702.75
  22
-6066.16
  32
0.00
  13
-689.50
  23
-6058.16
  33
0.00
  0
3DFACE
  8
mg_to_dxf
  62
250
  10
-671.63
  20
-6027.16
  30
0.00
  11
-682.00
  21
-6023.16
  31
0.00
  12
-689.50
  22
-6058.16
  32
0.00
  13
-678.38
  23
-6062.16
  33
0.00
  0
3DFACE
  8
mg_to_dxf
  62
250
  10
-660.63
  20
-6024.16
  30
0.00
  11
-671.63
  21
-6027.16
  31
0.00
  12
-678.38
  22
-6062.16
  32
0.00
  13
-673.25
  23
-6071.16
  33
0.00
  0
3DFACE
  8
mg_to_dxf
  62
250
  10
-642.13
  20
-5949.16
  30
0.00
  11
-665.75
  21
-5942.16
  31
0.00
  12
-679.13
  22
-6003.16
  32
0.00
  13
-667.75
  23
-6005.16
  33
0.00
  0
3DFACE
  8
mg_to_dxf
  62
250
  10
-667.75
  20
-6005.16
  30
0.00
  11
-659.13
  21
-6014.16
  31
0.00
  12
-635.13
  22
-5944.16
  32
0.00
  13
-642.13
  23
-5949.16
  33
0.00
  0
3DFACE
  8
mg_to_dxf
  62
250
  10
-575.00
  20
-5745.16
  30
0.00
  11
-572.25
  21
-5738.16
  31
0.00
  12
-596.38
  22
-5727.16
  32
0.00
  13
-600.13
  23
-5738.16
  33
0.00
  0
3DFACE
  8
mg_to_dxf
  62
250
  10
-547.12
  20
-5762.16
  30
0.00
  11
-573.12
  21
-5754.16
  31
0.00
  12
-641.13
  22
-5902.16
  32
0.00
  13
-634.13
  23
-5935.16
  33
0.00
  0
3DFACE
  8
mg_to_dxf
  62
250
  10
-538.00
  20
-6274.16
  30
0.00
  11
-547.12
  21
-5762.16
  31
0.00
  12
-634.13
  22
-5935.16
  32
0.00
  13
-635.13
  23
-5944.16
  33
0.00
  0
3DFACE
  8
mg_to_dxf
  62
250
  10
-538.00
  20
-6274.16
  30
0.00
  11
-635.13
  21
-5944.16
  31
0.00
  12
-659.13
  22
-6014.16
  32
0.00
  13
-659.13
  23
-6014.16
  33
0.00
  0
3DFACE
  8
mg_to_dxf
  62
250
  10
-538.00
  20
-6274.16
  30
0.00
  11
-659.13
  21
-6014.16
  31
0.00
  12
-660.63
  22
-6024.16
  32
0.00
  13
-660.63
  23
-6024.16
  33
0.00
  0
3DFACE
  8
mg_to_dxf
  62
250
  10
-538.00
  20
-6274.16
  30
0.00
  11
-660.63
  21
-6024.16
  31
0.00
  12
-673.25
  22
-6071.16
  32
0.00
  13
-673.25
  23
-6071.16
  33
0.00
  0
3DFACE
  8
mg_to_dxf
  62
250
  10
-673.25
  20
-6071.16
  30
0.00
  11
-711.25
  21
-6244.16
  31
0.00
  12
-687.38
  22
-6284.16
  32
0.00
  13
-538.00
  23
-6274.16
  33
0.00
  0
3DFACE
  8
mg_to_dxf
  62
250
  10
-642.87
  20
-5867.16
  30
0.00
  11
-656.00
  21
-5892.16
  31
0.00
  12
-641.13
  22
-5902.16
  32
0.00
  13
-641.13
  23
-5902.16
  33
0.00
  0
3DFACE
  8
mg_to_dxf
  62
250
  10
-625.50
  20
-5785.16
  30
0.00
  11
-625.50
  21
-5785.16
  31
0.00
  12
-600.13
  22
-5738.16
  32
0.00
  13
-609.63
  23
-5741.16
  33
0.00
  0
3DFACE
  8
mg_to_dxf
  62
250
  10
-642.87
  20
-5867.16
  30
0.00
  11
-642.87
  21
-5867.16
  31
0.00
  12
-573.12
  22
-5754.16
  32
0.00
  13
-625.50
  23
-5785.16
  33
0.00
  0
3DFACE
  8
mg_to_dxf
  62
250
  10
-625.50
  20
-5785.16
  30
0.00
  11
-625.50
  21
-5785.16
  31
0.00
  12
-573.12
  22
-5754.16
  32
0.00
  13
-600.13
  23
-5738.16
  33
0.00
  0
3DFACE
  8
mg_to_dxf
  62
250
  10
-641.13
  20
-5902.16
  30
0.00
  11
-641.13
  21
-5902.16
  31
0.00
  12
-573.12
  22
-5754.16
  32
0.00
  13
-642.87
  23
-5867.16
  33
0.00
  0
3DFACE
  8
mg_to_dxf
  62
250
  10
-600.13
  20
-5738.16
  30
0.00
  11
-600.13
  21
-5738.16
  31
0.00
  12
-573.12
  22
-5754.16
  32
0.00
  13
-575.00
  23
-5745.16
  33
0.00
  0
3DFACE
  8
mg_to_dxf
  62
250
  10
-609.63
  20
-5741.16
  30
0.00
  11
-617.50
  21
-5738.16
  31
0.00
  12
-627.38
  22
-5777.16
  32
0.00
  13
-625.50
  23
-5785.16
  33
0.00
  0
3DFACE
  8
mg_to_dxf
  62
250
  10
-617.50
  20
-5738.16
  30
0.00
  11
-624.88
  21
-5731.16
  31
0.00
  12
-634.63
  22
-5774.16
  32
0.00
  13
-627.38
  23
-5777.16
  33
0.00
  0
3DFACE
  8
mg_to_dxf
  62
250
  10
-624.88
  20
-5731.16
  30
0.00
  11
-628.25
  21
-5723.16
  31
0.00
  12
-641.00
  22
-5775.16
  32
0.00
  13
-634.63
  23
-5774.16
  33
0.00
  0
3DFACE
  8
mg_to_dxf
  62
250
  10
-538.00
  20
-6274.16
  30
0.00
  11
-538.00
  21
-6274.16
  31
0.00
  12
-171.00
  22
-6114.16
  32
0.00
  13
-510.84
  23
-5594.07
  33
0.00
  0
3DFACE
  8
mg_to_dxf
  62
250
  10
-171.00
  20
-6114.16
  30
0.00
  11
-171.00
  21
-6114.16
  31
0.00
  12
-187.75
  22
-5723.16
  32
0.00
  13
-510.84
  23
-5594.07
  33
0.00
  0
3DFACE
  8
mg_to_dxf
  62
250
  10
-510.84
  20
-5594.07
  30
0.00
  11
-510.84
  21
-5594.07
  31
0.00
  12
-187.75
  22
-5723.16
  32
0.00
  13
-505.25
  23
-5454.16
  33
0.00
  0
3DFACE
  8
mg_to_dxf
  62
250
  10
-505.25
  20
-5454.16
  30
0.00
  11
-505.25
  21
-5454.16
  31
0.00
  12
-199.00
  22
-5510.16
  32
0.00
  13
-439.37
  23
-5453.16
  33
0.00
  0
3DFACE
  8
mg_to_dxf
  62
250
  10
-505.25
  20
-5454.16
  30
0.00
  11
-505.25
  21
-5454.16
  31
0.00
  12
-189.13
  22
-5530.16
  32
0.00
  13
-199.00
  23
-5510.16
  33
0.00
  0
3DFACE
  8
mg_to_dxf
  62
250
  10
-187.75
  20
-5723.16
  30
0.00
  11
-187.75
  21
-5723.16
  31
0.00
  12
-189.13
  22
-5530.16
  32
0.00
  13
-505.25
  23
-5454.16
  33
0.00
  0
3DFACE
  8
mg_to_dxf
  62
250
  10
-187.75
  20
-5723.16
  30
0.00
  11
-187.75
  21
-5723.16
  31
0.00
  12
-181.63
  22
-5694.16
  32
0.00
  13
-189.13
  23
-5530.16
  33
0.00
  0
3DFACE
  8
mg_to_dxf
  62
250
  10
-199.00
  20
-5510.16
  30
0.00
  11
-191.75
  21
-5457.16
  31
0.00
  12
-243.00
  22
-5438.16
  32
0.00
  13
-439.37
  23
-5453.16
  33
0.00
  0
3DFACE
  8
mg_to_dxf
  62
250
  10
-528.87
  20
-6573.16
  30
0.00
  11
-528.87
  21
-6573.16
  31
0.00
  12
-687.38
  22
-6284.16
  32
0.00
  13
-661.25
  23
-6574.16
  33
0.00
  0
3DFACE
  8
mg_to_dxf
  62
250
  10
-528.87
  20
-6573.16
  30
0.00
  11
-528.87
  21
-6573.16
  31
0.00
  12
-538.00
  22
-6274.16
  32
0.00
  13
-687.38
  23
-6284.16
  33
0.00
  0
3DFACE
  8
mg_to_dxf
  62
250
  10
-152.00
  20
-6425.16
  30
0.00
  11
-152.00
  21
-6425.16
  31
0.00
  12
-538.00
  22
-6274.16
  32
0.00
  13
-528.87
  23
-6573.16
  33
0.00
  0
3DFACE
  8
mg_to_dxf
  62
250
  10
-152.00
  20
-6425.16
  30
0.00
  11
-152.00
  21
-6425.16
  31
0.00
  12
-157.63
  22
-6350.16
  32
0.00
  13
-538.00
  23
-6274.16
  33
0.00
  0
3DFACE
  8
mg_to_dxf
  62
250
  10
-135.88
  20
-6851.16
  30
0.00
  11
-150.75
  21
-6650.16
  31
0.00
  12
-528.87
  22
-6573.16
  32
0.00
  13
-522.25
  23
-6710.16
  33
0.00
  0
3DFACE
  8
mg_to_dxf
  62
250
  10
-152.00
  20
-6425.16
  30
0.00
  11
-152.00
  21
-6425.16
  31
0.00
  12
-150.75
  22
-6650.16
  32
0.00
  13
-136.25
  23
-6453.16
  33
0.00
  0
3DFACE
  8
mg_to_dxf
  62
250
  10
-528.87
  20
-6573.16
  30
0.00
  11
-528.87
  21
-6573.16
  31
0.00
  12
-150.75
  22
-6650.16
  32
0.00
  13
-152.00
  23
-6425.16
  33
0.00
  0
3DFACE
  8
mg_to_dxf
  62
250
  10
-150.75
  20
-6650.16
  30
0.00
  11
-150.75
  21
-6650.16
  31
0.00
  12
-136.25
  22
-6621.16
  32
0.00
  13
-136.25
  23
-6453.16
  33
0.00
  0
3DFACE
  8
mg_to_dxf
  62
250
  10
-813.25
  20
-6653.16
  30
0.00
  11
-813.25
  21
-6653.16
  31
0.00
  12
-661.25
  22
-6574.16
  32
0.00
  13
-812.50
  23
-6590.16
  33
0.00
  0
3DFACE
  8
mg_to_dxf
  62
250
  10
-522.25
  20
-6710.16
  30
0.00
  11
-522.25
  21
-6710.16
  31
0.00
  12
-661.25
  22
-6574.16
  32
0.00
  13
-813.25
  23
-6653.16
  33
0.00
  0
3DFACE
  8
mg_to_dxf
  62
250
  10
-522.25
  20
-6710.16
  30
0.00
  11
-522.25
  21
-6710.16
  31
0.00
  12
-528.87
  22
-6573.16
  32
0.00
  13
-661.25
  23
-6574.16
  33
0.00
  0
3DFACE
  8
mg_to_dxf
  62
250
  10
-522.25
  20
-6710.16
  30
0.00
  11
-697.38
  21
-6830.16
  31
0.00
  12
-687.50
  22
-6835.16
  32
0.00
  13
-687.50
  23
-6835.16
  33
0.00
  0
3DFACE
  8
mg_to_dxf
  62
250
  10
-752.75
  20
-6858.16
  30
0.00
  11
-806.63
  21
-6832.16
  31
0.00
  12
-800.88
  22
-6886.16
  32
0.00
  13
-786.00
  23
-6896.16
  33
0.00
  0
3DFACE
  8
mg_to_dxf
  62
250
  10
-813.25
  20
-6653.16
  30
0.00
  11
-807.25
  21
-6816.16
  31
0.00
  12
-755.75
  22
-6841.16
  32
0.00
  13
-731.75
  23
-6834.16
  33
0.00
  0
3DFACE
  8
mg_to_dxf
  62
250
  10
-731.75
  20
-6834.16
  30
0.00
  11
-697.38
  21
-6830.16
  31
0.00
  12
-522.25
  22
-6710.16
  32
0.00
  13
-813.25
  23
-6653.16
  33
0.00
  0
3DFACE
  8
mg_to_dxf
  62
250
  10
-661.25
  20
-6574.16
  30
0.00
  11
-687.38
  21
-6284.16
  31
0.00
  12
-739.38
  22
-6303.16
  32
0.00
  13
-812.50
  23
-6590.16
  33
0.00
  0
3DFACE
  8
mg_to_dxf
  62
250
  10
-812.50
  20
-6590.16
  30
0.00
  11
-819.50
  21
-6592.16
  31
0.00
  12
-824.38
  22
-6652.16
  32
0.00
  13
-813.25
  23
-6653.16
  33
0.00
  0
3DFACE
  8
mg_to_dxf
  62
250
  10
-819.50
  20
-6592.16
  30
0.00
  11
-826.88
  21
-6587.16
  31
0.00
  12
-835.00
  22
-6660.16
  32
0.00
  13
-824.38
  23
-6652.16
  33
0.00
  0
3DFACE
  8
mg_to_dxf
  62
250
  10
-724.25
  20
-6242.16
  30
0.00
  11
-743.00
  21
-6232.16
  31
0.00
  12
-760.88
  22
-6293.16
  32
0.00
  13
-747.75
  23
-6296.16
  33
0.00
  0
3DFACE
  8
mg_to_dxf
  62
250
  10
-724.25
  20
-6242.16
  30
0.00
  11
-724.25
  21
-6242.16
  31
0.00
  12
-687.38
  22
-6284.16
  32
0.00
  13
-711.25
  23
-6244.16
  33
0.00
  0
3DFACE
  8
mg_to_dxf
  62
250
  10
-747.75
  20
-6296.16
  30
0.00
  11
-747.75
  21
-6296.16
  31
0.00
  12
-687.38
  22
-6284.16
  32
0.00
  13
-724.25
  23
-6242.16
  33
0.00
  0
3DFACE
  8
mg_to_dxf
  62
250
  10
-747.75
  20
-6296.16
  30
0.00
  11
-747.75
  21
-6296.16
  31
0.00
  12
-739.38
  22
-6303.16
  32
0.00
  13
-687.38
  23
-6284.16
  33
0.00
  0
3DFACE
  8
mg_to_dxf
  62
250
  10
-538.00
  20
-6274.16
  30
0.00
  11
-538.00
  21
-6274.16
  31
0.00
  12
-159.25
  22
-6139.16
  32
0.00
  13
-171.00
  23
-6114.16
  33
0.00
  0
3DFACE
  8
mg_to_dxf
  62
250
  10
-157.63
  20
-6350.16
  30
0.00
  11
-157.63
  21
-6350.16
  31
0.00
  12
-159.25
  22
-6139.16
  32
0.00
  13
-538.00
  23
-6274.16
  33
0.00
  0
3DFACE
  8
mg_to_dxf
  62
250
  10
-157.63
  20
-6350.16
  30
0.00
  11
-157.63
  21
-6350.16
  31
0.00
  12
-149.63
  22
-6322.16
  32
0.00
  13
-159.25
  23
-6139.16
  33
0.00
  0
3DFACE
  8
mg_to_dxf
  62
250
  10
-34.63
  20
-7796.16
  30
0.00
  11
-9.38
  21
-7799.16
  31
0.00
  12
-5.75
  22
-7784.16
  32
0.00
  13
-28.00
  23
-7770.16
  33
0.00
  0
3DFACE
  8
mg_to_dxf
  62
250
  10
-48.38
  20
-7592.16
  30
0.00
  11
-24.38
  21
-7587.16
  31
0.00
  12
-26.75
  22
-7524.16
  32
0.00
  13
-50.50
  23
-7510.16
  33
0.00
  0
3DFACE
  8
mg_to_dxf
  62
250
  10
-50.50
  20
-7510.16
  30
0.00
  11
-26.75
  21
-7524.16
  31
0.00
  12
-21.13
  22
-7518.16
  32
0.00
  13
-30.88
  23
-7493.16
  33
0.00
  0
3DFACE
  8
mg_to_dxf
  62
250
  10
-48.38
  20
-7592.16
  30
0.00
  11
-37.75
  21
-7618.16
  31
0.00
  12
-17.63
  22
-7601.16
  32
0.00
  13
-24.38
  23
-7587.16
  33
0.00
  0
3DFACE
  8
mg_to_dxf
  62
250
  10
11.00
  20
-8076.16
  30
0.00
  11
-9.38
  21
-7799.16
  31
0.00
  12
-34.63
  22
-7796.16
  32
0.00
  13
-14.00
  23
-8078.16
  33
0.00
  0
3DFACE
  8
mg_to_dxf
  62
250
  10
-485.06
  20
-7407.26
  30
0.00
  11
-477.60
  21
-7547.17
  31
0.00
  12
-48.38
  22
-7592.16
  32
0.00
  13
-50.50
  23
-7510.16
  33
0.00
  0
3DFACE
  8
mg_to_dxf
  62
250
  10
-485.06
  20
-7407.26
  30
0.00
  11
-485.06
  21
-7407.26
  31
0.00
  12
-82.13
  22
-6883.16
  32
0.00
  13
-114.25
  23
-6871.16
  33
0.00
  0
3DFACE
  8
mg_to_dxf
  62
250
  10
-50.50
  20
-7510.16
  30
0.00
  11
-50.50
  21
-7510.16
  31
0.00
  12
-82.13
  22
-6883.16
  32
0.00
  13
-485.06
  23
-7407.26
  33
0.00
  0
3DFACE
  8
mg_to_dxf
  62
250
  10
-50.50
  20
-7510.16
  30
0.00
  11
-50.50
  21
-7510.16
  31
0.00
  12
-30.88
  22
-7493.16
  32
0.00
  13
-82.13
  23
-6883.16
  33
0.00
  0
3DFACE
  8
mg_to_dxf
  62
250
  10
-459.75
  20
-7808.16
  30
0.00
  11
-208.75
  21
-8093.16
  31
0.00
  12
-14.00
  22
-8078.16
  32
0.00
  13
-34.63
  23
-7796.16
  33
0.00
  0
3DFACE
  8
mg_to_dxf
  62
250
  10
-477.60
  20
-7547.17
  30
0.00
  11
-477.60
  21
-7547.17
  31
0.00
  12
-459.75
  22
-7808.16
  32
0.00
  13
-48.38
  23
-7592.16
  33
0.00
  0
3DFACE
  8
mg_to_dxf
  62
250
  10
-48.38
  20
-7592.16
  30
0.00
  11
-48.38
  21
-7592.16
  31
0.00
  12
-459.75
  22
-7808.16
  32
0.00
  13
-37.75
  23
-7618.16
  33
0.00
  0
3DFACE
  8
mg_to_dxf
  62
250
  10
-34.63
  20
-7796.16
  30
0.00
  11
-34.63
  21
-7796.16
  31
0.00
  12
-37.75
  22
-7618.16
  32
0.00
  13
-459.75
  23
-7808.16
  33
0.00
  0
3DFACE
  8
mg_to_dxf
  62
250
  10
-34.63
  20
-7796.16
  30
0.00
  11
-34.63
  21
-7796.16
  31
0.00
  12
-28.00
  22
-7770.16
  32
0.00
  13
-37.75
  23
-7618.16
  33
0.00
  0
3DFACE
  8
mg_to_dxf
  62
250
  10
-459.75
  20
-7808.16
  30
0.00
  11
-507.75
  21
-8115.16
  31
0.00
  12
-208.75
  22
-8093.16
  32
0.00
  13
-208.75
  23
-8093.16
  33
0.00
  0
3DFACE
  8
mg_to_dxf
  62
250
  10
-522.25
  20
-6710.16
  30
0.00
  11
-485.06
  21
-7407.26
  31
0.00
  12
-114.25
  22
-6871.16
  32
0.00
  13
-135.88
  23
-6851.16
  33
0.00
  0
3DFACE
  8
mg_to_dxf
  62
250
  10
-711.00
  20
-6862.16
  30
0.00
  11
-711.00
  21
-6862.16
  31
0.00
  12
-687.50
  22
-6835.16
  32
0.00
  13
-699.13
  23
-6847.16
  33
0.00
  0
3DFACE
  8
mg_to_dxf
  62
250
  10
-485.06
  20
-7407.26
  30
0.00
  11
-485.06
  21
-7407.26
  31
0.00
  12
-687.50
  22
-6835.16
  32
0.00
  13
-711.00
  23
-6862.16
  33
0.00
  0
3DFACE
  8
mg_to_dxf
  62
250
  10
-485.06
  20
-7407.26
  30
0.00
  11
-485.06
  21
-7407.26
  31
0.00
  12
-522.25
  22
-6710.16
  32
0.00
  13
-687.50
  23
-6835.16
  33
0.00
  0
3DFACE
  8
mg_to_dxf
  62
250
  10
-790.25
  20
-6904.16
  30
0.00
  11
-790.25
  21
-6904.16
  31
0.00
  12
-752.75
  22
-6858.16
  32
0.00
  13
-786.00
  23
-6896.16
  33
0.00
  0
3DFACE
  8
mg_to_dxf
  62
250
  10
-508.00
  20
-7409.16
  30
0.00
  11
-508.00
  21
-7409.16
  31
0.00
  12
-724.38
  22
-6865.16
  32
0.00
  13
-790.25
  23
-6904.16
  33
0.00
  0
3DFACE
  8
mg_to_dxf
  62
250
  10
-790.25
  20
-6904.16
  30
0.00
  11
-790.25
  21
-6904.16
  31
0.00
  12
-724.38
  22
-6865.16
  32
0.00
  13
-752.75
  23
-6858.16
  33
0.00
  0
3DFACE
  8
mg_to_dxf
  62
250
  10
-928.75
  20
-7102.16
  30
0.00
  11
-928.75
  21
-7102.16
  31
0.00
  12
-790.25
  22
-6904.16
  32
0.00
  13
-863.87
  23
-6934.16
  33
0.00
  0
3DFACE
  8
mg_to_dxf
  62
250
  10
-863.87
  20
-6934.16
  30
0.00
  11
-863.87
  21
-6934.16
  31
0.00
  12
-790.25
  22
-6904.16
  32
0.00
  13
-848.50
  23
-6903.16
  33
0.00
  0
3DFACE
  8
mg_to_dxf
  62
250
  10
-807.25
  20
-7428.16
  30
0.00
  11
-807.25
  21
-7428.16
  31
0.00
  12
-790.25
  22
-6904.16
  32
0.00
  13
-928.75
  23
-7102.16
  33
0.00
  0
3DFACE
  8
mg_to_dxf
  62
250
  10
-807.25
  20
-7428.16
  30
0.00
  11
-807.25
  21
-7428.16
  31
0.00
  12
-508.00
  22
-7409.16
  32
0.00
  13
-790.25
  23
-6904.16
  33
0.00
  0
3DFACE
  8
mg_to_dxf
  62
250
  10
-928.75
  20
-7102.16
  30
0.00
  11
-910.12
  21
-7406.16
  31
0.00
  12
-892.00
  22
-7407.16
  32
0.00
  13
-892.00
  23
-7407.16
  33
0.00
  0
3DFACE
  8
mg_to_dxf
  62
250
  10
-845.25
  20
-7419.16
  30
0.00
  11
-807.25
  21
-7428.16
  31
0.00
  12
-928.75
  22
-7102.16
  32
0.00
  13
-928.75
  23
-7102.16
  33
0.00
  0
3DFACE
  8
mg_to_dxf
  62
250
  10
-928.75
  20
-7102.16
  30
0.00
  11
-892.00
  21
-7407.16
  31
0.00
  12
-845.25
  22
-7419.16
  32
0.00
  13
-845.25
  23
-7419.16
  33
0.00
  0
3DFACE
  8
mg_to_dxf
  62
250
  10
-508.00
  20
-7409.16
  30
0.00
  11
-485.06
  21
-7407.26
  31
0.00
  12
-711.00
  22
-6862.16
  32
0.00
  13
-724.38
  23
-6865.16
  33
0.00
  0
3DFACE
  8
mg_to_dxf
  62
250
  10
-459.75
  20
-7808.16
  30
0.00
  11
-564.63
  21
-7990.16
  31
0.00
  12
-553.50
  22
-8118.16
  32
0.00
  13
-507.75
  23
-8115.16
  33
0.00
  0
3DFACE
  8
mg_to_dxf
  62
250
  10
-564.63
  20
-7990.16
  30
0.00
  11
-581.62
  21
-7992.16
  31
0.00
  12
-572.25
  22
-8119.16
  32
0.00
  13
-553.50
  23
-8118.16
  33
0.00
  0
3DFACE
  8
mg_to_dxf
  62
250
  10
-636.13
  20
-8123.16
  30
0.00
  11
-636.13
  21
-8123.16
  31
0.00
  12
-572.25
  22
-8119.16
  32
0.00
  13
-647.88
  23
-8027.16
  33
0.00
  0
3DFACE
  8
mg_to_dxf
  62
250
  10
-572.25
  20
-8119.16
  30
0.00
  11
-572.25
  21
-8119.16
  31
0.00
  12
-642.38
  22
-8000.16
  32
0.00
  13
-647.88
  23
-8027.16
  33
0.00
  0
3DFACE
  8
mg_to_dxf
  62
250
  10
-572.25
  20
-8119.16
  30
0.00
  11
-572.25
  21
-8119.16
  31
0.00
  12
-581.62
  22
-7992.16
  32
0.00
  13
-642.38
  23
-8000.16
  33
0.00
  0
3DFACE
  8
mg_to_dxf
  62
250
  10
-933.88
  20
-7847.16
  30
0.00
  11
-942.62
  21
-7735.16
  31
0.00
  12
-1058.87
  22
-7739.16
  32
0.00
  13
-1058.87
  23
-7739.16
  33
0.00
  0
3DFACE
  8
mg_to_dxf
  62
250
  10
-933.88
  20
-7847.16
  30
0.00
  11
-933.88
  21
-7847.16
  31
0.00
  12
-990.25
  22
-7917.16
  32
0.00
  13
-930.75
  23
-7896.16
  33
0.00
  0
3DFACE
  8
mg_to_dxf
  62
250
  10
-933.88
  20
-7847.16
  30
0.00
  11
-933.88
  21
-7847.16
  31
0.00
  12
-1063.88
  22
-7917.16
  32
0.00
  13
-990.25
  23
-7917.16
  33
0.00
  0
3DFACE
  8
mg_to_dxf
  62
250
  10
-1058.87
  20
-7739.16
  30
0.00
  11
-1058.87
  21
-7739.16
  31
0.00
  12
-1063.88
  22
-7917.16
  32
0.00
  13
-933.88
  23
-7847.16
  33
0.00
  0
3DFACE
  8
mg_to_dxf
  62
250
  10
-1058.87
  20
-7739.16
  30
0.00
  11
-1058.87
  21
-7739.16
  31
0.00
  12
-1078.88
  22
-7740.16
  32
0.00
  13
-1063.88
  23
-7917.16
  33
0.00
  0
3DFACE
  8
mg_to_dxf
  62
250
  10
-942.62
  20
-7735.16
  30
0.00
  11
-940.25
  21
-7593.16
  31
0.00
  12
-1007.38
  22
-7630.16
  32
0.00
  13
-1007.38
  23
-7630.16
  33
0.00
  0
3DFACE
  8
mg_to_dxf
  62
250
  10
-1007.38
  20
-7630.16
  30
0.00
  11
-1070.13
  21
-7640.16
  31
0.00
  12
-1058.87
  22
-7739.16
  32
0.00
  13
-942.62
  23
-7735.16
  33
0.00
  0
3DFACE
  8
mg_to_dxf
  62
250
  10
-629.63
  20
-7823.16
  30
0.00
  11
-933.88
  21
-7847.16
  31
0.00
  12
-930.75
  22
-7896.16
  32
0.00
  13
-925.88
  23
-7917.16
  33
0.00
  0
3DFACE
  8
mg_to_dxf
  62
250
  10
-629.63
  20
-7823.16
  30
0.00
  11
-629.63
  21
-7823.16
  31
0.00
  12
-917.87
  22
-8017.16
  32
0.00
  13
-620.00
  23
-7982.16
  33
0.00
  0
3DFACE
  8
mg_to_dxf
  62
250
  10
-925.88
  20
-7917.16
  30
0.00
  11
-925.88
  21
-7917.16
  31
0.00
  12
-925.13
  22
-7956.16
  32
0.00
  13
-629.63
  23
-7823.16
  33
0.00
  0
3DFACE
  8
mg_to_dxf
  62
250
  10
-629.63
  20
-7823.16
  30
0.00
  11
-629.63
  21
-7823.16
  31
0.00
  12
-925.13
  22
-7956.16
  32
0.00
  13
-917.87
  23
-8017.16
  33
0.00
  0
3DFACE
  8
mg_to_dxf
  62
250
  10
-620.00
  20
-7982.16
  30
0.00
  11
-565.60
  21
-7976.16
  31
0.00
  12
-576.75
  22
-7816.16
  32
0.00
  13
-629.63
  23
-7823.16
  33
0.00
  0
3DFACE
  8
mg_to_dxf
  62
250
  10
-636.87
  20
-7717.16
  30
0.00
  11
-459.75
  21
-7808.16
  31
0.00
  12
-477.60
  22
-7547.17
  32
0.00
  13
-477.60
  23
-7547.17
  33
0.00
  0
3DFACE
  8
mg_to_dxf
  62
250
  10
-477.60
  20
-7547.17
  30
0.00
  11
-775.88
  21
-7577.16
  31
0.00
  12
-636.87
  22
-7717.16
  32
0.00
  13
-636.87
  23
-7717.16
  33
0.00
  0
3DFACE
  8
mg_to_dxf
  62
250
  10
-775.88
  20
-7577.16
  30
0.00
  11
-940.25
  21
-7593.16
  31
0.00
  12
-942.62
  22
-7735.16
  32
0.00
  13
-636.87
  23
-7717.16
  33
0.00
  0
3DFACE
  8
mg_to_dxf
  62
250
  10
-459.75
  20
-7808.16
  30
0.00
  11
-576.75
  21
-7816.16
  31
0.00
  12
-565.60
  22
-7976.16
  32
0.00
  13
-565.60
  23
-7976.16
  33
0.00
  0
3DFACE
  8
mg_to_dxf
  62
250
  10
-565.60
  20
-7976.16
  30
0.00
  11
-564.63
  21
-7990.16
  31
0.00
  12
-459.75
  22
-7808.16
  32
0.00
  13
-459.75
  23
-7808.16
  33
0.00
  0
3DFACE
  8
mg_to_dxf
  62
250
  10
-576.75
  20
-7816.16
  30
0.00
  11
-459.75
  21
-7808.16
  31
0.00
  12
-636.87
  22
-7717.16
  32
0.00
  13
-636.87
  23
-7717.16
  33
0.00
  0
3DFACE
  8
mg_to_dxf
  62
250
  10
-629.63
  20
-7823.16
  30
0.00
  11
-576.75
  21
-7816.16
  31
0.00
  12
-636.87
  22
-7717.16
  32
0.00
  13
-636.87
  23
-7717.16
  33
0.00
  0
3DFACE
  8
mg_to_dxf
  62
250
  10
-160.63
  20
-9359.16
  30
0.00
  11
-166.63
  21
-9378.16
  31
0.00
  12
-137.25
  22
-9405.16
  32
0.00
  13
-126.50
  23
-9384.16
  33
0.00
  0
3DFACE
  8
mg_to_dxf
  62
250
  10
-160.63
  20
-9359.16
  30
0.00
  11
-126.50
  21
-9384.16
  31
0.00
  12
-125.00
  22
-9356.16
  32
0.00
  13
-125.00
  23
-9356.16
  33
0.00
  0
3DFACE
  8
mg_to_dxf
  62
250
  10
-164.88
  20
-9341.16
  30
0.00
  11
-160.63
  21
-9359.16
  31
0.00
  12
-125.00
  22
-9356.16
  32
0.00
  13
-135.38
  23
-9334.16
  33
0.00
  0
3DFACE
  8
mg_to_dxf
  62
250
  10
-740.00
  20
-8709.16
  30
0.00
  11
-186.38
  21
-9314.16
  31
0.00
  12
-186.00
  22
-9279.16
  32
0.00
  13
-201.13
  23
-9222.16
  33
0.00
  0
3DFACE
  8
mg_to_dxf
  62
250
  10
-740.00
  20
-8709.16
  30
0.00
  11
-740.00
  21
-8709.16
  31
0.00
  12
-812.63
  22
-8669.16
  32
0.00
  13
-767.38
  23
-8734.16
  33
0.00
  0
3DFACE
  8
mg_to_dxf
  62
250
  10
-712.88
  20
-8665.16
  30
0.00
  11
-712.88
  21
-8665.16
  31
0.00
  12
-812.63
  22
-8669.16
  32
0.00
  13
-740.00
  23
-8709.16
  33
0.00
  0
3DFACE
  8
mg_to_dxf
  62
250
  10
-712.88
  20
-8665.16
  30
0.00
  11
-712.88
  21
-8665.16
  31
0.00
  12
-743.50
  22
-8633.16
  32
0.00
  13
-812.63
  23
-8669.16
  33
0.00
  0
3DFACE
  8
mg_to_dxf
  62
250
  10
-693.63
  20
-8675.16
  30
0.00
  11
-712.88
  21
-8665.16
  31
0.00
  12
-740.00
  22
-8709.16
  32
0.00
  13
-740.00
  23
-8709.16
  33
0.00
  0
3DFACE
  8
mg_to_dxf
  62
250
  10
-201.13
  20
-9222.16
  30
0.00
  11
5.00
  21
-9033.16
  31
0.00
  12
-49.75
  22
-9015.16
  32
0.00
  13
-49.75
  23
-9015.16
  33
0.00
  0
3DFACE
  8
mg_to_dxf
  62
250
  10
-674.13
  20
-8669.16
  30
0.00
  11
-201.13
  21
-9222.16
  31
0.00
  12
-201.38
  22
-8860.16
  32
0.00
  13
-230.50
  23
-8834.16
  33
0.00
  0
3DFACE
  8
mg_to_dxf
  62
250
  10
-519.50
  20
-8552.16
  30
0.00
  11
-674.13
  21
-8669.16
  31
0.00
  12
-473.75
  22
-8579.16
  32
0.00
  13
-473.75
  23
-8579.16
  33
0.00
  0
3DFACE
  8
mg_to_dxf
  62
250
  10
-473.75
  20
-8579.16
  30
0.00
  11
-507.75
  21
-8115.16
  31
0.00
  12
-553.50
  22
-8118.16
  32
0.00
  13
-519.50
  23
-8552.16
  33
0.00
  0
3DFACE
  8
mg_to_dxf
  62
250
  10
-674.13
  20
-8669.16
  30
0.00
  11
-230.50
  21
-8834.16
  31
0.00
  12
-473.75
  22
-8579.16
  32
0.00
  13
-473.75
  23
-8579.16
  33
0.00
  0
3DFACE
  8
mg_to_dxf
  62
250
  10
-519.50
  20
-8552.16
  30
0.00
  11
-532.75
  21
-8547.16
  31
0.00
  12
-555.50
  22
-8555.16
  32
0.00
  13
-674.13
  23
-8669.16
  33
0.00
  0
3DFACE
  8
mg_to_dxf
  62
250
  10
-201.38
  20
-8860.16
  30
0.00
  11
-164.13
  21
-8828.16
  31
0.00
  12
-187.13
  22
-8800.16
  32
0.00
  13
-230.50
  23
-8834.16
  33
0.00
  0
3DFACE
  8
mg_to_dxf
  62
250
  10
-201.13
  20
-9222.16
  30
0.00
  11
-49.75
  21
-9015.16
  31
0.00
  12
-201.38
  22
-8860.16
  32
0.00
  13
-201.38
  23
-8860.16
  33
0.00
  0
3DFACE
  8
mg_to_dxf
  62
250
  10
5.00
  20
-9033.16
  30
0.00
  11
-27.13
  21
-8994.16
  31
0.00
  12
-49.75
  22
-9015.16
  32
0.00
  13
-49.75
  23
-9015.16
  33
0.00
  0
3DFACE
  8
mg_to_dxf
  62
250
  10
-674.13
  20
-8669.16
  30
0.00
  11
-693.63
  21
-8675.16
  31
0.00
  12
-740.00
  22
-8709.16
  32
0.00
  13
-201.13
  23
-9222.16
  33
0.00
  0
3DFACE
  8
mg_to_dxf
  62
250
  10
-186.00
  20
-9279.16
  30
0.00
  11
-164.38
  21
-9257.16
  31
0.00
  12
-201.13
  22
-9222.16
  32
0.00
  13
-201.13
  23
-9222.16
  33
0.00
  0
3DFACE
  8
mg_to_dxf
  62
250
  10
-186.38
  20
-9314.16
  30
0.00
  11
-164.88
  21
-9341.16
  31
0.00
  12
-135.38
  22
-9334.16
  32
0.00
  13
-186.00
  23
-9279.16
  33
0.00
  0
3DFACE
  8
mg_to_dxf
  62
250
  10
-166.63
  20
-9378.16
  30
0.00
  11
-189.75
  21
-9397.16
  31
0.00
  12
-161.63
  22
-9430.16
  32
0.00
  13
-137.25
  23
-9405.16
  33
0.00
  0
3DFACE
  8
mg_to_dxf
  62
250
  10
-1965.00
  20
-3212.16
  30
0.00
  11
-1972.56
  21
-3251.16
  31
0.00
  12
-1913.40
  22
-3198.68
  32
0.00
  13
-1913.40
  23
-3198.68
  33
0.00
  0
3DFACE
  8
mg_to_dxf
  62
250
  10
-1377.61
  20
-2723.47
  30
0.00
  11
-1553.09
  21
-2609.54
  31
0.00
  12
-1716.47
  22
-2789.16
  32
0.00
  13
-1558.43
  23
-2883.85
  33
0.00
  0
3DFACE
  8
mg_to_dxf
  62
250
  10
-850.63
  20
-2098.16
  30
0.00
  11
-850.63
  21
-2098.16
  31
0.00
  12
-974.14
  22
-2365.61
  32
0.00
  13
-842.50
  23
-2130.16
  33
0.00
  0
3DFACE
  8
mg_to_dxf
  62
250
  10
-1553.09
  20
-2609.54
  30
0.00
  11
-1553.09
  21
-2609.54
  31
0.00
  12
-974.14
  22
-2365.61
  32
0.00
  13
-850.63
  23
-2098.16
  33
0.00
  0
3DFACE
  8
mg_to_dxf
  62
250
  10
-1553.09
  20
-2609.54
  30
0.00
  11
-1553.09
  21
-2609.54
  31
0.00
  12
-1210.18
  22
-2574.96
  32
0.00
  13
-974.14
  23
-2365.61
  33
0.00
  0
3DFACE
  8
mg_to_dxf
  62
250
  10
-850.63
  20
-2098.16
  30
0.00
  11
-840.75
  21
-2063.16
  31
0.00
  12
-1553.09
  22
-2609.54
  32
0.00
  13
-1553.09
  23
-2609.54
  33
0.00
  0
3DFACE
  8
mg_to_dxf
  62
250
  10
-822.13
  20
-2156.16
  30
0.00
  11
-842.50
  21
-2130.16
  31
0.00
  12
-974.14
  22
-2365.61
  32
0.00
  13
-946.46
  23
-2341.05
  33
0.00
  0
3DFACE
  8
mg_to_dxf
  62
250
  10
-891.70
  20
-2292.49
  30
0.00
  11
-794.50
  21
-2171.16
  31
0.00
  12
-822.13
  22
-2156.16
  32
0.00
  13
-946.46
  23
-2341.05
  33
0.00
  0
3DFACE
  8
mg_to_dxf
  62
250
  10
-763.94
  20
-2179.16
  30
0.00
  11
-794.50
  21
-2171.16
  31
0.00
  12
-891.70
  22
-2292.49
  32
0.00
  13
-891.70
  23
-2292.49
  33
0.00
  0
3DFACE
  8
mg_to_dxf
  62
250
  10
-3078.97
  20
-1342.17
  30
0.00
  11
-3090.00
  21
-1188.16
  31
0.00
  12
-3715.38
  22
-1220.16
  32
0.00
  13
-3715.38
  23
-1220.16
  33
0.00
  0
3DFACE
  8
mg_to_dxf
  62
250
  10
-3061.37
  20
-1361.16
  30
0.00
  11
-3051.43
  21
-1373.16
  31
0.00
  12
-3054.87
  22
-1322.16
  32
0.00
  13
-3060.37
  23
-1334.16
  33
0.00
  0
3DFACE
  8
mg_to_dxf
  62
250
  10
-3068.37
  20
-1357.16
  30
0.00
  11
-3061.37
  21
-1361.16
  31
0.00
  12
-3060.37
  22
-1334.16
  32
0.00
  13
-3067.87
  23
-1341.16
  33
0.00
  0
3DFACE
  8
mg_to_dxf
  62
250
  10
-3067.87
  20
-1341.16
  30
0.00
  11
-3078.97
  21
-1342.17
  31
0.00
  12
-3077.89
  22
-1357.16
  32
0.00
  13
-3068.37
  23
-1357.16
  33
0.00
  0
3DFACE
  8
mg_to_dxf
  62
250
  10
-3820.13
  20
-1225.16
  30
0.00
  11
-4102.88
  21
-1240.16
  31
0.00
  12
-4123.63
  22
-1383.16
  32
0.00
  13
-4123.63
  23
-1383.16
  33
0.00
  0
3DFACE
  8
mg_to_dxf
  62
250
  10
-4165.75
  20
-1243.16
  30
0.00
  11
-4195.88
  21
-1242.16
  31
0.00
  12
-4190.50
  22
-1349.16
  32
0.00
  13
-4162.88
  23
-1347.16
  33
0.00
  0
3DFACE
  8
mg_to_dxf
  62
250
  10
-4162.88
  20
-1347.16
  30
0.00
  11
-4139.00
  21
-1357.16
  31
0.00
  12
-4133.00
  22
-1242.16
  32
0.00
  13
-4165.75
  23
-1243.16
  33
0.00
  0
3DFACE
  8
mg_to_dxf
  62
250
  10
-4195.88
  20
-1242.16
  30
0.00
  11
-4221.88
  21
-1235.16
  31
0.00
  12
-4218.25
  22
-1363.16
  32
0.00
  13
-4190.50
  23
-1349.16
  33
0.00
  0
3DFACE
  8
mg_to_dxf
  62
250
  10
-4139.00
  20
-1357.16
  30
0.00
  11
-4123.63
  21
-1383.16
  31
0.00
  12
-4102.88
  22
-1240.16
  32
0.00
  13
-4133.00
  23
-1242.16
  33
0.00
  0
3DFACE
  8
mg_to_dxf
  62
250
  10
-2019.88
  20
-2514.16
  30
0.00
  11
-1942.92
  21
-1396.74
  31
0.00
  12
-2743.46
  22
-1476.16
  32
0.00
  13
-2734.83
  23
-1586.21
  33
0.00
  0
3DFACE
  8
mg_to_dxf
  62
250
  10
-2734.83
  20
-1586.21
  30
0.00
  11
-2936.82
  21
-1597.32
  31
0.00
  12
-2404.75
  22
-2858.16
  32
0.00
  13
-2019.88
  23
-2514.16
  33
0.00
  0
3DFACE
  8
mg_to_dxf
  62
250
  10
-2404.75
  20
-2858.16
  30
0.00
  11
-2404.75
  21
-2858.16
  31
0.00
  12
-2268.63
  22
-3169.16
  32
0.00
  13
-2204.00
  23
-3059.16
  33
0.00
  0
3DFACE
  8
mg_to_dxf
  62
250
  10
-2404.75
  20
-2858.16
  30
0.00
  11
-2404.75
  21
-2858.16
  31
0.00
  12
-2362.63
  22
-3228.16
  32
0.00
  13
-2268.63
  23
-3169.16
  33
0.00
  0
3DFACE
  8
mg_to_dxf
  62
250
  10
-2619.13
  20
-3315.16
  30
0.00
  11
-2619.13
  21
-3315.16
  31
0.00
  12
-2488.38
  22
-3281.16
  32
0.00
  13
-2404.75
  23
-2858.16
  33
0.00
  0
3DFACE
  8
mg_to_dxf
  62
250
  10
-2404.75
  20
-2858.16
  30
0.00
  11
-2404.75
  21
-2858.16
  31
0.00
  12
-2488.38
  22
-3281.16
  32
0.00
  13
-2362.63
  23
-3228.16
  33
0.00
  0
3DFACE
  8
mg_to_dxf
  62
250
  10
-1553.09
  20
-2609.54
  30
0.00
  11
-1377.61
  21
-2723.47
  31
0.00
  12
-1210.18
  22
-2574.96
  32
0.00
  13
-1210.18
  23
-2574.96
  33
0.00
  0
3DFACE
  8
mg_to_dxf
  62
250
  10
-2095.00
  20
-3078.20
  30
0.00
  11
-2095.00
  21
-3078.20
  31
0.00
  12
-2204.00
  22
-3059.16
  32
0.00
  13
-2164.63
  23
-3078.16
  33
0.00
  0
3DFACE
  8
mg_to_dxf
  62
250
  10
-2071.63
  20
-2767.16
  30
0.00
  11
-2071.63
  21
-2767.16
  31
0.00
  12
-2204.00
  22
-3059.16
  32
0.00
  13
-2095.00
  23
-3078.20
  33
0.00
  0
3DFACE
  8
mg_to_dxf
  62
250
  10
-2071.63
  20
-2767.16
  30
0.00
  11
-2071.63
  21
-2767.16
  31
0.00
  12
-2404.75
  22
-2858.16
  32
0.00
  13
-2204.00
  23
-3059.16
  33
0.00
  0
3DFACE
  8
mg_to_dxf
  62
250
  10
-2095.00
  20
-3078.20
  30
0.00
  11
-2037.75
  21
-3095.21
  31
0.00
  12
-1788.90
  22
-2790.17
  32
0.00
  13
-2071.63
  23
-2767.16
  33
0.00
  0
3DFACE
  8
mg_to_dxf
  62
250
  10
-2071.63
  20
-2767.16
  30
0.00
  11
-2031.75
  21
-2604.16
  31
0.00
  12
-2019.88
  22
-2514.16
  32
0.00
  13
-2404.75
  23
-2858.16
  33
0.00
  0
3DFACE
  8
mg_to_dxf
  62
250
  10
-1860.97
  20
-3152.18
  30
0.00
  11
-1860.97
  21
-3152.18
  31
0.00
  12
-2037.75
  22
-3095.21
  32
0.00
  13
-1975.65
  23
-3159.19
  33
0.00
  0
3DFACE
  8
mg_to_dxf
  62
250
  10
-1860.97
  20
-3152.18
  30
0.00
  11
-1860.97
  21
-3152.18
  31
0.00
  12
-1788.90
  22
-2790.17
  32
0.00
  13
-2037.75
  23
-3095.21
  33
0.00
  0
3DFACE
  8
mg_to_dxf
  62
250
  10
-1604.82
  20
-2924.99
  30
0.00
  11
-1604.82
  21
-2924.99
  31
0.00
  12
-1788.90
  22
-2790.17
  32
0.00
  13
-1860.97
  23
-3152.18
  33
0.00
  0
3DFACE
  8
mg_to_dxf
  62
250
  10
-1604.82
  20
-2924.99
  30
0.00
  11
-1604.82
  21
-2924.99
  31
0.00
  12
-1716.47
  22
-2789.16
  32
0.00
  13
-1788.90
  23
-2790.17
  33
0.00
  0
3DFACE
  8
mg_to_dxf
  62
250
  10
-1975.65
  20
-3159.19
  30
0.00
  11
-1965.00
  21
-3212.16
  31
0.00
  12
-1913.40
  22
-3198.68
  32
0.00
  13
-1860.97
  23
-3152.18
  33
0.00
  0
3DFACE
  8
mg_to_dxf
  62
250
  10
-1553.09
  20
-2609.54
  30
0.00
  11
-1971.38
  21
-2576.16
  31
0.00
  12
-1788.90
  22
-2790.17
  32
0.00
  13
-1716.47
  23
-2789.16
  33
0.00
  0
3DFACE
  8
mg_to_dxf
  62
250
  10
-1971.38
  20
-2576.16
  30
0.00
  11
-2019.88
  21
-2514.16
  31
0.00
  12
-2031.75
  22
-2604.16
  32
0.00
  13
-2031.75
  23
-2604.16
  33
0.00
  0
3DFACE
  8
mg_to_dxf
  62
250
  10
-2031.75
  20
-2604.16
  30
0.00
  11
-2071.63
  21
-2767.16
  31
0.00
  12
-1971.38
  22
-2576.16
  32
0.00
  13
-1971.38
  23
-2576.16
  33
0.00
  0
3DFACE
  8
mg_to_dxf
  62
250
  10
-2268.63
  20
-3169.16
  30
0.00
  11
-2164.63
  21
-3078.16
  31
0.00
  12
-2204.00
  22
-3059.16
  32
0.00
  13
-2204.00
  23
-3059.16
  33
0.00
  0
3DFACE
  8
mg_to_dxf
  62
250
  10
-2071.63
  20
-2767.16
  30
0.00
  11
-1788.90
  21
-2790.17
  31
0.00
  12
-1971.38
  22
-2576.16
  32
0.00
  13
-1971.38
  23
-2576.16
  33
0.00
  0
3DFACE
  8
mg_to_dxf
  62
250
  10
-1558.43
  20
-2883.85
  30
0.00
  11
-1716.47
  21
-2789.16
  31
0.00
  12
-1604.82
  22
-2924.99
  32
0.00
  13
-1604.82
  23
-2924.99
  33
0.00
  0
3DFACE
  8
mg_to_dxf
  62
250
  10
-2745.18
  20
-1454.20
  30
0.00
  11
-2743.46
  21
-1476.16
  31
0.00
  12
-1942.92
  22
-1396.74
  32
0.00
  13
-1942.92
  23
-1396.74
  33
0.00
  0
3DFACE
  8
mg_to_dxf
  62
250
  10
-2734.83
  20
-1586.21
  30
0.00
  11
-2743.50
  21
-1476.16
  31
0.00
  12
-2814.82
  22
-1485.09
  32
0.00
  13
-2814.82
  23
-1485.09
  33
0.00
  0
3DFACE
  8
mg_to_dxf
  62
250
  10
-2858.40
  20
-1475.37
  30
0.00
  11
-2886.55
  21
-1462.18
  31
0.00
  12
-2913.76
  22
-1483.14
  32
0.00
  13
-2908.89
  23
-1493.15
  33
0.00
  0
3DFACE
  8
mg_to_dxf
  62
250
  10
-2908.89
  20
-1493.15
  30
0.00
  11
-2908.89
  21
-1493.15
  31
0.00
  12
-2814.82
  22
-1485.09
  32
0.00
  13
-2858.40
  23
-1475.37
  33
0.00
  0
3DFACE
  8
mg_to_dxf
  62
250
  10
-2936.83
  20
-1597.28
  30
0.00
  11
-2936.83
  21
-1597.28
  31
0.00
  12
-2814.82
  22
-1485.09
  32
0.00
  13
-2908.89
  23
-1493.15
  33
0.00
  0
3DFACE
  8
mg_to_dxf
  62
250
  10
-2936.83
  20
-1597.28
  30
0.00
  11
-2936.83
  21
-1597.28
  31
0.00
  12
-2734.83
  22
-1586.21
  32
0.00
  13
-2814.82
  23
-1485.09
  33
0.00
  0
3DFACE
  8
mg_to_dxf
  62
250
  10
-2986.50
  20
-1600.05
  30
0.00
  11
-2986.50
  21
-1600.05
  31
0.00
  12
-2404.75
  22
-2858.16
  32
0.00
  13
-2936.82
  23
-1597.32
  33
0.00
  0
3DFACE
  8
mg_to_dxf
  62
250
  10
-2868.25
  20
-3359.16
  30
0.00
  11
-2868.25
  21
-3359.16
  31
0.00
  12
-2404.75
  22
-2858.16
  32
0.00
  13
-2986.50
  23
-1600.05
  33
0.00
  0
3DFACE
  8
mg_to_dxf
  62
250
  10
-2868.25
  20
-3359.16
  30
0.00
  11
-2868.25
  21
-3359.16
  31
0.00
  12
-2619.13
  22
-3315.16
  32
0.00
  13
-2404.75
  23
-2858.16
  33
0.00
  0
3DFACE
  8
mg_to_dxf
  62
250
  10
-3473.63
  20
-3371.16
  30
0.00
  11
-3116.25
  21
-3351.16
  31
0.00
  12
-2986.50
  22
-1600.05
  32
0.00
  13
-2986.50
  23
-1600.05
  33
0.00
  0
3DFACE
  8
mg_to_dxf
  62
250
  10
-4036.88
  20
-2351.16
  30
0.00
  11
-4036.88
  21
-2351.16
  31
0.00
  12
-3788.88
  22
-1224.16
  32
0.00
  13
-4069.38
  23
-2087.16
  33
0.00
  0
3DFACE
  8
mg_to_dxf
  62
250
  10
-3788.88
  20
-1224.16
  30
0.00
  11
-3788.88
  21
-1224.16
  31
0.00
  12
-4077.13
  22
-1831.16
  32
0.00
  13
-4069.38
  23
-2087.16
  33
0.00
  0
3DFACE
  8
mg_to_dxf
  62
250
  10
-3788.88
  20
-1224.16
  30
0.00
  11
-3788.88
  21
-1224.16
  31
0.00
  12
-3820.13
  22
-1225.16
  32
0.00
  13
-4077.13
  23
-1831.16
  33
0.00
  0
3DFACE
  8
mg_to_dxf
  62
250
  10
-3970.50
  20
-2668.16
  30
0.00
  11
-3997.13
  21
-2797.16
  31
0.00
  12
-3473.63
  22
-3371.16
  32
0.00
  13
-3473.63
  23
-3371.16
  33
0.00
  0
3DFACE
  8
mg_to_dxf
  62
250
  10
-3970.50
  20
-2668.16
  30
0.00
  11
-3970.50
  21
-2668.16
  31
0.00
  12
-4036.88
  22
-2351.16
  32
0.00
  13
-4022.00
  23
-2513.16
  33
0.00
  0
3DFACE
  8
mg_to_dxf
  62
250
  10
-3740.00
  20
-1221.16
  30
0.00
  11
-3740.00
  21
-1221.16
  31
0.00
  12
-4036.88
  22
-2351.16
  32
0.00
  13
-3970.50
  23
-2668.16
  33
0.00
  0
3DFACE
  8
mg_to_dxf
  62
250
  10
-3740.00
  20
-1221.16
  30
0.00
  11
-3740.00
  21
-1221.16
  31
0.00
  12
-3788.88
  22
-1224.16
  32
0.00
  13
-4036.88
  23
-2351.16
  33
0.00
  0
3DFACE
  8
mg_to_dxf
  62
250
  10
-2986.50
  20
-1600.05
  30
0.00
  11
-2995.88
  21
-1478.20
  31
0.00
  12
-3068.87
  22
-1483.15
  32
0.00
  13
-3068.87
  23
-1483.15
  33
0.00
  0
3DFACE
  8
mg_to_dxf
  62
250
  10
-3970.50
  20
-2668.16
  30
0.00
  11
-3473.63
  21
-3371.16
  31
0.00
  12
-2986.50
  22
-1600.05
  32
0.00
  13
-3068.87
  23
-1483.15
  33
0.00
  0
3DFACE
  8
mg_to_dxf
  62
250
  10
-3068.87
  20
-1483.15
  30
0.00
  11
-3077.89
  21
-1357.16
  31
0.00
  12
-3970.50
  22
-2668.16
  32
0.00
  13
-3970.50
  23
-2668.16
  33
0.00
  0
3DFACE
  8
mg_to_dxf
  62
250
  10
-3970.50
  20
-2668.16
  30
0.00
  11
-3970.50
  21
-2668.16
  31
0.00
  12
-3715.38
  22
-1220.16
  32
0.00
  13
-3740.00
  23
-1221.16
  33
0.00
  0
3DFACE
  8
mg_to_dxf
  62
250
  10
-3077.89
  20
-1357.16
  30
0.00
  11
-3077.89
  21
-1357.16
  31
0.00
  12
-3715.38
  22
-1220.16
  32
0.00
  13
-3970.50
  23
-2668.16
  33
0.00
  0
3DFACE
  8
mg_to_dxf
  62
250
  10
-3077.89
  20
-1357.16
  30
0.00
  11
-3077.89
  21
-1357.16
  31
0.00
  12
-3078.97
  22
-1342.17
  32
0.00
  13
-3715.38
  23
-1220.16
  33
0.00
  0
3DFACE
  8
mg_to_dxf
  62
250
  10
-3997.13
  20
-2797.16
  30
0.00
  11
-3982.00
  21
-3033.16
  31
0.00
  12
-3544.63
  22
-3379.16
  32
0.00
  13
-3473.63
  23
-3371.16
  33
0.00
  0
3DFACE
  8
mg_to_dxf
  62
250
  10
-3982.00
  20
-3033.16
  30
0.00
  11
-3974.50
  21
-3321.16
  31
0.00
  12
-3673.63
  22
-3403.16
  32
0.00
  13
-3544.63
  23
-3379.16
  33
0.00
  0
3DFACE
  8
mg_to_dxf
  62
250
  10
-3820.13
  20
-1225.16
  30
0.00
  11
-4095.50
  21
-1597.16
  31
0.00
  12
-4077.13
  22
-1831.16
  32
0.00
  13
-4077.13
  23
-1831.16
  33
0.00
  0
3DFACE
  8
mg_to_dxf
  62
250
  10
-3820.13
  20
-1225.16
  30
0.00
  11
-4123.63
  21
-1383.16
  31
0.00
  12
-4095.50
  22
-1597.16
  32
0.00
  13
-4095.50
  23
-1597.16
  33
0.00
  0
3DFACE
  8
mg_to_dxf
  62
250
  10
-3116.25
  20
-3351.16
  30
0.00
  11
-2868.25
  21
-3359.16
  31
0.00
  12
-2986.50
  22
-1600.05
  32
0.00
  13
-2986.50
  23
-1600.05
  33
0.00
  0
3DFACE
  8
mg_to_dxf
  62
250
  10
-2886.55
  20
-1462.18
  30
0.00
  11
-2910.50
  21
-1451.14
  31
0.00
  12
-2926.26
  22
-1471.14
  32
0.00
  13
-2913.76
  23
-1483.14
  33
0.00
  0
3DFACE
  8
mg_to_dxf
  62
250
  10
-2908.89
  20
-1493.15
  30
0.00
  11
-2946.76
  21
-1497.14
  31
0.00
  12
-2936.83
  22
-1597.28
  32
0.00
  13
-2936.83
  23
-1597.28
  33
0.00
  0
3DFACE
  8
mg_to_dxf
  62
250
  10
-4022.00
  20
-2513.16
  30
0.00
  11
-4034.00
  21
-2565.16
  31
0.00
  12
-3997.13
  22
-2797.16
  32
0.00
  13
-3970.50
  23
-2668.16
  33
0.00
  0
3DFACE
  8
mg_to_dxf
  62
250
  10
-840.75
  20
-2063.16
  30
0.00
  11
-1779.67
  21
-1326.17
  31
0.00
  12
-1833.94
  22
-1371.70
  32
0.00
  13
-1833.94
  23
-1371.70
  33
0.00
  0
3DFACE
  8
mg_to_dxf
  62
250
  10
-1942.92
  20
-1396.74
  30
0.00
  11
-1942.92
  21
-1396.74
  31
0.00
  12
-1553.09
  22
-2609.54
  32
0.00
  13
-840.75
  23
-2063.16
  33
0.00
  0
3DFACE
  8
mg_to_dxf
  62
250
  10
-2019.88
  20
-2514.16
  30
0.00
  11
-2019.88
  21
-2514.16
  31
0.00
  12
-1553.09
  22
-2609.54
  32
0.00
  13
-1942.92
  23
-1396.74
  33
0.00
  0
3DFACE
  8
mg_to_dxf
  62
250
  10
-2019.88
  20
-2514.16
  30
0.00
  11
-2019.88
  21
-2514.16
  31
0.00
  12
-1971.38
  22
-2576.16
  32
0.00
  13
-1553.09
  23
-2609.54
  33
0.00
  0
3DFACE
  8
mg_to_dxf
  62
250
  10
-840.75
  20
-2063.16
  30
0.00
  11
-1833.94
  21
-1371.70
  31
0.00
  12
-1943.38
  22
-1386.37
  32
0.00
  13
-1942.92
  23
-1396.74
  33
0.00
  0
3DFACE
  8
mg_to_dxf
  62
250
  10
-573.74
  20
-228.16
  30
0.00
  11
-1469.63
  21
817.84
  31
0.00
  12
-1643.86
  22
634.05
  32
0.00
  13
-1643.86
  23
634.05
  33
0.00
  0
3DFACE
  8
mg_to_dxf
  62
250
  10
-573.74
  20
-228.16
  30
0.00
  11
-1643.86
  21
634.05
  31
0.00
  12
-1700.97
  22
564.57
  32
0.00
  13
-1700.97
  23
564.57
  33
0.00
  0
3DFACE
  8
mg_to_dxf
  62
250
  10
-573.74
  20
-228.16
  30
0.00
  11
-1762.82
  21
491.88
  31
0.00
  12
-1839.17
  22
407.53
  32
0.00
  13
-1839.17
  23
407.53
  33
0.00
  0
3DFACE
  8
mg_to_dxf
  62
250
  10
-1839.17
  20
407.53
  30
0.00
  11
-1865.20
  21
376.49
  31
0.00
  12
-1850.31
  22
147.86
  32
0.00
  13
-1824.11
  23
148.84
  33
0.00
  0
3DFACE
  8
mg_to_dxf
  62
250
  10
-569.49
  20
-434.15
  30
0.00
  11
-573.74
  21
-228.16
  31
0.00
  12
-1839.17
  22
407.53
  32
0.00
  13
-1824.11
  23
148.84
  33
0.00
  0
3DFACE
  8
mg_to_dxf
  62
250
  10
-525.75
  20
-934.16
  30
0.00
  11
-569.49
  21
-434.15
  31
0.00
  12
-1793.28
  22
-302.04
  32
0.00
  13
-1778.94
  23
-497.19
  33
0.00
  0
3DFACE
  8
mg_to_dxf
  62
250
  10
-1728.85
  20
-1215.15
  30
0.00
  11
-1728.85
  21
-1215.15
  31
0.00
  12
-1778.94
  22
-497.19
  32
0.00
  13
-1803.55
  23
-501.18
  33
0.00
  0
3DFACE
  8
mg_to_dxf
  62
250
  10
-498.50
  20
-1631.16
  30
0.00
  11
-498.50
  21
-1631.16
  31
0.00
  12
-1778.94
  22
-497.19
  32
0.00
  13
-1728.85
  23
-1215.15
  33
0.00
  0
3DFACE
  8
mg_to_dxf
  62
250
  10
-498.50
  20
-1631.16
  30
0.00
  11
-498.50
  21
-1631.16
  31
0.00
  12
-525.75
  22
-934.16
  32
0.00
  13
-1778.94
  23
-497.19
  33
0.00
  0
3DFACE
  8
mg_to_dxf
  62
250
  10
-840.75
  20
-2063.16
  30
0.00
  11
-631.75
  21
-1854.16
  31
0.00
  12
-1747.20
  22
-1280.18
  32
0.00
  13
-1779.67
  23
-1326.17
  33
0.00
  0
3DFACE
  8
mg_to_dxf
  62
250
  10
-1747.20
  20
-1280.18
  30
0.00
  11
-1747.20
  21
-1280.18
  31
0.00
  12
-498.50
  22
-1631.16
  32
0.00
  13
-1728.85
  23
-1215.15
  33
0.00
  0
3DFACE
  8
mg_to_dxf
  62
250
  10
-1747.20
  20
-1280.18
  30
0.00
  11
-1747.20
  21
-1280.18
  31
0.00
  12
-631.75
  22
-1854.16
  32
0.00
  13
-498.50
  23
-1631.16
  33
0.00
  0
3DFACE
  8
mg_to_dxf
  62
250
  10
-631.75
  20
-1854.16
  30
0.00
  11
-631.75
  21
-1854.16
  31
0.00
  12
-546.25
  22
-1775.16
  32
0.00
  13
-498.50
  23
-1631.16
  33
0.00
  0
3DFACE
  8
mg_to_dxf
  62
250
  10
-498.50
  20
-1631.16
  30
0.00
  11
-498.50
  21
-1631.16
  31
0.00
  12
-546.25
  22
-1775.16
  32
0.00
  13
-507.00
  23
-1713.16
  33
0.00
  0
3DFACE
  8
mg_to_dxf
  62
250
  10
-569.49
  20
-434.15
  30
0.00
  11
-1824.11
  21
148.84
  31
0.00
  12
-1793.28
  22
-302.04
  32
0.00
  13
-1793.28
  23
-302.04
  33
0.00
  0
3DFACE
  8
mg_to_dxf
  62
250
  10
-573.74
  20
-228.16
  30
0.00
  11
-1700.97
  21
564.57
  31
0.00
  12
-1762.82
  22
491.88
  32
0.00
  13
-1762.82
  23
491.88
  33
0.00
  0
3DFACE
  8
mg_to_dxf
  62
250
  10
-583.50
  20
-34.16
  30
0.00
  11
-583.50
  21
-34.16
  31
0.00
  12
-1469.63
  22
817.84
  32
0.00
  13
-573.74
  23
-228.16
  33
0.00
  0
3DFACE
  8
mg_to_dxf
  62
250
  10
-1416.88
  20
868.84
  30
0.00
  11
-1416.88
  21
868.84
  31
0.00
  12
-1469.63
  22
817.84
  32
0.00
  13
-583.50
  23
-34.16
  33
0.00
  0
3DFACE
  8
mg_to_dxf
  62
250
  10
-1416.88
  20
868.84
  30
0.00
  11
-1416.88
  21
868.84
  31
0.00
  12
-1449.13
  22
862.84
  32
0.00
  13
-1469.63
  23
817.84
  33
0.00
  0
3DFACE
  8
mg_to_dxf
  62
250
  10
-561.63
  20
690.84
  30
0.00
  11
-561.63
  21
690.84
  31
0.00
  12
-583.50
  22
-34.16
  32
0.00
  13
-509.11
  23
648.83
  33
0.00
  0
3DFACE
  8
mg_to_dxf
  62
250
  10
-1416.88
  20
868.84
  30
0.00
  11
-1416.88
  21
868.84
  31
0.00
  12
-583.50
  22
-34.16
  32
0.00
  13
-561.63
  23
690.84
  33
0.00
  0
3DFACE
  8
mg_to_dxf
  62
250
  10
-583.50
  20
-34.16
  30
0.00
  11
-583.50
  21
-34.16
  31
0.00
  12
-484.23
  22
272.86
  32
0.00
  13
-509.11
  23
648.83
  33
0.00
  0
3DFACE
  8
mg_to_dxf
  62
250
  10
797.13
  20
-3752.16
  30
0.00
  11
803.75
  21
-3765.16
  31
0.00
  12
824.50
  22
-3765.16
  32
0.00
  13
823.25
  23
-3751.16
  33
0.00
  0
3DFACE
  8
mg_to_dxf
  62
250
  10
778.25
  20
-3738.16
  30
0.00
  11
797.13
  21
-3752.16
  31
0.00
  12
821.75
  22
-3735.16
  32
0.00
  13
819.13
  23
-3706.16
  33
0.00
  0
3DFACE
  8
mg_to_dxf
  62
250
  10
706.00
  20
-3062.16
  30
0.00
  11
706.00
  21
-3062.16
  31
0.00
  12
1192.38
  22
-3666.16
  32
0.00
  13
779.38
  23
-3059.16
  33
0.00
  0
3DFACE
  8
mg_to_dxf
  62
250
  10
678.25
  20
-3419.66
  30
0.00
  11
678.25
  21
-3419.66
  31
0.00
  12
1192.38
  22
-3666.16
  32
0.00
  13
706.00
  23
-3062.16
  33
0.00
  0
3DFACE
  8
mg_to_dxf
  62
250
  10
779.38
  20
-3059.16
  30
0.00
  11
779.38
  21
-3059.16
  31
0.00
  12
1192.38
  22
-3666.16
  32
0.00
  13
1232.13
  23
-3634.16
  33
0.00
  0
3DFACE
  8
mg_to_dxf
  62
250
  10
706.00
  20
-3062.16
  30
0.00
  11
653.38
  21
-3065.16
  31
0.00
  12
678.25
  22
-3419.66
  32
0.00
  13
678.25
  23
-3419.66
  33
0.00
  0
3DFACE
  8
mg_to_dxf
  62
250
  10
800.75
  20
-3034.16
  30
0.00
  11
776.88
  21
-3036.16
  31
0.00
  12
779.38
  22
-3059.16
  32
0.00
  13
779.38
  23
-3059.16
  33
0.00
  0
3DFACE
  8
mg_to_dxf
  62
250
  10
800.75
  20
-3034.16
  30
0.00
  11
779.38
  21
-3059.16
  31
0.00
  12
1232.13
  22
-3634.16
  32
0.00
  13
1427.88
  23
-3533.16
  33
0.00
  0
3DFACE
  8
mg_to_dxf
  62
250
  10
1388.00
  20
-2820.16
  30
0.00
  11
1369.38
  21
-2821.16
  31
0.00
  12
1445.63
  22
-3531.16
  32
0.00
  13
1445.63
  23
-3531.16
  33
0.00
  0
3DFACE
  8
mg_to_dxf
  62
250
  10
2024.75
  20
-3501.16
  30
0.00
  11
2233.50
  21
-3486.16
  31
0.00
  12
2225.10
  22
-3404.17
  32
0.00
  13
2019.63
  23
-3472.16
  33
0.00
  0
3DFACE
  8
mg_to_dxf
  62
250
  10
2200.50
  20
-3164.16
  30
0.00
  11
2200.50
  21
-3164.16
  31
0.00
  12
2019.63
  22
-3472.16
  32
0.00
  13
2202.14
  23
-3180.16
  33
0.00
  0
3DFACE
  8
mg_to_dxf
  62
250
  10
1388.00
  20
-2820.16
  30
0.00
  11
1388.00
  21
-2820.16
  31
0.00
  12
2019.63
  22
-3472.16
  32
0.00
  13
2200.50
  23
-3164.16
  33
0.00
  0
3DFACE
  8
mg_to_dxf
  62
250
  10
1388.00
  20
-2820.16
  30
0.00
  11
1388.00
  21
-2820.16
  31
0.00
  12
1445.63
  22
-3531.16
  32
0.00
  13
2019.63
  23
-3472.16
  33
0.00
  0
3DFACE
  8
mg_to_dxf
  62
250
  10
2200.50
  20
-3164.16
  30
0.00
  11
2260.25
  21
-3050.16
  31
0.00
  12
2270.25
  22
-3006.16
  32
0.00
  13
2251.00
  23
-2916.16
  33
0.00
  0
3DFACE
  8
mg_to_dxf
  62
250
  10
2200.50
  20
-3164.16
  30
0.00
  11
2200.50
  21
-3164.16
  31
0.00
  12
2137.25
  22
-2768.16
  32
0.00
  13
1388.00
  23
-2820.16
  33
0.00
  0
3DFACE
  8
mg_to_dxf
  62
250
  10
2251.00
  20
-2916.16
  30
0.00
  11
2251.00
  21
-2916.16
  31
0.00
  12
2137.25
  22
-2768.16
  32
0.00
  13
2200.50
  23
-3164.16
  33
0.00
  0
3DFACE
  8
mg_to_dxf
  62
250
  10
2251.00
  20
-2916.16
  30
0.00
  11
2251.00
  21
-2916.16
  31
0.00
  12
2229.13
  22
-2853.16
  32
0.00
  13
2137.25
  23
-2768.16
  33
0.00
  0
3DFACE
  8
mg_to_dxf
  62
250
  10
2019.63
  20
-3472.16
  30
0.00
  11
2225.10
  21
-3404.17
  31
0.00
  12
2202.14
  22
-3180.16
  32
0.00
  13
2202.14
  23
-3180.16
  33
0.00
  0
3DFACE
  8
mg_to_dxf
  62
250
  10
1369.38
  20
-2821.16
  30
0.00
  11
1343.63
  21
-2820.16
  31
0.00
  12
1427.88
  22
-3533.16
  32
0.00
  13
1445.63
  23
-3531.16
  33
0.00
  0
3DFACE
  8
mg_to_dxf
  62
250
  10
1343.63
  20
-2820.16
  30
0.00
  11
1325.38
  21
-2807.16
  31
0.00
  12
800.75
  22
-3034.16
  32
0.00
  13
1427.88
  23
-3533.16
  33
0.00
  0
3DFACE
  8
mg_to_dxf
  62
250
  10
1232.13
  20
-3634.16
  30
0.00
  11
1432.13
  21
-3617.16
  31
0.00
  12
1427.88
  22
-3533.16
  32
0.00
  13
1427.88
  23
-3533.16
  33
0.00
  0
3DFACE
  8
mg_to_dxf
  62
250
  10
678.25
  20
-3419.66
  30
0.00
  11
819.13
  21
-3706.16
  31
0.00
  12
1193.75
  22
-3680.16
  32
0.00
  13
1192.38
  23
-3666.16
  33
0.00
  0
3DFACE
  8
mg_to_dxf
  62
250
  10
678.25
  20
-3419.66
  30
0.00
  11
703.13
  21
-3774.16
  31
0.00
  12
714.63
  22
-3754.16
  32
0.00
  13
714.63
  23
-3754.16
  33
0.00
  0
3DFACE
  8
mg_to_dxf
  62
250
  10
734.75
  20
-3742.16
  30
0.00
  11
754.50
  21
-3735.16
  31
0.00
  12
819.13
  22
-3706.16
  32
0.00
  13
678.25
  23
-3419.66
  33
0.00
  0
3DFACE
  8
mg_to_dxf
  62
250
  10
678.25
  20
-3419.66
  30
0.00
  11
714.63
  21
-3754.16
  31
0.00
  12
734.75
  22
-3742.16
  32
0.00
  13
734.75
  23
-3742.16
  33
0.00
  0
3DFACE
  8
mg_to_dxf
  62
250
  10
754.50
  20
-3735.16
  30
0.00
  11
778.25
  21
-3738.16
  31
0.00
  12
819.13
  22
-3706.16
  32
0.00
  13
819.13
  23
-3706.16
  33
0.00
  0
3DFACE
  8
mg_to_dxf
  62
250
  10
797.13
  20
-3752.16
  30
0.00
  11
823.25
  21
-3751.16
  31
0.00
  12
821.75
  22
-3735.16
  32
0.00
  13
821.75
  23
-3735.16
  33
0.00
  0
3DFACE
  8
mg_to_dxf
  62
250
  10
848.00
  20
-4114.16
  30
0.00
  11
844.03
  21
-4055.16
  31
0.00
  12
827.88
  22
-4115.16
  32
0.00
  13
827.88
  23
-4115.16
  33
0.00
  0
3DFACE
  8
mg_to_dxf
  62
250
  10
1104.25
  20
-4080.16
  30
0.00
  11
1102.50
  21
-4066.16
  31
0.00
  12
1045.38
  22
-4072.16
  32
0.00
  13
1047.50
  23
-4091.16
  33
0.00
  0
3DFACE
  8
mg_to_dxf
  62
250
  10
1054.38
  20
-4218.16
  30
0.00
  11
1054.38
  21
-4218.16
  31
0.00
  12
1047.50
  22
-4091.16
  32
0.00
  13
1027.13
  23
-4112.16
  33
0.00
  0
3DFACE
  8
mg_to_dxf
  62
250
  10
1093.88
  20
-4214.16
  30
0.00
  11
1093.88
  21
-4214.16
  31
0.00
  12
1047.50
  22
-4091.16
  32
0.00
  13
1054.38
  23
-4218.16
  33
0.00
  0
3DFACE
  8
mg_to_dxf
  62
250
  10
1093.88
  20
-4214.16
  30
0.00
  11
1093.88
  21
-4214.16
  31
0.00
  12
1104.25
  22
-4080.16
  32
0.00
  13
1047.50
  23
-4091.16
  33
0.00
  0
3DFACE
  8
mg_to_dxf
  62
250
  10
1129.63
  20
-4194.16
  30
0.00
  11
1129.63
  21
-4194.16
  31
0.00
  12
1104.25
  22
-4080.16
  32
0.00
  13
1093.88
  23
-4214.16
  33
0.00
  0
3DFACE
  8
mg_to_dxf
  62
250
  10
1129.63
  20
-4194.16
  30
0.00
  11
1129.63
  21
-4194.16
  31
0.00
  12
1121.25
  22
-4080.16
  32
0.00
  13
1104.25
  23
-4080.16
  33
0.00
  0
3DFACE
  8
mg_to_dxf
  62
250
  10
1054.38
  20
-4218.16
  30
0.00
  11
1054.38
  21
-4218.16
  31
0.00
  12
1013.13
  22
-4257.16
  32
0.00
  13
1057.25
  23
-4255.16
  33
0.00
  0
3DFACE
  8
mg_to_dxf
  62
250
  10
1054.38
  20
-4218.16
  30
0.00
  11
1054.38
  21
-4218.16
  31
0.00
  12
929.50
  22
-4221.16
  32
0.00
  13
1013.13
  23
-4257.16
  33
0.00
  0
3DFACE
  8
mg_to_dxf
  62
250
  10
1027.13
  20
-4112.16
  30
0.00
  11
1027.13
  21
-4112.16
  31
0.00
  12
929.50
  22
-4221.16
  32
0.00
  13
1054.38
  23
-4218.16
  33
0.00
  0
3DFACE
  8
mg_to_dxf
  62
250
  10
1027.13
  20
-4112.16
  30
0.00
  11
1027.13
  21
-4112.16
  31
0.00
  12
921.88
  22
-4118.16
  32
0.00
  13
929.50
  23
-4221.16
  33
0.00
  0
3DFACE
  8
mg_to_dxf
  62
250
  10
921.88
  20
-4118.16
  30
0.00
  11
855.25
  21
-4123.16
  31
0.00
  12
863.00
  22
-4225.16
  32
0.00
  13
929.50
  23
-4221.16
  33
0.00
  0
3DFACE
  8
mg_to_dxf
  62
250
  10
822.13
  20
-4125.16
  30
0.00
  11
822.13
  21
-4125.16
  31
0.00
  12
848.00
  22
-4114.16
  32
0.00
  13
827.88
  23
-4115.16
  33
0.00
  0
3DFACE
  8
mg_to_dxf
  62
250
  10
822.13
  20
-4125.16
  30
0.00
  11
822.13
  21
-4125.16
  31
0.00
  12
855.25
  22
-4123.16
  32
0.00
  13
848.00
  23
-4114.16
  33
0.00
  0
3DFACE
  8
mg_to_dxf
  62
250
  10
830.00
  20
-4228.16
  30
0.00
  11
830.00
  21
-4228.16
  31
0.00
  12
855.25
  22
-4123.16
  32
0.00
  13
822.13
  23
-4125.16
  33
0.00
  0
3DFACE
  8
mg_to_dxf
  62
250
  10
830.00
  20
-4228.16
  30
0.00
  11
830.00
  21
-4228.16
  31
0.00
  12
863.00
  22
-4225.16
  32
0.00
  13
855.25
  23
-4123.16
  33
0.00
  0
3DFACE
  8
mg_to_dxf
  62
250
  10
742.00
  20
-4125.16
  30
0.00
  11
726.00
  21
-4111.16
  31
0.00
  12
735.63
  22
-4252.16
  32
0.00
  13
744.88
  23
-4239.16
  33
0.00
  0
3DFACE
  8
mg_to_dxf
  62
250
  10
844.03
  20
-4055.16
  30
0.00
  11
824.50
  21
-3765.16
  31
0.00
  12
803.75
  22
-3765.16
  32
0.00
  13
827.88
  23
-4115.16
  33
0.00
  0
3DFACE
  8
mg_to_dxf
  62
250
  10
1195.88
  20
-3726.16
  30
0.00
  11
1234.25
  21
-3720.16
  31
0.00
  12
1193.75
  22
-3680.16
  32
0.00
  13
1193.75
  23
-3680.16
  33
0.00
  0
3DFACE
  8
mg_to_dxf
  62
250
  10
1195.88
  20
-3726.16
  30
0.00
  11
1193.75
  21
-3680.16
  31
0.00
  12
819.13
  22
-3706.16
  32
0.00
  13
821.75
  23
-3735.16
  33
0.00
  0
3DFACE
  8
mg_to_dxf
  62
250
  10
1164.13
  20
-3811.16
  30
0.00
  11
1195.88
  21
-3726.16
  31
0.00
  12
821.75
  22
-3735.16
  32
0.00
  13
823.25
  23
-3751.16
  33
0.00
  0
3DFACE
  8
mg_to_dxf
  62
250
  10
1123.13
  20
-3853.16
  30
0.00
  11
1164.13
  21
-3811.16
  31
0.00
  12
823.25
  22
-3751.16
  32
0.00
  13
824.50
  23
-3765.16
  33
0.00
  0
3DFACE
  8
mg_to_dxf
  62
250
  10
824.50
  20
-3765.16
  30
0.00
  11
844.03
  21
-4055.16
  31
0.00
  12
1135.38
  22
-4034.16
  32
0.00
  13
1123.13
  23
-3853.16
  33
0.00
  0
3DFACE
  8
mg_to_dxf
  62
250
  10
1234.25
  20
-3720.16
  30
0.00
  11
1232.13
  21
-3634.16
  31
0.00
  12
1192.38
  22
-3666.16
  32
0.00
  13
1193.75
  23
-3680.16
  33
0.00
  0
3DFACE
  8
mg_to_dxf
  62
250
  10
1481.13
  20
-3662.16
  30
0.00
  11
1481.13
  21
-3662.16
  31
0.00
  12
1445.63
  22
-3531.16
  32
0.00
  13
1450.63
  23
-3642.16
  33
0.00
  0
3DFACE
  8
mg_to_dxf
  62
250
  10
2024.75
  20
-3501.16
  30
0.00
  11
2024.75
  21
-3501.16
  31
0.00
  12
1445.63
  22
-3531.16
  32
0.00
  13
1481.13
  23
-3662.16
  33
0.00
  0
3DFACE
  8
mg_to_dxf
  62
250
  10
2024.75
  20
-3501.16
  30
0.00
  11
2024.75
  21
-3501.16
  31
0.00
  12
2019.63
  22
-3472.16
  32
0.00
  13
1445.63
  23
-3531.16
  33
0.00
  0
3DFACE
  8
mg_to_dxf
  62
250
  10
2285.50
  20
-3506.16
  30
0.00
  11
2279.25
  21
-3459.16
  31
0.00
  12
2233.50
  22
-3486.16
  32
0.00
  13
2233.50
  23
-3486.16
  33
0.00
  0
3DFACE
  8
mg_to_dxf
  62
250
  10
2303.75
  20
-3635.16
  30
0.00
  11
2303.75
  21
-3635.16
  31
0.00
  12
2248.75
  22
-3702.16
  32
0.00
  13
2288.88
  23
-3675.16
  33
0.00
  0
3DFACE
  8
mg_to_dxf
  62
250
  10
2303.75
  20
-3635.16
  30
0.00
  11
2303.75
  21
-3635.16
  31
0.00
  12
2294.50
  22
-3601.16
  32
0.00
  13
2248.75
  23
-3702.16
  33
0.00
  0
3DFACE
  8
mg_to_dxf
  62
250
  10
2294.50
  20
-3601.16
  30
0.00
  11
2294.50
  21
-3601.16
  31
0.00
  12
2210.25
  22
-3721.16
  32
0.00
  13
2248.75
  23
-3702.16
  33
0.00
  0
3DFACE
  8
mg_to_dxf
  62
250
  10
2294.50
  20
-3601.16
  30
0.00
  11
2294.50
  21
-3601.16
  31
0.00
  12
2125.25
  22
-3733.16
  32
0.00
  13
2210.25
  23
-3721.16
  33
0.00
  0
3DFACE
  8
mg_to_dxf
  62
250
  10
2046.25
  20
-3702.16
  30
0.00
  11
2046.25
  21
-3702.16
  31
0.00
  12
2125.25
  22
-3733.16
  32
0.00
  13
2294.50
  23
-3601.16
  33
0.00
  0
3DFACE
  8
mg_to_dxf
  62
250
  10
2046.25
  20
-3702.16
  30
0.00
  11
2046.25
  21
-3702.16
  31
0.00
  12
2059.75
  22
-3737.16
  32
0.00
  13
2125.25
  23
-3733.16
  33
0.00
  0
3DFACE
  8
mg_to_dxf
  62
250
  10
2046.25
  20
-3702.16
  30
0.00
  11
2046.25
  21
-3702.16
  31
0.00
  12
2233.50
  22
-3486.16
  32
0.00
  13
2024.75
  23
-3501.16
  33
0.00
  0
3DFACE
  8
mg_to_dxf
  62
250
  10
2294.50
  20
-3601.16
  30
0.00
  11
2294.50
  21
-3601.16
  31
0.00
  12
2233.50
  22
-3486.16
  32
0.00
  13
2046.25
  23
-3702.16
  33
0.00
  0
3DFACE
  8
mg_to_dxf
  62
250
  10
2294.50
  20
-3601.16
  30
0.00
  11
2294.50
  21
-3601.16
  31
0.00
  12
2288.00
  22
-3546.16
  32
0.00
  13
2233.50
  23
-3486.16
  33
0.00
  0
3DFACE
  8
mg_to_dxf
  62
250
  10
2288.00
  20
-3546.16
  30
0.00
  11
2285.50
  21
-3506.16
  31
0.00
  12
2233.50
  22
-3486.16
  32
0.00
  13
2233.50
  23
-3486.16
  33
0.00
  0
3DFACE
  8
mg_to_dxf
  62
250
  10
2279.25
  20
-3459.16
  30
0.00
  11
2274.63
  21
-3384.16
  31
0.00
  12
2225.13
  22
-3404.16
  32
0.00
  13
2233.50
  23
-3486.16
  33
0.00
  0
3DFACE
  8
mg_to_dxf
  62
250
  10
1772.63
  20
-3737.16
  30
0.00
  11
1772.63
  21
-3737.16
  31
0.00
  12
1565.75
  22
-3724.16
  32
0.00
  13
1614.00
  23
-3743.16
  33
0.00
  0
3DFACE
  8
mg_to_dxf
  62
250
  10
2046.25
  20
-3702.16
  30
0.00
  11
2046.25
  21
-3702.16
  31
0.00
  12
2024.75
  22
-3501.16
  32
0.00
  13
1772.63
  23
-3737.16
  33
0.00
  0
3DFACE
  8
mg_to_dxf
  62
250
  10
1772.63
  20
-3737.16
  30
0.00
  11
1772.63
  21
-3737.16
  31
0.00
  12
2024.75
  22
-3501.16
  32
0.00
  13
1565.75
  23
-3724.16
  33
0.00
  0
3DFACE
  8
mg_to_dxf
  62
250
  10
2024.75
  20
-3501.16
  30
0.00
  11
2024.75
  21
-3501.16
  31
0.00
  12
1481.13
  22
-3662.16
  32
0.00
  13
1565.75
  23
-3724.16
  33
0.00
  0
3DFACE
  8
mg_to_dxf
  62
250
  10
1565.75
  20
-3724.16
  30
0.00
  11
1565.75
  21
-3724.16
  31
0.00
  12
1481.13
  22
-3662.16
  32
0.00
  13
1498.75
  23
-3688.16
  33
0.00
  0
3DFACE
  8
mg_to_dxf
  62
250
  10
1325.38
  20
-2807.16
  30
0.00
  11
1316.25
  21
-2786.16
  31
0.00
  12
800.75
  22
-3034.16
  32
0.00
  13
800.75
  23
-3034.16
  33
0.00
  0
3DFACE
  8
mg_to_dxf
  62
250
  10
2229.13
  20
-2853.16
  30
0.00
  11
2225.63
  21
-2831.16
  31
0.00
  12
2156.13
  22
-2773.16
  32
0.00
  13
2137.25
  23
-2768.16
  33
0.00
  0
3DFACE
  8
mg_to_dxf
  62
250
  10
2251.00
  20
-2916.16
  30
0.00
  11
2246.88
  21
-2867.16
  31
0.00
  12
2229.13
  22
-2853.16
  32
0.00
  13
2229.13
  23
-2853.16
  33
0.00
  0
3DFACE
  8
mg_to_dxf
  62
250
  10
2270.25
  20
-3006.16
  30
0.00
  11
2262.13
  21
-2925.16
  31
0.00
  12
2251.00
  22
-2916.16
  32
0.00
  13
2251.00
  23
-2916.16
  33
0.00
  0
3DFACE
  8
mg_to_dxf
  62
250
  10
2200.50
  20
-3164.16
  30
0.00
  11
2264.00
  21
-3094.16
  31
0.00
  12
2260.25
  22
-3050.16
  32
0.00
  13
2260.25
  23
-3050.16
  33
0.00
  0
3DFACE
  8
mg_to_dxf
  62
250
  10
756.88
  20
-2543.16
  30
0.00
  11
756.88
  21
-2543.16
  31
0.00
  12
800.75
  22
-3034.16
  32
0.00
  13
1251.00
  23
-2508.16
  33
0.00
  0
3DFACE
  8
mg_to_dxf
  62
250
  10
800.75
  20
-3034.16
  30
0.00
  11
800.75
  21
-3034.16
  31
0.00
  12
1316.25
  22
-2786.16
  32
0.00
  13
1251.00
  23
-2508.16
  33
0.00
  0
3DFACE
  8
mg_to_dxf
  62
250
  10
1251.00
  20
-2508.16
  30
0.00
  11
1251.00
  21
-2508.16
  31
0.00
  12
1297.38
  22
-2529.16
  32
0.00
  13
1281.00
  23
-2511.16
  33
0.00
  0
3DFACE
  8
mg_to_dxf
  62
250
  10
1316.25
  20
-2786.16
  30
0.00
  11
1316.25
  21
-2786.16
  31
0.00
  12
1297.38
  22
-2529.16
  32
0.00
  13
1251.00
  23
-2508.16
  33
0.00
  0
3DFACE
  8
mg_to_dxf
  62
250
  10
1281.00
  20
-2511.16
  30
0.00
  11
1281.00
  21
-2511.16
  31
0.00
  12
1297.38
  22
-2529.16
  32
0.00
  13
1293.63
  23
-2515.16
  33
0.00
  0
3DFACE
  8
mg_to_dxf
  62
250
  10
2287.25
  20
-3185.16
  30
0.00
  11
2309.25
  21
-3155.16
  31
0.00
  12
2285.63
  22
-3145.16
  32
0.00
  13
2263.50
  23
-3175.16
  33
0.00
  0
3DFACE
  8
mg_to_dxf
  62
250
  10
2287.50
  20
-3291.16
  30
0.00
  11
2307.88
  21
-3194.16
  31
0.00
  12
2287.25
  22
-3185.16
  32
0.00
  13
2287.25
  23
-3185.16
  33
0.00
  0
3DFACE
  8
mg_to_dxf
  62
250
  10
2287.50
  20
-3291.16
  30
0.00
  11
2287.50
  21
-3291.16
  31
0.00
  12
2225.13
  22
-3404.16
  32
0.00
  13
2274.63
  23
-3384.16
  33
0.00
  0
3DFACE
  8
mg_to_dxf
  62
250
  10
2287.50
  20
-3291.16
  30
0.00
  11
2287.50
  21
-3291.16
  31
0.00
  12
2202.14
  22
-3180.16
  32
0.00
  13
2225.13
  23
-3404.16
  33
0.00
  0
3DFACE
  8
mg_to_dxf
  62
250
  10
2287.25
  20
-3185.16
  30
0.00
  11
2287.25
  21
-3185.16
  31
0.00
  12
2202.14
  22
-3180.16
  32
0.00
  13
2287.50
  23
-3291.16
  33
0.00
  0
3DFACE
  8
mg_to_dxf
  62
250
  10
2287.25
  20
-3185.16
  30
0.00
  11
2287.25
  21
-3185.16
  31
0.00
  12
2263.50
  22
-3175.16
  32
0.00
  13
2202.14
  23
-3180.16
  33
0.00
  0
3DFACE
  8
mg_to_dxf
  62
250
  10
1129.63
  20
-4194.16
  30
0.00
  11
1129.63
  21
-4194.16
  31
0.00
  12
1155.13
  22
-4225.16
  32
0.00
  13
1152.13
  23
-4194.16
  33
0.00
  0
3DFACE
  8
mg_to_dxf
  62
250
  10
1129.63
  20
-4194.16
  30
0.00
  11
1129.63
  21
-4194.16
  31
0.00
  12
1149.25
  22
-4234.16
  32
0.00
  13
1155.13
  23
-4225.16
  33
0.00
  0
3DFACE
  8
mg_to_dxf
  62
250
  10
1093.88
  20
-4214.16
  30
0.00
  11
1093.88
  21
-4214.16
  31
0.00
  12
1149.25
  22
-4234.16
  32
0.00
  13
1129.63
  23
-4194.16
  33
0.00
  0
3DFACE
  8
mg_to_dxf
  62
250
  10
1093.88
  20
-4214.16
  30
0.00
  11
1093.88
  21
-4214.16
  31
0.00
  12
1096.88
  22
-4238.16
  32
0.00
  13
1149.25
  23
-4234.16
  33
0.00
  0
3DFACE
  8
mg_to_dxf
  62
250
  10
758.00
  20
-4232.16
  30
0.00
  11
830.00
  21
-4228.16
  31
0.00
  12
822.13
  22
-4125.16
  32
0.00
  13
762.38
  23
-4130.16
  33
0.00
  0
3DFACE
  8
mg_to_dxf
  62
250
  10
744.88
  20
-4239.16
  30
0.00
  11
758.00
  21
-4232.16
  31
0.00
  12
762.38
  22
-4130.16
  32
0.00
  13
742.00
  23
-4125.16
  33
0.00
  0
3DFACE
  8
mg_to_dxf
  62
250
  10
1187.63
  20
-2321.16
  30
0.00
  11
1271.25
  21
-2306.16
  31
0.00
  12
1269.75
  22
-2300.16
  32
0.00
  13
1269.75
  23
-2300.16
  33
0.00
  0
3DFACE
  8
mg_to_dxf
  62
250
  10
1049.50
  20
-2287.16
  30
0.00
  11
1049.50
  21
-2287.16
  31
0.00
  12
1035.63
  22
-2167.16
  32
0.00
  13
1033.88
  23
-2244.16
  33
0.00
  0
3DFACE
  8
mg_to_dxf
  62
250
  10
1187.63
  20
-2321.16
  30
0.00
  11
1187.63
  21
-2321.16
  31
0.00
  12
1035.63
  22
-2167.16
  32
0.00
  13
1049.50
  23
-2287.16
  33
0.00
  0
3DFACE
  8
mg_to_dxf
  62
250
  10
1187.63
  20
-2321.16
  30
0.00
  11
1187.63
  21
-2321.16
  31
0.00
  12
1108.13
  22
-2146.16
  32
0.00
  13
1035.63
  23
-2167.16
  33
0.00
  0
3DFACE
  8
mg_to_dxf
  62
250
  10
1108.13
  20
-2146.16
  30
0.00
  11
1108.13
  21
-2146.16
  31
0.00
  12
1047.13
  22
-2134.16
  32
0.00
  13
1035.63
  23
-2167.16
  33
0.00
  0
3DFACE
  8
mg_to_dxf
  62
250
  10
1108.13
  20
-2146.16
  30
0.00
  11
1108.13
  21
-2146.16
  31
0.00
  12
1064.63
  22
-2097.16
  32
0.00
  13
1047.13
  23
-2134.16
  33
0.00
  0
3DFACE
  8
mg_to_dxf
  62
250
  10
1108.13
  20
-2146.16
  30
0.00
  11
1108.13
  21
-2146.16
  31
0.00
  12
1240.00
  22
-2228.16
  32
0.00
  13
1141.25
  23
-2115.16
  33
0.00
  0
3DFACE
  8
mg_to_dxf
  62
250
  10
1108.13
  20
-2146.16
  30
0.00
  11
1108.13
  21
-2146.16
  31
0.00
  12
1187.63
  22
-2321.16
  32
0.00
  13
1240.00
  23
-2228.16
  33
0.00
  0
3DFACE
  8
mg_to_dxf
  62
250
  10
1187.63
  20
-2321.16
  30
0.00
  11
1187.63
  21
-2321.16
  31
0.00
  12
1261.63
  22
-2266.16
  32
0.00
  13
1240.00
  23
-2228.16
  33
0.00
  0
3DFACE
  8
mg_to_dxf
  62
250
  10
1187.63
  20
-2321.16
  30
0.00
  11
1187.63
  21
-2321.16
  31
0.00
  12
1269.75
  22
-2300.16
  32
0.00
  13
1261.63
  23
-2266.16
  33
0.00
  0
3DFACE
  8
mg_to_dxf
  62
250
  10
1280.75
  20
-1864.16
  30
0.00
  11
1244.88
  21
-1822.16
  31
0.00
  12
1050.88
  22
-1985.16
  32
0.00
  13
1050.88
  23
-1985.16
  33
0.00
  0
3DFACE
  8
mg_to_dxf
  62
250
  10
1248.88
  20
-2210.16
  30
0.00
  11
1248.88
  21
-2210.16
  31
0.00
  12
1280.75
  22
-1864.16
  32
0.00
  13
1050.88
  23
-1985.16
  33
0.00
  0
3DFACE
  8
mg_to_dxf
  62
250
  10
1442.88
  20
-2128.16
  30
0.00
  11
1442.88
  21
-2128.16
  31
0.00
  12
1280.75
  22
-1864.16
  32
0.00
  13
1248.88
  23
-2210.16
  33
0.00
  0
3DFACE
  8
mg_to_dxf
  62
250
  10
1442.88
  20
-2128.16
  30
0.00
  11
1442.88
  21
-2128.16
  31
0.00
  12
1456.88
  22
-2113.16
  32
0.00
  13
1280.75
  23
-1864.16
  33
0.00
  0
3DFACE
  8
mg_to_dxf
  62
250
  10
1456.88
  20
-2113.16
  30
0.00
  11
1474.75
  21
-2093.16
  31
0.00
  12
1280.75
  22
-1864.16
  32
0.00
  13
1280.75
  23
-1864.16
  33
0.00
  0
3DFACE
  8
mg_to_dxf
  62
250
  10
1244.88
  20
-1822.16
  30
0.00
  11
1211.25
  21
-1784.16
  31
0.00
  12
1020.00
  22
-1951.16
  32
0.00
  13
1050.88
  23
-1985.16
  33
0.00
  0
3DFACE
  8
mg_to_dxf
  62
250
  10
1442.88
  20
-2128.16
  30
0.00
  11
1442.88
  21
-2128.16
  31
0.00
  12
1248.88
  22
-2210.16
  32
0.00
  13
1332.00
  23
-2229.16
  33
0.00
  0
3DFACE
  8
mg_to_dxf
  62
250
  10
1248.88
  20
-2210.16
  30
0.00
  11
1248.88
  21
-2210.16
  31
0.00
  12
1302.75
  22
-2237.16
  32
0.00
  13
1332.00
  23
-2229.16
  33
0.00
  0
3DFACE
  8
mg_to_dxf
  62
250
  10
1248.88
  20
-2210.16
  30
0.00
  11
1248.88
  21
-2210.16
  31
0.00
  12
1267.13
  22
-2231.16
  32
0.00
  13
1302.75
  23
-2237.16
  33
0.00
  0
3DFACE
  8
mg_to_dxf
  62
250
  10
2005.25
  20
-1081.16
  30
0.00
  11
1690.38
  21
-1357.16
  31
0.00
  12
1727.94
  22
-1399.20
  32
0.00
  13
2084.88
  23
-1173.16
  33
0.00
  0
3DFACE
  8
mg_to_dxf
  62
250
  10
2264.13
  20
-1304.16
  30
0.00
  11
2120.63
  21
-1140.16
  31
0.00
  12
2084.88
  22
-1173.16
  32
0.00
  13
2106.39
  23
-1448.36
  33
0.00
  0
3DFACE
  8
mg_to_dxf
  62
250
  10
1972.50
  20
-1400.16
  30
0.00
  11
2057.38
  21
-1493.16
  31
0.00
  12
2106.39
  22
-1448.36
  32
0.00
  13
2084.88
  23
-1173.16
  33
0.00
  0
3DFACE
  8
mg_to_dxf
  62
250
  10
1727.94
  20
-1399.20
  30
0.00
  11
1833.38
  21
-1517.16
  31
0.00
  12
1849.75
  22
-1503.16
  32
0.00
  13
1849.75
  23
-1503.16
  33
0.00
  0
3DFACE
  8
mg_to_dxf
  62
250
  10
1849.75
  20
-1503.16
  30
0.00
  11
1972.50
  21
-1400.16
  31
0.00
  12
2084.88
  22
-1173.16
  32
0.00
  13
1727.94
  23
-1399.20
  33
0.00
  0
3DFACE
  8
mg_to_dxf
  62
250
  10
1635.00
  20
-1556.16
  30
0.00
  11
1635.00
  21
-1556.16
  31
0.00
  12
1612.63
  22
-1541.16
  32
0.00
  13
1622.00
  23
-1552.16
  33
0.00
  0
3DFACE
  8
mg_to_dxf
  62
250
  10
1635.00
  20
-1556.16
  30
0.00
  11
1635.00
  21
-1556.16
  31
0.00
  12
1613.25
  22
-1522.16
  32
0.00
  13
1612.63
  23
-1541.16
  33
0.00
  0
3DFACE
  8
mg_to_dxf
  62
250
  10
1728.00
  20
-1399.16
  30
0.00
  11
1728.00
  21
-1399.16
  31
0.00
  12
1626.25
  22
-1489.16
  32
0.00
  13
1635.00
  23
-1556.16
  33
0.00
  0
3DFACE
  8
mg_to_dxf
  62
250
  10
1635.00
  20
-1556.16
  30
0.00
  11
1635.00
  21
-1556.16
  31
0.00
  12
1626.25
  22
-1489.16
  32
0.00
  13
1613.25
  23
-1522.16
  33
0.00
  0
3DFACE
  8
mg_to_dxf
  62
250
  10
1728.00
  20
-1399.16
  30
0.00
  11
1635.00
  21
-1556.16
  31
0.00
  12
1727.00
  22
-1580.16
  32
0.00
  13
1745.38
  23
-1571.16
  33
0.00
  0
3DFACE
  8
mg_to_dxf
  62
250
  10
1833.38
  20
-1517.16
  30
0.00
  11
1728.00
  21
-1399.16
  31
0.00
  12
1745.38
  22
-1571.16
  32
0.00
  13
1773.88
  23
-1575.16
  33
0.00
  0
3DFACE
  8
mg_to_dxf
  62
250
  10
2110.13
  20
-1461.16
  30
0.00
  11
2110.13
  21
-1461.16
  31
0.00
  12
2270.63
  22
-1323.16
  32
0.00
  13
2106.39
  23
-1448.36
  33
0.00
  0
3DFACE
  8
mg_to_dxf
  62
250
  10
2273.00
  20
-1352.16
  30
0.00
  11
2273.00
  21
-1352.16
  31
0.00
  12
2270.63
  22
-1323.16
  32
0.00
  13
2110.13
  23
-1461.16
  33
0.00
  0
3DFACE
  8
mg_to_dxf
  62
250
  10
2106.39
  20
-1448.36
  30
0.00
  11
2106.39
  21
-1448.36
  31
0.00
  12
2270.63
  22
-1323.16
  32
0.00
  13
2264.13
  23
-1304.16
  33
0.00
  0
3DFACE
  8
mg_to_dxf
  62
250
  10
2273.00
  20
-1352.16
  30
0.00
  11
2273.00
  21
-1352.16
  31
0.00
  12
2114.50
  22
-1496.16
  32
0.00
  13
2269.13
  23
-1379.16
  33
0.00
  0
3DFACE
  8
mg_to_dxf
  62
250
  10
2269.13
  20
-1379.16
  30
0.00
  11
2269.13
  21
-1379.16
  31
0.00
  12
2114.50
  22
-1496.16
  32
0.00
  13
2125.88
  23
-1511.16
  33
0.00
  0
3DFACE
  8
mg_to_dxf
  62
250
  10
2110.13
  20
-1461.16
  30
0.00
  11
2110.13
  21
-1461.16
  31
0.00
  12
2114.50
  22
-1496.16
  32
0.00
  13
2273.00
  23
-1352.16
  33
0.00
  0
3DFACE
  8
mg_to_dxf
  62
250
  10
2110.13
  20
-1461.16
  30
0.00
  11
2110.13
  21
-1461.16
  31
0.00
  12
2104.38
  22
-1471.16
  32
0.00
  13
2114.50
  23
-1496.16
  33
0.00
  0
3DFACE
  8
mg_to_dxf
  62
250
  10
2033.63
  20
-1569.16
  30
0.00
  11
2114.50
  21
-1496.16
  31
0.00
  12
2104.38
  22
-1471.16
  32
0.00
  13
2012.63
  23
-1551.16
  33
0.00
  0
3DFACE
  8
mg_to_dxf
  62
250
  10
2025.88
  20
-1589.16
  30
0.00
  11
2033.63
  21
-1569.16
  31
0.00
  12
2012.63
  22
-1551.16
  32
0.00
  13
1991.75
  23
-1564.16
  33
0.00
  0
3DFACE
  8
mg_to_dxf
  62
250
  10
2006.50
  20
-1637.16
  30
0.00
  11
2006.50
  21
-1637.16
  31
0.00
  12
1991.75
  22
-1564.16
  32
0.00
  13
1956.88
  23
-1568.16
  33
0.00
  0
3DFACE
  8
mg_to_dxf
  62
250
  10
2032.25
  20
-1610.16
  30
0.00
  11
2032.25
  21
-1610.16
  31
0.00
  12
1991.75
  22
-1564.16
  32
0.00
  13
2006.50
  23
-1637.16
  33
0.00
  0
3DFACE
  8
mg_to_dxf
  62
250
  10
2032.25
  20
-1610.16
  30
0.00
  11
2032.25
  21
-1610.16
  31
0.00
  12
2025.88
  22
-1589.16
  32
0.00
  13
1991.75
  23
-1564.16
  33
0.00
  0
3DFACE
  8
mg_to_dxf
  62
250
  10
2048.00
  20
-1685.16
  30
0.00
  11
2046.63
  21
-1700.16
  31
0.00
  12
2087.88
  22
-1633.16
  32
0.00
  13
2078.75
  23
-1642.16
  33
0.00
  0
3DFACE
  8
mg_to_dxf
  62
250
  10
2066.63
  20
-1645.16
  30
0.00
  11
2032.25
  21
-1610.16
  31
0.00
  12
2006.50
  22
-1637.16
  32
0.00
  13
2043.63
  23
-1672.16
  33
0.00
  0
3DFACE
  8
mg_to_dxf
  62
250
  10
2043.63
  20
-1672.16
  30
0.00
  11
2046.13
  21
-1676.16
  31
0.00
  12
2072.25
  22
-1644.16
  32
0.00
  13
2066.63
  23
-1645.16
  33
0.00
  0
3DFACE
  8
mg_to_dxf
  62
250
  10
2046.13
  20
-1676.16
  30
0.00
  11
2048.00
  21
-1685.16
  31
0.00
  12
2078.75
  22
-1642.16
  32
0.00
  13
2072.25
  23
-1644.16
  33
0.00
  0
3DFACE
  8
mg_to_dxf
  62
250
  10
2002.38
  20
-1688.16
  30
0.00
  11
2006.50
  21
-1637.16
  31
0.00
  12
1956.88
  22
-1568.16
  32
0.00
  13
1940.88
  23
-1563.16
  33
0.00
  0
3DFACE
  8
mg_to_dxf
  62
250
  10
1849.75
  20
-1503.16
  30
0.00
  11
1849.75
  21
-1503.16
  31
0.00
  12
1833.38
  22
-1517.16
  32
0.00
  13
1892.13
  23
-1524.16
  33
0.00
  0
3DFACE
  8
mg_to_dxf
  62
250
  10
1833.38
  20
-1517.16
  30
0.00
  11
1833.38
  21
-1517.16
  31
0.00
  12
1920.25
  22
-1544.16
  32
0.00
  13
1892.13
  23
-1524.16
  33
0.00
  0
3DFACE
  8
mg_to_dxf
  62
250
  10
1833.38
  20
-1517.16
  30
0.00
  11
1833.38
  21
-1517.16
  31
0.00
  12
1789.13
  22
-1595.16
  32
0.00
  13
1920.25
  23
-1544.16
  33
0.00
  0
3DFACE
  8
mg_to_dxf
  62
250
  10
1789.13
  20
-1595.16
  30
0.00
  11
1789.13
  21
-1595.16
  31
0.00
  12
1940.88
  22
-1563.16
  32
0.00
  13
1920.25
  23
-1544.16
  33
0.00
  0
3DFACE
  8
mg_to_dxf
  62
250
  10
1789.13
  20
-1595.16
  30
0.00
  11
1789.13
  21
-1595.16
  31
0.00
  12
2002.38
  22
-1688.16
  32
0.00
  13
1940.88
  23
-1563.16
  33
0.00
  0
3DFACE
  8
mg_to_dxf
  62
250
  10
1991.25
  20
-1775.16
  30
0.00
  11
1991.25
  21
-1775.16
  31
0.00
  12
2002.38
  22
-1688.16
  32
0.00
  13
1789.13
  23
-1595.16
  33
0.00
  0
3DFACE
  8
mg_to_dxf
  62
250
  10
1991.25
  20
-1775.16
  30
0.00
  11
1991.25
  21
-1775.16
  31
0.00
  12
2006.25
  22
-1738.16
  32
0.00
  13
2002.38
  23
-1688.16
  33
0.00
  0
3DFACE
  8
mg_to_dxf
  62
250
  10
1978.25
  20
-1815.16
  30
0.00
  11
1978.25
  21
-1815.16
  31
0.00
  12
1748.63
  22
-1824.16
  32
0.00
  13
1960.75
  23
-1895.16
  33
0.00
  0
3DFACE
  8
mg_to_dxf
  62
250
  10
1748.63
  20
-1824.16
  30
0.00
  11
1748.63
  21
-1824.16
  31
0.00
  12
1944.13
  22
-1947.16
  32
0.00
  13
1960.75
  23
-1895.16
  33
0.00
  0
3DFACE
  8
mg_to_dxf
  62
250
  10
1748.63
  20
-1824.16
  30
0.00
  11
1748.63
  21
-1824.16
  31
0.00
  12
1920.38
  22
-1989.16
  32
0.00
  13
1944.13
  23
-1947.16
  33
0.00
  0
3DFACE
  8
mg_to_dxf
  62
250
  10
1849.88
  20
-2055.16
  30
0.00
  11
1849.88
  21
-2055.16
  31
0.00
  12
1920.38
  22
-1989.16
  32
0.00
  13
1748.63
  23
-1824.16
  33
0.00
  0
3DFACE
  8
mg_to_dxf
  62
250
  10
1849.88
  20
-2055.16
  30
0.00
  11
1849.88
  21
-2055.16
  31
0.00
  12
1890.25
  22
-2027.16
  32
0.00
  13
1920.38
  23
-1989.16
  33
0.00
  0
3DFACE
  8
mg_to_dxf
  62
250
  10
1663.88
  20
-1899.16
  30
0.00
  11
1648.25
  21
-1903.16
  31
0.00
  12
1641.50
  22
-2036.16
  32
0.00
  13
1649.75
  23
-2047.16
  33
0.00
  0
3DFACE
  8
mg_to_dxf
  62
250
  10
1699.63
  20
-2106.16
  30
0.00
  11
1663.88
  21
-1899.16
  31
0.00
  12
1649.75
  22
-2047.16
  32
0.00
  13
1649.75
  23
-2047.16
  33
0.00
  0
3DFACE
  8
mg_to_dxf
  62
250
  10
1649.75
  20
-2047.16
  30
0.00
  11
1648.63
  21
-2077.16
  31
0.00
  12
1681.25
  22
-2107.16
  32
0.00
  13
1699.63
  23
-2106.16
  33
0.00
  0
3DFACE
  8
mg_to_dxf
  62
250
  10
1685.75
  20
-2122.16
  30
0.00
  11
1681.25
  21
-2107.16
  31
0.00
  12
1648.63
  22
-2077.16
  32
0.00
  13
1652.63
  23
-2117.16
  33
0.00
  0
3DFACE
  8
mg_to_dxf
  62
250
  10
1383.50
  20
-1972.16
  30
0.00
  11
1641.50
  21
-2036.16
  31
0.00
  12
1648.25
  22
-1903.16
  32
0.00
  13
1393.25
  23
-1845.16
  33
0.00
  0
3DFACE
  8
mg_to_dxf
  62
250
  10
1393.25
  20
-1845.16
  30
0.00
  11
1373.38
  21
-1835.16
  31
0.00
  12
1383.50
  22
-1972.16
  32
0.00
  13
1383.50
  23
-1972.16
  33
0.00
  0
3DFACE
  8
mg_to_dxf
  62
250
  10
1748.63
  20
-1824.16
  30
0.00
  11
1748.63
  21
-1824.16
  31
0.00
  12
1797.75
  22
-2089.16
  32
0.00
  13
1849.88
  23
-2055.16
  33
0.00
  0
3DFACE
  8
mg_to_dxf
  62
250
  10
1663.88
  20
-1899.16
  30
0.00
  11
1663.88
  21
-1899.16
  31
0.00
  12
1797.75
  22
-2089.16
  32
0.00
  13
1748.63
  23
-1824.16
  33
0.00
  0
3DFACE
  8
mg_to_dxf
  62
250
  10
1663.88
  20
-1899.16
  30
0.00
  11
1663.88
  21
-1899.16
  31
0.00
  12
1738.13
  22
-2119.16
  32
0.00
  13
1797.75
  23
-2089.16
  33
0.00
  0
3DFACE
  8
mg_to_dxf
  62
250
  10
1699.63
  20
-2106.16
  30
0.00
  11
1699.63
  21
-2106.16
  31
0.00
  12
1738.13
  22
-2119.16
  32
0.00
  13
1663.88
  23
-1899.16
  33
0.00
  0
3DFACE
  8
mg_to_dxf
  62
250
  10
1699.63
  20
-2106.16
  30
0.00
  11
1699.63
  21
-2106.16
  31
0.00
  12
1714.13
  22
-2118.16
  32
0.00
  13
1738.13
  23
-2119.16
  33
0.00
  0
3DFACE
  8
mg_to_dxf
  62
250
  10
1978.25
  20
-1815.16
  30
0.00
  11
1991.25
  21
-1775.16
  31
0.00
  12
1789.13
  22
-1595.16
  32
0.00
  13
1748.63
  23
-1824.16
  33
0.00
  0
3DFACE
  8
mg_to_dxf
  62
250
  10
1833.38
  20
-1517.16
  30
0.00
  11
1773.88
  21
-1575.16
  31
0.00
  12
1789.13
  22
-1595.16
  32
0.00
  13
1789.13
  23
-1595.16
  33
0.00
  0
3DFACE
  8
mg_to_dxf
  62
250
  10
1663.88
  20
-1899.16
  30
0.00
  11
1663.88
  21
-1899.16
  31
0.00
  12
1393.25
  22
-1845.16
  32
0.00
  13
1648.25
  23
-1903.16
  33
0.00
  0
3DFACE
  8
mg_to_dxf
  62
250
  10
1663.88
  20
-1899.16
  30
0.00
  11
1663.88
  21
-1899.16
  31
0.00
  12
1383.25
  22
-1798.16
  32
0.00
  13
1393.25
  23
-1845.16
  33
0.00
  0
3DFACE
  8
mg_to_dxf
  62
250
  10
1748.63
  20
-1824.16
  30
0.00
  11
1748.63
  21
-1824.16
  31
0.00
  12
1399.88
  22
-1758.16
  32
0.00
  13
1663.88
  23
-1899.16
  33
0.00
  0
3DFACE
  8
mg_to_dxf
  62
250
  10
1393.25
  20
-1845.16
  30
0.00
  11
1393.25
  21
-1845.16
  31
0.00
  12
1383.25
  22
-1798.16
  32
0.00
  13
1373.38
  23
-1835.16
  33
0.00
  0
3DFACE
  8
mg_to_dxf
  62
250
  10
1574.63
  20
-1588.16
  30
0.00
  11
1574.63
  21
-1588.16
  31
0.00
  12
1399.88
  22
-1758.16
  32
0.00
  13
1748.63
  23
-1824.16
  33
0.00
  0
3DFACE
  8
mg_to_dxf
  62
250
  10
1663.88
  20
-1899.16
  30
0.00
  11
1663.88
  21
-1899.16
  31
0.00
  12
1399.88
  22
-1758.16
  32
0.00
  13
1383.25
  23
-1798.16
  33
0.00
  0
3DFACE
  8
mg_to_dxf
  62
250
  10
1445.88
  20
-1693.16
  30
0.00
  11
1445.88
  21
-1693.16
  31
0.00
  12
1399.88
  22
-1758.16
  32
0.00
  13
1574.63
  23
-1588.16
  33
0.00
  0
3DFACE
  8
mg_to_dxf
  62
250
  10
1445.88
  20
-1693.16
  30
0.00
  11
1445.88
  21
-1693.16
  31
0.00
  12
1422.00
  22
-1722.16
  32
0.00
  13
1399.88
  23
-1758.16
  33
0.00
  0
3DFACE
  8
mg_to_dxf
  62
250
  10
1613.25
  20
-1522.16
  30
0.00
  11
1626.25
  21
-1489.16
  31
0.00
  12
1517.00
  22
-1581.16
  32
0.00
  13
1542.75
  23
-1574.16
  33
0.00
  0
3DFACE
  8
mg_to_dxf
  62
250
  10
1612.63
  20
-1541.16
  30
0.00
  11
1613.25
  21
-1522.16
  31
0.00
  12
1542.75
  22
-1574.16
  32
0.00
  13
1567.13
  23
-1571.16
  33
0.00
  0
3DFACE
  8
mg_to_dxf
  62
250
  10
1622.00
  20
-1552.16
  30
0.00
  11
1612.63
  21
-1541.16
  31
0.00
  12
1567.13
  22
-1571.16
  32
0.00
  13
1579.13
  23
-1578.16
  33
0.00
  0
3DFACE
  8
mg_to_dxf
  62
250
  10
1727.00
  20
-1580.16
  30
0.00
  11
1727.00
  21
-1580.16
  31
0.00
  12
1773.88
  22
-1575.16
  32
0.00
  13
1745.38
  23
-1571.16
  33
0.00
  0
3DFACE
  8
mg_to_dxf
  62
250
  10
1748.63
  20
-1824.16
  30
0.00
  11
1748.63
  21
-1824.16
  31
0.00
  12
1789.13
  22
-1595.16
  32
0.00
  13
1727.00
  23
-1580.16
  33
0.00
  0
3DFACE
  8
mg_to_dxf
  62
250
  10
1727.00
  20
-1580.16
  30
0.00
  11
1727.00
  21
-1580.16
  31
0.00
  12
1789.13
  22
-1595.16
  32
0.00
  13
1773.88
  23
-1575.16
  33
0.00
  0
3DFACE
  8
mg_to_dxf
  62
250
  10
1635.00
  20
-1556.16
  30
0.00
  11
1622.00
  21
-1552.16
  31
0.00
  12
1579.13
  22
-1578.16
  32
0.00
  13
1574.63
  23
-1588.16
  33
0.00
  0
3DFACE
  8
mg_to_dxf
  62
250
  10
1574.63
  20
-1588.16
  30
0.00
  11
1748.63
  21
-1824.16
  31
0.00
  12
1727.00
  22
-1580.16
  32
0.00
  13
1635.00
  23
-1556.16
  33
0.00
  0
3DFACE
  8
mg_to_dxf
  62
250
  10
1652.63
  20
-2117.16
  30
0.00
  11
1657.00
  21
-2144.16
  31
0.00
  12
1702.13
  22
-2142.16
  32
0.00
  13
1685.75
  23
-2122.16
  33
0.00
  0
3DFACE
  8
mg_to_dxf
  62
250
  10
1525.63
  20
-6516.16
  30
0.00
  11
1525.63
  21
-6516.16
  31
0.00
  12
1499.50
  22
-6489.16
  32
0.00
  13
1512.13
  23
-6517.16
  33
0.00
  0
3DFACE
  8
mg_to_dxf
  62
250
  10
1564.38
  20
-6470.16
  30
0.00
  11
1564.38
  21
-6470.16
  31
0.00
  12
1499.50
  22
-6489.16
  32
0.00
  13
1525.63
  23
-6516.16
  33
0.00
  0
3DFACE
  8
mg_to_dxf
  62
250
  10
1564.38
  20
-6470.16
  30
0.00
  11
1564.38
  21
-6470.16
  31
0.00
  12
1564.00
  22
-6462.16
  32
0.00
  13
1499.50
  23
-6489.16
  33
0.00
  0
3DFACE
  8
mg_to_dxf
  62
250
  10
1499.50
  20
-6489.16
  30
0.00
  11
1499.50
  21
-6489.16
  31
0.00
  12
1515.00
  22
-6378.16
  32
0.00
  13
1493.75
  23
-6394.16
  33
0.00
  0
3DFACE
  8
mg_to_dxf
  62
250
  10
1564.00
  20
-6462.16
  30
0.00
  11
1564.00
  21
-6462.16
  31
0.00
  12
1515.00
  22
-6378.16
  32
0.00
  13
1499.50
  23
-6489.16
  33
0.00
  0
3DFACE
  8
mg_to_dxf
  62
250
  10
1564.00
  20
-6462.16
  30
0.00
  11
1564.00
  21
-6462.16
  31
0.00
  12
1586.38
  22
-6392.16
  32
0.00
  13
1515.00
  23
-6378.16
  33
0.00
  0
3DFACE
  8
mg_to_dxf
  62
250
  10
1585.38
  20
-6431.16
  30
0.00
  11
1585.38
  21
-6431.16
  31
0.00
  12
1586.38
  22
-6392.16
  32
0.00
  13
1564.00
  23
-6462.16
  33
0.00
  0
3DFACE
  8
mg_to_dxf
  62
250
  10
1585.38
  20
-6431.16
  30
0.00
  11
1585.38
  21
-6431.16
  31
0.00
  12
1590.00
  22
-6405.16
  32
0.00
  13
1586.38
  23
-6392.16
  33
0.00
  0
3DFACE
  8
mg_to_dxf
  62
250
  10
1515.00
  20
-6378.16
  30
0.00
  11
1586.38
  21
-6392.16
  31
0.00
  12
1590.63
  22
-6381.16
  32
0.00
  13
1592.63
  23
-6367.16
  33
0.00
  0
3DFACE
  8
mg_to_dxf
  62
250
  10
1205.25
  20
-5839.16
  30
0.00
  11
1203.38
  21
-5824.16
  31
0.00
  12
984.25
  22
-5835.16
  32
0.00
  13
1006.25
  23
-6072.16
  33
0.00
  0
3DFACE
  8
mg_to_dxf
  62
250
  10
1536.25
  20
-5847.16
  30
0.00
  11
1536.25
  21
-5847.16
  31
0.00
  12
1573.25
  22
-5823.16
  32
0.00
  13
1535.00
  23
-5826.16
  33
0.00
  0
3DFACE
  8
mg_to_dxf
  62
250
  10
1574.75
  20
-6052.16
  30
0.00
  11
1574.75
  21
-6052.16
  31
0.00
  12
1573.25
  22
-5823.16
  32
0.00
  13
1536.25
  23
-5847.16
  33
0.00
  0
3DFACE
  8
mg_to_dxf
  62
250
  10
1574.75
  20
-6052.16
  30
0.00
  11
1574.75
  21
-6052.16
  31
0.00
  12
1591.63
  22
-6050.16
  32
0.00
  13
1573.25
  23
-5823.16
  33
0.00
  0
3DFACE
  8
mg_to_dxf
  62
250
  10
1034.88
  20
-6200.16
  30
0.00
  11
1034.88
  21
-6200.16
  31
0.00
  12
1351.63
  22
-5859.16
  32
0.00
  13
1006.25
  23
-6072.16
  33
0.00
  0
3DFACE
  8
mg_to_dxf
  62
250
  10
1574.75
  20
-6052.16
  30
0.00
  11
1574.75
  21
-6052.16
  31
0.00
  12
1351.63
  22
-5859.16
  32
0.00
  13
1034.88
  23
-6200.16
  33
0.00
  0
3DFACE
  8
mg_to_dxf
  62
250
  10
1574.75
  20
-6052.16
  30
0.00
  11
1574.75
  21
-6052.16
  31
0.00
  12
1536.25
  22
-5847.16
  32
0.00
  13
1351.63
  23
-5859.16
  33
0.00
  0
3DFACE
  8
mg_to_dxf
  62
250
  10
1590.36
  20
-6327.16
  30
0.00
  11
1574.75
  21
-6052.16
  31
0.00
  12
1034.88
  22
-6200.16
  32
0.00
  13
1034.88
  23
-6200.16
  33
0.00
  0
3DFACE
  8
mg_to_dxf
  62
250
  10
1515.00
  20
-6378.16
  30
0.00
  11
1592.63
  21
-6367.16
  31
0.00
  12
1592.11
  22
-6358.16
  32
0.00
  13
1592.11
  23
-6358.16
  33
0.00
  0
3DFACE
  8
mg_to_dxf
  62
250
  10
1592.11
  20
-6358.16
  30
0.00
  11
1590.36
  21
-6327.16
  31
0.00
  12
1515.00
  22
-6378.16
  32
0.00
  13
1515.00
  23
-6378.16
  33
0.00
  0
3DFACE
  8
mg_to_dxf
  62
250
  10
1493.75
  20
-6394.16
  30
0.00
  11
1515.00
  21
-6378.16
  31
0.00
  12
1051.88
  22
-6429.16
  32
0.00
  13
1051.88
  23
-6429.16
  33
0.00
  0
3DFACE
  8
mg_to_dxf
  62
250
  10
1493.75
  20
-6394.16
  30
0.00
  11
1493.75
  21
-6394.16
  31
0.00
  12
1244.75
  22
-6510.16
  32
0.00
  13
1499.50
  23
-6489.16
  33
0.00
  0
3DFACE
  8
mg_to_dxf
  62
250
  10
1051.88
  20
-6429.16
  30
0.00
  11
1051.88
  21
-6429.16
  31
0.00
  12
1244.75
  22
-6510.16
  32
0.00
  13
1493.75
  23
-6394.16
  33
0.00
  0
3DFACE
  8
mg_to_dxf
  62
250
  10
1051.88
  20
-6429.16
  30
0.00
  11
1051.88
  21
-6429.16
  31
0.00
  12
1078.25
  22
-6459.16
  32
0.00
  13
1244.75
  23
-6510.16
  33
0.00
  0
3DFACE
  8
mg_to_dxf
  62
250
  10
1515.00
  20
-6378.16
  30
0.00
  11
1034.88
  21
-6200.16
  31
0.00
  12
1051.88
  22
-6429.16
  32
0.00
  13
1051.88
  23
-6429.16
  33
0.00
  0
3DFACE
  8
mg_to_dxf
  62
250
  10
1515.00
  20
-6378.16
  30
0.00
  11
1590.36
  21
-6327.16
  31
0.00
  12
1034.88
  22
-6200.16
  32
0.00
  13
1034.88
  23
-6200.16
  33
0.00
  0
3DFACE
  8
mg_to_dxf
  62
250
  10
1351.63
  20
-5859.16
  30
0.00
  11
1347.75
  21
-5830.16
  31
0.00
  12
1205.25
  22
-5839.16
  32
0.00
  13
1006.25
  23
-6072.16
  33
0.00
  0
3DFACE
  8
mg_to_dxf
  62
250
  10
2008.00
  20
-5440.16
  30
0.00
  11
2016.88
  21
-5459.16
  31
0.00
  12
2031.88
  22
-5457.16
  32
0.00
  13
2043.13
  23
-5452.16
  33
0.00
  0
3DFACE
  8
mg_to_dxf
  62
250
  10
2043.13
  20
-5452.16
  30
0.00
  11
2073.13
  21
-5464.16
  31
0.00
  12
2161.63
  22
-5365.16
  32
0.00
  13
2161.63
  23
-5365.16
  33
0.00
  0
3DFACE
  8
mg_to_dxf
  62
250
  10
928.50
  20
-5029.16
  30
0.00
  11
959.75
  21
-5502.16
  31
0.00
  12
1161.88
  22
-5488.16
  32
0.00
  13
1161.88
  23
-5488.16
  33
0.00
  0
3DFACE
  8
mg_to_dxf
  62
250
  10
1317.00
  20
-4666.16
  30
0.00
  11
904.63
  21
-4696.16
  31
0.00
  12
906.88
  22
-4757.16
  32
0.00
  13
906.88
  23
-4757.16
  33
0.00
  0
3DFACE
  8
mg_to_dxf
  62
250
  10
1317.00
  20
-4666.16
  30
0.00
  11
1317.00
  21
-4666.16
  31
0.00
  12
1161.88
  22
-5488.16
  32
0.00
  13
1221.45
  23
-5493.18
  33
0.00
  0
3DFACE
  8
mg_to_dxf
  62
250
  10
1221.45
  20
-5493.18
  30
0.00
  11
1221.45
  21
-5493.18
  31
0.00
  12
1161.88
  22
-5488.16
  32
0.00
  13
1192.00
  23
-5495.16
  33
0.00
  0
3DFACE
  8
mg_to_dxf
  62
250
  10
906.88
  20
-4757.16
  30
0.00
  11
906.88
  21
-4757.16
  31
0.00
  12
1161.88
  22
-5488.16
  32
0.00
  13
1317.00
  23
-4666.16
  33
0.00
  0
3DFACE
  8
mg_to_dxf
  62
250
  10
906.88
  20
-4757.16
  30
0.00
  11
906.88
  21
-4757.16
  31
0.00
  12
928.50
  22
-5029.16
  32
0.00
  13
1161.88
  23
-5488.16
  33
0.00
  0
3DFACE
  8
mg_to_dxf
  62
250
  10
1221.45
  20
-5493.18
  30
0.00
  11
1236.63
  21
-5492.16
  31
0.00
  12
1442.25
  22
-5413.16
  32
0.00
  13
1317.00
  23
-4666.16
  33
0.00
  0
3DFACE
  8
mg_to_dxf
  62
250
  10
1445.00
  20
-5445.40
  30
0.00
  11
1442.25
  21
-5413.16
  31
0.00
  12
1236.63
  22
-5492.16
  32
0.00
  13
1236.63
  23
-5492.16
  33
0.00
  0
3DFACE
  8
mg_to_dxf
  62
250
  10
1236.63
  20
-5492.16
  30
0.00
  11
1447.63
  21
-5476.16
  31
0.00
  12
1445.00
  22
-5445.40
  32
0.00
  13
1445.00
  23
-5445.40
  33
0.00
  0
3DFACE
  8
mg_to_dxf
  62
250
  10
1442.25
  20
-5413.16
  30
0.00
  11
1540.00
  21
-5406.16
  31
0.00
  12
1922.25
  22
-4761.16
  32
0.00
  13
1317.00
  23
-4666.16
  33
0.00
  0
3DFACE
  8
mg_to_dxf
  62
250
  10
1540.00
  20
-5406.16
  30
0.00
  11
1542.63
  21
-5440.16
  31
0.00
  12
1950.38
  22
-5437.16
  32
0.00
  13
1922.25
  23
-4761.16
  33
0.00
  0
3DFACE
  8
mg_to_dxf
  62
250
  10
1526.08
  20
-5469.17
  30
0.00
  11
1526.08
  21
-5469.17
  31
0.00
  12
1542.63
  22
-5440.16
  32
0.00
  13
1524.00
  23
-5441.16
  33
0.00
  0
3DFACE
  8
mg_to_dxf
  62
250
  10
1526.08
  20
-5469.17
  30
0.00
  11
1526.08
  21
-5469.17
  31
0.00
  12
1922.25
  22
-5480.16
  32
0.00
  13
1542.63
  23
-5440.16
  33
0.00
  0
3DFACE
  8
mg_to_dxf
  62
250
  10
1831.75
  20
-5536.16
  30
0.00
  11
1831.75
  21
-5536.16
  31
0.00
  12
1922.25
  22
-5480.16
  32
0.00
  13
1526.08
  23
-5469.17
  33
0.00
  0
3DFACE
  8
mg_to_dxf
  62
250
  10
1542.63
  20
-5440.16
  30
0.00
  11
1542.63
  21
-5440.16
  31
0.00
  12
1922.25
  22
-5480.16
  32
0.00
  13
1950.38
  23
-5437.16
  33
0.00
  0
3DFACE
  8
mg_to_dxf
  62
250
  10
1526.08
  20
-5469.17
  30
0.00
  11
1532.63
  21
-5557.16
  31
0.00
  12
1831.75
  22
-5536.16
  32
0.00
  13
1831.75
  23
-5536.16
  33
0.00
  0
3DFACE
  8
mg_to_dxf
  62
250
  10
1950.38
  20
-5437.16
  30
0.00
  11
1996.88
  21
-5426.16
  31
0.00
  12
2247.25
  22
-4833.16
  32
0.00
  13
1922.25
  23
-4761.16
  33
0.00
  0
3DFACE
  8
mg_to_dxf
  62
250
  10
1996.88
  20
-5426.16
  30
0.00
  11
2043.13
  21
-5452.16
  31
0.00
  12
2161.63
  22
-5365.16
  32
0.00
  13
2247.25
  23
-4833.16
  33
0.00
  0
3DFACE
  8
mg_to_dxf
  62
250
  10
1996.88
  20
-5426.16
  30
0.00
  11
2008.00
  21
-5440.16
  31
0.00
  12
2043.13
  22
-5452.16
  32
0.00
  13
2043.13
  23
-5452.16
  33
0.00
  0
3DFACE
  8
mg_to_dxf
  62
250
  10
1524.00
  20
-5441.16
  30
0.00
  11
1445.00
  21
-5445.40
  31
0.00
  12
1447.63
  22
-5476.16
  32
0.00
  13
1526.08
  23
-5469.17
  33
0.00
  0
3DFACE
  8
mg_to_dxf
  62
250
  10
1526.08
  20
-5469.17
  30
0.00
  11
1524.00
  21
-5441.16
  31
0.00
  12
1542.63
  22
-5440.16
  32
0.00
  13
1542.63
  23
-5440.16
  33
0.00
  0
3DFACE
  8
mg_to_dxf
  62
250
  10
2017.38
  20
-4303.16
  30
0.00
  11
1250.50
  21
-4362.16
  31
0.00
  12
1255.63
  22
-4471.16
  32
0.00
  13
1303.75
  23
-4465.16
  33
0.00
  0
3DFACE
  8
mg_to_dxf
  62
250
  10
2017.38
  20
-4303.16
  30
0.00
  11
2017.38
  21
-4303.16
  31
0.00
  12
2212.13
  22
-4425.16
  32
0.00
  13
2190.13
  23
-4391.16
  33
0.00
  0
3DFACE
  8
mg_to_dxf
  62
250
  10
2190.13
  20
-4391.16
  30
0.00
  11
2190.13
  21
-4391.16
  31
0.00
  12
2212.13
  22
-4425.16
  32
0.00
  13
2204.75
  23
-4405.16
  33
0.00
  0
3DFACE
  8
mg_to_dxf
  62
250
  10
1922.25
  20
-4761.16
  30
0.00
  11
1922.25
  21
-4761.16
  31
0.00
  12
2212.13
  22
-4425.16
  32
0.00
  13
2017.38
  23
-4303.16
  33
0.00
  0
3DFACE
  8
mg_to_dxf
  62
250
  10
1922.25
  20
-4761.16
  30
0.00
  11
1922.25
  21
-4761.16
  31
0.00
  12
2247.25
  22
-4833.16
  32
0.00
  13
2212.13
  23
-4425.16
  33
0.00
  0
3DFACE
  8
mg_to_dxf
  62
250
  10
2017.38
  20
-4303.16
  30
0.00
  11
1303.75
  21
-4465.16
  31
0.00
  12
1317.00
  22
-4666.16
  32
0.00
  13
1922.25
  23
-4761.16
  33
0.00
  0
3DFACE
  8
mg_to_dxf
  62
250
  10
960.75
  20
-4551.16
  30
0.00
  11
934.63
  21
-4553.16
  31
0.00
  12
943.88
  22
-4654.16
  32
0.00
  13
943.88
  23
-4654.16
  33
0.00
  0
3DFACE
  8
mg_to_dxf
  62
250
  10
1124.13
  20
-4345.16
  30
0.00
  11
1124.13
  21
-4345.16
  31
0.00
  12
1244.00
  22
-4478.16
  32
0.00
  13
1169.38
  23
-4345.16
  33
0.00
  0
3DFACE
  8
mg_to_dxf
  62
250
  10
1169.38
  20
-4345.16
  30
0.00
  11
1169.38
  21
-4345.16
  31
0.00
  12
1244.00
  22
-4478.16
  32
0.00
  13
1250.50
  23
-4362.16
  33
0.00
  0
3DFACE
  8
mg_to_dxf
  62
250
  10
1113.25
  20
-4531.16
  30
0.00
  11
1113.25
  21
-4531.16
  31
0.00
  12
1244.00
  22
-4478.16
  32
0.00
  13
1124.13
  23
-4345.16
  33
0.00
  0
3DFACE
  8
mg_to_dxf
  62
250
  10
1250.50
  20
-4362.16
  30
0.00
  11
1250.50
  21
-4362.16
  31
0.00
  12
1244.00
  22
-4478.16
  32
0.00
  13
1255.63
  23
-4471.16
  33
0.00
  0
3DFACE
  8
mg_to_dxf
  62
250
  10
1113.25
  20
-4531.16
  30
0.00
  11
1113.25
  21
-4531.16
  31
0.00
  12
955.13
  22
-4518.16
  32
0.00
  13
972.25
  23
-4536.16
  33
0.00
  0
3DFACE
  8
mg_to_dxf
  62
250
  10
1113.25
  20
-4531.16
  30
0.00
  11
1113.25
  21
-4531.16
  31
0.00
  12
945.88
  22
-4336.16
  32
0.00
  13
955.13
  23
-4518.16
  33
0.00
  0
3DFACE
  8
mg_to_dxf
  62
250
  10
1124.13
  20
-4345.16
  30
0.00
  11
1124.13
  21
-4345.16
  31
0.00
  12
945.88
  22
-4336.16
  32
0.00
  13
1113.25
  23
-4531.16
  33
0.00
  0
3DFACE
  8
mg_to_dxf
  62
250
  10
1124.13
  20
-4345.16
  30
0.00
  11
1124.13
  21
-4345.16
  31
0.00
  12
1083.63
  22
-4337.16
  32
0.00
  13
945.88
  23
-4336.16
  33
0.00
  0
3DFACE
  8
mg_to_dxf
  62
250
  10
1244.00
  20
-4478.16
  30
0.00
  11
1244.00
  21
-4478.16
  31
0.00
  12
1231.25
  22
-4657.16
  32
0.00
  13
1253.75
  23
-4616.16
  33
0.00
  0
3DFACE
  8
mg_to_dxf
  62
250
  10
1244.00
  20
-4478.16
  30
0.00
  11
1244.00
  21
-4478.16
  31
0.00
  12
1157.25
  22
-4662.16
  32
0.00
  13
1231.25
  23
-4657.16
  33
0.00
  0
3DFACE
  8
mg_to_dxf
  62
250
  10
1113.25
  20
-4531.16
  30
0.00
  11
1113.25
  21
-4531.16
  31
0.00
  12
1157.25
  22
-4662.16
  32
0.00
  13
1244.00
  23
-4478.16
  33
0.00
  0
3DFACE
  8
mg_to_dxf
  62
250
  10
1113.25
  20
-4531.16
  30
0.00
  11
1113.25
  21
-4531.16
  31
0.00
  12
1131.38
  22
-4640.16
  32
0.00
  13
1157.25
  23
-4662.16
  33
0.00
  0
3DFACE
  8
mg_to_dxf
  62
250
  10
955.13
  20
-4518.16
  30
0.00
  11
960.75
  21
-4551.16
  31
0.00
  12
978.75
  22
-4550.16
  32
0.00
  13
972.25
  23
-4536.16
  33
0.00
  0
3DFACE
  8
mg_to_dxf
  62
250
  10
1018.00
  20
-4647.16
  30
0.00
  11
1011.13
  21
-4548.16
  31
0.00
  12
978.75
  22
-4550.16
  32
0.00
  13
978.75
  23
-4550.16
  33
0.00
  0
3DFACE
  8
mg_to_dxf
  62
250
  10
978.75
  20
-4550.16
  30
0.00
  11
960.75
  21
-4551.16
  31
0.00
  12
943.88
  22
-4654.16
  32
0.00
  13
1018.00
  23
-4647.16
  33
0.00
  0
3DFACE
  8
mg_to_dxf
  62
250
  10
1499.50
  20
-6489.16
  30
0.00
  11
1507.00
  21
-6529.16
  31
0.00
  12
1512.13
  22
-6517.16
  32
0.00
  13
1512.13
  23
-6517.16
  33
0.00
  0
3DFACE
  8
mg_to_dxf
  62
250
  10
1564.38
  20
-6470.16
  30
0.00
  11
1564.38
  21
-6470.16
  31
0.00
  12
1561.00
  22
-6512.16
  32
0.00
  13
1571.63
  23
-6472.16
  33
0.00
  0
3DFACE
  8
mg_to_dxf
  62
250
  10
1525.63
  20
-6516.16
  30
0.00
  11
1525.63
  21
-6516.16
  31
0.00
  12
1561.00
  22
-6512.16
  32
0.00
  13
1564.38
  23
-6470.16
  33
0.00
  0
3DFACE
  8
mg_to_dxf
  62
250
  10
1525.63
  20
-6516.16
  30
0.00
  11
1525.63
  21
-6516.16
  31
0.00
  12
1549.63
  22
-6519.16
  32
0.00
  13
1561.00
  23
-6512.16
  33
0.00
  0
3DFACE
  8
mg_to_dxf
  62
250
  10
1557.63
  20
-6538.16
  30
0.00
  11
1513.00
  21
-6542.16
  31
0.00
  12
1565.00
  22
-6562.16
  32
0.00
  13
1565.00
  23
-6562.16
  33
0.00
  0
3DFACE
  8
mg_to_dxf
  62
250
  10
1569.75
  20
-6571.16
  30
0.00
  11
1567.13
  21
-6579.16
  31
0.00
  12
1619.38
  22
-6857.16
  32
0.00
  13
1604.50
  23
-6562.16
  33
0.00
  0
3DFACE
  8
mg_to_dxf
  62
250
  10
1619.38
  20
-6857.16
  30
0.00
  11
1619.38
  21
-6857.16
  31
0.00
  12
1574.00
  22
-6894.16
  32
0.00
  13
1604.63
  23
-6882.16
  33
0.00
  0
3DFACE
  8
mg_to_dxf
  62
250
  10
1619.38
  20
-6857.16
  30
0.00
  11
1619.38
  21
-6857.16
  31
0.00
  12
1338.88
  22
-6907.16
  32
0.00
  13
1574.00
  23
-6894.16
  33
0.00
  0
3DFACE
  8
mg_to_dxf
  62
250
  10
1567.13
  20
-6579.16
  30
0.00
  11
1567.13
  21
-6579.16
  31
0.00
  12
1338.88
  22
-6907.16
  32
0.00
  13
1619.38
  23
-6857.16
  33
0.00
  0
3DFACE
  8
mg_to_dxf
  62
250
  10
1567.13
  20
-6579.16
  30
0.00
  11
1567.13
  21
-6579.16
  31
0.00
  12
1313.34
  22
-6603.17
  32
0.00
  13
1338.88
  23
-6907.16
  33
0.00
  0
3DFACE
  8
mg_to_dxf
  62
250
  10
1499.50
  20
-6489.16
  30
0.00
  11
1244.75
  21
-6510.16
  31
0.00
  12
1291.08
  22
-6563.21
  32
0.00
  13
1374.13
  23
-6554.16
  33
0.00
  0
3DFACE
  8
mg_to_dxf
  62
250
  10
1342.38
  20
-6564.16
  30
0.00
  11
1298.98
  21
-6572.25
  31
0.00
  12
1312.00
  22
-6587.16
  32
0.00
  13
1312.00
  23
-6587.16
  33
0.00
  0
3DFACE
  8
mg_to_dxf
  62
250
  10
1374.13
  20
-6554.16
  30
0.00
  11
1513.00
  21
-6542.16
  31
0.00
  12
1507.00
  22
-6529.16
  32
0.00
  13
1507.00
  23
-6529.16
  33
0.00
  0
3DFACE
  8
mg_to_dxf
  62
250
  10
1507.00
  20
-6529.16
  30
0.00
  11
1499.50
  21
-6489.16
  31
0.00
  12
1374.13
  22
-6554.16
  32
0.00
  13
1374.13
  23
-6554.16
  33
0.00
  0
3DFACE
  8
mg_to_dxf
  62
250
  10
1513.00
  20
-6542.16
  30
0.00
  11
1513.00
  21
-6542.16
  31
0.00
  12
1312.00
  22
-6587.16
  32
0.00
  13
1565.00
  23
-6562.16
  33
0.00
  0
3DFACE
  8
mg_to_dxf
  62
250
  10
1374.13
  20
-6554.16
  30
0.00
  11
1374.13
  21
-6554.16
  31
0.00
  12
1312.00
  22
-6587.16
  32
0.00
  13
1513.00
  23
-6542.16
  33
0.00
  0
3DFACE
  8
mg_to_dxf
  62
250
  10
1374.13
  20
-6554.16
  30
0.00
  11
1374.13
  21
-6554.16
  31
0.00
  12
1342.38
  22
-6564.16
  32
0.00
  13
1312.00
  23
-6587.16
  33
0.00
  0
3DFACE
  8
mg_to_dxf
  62
250
  10
1291.08
  20
-6563.21
  30
0.00
  11
1244.75
  21
-6510.16
  31
0.00
  12
1078.25
  22
-6459.16
  32
0.00
  13
1078.25
  23
-6459.16
  33
0.00
  0
3DFACE
  8
mg_to_dxf
  62
250
  10
1313.34
  20
-6603.17
  30
0.00
  11
1312.00
  21
-6587.16
  31
0.00
  12
1298.98
  22
-6572.25
  32
0.00
  13
1183.63
  23
-6917.16
  33
0.00
  0
3DFACE
  8
mg_to_dxf
  62
250
  10
1183.63
  20
-6917.16
  30
0.00
  11
1338.88
  21
-6907.16
  31
0.00
  12
1313.34
  22
-6603.17
  32
0.00
  13
1313.34
  23
-6603.17
  33
0.00
  0
3DFACE
  8
mg_to_dxf
  62
250
  10
1298.98
  20
-6572.25
  30
0.00
  11
1291.08
  21
-6563.21
  31
0.00
  12
1078.25
  22
-6459.16
  32
0.00
  13
1183.63
  23
-6917.16
  33
0.00
  0
3DFACE
  8
mg_to_dxf
  62
250
  10
1831.75
  20
-5536.16
  30
0.00
  11
1926.13
  21
-5529.16
  31
0.00
  12
1922.25
  22
-5480.16
  32
0.00
  13
1922.25
  23
-5480.16
  33
0.00
  0
3DFACE
  8
mg_to_dxf
  62
250
  10
1952.25
  20
-5465.16
  30
0.00
  11
1950.38
  21
-5437.16
  31
0.00
  12
1922.25
  22
-5480.16
  32
0.00
  13
1922.25
  23
-5480.16
  33
0.00
  0
3DFACE
  8
mg_to_dxf
  62
250
  10
1524.00
  20
-5441.16
  30
0.00
  11
1542.63
  21
-5440.16
  31
0.00
  12
1540.00
  22
-5406.16
  32
0.00
  13
1540.00
  23
-5406.16
  33
0.00
  0
3DFACE
  8
mg_to_dxf
  62
250
  10
1540.00
  20
-5406.16
  30
0.00
  11
1442.25
  21
-5413.16
  31
0.00
  12
1445.00
  22
-5445.40
  32
0.00
  13
1524.00
  23
-5441.16
  33
0.00
  0
ENDSEC
  0
EOF
